<?xml version="1.0" encoding="utf-8"?>
<!-- Generator: Adobe Illustrator 24.0.2, SVG Export Plug-In . SVG Version: 6.00 Build 0)  -->
<svg version="1.1" id="Capa_1" xmlns="http://www.w3.org/2000/svg" xmlns:xlink="http://www.w3.org/1999/xlink" x="0px" y="0px"
	 viewBox="0 0 24 24" style="enable-background:new 0 0 24 24;" xml:space="preserve">
<style type="text/css">
	.st0{fill:#0087E2;}
	.st1{fill:#FFFFFF;}
</style>
<title>ic-arrow-down</title>
<desc>Created with Sketch.</desc>
<g>
	<path class="st0" d="M13.6,17.5v-3H6.2c-0.8,0-1.5-0.7-1.5-1.5V10c0-0.8,0.7-1.5,1.5-1.5h7.4v-3l7,6L13.6,17.5z"/>
	<path class="st1" d="M22.1,11.5l-9.5-8.1v4.2H6.9c-1.8,0-3.3,1.5-3.3,3.3v1.4c0,1.8,1.5,3.3,3.3,3.3h5.7v4.2L22.1,11.5z M14.6,7.7
		l4.4,3.8l-4.4,3.8v-1.8H7.2c-0.9,0-1.6-0.7-1.6-1.6v-0.8c0-0.9,0.7-1.6,1.6-1.6h7.4V7.7z"/>
</g>
</svg>
