<?xml version="1.0" encoding="utf-8"?>
<!-- Generator: Adobe Illustrator 24.0.2, SVG Export Plug-In . SVG Version: 6.00 Build 0)  -->
<svg version="1.1" id="Capa_1" xmlns="http://www.w3.org/2000/svg" xmlns:xlink="http://www.w3.org/1999/xlink" x="0px" y="0px"
	 viewBox="0 0 70 40" style="enable-background:new 0 0 70 40;" xml:space="preserve">
<style type="text/css">
	.st0{fill:#FFFFFF;}
	.st1{fill:#2E80BC;}
	.st2{fill:#CCCCCC;}
	.st3{fill:#00BDFF;}
</style>
<g>
	<title>Address Book Send</title>
	<desc>Created with Sketch.</desc>
	<rect x="15.8" y="9" class="st0" width="16.1" height="21.2"/>
	<path class="st1" d="M31.9,9.8h1.4v13.1l0,0c0.6,0,1.1,0.4,1.1,1.1v1.9c0,0.6-0.4,1.1-1.1,1.1l0,0v2.5h-1.4V9.8z"/>
	<g>
		<path class="st2" d="M14.8,10.9H17c0.4,0,0.8,0.3,0.8,0.8l0,0c0,0.4-0.3,0.8-0.8,0.8h-2.2c-0.4-0.1-0.8-0.4-0.8-0.9l0,0
			C14.1,11.1,14.4,10.9,14.8,10.9z"/>
		<path class="st2" d="M14.8,14.9H17c0.4,0,0.8,0.3,0.8,0.8l0,0c0,0.4-0.3,0.8-0.8,0.8h-2.2c-0.4,0-0.8-0.3-0.8-0.8l0,0
			C14.1,15.2,14.4,14.9,14.8,14.9z"/>
		<path class="st2" d="M14.8,18.9H17c0.4,0,0.8,0.3,0.8,0.8l0,0c0,0.4-0.3,0.8-0.8,0.8h-2.2c-0.4,0-0.8-0.3-0.8-0.8l0,0
			C14.1,19.2,14.4,18.9,14.8,18.9z"/>
		<path class="st2" d="M14.8,22.9H17c0.4,0,0.8,0.3,0.8,0.8l0,0c0,0.4-0.3,0.8-0.8,0.8h-2.2c-0.4,0-0.8-0.3-0.8-0.8l0,0
			C14.1,23.3,14.4,22.9,14.8,22.9z"/>
		<path class="st2" d="M14.8,26.9H17c0.4,0,0.8,0.3,0.8,0.8l0,0c0,0.4-0.3,0.8-0.8,0.8h-2.2c-0.4,0-0.8-0.3-0.8-0.8l0,0
			C14.1,27.2,14.4,26.9,14.8,26.9z"/>
	</g>
	<g>
		<circle class="st1" cx="24.3" cy="14.6" r="1.4"/>
		<path class="st1" d="M24.3,16L24.3,16c1.2,0,2.2,1,2.2,2.2v2.2l0,0h-4.4l0,0v-2.2C22.1,17,23.1,16,24.3,16z"/>
	</g>
	<g>
		<path class="st3" d="M15.8,15.2c-0.1,0-0.3-0.1-0.3-0.3v-2.5c0-0.2,0.1-0.3,0.3-0.3c0.2,0,0.3,0.1,0.3,0.3v2.5
			C16.3,15.1,16,15.2,15.8,15.2z"/>
		<path class="st3" d="M15.8,19.3c-0.2,0-0.3-0.1-0.3-0.3v-2.5c0-0.2,0.1-0.3,0.3-0.3c0.2,0,0.3,0.1,0.3,0.3V19
			C16.3,19.1,16,19.3,15.8,19.3z"/>
		<path class="st3" d="M15.8,23.3c-0.2,0-0.3-0.1-0.3-0.3v-2.5c0-0.2,0.1-0.3,0.3-0.3c0.2,0,0.3,0.1,0.3,0.3v2.5
			C16.3,23.2,16,23.3,15.8,23.3z"/>
		<path class="st3" d="M15.8,27.2c-0.2,0-0.3-0.1-0.3-0.3v-2.5c0-0.2,0.1-0.3,0.3-0.3c0.2,0,0.3,0.1,0.3,0.3v2.5
			C16.3,27.1,16,27.2,15.8,27.2z"/>
		<path class="st3" d="M33.4,29.9h-1.4c-0.2,0-0.3-0.1-0.3-0.3s0.1-0.3,0.3-0.3H33V27c0-0.2,0.1-0.3,0.3-0.3c0.4,0,0.8-0.3,0.8-0.8
			V24c0-0.4-0.3-0.8-0.8-0.8c-0.2,0-0.3-0.1-0.3-0.3v-8.8c0-0.2,0.1-0.3,0.3-0.3c0.2,0,0.3,0.1,0.3,0.3v8.5c0.7,0.2,1.1,0.8,1.1,1.4
			v1.9c0,0.7-0.4,1.2-1.1,1.4v2.2C33.8,29.7,33.6,29.9,33.4,29.9z"/>
		<path class="st3" d="M33.4,13c-0.2,0-0.3-0.1-0.3-0.3v-0.3c0-0.2,0.1-0.3,0.3-0.3c0.2,0,0.3,0.1,0.3,0.3v0.3
			C33.8,12.9,33.6,13,33.4,13z"/>
		<path class="st3" d="M33.4,11.2c-0.2,0-0.3-0.1-0.3-0.3v-0.8h-1.1c-0.2,0-0.3-0.1-0.3-0.3c0-0.2,0.1-0.3,0.3-0.3h1.4
			c0.2,0,0.3,0.1,0.3,0.3v1.1C33.8,11,33.6,11.2,33.4,11.2z"/>
		<path class="st3" d="M16.9,20.7h-1.8c-0.2,0-0.3-0.1-0.3-0.3c0-0.2,0.1-0.3,0.3-0.3H17c0.2,0,0.3-0.1,0.3-0.3s-0.1-0.3-0.3-0.3
			h-2.2c-0.2,0-0.3,0.1-0.3,0.3s-0.1,0.3-0.3,0.3s-0.3-0.1-0.3-0.3c0-0.6,0.4-1.1,1.1-1.1h2.2c0.6,0,1.1,0.4,1.1,1.1
			S17.6,20.7,16.9,20.7z"/>
		<path class="st3" d="M16.9,16.7h-1.8c-0.2,0-0.3-0.1-0.3-0.3s0.1-0.3,0.3-0.3H17c0.2,0,0.3-0.1,0.3-0.3s-0.1-0.3-0.3-0.3h-2.2
			c-0.2,0-0.3,0.1-0.3,0.3S14.4,16,14.2,16s-0.4-0.2-0.4-0.3c0-0.6,0.4-1.1,1.1-1.1H17c0.6,0,1.1,0.4,1.1,1.1
			C18,16.2,17.6,16.7,16.9,16.7z"/>
		<path class="st3" d="M16.9,12.7h-1.8c-0.2,0-0.3-0.1-0.3-0.3c0-0.2,0.1-0.3,0.3-0.3H17c0.2,0,0.3-0.1,0.3-0.3s-0.2-0.4-0.4-0.4
			h-2.2c-0.1,0-0.3,0.1-0.3,0.3c0,0.2-0.1,0.3-0.3,0.3s-0.3-0.1-0.3-0.3c0-0.6,0.4-1.1,1.1-1.1H17c0.6,0,1.1,0.4,1.1,1.1
			C18.1,12.2,17.6,12.7,16.9,12.7z"/>
		<path class="st3" d="M16.9,28.8h-1.8c-0.2,0-0.3-0.1-0.3-0.3s0.1-0.3,0.3-0.3H17c0.2,0,0.3-0.1,0.3-0.3c0-0.2-0.1-0.3-0.3-0.3
			h-2.2c-0.2,0-0.3,0.1-0.3,0.3c0,0.2-0.1,0.3-0.3,0.3s-0.3-0.1-0.3-0.3c0-0.6,0.4-1.1,1.1-1.1h2.2c0.6,0,1.1,0.4,1.1,1.1
			S17.6,28.8,16.9,28.8z"/>
		<path class="st3" d="M16.9,24.7h-1.8c-0.2,0-0.3-0.1-0.3-0.3c0-0.2,0.1-0.3,0.3-0.3H17c0.2,0,0.3-0.1,0.3-0.3
			c0-0.2-0.1-0.3-0.3-0.3h-2.2c-0.2,0-0.3,0.1-0.3,0.3c0,0.2-0.1,0.3-0.3,0.3s-0.3-0.1-0.3-0.3c0-0.6,0.4-1.1,1.1-1.1h2.2
			c0.6,0,1.1,0.4,1.1,1.1C18.2,24.4,17.6,24.7,16.9,24.7z"/>
		<path class="st3" d="M31.9,30.5H15.8c-0.2,0-0.3-0.1-0.3-0.3v-0.8c0-0.2,0.1-0.3,0.3-0.3c0.2,0,0.3,0.1,0.3,0.3v0.3h15.3v-4
			c0-0.2,0.1-0.3,0.3-0.3c0.2,0,0.3,0.1,0.3,0.3v4.4C32.3,30.4,32.1,30.5,31.9,30.5z"/>
		<path class="st3" d="M31.9,24.7c-0.2,0-0.3-0.1-0.3-0.3v-15H16.3v1.4c0,0.2-0.1,0.3-0.3,0.3c-0.2,0-0.4-0.1-0.4-0.2V9
			c0-0.2,0.1-0.3,0.3-0.3h16.1c0.2,0,0.3,0.1,0.3,0.3v15.3C32.3,24.6,32.1,24.7,31.9,24.7z"/>
		<path class="st3" d="M24.3,16.3c-1,0-1.9-0.8-1.9-1.9s0.8-1.8,1.9-1.8c1,0,1.9,0.8,1.9,1.9C26.1,15.5,25.3,16.3,24.3,16.3z
			 M24.3,13.5c-0.6,0-1.1,0.4-1.1,1.1s0.4,1.1,1.1,1.1s1.1-0.4,1.1-1.1S24.9,13.5,24.3,13.5z"/>
		<path class="st3" d="M26.4,20.7c-0.2,0-0.3-0.1-0.3-0.3v-2.2c0-1-0.8-1.9-1.9-1.9c-1,0-1.9,0.8-1.9,1.9v1.9h2.5
			c0.2,0,0.3,0.1,0.3,0.3c0,0.2-0.1,0.3-0.3,0.3H22c-0.2,0-0.3-0.1-0.3-0.3v-2.2c0-1.4,1.1-2.5,2.5-2.5s2.5,1.1,2.5,2.5v2.2
			C26.8,20.5,26.6,20.7,26.4,20.7z"/>
	</g>
	<path class="st0" d="M24.3,19.3c-0.2,0-0.3-0.1-0.3-0.3v-1.4c0-0.2,0.1-0.3,0.3-0.3s0.3,0.1,0.3,0.3V19
		C24.6,19.1,24.4,19.3,24.3,19.3z"/>
	<g>
		<path class="st3" d="M22.1,23.3h-0.3c-0.2,0-0.3-0.1-0.3-0.3c0-0.2,0.1-0.3,0.3-0.3h0.3c0.2,0,0.3,0.1,0.3,0.3
			C22.4,23.2,22.2,23.3,22.1,23.3z"/>
		<path class="st3" d="M28.3,23.3h-4.7c-0.2,0-0.3-0.1-0.3-0.3c0-0.2,0.1-0.3,0.3-0.3h4.7c0.2,0,0.3,0.1,0.3,0.3
			C28.6,23.2,28.5,23.3,28.3,23.3z"/>
		<path class="st3" d="M28.3,24.7h-8c-0.2,0-0.3-0.1-0.3-0.3c0-0.2,0.1-0.3,0.3-0.3h8c0.2,0,0.3,0.1,0.3,0.3
			C28.6,24.6,28.5,24.7,28.3,24.7z"/>
		<path class="st3" d="M26.8,26.1h-6.6c-0.2,0-0.3-0.1-0.3-0.3s0.1-0.3,0.3-0.3h6.6c0.2,0,0.3,0.1,0.3,0.3S27,26.1,26.8,26.1z"/>
	</g>
</g>
</svg>
