<?xml version="1.0" encoding="utf-8"?>
<!-- Generator: Adobe Illustrator 24.0.2, SVG Export Plug-In . SVG Version: 6.00 Build 0)  -->
<svg version="1.1" id="Capa_1" xmlns="http://www.w3.org/2000/svg" xmlns:xlink="http://www.w3.org/1999/xlink" x="0px" y="0px"
	 viewBox="0 0 26 26" style="enable-background:new 0 0 26 26;" xml:space="preserve">
<style type="text/css">
	.st0{fill:#00BDFF;}
	.st1{fill:#74B6F7;}
	.st2{fill:#CCCCCC;}
	.st3{fill:#2E80BC;}
	.st4{fill:#FFFFFF;}
</style>
<g>
	<rect x="4.5" y="2.4" class="st0" width="16.5" height="21.8"/>
	<path class="st1" d="M21.1,3.2h1.5v13.5l0,0c0.6,0,1.1,0.5,1.1,1.1v1.9c0,0.6-0.5,1.1-1.1,1.1l0,0v2.6h-1.5V3.2z"/>
	<g>
		<path class="st2" d="M3.5,4.3h2.3c0.5,0,0.8,0.3,0.8,0.8l0,0c0,0.5-0.3,0.8-0.8,0.8H3.5C3,5.8,2.7,5.5,2.7,5l0,0
			C2.7,4.5,3,4.3,3.5,4.3z"/>
		<path class="st2" d="M3.5,8.4h2.3c0.5,0,0.8,0.3,0.8,0.8l0,0c0,0.5-0.3,0.8-0.8,0.8H3.5C3,10,2.7,9.6,2.7,9.2l0,0
			C2.7,8.7,3,8.4,3.5,8.4z"/>
		<path class="st2" d="M3.5,12.5h2.3c0.5,0,0.8,0.3,0.8,0.8l0,0c0,0.5-0.3,0.8-0.8,0.8H3.5c-0.5,0-0.8-0.3-0.8-0.8l0,0
			C2.7,12.8,3,12.5,3.5,12.5z"/>
		<path class="st2" d="M3.5,16.7h2.3c0.5,0,0.8,0.3,0.8,0.8l0,0c0,0.5-0.3,0.8-0.8,0.8H3.5c-0.5,0-0.8-0.3-0.8-0.8l0,0
			C2.7,17,3,16.7,3.5,16.7z"/>
		<path class="st2" d="M3.5,20.7h2.3c0.5,0,0.8,0.3,0.8,0.8l0,0c0,0.5-0.3,0.8-0.8,0.8H3.5c-0.5,0-0.8-0.3-0.8-0.8l0,0
			C2.7,21.1,3,20.7,3.5,20.7z"/>
	</g>
	<g>
		<circle class="st3" cx="13.2" cy="8.1" r="1.5"/>
		<path class="st3" d="M13.2,9.5L13.2,9.5c1.2,0,2.3,1,2.3,2.3v2.3l0,0H11l0,0v-2.3C11,10.6,12,9.5,13.2,9.5z"/>
	</g>
	<g>
		<path class="st4" d="M4.5,8.7c-0.1,0-0.3-0.1-0.3-0.3V5.8c0-0.2,0.1-0.3,0.3-0.3c0.2,0,0.3,0.1,0.3,0.3v2.6C5,8.6,4.7,8.7,4.5,8.7
			z"/>
		<path class="st4" d="M4.5,12.9c-0.2,0-0.3-0.1-0.3-0.3V10c0-0.2,0.1-0.3,0.3-0.3c0.2,0,0.3,0.1,0.3,0.3v2.6
			C5,12.7,4.7,12.9,4.5,12.9z"/>
		<path class="st4" d="M4.5,17c-0.2,0-0.3-0.1-0.3-0.3v-2.6c0-0.2,0.1-0.3,0.3-0.3c0.2,0,0.3,0.1,0.3,0.3v2.6C5,16.9,4.7,17,4.5,17z
			"/>
		<path class="st4" d="M4.5,21.1c-0.2,0-0.3-0.1-0.3-0.3v-2.6c0-0.2,0.1-0.3,0.3-0.3c0.2,0,0.3,0.1,0.3,0.3v2.6
			C5,21,4.7,21.1,4.5,21.1z"/>
		<path class="st4" d="M22.5,23.8h-1.5c-0.2,0-0.3-0.1-0.3-0.3c0-0.2,0.1-0.3,0.3-0.3h1.1v-2.3c0-0.2,0.1-0.3,0.3-0.3
			c0.5,0,0.8-0.3,0.8-0.8v-1.9c0-0.5-0.3-0.8-0.8-0.8c-0.2,0-0.3-0.1-0.3-0.3V7.6c0-0.2,0.1-0.3,0.3-0.3c0.2,0,0.3,0.1,0.3,0.3v8.7
			c0.7,0.2,1.1,0.8,1.1,1.5v1.9c0,0.7-0.5,1.2-1.1,1.5v2.3C23,23.6,22.8,23.8,22.5,23.8z"/>
		<path class="st4" d="M22.5,6.5c-0.2,0-0.3-0.1-0.3-0.3V5.8c0-0.2,0.1-0.3,0.3-0.3c0.2,0,0.3,0.1,0.3,0.3v0.3
			C23,6.4,22.8,6.5,22.5,6.5z"/>
		<path class="st4" d="M22.5,4.7c-0.2,0-0.3-0.1-0.3-0.3V3.5h-1.1c-0.2,0-0.3-0.1-0.3-0.3c0-0.2,0.1-0.3,0.3-0.3h1.5
			c0.2,0,0.3,0.1,0.3,0.3v1.1C23,4.4,22.8,4.7,22.5,4.7z"/>
		<path class="st4" d="M5.6,14.4H3.8c-0.2,0-0.3-0.1-0.3-0.3s0.1-0.3,0.3-0.3h1.9c0.2,0,0.3-0.1,0.3-0.3S6,13,5.8,13H3.5
			c-0.2,0-0.3,0.1-0.3,0.3S3,13.7,2.8,13.7c-0.2,0-0.3-0.1-0.3-0.3c0-0.6,0.5-1.1,1.1-1.1h2.3c0.6,0,1.1,0.5,1.1,1.1
			C7,14.1,6.3,14.4,5.6,14.4z"/>
		<path class="st4" d="M5.6,10.2H3.8c-0.2,0-0.3-0.1-0.3-0.3s0.1-0.3,0.3-0.3h1.9c0.2,0,0.3-0.1,0.3-0.3S6,8.9,5.8,8.9H3.5
			C3.3,8.9,3.2,9,3.2,9.2S3,9.5,2.8,9.5c-0.2,0-0.5-0.2-0.5-0.3c0-0.6,0.5-1.1,1.1-1.1h2.3c0.6,0,1.1,0.5,1.1,1.1
			C6.8,9.8,6.3,10.2,5.6,10.2z"/>
		<path class="st4" d="M5.6,6.1H3.8C3.6,6.1,3.5,6,3.5,5.8c0-0.2,0.1-0.3,0.3-0.3h1.9c0.2,0,0.3-0.1,0.3-0.3c0-0.2-0.2-0.5-0.5-0.5
			H3.4C3.3,4.7,3,4.8,3,5c0,0.2-0.1,0.3-0.3,0.3C2.5,5.3,2.4,5.2,2.4,5c0-0.6,0.5-1.1,1.1-1.1h2.3c0.6,0,1.1,0.5,1.1,1.1
			S6.3,6.1,5.6,6.1z"/>
		<path class="st4" d="M5.6,22.7H3.8c-0.2,0-0.3-0.1-0.3-0.3c0-0.2,0.1-0.3,0.3-0.3h1.9c0.2,0,0.3-0.1,0.3-0.3
			c0-0.2-0.1-0.3-0.3-0.3H3.5c-0.2,0-0.3,0.1-0.3,0.3C3.2,21.9,3,22,2.8,22c-0.2,0-0.3-0.1-0.3-0.3c0-0.6,0.5-1.1,1.1-1.1h2.3
			C6.4,20.5,7,21,7,21.7S6.3,22.7,5.6,22.7z"/>
		<path class="st4" d="M5.6,18.5H3.8c-0.2,0-0.3-0.1-0.3-0.3c0-0.2,0.1-0.3,0.3-0.3h1.9c0.2,0,0.3-0.1,0.3-0.3
			c0-0.2-0.1-0.3-0.3-0.3H3.5c-0.2,0-0.3,0.1-0.3,0.3c0,0.2-0.1,0.3-0.3,0.3c-0.2,0-0.3-0.1-0.3-0.3c0-0.6,0.5-1.1,1.1-1.1h2.3
			c0.6,0,1.1,0.5,1.1,1.1S6.3,18.5,5.6,18.5z"/>
		<path class="st4" d="M21.1,24.5H4.5c-0.2,0-0.3-0.1-0.3-0.3v-0.8c0-0.2,0.1-0.3,0.3-0.3c0.2,0,0.3,0.1,0.3,0.3v0.3h15.8v-4.1
			c0-0.2,0.1-0.3,0.3-0.3c0.2,0,0.3,0.1,0.3,0.3v4.5C21.4,24.4,21.3,24.5,21.1,24.5z"/>
		<path class="st4" d="M21.1,18.5c-0.2,0-0.3-0.1-0.3-0.3V2.7H5v1.5c0,0.2-0.1,0.3-0.3,0.3c-0.2,0-0.5-0.1-0.5-0.2V2.4
			c0-0.2,0.1-0.3,0.3-0.3h16.5c0.2,0,0.3,0.1,0.3,0.3v15.8C21.4,18.4,21.3,18.5,21.1,18.5z"/>
		<path class="st4" d="M13.2,9.9c-1,0-1.9-0.8-1.9-1.9s0.8-1.8,1.9-1.8c1,0,1.9,0.8,1.9,1.9C15,9.1,14.3,9.9,13.2,9.9z M13.2,6.9
			c-0.6,0-1.1,0.5-1.1,1.1s0.5,1.1,1.1,1.1s1.1-0.5,1.1-1.1S13.8,6.9,13.2,6.9z"/>
		<path class="st4" d="M15.4,14.4c-0.2,0-0.3-0.1-0.3-0.3v-2.3c0-1-0.8-1.9-1.9-1.9c-1,0-1.9,0.8-1.9,1.9v1.9h2.6
			c0.2,0,0.3,0.1,0.3,0.3s-0.1,0.3-0.3,0.3h-2.9c-0.2,0-0.3-0.1-0.3-0.3v-2.3c0-1.5,1.1-2.6,2.6-2.6s2.6,1.1,2.6,2.6v2.3
			C15.8,14.2,15.6,14.4,15.4,14.4z"/>
	</g>
	<path class="st4" d="M13.2,12.9c-0.2,0-0.3-0.1-0.3-0.3v-1.5c0-0.2,0.1-0.3,0.3-0.3s0.3,0.1,0.3,0.3v1.5
		C13.6,12.7,13.3,12.9,13.2,12.9z"/>
	<g>
		<path class="st4" d="M11,17h-0.3c-0.2,0-0.3-0.1-0.3-0.3c0-0.2,0.1-0.3,0.3-0.3H11c0.2,0,0.3,0.1,0.3,0.3C11.3,16.9,11.1,17,11,17
			z"/>
		<path class="st4" d="M17.3,17h-4.9c-0.2,0-0.3-0.1-0.3-0.3c0-0.2,0.1-0.3,0.3-0.3h4.9c0.2,0,0.3,0.1,0.3,0.3
			C17.7,16.9,17.5,17,17.3,17z"/>
		<path class="st4" d="M17.3,18.5H9c-0.2,0-0.3-0.1-0.3-0.3c0-0.2,0.1-0.3,0.3-0.3h8.3c0.2,0,0.3,0.1,0.3,0.3
			C17.7,18.4,17.5,18.5,17.3,18.5z"/>
		<path class="st4" d="M15.8,20H9c-0.2,0-0.3-0.1-0.3-0.3c0-0.2,0.1-0.3,0.3-0.3h6.8c0.2,0,0.3,0.1,0.3,0.3C16.2,19.8,16,20,15.8,20
			z"/>
	</g>
</g>
</svg>
