<?xml version="1.0" encoding="utf-8"?>
<!-- Generator: Adobe Illustrator 24.0.2, SVG Export Plug-In . SVG Version: 6.00 Build 0)  -->
<svg version="1.1" id="Capa_1" xmlns="http://www.w3.org/2000/svg" xmlns:xlink="http://www.w3.org/1999/xlink" x="0px" y="0px"
	 viewBox="0 0 17.5 22" style="enable-background:new 0 0 17.5 22;" xml:space="preserve">
<style type="text/css">
	.st0{fill:#0087E2;}
	.st1{fill:#FFFFFF;}
</style>
<title>ic-arrow-drop-down</title>
<desc>Created with Sketch.</desc>
<title>ic-arrow-down</title>
<desc>Created with Sketch.</desc>
<g>
	<path class="st0" d="M14.6,12.1h-3V4.7c0-0.8-0.7-1.5-1.5-1.5H7.2c-0.8,0-1.5,0.7-1.5,1.5v7.4h-3l6,7L14.6,12.1z"/>
	<path class="st1" d="M8.6,20.6l-8.1-9.5h4.2V5.4c0-1.8,1.5-3.3,3.3-3.3h1.4c1.8,0,3.3,1.5,3.3,3.3v5.7h4.2L8.6,20.6z M4.8,13.1
		l3.8,4.4l3.8-4.4h-1.8V5.8c0-0.9-0.7-1.6-1.6-1.6H8.2c-0.9,0-1.6,0.7-1.6,1.6v7.4H4.8z"/>
</g>
</svg>
