<?xml version="1.0" encoding="utf-8"?>
<!-- Generator: Adobe Illustrator 24.0.1, SVG Export Plug-In . SVG Version: 6.00 Build 0)  -->
<svg version="1.1" id="ic-add" xmlns="http://www.w3.org/2000/svg" xmlns:xlink="http://www.w3.org/1999/xlink" x="0px" y="0px"
	 viewBox="0 0 20 20" style="enable-background:new 0 0 20 20;" xml:space="preserve">
<style type="text/css">
	.st0{fill:#78C5F4;}
</style>
<path id="Path_18916" class="st0" d="M17,9h-6V3c0-0.6-0.4-1-1-1h0C9.4,2,9,2.4,9,3v6H3c-0.6,0-1,0.4-1,1v0c0,0.6,0.4,1,1,1h6v6
	c0,0.6,0.4,1,1,1h0c0.6,0,1-0.4,1-1v-6h6c0.6,0,1-0.4,1-1v0C18,9.4,17.6,9,17,9z"/>
</svg>
