<?xml version="1.0" encoding="utf-8"?>
<!-- Generator: Adobe Illustrator 24.0.2, SVG Export Plug-In . SVG Version: 6.00 Build 0)  -->
<svg version="1.1" id="Capa_1" xmlns="http://www.w3.org/2000/svg" xmlns:xlink="http://www.w3.org/1999/xlink" x="0px" y="0px"
	 viewBox="0 0 70 40" style="enable-background:new 0 0 70 40;" xml:space="preserve">
<style type="text/css">
	.st0{fill:#FFFFFF;}
	.st1{fill:#2E80BC;}
	.st2{fill:#CCCCCC;}
	.st3{fill:#00BDFF;}
</style>
<title>Address Book Send</title>
<desc>Created with Sketch.</desc>
<g>
	<title>Address Book Send</title>
	<desc>Created with Sketch.</desc>
	<rect x="13.4" y="9.7" class="st0" width="16.1" height="21.2"/>
	<path class="st1" d="M29.5,10.5h1.4v13.1l0,0c0.6,0,1.1,0.4,1.1,1.1v1.9c0,0.6-0.4,1.1-1.1,1.1l0,0v2.5h-1.4V10.5z"/>
	<g>
		<path class="st2" d="M12.4,11.6h2.2c0.4,0,0.8,0.3,0.8,0.8l0,0c0,0.4-0.3,0.8-0.8,0.8h-2.2c-0.4-0.1-0.8-0.4-0.8-0.9l0,0
			C11.6,11.8,11.9,11.6,12.4,11.6z"/>
		<path class="st2" d="M12.4,15.6h2.2c0.4,0,0.8,0.3,0.8,0.8l0,0c0,0.4-0.3,0.8-0.8,0.8h-2.2c-0.4,0-0.8-0.3-0.8-0.8l0,0
			C11.6,15.9,11.9,15.6,12.4,15.6z"/>
		<path class="st2" d="M12.4,19.6h2.2c0.4,0,0.8,0.3,0.8,0.8l0,0c0,0.4-0.3,0.8-0.8,0.8h-2.2c-0.4,0-0.8-0.3-0.8-0.8l0,0
			C11.6,19.9,11.9,19.6,12.4,19.6z"/>
		<path class="st2" d="M12.4,23.6h2.2c0.4,0,0.8,0.3,0.8,0.8l0,0c0,0.4-0.3,0.8-0.8,0.8h-2.2c-0.4,0-0.8-0.3-0.8-0.8l0,0
			C11.6,24,11.9,23.6,12.4,23.6z"/>
		<path class="st2" d="M12.4,27.6h2.2c0.4,0,0.8,0.3,0.8,0.8l0,0c0,0.4-0.3,0.8-0.8,0.8h-2.2c-0.4,0-0.8-0.3-0.8-0.8l0,0
			C11.6,27.9,11.9,27.6,12.4,27.6z"/>
	</g>
	<g>
		<circle class="st1" cx="21.8" cy="15.3" r="1.4"/>
		<path class="st1" d="M21.8,16.7L21.8,16.7c1.2,0,2.2,1,2.2,2.2v2.2l0,0h-4.4l0,0v-2.2C19.6,17.7,20.6,16.7,21.8,16.7z"/>
	</g>
	<g>
		<path class="st3" d="M13.4,15.9c-0.1,0-0.3-0.1-0.3-0.3V13c0-0.2,0.1-0.3,0.3-0.3s0.3,0.1,0.3,0.3v2.5
			C13.8,15.8,13.6,15.9,13.4,15.9z"/>
		<path class="st3" d="M13.4,20c-0.2,0-0.3-0.1-0.3-0.3v-2.5c0-0.2,0.1-0.3,0.3-0.3s0.3,0.1,0.3,0.3v2.5C13.8,19.8,13.6,20,13.4,20z
			"/>
		<path class="st3" d="M13.4,24c-0.2,0-0.3-0.1-0.3-0.3v-2.5c0-0.2,0.1-0.3,0.3-0.3s0.3,0.1,0.3,0.3v2.5C13.8,23.9,13.6,24,13.4,24z
			"/>
		<path class="st3" d="M13.4,27.9c-0.2,0-0.3-0.1-0.3-0.3v-2.5c0-0.2,0.1-0.3,0.3-0.3s0.3,0.1,0.3,0.3v2.5
			C13.8,27.8,13.6,27.9,13.4,27.9z"/>
		<path class="st3" d="M30.9,30.6h-1.4c-0.2,0-0.3-0.1-0.3-0.3c0-0.2,0.1-0.3,0.3-0.3h1.1v-2.2c0-0.2,0.1-0.3,0.3-0.3
			c0.4,0,0.8-0.3,0.8-0.8v-1.9c0-0.4-0.3-0.8-0.8-0.8c-0.2,0-0.3-0.1-0.3-0.3v-8.8c0-0.2,0.1-0.3,0.3-0.3c0.2,0,0.3,0.1,0.3,0.3v8.5
			c0.7,0.2,1.1,0.8,1.1,1.4v1.9c0,0.7-0.4,1.2-1.1,1.4v2.2C31.3,30.4,31.1,30.6,30.9,30.6z"/>
		<path class="st3" d="M30.9,13.7c-0.2,0-0.3-0.1-0.3-0.3V13c0-0.2,0.1-0.3,0.3-0.3c0.2,0,0.3,0.1,0.3,0.3v0.3
			C31.3,13.6,31.1,13.7,30.9,13.7z"/>
		<path class="st3" d="M30.9,11.9c-0.2,0-0.3-0.1-0.3-0.3v-0.8h-1.1c-0.2,0-0.3-0.1-0.3-0.3c0-0.2,0.1-0.3,0.3-0.3h1.4
			c0.2,0,0.3,0.1,0.3,0.3v1.1C31.3,11.7,31.1,11.9,30.9,11.9z"/>
		<path class="st3" d="M14.5,21.4h-1.8c-0.2,0-0.3-0.1-0.3-0.3s0.1-0.3,0.3-0.3h1.9c0.2,0,0.3-0.1,0.3-0.3c0-0.2-0.1-0.3-0.3-0.3
			h-2.2c-0.2,0-0.3,0.1-0.3,0.3c0,0.2-0.1,0.3-0.3,0.3s-0.3-0.1-0.3-0.3c0-0.6,0.4-1.1,1.1-1.1h2.2c0.6,0,1.1,0.4,1.1,1.1
			C15.8,21.1,15.1,21.4,14.5,21.4z"/>
		<path class="st3" d="M14.5,17.3h-1.8c-0.2,0-0.3-0.1-0.3-0.3c0-0.2,0.1-0.3,0.3-0.3h1.9c0.2,0,0.3-0.1,0.3-0.3
			c0-0.2-0.1-0.3-0.3-0.3h-2.2c-0.2,0-0.3,0.1-0.3,0.3c0,0.2-0.1,0.3-0.3,0.3s-0.4-0.2-0.4-0.3c0-0.6,0.4-1.1,1.1-1.1h2.2
			c0.6,0,1.1,0.4,1.1,1.1C15.6,16.9,15.1,17.3,14.5,17.3z"/>
		<path class="st3" d="M14.5,13.4h-1.8c-0.2,0-0.3-0.1-0.3-0.3c0-0.2,0.1-0.3,0.3-0.3h1.9c0.2,0,0.3-0.1,0.3-0.3s-0.2-0.4-0.4-0.4
			h-2.2c-0.1,0-0.3,0.1-0.3,0.3c0,0.2-0.1,0.3-0.3,0.3c-0.2,0-0.3-0.1-0.3-0.3c0-0.6,0.4-1.1,1.1-1.1h2.2c0.6,0,1.1,0.4,1.1,1.1
			S15.1,13.4,14.5,13.4z"/>
		<path class="st3" d="M14.5,29.5h-1.8c-0.2,0-0.3-0.1-0.3-0.3c0-0.2,0.1-0.3,0.3-0.3h1.9c0.2,0,0.3-0.1,0.3-0.3
			c0-0.2-0.1-0.3-0.3-0.3h-2.2c-0.2,0-0.3,0.1-0.3,0.3c0,0.2-0.1,0.3-0.3,0.3s-0.3-0.1-0.3-0.3c0-0.6,0.4-1.1,1.1-1.1h2.2
			c0.6,0,1.1,0.4,1.1,1.1C15.8,29.1,15.1,29.5,14.5,29.5z"/>
		<path class="st3" d="M14.5,25.4h-1.8c-0.2,0-0.3-0.1-0.3-0.3c0-0.2,0.1-0.3,0.3-0.3h1.9c0.2,0,0.3-0.1,0.3-0.3
			c0-0.2-0.1-0.3-0.3-0.3h-2.2c-0.2,0-0.3,0.1-0.3,0.3c0,0.2-0.1,0.3-0.3,0.3s-0.3-0.1-0.3-0.3c0-0.6,0.4-1.1,1.1-1.1h2.2
			c0.6,0,1.1,0.4,1.1,1.1S15.1,25.4,14.5,25.4z"/>
		<path class="st3" d="M29.5,31.2H13.4c-0.2,0-0.3-0.1-0.3-0.3v-0.8c0-0.2,0.1-0.3,0.3-0.3s0.3,0.1,0.3,0.3v0.3H29v-4
			c0-0.2,0.1-0.3,0.3-0.3c0.2,0,0.3,0.1,0.3,0.3v4.4C29.8,31.1,29.7,31.2,29.5,31.2z"/>
		<path class="st3" d="M29.5,25.4c-0.2,0-0.3-0.1-0.3-0.3v-15H13.8v1.4c0,0.2-0.1,0.3-0.3,0.3S13,11.7,13,11.6V9.7
			c0-0.2,0.1-0.3,0.3-0.3h16.1c0.2,0,0.3,0.1,0.3,0.3v15.3C29.8,25.3,29.7,25.4,29.5,25.4z"/>
		<path class="st3" d="M21.8,17c-1,0-1.9-0.8-1.9-1.9s0.8-1.8,1.9-1.8c1,0,1.9,0.8,1.9,1.9C23.6,16.2,22.8,17,21.8,17z M21.8,14.2
			c-0.6,0-1.1,0.4-1.1,1.1c0,0.7,0.4,1.1,1.1,1.1c0.7,0,1.1-0.4,1.1-1.1C22.9,14.6,22.4,14.2,21.8,14.2z"/>
		<path class="st3" d="M23.9,21.4c-0.2,0-0.3-0.1-0.3-0.3v-2.2c0-1-0.8-1.9-1.9-1.9c-1,0-1.9,0.8-1.9,1.9v1.9h2.5
			c0.2,0,0.3,0.1,0.3,0.3s-0.1,0.3-0.3,0.3h-2.9c-0.2,0-0.3-0.1-0.3-0.3v-2.2c0-1.4,1.1-2.5,2.5-2.5s2.5,1.1,2.5,2.5v2.2
			C24.4,21.2,24.2,21.4,23.9,21.4z"/>
	</g>
	<path class="st0" d="M21.8,20c-0.2,0-0.3-0.1-0.3-0.3v-1.4c0-0.2,0.1-0.3,0.3-0.3c0.2,0,0.3,0.1,0.3,0.3v1.4
		C22.2,19.8,22,20,21.8,20z"/>
	<g>
		<path class="st3" d="M19.6,24h-0.3c-0.2,0-0.3-0.1-0.3-0.3c0-0.2,0.1-0.3,0.3-0.3h0.3c0.2,0,0.3,0.1,0.3,0.3S19.8,24,19.6,24z"/>
		<path class="st3" d="M25.8,24h-4.7c-0.2,0-0.3-0.1-0.3-0.3c0-0.2,0.1-0.3,0.3-0.3h4.7c0.2,0,0.3,0.1,0.3,0.3
			C26.1,23.9,26,24,25.8,24z"/>
		<path class="st3" d="M25.8,25.4h-8c-0.2,0-0.3-0.1-0.3-0.3c0-0.2,0.1-0.3,0.3-0.3h8c0.2,0,0.3,0.1,0.3,0.3
			C26.1,25.3,26,25.4,25.8,25.4z"/>
		<path class="st3" d="M24.4,26.8h-6.6c-0.2,0-0.3-0.1-0.3-0.3c0-0.2,0.1-0.3,0.3-0.3h6.6c0.2,0,0.3,0.1,0.3,0.3
			C24.7,26.7,24.5,26.8,24.4,26.8z"/>
	</g>
</g>
</svg>
