<?xml version="1.0" encoding="utf-8"?>
<!-- Generator: Adobe Illustrator 24.0.2, SVG Export Plug-In . SVG Version: 6.00 Build 0)  -->
<svg version="1.1" id="Capa_1" xmlns="http://www.w3.org/2000/svg" xmlns:xlink="http://www.w3.org/1999/xlink" x="0px" y="0px"
	 viewBox="0 0 24 24" style="enable-background:new 0 0 24 24;" xml:space="preserve">
<style type="text/css">
	.st0{fill:#0087E2;}
	.st1{fill:#FFFFFF;}
</style>
<title>Artboard</title>
<desc>Created with Sketch.</desc>
<title>ic-arrow-down</title>
<desc>Created with Sketch.</desc>
<g>
	<path class="st0" d="M11.3,5.5v3h7.4c0.8,0,1.5,0.7,1.5,1.5v2.9c0,0.8-0.7,1.5-1.5,1.5h-7.4v3l-7-6L11.3,5.5z"/>
	<path class="st1" d="M2.8,11.5l9.5,8.1v-4.2H18c1.8,0,3.3-1.5,3.3-3.3v-1.4c0-1.8-1.5-3.3-3.3-3.3h-5.7V3.4L2.8,11.5z M10.3,15.3
		l-4.4-3.8l4.4-3.8v1.8h7.4c0.9,0,1.6,0.7,1.6,1.6v0.8c0,0.9-0.7,1.6-1.6,1.6h-7.4V15.3z"/>
</g>
</svg>
