<?xml version="1.0" encoding="utf-8"?>
<!-- Generator: Adobe Illustrator 24.0.2, SVG Export Plug-In . SVG Version: 6.00 Build 0)  -->
<svg version="1.1" id="Capa_1" xmlns="http://www.w3.org/2000/svg" xmlns:xlink="http://www.w3.org/1999/xlink" x="0px" y="0px"
	 viewBox="0 0 30 22" style="enable-background:new 0 0 30 22;" xml:space="preserve">
<style type="text/css">
	.st0{fill:url(#SVGID_1_);}
	.st1{fill:url(#SVGID_2_);}
	.st2{fill:#FFFFFF;}
</style>
<linearGradient id="SVGID_1_" gradientUnits="userSpaceOnUse" x1="3.5741" y1="17813.4277" x2="18.9186" y2="17813.4277" gradientTransform="matrix(1 0 0 1 0 -17802)">
	<stop  offset="0" style="stop-color:#00C7FF"/>
	<stop  offset="0.2807" style="stop-color:#00BEFF"/>
	<stop  offset="0.7459" style="stop-color:#00A4FF"/>
	<stop  offset="0.9944" style="stop-color:#0094FF"/>
</linearGradient>
<path class="st0" d="M11.2,19.1c-4.2,0-7.7-3.4-7.7-7.7S7,3.8,11.2,3.8s7.7,3.4,7.7,7.7"/>
<linearGradient id="SVGID_2_" gradientUnits="userSpaceOnUse" x1="11.2464" y1="17817.2637" x2="18.9186" y2="17817.2637" gradientTransform="matrix(1 0 0 1 0 -17802)">
	<stop  offset="0" style="stop-color:#00C7FF"/>
	<stop  offset="0.2807" style="stop-color:#00BEFF"/>
	<stop  offset="0.7459" style="stop-color:#00A4FF"/>
	<stop  offset="0.9944" style="stop-color:#0094FF"/>
</linearGradient>
<path class="st1" d="M18.9,11.4c0,4.2-3.4,7.7-7.7,7.7"/>
<path class="st2" d="M17.2,11.4c0-3.3-2.7-6-6-6c-0.2,0-0.4,0.2-0.4,0.4s0.2,0.4,0.4,0.4c2.8,0,5.1,2.3,5.1,5.1s-2.3,5.1-5.1,5.1
	s-5.1-2.3-5.1-5.1C6.2,11.2,6,11,5.7,11s-0.4,0.2-0.4,0.4c0,3.3,2.7,6,6,6S17.2,14.7,17.2,11.4"/>
<path class="st2" d="M8.8,6.9c0.1,0,0.1,0,0.2,0l0.6-0.3C9.8,6.5,9.9,6.2,9.8,6C9.7,5.8,9.5,5.7,9.3,5.8L8.6,6
	C8.4,6.1,8.3,6.4,8.4,6.6C8.5,6.8,8.6,6.9,8.8,6.9z"/>
<path class="st2" d="M7.1,8.2c0.1,0,0.2,0,0.3-0.1l0.5-0.5c0.2-0.2,0.2-0.5,0-0.6C7.7,6.8,7.4,6.8,7.2,7L6.8,7.4
	c-0.2,0.2-0.2,0.5,0,0.6C6.9,8.1,7,8.2,7.1,8.2z"/>
<path class="st2" d="M5.8,10c0.1,0,0.1,0,0.2,0c0.2,0,0.3-0.1,0.4-0.3l0.3-0.6c0.1-0.2,0-0.5-0.2-0.6c-0.2-0.1-0.5,0-0.6,0.2
	L5.6,9.4C5.5,9.7,5.6,9.9,5.8,10z"/>
<path class="st2" d="M11.2,9.1c-0.2,0-0.4,0.2-0.4,0.4V11H9.4c-0.2,0-0.4,0.2-0.4,0.4s0.2,0.4,0.4,0.4h1.4v1.4
	c0,0.2,0.2,0.4,0.4,0.4s0.4-0.2,0.4-0.4v-1.4h1.4c0.2,0,0.4-0.2,0.4-0.4S13.4,11,13.1,11h-1.4V9.5C11.7,9.3,11.5,9.1,11.2,9.1z"/>
</svg>
