<?xml version="1.0" encoding="utf-8"?>
<!-- Generator: Adobe Illustrator 24.0.2, SVG Export Plug-In . SVG Version: 6.00 Build 0)  -->
<svg version="1.1" id="Capa_1" xmlns="http://www.w3.org/2000/svg" xmlns:xlink="http://www.w3.org/1999/xlink" x="0px" y="0px"
	 viewBox="0 0 50 50" style="enable-background:new 0 0 50 50;" xml:space="preserve">
<style type="text/css">
	.st0{fill:#0087E2;}
	.st1{fill:#FFFFFF;}
</style>
<title>ic-arrow-down</title>
<desc>Created with Sketch.</desc>
<title>ic-arrow-down</title>
<desc>Created with Sketch.</desc>
<g>
	<path class="st0" d="M27.3,31.3v-3h-7.4c-0.8,0-1.5-0.7-1.5-1.5v-2.9c0-0.8,0.7-1.5,1.5-1.5h7.4v-3l7,6L27.3,31.3z"/>
	<path class="st1" d="M35.8,25.4l-9.5-8.1v4.2h-5.7c-1.8,0-3.3,1.5-3.3,3.3v1.4c0,1.8,1.5,3.3,3.3,3.3h5.7v4.2L35.8,25.4z
		 M28.3,21.6l4.4,3.8l-4.4,3.8v-1.8H21c-0.9,0-1.6-0.7-1.6-1.6V25c0-0.9,0.7-1.6,1.6-1.6h7.4V21.6z"/>
</g>
</svg>
