<?xml version="1.0" encoding="utf-8"?>
<!-- Generator: Adobe Illustrator 24.0.1, SVG Export Plug-In . SVG Version: 6.00 Build 0)  -->
<svg version="1.1" id="Capa_1" xmlns="http://www.w3.org/2000/svg" xmlns:xlink="http://www.w3.org/1999/xlink" x="0px" y="0px"
	 viewBox="0 0 26 26" style="enable-background:new 0 0 26 26;" xml:space="preserve">
<style type="text/css">
	.st0{fill:#FFFFFF;}
</style>
<g id="Address">
	<g id="Group-2" transform="translate(3.000000, 12.000000)">
		<path id="Path_18863_1_" class="st0" d="M5.5-10H3.1c-0.9,0-1.6,0.7-1.6,1.6v18.9c0,0.9,0.7,1.6,1.6,1.6H18c0.9,0,1.6-0.7,1.6-1.6
			V-8.5c0-0.9-0.7-1.6-1.6-1.6H5.5z M3.5,10V-8h1v18H3.5z M16.1,10H6.5V-8h9.5c0.8,0,1.5,0.7,1.5,1.5V8.5C17.5,9.3,16.9,10,16.1,10z
			"/>
		<path id="Path_18864_1_" class="st0" d="M15.4-6H8.7C8-6,7.5-5.5,7.5-4.9v3.7C7.5-0.5,8,0,8.7,0h6.7c0.6,0,1.1-0.5,1.1-1.1v-3.7
			C16.5-5.5,16-6,15.4-6z M13.9-2h-3.7C9.8-2,9.5-2.3,9.5-2.7v-0.7C9.5-3.7,9.8-4,10.2-4h3.7c0.4,0,0.7,0.3,0.7,0.7v0.7
			C14.5-2.3,14.2-2,13.9-2z"/>
	</g>
</g>
</svg>
