<?xml version="1.0" encoding="utf-8"?>
<!-- Generator: Adobe Illustrator 24.0.2, SVG Export Plug-In . SVG Version: 6.00 Build 0)  -->
<svg version="1.1" id="ic-add_label" xmlns="http://www.w3.org/2000/svg" xmlns:xlink="http://www.w3.org/1999/xlink" x="0px"
	 y="0px" viewBox="0 0 24 24" style="enable-background:new 0 0 24 24;" xml:space="preserve">
<style type="text/css">
	.st0{fill:#CCDAEC;}
	.st1{fill:#1D3F54;}
	.st2{fill:#E8D8BF;}
	.st3{fill:url(#SVGID_1_);}
	.st4{fill:url(#SVGID_2_);}
	.st5{fill:#FFFFFF;}
</style>
<g>
	<path class="st0" d="M17.3,2.9h-5.7c-0.2,0-0.4,0.1-0.5,0.2l-9.8,9.8c-0.3,0.3-0.3,0.9,0,1.2l5.6,5.6c0.3,0.3,0.9,0.3,1.2,0
		l9.8-9.8C17.9,9.8,18,9.6,18,9.4V3.7C18,3.2,17.7,2.9,17.3,2.9z M15.4,6.7c-0.6,0-1.1-0.5-1.1-1.1c0-0.6,0.5-1.1,1.1-1.1
		c0.6,0,1.1,0.5,1.1,1.1C16.5,6.2,16,6.7,15.4,6.7z"/>
	<g>
		<path class="st1" d="M4.1,13.3L9,8.3l0.5,0.5l-4.9,4.9L4.1,13.3z"/>
		<path class="st1" d="M5.6,14.8l5.7-5.7l0.5,0.5l-5.7,5.7L5.6,14.8z"/>
		<path class="st1" d="M7.1,16.3l4.9-4.9l0.5,0.5l-4.9,4.9L7.1,16.3z"/>
	</g>
	<path class="st2" d="M22.8,8.3l-4.2-4.2C18.5,4,18.3,3.8,18,3.7v0.8c0,0,0.1,0.1,0.1,0.1l4.2,4.2c0.4,0.4,0.4,1,0,1.4
		c-0.4,0.4-1,0.4-1.3,0l-4.5-4.5c0,0.3-0.2,0.5-0.4,0.7l4.3,4.3c0.7,0.7,1.8,0.7,2.4,0C23.5,10.1,23.5,9,22.8,8.3z"/>
	<path d="M18.7,4.1c-0.1-0.1-0.2-0.2-0.3-0.2V3.7c0-0.6-0.5-1.2-1.2-1.2h-5.7c-0.3,0-0.6,0.1-0.8,0.3l-9.8,9.8
		c-0.5,0.5-0.5,1.3,0,1.8L6.5,20c0.5,0.5,1.3,0.5,1.8,0l9.8-9.8c0.2-0.2,0.3-0.5,0.3-0.8V8.7l2,2c0.7,0.7,1.8,0.7,2.4,0
		c0.7-0.7,0.7-1.8,0-2.4L18.7,4.1z M17.6,6.9l-0.9-0.9c0.1-0.2,0.1-0.3,0.1-0.5c0-0.8-0.7-1.5-1.5-1.5s-1.5,0.7-1.5,1.5
		s0.7,1.5,1.5,1.5c0.4,0,0.7-0.1,1-0.4L17.6,8v1.4c0,0.1,0,0.2-0.1,0.3l-9.8,9.8c-0.2,0.2-0.5,0.2-0.7,0l-5.6-5.6
		c-0.2-0.2-0.2-0.5,0-0.7l9.8-9.8c0.1-0.1,0.2-0.1,0.3-0.1h5.7c0.2,0,0.4,0.2,0.4,0.4V6.9z M16.1,5.5c0,0.4-0.3,0.8-0.8,0.8
		S14.6,6,14.6,5.5s0.3-0.8,0.8-0.8S16.1,5.1,16.1,5.5z M22.3,10.2c-0.4,0.4-1,0.4-1.4,0l-2.5-2.5V4.9l3.9,3.9
		C22.7,9.2,22.7,9.8,22.3,10.2C22.3,10.2,22.3,10.2,22.3,10.2L22.3,10.2z"/>
	<path d="M4.1,13.3L9,8.3l0.5,0.5l-4.9,4.9L4.1,13.3z"/>
	<path d="M5.6,14.8l5.7-5.7l0.5,0.5l-5.7,5.7L5.6,14.8z"/>
	<path d="M7.1,16.3l4.9-4.9l0.5,0.5l-4.9,4.9L7.1,16.3z"/>
</g>
<g>
	
		<linearGradient id="SVGID_1_" gradientUnits="userSpaceOnUse" x1="8.2593" y1="17819.2734" x2="15.6122" y2="17819.2734" gradientTransform="matrix(1 0 0 1 0 -17802)">
		<stop  offset="0" style="stop-color:#00C7FF"/>
		<stop  offset="0.2807" style="stop-color:#00BEFF"/>
		<stop  offset="0.7459" style="stop-color:#00A4FF"/>
		<stop  offset="0.9944" style="stop-color:#0094FF"/>
	</linearGradient>
	<path class="st3" d="M11.9,20.9c-2,0-3.7-1.6-3.7-3.7s1.6-3.7,3.7-3.7s3.7,1.6,3.7,3.7"/>
	
		<linearGradient id="SVGID_2_" gradientUnits="userSpaceOnUse" x1="11.9357" y1="17821.1113" x2="15.6122" y2="17821.1113" gradientTransform="matrix(1 0 0 1 0 -17802)">
		<stop  offset="0" style="stop-color:#00C7FF"/>
		<stop  offset="0.2807" style="stop-color:#00BEFF"/>
		<stop  offset="0.7459" style="stop-color:#00A4FF"/>
		<stop  offset="0.9944" style="stop-color:#0094FF"/>
	</linearGradient>
	<path class="st4" d="M15.6,17.3c0,2-1.6,3.7-3.7,3.7"/>
	<path class="st5" d="M14.8,17.3c0-1.6-1.3-2.9-2.9-2.9c-0.1,0-0.2,0.1-0.2,0.2s0.1,0.2,0.2,0.2c1.3,0,2.4,1.1,2.4,2.4
		c0,1.3-1.1,2.4-2.4,2.4s-2.4-1.1-2.4-2.4c0-0.1-0.1-0.2-0.2-0.2c-0.1,0-0.2,0.1-0.2,0.2c0,1.6,1.3,2.9,2.9,2.9S14.8,18.9,14.8,17.3
		"/>
	<path class="st5" d="M10.8,15.1C10.8,15.1,10.8,15.1,10.8,15.1l0.4-0.1c0.1,0,0.2-0.2,0.1-0.3c0-0.1-0.2-0.2-0.3-0.1l-0.3,0.1
		c-0.1,0-0.2,0.2-0.1,0.3C10.6,15,10.7,15.1,10.8,15.1z"/>
	<path class="st5" d="M9.9,15.7c0.1,0,0.1,0,0.2-0.1l0.2-0.2c0.1-0.1,0.1-0.2,0-0.3c-0.1-0.1-0.2-0.1-0.3,0l-0.2,0.2
		c-0.1,0.1-0.1,0.2,0,0.3C9.8,15.7,9.9,15.7,9.9,15.7z"/>
	<path class="st5" d="M9.3,16.6C9.4,16.6,9.4,16.6,9.3,16.6c0.2,0,0.2,0,0.3-0.1l0.1-0.3c0-0.1,0-0.2-0.1-0.3c-0.1,0-0.2,0-0.3,0.1
		l-0.1,0.3C9.2,16.4,9.2,16.6,9.3,16.6z"/>
	<path class="st5" d="M11.9,16.2c-0.1,0-0.2,0.1-0.2,0.2v0.7H11c-0.1,0-0.2,0.1-0.2,0.2s0.1,0.2,0.2,0.2h0.7v0.7
		c0,0.1,0.1,0.2,0.2,0.2s0.2-0.1,0.2-0.2v-0.7h0.7c0.1,0,0.2-0.1,0.2-0.2s-0.1-0.2-0.2-0.2h-0.7v-0.7C12.2,16.3,12.1,16.2,11.9,16.2
		z"/>
</g>
</svg>
