<?xml version="1.0" encoding="utf-8"?>
<!-- Generator: Adobe Illustrator 24.0.2, SVG Export Plug-In . SVG Version: 6.00 Build 0)  -->
<svg version="1.1" id="Capa_1" xmlns="http://www.w3.org/2000/svg" xmlns:xlink="http://www.w3.org/1999/xlink" x="0px" y="0px"
	 viewBox="0 0 50 40" style="enable-background:new 0 0 50 40;" xml:space="preserve">
<style type="text/css">
	.st0{fill:#E0E0E0;}
	.st1{fill:#2E80BC;}
	.st2{fill:#CCCCCC;}
	.st3{fill:#FFFFFF;}
	.st4{fill:#00BDFF;}
</style>
<title>Address Book</title>
<desc>Created with Sketch.</desc>
<rect x="16" y="10" class="st0" width="16.4" height="21.7"/>
<path class="st1" d="M32.5,10.7h1.5v13.4l0,0c0.5,0,1.1,0.4,1.1,1.1v1.9c0,0.5-0.4,1.1-1.1,1.1l0,0v2.6h-1.5V10.7z"/>
<g>
	<path class="st2" d="M15,11.9h2.3c0.4,0,0.8,0.3,0.8,0.8l0,0c0,0.4-0.3,0.8-0.8,0.8H15c-0.4-0.1-0.8-0.4-0.8-0.9l0,0
		C14.2,12.1,14.6,11.9,15,11.9z"/>
	<path class="st2" d="M15,15.9h2.3c0.4,0,0.8,0.3,0.8,0.8l0,0c0,0.4-0.3,0.8-0.8,0.8H15c-0.4,0-0.8-0.3-0.8-0.8l0,0
		C14.2,16.4,14.6,15.9,15,15.9z"/>
	<path class="st2" d="M15,20h2.3c0.4,0,0.8,0.3,0.8,0.8l0,0c0,0.4-0.3,0.8-0.8,0.8H15c-0.4,0-0.8-0.3-0.8-0.8l0,0
		C14.2,20.4,14.6,20,15,20z"/>
	<path class="st2" d="M15,24.3h2.3c0.4,0,0.8,0.3,0.8,0.8l0,0c0,0.4-0.3,0.8-0.8,0.8H15c-0.4,0-0.8-0.3-0.8-0.8l0,0
		C14.2,24.6,14.6,24.3,15,24.3z"/>
	<path class="st2" d="M15,28.3h2.3c0.4,0,0.8,0.3,0.8,0.8l0,0c0,0.4-0.3,0.8-0.8,0.8H15c-0.4,0-0.8-0.3-0.8-0.8l0,0
		C14.2,28.6,14.6,28.3,15,28.3z"/>
</g>
<g>
	<circle class="st1" cx="24.7" cy="15.6" r="1.5"/>
	<path class="st1" d="M24.7,17.1L24.7,17.1c1.2,0,2.3,1,2.3,2.3v2.3l0,0h-4.5l0,0v-2.3C22.5,18.1,23.4,17.1,24.7,17.1z"/>
</g>
<g>
	<path class="st3" d="M16,16.4c-0.1,0-0.3-0.1-0.3-0.3v-2.6c0-0.2,0.1-0.3,0.3-0.3c0.2,0,0.3,0.1,0.3,0.3V16
		C16.5,16.3,16.2,16.4,16,16.4z"/>
	<path class="st3" d="M16,20.5c-0.2,0-0.3-0.1-0.3-0.3v-2.6c0-0.2,0.1-0.3,0.3-0.3c0.2,0,0.3,0.1,0.3,0.3v2.6
		C16.5,20.3,16.2,20.5,16,20.5z"/>
	<path class="st3" d="M16,24.6c-0.2,0-0.3-0.1-0.3-0.3v-2.6c0-0.2,0.1-0.3,0.3-0.3c0.2,0,0.3,0.1,0.3,0.3v2.6
		C16.5,24.5,16.2,24.6,16,24.6z"/>
	<path class="st3" d="M16,28.6c-0.2,0-0.3-0.1-0.3-0.3v-2.6c0-0.2,0.1-0.3,0.3-0.3c0.2,0,0.3,0.1,0.3,0.3v2.6
		C16.5,28.5,16.2,28.6,16,28.6z"/>
	<path class="st3" d="M33.9,31.4h-1.5c-0.2,0-0.3-0.1-0.3-0.3c0-0.2,0.1-0.3,0.3-0.3h1.1v-2.3c0-0.2,0.1-0.3,0.3-0.3
		c0.4,0,0.8-0.3,0.8-0.8v-1.9c0-0.4-0.3-0.8-0.8-0.8c-0.2,0-0.3-0.1-0.3-0.3v-9.1c0-0.2,0.1-0.3,0.3-0.3s0.3,0.1,0.3,0.3V24
		c0.7,0.2,1.1,0.8,1.1,1.5v1.9c0,0.7-0.4,1.2-1.1,1.5V31C34.5,31.1,34.2,31.4,33.9,31.4z"/>
	<path class="st3" d="M33.9,14.1c-0.2,0-0.3-0.1-0.3-0.3v-0.3c0-0.2,0.1-0.3,0.3-0.3s0.3,0.1,0.3,0.3v0.3
		C34.5,14,34.2,14.1,33.9,14.1z"/>
	<path class="st3" d="M33.9,12.3c-0.2,0-0.3-0.1-0.3-0.3v-0.8h-1.1c-0.2,0-0.3-0.1-0.3-0.3s0.1-0.3,0.3-0.3h1.5
		c0.2,0,0.3,0.1,0.3,0.3V12C34.5,12,34.2,12.3,33.9,12.3z"/>
	<path class="st3" d="M17.2,22h-1.8c-0.2,0-0.3-0.1-0.3-0.3c0-0.2,0.1-0.3,0.3-0.3h1.9c0.2,0,0.3-0.1,0.3-0.3c0-0.2-0.1-0.3-0.3-0.3
		H15c-0.2,0-0.3,0.1-0.3,0.3c0,0.2-0.1,0.3-0.3,0.3s-0.3-0.1-0.3-0.3c0-0.5,0.4-1.1,1.1-1.1h2.3c0.5,0,1.1,0.4,1.1,1.1
		C18.5,21.7,17.8,22,17.2,22z"/>
	<path class="st3" d="M17.2,17.8h-1.8c-0.2,0-0.3-0.1-0.3-0.3s0.1-0.3,0.3-0.3h1.9c0.2,0,0.3-0.1,0.3-0.3c0-0.2-0.1-0.3-0.3-0.3H15
		c-0.2,0-0.3,0.1-0.3,0.3c0,0.2-0.1,0.3-0.3,0.3S14,17,14,16.9c0-0.5,0.4-1.1,1.1-1.1h2.2c0.5,0,1.1,0.4,1.1,1.1
		C18.2,17.3,17.8,17.8,17.2,17.8z"/>
	<path class="st3" d="M17.2,13.8h-1.8c-0.2,0-0.3-0.1-0.3-0.3s0.1-0.3,0.3-0.3h1.9c0.2,0,0.3-0.1,0.3-0.3c0-0.2-0.2-0.4-0.4-0.4
		h-2.3c-0.1,0-0.3,0.1-0.3,0.3c0,0.2-0.1,0.3-0.3,0.3S14,12.9,14,12.7c0-0.5,0.4-1.1,1.1-1.1h2.2c0.5,0,1.1,0.4,1.1,1.1
		C18.4,13.4,17.8,13.8,17.2,13.8z"/>
	<path class="st3" d="M17.2,30.2h-1.8c-0.2,0-0.3-0.1-0.3-0.3c0-0.2,0.1-0.3,0.3-0.3h1.9c0.2,0,0.3-0.1,0.3-0.3
		c0-0.2-0.1-0.3-0.3-0.3H15c-0.2,0-0.3,0.1-0.3,0.3c0,0.2-0.1,0.3-0.3,0.3s-0.3-0.1-0.3-0.3c0-0.5,0.4-1.1,1.1-1.1h2.3
		c0.5,0,1.1,0.4,1.1,1.1C18.5,29.9,17.8,30.2,17.2,30.2z"/>
	<path class="st3" d="M17.2,26h-1.8c-0.2,0-0.3-0.1-0.3-0.3c0-0.2,0.1-0.3,0.3-0.3h1.9c0.2,0,0.3-0.1,0.3-0.3c0-0.2-0.1-0.3-0.3-0.3
		H15c-0.2,0-0.3,0.1-0.3,0.3c0,0.2-0.1,0.3-0.3,0.3s-0.3-0.1-0.3-0.3c0-0.5,0.4-1.1,1.1-1.1h2.3c0.5,0,1.1,0.4,1.1,1.1
		C18.5,25.7,17.8,26,17.2,26z"/>
	<path class="st3" d="M32.5,32H16c-0.2,0-0.3-0.1-0.3-0.3v-0.8c0-0.2,0.1-0.3,0.3-0.3c0.2,0,0.3,0.1,0.3,0.3v0.3h15.7v-4.1
		c0-0.2,0.1-0.3,0.3-0.3s0.3,0.1,0.3,0.3v4.5C32.8,31.9,32.7,32,32.5,32z"/>
	<path class="st3" d="M32.5,26c-0.2,0-0.3-0.1-0.3-0.3V10.3H16.5v1.5c0,0.2-0.1,0.3-0.3,0.3c-0.2,0-0.4-0.1-0.4-0.2V10
		c0-0.2,0.1-0.3,0.3-0.3h16.4c0.2,0,0.3,0.1,0.3,0.3v15.7C32.8,25.9,32.7,26,32.5,26z"/>
	<path class="st3" d="M24.7,17.4c-1,0-1.9-0.8-1.9-1.9s0.8-1.8,1.9-1.8s1.9,0.8,1.9,1.9S25.7,17.4,24.7,17.4z M24.7,14.5
		c-0.5,0-1.1,0.4-1.1,1.1c0,0.7,0.4,1.1,1.1,1.1s1.1-0.4,1.1-1.1C25.8,15,25.3,14.5,24.7,14.5z"/>
	<path class="st3" d="M26.9,22c-0.2,0-0.3-0.1-0.3-0.3v-2.3c0-1-0.8-1.9-1.9-1.9s-1.9,0.8-1.9,1.9v1.9h2.6c0.2,0,0.3,0.1,0.3,0.3
		c0,0.2-0.1,0.3-0.3,0.3h-2.9c-0.2,0-0.3-0.1-0.3-0.3v-2.2c0-1.5,1.1-2.6,2.6-2.6s2.6,1.1,2.6,2.6v2.3C27.3,21.8,27.1,22,26.9,22z"
		/>
</g>
<path class="st3" d="M24.7,20.5c-0.2,0-0.3-0.1-0.3-0.3v-1.5c0-0.2,0.1-0.3,0.3-0.3s0.3,0.1,0.3,0.3v1.5
	C25.1,20.3,24.8,20.5,24.7,20.5z"/>
<g>
	<path class="st4" d="M22.5,24.6h-0.3c-0.2,0-0.3-0.1-0.3-0.3c0-0.2,0.1-0.3,0.3-0.3h0.3c0.2,0,0.3,0.1,0.3,0.3S22.6,24.6,22.5,24.6
		z"/>
	<path class="st4" d="M28.7,24.6h-4.9c-0.2,0-0.3-0.1-0.3-0.3c0-0.2,0.1-0.3,0.3-0.3h4.9c0.2,0,0.3,0.1,0.3,0.3
		C29.2,24.5,29.1,24.6,28.7,24.6z"/>
	<path class="st4" d="M28.7,26h-8.2c-0.2,0-0.3-0.1-0.3-0.3c0-0.2,0.1-0.3,0.3-0.3h8.2c0.2,0,0.3,0.1,0.3,0.3
		C29.2,25.9,29.1,26,28.7,26z"/>
	<path class="st4" d="M27.3,27.5h-6.8c-0.2,0-0.3-0.1-0.3-0.3c0-0.2,0.1-0.3,0.3-0.3h6.8c0.2,0,0.3,0.1,0.3,0.3
		C27.6,27.4,27.4,27.5,27.3,27.5z"/>
</g>
</svg>
