<?xml version="1.0" encoding="utf-8"?>
<!-- Generator: Adobe Illustrator 24.0.2, SVG Export Plug-In . SVG Version: 6.00 Build 0)  -->
<svg version="1.1" id="Capa_1" xmlns="http://www.w3.org/2000/svg" xmlns:xlink="http://www.w3.org/1999/xlink" x="0px" y="0px"
	 viewBox="0 0 50 40" style="enable-background:new 0 0 50 40;" xml:space="preserve">
<style type="text/css">
	.st0{fill:#FFFFFF;}
	.st1{fill:#757575;}
	.st2{fill:#CCCCCC;}
	.st3{fill:#A8A8A8;}
	.st4{fill:#636363;}
</style>
<title>Address Book</title>
<desc>Created with Sketch.</desc>
<g>
	<rect x="16.9" y="10.3" class="st0" width="15.7" height="20.7"/>
	<path class="st1" d="M32.7,11.1h1.4v12.8l0,0c0.5,0,1.1,0.4,1.1,1.1v1.8c0,0.5-0.4,1.1-1.1,1.1l0,0v2.5h-1.4V11.1z"/>
	<g>
		<path class="st2" d="M16,12.2h2.2c0.4,0,0.8,0.3,0.8,0.8l0,0c0,0.4-0.3,0.8-0.8,0.8H16c-0.4-0.1-0.8-0.4-0.8-0.9l0,0
			C15.2,12.4,15.5,12.2,16,12.2z"/>
		<path class="st2" d="M16,16h2.2c0.4,0,0.8,0.3,0.8,0.8l0,0c0,0.4-0.3,0.8-0.8,0.8H16c-0.4,0-0.8-0.3-0.8-0.8l0,0
			C15.2,16.4,15.5,16,16,16z"/>
		<path class="st2" d="M16,19.9h2.2c0.4,0,0.8,0.3,0.8,0.8l0,0c0,0.4-0.3,0.8-0.8,0.8H16c-0.4,0-0.8-0.3-0.8-0.8l0,0
			C15.2,20.2,15.5,19.9,16,19.9z"/>
		<path class="st2" d="M16,23.9h2.2c0.4,0,0.8,0.3,0.8,0.8l0,0c0,0.4-0.3,0.8-0.8,0.8H16c-0.4,0-0.8-0.3-0.8-0.8l0,0
			C15.2,24.2,15.5,23.9,16,23.9z"/>
		<path class="st2" d="M16,27.8h2.2c0.4,0,0.8,0.3,0.8,0.8l0,0c0,0.4-0.3,0.8-0.8,0.8H16c-0.4,0-0.8-0.3-0.8-0.8l0,0
			C15.2,28.1,15.5,27.8,16,27.8z"/>
	</g>
	<g>
		<circle class="st3" cx="25.2" cy="15.7" r="1.4"/>
		<path class="st3" d="M25.2,17.1L25.2,17.1c1.2,0,2.2,1,2.2,2.2v2.2l0,0h-4.3l0,0v-2.2C23.1,18.1,24,17.1,25.2,17.1z"/>
	</g>
	<g>
		<path class="st4" d="M16.9,16.4c-0.1,0-0.3-0.1-0.3-0.3v-2.5c0-0.2,0.1-0.3,0.3-0.3s0.3,0.1,0.3,0.3V16
			C17.4,16.3,17.1,16.4,16.9,16.4z"/>
		<path class="st4" d="M16.9,20.3c-0.2,0-0.3-0.1-0.3-0.3v-2.5c0-0.2,0.1-0.3,0.3-0.3s0.3,0.1,0.3,0.3V20
			C17.4,20.1,17.1,20.3,16.9,20.3z"/>
		<path class="st4" d="M16.9,24.2c-0.2,0-0.3-0.1-0.3-0.3v-2.5c0-0.2,0.1-0.3,0.3-0.3s0.3,0.1,0.3,0.3v2.5
			C17.4,24.1,17.1,24.2,16.9,24.2z"/>
		<path class="st4" d="M16.9,28.1c-0.2,0-0.3-0.1-0.3-0.3v-2.5c0-0.2,0.1-0.3,0.3-0.3s0.3,0.1,0.3,0.3v2.5
			C17.4,28,17.1,28.1,16.9,28.1z"/>
		<path class="st4" d="M34.1,30.7h-1.4c-0.2,0-0.3-0.1-0.3-0.3c0-0.2,0.1-0.3,0.3-0.3h1.1v-2.2c0-0.2,0.1-0.3,0.3-0.3
			c0.4,0,0.8-0.3,0.8-0.8V25c0-0.4-0.3-0.8-0.8-0.8c-0.2,0-0.3-0.1-0.3-0.3v-8.6c0-0.2,0.1-0.3,0.3-0.3s0.3,0.1,0.3,0.3v8.3
			c0.6,0.2,1.1,0.8,1.1,1.4v1.8c0,0.6-0.4,1.2-1.1,1.4v2.2C34.5,30.5,34.3,30.7,34.1,30.7z"/>
		<path class="st4" d="M34.1,14.2c-0.2,0-0.3-0.1-0.3-0.3v-0.3c0-0.2,0.1-0.3,0.3-0.3s0.3,0.1,0.3,0.3v0.3
			C34.5,14.1,34.3,14.2,34.1,14.2z"/>
		<path class="st4" d="M34.1,12.5c-0.2,0-0.3-0.1-0.3-0.3v-0.8h-1.1c-0.2,0-0.3-0.1-0.3-0.3s0.1-0.3,0.3-0.3h1.4
			c0.2,0,0.3,0.1,0.3,0.3v1.1C34.5,12.3,34.3,12.5,34.1,12.5z"/>
		<path class="st4" d="M18,21.7h-1.7c-0.2,0-0.3-0.1-0.3-0.3c0-0.2,0.1-0.3,0.3-0.3h1.8c0.2,0,0.3-0.1,0.3-0.3
			c0-0.2-0.1-0.3-0.3-0.3H16c-0.2,0-0.3,0.1-0.3,0.3c0,0.2-0.1,0.3-0.3,0.3S15,21,15,20.8c0-0.5,0.4-1.1,1.1-1.1h2.2
			c0.5,0,1.1,0.4,1.1,1.1S18.7,21.7,18,21.7z"/>
		<path class="st4" d="M18,17.8h-1.7c-0.2,0-0.3-0.1-0.3-0.3c0-0.2,0.1-0.3,0.3-0.3h1.8c0.2,0,0.3-0.1,0.3-0.3
			c0-0.2-0.1-0.3-0.3-0.3H16c-0.2,0-0.3,0.1-0.3,0.3s-0.1,0.3-0.3,0.3s-0.4-0.2-0.4-0.3c0-0.5,0.4-1.1,1.1-1.1h2.2
			c0.5,0,1.1,0.4,1.1,1.1C19.1,17.3,18.7,17.8,18,17.8z"/>
		<path class="st4" d="M18,13.9h-1.7c-0.2,0-0.3-0.1-0.3-0.3s0.1-0.3,0.3-0.3h1.8c0.2,0,0.3-0.1,0.3-0.3c0-0.2-0.2-0.4-0.4-0.4h-2.2
			c-0.1,0-0.3,0.1-0.3,0.3c0,0.2-0.1,0.3-0.3,0.3s-0.3-0.1-0.3-0.3c0-0.5,0.4-1.1,1.1-1.1h2.2c0.5,0,1.1,0.4,1.1,1.1
			C19.2,13.5,18.7,13.9,18,13.9z"/>
		<path class="st4" d="M18,29.6h-1.7c-0.2,0-0.3-0.1-0.3-0.3c0-0.2,0.1-0.3,0.3-0.3h1.8c0.2,0,0.3-0.1,0.3-0.3
			c0-0.2-0.1-0.3-0.3-0.3H16c-0.2,0-0.3,0.1-0.3,0.3c0,0.2-0.1,0.3-0.3,0.3S15,28.9,15,28.6c0-0.5,0.4-1.1,1.1-1.1h2.2
			c0.5,0,1.1,0.4,1.1,1.1C19.3,29.3,18.7,29.6,18,29.6z"/>
		<path class="st4" d="M18,25.6h-1.7c-0.2,0-0.3-0.1-0.3-0.3c0-0.2,0.1-0.3,0.3-0.3h1.8c0.2,0,0.3-0.1,0.3-0.3
			c0-0.2-0.1-0.3-0.3-0.3H16c-0.2,0-0.3,0.1-0.3,0.3c0,0.2-0.1,0.3-0.3,0.3S15,24.9,15,24.7c0-0.5,0.4-1.1,1.1-1.1h2.2
			c0.5,0,1.1,0.4,1.1,1.1S18.7,25.6,18,25.6z"/>
		<path class="st4" d="M32.7,31.3H16.9c-0.2,0-0.3-0.1-0.3-0.3v-0.8c0-0.2,0.1-0.3,0.3-0.3s0.3,0.1,0.3,0.3v0.3h15v-3.9
			c0-0.2,0.1-0.3,0.3-0.3s0.3,0.1,0.3,0.3V31C33,31.2,32.9,31.3,32.7,31.3z"/>
		<path class="st4" d="M32.7,25.6c-0.2,0-0.3-0.1-0.3-0.3V10.7h-15v1.4c0,0.2-0.1,0.3-0.3,0.3s-0.4-0.1-0.4-0.2v-1.8
			c0-0.2,0.1-0.3,0.3-0.3h15.7c0.2,0,0.3,0.1,0.3,0.3v15C33,25.5,32.9,25.6,32.7,25.6z"/>
		<path class="st4" d="M25.2,17.4c-1,0-1.8-0.8-1.8-1.8s0.8-1.7,1.8-1.7c1,0,1.8,0.8,1.8,1.8C26.9,16.7,26.2,17.4,25.2,17.4z
			 M25.2,14.6c-0.5,0-1.1,0.4-1.1,1.1c0,0.6,0.4,1.1,1.1,1.1c0.6,0,1.1-0.4,1.1-1.1S25.8,14.6,25.2,14.6z"/>
		<path class="st4" d="M27.3,21.7c-0.2,0-0.3-0.1-0.3-0.3v-2.2c0-1-0.8-1.8-1.8-1.8c-1,0-1.8,0.8-1.8,1.8v1.8h2.5
			c0.2,0,0.3,0.1,0.3,0.3c0,0.2-0.1,0.3-0.3,0.3H23c-0.2,0-0.3-0.1-0.3-0.3v-2.2c0-1.4,1.1-2.5,2.5-2.5c1.4,0,2.5,1.1,2.5,2.5v2.2
			C27.7,21.5,27.5,21.7,27.3,21.7z"/>
	</g>
	<path class="st0" d="M25.2,20.3c-0.2,0-0.3-0.1-0.3-0.3v-1.4c0-0.2,0.1-0.3,0.3-0.3c0.2,0,0.3,0.1,0.3,0.3V20
		C25.5,20.1,25.3,20.3,25.2,20.3z"/>
	<g>
		<path class="st4" d="M23.1,24.2h-0.3c-0.2,0-0.3-0.1-0.3-0.3c0-0.2,0.1-0.3,0.3-0.3h0.3c0.2,0,0.3,0.1,0.3,0.3
			S23.2,24.2,23.1,24.2z"/>
		<path class="st4" d="M29.1,24.2h-4.6c-0.2,0-0.3-0.1-0.3-0.3c0-0.2,0.1-0.3,0.3-0.3h4.6c0.2,0,0.3,0.1,0.3,0.3
			C29.4,24.1,29.3,24.2,29.1,24.2z"/>
		<path class="st4" d="M29.1,25.6h-7.9c-0.2,0-0.3-0.1-0.3-0.3c0-0.2,0.1-0.3,0.3-0.3h7.9c0.2,0,0.3,0.1,0.3,0.3
			C29.4,25.5,29.3,25.6,29.1,25.6z"/>
		<path class="st4" d="M27.7,27h-6.5c-0.2,0-0.3-0.1-0.3-0.3s0.1-0.3,0.3-0.3h6.5c0.2,0,0.3,0.1,0.3,0.3S27.8,27,27.7,27z"/>
	</g>
</g>
</svg>
