<?xml version="1.0" encoding="utf-8"?>
<!-- Generator: Adobe Illustrator 24.0.2, SVG Export Plug-In . SVG Version: 6.00 Build 0)  -->
<svg version="1.1" id="Capa_1" xmlns="http://www.w3.org/2000/svg" xmlns:xlink="http://www.w3.org/1999/xlink" x="0px" y="0px"
	 viewBox="0 0 24 24" style="enable-background:new 0 0 24 24;" xml:space="preserve">
<style type="text/css">
	.st0{fill:#0087E2;}
	.st1{fill:#FFFFFF;}
</style>
<title>ic-arrow-down</title>
<desc>Created with Sketch.</desc>
<title>ic-arrow-down</title>
<desc>Created with Sketch.</desc>
<g>
	<path class="st0" d="M18,13.1h-3V5.6c0-0.8-0.7-1.5-1.5-1.5h-2.9c-0.8,0-1.5,0.7-1.5,1.5v7.4h-3l6,7L18,13.1z"/>
	<path class="st1" d="M12,21.5l-8.1-9.5h4.2V6.4c0-1.8,1.5-3.3,3.3-3.3h1.4c1.8,0,3.3,1.5,3.3,3.3v5.7h4.2L12,21.5z M8.2,14l3.8,4.4
		l3.8-4.4H14V6.7c0-0.9-0.7-1.6-1.6-1.6h-0.8c-0.9,0-1.6,0.7-1.6,1.6V14H8.2z"/>
</g>
</svg>
