<?xml version="1.0" encoding="utf-8"?>
<!-- Generator: Adobe Illustrator 24.0.2, SVG Export Plug-In . SVG Version: 6.00 Build 0)  -->
<svg version="1.1" id="Capa_1" xmlns="http://www.w3.org/2000/svg" xmlns:xlink="http://www.w3.org/1999/xlink" x="0px" y="0px"
	 viewBox="0 0 50 50" style="enable-background:new 0 0 50 50;" xml:space="preserve">
<style type="text/css">
	.st0{fill:#FFFFFF;}
</style>
<title>Arrow left</title>
<desc>Created with Sketch.</desc>
<title>ic-arrow-down</title>
<desc>Created with Sketch.</desc>
<g>
	<path class="st0" d="M23.9,19.5v3h7.4c0.8,0,1.5,0.7,1.5,1.5v2.9c0,0.8-0.7,1.5-1.5,1.5h-7.4v3l-7-6L23.9,19.5z"/>
	<path d="M15.4,25.5l9.5,8.1v-4.2h5.7c1.8,0,3.3-1.5,3.3-3.3v-1.4c0-1.8-1.5-3.3-3.3-3.3h-5.7v-4.2L15.4,25.5z M22.9,29.3l-4.4-3.8
		l4.4-3.8v1.8h7.4c0.9,0,1.6,0.7,1.6,1.6v0.8c0,0.9-0.7,1.6-1.6,1.6h-7.4V29.3z"/>
</g>
</svg>
