<?xml version="1.0" encoding="utf-8"?>
<!-- Generator: Adobe Illustrator 24.0.2, SVG Export Plug-In . SVG Version: 6.00 Build 0)  -->
<svg version="1.1" id="Capa_1" xmlns="http://www.w3.org/2000/svg" xmlns:xlink="http://www.w3.org/1999/xlink" x="0px" y="0px"
	 viewBox="0 0 24 24" style="enable-background:new 0 0 24 24;" xml:space="preserve">
<style type="text/css">
	.st0{fill:#0087E2;}
</style>
<title>ic-arrow-down</title>
<desc>Created with Sketch.</desc>
<g>
	<path class="st0" d="M18.5,13.2h-3V5.8c0-0.8-0.7-1.5-1.5-1.5H11c-0.8,0-1.5,0.7-1.5,1.5v7.4h-3l6,7L18.5,13.2z"/>
	<path d="M12.5,21.7l-8.1-9.5h4.2V6.6c0-1.8,1.5-3.3,3.3-3.3h1.4c1.8,0,3.3,1.5,3.3,3.3v5.7h4.2L12.5,21.7z M8.7,14.2l3.8,4.4
		l3.8-4.4h-1.8V6.9c0-0.9-0.7-1.6-1.6-1.6h-0.8c-0.9,0-1.6,0.7-1.6,1.6v7.4H8.7z"/>
</g>
</svg>
