<?xml version="1.0" encoding="utf-8"?>
<!-- Generator: Adobe Illustrator 24.0.2, SVG Export Plug-In . SVG Version: 6.00 Build 0)  -->
<svg version="1.1" id="ic-add" xmlns="http://www.w3.org/2000/svg" xmlns:xlink="http://www.w3.org/1999/xlink" x="0px" y="0px"
	 viewBox="0 0 20 20" style="enable-background:new 0 0 20 20;" xml:space="preserve">
<style type="text/css">
	.st0{fill:url(#SVGID_1_);}
	.st1{fill:#FFFFFF;}
</style>
<linearGradient id="SVGID_1_" gradientUnits="userSpaceOnUse" x1="0.314" y1="17812.082" x2="19.5698" y2="17812.082" gradientTransform="matrix(1 0 0 1 0 -17802)">
	<stop  offset="0" style="stop-color:#00C7FF"/>
	<stop  offset="0.2807" style="stop-color:#00BEFF"/>
	<stop  offset="0.7459" style="stop-color:#00A4FF"/>
	<stop  offset="0.9944" style="stop-color:#0094FF"/>
</linearGradient>
<path class="st0" d="M19.6,10.1c0,5.3-4.3,9.6-9.6,9.6s-9.6-4.3-9.6-9.6s4.3-9.6,9.6-9.6S19.6,4.8,19.6,10.1z"/>
<g>
	<path class="st1" d="M9.9,2.6c-0.3,0-0.6,0.3-0.6,0.6s0.3,0.6,0.6,0.6c3.5,0,6.4,2.9,6.4,6.4s-2.9,6.4-6.4,6.4s-6.4-2.9-6.4-6.4
		c0-0.3-0.3-0.6-0.6-0.6s-0.6,0.3-0.6,0.6c0,4.1,3.4,7.5,7.5,7.5s7.5-3.4,7.5-7.5S14.1,2.6,9.9,2.6z"/>
	<path class="st1" d="M6.9,4.4c0.1,0,0.1,0,0.2,0L7.9,4c0.3-0.1,0.4-0.4,0.3-0.7C8.1,3,7.7,2.9,7.4,3L6.7,3.3C6.4,3.4,6.3,3.7,6.4,4
		C6.5,4.2,6.7,4.4,6.9,4.4z"/>
	<path class="st1" d="M4.7,6C4.9,6,5,6,5.1,5.9l0.6-0.6c0.2-0.2,0.2-0.6,0-0.8c-0.2-0.2-0.6-0.2-0.8,0L4.3,5.1
		c-0.2,0.2-0.2,0.6,0,0.8C4.4,6,4.6,6,4.7,6z"/>
	<path class="st1" d="M3.1,8.3c0.1,0,0.1,0,0.2,0c0.2,0,0.4-0.1,0.5-0.3l0.3-0.8c0.1-0.3,0-0.6-0.3-0.7c-0.3-0.1-0.6,0-0.7,0.3
		L2.8,7.6C2.7,7.9,2.9,8.2,3.1,8.3z"/>
	<path class="st1" d="M9.9,7.2c-0.3,0-0.6,0.3-0.6,0.6v1.8H7.6C7.3,9.5,7,9.8,7,10.1c0,0.3,0.3,0.6,0.6,0.6h1.8v1.8
		c0,0.3,0.3,0.6,0.6,0.6c0.3,0,0.6-0.3,0.6-0.6v-1.8h1.8c0.3,0,0.6-0.3,0.6-0.6c0-0.3-0.3-0.6-0.6-0.6h-1.8V7.7
		C10.5,7.4,10.3,7.2,9.9,7.2z"/>
</g>
</svg>
