<?xml version="1.0" encoding="utf-8"?>
<!-- Generator: Adobe Illustrator 24.0.1, SVG Export Plug-In . SVG Version: 6.00 Build 0)  -->
<svg version="1.1" id="ic-add_label" xmlns="http://www.w3.org/2000/svg" xmlns:xlink="http://www.w3.org/1999/xlink" x="0px"
	 y="0px" viewBox="0 0 24 24" style="enable-background:new 0 0 24 24;" xml:space="preserve">
<style type="text/css">
	.st0{fill:#63A3EA;}
	.st1{fill-rule:evenodd;clip-rule:evenodd;fill:#63A3EA;}
</style>
<g id="Address">
	<g id="Group-2" transform="translate(3.000000, 12.000000)">
		<path id="Path_18863" class="st0" d="M15-10.7H0.2c-0.9,0-1.6,0.7-1.6,1.6V9.8c0,0.9,0.7,1.6,1.6,1.6H14v0c-0.1,0-0.1,0-0.2,0
			c-0.5,0-1-0.5-1-1v-1H3.6v-18h9.5c0.8,0,1.5,0.7,1.5,1.5v7.4c0.1-0.4,0.5-0.8,1-0.8c0.5,0,1,0.5,1,1v0.1h0v-9.6
			C16.6-10,15.9-10.7,15-10.7z M1.6,9.3h-1v-18h1V9.3z"/>
		<path id="Path_18864" class="st0" d="M12.4-6.7H5.7c-0.6,0-1.1,0.5-1.1,1.1v3.7c0,0.6,0.5,1.1,1.1,1.1h6.7c0.6,0,1.1-0.5,1.1-1.1
			v-3.7C13.6-6.2,13.1-6.7,12.4-6.7z M11.6-3.3c0,0.4-0.3,0.7-0.7,0.7H7.2C6.9-2.7,6.6-3,6.6-3.3V-4c0-0.4,0.3-0.6,0.7-0.6h3.7
			c0.4,0,0.7,0.3,0.7,0.6V-3.3z"/>
	</g>
</g>
<path class="st1" d="M22.6,16.8h-3.1v-3.1c0-0.5-0.5-1-1-1s-1,0.5-1,1v3.1h-3.5c-0.5,0-1,0.5-1,1s0.5,1,1,1h3.5V22c0,0.5,0.5,1,1,1
	s1-0.5,1-1v-3.3h3.1c0.5,0,1-0.5,1-1S23.2,16.8,22.6,16.8z"/>
</svg>
