<?xml version="1.0" encoding="utf-8"?>
<!-- Generator: Adobe Illustrator 24.0.1, SVG Export Plug-In . SVG Version: 6.00 Build 0)  -->
<svg version="1.1" id="Capa_1" xmlns="http://www.w3.org/2000/svg" xmlns:xlink="http://www.w3.org/1999/xlink" x="0px" y="0px"
	 viewBox="0 0 70 40" style="enable-background:new 0 0 70 40;" xml:space="preserve">
<style type="text/css">
	.st0{fill:#94BAF2;}
</style>
<title>Address Book Send</title>
<desc>Created with Sketch.</desc>
<g id="Address">
	<g id="Group-2" transform="translate(3.000000, 12.000000)">
		<path id="Path_18863_1_" class="st0" d="M13.5-3.3h-2.4c-0.9,0-1.6,0.7-1.6,1.6v18.9c0,0.9,0.7,1.6,1.6,1.6H26
			c0.9,0,1.6-0.7,1.6-1.6V-1.7c0-0.9-0.7-1.6-1.6-1.6H13.5z M11.5,16.7v-18h1v18H11.5z M24.1,16.7h-9.5v-18h9.5
			c0.8,0,1.5,0.7,1.5,1.5v15.1C25.5,16.1,24.9,16.7,24.1,16.7z"/>
		<path id="Path_18864_1_" class="st0" d="M23.4,0.7h-6.7c-0.6,0-1.1,0.5-1.1,1.1v3.7c0,0.6,0.5,1.1,1.1,1.1h6.7
			c0.6,0,1.1-0.5,1.1-1.1V1.9C24.5,1.2,24,0.7,23.4,0.7z M21.9,4.7h-3.7c-0.4,0-0.7-0.3-0.7-0.7V3.4c0-0.4,0.3-0.7,0.7-0.7h3.7
			c0.4,0,0.7,0.3,0.7,0.7v0.7C22.5,4.4,22.3,4.7,21.9,4.7z"/>
	</g>
</g>
</svg>
