<?xml version="1.0" encoding="utf-8"?>
<!-- Generator: Adobe Illustrator 24.0.2, SVG Export Plug-In . SVG Version: 6.00 Build 0)  -->
<svg version="1.1" id="Capa_1" xmlns="http://www.w3.org/2000/svg" xmlns:xlink="http://www.w3.org/1999/xlink" x="0px" y="0px"
	 viewBox="0 0 40 40" style="enable-background:new 0 0 40 40;" xml:space="preserve">
<style type="text/css">
	.st0{fill:#62B1DD;}
</style>
<title>ComboBox</title>
<desc>Created with Sketch.</desc>
<title>ic-arrow-down</title>
<desc>Created with Sketch.</desc>
<g>
	<path class="st0" d="M6.3,21.1h3v-7.4c0-0.8,0.7-1.5,1.5-1.5h2.9c0.8,0,1.5,0.7,1.5,1.5v7.4h3l-6,7L6.3,21.1z"/>
	<path d="M12.3,29.6l8.1-9.5h-4.2v-5.7c0-1.8-1.5-3.3-3.3-3.3h-1.4c-1.8,0-3.3,1.5-3.3,3.3v5.7H4.2L12.3,29.6z M16.1,22.1l-3.8,4.4
		l-3.8-4.4h1.8v-7.4c0-0.9,0.7-1.6,1.6-1.6h0.8c0.9,0,1.6,0.7,1.6,1.6v7.4H16.1z"/>
</g>
</svg>
