<?xml version="1.0" encoding="utf-8"?>
<!-- Generator: Adobe Illustrator 24.0.1, SVG Export Plug-In . SVG Version: 6.00 Build 0)  -->
<svg version="1.1" id="ic-transaction-staked" xmlns="http://www.w3.org/2000/svg" xmlns:xlink="http://www.w3.org/1999/xlink"
	 x="0px" y="0px" viewBox="0 0 24 24" style="enable-background:new 0 0 24 24;" xml:space="preserve">
<style type="text/css">
	.st0{fill:#FFFFFF;}
	.st1{fill:none;}
</style>
<g>
	<path class="st0" d="M52.1,13L52.1,13L52.1,13z"/>
</g>
<path class="st1" d="M50.7,4.9c-0.1-0.3-0.4-0.6-0.7-0.7c-0.2-0.1-0.6-0.2-0.9-0.1c-0.3,0.1-0.6,0.3-0.8,0.6l-0.6,1h2.9
	C50.8,5.5,50.8,5.2,50.7,4.9z"/>
<g>
	<path class="st0" d="M11.8,1.1c-6.1,0-11,4.9-11,11s4.9,11,11,11s11-4.9,11-11S17.8,1.1,11.8,1.1z M11.8,20.8C6.9,20.8,3,16.9,3,12
		s3.9-8.7,8.8-8.7s8.8,3.9,8.8,8.8S16.6,20.8,11.8,20.8z"/>
	<path class="st0" d="M11.8,3.8c-4.6,0-8.3,3.7-8.3,8.3s3.7,8.3,8.3,8.3s8.3-3.7,8.3-8.3S16.3,3.8,11.8,3.8z M11.8,19.3
		c-4,0-7.3-3.3-7.3-7.3s3.2-7.2,7.3-7.2s7.3,3.3,7.3,7.3S15.8,19.3,11.8,19.3z"/>
</g>
<path class="st0" d="M16.3,13.5c-0.5-0.4-1.1-0.4-1.6-0.1c-0.1,0-0.1,0-0.2,0.1l-1.8-1.4l1.8-1.4c0.1,0,0.1,0,0.2,0.1
	c0.5,0.3,1.1,0.2,1.6-0.1c0.7-0.5,0.8-1.5,0.3-2.2c-0.5-0.7-1.5-0.8-2.2-0.3c-0.5,0.4-0.7,0.9-0.6,1.5c0,0.1,0,0.1,0,0.2l-1.6,1.2
	v-2c0.1,0,0.1-0.1,0.2-0.1c0.5-0.3,0.9-0.8,0.9-1.4c0-0.9-0.7-1.5-1.5-1.5c-0.9,0-1.5,0.7-1.5,1.5c0,0.6,0.4,1.1,0.9,1.4
	c0.1,0,0.1,0.1,0.2,0.1v2L9.7,9.9c0-0.1,0-0.1,0-0.2c0.1-0.6-0.1-1.1-0.6-1.5C8.5,7.7,7.5,7.8,7,8.5c-0.5,0.7-0.4,1.6,0.3,2.2
	C7.8,11,8.4,11,8.9,10.8c0.1,0,0.1,0,0.2-0.1l1.8,1.4l-1.8,1.4c-0.1,0-0.1,0-0.2-0.1c-0.5-0.3-1.1-0.2-1.6,0.1C6.6,14,6.5,15,7,15.7
	c0.5,0.7,1.5,0.8,2.2,0.3c0.5-0.4,0.7-0.9,0.6-1.5c0-0.1,0-0.1,0-0.2l1.6-1.2v2c-0.1,0-0.1,0.1-0.2,0.1c-0.5,0.3-0.9,0.8-0.9,1.4
	c0,0.9,0.7,1.5,1.5,1.5c0.9,0,1.5-0.7,1.5-1.5c0-0.6-0.4-1.1-0.9-1.4c-0.1,0-0.1-0.1-0.2-0.1v-2l1.6,1.2c0,0.1,0,0.1,0,0.2
	c-0.1,0.6,0.1,1.1,0.6,1.5c0.7,0.5,1.6,0.4,2.2-0.3C17.2,15,17,14,16.3,13.5z"/>
</svg>
