<?xml version="1.0" encoding="utf-8"?>
<!-- Generator: Adobe Illustrator 24.0.2, SVG Export Plug-In . SVG Version: 6.00 Build 0)  -->
<svg version="1.1" id="ic-transaction-staked" xmlns="http://www.w3.org/2000/svg" xmlns:xlink="http://www.w3.org/1999/xlink"
	 x="0px" y="0px" viewBox="0 0 24 24" style="enable-background:new 0 0 24 24;" xml:space="preserve">
<g>
	<path d="M7.8,13.8c-0.2,0-0.3,0.1-0.3,0.3V15c0,0.2,0.1,0.3,0.3,0.3c0.2,0,0.3-0.1,0.3-0.3v-0.8C8.1,14,8,13.8,7.8,13.8L7.8,13.8z"
		/>
	<path d="M8.1,9.6L12.7,7c0.2-0.1,0.2-0.3,0.1-0.4c-0.1-0.2-0.3-0.2-0.4-0.1L7.8,9.1L3.1,6.4C3,6.3,2.8,6.4,2.7,6.5
		C2.6,6.7,2.7,6.9,2.8,7l4.6,2.7v3c0,0.2,0.1,0.3,0.3,0.3S8,12.9,8,12.7V9.6H8.1z"/>
	<path d="M15.3,11.2l1.8-1.1c0.2-0.1,0.2-0.3,0.1-0.4c-0.1-0.2-0.3-0.2-0.4-0.1l-1.8,1c-0.2,0.1-0.2,0.3-0.1,0.4
		C14.9,11.2,15.1,11.2,15.3,11.2z"/>
	<path d="M17,20.1c0.2,0,0.3-0.1,0.3-0.3v-4.6l4-2.3c0.2-0.1,0.2-0.3,0.1-0.4c-0.1-0.2-0.3-0.2-0.4-0.1l-4,2.3l-4-2.3
		c-0.2-0.1-0.3,0-0.4,0.1c-0.1,0.2,0,0.3,0.1,0.4l4,2.3v4.6C16.6,19.9,16.8,20.1,17,20.1z"/>
	<path d="M1.5,13.7L7.3,17c0.3,0.2,0.7,0.2,1,0l2.8-1.6v2.5c0,0.3,0.2,0.6,0.5,0.8l5,2.9c0.3,0.2,0.6,0.2,0.9,0l5-2.9
		c0.3-0.2,0.5-0.5,0.5-0.8v-2.2c0-0.2-0.1-0.3-0.3-0.3s-0.3,0.1-0.3,0.3v2.2c0,0.1,0,0.2-0.1,0.2l-5,2.9c-0.1,0-0.2,0-0.3,0l-5-2.9
		c-0.1,0-0.1-0.1-0.1-0.2c0-0.7,0-4.3,0-5.8c0-0.1,0-0.2,0.1-0.2c0.9-0.5,3.4-2,5-2.9c0.1,0,0.2,0,0.3,0l5,2.9
		c0.1,0,0.1,0.1,0.1,0.2v2.1c0,0.2,0.1,0.3,0.3,0.3s0.3-0.1,0.3-0.3v-2.1c0-0.3-0.2-0.6-0.5-0.8l-5-2.9c-0.3-0.2-0.6-0.2-0.9,0
		l-1.9,1.1V6.1c0-0.4-0.2-0.7-0.5-0.9L8.3,1.9c-0.3-0.2-0.7-0.2-1,0L6.1,2.6C5.9,2.6,5.9,2.8,5.9,3C6,3.2,6.2,3.2,6.4,3.1l1.2-0.7
		c0.1-0.1,0.2-0.1,0.4,0l5.8,3.4C13.9,5.8,14,6,14,6.1V10l-2.4,1.4c-0.3,0.2-0.5,0.5-0.5,0.8v2.5L8,16.5c-0.1,0.1-0.2,0.1-0.4,0
		l-5.8-3.4c-0.1-0.1-0.2-0.2-0.2-0.3V6.1c0-0.1,0.1-0.2,0.2-0.3l3.3-1.9c0.2-0.1,0.2-0.3,0.1-0.4C5.1,3.3,4.9,3.2,4.8,3.3L1.5,5.2
		C1.1,5.4,1,5.7,1,6.1v6.7C1,13.2,1.1,13.5,1.5,13.7z"/>
	<path d="M3.4,5.7c0.1,0.2,0.3,0.2,0.4,0.1l1.9-1.1C5.9,4.6,6,4.4,5.9,4.3C5.8,4.1,5.6,4.1,5.4,4.2L3.5,5.3C3.4,5.3,3.3,5.5,3.4,5.7
		z"/>
</g>
</svg>
