<?xml version="1.0" encoding="utf-8"?>
<!-- Generator: Adobe Illustrator 24.0.1, SVG Export Plug-In . SVG Version: 6.00 Build 0)  -->
<svg version="1.1" id="ic_mint_off" shape-rendering="geometricPrecision"
	 xmlns="http://www.w3.org/2000/svg" xmlns:xlink="http://www.w3.org/1999/xlink" x="0px" y="0px" viewBox="0 0 24 24"
	 style="enable-background:new 0 0 24 24;" xml:space="preserve">
<style type="text/css">
	.st0{fill:#FFFFFF;}
</style>
<path id="Path_18964" class="st0" d="M6.6,4.5h10.3c0.6,0,1.1,0.5,1.1,1.1v1.6l-0.8-0.8l-1.5,1.5l3.3,3.3l3.3-3.3l-1.5-1.5L20,7.2
	V5.2c0-1.5-1.2-2.7-2.7-2.7H6.1c-1.5,0-2.7,1.2-2.7,2.7v3.5c0,0.6,0.5,1,1,1h0c0.6,0,1-0.5,1-1V5.6C5.5,5,6,4.5,6.6,4.5z"/>
<path id="Path_18965" class="st0" d="M11.7,7.6c-2.3,0-4.2,1.9-4.2,4.2S9.4,16,11.7,16s4.2-1.9,4.2-4.2S14,7.6,11.7,7.6z"/>
<path id="Path_18966" class="st0" d="M16.8,19.1H6.6c-0.6,0-1.1-0.5-1.1-1.1v-1.6l0.8,0.8l1.5-1.5l-3.3-3.3l-3.3,3.3l1.5,1.5
	l0.8-0.8v2.1c0,1.5,1.2,2.7,2.7,2.7h11.2c1.5,0,2.7-1.2,2.7-2.7v-3.5c0-0.6-0.5-1-1-1h0c-0.6,0-1,0.5-1,1V18
	C17.9,18.6,17.4,19.1,16.8,19.1z"/>
</svg>
