<?xml version="1.0" encoding="utf-8"?>
<!-- Generator: Adobe Illustrator 24.0.1, SVG Export Plug-In . SVG Version: 6.00 Build 0)  -->
<svg version="1.1" id="Capa_1" xmlns="http://www.w3.org/2000/svg" xmlns:xlink="http://www.w3.org/1999/xlink" x="0px" y="0px"
	 viewBox="0 0 18 17" style="enable-background:new 0 0 18 17;" xml:space="preserve">
<style type="text/css">
	.st0{fill:#FFFFFF;}
</style>
<title>ic-close-white</title>
<desc>Created with Sketch.</desc>
<g>
	<path class="st0" d="M15.4,16.3L0.8,1.7c-0.4-0.4-0.4-1.1,0-1.6l0,0c0.4-0.4,1.1-0.4,1.6,0l14.6,14.6c0.4,0.4,0.4,1.1,0,1.6l0,0
		C16.5,16.7,15.8,16.7,15.4,16.3z"/>
	<path class="st0" d="M0.8,14.7L15.4,0.1c0.4-0.4,1.1-0.4,1.6,0v0c0.4,0.4,0.4,1.1,0,1.6L2.4,16.3c-0.4,0.4-1.1,0.4-1.6,0h0
		C0.4,15.8,0.4,15.1,0.8,14.7z"/>
</g>
</svg>
