<?xml version="1.0" encoding="utf-8"?>
<!-- Generator: Adobe Illustrator 24.0.1, SVG Export Plug-In . SVG Version: 6.00 Build 0)  -->
<svg version="1.1" id="ic-transaction-staked" xmlns="http://www.w3.org/2000/svg" xmlns:xlink="http://www.w3.org/1999/xlink"
	 x="0px" y="0px" viewBox="0 0 24 24" style="enable-background:new 0 0 24 24;" xml:space="preserve">
<style type="text/css">
	.st0{fill:#67A2F9;}
</style>
<g>
	<path class="st0" d="M37.5,1.2c-6.1,0-11,4.9-11,11s4.9,11,11,11s11-4.9,11-11S43.5,1.2,37.5,1.2z M37.5,20.9
		c-4.9,0-8.8-3.9-8.8-8.8s3.9-8.7,8.8-8.7s8.8,3.9,8.8,8.8S42.3,20.9,37.5,20.9z"/>
	<path class="st0" d="M37.5,3.9c-4.6,0-8.3,3.7-8.3,8.3s3.7,8.3,8.3,8.3s8.3-3.7,8.3-8.3S42,3.9,37.5,3.9z M37.5,19.4
		c-4,0-7.3-3.3-7.3-7.3s3.2-7.2,7.3-7.2s7.3,3.3,7.3,7.3S41.5,19.4,37.5,19.4z"/>
</g>
<path class="st0" d="M20.2,14.8c-0.9-0.7-2-0.7-2.9-0.2c-0.1,0-0.2,0.1-0.3,0.1l-3.3-2.5L17,9.7c0.1,0.1,0.2,0.1,0.3,0.1
	c0.9,0.5,2,0.4,2.9-0.2c1.2-0.9,1.5-2.7,0.6-3.9c-0.9-1.2-2.7-1.5-3.9-0.6c-0.9,0.6-1.2,1.7-1.1,2.7c0,0.1,0,0.2,0,0.4L13,10.3V6.8
	c0.1-0.1,0.2-0.1,0.3-0.2c0.9-0.5,1.5-1.4,1.5-2.5c0-1.5-1.2-2.8-2.8-2.8S9.3,2.6,9.3,4.1c0,1.1,0.6,2,1.5,2.5
	c0.1,0.1,0.2,0.1,0.3,0.2v3.5L8.3,8.2c0-0.1,0-0.2,0-0.4c0.2-1-0.2-2.1-1.1-2.7C6,4.2,4.3,4.5,3.3,5.7c-0.9,1.2-0.7,3,0.6,3.9
	c0.9,0.6,2,0.7,2.9,0.2c0.1,0,0.2-0.1,0.3-0.1l3.3,2.5l-3.3,2.5c-0.1-0.1-0.2-0.1-0.3-0.1c-0.9-0.5-2-0.4-2.9,0.2
	c-1.2,0.9-1.5,2.7-0.6,3.9c0.9,1.2,2.7,1.5,3.9,0.6c0.9-0.7,1.2-1.7,1.1-2.7c0-0.1,0-0.2,0-0.4l2.8-2.1v3.5c-0.1,0-0.2,0.1-0.3,0.2
	c-0.9,0.5-1.5,1.4-1.5,2.5c0,1.5,1.2,2.8,2.8,2.8s2.8-1.2,2.8-2.8c0-1.1-0.6-2-1.5-2.5c-0.1-0.1-0.2-0.1-0.3-0.2v-3.5l2.8,2.1
	c0,0.1,0,0.2,0,0.4c-0.2,1,0.2,2.1,1.1,2.7c1.2,0.9,3,0.7,3.9-0.6C21.7,17.4,21.5,15.7,20.2,14.8z"/>
</svg>
