<?xml version="1.0" encoding="utf-8"?>
<!-- Generator: Adobe Illustrator 24.0.1, SVG Export Plug-In . SVG Version: 6.00 Build 0)  -->
<svg version="1.1" id="ic_error_sync" shape-rendering="geometricPrecision"
	 xmlns="http://www.w3.org/2000/svg" xmlns:xlink="http://www.w3.org/1999/xlink" x="0px" y="0px" viewBox="0 0 24 24"
	 style="enable-background:new 0 0 24 24;" xml:space="preserve">
<style type="text/css">
	.st0{fill:#7C7687;}
</style>
<g id="Group_8887">
	<path id="Path_18905" class="st0" d="M19.6,16.8c0.7-1.1,1.2-2.4,1.3-3.7c0.1-0.6-0.4-1.1-1-1.1h0c-0.5,0-0.9,0.4-1,0.9
		c-0.1,0.9-0.4,1.7-0.8,2.5L19.6,16.8z"/>
	<path id="Path_18906" class="st0" d="M15.3,18.2c-3.1,1.7-7,0.8-9.1-2.2H9v-2H3v6h2v-2.4c2.8,3.6,7.9,4.4,11.8,2L15.3,18.2z"/>
</g>
<g id="Group_8888">
	<path id="Path_18907" class="st0" d="M8.7,5.8c3.1-1.7,7-0.8,9.1,2.2H15v2h6V4h-2v2.4c-2.8-3.6-7.9-4.4-11.8-2L8.7,5.8z"/>
	<path id="Path_18908" class="st0" d="M4.4,7.2c-0.7,1.1-1.2,2.4-1.3,3.7C3,11.5,3.5,12,4.1,12h0c0.5,0,0.9-0.4,1-0.9
		c0.1-0.9,0.4-1.7,0.8-2.5L4.4,7.2z"/>
</g>
<path id="Rectangle_4442" class="st0" d="M4,4L4,4c0.4-0.4,1-0.4,1.4,0L20,18.6c0.4,0.4,0.4,1,0,1.4l0,0c-0.4,0.4-1,0.4-1.4,0L4,5.4
	C3.6,5,3.6,4.4,4,4z"/>
</svg>
