<?xml version="1.0" encoding="utf-8"?>
<!-- Generator: Adobe Illustrator 24.0.2, SVG Export Plug-In . SVG Version: 6.00 Build 0)  -->
<svg version="1.1" id="ic_locked" xmlns="http://www.w3.org/2000/svg" xmlns:xlink="http://www.w3.org/1999/xlink" x="0px" y="0px"
	 viewBox="0 0 24 24" style="enable-background:new 0 0 24 24;" xml:space="preserve">
<style type="text/css">
	.st0{fill:#303C42;}
	.st1{fill:#F2F2F2;}
	.st2{fill:#006DF0;}
	.st3{fill:#7CBAF7;}
	.st4{fill:#08539E;}
	.st5{fill:#FFFFFF;}
</style>
<path class="st0" d="M19.9,9.2h-1.4V7.3c0-3.6-2.9-6.5-6.5-6.5S5.5,3.7,5.5,7.3v1.9H4.1c-0.3,0-0.5,0.2-0.5,0.5v11.6
	c0,1,0.8,1.9,1.9,1.9h13c1,0,1.9-0.8,1.9-1.9V9.7C20.4,9.4,20.2,9.2,19.9,9.2z M15.7,9.2H8.3V7.3c0-2.1,1.7-3.7,3.7-3.7
	s3.7,1.7,3.7,3.7V9.2z"/>
<path class="st1" d="M6.4,7.3c0-3.1,2.5-5.6,5.6-5.6s5.6,2.5,5.6,5.6v1.9h-0.9V7.3c0-2.6-2.1-4.7-4.7-4.7S7.3,4.8,7.3,7.3v1.9H6.4
	V7.3z"/>
<path class="st2" d="M19.4,21.3c0,0.5-0.4,0.9-0.9,0.9h-13c-0.5,0-0.9-0.4-0.9-0.9V10.1h14.9V21.3z"/>
<path class="st3" d="M6.4,21.3V10.1H4.6v11.2c0,0.5,0.4,0.9,0.9,0.9h1.6C6.7,22.2,6.4,21.8,6.4,21.3z"/>
<path class="st4" d="M17.6,10.1v11.2c0,0.5-0.3,0.9-0.7,0.9h1.6c0.5,0,0.9-0.4,0.9-0.9V10.1L17.6,10.1L17.6,10.1z"/>
<path class="st5" d="M14.3,16.2c-0.4,0-0.8,0.2-1.1,0.4c0,0.1-0.1,0.1-0.2,0l-0.8-0.4c-0.1,0-0.1-0.1-0.1-0.1l0-0.9
	c0-0.1,0-0.1,0.1-0.1c0.7-0.2,1.1-0.8,1.1-1.5c0-0.8-0.7-1.5-1.5-1.5c-0.8,0-1.5,0.7-1.5,1.5c0,0.7,0.5,1.3,1.1,1.5
	c0.1,0,0.1,0.1,0.1,0.1l0,0.9c0,0.1,0,0.1-0.1,0.1l-0.7,0.4c-0.1,0-0.1,0-0.2,0c-0.3-0.3-0.7-0.5-1.1-0.5c-0.8,0-1.5,0.7-1.5,1.5
	c0,0.8,0.7,1.5,1.5,1.5c0.8,0,1.5-0.7,1.5-1.5c0-0.1,0-0.3-0.1-0.4c0-0.1,0-0.1,0.1-0.2l0.8-0.4c0.1,0,0.1,0,0.2,0l0.7,0.4
	c0.1,0,0.1,0.1,0.1,0.2c0,0.1-0.1,0.3-0.1,0.4c0,0.8,0.7,1.5,1.5,1.5c0.8,0,1.5-0.7,1.5-1.5C15.7,16.9,15.1,16.2,14.3,16.2z"/>
<path class="st5" d="M11.3,18.6c-0.3,0.6-1,1.1-1.8,1.1c-1.1,0-2-0.9-2-2c0-1.1,0.9-2,2-2c0.5,0,1,0.2,1.3,0.5l0.4-0.2l0-0.5
	c-0.5-0.4-1.1-0.6-1.7-0.6c-1.5,0-2.8,1.2-2.8,2.8s1.2,2.8,2.8,2.8c0.9,0,1.7-0.4,2.2-1C11.5,19.2,11.4,18.9,11.3,18.6z"/>
<path class="st5" d="M11.9,10.9c-1.5,0-2.8,1.2-2.8,2.8c0,0.4,0.1,0.7,0.2,1c0.1,0,0.2,0,0.2,0c0.2,0,0.5,0,0.7,0.1
	c-0.2-0.3-0.3-0.7-0.3-1.1c0-1.1,0.9-2,2-2c1.1,0,2,0.9,2,2c0,0.9-0.6,1.6-1.4,1.9l0,0.5l0.4,0.2c1-0.4,1.8-1.4,1.8-2.6
	C14.7,12.1,13.4,10.9,11.9,10.9z"/>
<path class="st5" d="M14.6,15c-0.1,0.3-0.3,0.5-0.5,0.8c0.1,0,0.1,0,0.2,0c1.1,0,2,0.9,2,2c0,1.1-0.9,2-2,2c-1.1,0-2-0.9-2-2
	c0-0.1,0-0.3,0-0.4l-0.4-0.2l-0.4,0.2c0,0.1,0,0.3,0,0.4c0,1.5,1.2,2.8,2.8,2.8c1.5,0,2.8-1.2,2.8-2.8C17,16.3,16,15.1,14.6,15z"/>
</svg>
