<?xml version="1.0" encoding="utf-8"?>
<!-- Generator: Adobe Illustrator 24.0.2, SVG Export Plug-In . SVG Version: 6.00 Build 0)  -->
<svg version="1.1" id="ic_unlocked" shape-rendering="geometricPrecision"
	 xmlns="http://www.w3.org/2000/svg" xmlns:xlink="http://www.w3.org/1999/xlink" x="0px" y="0px" viewBox="0 0 24 24"
	 style="enable-background:new 0 0 24 24;" xml:space="preserve">
<style type="text/css">
	.st0{fill:#303C42;}
	.st1{fill:#F2F2F2;}
	.st2{fill:#006DF0;}
	.st3{fill:#5AA6F2;}
	.st4{fill:#03488C;}
	.st5{fill:#FFFFFF;}
</style>
<g>
	<g>
		<path class="st0" d="M19.1,9.2h-1.3V7.5c0-3.3-2.7-6-6-6s-6,2.7-6,6v0.4c0,0.2,0.2,0.4,0.4,0.4H8c0.2,0,0.4-0.2,0.4-0.4V7.5
			c0-1.9,1.5-3.4,3.4-3.4s3.4,1.5,3.4,3.4v1.7H4.5c-0.2,0-0.4,0.2-0.4,0.4v10.7c0,0.9,0.8,1.7,1.7,1.7h12c0.9,0,1.7-0.8,1.7-1.7V9.7
			C19.5,9.4,19.4,9.2,19.1,9.2z"/>
		<path class="st1" d="M11.8,3.2c-2.4,0-4.3,1.9-4.3,4.3H6.7c0-2.8,2.3-5.1,5.1-5.1S17,4.7,17,7.5v1.7h-0.9V7.5
			C16.1,5.1,14.2,3.2,11.8,3.2z"/>
		<path class="st2" d="M18.7,20.4c0,0.5-0.4,0.9-0.9,0.9h-12c-0.5,0-0.9-0.4-0.9-0.9V10.1h13.7V20.4z"/>
		<path class="st3" d="M6.7,20.4V10.1H5v10.3c0,0.5,0.4,0.9,0.9,0.9h1.5C7,21.2,6.7,20.8,6.7,20.4z"/>
		<path class="st4" d="M17,10.1v10.3c0,0.5-0.3,0.9-0.6,0.9h1.5c0.5,0,0.9-0.4,0.9-0.9V10.1L17,10.1L17,10.1z"/>
	</g>
	<g>
		<path class="st5" d="M14.1,15.8c-0.4,0-0.7,0.2-1,0.4c0,0-0.1,0.1-0.2,0l-0.7-0.4c0,0-0.1-0.1-0.1-0.1l0-0.8c0-0.1,0-0.1,0.1-0.1
			c0.6-0.2,1-0.7,1-1.3c0-0.8-0.6-1.4-1.4-1.4c-0.8,0-1.4,0.6-1.4,1.4c0,0.6,0.4,1.2,1,1.3c0.1,0,0.1,0.1,0.1,0.1l0,0.8
			c0,0.1,0,0.1-0.1,0.1L11,16.2c-0.1,0-0.1,0-0.2,0c-0.3-0.3-0.6-0.4-1-0.4c-0.8,0-1.4,0.6-1.4,1.4c0,0.8,0.6,1.4,1.4,1.4
			c0.8,0,1.4-0.6,1.4-1.4c0-0.1,0-0.3-0.1-0.4c0-0.1,0-0.1,0.1-0.2l0.7-0.4c0,0,0.1,0,0.2,0l0.7,0.4c0.1,0,0.1,0.1,0.1,0.2
			c0,0.1-0.1,0.2-0.1,0.4c0,0.8,0.6,1.4,1.4,1.4c0.8,0,1.4-0.6,1.4-1.4C15.5,16.4,14.9,15.8,14.1,15.8z"/>
		<path class="st5" d="M11.4,18c-0.3,0.6-0.9,1-1.6,1c-1,0-1.8-0.8-1.8-1.8s0.8-1.8,1.8-1.8c0.5,0,0.9,0.2,1.2,0.5l0.3-0.2l0-0.5
			c-0.4-0.3-1-0.5-1.6-0.5c-1.4,0-2.6,1.1-2.6,2.6s1.1,2.6,2.6,2.6c0.8,0,1.5-0.4,2-1C11.6,18.5,11.5,18.3,11.4,18z"/>
		<path class="st5" d="M12,10.8c-1.4,0-2.6,1.1-2.6,2.6c0,0.3,0.1,0.7,0.2,1c0.1,0,0.2,0,0.2,0c0.2,0,0.4,0,0.6,0.1
			c-0.2-0.3-0.3-0.6-0.3-1c0-1,0.8-1.8,1.8-1.8c1,0,1.8,0.8,1.8,1.8c0,0.8-0.5,1.5-1.3,1.7l0,0.4l0.4,0.2c1-0.4,1.6-1.3,1.6-2.4
			C14.5,12,13.4,10.8,12,10.8z"/>
		<path class="st5" d="M14.5,14.6c-0.1,0.3-0.3,0.5-0.5,0.7c0.1,0,0.1,0,0.2,0c1,0,1.8,0.8,1.8,1.8S15.1,19,14.1,19
			c-1,0-1.8-0.8-1.8-1.8c0-0.1,0-0.3,0-0.4L12,16.6l-0.4,0.2c0,0.1,0,0.2,0,0.4c0,1.4,1.1,2.6,2.6,2.6c1.4,0,2.6-1.1,2.6-2.6
			C16.7,15.9,15.7,14.8,14.5,14.6z"/>
	</g>
</g>
</svg>
