<?xml version="1.0" encoding="utf-8"?>
<!-- Generator: Adobe Illustrator 24.0.2, SVG Export Plug-In . SVG Version: 6.00 Build 0)  -->
<svg version="1.1" id="ic_light_theme" shape-rendering="geometricPrecision"
	 xmlns="http://www.w3.org/2000/svg" xmlns:xlink="http://www.w3.org/1999/xlink" x="0px" y="0px" viewBox="0 0 24 24"
	 style="enable-background:new 0 0 24 24;" xml:space="preserve">
<style type="text/css">
	.st0{fill:#FFFFFF;}
</style>
<g>
	<path class="st0" d="M10.6,21.6l-0.5-1c0,0-0.2-2.6-0.2-2.8c0-0.2-0.3-2.7-0.4-2.8c0-0.1-1.2-1.3-1.2-1.4c0-0.1-1.8-3.1-1.8-3.1
		s0.1-2.1,0.1-2.2c0-0.1,1.4-2.8,1.7-3c0.3-0.2,2.4-1.6,2.4-1.6S12.9,4,13.1,4c0.1,0.1,2.3,1,2.5,1.1c0.2,0.1,1.4,1.8,1.4,1.9
		c0,0.2,0.4,2.7,0.4,2.8c0,0.1-0.4,2.3-0.4,2.5c0,0.1-1.6,1.8-1.6,1.8l-1,1.5L14,17.7c0,0-0.1,2.7-0.1,2.8c0,0.1-0.6,1.1-0.7,1.1
		s-1,0.2-1,0.2L10.6,21.6z"/>
	<path d="M16.2,5.3c-1.1-1.1-2.6-1.7-4.2-1.8c-1.6,0-3.1,0.6-4.3,1.7C6.6,6.4,6,7.9,6,9.5c0,1.7,0.7,3.4,2,4.5
		c0.9,0.8,1.5,2,1.5,3.2v3c0,1.1,0.9,2.1,2.1,2.1h0.7c1.1,0,2.1-0.9,2.1-2.1v-3c0-1.3,0.5-2.4,1.5-3.2c1.3-1.1,2.1-2.8,2.1-4.5
		C17.9,7.9,17.3,6.4,16.2,5.3z M11.9,12.5h-0.3c-0.2,0-0.3-0.1-0.3-0.3c0-0.2,0.1-0.3,0.3-0.3c0.2,0,0.3,0.1,0.3,0.3V12.5z M11.9,15
		c0.2,0,0.4,0.2,0.4,0.4v1.4h-0.8v-1.4C11.5,15.2,11.7,15,11.9,15z M13.5,17.7v0.6h-3.2v-0.6H13.5z M10.3,19.1h3.2v0.6h-3.2V19.1z
		 M12.3,21.4h-0.7c-0.5,0-1-0.4-1.2-0.8h3.1C13.3,21.1,12.8,21.4,12.3,21.4z M15.3,13.4c-1,0.9-1.6,2.1-1.7,3.5h-0.3v-1.4
		c0-0.4-0.2-0.7-0.4-0.9c0,0,0,0,0,0v-1.4c0.3-0.2,0.6-0.6,0.6-1.1v-0.6c0-0.9-0.7-1.6-1.6-1.6H11c-0.2,0-0.4,0.2-0.4,0.4
		c0,0.2,0.2,0.4,0.4,0.4h0.8c0.4,0,0.8,0.4,0.8,0.8v0.2c-0.2-0.2-0.5-0.4-0.8-0.4c-0.6,0-1.1,0.5-1.1,1.1c0,0.6,0.5,1.1,1.1,1.1h0.3
		v0.8c-0.7,0-1.3,0.6-1.3,1.3v1.4h-0.3c-0.1-1.3-0.7-2.6-1.8-3.5c-1.1-1-1.8-2.4-1.8-3.9c0-1.4,0.5-2.7,1.5-3.6c1-1,2.3-1.5,3.7-1.5
		c2.8,0,5,2.3,5,5.1C17.1,11,16.4,12.4,15.3,13.4z"/>
	<path d="M12,5.6L12,5.6c-0.2,0-0.4,0.2-0.4,0.4c0,0.2,0.2,0.4,0.4,0.4h0h0c0.2,0,0.4-0.2,0.4-0.4C12.4,5.8,12.3,5.6,12,5.6z"/>
	<path d="M13.9,6.1c-0.2-0.1-0.5,0-0.6,0.2c-0.1,0.2,0,0.5,0.2,0.6c1,0.5,1.6,1.6,1.6,2.7c0,0.2,0.2,0.4,0.4,0.4
		c0.2,0,0.4-0.2,0.4-0.4C15.9,8.1,15.1,6.7,13.9,6.1z"/>
	<path d="M11.9,2.8c0.2,0,0.4-0.2,0.4-0.4V1.2c0-0.2-0.2-0.4-0.4-0.4c-0.2,0-0.4,0.2-0.4,0.4v1.1C11.5,2.6,11.7,2.8,11.9,2.8z"/>
	<path d="M20.2,9.1h-1.1c-0.2,0-0.4,0.2-0.4,0.4s0.2,0.4,0.4,0.4h1.1c0.2,0,0.4-0.2,0.4-0.4S20.4,9.1,20.2,9.1z"/>
	<path d="M4.8,9.1H3.7c-0.2,0-0.4,0.2-0.4,0.4s0.2,0.4,0.4,0.4h1.1c0.2,0,0.4-0.2,0.4-0.4S5,9.1,4.8,9.1z"/>
	<path d="M17.3,14.2c-0.2-0.2-0.4-0.2-0.6,0c-0.2,0.2-0.2,0.4,0,0.6l0.8,0.8c0.1,0.1,0.2,0.1,0.3,0.1s0.2,0,0.3-0.1
		c0.2-0.2,0.2-0.4,0-0.6L17.3,14.2z"/>
	<path d="M6.6,4.7c0.1,0.1,0.2,0.1,0.3,0.1s0.2,0,0.3-0.1c0.2-0.2,0.2-0.4,0-0.6L6.4,3.3C6.2,3.2,6,3.2,5.8,3.3
		c-0.2,0.2-0.2,0.4,0,0.6L6.6,4.7z"/>
	<path d="M17.5,3.3l-0.8,0.8c-0.2,0.2-0.2,0.4,0,0.6c0.1,0.1,0.2,0.1,0.3,0.1c0.1,0,0.2,0,0.3-0.1l0.8-0.8c0.2-0.2,0.2-0.4,0-0.6
		C17.9,3.2,17.7,3.2,17.5,3.3z"/>
	<path d="M6.6,14.2L5.8,15c-0.2,0.2-0.2,0.4,0,0.6c0.1,0.1,0.2,0.1,0.3,0.1c0.1,0,0.2,0,0.3-0.1l0.8-0.8c0.2-0.2,0.2-0.4,0-0.6
		C7,14.1,6.8,14.1,6.6,14.2z"/>
</g>
</svg>
