<?xml version="1.0" encoding="utf-8"?>
<!-- Generator: Adobe Illustrator 24.0.2, SVG Export Plug-In . SVG Version: 6.00 Build 0)  -->
<svg version="1.1" id="Capa_1" xmlns="http://www.w3.org/2000/svg" xmlns:xlink="http://www.w3.org/1999/xlink" x="0px" y="0px"
	 viewBox="0 0 24 24" style="enable-background:new 0 0 24 24;" xml:space="preserve">
<style type="text/css">
	.st0{fill:#FFFFFF;}
	.st1{fill:#D8D8D8;}
	.st2{fill:#7C7C7C;}
	.st3{fill:#474747;}
	.st4{fill:#F5F5F5;}
	.st5{fill:#A4C400;}
	.st6{fill:#90AC00;}
	.st7{fill:#039BF9;}
</style>
<title>Artboard</title>
<desc>Created with Sketch.</desc>
<g id="_x31_34---Copy-Files_2_">
	<g id="Icons_2_" transform="translate(1 1)">
		<path id="Shape_83_" class="st0" d="M10.4,14.7v1.7c0,0.1,0.1,0.2,0.2,0.2h3.7c0.1,0,0.2,0.1,0.2,0.2v0.5c0,0.1,0,0.1,0.1,0.2
			c0.1,0,0.1,0,0.2,0l1.1-0.8v1.3c0,0.7-0.6,1.3-1.3,1.3H2.3c-0.7,0-1.3-0.6-1.3-1.3V5.4h3c0.7,0,1.3-0.6,1.3-1.3v-3h9.1
			c0.7,0,1.3,0.6,1.3,1.3v12.1l-1.1-0.8c-0.1,0-0.1,0-0.2,0c-0.1,0-0.1,0.1-0.1,0.2v0.5c0,0.1-0.1,0.2-0.2,0.2h-3.7
			C10.5,14.5,10.4,14.6,10.4,14.7L10.4,14.7z"/>
		<g>
			<path id="Shape_82_" class="st1" d="M14.3,16.6h-1c0.1,0,0.2,0.1,0.2,0.2v0.5c0,0.1,0,0.1,0.1,0.2c0.1,0,0.1,0,0.2,0l0.7-0.6
				v-0.1C14.4,16.6,14.4,16.6,14.3,16.6L14.3,16.6z"/>
			<path id="Shape_81_" class="st1" d="M10.6,14.5h-1c-0.1,0-0.2,0.1-0.2,0.2v1.7c0,0.1,0.1,0.2,0.2,0.2h1c-0.1,0-0.2-0.1-0.2-0.2
				v-1.7C10.4,14.6,10.5,14.5,10.6,14.5z"/>
			<path id="Shape_80_" class="st1" d="M14.8,17.9c0,0.7-0.6,1.3-1.3,1.3h1c0.7,0,1.3-0.6,1.3-1.3v-1.3l-1,0.8V17.9z"/>
			<path id="Shape_79_" class="st1" d="M13.4,13.9v0.5c0,0.1-0.1,0.2-0.2,0.2h1c0.1,0,0.2-0.1,0.2-0.2v-0.1l-0.7-0.6
				c-0.1,0-0.1,0-0.2,0C13.5,13.7,13.4,13.8,13.4,13.9L13.4,13.9z"/>
			<path id="Shape_78_" class="st1" d="M14.4,1.1h-1c0.7,0,1.3,0.6,1.3,1.3v11.4l1,0.8V2.4C15.8,1.7,15.2,1.1,14.4,1.1z"/>
		</g>
		<path id="Shape_77_" class="st2" d="M5.3,1.1v3c0,0.7-0.6,1.3-1.3,1.3H1L5.3,1.1z"/>
		<path id="Shape_76_" d="M12.4,2.7h-2c-0.2,0-0.3-0.2-0.3-0.3c0-0.2,0.2-0.3,0.3-0.3h2c0.2,0,0.3,0.2,0.3,0.3
			C12.8,2.6,12.6,2.7,12.4,2.7z"/>
		<path id="Shape_75_" d="M14.4,2.7h-0.7c-0.2,0-0.3-0.2-0.3-0.3c0-0.2,0.2-0.3,0.3-0.3h0.7c0.2,0,0.3,0.2,0.3,0.3
			C14.8,2.6,14.6,2.7,14.4,2.7z"/>
		<path id="Shape_74_" class="st2" d="M20.5,3.8v15.5c0,0.7-0.6,1.3-1.3,1.3H7c-0.7,0-1.3-0.6-1.3-1.3h8.8c0.7,0,1.3-0.6,1.3-1.3
			v-1.3l1.2-0.9c0,0,0.1-0.1,0.1-0.1s0-0.1-0.1-0.1l-1.2-0.9V2.4h3.4C19.9,2.4,20.5,3,20.5,3.8z"/>
		<path id="Shape_73_" class="st3" d="M19.2,2.4h-1c0.7,0,1.3,0.6,1.3,1.3v15.5c0,0.7-0.6,1.3-1.3,1.3h1c0.7,0,1.3-0.6,1.3-1.3V3.8
			C20.5,3,19.9,2.4,19.2,2.4z"/>
		<path id="Shape_72_" class="st4" d="M17.1,4.1h-1.3c-0.2,0-0.3-0.2-0.3-0.3c0-0.2,0.2-0.3,0.3-0.3h1.3c0.2,0,0.3,0.2,0.3,0.3
			S17.3,4.1,17.1,4.1z"/>
		<path id="Shape_71_" class="st4" d="M19.2,4.1h-0.7c-0.2,0-0.3-0.2-0.3-0.3c0-0.2,0.2-0.3,0.3-0.3h0.7c0.2,0,0.3,0.2,0.3,0.3
			S19.3,4.1,19.2,4.1z"/>
		<path id="Shape_70_" class="st5" d="M17,15.7l-1.2,0.9l-1.1,0.8c-0.1,0-0.1,0-0.2,0c-0.1,0-0.1-0.1-0.1-0.2v-0.5
			c0-0.1-0.1-0.2-0.2-0.2h-3.7c-0.1,0-0.2-0.1-0.2-0.2v-1.7c0-0.1,0.1-0.2,0.2-0.2h3.7c0.1,0,0.2-0.1,0.2-0.2v-0.5
			c0-0.1,0-0.1,0.1-0.2c0.1,0,0.1,0,0.2,0l1.1,0.8l1.2,0.9c0,0,0.1,0.1,0.1,0.1C17,15.6,17,15.7,17,15.7L17,15.7z"/>
		<path id="Shape_69_" class="st6" d="M17,15.4l-1.2-0.9l-1.1-0.8c-0.1,0-0.1,0-0.2,0s-0.1,0.1-0.1,0.2v0.4l0.3,0.3l1.2,0.9
			c0,0,0.1,0.1,0.1,0.1c0,0.1,0,0.1-0.1,0.1l-1.2,0.9l-0.3,0.3v0.4c0,0.1,0,0.1,0.1,0.2s0.1,0,0.2,0l1.1-0.8l1.2-0.9
			c0,0,0.1-0.1,0.1-0.1S17,15.5,17,15.4L17,15.4z"/>
	</g>
	<g id="Layer_2_2_">
		<path id="Shape_68_" class="st7" d="M4.7,8.5h3C7.9,8.5,8,8.3,8,8.1S7.9,7.8,7.7,7.8h-3c-0.2,0-0.3,0.2-0.3,0.3S4.5,8.5,4.7,8.5z"
			/>
		<path id="Shape_67_" class="st7" d="M9.4,8.5h5.1c0.2,0,0.3-0.2,0.3-0.3s-0.2-0.3-0.3-0.3H9.4C9.2,7.8,9,7.9,9,8.1
			S9.2,8.5,9.4,8.5z"/>
		<path id="Shape_66_" class="st7" d="M14.4,9.5h-3c-0.2,0-0.3,0.2-0.3,0.3s0.2,0.3,0.3,0.3h3c0.2,0,0.3-0.2,0.3-0.3
			S14.6,9.5,14.4,9.5z"/>
		<path id="Shape_65_" class="st7" d="M4.7,10.2h5.1c0.2,0,0.3-0.2,0.3-0.3S9.9,9.5,9.7,9.5H4.7c-0.2,0-0.3,0.2-0.3,0.3
			S4.5,10.2,4.7,10.2z"/>
		<path id="Shape_64_" class="st7" d="M8,11.5c0-0.2-0.2-0.3-0.3-0.3h-3c-0.2,0-0.3,0.2-0.3,0.3s0.2,0.3,0.3,0.3h3
			C7.9,11.8,8,11.7,8,11.5z"/>
		<path id="Shape_63_" class="st7" d="M14.4,11.2H9.4c-0.2,0-0.3,0.2-0.3,0.3s0.2,0.3,0.3,0.3h5.1c0.2,0,0.3-0.2,0.3-0.3
			S14.6,11.2,14.4,11.2z"/>
		<path id="Shape_62_" class="st7" d="M20.2,3.1h-3.1c-0.2-0.8-0.9-1.3-1.7-1.3H6.3c-0.1,0-0.2,0-0.2,0.1L1.7,6.2
			C1.7,6.3,1.6,6.4,1.6,6.4v12.5c0,0.9,0.8,1.7,1.7,1.7h3.1C6.5,21.4,7.2,22,8,22h12.1c0.9,0,1.7-0.8,1.7-1.7V4.8
			C21.8,3.8,21.1,3.1,20.2,3.1z M15.8,17.9v-0.2c0-0.3-0.2-0.5-0.5-0.5h-3.5v-1.3h3.5c0.3,0,0.5-0.2,0.5-0.5v-0.2l1.8,1.3L15.8,17.9
			z M6,2.9v2.2c0,0.6-0.5,1-1,1H2.8L6,2.9z M2.3,18.9V6.8H5c0.9,0,1.7-0.8,1.7-1.7V2.4h8.8c0.6,0,1,0.5,1,1v11.5l-0.5-0.4
			c-0.2-0.1-0.4-0.1-0.5,0c-0.2,0.1-0.3,0.3-0.3,0.5v0.3h-3.5c-0.3,0-0.5,0.2-0.5,0.5v1.7c0,0.3,0.2,0.5,0.5,0.5h3.5v0.3
			c0,0.2,0.1,0.4,0.3,0.5c0.2,0.1,0.4,0.1,0.5,0l0.5-0.4v0.7c0,0.6-0.5,1-1,1H3.3C2.7,19.9,2.3,19.5,2.3,18.9z M21.2,20.3
			c0,0.6-0.5,1-1,1H8c-0.4,0-0.8-0.3-0.9-0.7h8.4c0.9,0,1.7-0.8,1.7-1.7v-1.2l1-0.8c0.1-0.1,0.2-0.2,0.2-0.4c0-0.2-0.1-0.3-0.2-0.4
			l-1-0.8v-2.2h2c0.2,0,0.3-0.2,0.3-0.3s-0.2-0.3-0.3-0.3h-2v-1h2c0.2,0,0.3-0.2,0.3-0.3s-0.2-0.3-0.3-0.3h-2v-1h2
			c0.2,0,0.3-0.2,0.3-0.3c0-0.2-0.2-0.3-0.3-0.3h-2V3.7h3c0.6,0,1,0.5,1,1V20.3z"/>
	</g>
</g>
</svg>
