<?xml version="1.0" encoding="utf-8"?>
<!-- Generator: Adobe Illustrator 24.0.1, SVG Export Plug-In . SVG Version: 6.00 Build 0)  -->
<svg version="1.1" id="ic_staking_on" shape-rendering="geometricPrecision"
	 xmlns="http://www.w3.org/2000/svg" xmlns:xlink="http://www.w3.org/1999/xlink" x="0px" y="0px" viewBox="0 0 24 24"
	 style="enable-background:new 0 0 24 24;" xml:space="preserve">
<style type="text/css">
	.st0{fill:#FFFFFF;}
</style>
<g>
	<path class="st0" d="M12,1.2c-6.1,0-11,4.9-11,11s4.9,11,11,11s11-4.9,11-11S18,1.2,12,1.2z M12,20.9c-4.9,0-8.8-3.9-8.8-8.8
		S7.1,3.4,12,3.4s8.8,3.9,8.8,8.8S16.8,20.9,12,20.9z"/>
	<path class="st0" d="M12,3.9c-4.6,0-8.3,3.7-8.3,8.3s3.7,8.3,8.3,8.3s8.3-3.7,8.3-8.3S16.5,3.9,12,3.9z M12,19.4
		c-4,0-7.3-3.3-7.3-7.3S7.9,4.9,12,4.9s7.3,3.3,7.3,7.3S16,19.4,12,19.4z"/>
</g>
</svg>
