<?xml version="1.0" encoding="utf-8"?>
<!-- Generator: Adobe Illustrator 24.0.2, SVG Export Plug-In . SVG Version: 6.00 Build 0)  -->
<svg version="1.1" id="ic_close" xmlns="http://www.w3.org/2000/svg" xmlns:xlink="http://www.w3.org/1999/xlink" x="0px" y="0px"
	 viewBox="0 0 20 20" style="enable-background:new 0 0 20 20;" xml:space="preserve">
<style type="text/css">
	.st0{fill:#474747;}
</style>
<title>ic-close-white</title>
<desc>Created with Sketch.</desc>
<g>
	<path class="st0" d="M3.9,4.3C3.2,4.9,3.2,6,3.9,6.6l3.7,3.7l-3.7,3.7c-0.6,0.6-0.6,1.7,0,2.3c0.6,0.6,1.7,0.6,2.3,0l3.7-3.7
		l3.7,3.7c0.6,0.6,1.7,0.6,2.3,0c0.6-0.6,0.6-1.7,0-2.3l-3.7-3.7L16,6.6c0.6-0.6,0.6-1.7,0-2.3s-1.7-0.6-2.3,0L9.9,8L6.2,4.3
		C5.6,3.6,4.5,3.6,3.9,4.3z"/>
</g>
</svg>
