<?xml version="1.0" encoding="utf-8"?>
<!-- Generator: Adobe Illustrator 24.0.1, SVG Export Plug-In . SVG Version: 6.00 Build 0)  -->
<svg version="1.1" id="Capa_1" xmlns="http://www.w3.org/2000/svg" xmlns:xlink="http://www.w3.org/1999/xlink" x="0px" y="0px"
	 viewBox="0 0 24 24" style="enable-background:new 0 0 24 24;" xml:space="preserve">
<style type="text/css">
	.st0{fill:#FFFFFF;}
</style>
<title>Artboard</title>
<desc>Created with Sketch.</desc>
<g>
	<path class="st0" d="M6,8.8c0-4.1,2.4-6.4,6.3-6.4c3.7,0,5.9,1.7,5.9,4.7c0,3.9-4,4.6-4,7.5h-4c0-4,3.1-4.3,3.1-6.7
		c0-1-0.5-1.4-1.5-1.4c-1.1,0-1.7,0.7-1.7,2.2H6z M14.7,18.8c0,1.5-1,2.5-2.5,2.5c-1.5,0-2.5-1-2.5-2.5c0-1.5,1-2.5,2.5-2.5
		C13.7,16.3,14.7,17.4,14.7,18.8z"/>
</g>
</svg>
