<?xml version="1.0" encoding="utf-8"?>
<!-- Generator: Adobe Illustrator 24.0.1, SVG Export Plug-In . SVG Version: 6.00 Build 0)  -->
<svg version="1.1" id="Capa_1" xmlns="http://www.w3.org/2000/svg" xmlns:xlink="http://www.w3.org/1999/xlink" x="0px" y="0px"
	 viewBox="0 0 40 40" style="enable-background:new 0 0 40 40;" xml:space="preserve">
<style type="text/css">
	.st0{fill-rule:evenodd;clip-rule:evenodd;fill:#4E7EDD;}
</style>
<title>ComboBox</title>
<desc>Created with Sketch.</desc>
<path id="Path_18879" class="st0" d="M17,32.4l-6.9-6.5c-0.4-0.4-0.4-1-0.1-1.4l0,0c0.4-0.4,1-0.4,1.4-0.1l5.6,5.2l5.6-5.2
	c0.4-0.4,1-0.4,1.4,0.1v0c0.4,0.4,0.4,1-0.1,1.4L17,32.4z"/>
<path id="Path_18879_1_" class="st0" d="M17,7.6l6.9,6.5c0.4,0.4,0.4,1,0.1,1.4l0,0c-0.4,0.4-1,0.4-1.4,0.1L17,10.4l-5.6,5.2
	c-0.4,0.4-1,0.4-1.4-0.1l0,0c-0.4-0.4-0.4-1,0.1-1.4L17,7.6z"/>
</svg>
