<?xml version="1.0" encoding="utf-8"?>
<!-- Generator: Adobe Illustrator 24.0.2, SVG Export Plug-In . SVG Version: 6.00 Build 0)  -->
<svg version="1.1" id="ic_check" xmlns="http://www.w3.org/2000/svg" xmlns:xlink="http://www.w3.org/1999/xlink" x="0px" y="0px"
	 viewBox="0 0 16 16" style="enable-background:new 0 0 16 16;" xml:space="preserve">
<style type="text/css">
	.st0{fill:#D3D3D3;}
	.st1{fill:#FFFFFF;}
</style>
<circle class="st0" cx="7.9" cy="8" r="6.7"/>
<path class="st1" d="M11,5.7c0.2,0.2,0.2,0.6,0,0.8l-3.7,3.7c-0.2,0.2-0.6,0.2-0.8,0L4.7,8.5c-0.2-0.2-0.2-0.6,0-0.8
	c0.2-0.2,0.6-0.2,0.8,0l1.4,1.4l3.3-3.3C10.4,5.5,10.8,5.5,11,5.7z M15.1,8c0,3.9-3.2,7.2-7.2,7.2S0.7,11.9,0.7,8S4,0.8,7.9,0.8
	C11.8,0.8,15.1,4.1,15.1,8z M14,8c0-3.3-2.7-6.1-6.1-6.1C4.6,1.9,1.8,4.7,1.8,8s2.7,6.1,6.1,6.1S14,11.3,14,8z"/>
</svg>
