<?xml version="1.0" encoding="utf-8"?>
<!-- Generator: Adobe Illustrator 24.0.1, SVG Export Plug-In . SVG Version: 6.00 Build 0)  -->
<svg version="1.1" id="ic_mint_on" shape-rendering="geometricPrecision"
	 xmlns="http://www.w3.org/2000/svg" xmlns:xlink="http://www.w3.org/1999/xlink" x="0px" y="0px" viewBox="0 0 24 24"
	 style="enable-background:new 0 0 24 24;" xml:space="preserve">
<style type="text/css">
	.st0{fill:#7C7687;}
</style>
<path id="Path_18964" class="st0" d="M7.1,5h9.9C17.5,5,18,5.5,18,6.1v1.5l-0.8-0.8l-1.4,1.4l3.2,3.2l3.2-3.2l-1.4-1.4L20,7.6v-2
	C20,4.2,18.8,3,17.4,3H6.6C5.2,3,4,4.2,4,5.6V9c0,0.6,0.4,1,1,1h0c0.6,0,1-0.4,1-1V6.1C6,5.5,6.5,5,7.1,5z"/>
<path id="Path_18965" class="st0" d="M12,8c-2.2,0-4,1.8-4,4s1.8,4,4,4s4-1.8,4-4S14.2,8,12,8z"/>
<path id="Path_18966" class="st0" d="M16.9,19H7.1C6.5,19,6,18.5,6,17.9v-1.5l0.8,0.8l1.4-1.4L5,12.6l-3.2,3.2l1.4,1.4L4,16.4v2
	C4,19.8,5.2,21,6.6,21h10.8c1.4,0,2.6-1.2,2.6-2.6V15c0-0.6-0.4-1-1-1h0c-0.6,0-1,0.4-1,1v2.9C18,18.5,17.5,19,16.9,19z"/>
</svg>
