<?xml version="1.0" encoding="utf-8"?>
<!-- Generator: Adobe Illustrator 24.0.2, SVG Export Plug-In . SVG Version: 6.00 Build 0)  -->
<svg version="1.1" id="Capa_1" xmlns="http://www.w3.org/2000/svg" xmlns:xlink="http://www.w3.org/1999/xlink" x="0px" y="0px"
	 viewBox="0 0 30 30" style="enable-background:new 0 0 30 30;" xml:space="preserve">
<style type="text/css">
	.st0{fill:#0087E2;}
</style>
<title>ic-arrow-down</title>
<desc>Created with Sketch.</desc>
<path class="st0" d="M21,16.1H18V8.8c0-0.8-0.7-1.5-1.5-1.5h-2.8c-0.8,0-1.5,0.7-1.5,1.5v7.3H9.3l5.8,6.8L21,16.1z"/>
<path d="M15.1,24.4l-8-9.3h4.1V9.6c0-1.8,1.4-3.2,3.2-3.2h1.4c1.8,0,3.2,1.4,3.2,3.2v5.6h4.1L15.1,24.4z M11.4,17.1l3.7,4.3l3.7-4.3
	h-1.8V9.9c0-0.9-0.7-1.6-1.6-1.6h-0.8c-0.9,0-1.6,0.7-1.6,1.6v7.2H11.4z"/>
</svg>
