<?xml version="1.0" encoding="utf-8"?>
<!-- Generator: Adobe Illustrator 24.0.2, SVG Export Plug-In . SVG Version: 6.00 Build 0)  -->
<svg version="1.1" id="ic_error_sync" shape-rendering="geometricPrecision"
	 xmlns="http://www.w3.org/2000/svg" xmlns:xlink="http://www.w3.org/1999/xlink" x="0px" y="0px" viewBox="0 0 24 24"
	 style="enable-background:new 0 0 24 24;" xml:space="preserve">
<style type="text/css">
	.st0{fill:#898989;}
	.st1{fill:#5E5E5E;}
	.st2{fill:#FFFFFF;}
</style>
<circle class="st0" cx="12" cy="11.5" r="10.3"/>
<path class="st1" d="M13.5,20.3C7.8,20.3,3.2,15.7,3.2,10c0-2.5,0.9-4.7,2.3-6.5c-2.3,1.9-3.8,4.8-3.8,8c0,5.7,4.6,10.3,10.3,10.3
	c3.2,0,6.1-1.5,8-3.8C18.2,19.4,16,20.3,13.5,20.3L13.5,20.3z"/>
<path class="st2" d="M12,0.5c-6.1,0-11,4.9-11,11s4.9,11,11,11s11-4.9,11-11S18.1,0.5,12,0.5L12,0.5z M12,21.1
	c-5.3,0-9.6-4.3-9.6-9.6S6.8,1.9,12,1.9s9.6,4.3,9.6,9.6S17.3,21.1,12,21.1z"/>
<path class="st2" d="M7.9,7.3c1.5-1.5,3.6-2,5.6-1.5L12.6,6c-0.4,0.1-0.7,0.5-0.6,0.9c0.1,0.4,0.4,0.7,0.8,0.7c0,0,0.1,0,0.1,0
	l3.7-0.6c0.3,0,0.5-0.2,0.6-0.5c0.1-0.3,0-0.6-0.2-0.8l-2.5-2.8c-0.3-0.3-0.8-0.3-1.1-0.1C13.1,3,13,3.5,13.3,3.8l0.4,0.4
	c-2.4-0.6-5.1,0.1-6.9,2c-2.1,2.1-2.7,5.2-1.7,7.9c0.1,0.3,0.4,0.5,0.7,0.5c0.1,0,0.2,0,0.3-0.1c0.4-0.2,0.6-0.6,0.4-1
	C5.7,11.4,6.3,9,7.9,7.3L7.9,7.3z"/>
<path class="st2" d="M18,8.4c-0.4,0.2-0.6,0.6-0.4,1c0.8,2.2,0.3,4.6-1.3,6.3c-1.5,1.5-3.6,2-5.6,1.5l0.9-0.2
	c0.4-0.1,0.7-0.5,0.6-0.9c-0.1-0.4-0.5-0.7-0.9-0.6l-3.7,0.6c-0.3,0-0.5,0.2-0.6,0.5c-0.1,0.3,0,0.6,0.2,0.8l2.5,2.8
	c0.2,0.2,0.4,0.3,0.6,0.3c0.2,0,0.4-0.1,0.5-0.2c0.3-0.3,0.3-0.8,0.1-1.1l-0.4-0.4c0.6,0.1,1.1,0.2,1.7,0.2c1.9,0,3.8-0.7,5.3-2.2
	c2.1-2.1,2.7-5.2,1.7-7.9C18.8,8.4,18.4,8.2,18,8.4z"/>
</svg>
