<?xml version="1.0" encoding="utf-8"?>
<!-- Generator: Adobe Illustrator 24.0.2, SVG Export Plug-In . SVG Version: 6.00 Build 0)  -->
<svg version="1.1" id="ic_zpiv" xmlns="http://www.w3.org/2000/svg" xmlns:xlink="http://www.w3.org/1999/xlink" x="0px" y="0px"
	 viewBox="0 0 24 24" style="enable-background:new 0 0 24 24;" xml:space="preserve">
<style type="text/css">
	.st0{fill:#0E65E5;}
	.st1{fill:#FFFFFF;}
	.st2{fill:#D7E9FF;}
	.st3{fill:#94C1FF;}
</style>
<g>
	<path class="st0" d="M21.8,12.8c0,5.6-4.5,10.1-10.1,10.1S1.6,18.4,1.6,12.8S6.1,2.7,11.7,2.7C17.3,2.7,21.8,7.2,21.8,12.8z"/>
	<path class="st0" d="M11.7,23.2c-5.8,0-10.4-4.7-10.4-10.4C1.3,7,6,2.3,11.7,2.3S22.2,7,22.2,12.8C22.2,18.5,17.5,23.2,11.7,23.2z
		 M11.7,3C6.3,3,2,7.4,2,12.7c0,5.4,4.4,9.7,9.7,9.7c5.4,0,9.7-4.4,9.7-9.7C21.5,7.4,17.1,3,11.7,3z"/>
	<path class="st1" d="M21.8,11.7c0,5.6-4.5,10.1-10.1,10.1S1.6,17.3,1.6,11.7S6.1,1.6,11.7,1.6C17.3,1.6,21.8,6.1,21.8,11.7z"/>
	<path class="st0" d="M11.7,22.1c-5.8,0-10.4-4.7-10.4-10.4S6,1.2,11.7,1.2s10.4,4.7,10.4,10.4S17.5,22.1,11.7,22.1z M11.7,2
		C6.3,2,2,6.4,2,11.7c0,5.4,4.4,9.7,9.7,9.7c5.4,0,9.7-4.4,9.7-9.7C21.5,6.3,17.1,2,11.7,2z"/>
	<path class="st2" d="M21.8,11.7c0,5.6-4.5,10.1-10.1,10.1S1.6,17.3,1.6,11.7S6.1,1.6,11.7,1.6C17.3,1.6,21.8,6.1,21.8,11.7z"/>
	<path class="st0" d="M11.7,22.1c-5.8,0-10.4-4.7-10.4-10.4S6,1.2,11.7,1.2s10.4,4.7,10.4,10.4S17.5,22.1,11.7,22.1z M11.7,2
		C6.3,2,2,6.4,2,11.7c0,5.4,4.4,9.7,9.7,9.7c5.4,0,9.7-4.4,9.7-9.7C21.5,6.3,17.1,2,11.7,2z"/>
	<path class="st3" d="M20.2,11.7c0,4.7-3.8,8.5-8.5,8.5s-8.5-3.8-8.5-8.5S7,3.2,11.7,3.2C16.4,3.2,20.2,7,20.2,11.7z"/>
	<path class="st0" d="M11.7,20.5c-4.9,0-8.8-4-8.8-8.8s4-8.8,8.8-8.8c4.9,0,8.8,4,8.8,8.8S16.6,20.5,11.7,20.5z M11.7,3.6
		c-4.5,0-8.1,3.6-8.1,8.1s3.6,8.1,8.1,8.1s8.1-3.6,8.1-8.1S16.2,3.6,11.7,3.6z"/>
	<path class="st3" d="M14,10.7l-1.1,1.1"/>
	<path class="st3" d="M14,11.9l-1.1-1.1"/>
	<path class="st3" d="M10.8,10.7l-1.1,1.1"/>
	<path class="st3" d="M10.8,11.9l-1.1-1.1"/>
	<path class="st2" d="M12.5,5.2c0,0.4-0.3,0.7-0.7,0.7s-0.7-0.3-0.7-0.7c0-0.4,0.3-0.7,0.7-0.7C12.1,4.5,12.5,4.8,12.5,5.2z"/>
	<path class="st0" d="M11.7,6.3c-0.6,0-1.1-0.5-1.1-1.1s0.5-1.1,1.1-1.1s1.1,0.5,1.1,1.1S12.3,6.3,11.7,6.3z M11.7,4.8
		c-0.2,0-0.4,0.2-0.4,0.4c0,0.2,0.2,0.4,0.4,0.4s0.4-0.2,0.4-0.4C12.1,5,11.9,4.8,11.7,4.8z"/>
	<path class="st2" d="M12.1,18.5c0,0.4-0.3,0.7-0.7,0.7s-0.7-0.3-0.7-0.7c0-0.4,0.3-0.7,0.7-0.7S12.1,18.1,12.1,18.5z"/>
	<path class="st0" d="M11.4,19.6c-0.6,0-1.1-0.5-1.1-1.1s0.5-1.1,1.1-1.1s1.1,0.5,1.1,1.1C12.5,19.1,12,19.6,11.4,19.6z M11.4,18.2
		c-0.2,0-0.4,0.2-0.4,0.4c0,0.2,0.2,0.4,0.4,0.4s0.4-0.2,0.4-0.4C11.7,18.3,11.6,18.2,11.4,18.2z"/>
	<path class="st2" d="M6,11.7c0,0.4-0.3,0.7-0.7,0.7c-0.4,0-0.7-0.3-0.7-0.7S4.9,11,5.3,11C5.7,11,6,11.3,6,11.7z"/>
	<path class="st0" d="M5.3,12.8c-0.6,0-1.1-0.5-1.1-1.1s0.5-1.1,1.1-1.1s1.1,0.5,1.1,1.1C6.3,12.3,5.9,12.8,5.3,12.8z M5.3,11.3
		c-0.2,0-0.4,0.2-0.4,0.4s0.2,0.4,0.4,0.4c0.2,0,0.4-0.2,0.4-0.4C5.6,11.5,5.5,11.3,5.3,11.3z"/>
	<path class="st2" d="M18.9,11.7c0,0.4-0.3,0.7-0.7,0.7c-0.4,0-0.7-0.3-0.7-0.7s0.3-0.7,0.7-0.7C18.6,11,18.9,11.3,18.9,11.7z"/>
	<path class="st0" d="M18.2,12.8c-0.6,0-1.1-0.5-1.1-1.1s0.5-1.1,1.1-1.1s1.1,0.5,1.1,1.1S18.8,12.8,18.2,12.8z M18.2,11.3
		c-0.2,0-0.4,0.2-0.4,0.4s0.2,0.4,0.4,0.4s0.4-0.2,0.4-0.4S18.4,11.3,18.2,11.3z"/>
	<path class="st2" d="M7.8,6.5c-0.3-0.3-0.7-0.3-1,0s-0.3,0.7,0,1s0.7,0.3,1,0C8.1,7.2,8.1,6.7,7.8,6.5z"/>
	<path class="st0" d="M7.3,8C7,8,6.7,7.9,6.5,7.7C6.1,7.2,6.1,6.6,6.6,6.2C6.8,6,7,5.9,7.3,5.9S7.9,6,8.1,6.2C8.3,6.4,8.4,6.7,8.4,7
		S8.3,7.6,8.1,7.8C7.8,7.9,7.6,8,7.3,8z M7.3,6.6c-0.1,0-0.2,0-0.2,0.1C6.9,6.8,6.9,7,7,7.2c0.1,0.1,0.4,0.2,0.5,0
		C7.6,7.1,7.7,7.1,7.7,7s0-0.2-0.1-0.3C7.5,6.6,7.4,6.6,7.3,6.6L7.3,6.6z"/>
	<path class="st2" d="M16.7,15.9c-0.3-0.3-0.7-0.3-1,0c-0.3,0.3-0.3,0.7,0,1c0.3,0.3,0.7,0.3,1,0C16.9,16.7,17,16.2,16.7,15.9z"/>
	<path class="st0" d="M16.2,17.5C16.2,17.5,16.1,17.5,16.2,17.5c-0.3,0-0.6-0.1-0.8-0.3c-0.2-0.2-0.3-0.5-0.3-0.8s0.1-0.6,0.3-0.8
		c0.4-0.4,1.1-0.4,1.5,0.1l0,0c0.4,0.4,0.4,1.1-0.1,1.5C16.7,17.4,16.4,17.5,16.2,17.5z M16.2,16.1c-0.1,0-0.2,0-0.2,0.1
		c-0.2,0-0.2,0.1-0.2,0.2s0,0.2,0.1,0.3c0.1,0.1,0.2,0.1,0.3,0.1c0.1,0,0.2,0,0.3-0.1c0.1-0.1,0.2-0.4,0-0.5
		C16.4,16.1,16.3,16.1,16.2,16.1z"/>
	<path class="st2" d="M7.8,15.9c-0.3-0.3-0.7-0.3-1,0s-0.3,0.7,0,1s0.7,0.3,1,0C8.1,16.6,8.1,16.2,7.8,15.9z"/>
	<path class="st0" d="M7.3,17.5c-0.3,0-0.5-0.1-0.7-0.3c-0.4-0.4-0.5-1.1-0.1-1.5c0.4-0.4,1.1-0.5,1.5-0.1c0.2,0.2,0.3,0.5,0.3,0.8
		S8.2,17,8,17.2C7.9,17.4,7.6,17.5,7.3,17.5L7.3,17.5z M7.3,16.1c-0.1,0-0.2,0-0.3,0.1c-0.1,0.1-0.1,0.4,0,0.5s0.2,0.1,0.3,0.1
		c0.1,0,0.2,0,0.3-0.1l0,0c0.1-0.1,0.1-0.2,0.1-0.3c0-0.1,0-0.2-0.1-0.3C7.5,16.1,7.4,16.1,7.3,16.1z"/>
	<path class="st3" d="M16.7,6.4c-0.3-0.3-0.7-0.3-1,0c-0.3,0.3-0.3,0.7,0,1s0.7,0.3,1,0C17,7.1,16.9,6.7,16.7,6.4z"/>
	<path class="st0" d="M16.2,8c-0.3,0-0.5-0.1-0.7-0.3c-0.2-0.2-0.3-0.5-0.3-0.8s0.1-0.6,0.3-0.8c0.1-0.1,0.3-0.2,0.6-0.2
		c0.3,0,0.6,0.1,0.8,0.3c0.4,0.4,0.5,1.1,0.1,1.5C16.7,7.9,16.5,8,16.2,8z M16.7,7.4L16.7,7.4L16.7,7.4z M16.2,6.6L16.2,6.6
		c-0.1,0-0.2,0-0.3,0.1c-0.1,0.1-0.1,0.2-0.1,0.3s0,0.2,0.1,0.3c0.1,0.1,0.4,0.1,0.5,0s0.1-0.4,0-0.5C16.3,6.6,16.3,6.6,16.2,6.6z"
		/>
	<path class="st1" d="M19.4,3.9L22,4.7l-2.6,0.8l-0.6,2.4l-0.6-2.4l-2.6-0.8l2.6-0.8l0.6-2.4L19.4,3.9z"/>
	<path class="st0" d="M18.7,8.2L18.7,8.2c-0.2,0-0.3-0.1-0.3-0.3l-0.6-2.2L15.5,5c-0.2,0-0.3-0.2-0.3-0.3c0-0.2,0.1-0.3,0.3-0.3
		l2.3-0.8l0.6-2.2c0-0.2,0.2-0.3,0.3-0.3l0,0c0.2,0,0.3,0.1,0.3,0.3l0.6,2.2L22,4.3c0.2,0,0.3,0.2,0.3,0.3c0,0.2-0.1,0.3-0.3,0.3
		l-2.4,0.7L19,7.8C19,8.1,18.9,8.2,18.7,8.2z M16.8,4.6L18.2,5c0.1,0,0.2,0.1,0.2,0.3l0.3,1.1L19,5.3c0-0.1,0.1-0.2,0.2-0.3l1.4-0.4
		l-1.4-0.4c-0.1,0-0.2-0.1-0.2-0.3l-0.2-1L18.5,4c0,0.1-0.1,0.2-0.2,0.3L16.8,4.6z"/>
	<path class="st0" d="M14.4,10.2c0-0.2,0.1-0.4,0.1-0.6c0-1.5-1.3-2.8-2.8-2.8S8.9,8.1,8.9,9.6c0,0.2,0,0.4,0.1,0.6
		c-1.1,0.4-1.9,1.4-1.9,2.7c0,1.5,1.3,2.8,2.8,2.8c0.7,0,1.4-0.3,1.9-0.7c0.5,0.5,1.2,0.7,1.9,0.7c1.5,0,2.8-1.3,2.8-2.8
		C16.4,11.7,15.6,10.6,14.4,10.2z M8.6,11.1c-0.1,0-0.1,0.1-0.2,0.1C8.5,11.1,8.5,11.1,8.6,11.1z M8,11.7c0-0.1,0.1-0.1,0.1-0.2
		C8.1,11.5,8,11.6,8,11.7c-0.1,0.1-0.1,0.2-0.2,0.3C7.9,11.8,7.9,11.8,8,11.7z M7.7,12.2c0,0.1,0,0.1-0.1,0.2
		C7.6,12.4,7.7,12.3,7.7,12.2z M7.6,13.4c0,0.1,0,0.1,0.1,0.2C7.7,13.5,7.6,13.4,7.6,13.4z M8,14.2c-0.1-0.1-0.1-0.2-0.2-0.3
		C7.9,14,7.9,14.1,8,14.2c0,0.1,0.1,0.1,0.1,0.2C8.1,14.3,8,14.2,8,14.2z M8.2,14.4c0,0.1,0.1,0.1,0.2,0.2
		C8.3,14.5,8.2,14.5,8.2,14.4z M8.4,14.6c0.1,0,0.1,0.1,0.2,0.1C8.5,14.7,8.5,14.7,8.4,14.6z M10.8,14.9c0.1-0.1,0.3-0.2,0.4-0.3
		l0.1-0.1l0,0l-0.1,0.1C11.1,14.7,10.9,14.8,10.8,14.9z"/>
	<g>
		<g>
			<path class="st1" d="M13.6,11.7c-0.3,0-0.7,0.1-0.9,0.4c0,0-0.1,0-0.2,0l-0.6-0.4l-0.1-0.1v-0.7c0-0.1,0-0.1,0.1-0.1
				c0.5-0.1,0.9-0.6,0.9-1.2c0-0.7-0.5-1.2-1.2-1.2s-1.2,0.5-1.2,1.2c0,0.6,0.4,1,0.9,1.2c0.1,0,0.1,0.1,0.1,0.1v0.7
				c0,0,0,0.1-0.1,0.1l-0.5,0.4c0,0-0.1,0-0.2,0c-0.2-0.2-0.5-0.4-0.9-0.4c-0.7,0-1.2,0.6-1.2,1.2c0,0.7,0.5,1.2,1.2,1.2
				s1.2-0.5,1.2-1.2c0-0.1,0-0.2,0-0.3s0-0.1,0.1-0.1l0.6-0.4h0.1l0.6,0.3l0.1,0.1c0,0.1,0,0.2,0,0.3c0,0.7,0.5,1.2,1.2,1.2
				s1.2-0.5,1.2-1.2C14.8,12.3,14.3,11.7,13.6,11.7z"/>
		</g>
		<g>
			<path class="st1" d="M11.2,13.7c-0.3,0.5-0.8,0.8-1.4,0.8c-0.9,0-1.6-0.7-1.6-1.6c0-0.9,0.7-1.6,1.6-1.6c0.4,0,0.8,0.2,1.1,0.4
				l0.3-0.1v-0.4c-0.4-0.3-0.9-0.5-1.4-0.5c-1.2,0-2.2,1-2.2,2.2s1,2.2,2.2,2.2c0.7,0,1.3-0.3,1.7-0.8
				C11.4,14.1,11.3,13.9,11.2,13.7z"/>
		</g>
		<g>
			<path class="st1" d="M11.7,7.4c-1.2,0-2.2,1-2.2,2.2c0,0.3,0.1,0.6,0.2,0.8c0.1,0,0.1,0,0.2,0c0.2,0,0.4,0,0.5,0.1
				c-0.2-0.3-0.3-0.6-0.3-0.9c0-0.8,0.7-1.6,1.6-1.6s1.6,0.7,1.6,1.6c0,0.7-0.5,1.3-1.1,1.5v0.4l0.3,0.2c0.8-0.3,1.4-1.1,1.4-2.1
				C13.9,8.4,12.9,7.4,11.7,7.4z"/>
		</g>
		<g>
			<path class="st1" d="M13.9,10.7c-0.1,0.2-0.3,0.4-0.4,0.6h0.1c0.9,0,1.6,0.7,1.6,1.6c0,0.9-0.7,1.6-1.6,1.6
				c-0.9,0-1.6-0.7-1.6-1.6c0-0.1,0-0.2,0-0.3l-0.3-0.1l-0.3,0.2c0,0.1,0,0.2,0,0.3c0,1.2,1,2.2,2.2,2.2s2.2-1,2.2-2.2
				S15,10.8,13.9,10.7z"/>
		</g>
	</g>
</g>
</svg>
