<?xml version="1.0" encoding="utf-8"?>
<!-- Generator: Adobe Illustrator 24.0.2, SVG Export Plug-In . SVG Version: 6.00 Build 0)  -->
<svg version="1.1" id="ic-transaction-staked" xmlns="http://www.w3.org/2000/svg" xmlns:xlink="http://www.w3.org/1999/xlink"
	 x="0px" y="0px" viewBox="0 0 24 24" style="enable-background:new 0 0 24 24;" xml:space="preserve">
<style type="text/css">
	.st0{fill:#FDFEFF;}
	.st1{fill:#A9B1B7;}
	.st2{fill:#6C7175;}
</style>
<path class="st0" d="M14.2,6.4c-0.1-0.1-0.1-0.2-0.2-0.2L8.2,2.8C8,2.7,7.7,2.7,7.5,2.8L1.7,6.2C1.6,6.3,1.5,6.3,1.4,6.4l6.4,3.7
	L14.2,6.4z"/>
<path class="st1" d="M1.4,6.4C1.4,6.5,1.3,6.7,1.3,6.8v6.7c0,0.2,0.1,0.5,0.3,0.6l5.8,3.4c0.1,0.1,0.2,0.1,0.3,0.1v-7.4L1.4,6.4z"/>
<path class="st2" d="M7.8,10.1v7.4c0.1,0,0.2,0,0.3-0.1l3.3-1.9v-2.7c0-0.2,0.1-0.4,0.3-0.5l2.6-1.5v-4c0-0.1,0-0.2-0.1-0.3
	L7.8,10.1z"/>
<path class="st1" d="M11.5,12.5c-0.1,0.1-0.1,0.2-0.1,0.3v5.8c0,0.2,0.1,0.4,0.3,0.5l5,2.9C16.8,22,16.9,22,17,22v-6.3L11.5,12.5z"
	/>
<path class="st0" d="M22.5,12.5c-0.1-0.1-0.1-0.2-0.2-0.2l-5-2.9c-0.2-0.1-0.4-0.1-0.6,0l-5,2.9c-0.1,0.1-0.2,0.1-0.2,0.2l5.5,3.2
	L22.5,12.5z"/>
<path class="st2" d="M17,15.7V22c0.1,0,0.2,0,0.3-0.1l5-2.9c0.2-0.1,0.3-0.3,0.3-0.5v-5.8c0-0.1,0-0.2-0.1-0.3L17,15.7z"/>
<path d="M7.8,14.5c-0.2,0-0.3,0.1-0.3,0.3v0.8c0,0.2,0.1,0.3,0.3,0.3c0.2,0,0.3-0.1,0.3-0.3v-0.8C8.2,14.7,8,14.5,7.8,14.5L7.8,14.5
	z"/>
<path d="M8.2,10.3l4.6-2.7C13,7.6,13,7.4,12.9,7.2c-0.1-0.2-0.3-0.2-0.4-0.1L7.8,9.8L3.2,7.1C3,7,2.9,7.1,2.8,7.2s0,0.3,0.1,0.4
	l4.6,2.7v3c0,0.2,0.1,0.3,0.3,0.3c0.2,0,0.3-0.1,0.3-0.3V10.3z"/>
<path d="M15.4,11.8l1.8-1.1c0.2-0.1,0.2-0.3,0.1-0.4c-0.1-0.2-0.3-0.2-0.4-0.1L15,11.3c-0.2,0.1-0.2,0.3-0.1,0.4
	C15,11.9,15.2,11.9,15.4,11.8z"/>
<path d="M17,20.8c0.2,0,0.3-0.1,0.3-0.3v-4.6l4-2.3c0.2-0.1,0.2-0.3,0.1-0.4C21.3,13,21.1,13,21,13.1l-4,2.3l-4-2.3
	c-0.2-0.1-0.3,0-0.4,0.1c-0.1,0.2,0,0.3,0.1,0.4l4,2.3v4.6C16.7,20.6,16.9,20.8,17,20.8z"/>
<path d="M1.5,14.4l5.8,3.4c0.3,0.2,0.7,0.2,1,0l2.8-1.6v2.5c0,0.3,0.2,0.6,0.5,0.8l5,2.9c0.3,0.2,0.6,0.2,0.9,0l5-2.9
	c0.3-0.2,0.5-0.5,0.5-0.8v-2.2c0-0.2-0.1-0.3-0.3-0.3c-0.2,0-0.3,0.1-0.3,0.3v2.2c0,0.1,0,0.2-0.1,0.2l-5,2.9c-0.1,0-0.2,0-0.3,0
	l-5-2.9c-0.1,0-0.1-0.1-0.1-0.2c0-0.7,0-4.3,0-5.8c0-0.1,0-0.2,0.1-0.2c0.9-0.5,3.4-2,5-2.9c0.1,0,0.2,0,0.3,0l5,2.9
	c0.1,0,0.1,0.1,0.1,0.2v2.1c0,0.2,0.1,0.3,0.3,0.3c0.2,0,0.3-0.1,0.3-0.3v-2.1c0-0.3-0.2-0.6-0.5-0.8l-5-2.9c-0.3-0.2-0.6-0.2-0.9,0
	l-1.9,1.1V6.8c0-0.4-0.2-0.7-0.5-0.9L8.3,2.6c-0.3-0.2-0.7-0.2-1,0L6.1,3.3C6,3.3,5.9,3.5,6,3.7c0.1,0.2,0.3,0.2,0.4,0.1l1.2-0.7
	C7.8,3,7.9,3,8,3.1l5.8,3.4C13.9,6.5,14,6.6,14,6.8v3.9L11.6,12c-0.3,0.2-0.5,0.5-0.5,0.8v2.5L8,17.2c-0.1,0.1-0.2,0.1-0.4,0
	l-5.8-3.4c-0.1-0.1-0.2-0.2-0.2-0.3V6.8c0-0.1,0.1-0.2,0.2-0.3l3.3-1.9c0.2-0.1,0.2-0.3,0.1-0.4C5.2,4,5,3.9,4.8,4L1.5,5.9
	C1.2,6.1,1,6.4,1,6.8v6.7C1,13.9,1.2,14.2,1.5,14.4z"/>
<path d="M3.5,6.4c0.1,0.2,0.3,0.2,0.4,0.1l1.9-1.1C6,5.3,6,5.1,5.9,5C5.8,4.8,5.6,4.8,5.5,4.8L3.6,5.9C3.4,6,3.4,6.2,3.5,6.4z"/>
</svg>
