<?xml version="1.0" encoding="utf-8"?>
<!-- Generator: Adobe Illustrator 24.0.1, SVG Export Plug-In . SVG Version: 6.00 Build 0)  -->
<svg version="1.1" id="Capa_1" xmlns="http://www.w3.org/2000/svg" xmlns:xlink="http://www.w3.org/1999/xlink" x="0px" y="0px"
	 viewBox="0 0 30 22" style="enable-background:new 0 0 30 22;" xml:space="preserve">
<style type="text/css">
	.st0{fill:#2A5DEA;}
</style>
<title>Clear Purple</title>
<desc>Created with Sketch.</desc>
<g>
	<path class="st0" d="M17.1,16.7L7.4,7.1c-0.3-0.3-0.3-0.8,0-1l0,0c0.3-0.3,0.8-0.3,1,0l9.6,9.6c0.3,0.3,0.3,0.8,0,1l0,0
		C17.8,17,17.4,17,17.1,16.7z"/>
	<path class="st0" d="M7.4,15.7l9.6-9.6c0.3-0.3,0.8-0.3,1,0l0,0c0.3,0.3,0.3,0.8,0,1l-9.6,9.6c-0.3,0.3-0.8,0.3-1,0l0,0
		C7.2,16.4,7.2,16,7.4,15.7z"/>
</g>
</svg>
