<?xml version="1.0" encoding="utf-8"?>
<!-- Generator: Adobe Illustrator 24.0.2, SVG Export Plug-In . SVG Version: 6.00 Build 0)  -->
<svg version="1.1" id="ic_check" shape-rendering="geometricPrecision"
	 xmlns="http://www.w3.org/2000/svg" xmlns:xlink="http://www.w3.org/1999/xlink" x="0px" y="0px" viewBox="0 0 16 16"
	 style="enable-background:new 0 0 16 16;" xml:space="preserve">
<style type="text/css">
	.st0{fill:#FFFFFF;}
</style>
<path class="st0" d="M11.4,5.8c0.2,0.2,0.2,0.6,0,0.8l-3.8,3.8c-0.2,0.2-0.6,0.2-0.8,0L4.9,8.6C4.7,8.4,4.7,8,4.9,7.8
	c0.2-0.2,0.6-0.2,0.8,0l1.4,1.4l3.4-3.4C10.8,5.6,11.2,5.6,11.4,5.8z M15.5,8.1c0,4-3.3,7.3-7.3,7.3c-4,0-7.3-3.3-7.3-7.3
	c0-4,3.3-7.3,7.3-7.3C12.2,0.8,15.5,4.1,15.5,8.1z M14.4,8.1c0-3.4-2.8-6.2-6.2-6.2C4.8,1.9,2,4.7,2,8.1c0,3.4,2.8,6.2,6.2,6.2
	C11.6,14.3,14.4,11.5,14.4,8.1z"/>
</svg>
