<?xml version="1.0" encoding="utf-8"?>
<!-- Generator: Adobe Illustrator 24.0.2, SVG Export Plug-In . SVG Version: 6.00 Build 0)  -->
<svg version="1.1" id="Capa_1" xmlns="http://www.w3.org/2000/svg" xmlns:xlink="http://www.w3.org/1999/xlink" x="0px" y="0px"
	 viewBox="0 0 40 40" style="enable-background:new 0 0 40 40;" xml:space="preserve">
<style type="text/css">
	.st0{fill:#3D3D3D;}
</style>
<title>ComboBox</title>
<desc>Created with Sketch.</desc>
<path class="st0" d="M26,15.4c0,0.6-0.2,1.2-0.7,1.6L25,17.4c-0.4,0.4-1,0.7-1.6,0.7c-0.6,0-1.2-0.2-1.6-0.7l-5.5-5.6l-5.5,5.6
	c-0.4,0.4-1,0.7-1.6,0.7c-0.6,0-1.2-0.2-1.6-0.7L7.2,17c-0.4-0.4-0.7-1-0.7-1.6c0-0.6,0.2-1.2,0.7-1.6l7.5-7.3
	c0.4-0.4,1-0.7,1.6-0.7c0.6,0,1.2,0.2,1.6,0.7l2.3,2.2c0.3,0.3,0.3,0.8,0,1.1c-0.3,0.3-0.8,0.3-1.1,0l-2.3-2.2
	c-0.3-0.3-0.8-0.3-1.1,0l-7.5,7.3c-0.1,0.1-0.2,0.3-0.2,0.5c0,0.2,0.1,0.4,0.2,0.5l0.4,0.4c0.1,0.1,0.3,0.2,0.5,0.2
	c0.2,0,0.4-0.1,0.5-0.2l6-6.1c0.1-0.1,0.3-0.2,0.5-0.2c0.2,0,0.4,0.1,0.5,0.2l6,6.2c0.1,0.1,0.3,0.2,0.5,0.2c0.2,0,0.4-0.1,0.5-0.2
	l0.3-0.3c0.1-0.1,0.2-0.3,0.2-0.5c0-0.2-0.1-0.4-0.2-0.5c0,0,0,0,0,0l-2.5-2.4c-0.3-0.3-0.3-0.8,0-1.1c0.3-0.3,0.8-0.3,1.1,0
	l2.5,2.4C25.8,14.2,26,14.8,26,15.4C26,15.4,26,15.4,26,15.4z"/>
<title>ComboBox</title>
<desc>Created with Sketch.</desc>
<path class="st0" d="M6.5,22.2c0-0.6,0.2-1.2,0.7-1.6l0.3-0.3c0.4-0.4,1-0.7,1.6-0.7c0.6,0,1.2,0.2,1.6,0.7l5.5,5.6l5.5-5.6
	c0.4-0.4,1-0.7,1.6-0.7s1.2,0.2,1.6,0.7l0.4,0.4c0.4,0.4,0.7,1,0.7,1.6c0,0.6-0.2,1.2-0.7,1.6l-7.5,7.3c-0.4,0.4-1,0.7-1.6,0.7
	c-0.6,0-1.2-0.2-1.6-0.7l-2.3-2.2c-0.3-0.3-0.3-0.8,0-1.1c0.3-0.3,0.8-0.3,1.1,0l2.3,2.2c0.3,0.3,0.8,0.3,1.1,0l7.5-7.3
	c0.1-0.1,0.2-0.3,0.2-0.5c0-0.2-0.1-0.4-0.2-0.5l-0.4-0.4c-0.1-0.1-0.3-0.2-0.5-0.2c-0.2,0-0.4,0.1-0.5,0.2l-6,6.1
	c-0.1,0.1-0.3,0.2-0.5,0.2c-0.2,0-0.4-0.1-0.5-0.2l-6-6.2c-0.1-0.1-0.3-0.2-0.5-0.2c-0.2,0-0.4,0.1-0.5,0.2l-0.3,0.3
	c-0.1,0.1-0.2,0.3-0.2,0.5c0,0.2,0.1,0.4,0.2,0.5c0,0,0,0,0,0l2.5,2.4c0.3,0.3,0.3,0.8,0,1.1c-0.3,0.3-0.8,0.3-1.1,0l-2.5-2.4
	C6.8,23.4,6.6,22.8,6.5,22.2C6.5,22.2,6.5,22.2,6.5,22.2z"/>
</svg>
