<?xml version="1.0" encoding="utf-8"?>
<!-- Generator: Adobe Illustrator 24.0.2, SVG Export Plug-In . SVG Version: 6.00 Build 0)  -->
<svg version="1.1" id="Capa_1" xmlns="http://www.w3.org/2000/svg" xmlns:xlink="http://www.w3.org/1999/xlink" x="0px" y="0px"
	 viewBox="0 0 24 24" style="enable-background:new 0 0 24 24;" xml:space="preserve">
<style type="text/css">
	.st0{fill:#3D3D3D;}
</style>
<path class="st0" d="M14.7,2.3c0.6,0,1.2,0.2,1.6,0.7l0.3,0.3c0.4,0.4,0.7,1,0.7,1.6s-0.2,1.2-0.7,1.6L11,12l5.7,5.5
	c0.4,0.4,0.6,1,0.6,1.6c0,0.6-0.2,1.2-0.7,1.6l-0.3,0.4c-0.4,0.4-1,0.7-1.6,0.7s-1.2-0.2-1.6-0.7l-7.3-7.5c-0.4-0.4-0.7-1-0.7-1.6
	s0.2-1.2,0.7-1.6L8,8.1c0.3-0.3,0.8-0.3,1.1,0c0.3,0.3,0.3,0.8,0,1.1l-2.2,2.3c-0.3,0.3-0.3,0.8,0,1.1l7.3,7.4
	c0.1,0.2,0.3,0.2,0.5,0.3c0.2,0,0.4-0.1,0.5-0.2l0.4-0.4c0.1-0.2,0.2-0.4,0.2-0.6c0-0.2-0.1-0.4-0.2-0.5l-6.1-6
	c-0.1-0.1-0.2-0.3-0.2-0.5s0.1-0.4,0.2-0.5l6.2-6c0.1-0.1,0.2-0.3,0.2-0.5s-0.1-0.4-0.2-0.5l-0.4-0.5C15.2,4,15,3.9,14.8,3.9
	S14.4,4,14.3,4.1l0,0l-2.4,2.5c-0.3,0.3-0.8,0.3-1.1,0s-0.3-0.8,0-1.1L13.2,3C13.6,2.6,14.1,2.3,14.7,2.3L14.7,2.3z"/>
</svg>
