<?xml version="1.0" encoding="utf-8"?>
<!-- Generator: Adobe Illustrator 24.0.2, SVG Export Plug-In . SVG Version: 6.00 Build 0)  -->
<svg version="1.1" id="Capa_1" xmlns="http://www.w3.org/2000/svg" xmlns:xlink="http://www.w3.org/1999/xlink" x="0px" y="0px"
	 viewBox="0 0 30 22" style="enable-background:new 0 0 30 22;" xml:space="preserve">
<style type="text/css">
	.st0{fill:#009DF4;}
	.st1{fill:#FFFFFF;}
</style>
<title>Clear Purple</title>
<desc>Created with Sketch.</desc>
<circle class="st0" cx="11.7" cy="11" r="7.9"/>
<g>
	<path class="st1" d="M11.8,2.3c-0.4,0-0.6,0.3-0.6,0.6s0.3,0.6,0.6,0.6c4,0,7.2,3.2,7.2,7.2s-3.2,7.2-7.2,7.2s-7.2-3.2-7.2-7.2
		c0-0.4-0.3-0.6-0.6-0.6s-0.6,0.3-0.6,0.6c0,4.7,3.8,8.5,8.5,8.5s8.5-3.8,8.5-8.5S16.5,2.3,11.8,2.3z"/>
	<path class="st1" d="M8.4,4.4c0.1,0,0.2,0,0.2,0L9.5,4C9.8,3.8,10,3.5,9.8,3.1C9.7,2.8,9.3,2.7,9,2.8L8.1,3.2
		C7.8,3.3,7.7,3.7,7.8,4C7.9,4.2,8.1,4.4,8.4,4.4z"/>
	<path class="st1" d="M5.9,6.2c0.2,0,0.3-0.1,0.5-0.2l0.7-0.7c0.2-0.2,0.2-0.7,0-0.9c-0.2-0.2-0.7-0.2-0.9,0L5.5,5.1
		c-0.2,0.2-0.2,0.7,0,0.9C5.6,6.2,5.8,6.2,5.9,6.2z"/>
	<path class="st1" d="M4.1,8.8c0.1,0,0.2,0,0.2,0c0.3,0,0.5-0.1,0.6-0.4l0.4-0.9c0.1-0.3,0-0.7-0.3-0.8c-0.3-0.1-0.7,0-0.8,0.3
		L3.8,8C3.7,8.3,3.8,8.7,4.1,8.8z"/>
	<path class="st1" d="M8.3,7.3c-0.4,0.4-0.4,1,0,1.4l2.2,2.2L8.3,13c-0.4,0.4-0.4,1,0,1.4c0.4,0.4,1,0.4,1.4,0l2.2-2.2l2.2,2.2
		c0.4,0.4,1,0.4,1.4,0c0.4-0.4,0.4-1,0-1.4l-2.2-2.2l2.2-2.2c0.4-0.4,0.4-1,0-1.4c-0.4-0.4-1-0.4-1.4,0l-2.2,2.2L9.7,7.3
		C9.3,6.9,8.7,6.9,8.3,7.3z"/>
</g>
</svg>
