<?xml version="1.0" encoding="utf-8"?>
<!-- Generator: Adobe Illustrator 24.0.2, SVG Export Plug-In . SVG Version: 6.00 Build 0)  -->
<svg version="1.1" id="ic_staking_off" shape-rendering="geometricPrecision"
	 xmlns="http://www.w3.org/2000/svg" xmlns:xlink="http://www.w3.org/1999/xlink" x="0px" y="0px" viewBox="0 0 24 24"
	 style="enable-background:new 0 0 24 24;" xml:space="preserve">
<style type="text/css">
	.st0{fill:#898989;}
	.st1{fill:#FFFFFF;}
	.st2{fill:#CF9E76;}
	.st3{fill:#E6E9ED;}
	.st4{fill:#666666;}
</style>
<g>
	<g>
		<g>
			<path class="st0" d="M12.7,13.1c0,0.4-0.3,0.6-0.6,0.6H3c-0.4,0-0.6-0.3-0.6-0.6V8.6c0-0.4,0.3-0.6,0.6-0.6h8.4
				c0,0.2,0.1,0.4,0.3,0.5l0.7,0.4c0.2,0.1,0.3,0.3,0.3,0.5v0.1c0,0.1-0.1,0.3-0.2,0.4L12.2,10c-0.1,0.1-0.2,0.2-0.2,0.4v0.3
				c0,0.1,0,0.2,0.1,0.3l0.4,0.5L12,11.8v0.1c0,0.3,0.2,0.5,0.5,0.5h0h0.1L12.7,13.1z"/>
		</g>
		<g>
			<path class="st0" d="M12.7,14.4v4.5c0,0.4-0.3,0.6-0.6,0.6H3c-0.4,0-0.6-0.3-0.6-0.6v-4.5c0-0.4,0.3-0.6,0.6-0.6h9
				C12.4,13.7,12.7,14,12.7,14.4z"/>
		</g>
		<g>
			<path class="st0" d="M2.4,7.3V2.8c0-0.4,0.3-0.6,0.6-0.6h9c0.4,0,0.6,0.3,0.6,0.6v3.9c0,0.2-0.1,0.4-0.3,0.5l-0.7,0.4
				c-0.2,0.1-0.3,0.3-0.3,0.5H3C2.7,7.9,2.4,7.6,2.4,7.3L2.4,7.3z"/>
		</g>
		<g>
			<path class="st1" d="M6.2,11.1h1.3v1.3H6.2V11.1z"/>
		</g>
		<g>
			<path class="st1" d="M3.7,11.1h1.3v1.3H3.7V11.1z"/>
		</g>
		<g>
			<path class="st1" d="M6.2,16.9h1.3v1.3H6.2V16.9z"/>
		</g>
		<g>
			<path class="st1" d="M3.7,16.9h1.3v1.3H3.7V16.9z"/>
		</g>
		<g>
			<path class="st2" d="M21,20.7c0.1,0.3-0.1,0.7-0.5,0.8c-0.1,0-0.1,0-0.1,0c-0.3,0-0.6-0.2-0.6-0.5l-2.5-10.5v0
				c0.4-0.1,0.8-0.2,1.2-0.3L21,20.7z"/>
		</g>
		<g>
			<path class="st3" d="M16.3,10.8l-3.5,1.6c-0.1,0-0.1,0-0.2,0c0,0,0,0,0,0c-0.3,0-0.5-0.2-0.5-0.5v-0.1l0.4-0.3l2.1-1.5
				c0.9-0.7,2-1.2,3.1-1.5c1.1-0.3,2.2-0.5,3.4-0.5c0.4,0,0.6,0.3,0.6,0.6v0.6c0,0.4-0.3,0.6-0.6,0.6h-0.2c-0.8,0-1.5,0.1-2.3,0.2v0
				c-0.4,0.1-0.8,0.2-1.2,0.3C17,10.5,16.6,10.7,16.3,10.8L16.3,10.8z"/>
		</g>
	</g>
	<g>
		<path d="M3.3,18.5h1.9v-1.9H3.3V18.5z M4,17.3h0.6v0.6H4V17.3z"/>
		<path d="M5.9,18.5h1.9v-1.9H5.9V18.5z M6.6,17.3h0.6v0.6H6.6V17.3z"/>
		<path d="M3.3,12.7h1.9v-1.9H3.3V12.7z M4,11.5h0.6v0.6H4V11.5z"/>
		<path d="M5.9,12.7h1.9v-1.9H5.9V12.7z M6.6,11.5h0.6v0.6H6.6V11.5z"/>
		<path d="M3.3,6.3H4v0.6H3.3V6.3z"/>
		<path d="M4.6,6.3h0.6v0.6H4.6V6.3z"/>
		<path d="M4.6,5h0.6v0.6H4.6V5z"/>
		<path d="M3.3,5H4v0.6H3.3V5z"/>
		<path d="M21.1,7.6c-2.4,0-4.7,0.7-6.6,2.1L12.6,11l-0.2-0.3c0,0,0-0.1,0-0.1v-0.3c0-0.1,0-0.1,0.1-0.1l0.3-0.3
			C12.9,9.7,13,9.5,13,9.3V9.2c0-0.3-0.2-0.6-0.5-0.8l-0.7-0.4c-0.1,0-0.1-0.1-0.1-0.2c0-0.1,0-0.1,0.1-0.2l0.7-0.4
			C12.8,7.2,13,6.9,13,6.6V2.8c0-0.5-0.4-1-1-1H3c-0.5,0-1,0.4-1,1v4.5c0,0.2,0.1,0.5,0.3,0.6C2.1,8.1,2,8.3,2,8.6v4.5
			c0,0.2,0.1,0.5,0.3,0.6C2.1,13.9,2,14.1,2,14.4v4.5c0,0.5,0.4,1,1,1h9c0.5,0,1-0.4,1-1v-4.5c0-0.2-0.1-0.5-0.3-0.6
			c0.2-0.2,0.3-0.4,0.3-0.6v-0.4l3.4-1.5c0.2-0.1,0.4-0.2,0.6-0.3L19.5,21c0.1,0.4,0.5,0.7,0.9,0.7c0.1,0,0.1,0,0.2,0
			c0.5-0.1,0.8-0.6,0.7-1.2l-2.4-10.2c0.6-0.1,1.3-0.2,1.9-0.2h0.2c0.5,0,1-0.4,1-1V8.6C22,8,21.6,7.6,21.1,7.6L21.1,7.6z M12.2,9
			c0.1,0,0.1,0.1,0.1,0.2v0.1c0,0.1,0,0.1-0.1,0.1L12,9.8c-0.2,0.2-0.2,0.4-0.2,0.6v0.3c0,0.2,0,0.3,0.1,0.5l0.2,0.3l-0.3,0.2v0.3
			c0,0.4,0.3,0.7,0.6,0.8v0.4c0,0.2-0.1,0.3-0.3,0.3H3c-0.2,0-0.3-0.1-0.3-0.3V8.6c0-0.2,0.1-0.3,0.3-0.3h8.1
			c0.1,0.2,0.2,0.3,0.4,0.4L12.2,9z M2.7,2.8c0-0.2,0.1-0.3,0.3-0.3h9c0.2,0,0.3,0.1,0.3,0.3v3.9c0,0.1,0,0.1-0.1,0.2l-0.7,0.4
			c-0.2,0.1-0.3,0.2-0.4,0.4H3c-0.2,0-0.3-0.1-0.3-0.3V2.8z M12.4,18.9c0,0.2-0.1,0.3-0.3,0.3H3c-0.2,0-0.3-0.1-0.3-0.3v-4.5
			C2.7,14.2,2.8,14,3,14h9c0.2,0,0.3,0.1,0.3,0.3V18.9z M20.7,20.7c0,0.2-0.1,0.3-0.2,0.4c-0.2,0-0.4-0.1-0.4-0.2l-2.4-10.2
			c0.2-0.1,0.4-0.1,0.6-0.2L20.7,20.7z M21.4,9.2c0,0.2-0.1,0.3-0.3,0.3h-0.2c-1.6,0-3.2,0.3-4.7,1l-3.5,1.6c-0.1,0.1-0.3,0-0.3-0.1
			l2.4-1.7c1.8-1.3,4-2,6.3-2c0.2,0,0.3,0.1,0.3,0.3V9.2z"/>
	</g>
</g>
<g>
	<circle class="st4" cx="13.2" cy="18.7" r="3.2"/>
	<path d="M16.8,18.7c0,2-1.6,3.6-3.6,3.6c-2,0-3.6-1.6-3.6-3.6c0-2,1.6-3.6,3.6-3.6C15.1,15.1,16.8,16.7,16.8,18.7z M16.2,18.7
		c0-1.7-1.4-3-3-3c-1.7,0-3,1.4-3,3c0,1.7,1.4,3,3,3C14.8,21.7,16.2,20.4,16.2,18.7z M14.3,19.1h-2.5c-0.2,0-0.3-0.1-0.3-0.3l0,0
		c0-0.2,0.1-0.3,0.3-0.3h2.5c0.2,0,0.3,0.1,0.3,0.3l0,0C14.7,18.9,14.5,19.1,14.3,19.1z"/>
</g>
</svg>
