<?xml version="1.0" encoding="utf-8"?>
<!-- Generator: Adobe Illustrator 24.0.2, SVG Export Plug-In . SVG Version: 6.00 Build 0)  -->
<svg version="1.1" id="Capa_1" shape-rendering="geometricPrecision"
	 xmlns="http://www.w3.org/2000/svg" xmlns:xlink="http://www.w3.org/1999/xlink" x="0px" y="0px" viewBox="0 0 24 24"
	 style="enable-background:new 0 0 24 24;" xml:space="preserve">
<style type="text/css">
	.st0{fill:#006DF0;}
	.st1{opacity:0.1;enable-background:new    ;}
	.st2{fill:#FFFFFF;}
</style>
<title>Top Bar Sync</title>
<desc>Created with Sketch.</desc>
<circle class="st0" cx="12" cy="12" r="10.3"/>
<path class="st1" d="M13.5,20.8c-5.7,0-10.3-4.6-10.3-10.3C3.2,8,4.1,5.8,5.5,4c-2.3,1.9-3.8,4.8-3.8,8c0,5.7,4.6,10.3,10.3,10.3
	c3.2,0,6.1-1.5,8-3.8C18.2,19.9,16,20.8,13.5,20.8L13.5,20.8z"/>
<path class="st2" d="M12,1C6,1,1.1,5.9,1.1,12s4.9,11,11,11S23,18,23,12S18.1,1,12,1L12,1z M12,21.6c-5.3,0-9.6-4.3-9.6-9.6
	S6.7,2.4,12,2.4s9.6,4.3,9.6,9.6S17.3,21.6,12,21.6z"/>
<path class="st2" d="M7.9,7.8c1.5-1.5,3.6-2,5.6-1.5l-0.9,0.2c-0.4,0.1-0.7,0.5-0.6,0.9C12,7.7,12.3,8,12.7,8c0,0,0.1,0,0.1,0
	l3.7-0.6c0.3,0,0.5-0.2,0.6-0.5s0-0.6-0.2-0.8l-2.5-2.8c-0.3-0.3-0.8-0.3-1.1-0.1C13.1,3.5,13,4,13.3,4.3l0.4,0.4
	c-2.4-0.6-5.1,0.1-6.9,2c-2.1,2.1-2.7,5.2-1.7,7.9c0.1,0.3,0.4,0.5,0.7,0.5c0.1,0,0.2,0,0.3-0.1c0.4-0.2,0.6-0.6,0.4-1
	C5.7,11.9,6.2,9.5,7.9,7.8L7.9,7.8z"/>
<path class="st2" d="M18,8.9c-0.4,0.2-0.6,0.6-0.4,1c0.8,2.2,0.3,4.6-1.3,6.3c-1.5,1.5-3.6,2-5.6,1.5l0.9-0.2
	c0.4-0.1,0.7-0.5,0.6-0.9s-0.5-0.7-0.9-0.6l-3.7,0.6c-0.3,0-0.5,0.2-0.6,0.5c-0.1,0.3,0,0.6,0.2,0.8l2.5,2.8
	c0.2,0.2,0.4,0.3,0.6,0.3c0.2,0,0.4-0.1,0.5-0.2c0.3-0.3,0.3-0.8,0.1-1.1l-0.4-0.4c0.6,0.1,1.1,0.2,1.7,0.2c1.9,0,3.8-0.7,5.3-2.2
	C19.4,15.2,20,12,19,9.3C18.8,8.9,18.4,8.7,18,8.9z"/>
</svg>
