<?xml version="1.0" encoding="utf-8"?>
<!-- Generator: Adobe Illustrator 24.0.2, SVG Export Plug-In . SVG Version: 6.00 Build 0)  -->
<svg version="1.1" id="Capa_1" shape-rendering="geometricPrecision"
	 xmlns="http://www.w3.org/2000/svg" xmlns:xlink="http://www.w3.org/1999/xlink" x="0px" y="0px" viewBox="0 0 24 24"
	 style="enable-background:new 0 0 24 24;" xml:space="preserve">
<style type="text/css">
	.st0{fill:#FFFFFF;}
	.st1{fill:#0072EF;}
</style>
<circle class="st0" cx="11.9" cy="11.6" r="10.4"/>
<path class="st1" d="M16.8,8.1c0.3,0.3,0.3,0.9,0,1.2L11,15.1c-0.3,0.3-0.9,0.3-1.2,0l-2.9-2.7c-0.3-0.3-0.3-0.9,0-1.2
	c0.3-0.3,0.9-0.3,1.2,0l2.1,2.1l5.2-5.2C15.9,7.8,16.5,7.8,16.8,8.1z M23,11.6c0,6.1-5,11.1-11.1,11.1s-11.1-5-11.1-11.1
	s5-11.1,11.1-11.1C18,0.5,23,5.6,23,11.6z M21.4,11.6c0-5.2-4.3-9.4-9.4-9.4c-5.2,0-9.4,4.3-9.4,9.4s4.3,9.4,9.4,9.4
	S21.4,16.8,21.4,11.6z"/>
</svg>
