<?xml version="1.0" encoding="utf-8"?>
<!-- Generator: Adobe Illustrator 24.0.2, SVG Export Plug-In . SVG Version: 6.00 Build 0)  -->
<svg version="1.1" id="Capa_1" xmlns="http://www.w3.org/2000/svg" xmlns:xlink="http://www.w3.org/1999/xlink" x="0px" y="0px"
	 viewBox="0 0 24 24" style="enable-background:new 0 0 24 24;" xml:space="preserve">
<style type="text/css">
	.st0{fill:#FFFFFF;}
	.st1{fill:#D8D8D8;}
	.st2{fill:#7C7C7C;}
	.st3{fill:#474747;}
	.st4{fill:#F5F5F5;}
	.st5{fill:#A4C400;}
	.st6{fill:#90AC00;}
</style>
<title>Artboard</title>
<desc>Created with Sketch.</desc>
<g id="_x31_34---Copy-Files_1_">
	<g id="Icons_1_" transform="translate(1 1)">
		<path id="Shape_61_" class="st0" d="M10.3,14.5v1.7c0,0.1,0.1,0.2,0.2,0.2h3.7c0.1,0,0.2,0.1,0.2,0.2V17c0,0.1,0,0.1,0.1,0.2
			c0.1,0,0.1,0,0.2,0l1.1-0.8v1.3c0,0.7-0.6,1.3-1.3,1.3H2.2c-0.7,0-1.3-0.6-1.3-1.3V5.2h3c0.7,0,1.3-0.6,1.3-1.3v-3h9.1
			c0.7,0,1.3,0.6,1.3,1.3v12.1l-1.1-0.8c-0.1,0-0.1,0-0.2,0s-0.1,0.1-0.1,0.2v0.5c0,0.1-0.1,0.2-0.2,0.2h-3.7
			C10.4,14.3,10.3,14.4,10.3,14.5L10.3,14.5z"/>
		<g>
			<path id="Shape_60_" class="st1" d="M14.2,16.3h-1c0.1,0,0.2,0.1,0.2,0.2V17c0,0.1,0,0.1,0.1,0.2c0.1,0,0.1,0,0.2,0l0.7-0.6v-0.1
				C14.4,16.4,14.3,16.3,14.2,16.3L14.2,16.3z"/>
			<path id="Shape_59_" class="st1" d="M10.5,14.3h-1c-0.1,0-0.2,0.1-0.2,0.2v1.7c0,0.1,0.1,0.2,0.2,0.2h1c-0.1,0-0.2-0.1-0.2-0.2
				v-1.7C10.3,14.4,10.4,14.3,10.5,14.3z"/>
			<path id="Shape_58_" class="st1" d="M14.7,17.7c0,0.7-0.6,1.3-1.3,1.3h1c0.7,0,1.3-0.6,1.3-1.3v-1.3l-1,0.8V17.7z"/>
			<path id="Shape_57_" class="st1" d="M13.3,13.6v0.5c0,0.1-0.1,0.2-0.2,0.2h1c0.1,0,0.2-0.1,0.2-0.2v-0.1l-0.7-0.6
				c-0.1,0-0.1,0-0.2,0S13.3,13.6,13.3,13.6L13.3,13.6z"/>
			<path id="Shape_56_" class="st1" d="M14.4,0.8h-1c0.7,0,1.3,0.6,1.3,1.3v11.4l1,0.8V2.2C15.7,1.4,15.1,0.8,14.4,0.8z"/>
		</g>
		<path id="Shape_55_" class="st2" d="M5.3,0.8v3c0,0.7-0.6,1.3-1.3,1.3h-3L5.3,0.8z"/>
		<path id="Shape_54_" d="M12.3,2.5h-2c-0.2,0-0.3-0.2-0.3-0.3c0-0.2,0.2-0.3,0.3-0.3h2c0.2,0,0.3,0.2,0.3,0.3
			C12.7,2.4,12.5,2.5,12.3,2.5z"/>
		<path id="Shape_53_" d="M14.4,2.5h-0.7c-0.2,0-0.3-0.2-0.3-0.3c0-0.2,0.2-0.3,0.3-0.3h0.7c0.2,0,0.3,0.2,0.3,0.3
			C14.7,2.4,14.5,2.5,14.4,2.5z"/>
		<path id="Shape_52_" class="st2" d="M20.4,3.5V19c0,0.7-0.6,1.3-1.3,1.3H6.9c-0.7,0-1.3-0.6-1.3-1.3h8.8c0.7,0,1.3-0.6,1.3-1.3
			v-1.3l1.2-0.9c0,0,0.1-0.1,0.1-0.1s0-0.1-0.1-0.1l-1.2-0.9V2.2h3.4C19.8,2.2,20.4,2.8,20.4,3.5z"/>
		<path id="Shape_51_" class="st3" d="M19.1,2.2h-1c0.7,0,1.3,0.6,1.3,1.3V19c0,0.7-0.6,1.3-1.3,1.3h1c0.7,0,1.3-0.6,1.3-1.3V3.5
			C20.4,2.8,19.8,2.2,19.1,2.2z"/>
		<path id="Shape_50_" class="st4" d="M17.1,3.9h-1.3c-0.2,0-0.3-0.2-0.3-0.3s0.2-0.3,0.3-0.3h1.3c0.2,0,0.3,0.2,0.3,0.3
			C17.4,3.7,17.2,3.9,17.1,3.9z"/>
		<path id="Shape_49_" class="st4" d="M19.1,3.9h-0.7c-0.2,0-0.3-0.2-0.3-0.3s0.2-0.3,0.3-0.3h0.7c0.2,0,0.3,0.2,0.3,0.3
			C19.4,3.7,19.3,3.9,19.1,3.9z"/>
		<path id="Shape_48_" class="st5" d="M16.9,15.5l-1.2,0.9l-1.1,0.8c-0.1,0-0.1,0-0.2,0c-0.1,0-0.1-0.1-0.1-0.2v-0.5
			c0-0.1-0.1-0.2-0.2-0.2h-3.7c-0.1,0-0.2-0.1-0.2-0.2v-1.7c0-0.1,0.1-0.2,0.2-0.2h3.7c0.1,0,0.2-0.1,0.2-0.2v-0.5
			c0-0.1,0-0.1,0.1-0.2s0.1,0,0.2,0l1.1,0.8l1.2,0.9c0,0,0.1,0.1,0.1,0.1C16.9,15.4,16.9,15.4,16.9,15.5L16.9,15.5z"/>
		<path id="Shape_47_" class="st6" d="M16.9,15.2l-1.2-0.9l-1.1-0.8c-0.1,0-0.1,0-0.2,0s-0.1,0.1-0.1,0.2v0.4l0.3,0.3l1.2,0.9
			c0,0,0.1,0.1,0.1,0.1c0,0.1,0,0.1-0.1,0.1l-1.2,0.9l-0.3,0.3V17c0,0.1,0,0.1,0.1,0.2c0.1,0,0.1,0,0.2,0l1.1-0.8l1.2-0.9
			c0,0,0.1-0.1,0.1-0.1S16.9,15.2,16.9,15.2L16.9,15.2z"/>
	</g>
	<g id="Layer_2_1_">
		<path id="Shape_46_" d="M4.6,8.2h3c0.2,0,0.3-0.2,0.3-0.3c0-0.2-0.2-0.3-0.3-0.3h-3c-0.2,0-0.3,0.2-0.3,0.3
			C4.2,8.1,4.4,8.2,4.6,8.2z"/>
		<path id="Shape_45_" d="M9.3,8.2h5.1c0.2,0,0.3-0.2,0.3-0.3c0-0.2-0.2-0.3-0.3-0.3H9.3C9.1,7.6,9,7.7,9,7.9C9,8.1,9.1,8.2,9.3,8.2
			z"/>
		<path id="Shape_44_" d="M14.3,9.2h-3c-0.2,0-0.3,0.2-0.3,0.3s0.2,0.3,0.3,0.3h3c0.2,0,0.3-0.2,0.3-0.3S14.5,9.2,14.3,9.2z"/>
		<path id="Shape_43_" d="M4.6,9.9h5.1c0.2,0,0.3-0.2,0.3-0.3S9.8,9.2,9.6,9.2H4.6c-0.2,0-0.3,0.2-0.3,0.3S4.4,9.9,4.6,9.9z"/>
		<path id="Shape_42_" d="M7.9,11.3c0-0.2-0.2-0.3-0.3-0.3h-3c-0.2,0-0.3,0.2-0.3,0.3s0.2,0.3,0.3,0.3h3C7.8,11.6,7.9,11.5,7.9,11.3
			z"/>
		<path id="Shape_41_" d="M14.3,10.9H9.3c-0.2,0-0.3,0.2-0.3,0.3s0.2,0.3,0.3,0.3h5.1c0.2,0,0.3-0.2,0.3-0.3S14.5,10.9,14.3,10.9z"
			/>
		<path id="Shape_40_" d="M20.1,2.8H17c-0.2-0.8-0.9-1.3-1.7-1.3H6.3c-0.1,0-0.2,0-0.2,0.1L1.6,6C1.6,6,1.5,6.1,1.5,6.2v12.5
			c0,0.9,0.8,1.7,1.7,1.7h3.1c0.2,0.8,0.9,1.3,1.7,1.3h12.1c0.9,0,1.7-0.8,1.7-1.7V4.5C21.8,3.6,21,2.8,20.1,2.8z M15.7,17.7v-0.2
			c0-0.3-0.2-0.5-0.5-0.5h-3.5v-1.3h3.5c0.3,0,0.5-0.2,0.5-0.5V15l1.8,1.3L15.7,17.7z M5.9,2.6v2.2c0,0.6-0.5,1-1,1H2.7L5.9,2.6z
			 M2.2,18.7V6.5h2.7c0.9,0,1.7-0.8,1.7-1.7V2.2h8.8c0.6,0,1,0.5,1,1v11.5l-0.5-0.4c-0.2-0.1-0.4-0.1-0.5,0
			c-0.2,0.1-0.3,0.3-0.3,0.5V15h-3.5c-0.3,0-0.5,0.2-0.5,0.5v1.7c0,0.3,0.2,0.5,0.5,0.5H15V18c0,0.2,0.1,0.4,0.3,0.5
			c0.2,0.1,0.4,0.1,0.5,0l0.5-0.4v0.7c0,0.6-0.5,1-1,1H3.2C2.7,19.7,2.2,19.2,2.2,18.7z M21.1,20c0,0.6-0.5,1-1,1H7.9
			c-0.4,0-0.8-0.3-0.9-0.7h8.4c0.9,0,1.7-0.8,1.7-1.7v-1.2l1-0.8c0.1-0.1,0.2-0.2,0.2-0.4c0-0.2-0.1-0.3-0.2-0.4l-1-0.8V13h2
			c0.2,0,0.3-0.2,0.3-0.3s-0.2-0.3-0.3-0.3h-2v-1h2c0.2,0,0.3-0.2,0.3-0.3c0-0.2-0.2-0.3-0.3-0.3h-2v-1h2c0.2,0,0.3-0.2,0.3-0.3
			s-0.2-0.3-0.3-0.3h-2V3.5h3c0.6,0,1,0.5,1,1V20z"/>
	</g>
</g>
</svg>
