<?xml version="1.0" encoding="utf-8"?>
<!-- Generator: Adobe Illustrator 24.0.1, SVG Export Plug-In . SVG Version: 6.00 Build 0)  -->
<svg version="1.1" id="ic_staking_off" shape-rendering="geometricPrecision"
	 xmlns="http://www.w3.org/2000/svg" xmlns:xlink="http://www.w3.org/1999/xlink" x="0px" y="0px" viewBox="0 0 24 24"
	 style="enable-background:new 0 0 24 24;" xml:space="preserve">
<style type="text/css">
	.st0{fill:#7C7687;}
</style>
<g>
	<path class="st0" d="M12.1,0.8c-6.1,0-11,4.9-11,11s4.9,11,11,11s11-4.9,11-11S18.1,0.8,12.1,0.8z M12.1,20.5
		c-4.9,0-8.8-3.9-8.8-8.8S7.2,3,12.1,3s8.8,3.9,8.8,8.8S16.9,20.5,12.1,20.5z"/>
	<path class="st0" d="M12.1,3.5c-4.6,0-8.3,3.7-8.3,8.3s3.7,8.3,8.3,8.3s8.3-3.7,8.3-8.3S16.6,3.5,12.1,3.5z M12.1,19
		c-4,0-7.3-3.3-7.3-7.3S8,4.5,12.1,4.5s7.3,3.3,7.3,7.3S16.1,19,12.1,19z"/>
</g>
</svg>
