<?xml version="1.0" encoding="utf-8"?>
<!-- Generator: Adobe Illustrator 24.0.2, SVG Export Plug-In . SVG Version: 6.00 Build 0)  -->
<svg version="1.1" id="ic_piv" xmlns="http://www.w3.org/2000/svg" xmlns:xlink="http://www.w3.org/1999/xlink" x="0px" y="0px"
	 viewBox="0 0 24 24" style="enable-background:new 0 0 24 24;" xml:space="preserve">
<style type="text/css">
	.st0{fill:#0E65E5;}
	.st1{fill:#FFFFFF;}
	.st2{fill:#D7E9FF;}
	.st3{fill:#94C1FF;}
</style>
<g>
	<path class="st0" d="M22,12.8c0,5.6-4.5,10.1-10.1,10.1c-5.6,0-10.1-4.5-10.1-10.1c0-5.6,4.5-10.1,10.1-10.1
		C17.5,2.7,22,7.2,22,12.8z"/>
	<path class="st0" d="M11.9,23.2c-5.8,0-10.4-4.7-10.4-10.4C1.5,7,6.2,2.3,11.9,2.3S22.4,7,22.4,12.8C22.4,18.5,17.7,23.2,11.9,23.2
		z M11.9,3c-5.4,0-9.7,4.4-9.7,9.7c0,5.4,4.4,9.7,9.7,9.7c5.4,0,9.7-4.4,9.7-9.7C21.7,7.4,17.3,3,11.9,3z"/>
	<path class="st1" d="M22,11.7c0,5.6-4.5,10.1-10.1,10.1c-5.6,0-10.1-4.5-10.1-10.1c0-5.6,4.5-10.1,10.1-10.1
		C17.5,1.6,22,6.1,22,11.7z"/>
	<path class="st0" d="M11.9,22.1c-5.8,0-10.4-4.7-10.4-10.4S6.2,1.2,11.9,1.2s10.4,4.7,10.4,10.4S17.7,22.1,11.9,22.1z M11.9,2
		c-5.4,0-9.7,4.4-9.7,9.7c0,5.4,4.4,9.7,9.7,9.7c5.4,0,9.7-4.4,9.7-9.7C21.7,6.3,17.3,2,11.9,2z"/>
	<path class="st2" d="M22,11.7c0,5.6-4.5,10.1-10.1,10.1c-5.6,0-10.1-4.5-10.1-10.1c0-5.6,4.5-10.1,10.1-10.1
		C17.5,1.6,22,6.1,22,11.7z"/>
	<path class="st0" d="M11.9,22.1c-5.8,0-10.4-4.7-10.4-10.4S6.2,1.2,11.9,1.2s10.4,4.7,10.4,10.4S17.7,22.1,11.9,22.1z M11.9,2
		c-5.4,0-9.7,4.4-9.7,9.7c0,5.4,4.4,9.7,9.7,9.7c5.4,0,9.7-4.4,9.7-9.7C21.7,6.3,17.3,2,11.9,2z"/>
	<path class="st3" d="M20.4,11.7c0,4.7-3.8,8.5-8.5,8.5c-4.7,0-8.5-3.8-8.5-8.5c0-4.7,3.8-8.5,8.5-8.5C16.6,3.2,20.4,7,20.4,11.7z"
		/>
	<path class="st0" d="M11.9,20.5c-4.9,0-8.8-4-8.8-8.8s4-8.8,8.8-8.8c4.9,0,8.8,4,8.8,8.8S16.8,20.5,11.9,20.5z M11.9,3.6
		c-4.5,0-8.1,3.6-8.1,8.1s3.6,8.1,8.1,8.1s8.1-3.6,8.1-8.1S16.4,3.6,11.9,3.6z"/>
	<path class="st3" d="M14.2,10.7l-1.1,1.1"/>
	<path class="st3" d="M14.2,11.9l-1.1-1.1"/>
	<path class="st3" d="M11,10.7l-1.1,1.1"/>
	<path class="st3" d="M11,11.9l-1.1-1.1"/>
	<path class="st2" d="M12.7,5.2c0,0.4-0.3,0.7-0.7,0.7c-0.4,0-0.7-0.3-0.7-0.7c0-0.4,0.3-0.7,0.7-0.7C12.3,4.5,12.7,4.8,12.7,5.2z"
		/>
	<path class="st0" d="M11.9,6.3c-0.6,0-1.1-0.5-1.1-1.1s0.5-1.1,1.1-1.1c0.6,0,1.1,0.5,1.1,1.1S12.5,6.3,11.9,6.3z M11.9,4.8
		c-0.2,0-0.4,0.2-0.4,0.4c0,0.2,0.2,0.4,0.4,0.4c0.2,0,0.4-0.2,0.4-0.4C12.3,5,12.1,4.8,11.9,4.8z"/>
	<path class="st2" d="M12.3,18.5c0,0.4-0.3,0.7-0.7,0.7c-0.4,0-0.7-0.3-0.7-0.7c0-0.4,0.3-0.7,0.7-0.7C12,17.8,12.3,18.1,12.3,18.5z
		"/>
	<path class="st0" d="M11.6,19.6c-0.6,0-1.1-0.5-1.1-1.1c0-0.6,0.5-1.1,1.1-1.1c0.6,0,1.1,0.5,1.1,1.1
		C12.7,19.1,12.2,19.6,11.6,19.6z M11.6,18.2c-0.2,0-0.4,0.2-0.4,0.4c0,0.2,0.2,0.4,0.4,0.4s0.4-0.2,0.4-0.4
		C11.9,18.3,11.8,18.2,11.6,18.2z"/>
	<path class="st2" d="M6.2,11.7c0,0.4-0.3,0.7-0.7,0.7c-0.4,0-0.7-0.3-0.7-0.7c0-0.4,0.3-0.7,0.7-0.7C5.9,11,6.2,11.3,6.2,11.7z"/>
	<path class="st0" d="M5.5,12.8c-0.6,0-1.1-0.5-1.1-1.1c0-0.6,0.5-1.1,1.1-1.1s1.1,0.5,1.1,1.1C6.5,12.3,6.1,12.8,5.5,12.8z
		 M5.5,11.3c-0.2,0-0.4,0.2-0.4,0.4c0,0.2,0.2,0.4,0.4,0.4c0.2,0,0.4-0.2,0.4-0.4C5.8,11.5,5.7,11.3,5.5,11.3z"/>
	<path class="st2" d="M19.1,11.7c0,0.4-0.3,0.7-0.7,0.7c-0.4,0-0.7-0.3-0.7-0.7c0-0.4,0.3-0.7,0.7-0.7C18.8,11,19.1,11.3,19.1,11.7z
		"/>
	<path class="st0" d="M18.4,12.8c-0.6,0-1.1-0.5-1.1-1.1c0-0.6,0.5-1.1,1.1-1.1s1.1,0.5,1.1,1.1C19.5,12.3,19,12.8,18.4,12.8z
		 M18.4,11.3c-0.2,0-0.4,0.2-0.4,0.4c0,0.2,0.2,0.4,0.4,0.4s0.4-0.2,0.4-0.4C18.8,11.5,18.6,11.3,18.4,11.3z"/>
	<path class="st2" d="M8,6.5c-0.3-0.3-0.7-0.3-1,0c-0.3,0.3-0.3,0.7,0,1c0.3,0.3,0.7,0.3,1,0C8.3,7.2,8.3,6.7,8,6.5z"/>
	<path class="st0" d="M7.5,8C7.2,8,6.9,7.9,6.7,7.7C6.3,7.2,6.3,6.6,6.8,6.2C7,6,7.2,5.9,7.5,5.9c0.3,0,0.6,0.1,0.8,0.3
		C8.5,6.4,8.6,6.7,8.6,7c0,0.3-0.1,0.6-0.3,0.8C8,7.9,7.8,8,7.5,8z M7.5,6.6c-0.1,0-0.2,0-0.2,0.1C7.1,6.8,7.1,7,7.2,7.2
		c0.1,0.1,0.4,0.2,0.5,0C7.8,7.1,7.9,7.1,7.9,7c0-0.1,0-0.2-0.1-0.3C7.7,6.6,7.6,6.6,7.5,6.6C7.5,6.6,7.5,6.6,7.5,6.6z"/>
	<path class="st2" d="M16.9,15.9c-0.3-0.3-0.7-0.3-1,0c-0.3,0.3-0.3,0.7,0,1c0.3,0.3,0.7,0.3,1,0C17.1,16.7,17.2,16.2,16.9,15.9z"/>
	<path class="st0" d="M16.4,17.5C16.4,17.5,16.3,17.5,16.4,17.5c-0.3,0-0.6-0.1-0.8-0.3c-0.2-0.2-0.3-0.5-0.3-0.8
		c0-0.3,0.1-0.6,0.3-0.8c0.4-0.4,1.1-0.4,1.5,0.1v0c0.4,0.4,0.4,1.1-0.1,1.5C16.9,17.4,16.6,17.5,16.4,17.5z M16.4,16.1
		c-0.1,0-0.2,0-0.2,0.1C16,16.2,16,16.3,16,16.4c0,0.1,0,0.2,0.1,0.3c0.1,0.1,0.2,0.1,0.3,0.1c0.1,0,0.2,0,0.3-0.1
		c0.1-0.1,0.2-0.4,0-0.5C16.6,16.1,16.5,16.1,16.4,16.1z"/>
	<path class="st2" d="M8,15.9c-0.3-0.3-0.7-0.3-1,0c-0.3,0.3-0.3,0.7,0,1c0.3,0.3,0.7,0.3,1,0C8.3,16.6,8.3,16.2,8,15.9z"/>
	<path class="st0" d="M7.5,17.5c-0.3,0-0.5-0.1-0.7-0.3c-0.4-0.4-0.5-1.1-0.1-1.5c0.4-0.4,1.1-0.5,1.5-0.1c0.2,0.2,0.3,0.5,0.3,0.8
		c0,0.3-0.1,0.6-0.3,0.8C8.1,17.4,7.8,17.5,7.5,17.5C7.5,17.5,7.5,17.5,7.5,17.5z M7.5,16.1c-0.1,0-0.2,0-0.3,0.1
		c-0.1,0.1-0.1,0.4,0,0.5c0.1,0.1,0.2,0.1,0.3,0.1c0.1,0,0.2,0,0.3-0.1c0,0,0,0,0,0c0.1-0.1,0.1-0.2,0.1-0.3c0-0.1,0-0.2-0.1-0.3
		C7.7,16.1,7.6,16.1,7.5,16.1z"/>
	<path class="st3" d="M16.9,6.4c-0.3-0.3-0.7-0.3-1,0c-0.3,0.3-0.3,0.7,0,1s0.7,0.3,1,0C17.2,7.1,17.1,6.7,16.9,6.4z"/>
	<path class="st0" d="M16.4,8c-0.3,0-0.5-0.1-0.7-0.3c-0.2-0.2-0.3-0.5-0.3-0.8c0-0.3,0.1-0.6,0.3-0.8C15.8,6,16,5.9,16.3,5.9
		c0.3,0,0.6,0.1,0.8,0.3c0.4,0.4,0.5,1.1,0.1,1.5C16.9,7.9,16.7,8,16.4,8z M16.9,7.4L16.9,7.4L16.9,7.4z M16.4,6.6
		C16.4,6.6,16.4,6.6,16.4,6.6c-0.1,0-0.2,0-0.3,0.1C16,6.8,16,6.9,16,7c0,0.1,0,0.2,0.1,0.3c0.1,0.1,0.4,0.1,0.5,0
		c0.1-0.1,0.1-0.4,0-0.5C16.5,6.6,16.5,6.6,16.4,6.6z"/>
	<path class="st1" d="M19.6,3.9l2.6,0.8l-2.6,0.8l-0.6,2.4l-0.6-2.4l-2.6-0.8l2.6-0.8L19,1.5L19.6,3.9z"/>
	<path class="st0" d="M18.9,8.2C18.9,8.2,18.9,8.2,18.9,8.2c-0.2,0-0.3-0.1-0.3-0.3L18,5.7L15.7,5c-0.2,0-0.3-0.2-0.3-0.3
		c0-0.2,0.1-0.3,0.3-0.3L18,3.6l0.6-2.2c0-0.2,0.2-0.3,0.3-0.3h0c0.2,0,0.3,0.1,0.3,0.3l0.6,2.2l2.4,0.7c0.2,0,0.3,0.2,0.3,0.3
		c0,0.2-0.1,0.3-0.3,0.3l-2.4,0.7l-0.6,2.2C19.2,8.1,19.1,8.2,18.9,8.2z M17,4.6l1.4,0.4c0.1,0,0.2,0.1,0.2,0.3l0.3,1.1l0.3-1.1
		c0-0.1,0.1-0.2,0.2-0.3l1.4-0.4l-1.4-0.4c-0.1,0-0.2-0.1-0.2-0.3L19,2.9L18.7,4c0,0.1-0.1,0.2-0.2,0.3L17,4.6z"/>
	<path class="st0" d="M14.6,10.2c0-0.2,0.1-0.4,0.1-0.6c0-1.5-1.3-2.8-2.8-2.8c-1.5,0-2.8,1.3-2.8,2.8c0,0.2,0,0.4,0.1,0.6
		c-1.1,0.4-1.9,1.4-1.9,2.7c0,1.5,1.3,2.8,2.8,2.8c0.7,0,1.4-0.3,1.9-0.7c0.5,0.5,1.2,0.7,1.9,0.7c1.5,0,2.8-1.3,2.8-2.8
		C16.6,11.7,15.8,10.6,14.6,10.2z M8.8,11.1c-0.1,0-0.1,0.1-0.2,0.1C8.7,11.1,8.7,11.1,8.8,11.1z M8.2,11.7c0-0.1,0.1-0.1,0.1-0.2
		C8.3,11.5,8.2,11.6,8.2,11.7c-0.1,0.1-0.1,0.2-0.2,0.3C8.1,11.8,8.1,11.8,8.2,11.7z M7.9,12.2c0,0.1,0,0.1-0.1,0.2
		C7.8,12.4,7.9,12.3,7.9,12.2z M7.8,13.4c0,0.1,0,0.1,0.1,0.2C7.9,13.5,7.8,13.4,7.8,13.4z M8.2,14.2C8.1,14.1,8.1,14,8,13.9
		C8.1,14,8.1,14.1,8.2,14.2c0,0.1,0.1,0.1,0.1,0.2C8.3,14.3,8.2,14.2,8.2,14.2z M8.4,14.4c0,0.1,0.1,0.1,0.2,0.2
		C8.5,14.5,8.4,14.5,8.4,14.4z M8.6,14.6c0.1,0,0.1,0.1,0.2,0.1C8.7,14.7,8.7,14.7,8.6,14.6z M11,14.9c0.1-0.1,0.3-0.2,0.4-0.3
		c0,0,0.1-0.1,0.1-0.1c0,0,0,0,0,0c0,0-0.1,0.1-0.1,0.1C11.3,14.7,11.1,14.8,11,14.9z"/>
	<g>
		<g>
			<path class="st1" d="M13.8,11.7c-0.3,0-0.7,0.1-0.9,0.4c0,0-0.1,0-0.2,0l-0.6-0.4c0,0-0.1-0.1-0.1-0.1l0-0.7c0-0.1,0-0.1,0.1-0.1
				c0.5-0.1,0.9-0.6,0.9-1.2c0-0.7-0.5-1.2-1.2-1.2c-0.7,0-1.2,0.5-1.2,1.2c0,0.6,0.4,1,0.9,1.2c0.1,0,0.1,0.1,0.1,0.1l0,0.7
				c0,0,0,0.1-0.1,0.1L11,12.1c0,0-0.1,0-0.2,0c-0.2-0.2-0.5-0.4-0.9-0.4c-0.7,0-1.2,0.6-1.2,1.2c0,0.7,0.5,1.2,1.2,1.2
				c0.7,0,1.2-0.5,1.2-1.2c0-0.1,0-0.2,0-0.3c0-0.1,0-0.1,0.1-0.1l0.6-0.4c0,0,0.1,0,0.1,0l0.6,0.3c0,0,0.1,0.1,0.1,0.1
				c0,0.1,0,0.2,0,0.3c0,0.7,0.5,1.2,1.2,1.2c0.7,0,1.2-0.5,1.2-1.2C15,12.3,14.5,11.7,13.8,11.7z"/>
		</g>
		<g>
			<path class="st1" d="M11.4,13.7c-0.3,0.5-0.8,0.8-1.4,0.8c-0.9,0-1.6-0.7-1.6-1.6c0-0.9,0.7-1.6,1.6-1.6c0.4,0,0.8,0.2,1.1,0.4
				l0.3-0.1l0-0.4c-0.4-0.3-0.9-0.5-1.4-0.5c-1.2,0-2.2,1-2.2,2.2s1,2.2,2.2,2.2c0.7,0,1.3-0.3,1.7-0.8
				C11.6,14.1,11.5,13.9,11.4,13.7z"/>
		</g>
		<g>
			<path class="st1" d="M11.9,7.4c-1.2,0-2.2,1-2.2,2.2c0,0.3,0.1,0.6,0.2,0.8c0.1,0,0.1,0,0.2,0c0.2,0,0.4,0,0.5,0.1
				c-0.2-0.3-0.3-0.6-0.3-0.9C10.3,8.8,11,8,11.9,8c0.9,0,1.6,0.7,1.6,1.6c0,0.7-0.5,1.3-1.1,1.5l0,0.4l0.3,0.2
				c0.8-0.3,1.4-1.1,1.4-2.1C14.1,8.4,13.1,7.4,11.9,7.4z"/>
		</g>
		<g>
			<path class="st1" d="M14.1,10.7c-0.1,0.2-0.3,0.4-0.4,0.6c0,0,0.1,0,0.1,0c0.9,0,1.6,0.7,1.6,1.6c0,0.9-0.7,1.6-1.6,1.6
				c-0.9,0-1.6-0.7-1.6-1.6c0-0.1,0-0.2,0-0.3l-0.3-0.1l-0.3,0.2c0,0.1,0,0.2,0,0.3c0,1.2,1,2.2,2.2,2.2c1.2,0,2.2-1,2.2-2.2
				C16,11.8,15.2,10.8,14.1,10.7z"/>
		</g>
	</g>
</g>
</svg>
