<?xml version="1.0" encoding="utf-8"?>
<!-- Generator: Adobe Illustrator 24.0.1, SVG Export Plug-In . SVG Version: 6.00 Build 0)  -->
<svg version="1.1" id="ic_light_theme" shape-rendering="geometricPrecision"
	 xmlns="http://www.w3.org/2000/svg" xmlns:xlink="http://www.w3.org/1999/xlink" x="0px" y="0px" viewBox="0 0 24 24"
	 style="enable-background:new 0 0 24 24;" xml:space="preserve">
<style type="text/css">
	.st0{fill:#FFFFFF;}
</style>
<path id="Path_18900" class="st0" d="M12,7c-2.8,0-5,2.2-5,5s2.2,5,5,5s5-2.2,5-5C17,9.2,14.8,7,12,7z"/>
<path id="Rectangle_4418" class="st0" d="M12,2L12,2c0.6,0,1,0.4,1,1v2c0,0.6-0.4,1-1,1h0c-0.6,0-1-0.4-1-1V3C11,2.4,11.4,2,12,2z"
	/>
<path id="Rectangle_4419" class="st0" d="M12,18L12,18c0.6,0,1,0.4,1,1v2c0,0.6-0.4,1-1,1h0c-0.6,0-1-0.4-1-1v-2
	C11,18.4,11.4,18,12,18z"/>
<path id="Rectangle_4420" class="st0" d="M3,11h2c0.6,0,1,0.4,1,1v0c0,0.6-0.4,1-1,1H3c-0.6,0-1-0.4-1-1v0C2,11.4,2.4,11,3,11z"/>
<path id="Rectangle_4421" class="st0" d="M19,11h2c0.6,0,1,0.4,1,1v0c0,0.6-0.4,1-1,1h-2c-0.6,0-1-0.4-1-1v0C18,11.4,18.4,11,19,11z
	"/>
<path id="Rectangle_4422" class="st0" d="M4.9,4.9L4.9,4.9c0.4-0.4,1-0.4,1.4,0l1.4,1.4c0.4,0.4,0.4,1,0,1.4l0,0
	c-0.4,0.4-1,0.4-1.4,0L4.9,6.3C4.5,6,4.5,5.3,4.9,4.9z"/>
<path id="Rectangle_4423" class="st0" d="M16.2,16.2L16.2,16.2c0.4-0.4,1-0.4,1.4,0l1.4,1.4c0.4,0.4,0.4,1,0,1.4v0
	c-0.4,0.4-1,0.4-1.4,0l-1.4-1.4C15.9,17.3,15.9,16.6,16.2,16.2z"/>
<path id="Rectangle_4424" class="st0" d="M4.9,17.7l1.4-1.4c0.4-0.4,1-0.4,1.4,0l0,0c0.4,0.4,0.4,1,0,1.4l-1.4,1.4
	c-0.4,0.4-1,0.4-1.4,0l0,0C4.5,18.7,4.5,18,4.9,17.7z"/>
<path id="Rectangle_4425" class="st0" d="M16.2,6.3l1.4-1.4c0.4-0.4,1-0.4,1.4,0v0c0.4,0.4,0.4,1,0,1.4l-1.4,1.4
	c-0.4,0.4-1,0.4-1.4,0l0,0C15.9,7.4,15.9,6.7,16.2,6.3z"/>
</svg>
