<?xml version="1.0" encoding="utf-8"?>
<!-- Generator: Adobe Illustrator 24.0.2, SVG Export Plug-In . SVG Version: 6.00 Build 0)  -->
<svg version="1.1" id="Capa_1" xmlns="http://www.w3.org/2000/svg" xmlns:xlink="http://www.w3.org/1999/xlink" x="0px" y="0px"
	 viewBox="0 0 18 17" style="enable-background:new 0 0 18 17;" xml:space="preserve">
<style type="text/css">
	.st0{fill:#FFFFFF;}
</style>
<title>ic-close-white</title>
<desc>Created with Sketch.</desc>
<g>
	<path class="st0" d="M2.9,2.3C2.2,2.9,2.2,4,2.9,4.6l3.7,3.7l-3.7,3.7c-0.6,0.6-0.6,1.7,0,2.3c0.6,0.6,1.7,0.6,2.3,0l3.7-3.7
		l3.7,3.7c0.6,0.6,1.7,0.6,2.3,0c0.6-0.6,0.6-1.7,0-2.3l-3.7-3.7L15,4.6c0.6-0.6,0.6-1.7,0-2.3s-1.7-0.6-2.3,0L8.9,6L5.2,2.3
		C4.6,1.6,3.5,1.6,2.9,2.3z"/>
</g>
</svg>
