<?xml version="1.0" encoding="utf-8"?>
<!-- Generator: Adobe Illustrator 24.0.2, SVG Export Plug-In . SVG Version: 6.00 Build 0)  -->
<svg version="1.1" id="ic_connect" xmlns="http://www.w3.org/2000/svg" xmlns:xlink="http://www.w3.org/1999/xlink" x="0px" y="0px"
	 viewBox="0 0 24 24" style="enable-background:new 0 0 24 24;" xml:space="preserve">
<style type="text/css">
	.st0{fill:#00A6EF;}
	.st1{fill:#FFFFFF;}
</style>
<g>
	<ellipse class="st0" cx="12" cy="19.9" rx="1" ry="1"/>
	<g>
		<g>
			<path class="st0" d="M1.2,8.1L3.1,10C8,5.1,16,5.1,20.9,10l1.8-1.8C16.8,2.2,7.2,2.2,1.2,8.1L1.2,8.1z"/>
		</g>
	</g>
	<g>
		<g>
			<path class="st0" d="M4.9,11.8l1.8,1.8c2.9-2.9,7.5-2.9,10.4,0l1.8-1.8C15.1,7.9,8.8,7.9,4.9,11.8L4.9,11.8z"/>
		</g>
	</g>
	<g>
		<g>
			<path class="st0" d="M8.6,15.5l1.8,1.8c0.8-0.8,2.2-0.8,3,0l1.8-1.8C13.5,13.7,10.5,13.7,8.6,15.5L8.6,15.5z"/>
		</g>
	</g>
</g>
<g>
	<path class="st1" d="M12,4.1c-0.2,0-0.3-0.1-0.4-0.3c-0.1-0.2,0-0.4,0.1-0.5c0.1-0.1,0.3-0.1,0.5,0c0.2,0.1,0.3,0.3,0.2,0.5
		C12.4,4,12.2,4.1,12,4.1z"/>
	<path class="st1" d="M13.5,17.8c-0.1,0-0.2,0-0.3-0.1c-0.3-0.3-0.8-0.5-1.2-0.5c-0.5,0-0.9,0.2-1.2,0.5c-0.1,0.1-0.2,0.1-0.3,0.1
		c-0.1,0-0.2,0-0.3-0.1l-1.8-1.8c-0.2-0.2-0.2-0.4,0-0.6c1-1,2.3-1.5,3.7-1.5s2.7,0.5,3.7,1.5c0.2,0.2,0.2,0.4,0,0.6l-1.8,1.8
		C13.7,17.8,13.6,17.8,13.5,17.8z M9.2,15.5l1.2,1.2c0.4-0.3,0.9-0.5,1.5-0.5h0c0.5,0,1.1,0.2,1.5,0.5l1.2-1.2c-0.8-0.6-1.7-1-2.7-1
		S10,14.9,9.2,15.5z"/>
	<path class="st1" d="M17.2,14.1c-0.1,0-0.2,0-0.3-0.1c-1.3-1.3-3-2-4.9-2s-3.6,0.7-4.9,2c-0.1,0.1-0.2,0.1-0.3,0.1
		c-0.1,0-0.2,0-0.3-0.1l-1.8-1.8c-0.2-0.2-0.2-0.4,0-0.6c2-2,4.6-3,7.4-3s5.4,1.1,7.4,3c0.2,0.2,0.2,0.4,0,0.6L17.5,14
		C17.4,14.1,17.3,14.1,17.2,14.1L17.2,14.1z M12,11.1c1.9,0,3.8,0.7,5.2,2l1.2-1.2c-1.8-1.6-4-2.5-6.4-2.5s-4.7,0.9-6.4,2.5l1.2,1.2
		C8.2,11.8,10,11.1,12,11.1L12,11.1z"/>
	<path class="st1" d="M20.9,10.4c-0.1,0-0.2,0-0.3-0.1C18.3,8,15.2,6.7,12,6.7S5.7,8,3.4,10.3c-0.1,0.1-0.2,0.1-0.3,0.1
		c-0.1,0-0.2,0-0.3-0.1L0.9,8.4C0.8,8.3,0.8,8,0.9,7.8c1.2-1.2,2.7-2.2,4.2-3c1.5-0.7,3.1-1.2,4.8-1.4c0.2,0,0.5,0.1,0.5,0.4
		c0,0.2-0.1,0.5-0.4,0.5C6.9,4.7,4.1,6,1.9,8.1l1.2,1.2C5.5,7.1,8.6,5.9,12,5.9s6.5,1.2,8.9,3.5l1.2-1.2C19.8,6,17,4.6,13.9,4.2
		c-0.2,0-0.4-0.3-0.4-0.5c0-0.2,0.3-0.4,0.5-0.4c1.7,0.2,3.3,0.7,4.8,1.4c1.6,0.8,3,1.8,4.2,3c0.2,0.2,0.2,0.4,0,0.6l-1.8,1.8
		C21.1,10.4,21,10.4,20.9,10.4L20.9,10.4z"/>
	<path class="st1" d="M12,21.4c-0.4,0-0.8-0.2-1-0.4c-0.6-0.6-0.6-1.5,0-2.1c0.3-0.3,0.6-0.4,1-0.4s0.8,0.2,1,0.4
		c0.6,0.6,0.6,1.5,0,2.1C12.7,21.2,12.4,21.4,12,21.4L12,21.4z M12,19.3c-0.2,0-0.3,0.1-0.4,0.2c-0.2,0.2-0.2,0.6,0,0.9
		c0.1,0.1,0.3,0.2,0.4,0.2s0.3-0.1,0.4-0.2c0.2-0.2,0.2-0.6,0-0.9c0,0,0,0,0,0C12.3,19.4,12.1,19.3,12,19.3z"/>
</g>
</svg>
