<?xml version="1.0" encoding="utf-8"?>
<!-- Generator: Adobe Illustrator 24.0.2, SVG Export Plug-In . SVG Version: 6.00 Build 0)  -->
<svg version="1.1" id="Capa_1" xmlns="http://www.w3.org/2000/svg" xmlns:xlink="http://www.w3.org/1999/xlink" x="0px" y="0px"
	 viewBox="0 0 24 24" style="enable-background:new 0 0 24 24;" xml:space="preserve">
<style type="text/css">
	.st0{fill:#3D3D3D;}
</style>
<path class="st0" d="M9.1,21.6c-0.6,0-1.2-0.2-1.6-0.7l-0.3-0.3c-0.4-0.4-0.7-1-0.7-1.6c0-0.6,0.2-1.2,0.7-1.6l5.6-5.5L7.2,6.4
	C6.8,6,6.5,5.4,6.5,4.8s0.2-1.2,0.7-1.6l0.4-0.4c0.4-0.4,1-0.7,1.6-0.7c0.6,0,1.2,0.2,1.6,0.7l7.3,7.5c0.4,0.4,0.7,1,0.7,1.6
	c0,0.6-0.2,1.2-0.7,1.6l-2.2,2.3c-0.3,0.3-0.8,0.3-1.1,0c-0.3-0.3-0.3-0.8,0-1.1l2.2-2.3c0.3-0.3,0.3-0.8,0-1.1L9.7,3.9
	C9.6,3.7,9.4,3.6,9.2,3.6C9,3.6,8.8,3.7,8.6,3.9L8.3,4.2C8.1,4.4,8,4.6,8,4.8C8,5,8.1,5.2,8.3,5.3l6.1,6c0.1,0.1,0.2,0.3,0.2,0.5
	c0,0.2-0.1,0.4-0.2,0.5l-6.2,6C8.1,18.6,8,18.8,8,19c0,0.2,0.1,0.4,0.2,0.5l0.3,0.3c0.1,0.1,0.3,0.2,0.5,0.2c0.2,0,0.4-0.1,0.5-0.2
	c0,0,0,0,0,0l2.4-2.5c0.3-0.3,0.8-0.3,1.1,0c0.3,0.3,0.3,0.8,0,1.1l-2.4,2.5C10.3,21.3,9.7,21.6,9.1,21.6
	C9.1,21.6,9.1,21.6,9.1,21.6z"/>
</svg>
