<?xml version="1.0" encoding="utf-8"?>
<!-- Generator: Adobe Illustrator 24.0.1, SVG Export Plug-In . SVG Version: 6.00 Build 0)  -->
<svg version="1.1" id="ic_error_connection" shape-rendering="geometricPrecision"
	 xmlns="http://www.w3.org/2000/svg" xmlns:xlink="http://www.w3.org/1999/xlink" x="0px" y="0px" viewBox="0 0 24 24"
	 style="enable-background:new 0 0 24 24;" xml:space="preserve">
<style type="text/css">
	.st0{fill:#6C89D3;}
</style>
<circle id="Ellipse_601" class="st0" cx="12" cy="18.5" r="2"/>
<g id="Group_8825">
	<path id="Path_18883" class="st0" d="M10,4.4C7.3,4.7,4.7,5.8,2.6,7.5C2.1,7.9,2,8.6,2.4,9l0,0c0.4,0.4,1,0.5,1.4,0.1
		C5.6,7.7,7.7,6.8,10,6.4V4.4z"/>
	<path id="Path_18884" class="st0" d="M14,4.4v2.1c2.3,0.4,4.4,1.3,6.2,2.7c0.4,0.3,1,0.3,1.4-0.1l0,0c0.4-0.4,0.3-1.1-0.1-1.5
		C19.3,5.8,16.8,4.7,14,4.4z"/>
</g>
<g id="Group_8826">
	<path id="Path_18885" class="st0" d="M10,8.5c-1.7,0.3-3.3,1-4.6,2c-0.5,0.4-0.6,1.1-0.1,1.5l0,0c0.3,0.4,0.9,0.5,1.3,0.1
		c1-0.8,2.2-1.3,3.4-1.6V8.5z"/>
	<path id="Path_18886" class="st0" d="M14,8.5v2.1c1.2,0.3,2.4,0.8,3.4,1.6c0.4,0.3,1,0.2,1.3-0.1l0,0c0.4-0.4,0.3-1.2-0.1-1.5
		C17.3,9.5,15.7,8.8,14,8.5z"/>
</g>
<g id="Group_8827">
	<path id="Path_18887" class="st0" d="M10,12.7c-0.7,0.2-1.3,0.5-1.8,0.9c-0.5,0.3-0.6,1.1-0.2,1.5l0,0c0.3,0.4,0.9,0.4,1.3,0.2
		c0.2-0.1,0.5-0.3,0.7-0.4V12.7z"/>
	<path id="Path_18888" class="st0" d="M14,12.7v2.2c0.2,0.1,0.5,0.2,0.7,0.4c0.4,0.3,1,0.2,1.3-0.2l0,0c0.4-0.5,0.3-1.2-0.2-1.5
		C15.3,13.2,14.7,12.9,14,12.7z"/>
</g>
<path id="Path_18889" class="st0" d="M11,4.2v10.4c0.7-0.1,1.4-0.1,2,0V4.2c0-0.6-0.5-1-1-1h0C11.4,3.2,11,3.7,11,4.2z"/>
</svg>
