<?xml version="1.0" encoding="utf-8"?>
<!-- Generator: Adobe Illustrator 24.0.2, SVG Export Plug-In . SVG Version: 6.00 Build 0)  -->
<svg version="1.1" id="ic_mint_on" shape-rendering="geometricPrecision"
	 xmlns="http://www.w3.org/2000/svg" xmlns:xlink="http://www.w3.org/1999/xlink" x="0px" y="0px" viewBox="0 0 24 24"
	 style="enable-background:new 0 0 24 24;" xml:space="preserve">
<style type="text/css">
	.st0{fill:#757575;}
	.st1{fill:#686868;}
	.st2{fill:#FFFFFF;}
	.st3{fill:#AEAFAE;}
	.st4{fill:#58AF7A;}
</style>
<circle class="st0" cx="12.2" cy="11.7" r="10"/>
<path class="st1" d="M13.6,20.3c-5.5,0-10-4.5-10-10c0-2.4,0.8-4.6,2.3-6.3c-2.2,1.8-3.7,4.6-3.7,7.8c0,5.5,4.5,10,10,10
	c3.1,0,5.9-1.4,7.8-3.7C18.2,19.5,16,20.3,13.6,20.3L13.6,20.3z"/>
<path class="st2" d="M12.2,1.1C6.3,1.1,1.5,5.8,1.5,11.7s4.8,10.7,10.7,10.7s10.7-4.8,10.7-10.7S18,1.1,12.2,1.1L12.2,1.1z
	 M12.2,21.1c-5.1,0-9.3-4.2-9.3-9.3S7,2.4,12.2,2.4s9.3,4.2,9.3,9.3S17.3,21.1,12.2,21.1z"/>
<path class="st2" d="M8.1,7.7c1.5-1.5,3.5-2,5.5-1.5l-0.9,0.1C12.2,6.4,12,6.8,12,7.2c0.1,0.4,0.4,0.6,0.7,0.6c0,0,0.1,0,0.1,0
	l3.6-0.6c0.3,0,0.5-0.2,0.6-0.5s0-0.6-0.1-0.8l-2.5-2.8c-0.3-0.3-0.8-0.3-1.1-0.1S13.1,4,13.4,4.3l0.4,0.4C11.4,4.1,8.8,4.8,7,6.6
	c-2,2-2.7,5-1.6,7.7c0.1,0.3,0.4,0.5,0.7,0.5c0.1,0,0.2,0,0.3-0.1c0.4-0.1,0.6-0.6,0.4-1C6,11.7,6.5,9.3,8.1,7.7L8.1,7.7z"/>
<path class="st2" d="M17.9,8.7c-0.4,0.1-0.6,0.6-0.4,1c0.8,2.1,0.3,4.5-1.3,6.1c-1.5,1.5-3.5,2-5.5,1.5l0.9-0.1
	c0.4-0.1,0.7-0.5,0.6-0.9c-0.1-0.4-0.5-0.7-0.9-0.6l-3.6,0.6c-0.3,0-0.5,0.2-0.6,0.5c-0.1,0.3,0,0.6,0.1,0.8l2.5,2.8
	c0.1,0.2,0.4,0.3,0.6,0.3c0.2,0,0.4-0.1,0.5-0.2c0.3-0.3,0.3-0.8,0.1-1.1l-0.4-0.4c0.5,0.1,1.1,0.2,1.6,0.2c1.9,0,3.7-0.7,5.1-2.1
	c2-2,2.7-5,1.6-7.7C18.7,8.8,18.3,8.6,17.9,8.7z"/>
<g>
	<path class="st3" d="M11.6,15.1c-0.6-0.1-1.1-0.4-1.6-0.8L9.8,14h0.5c-0.4-0.4-0.7-1-0.8-1.6l0-0.1l0.7,0.1l-0.1-0.2
		c-0.3-0.5-0.4-1.2-0.1-1.8l0.3,0.4v-0.3c0-0.5,0.2-1,0.5-1.3l0.1,0.5l0-0.1c0.3-0.6,0.7-1.1,1.2-1.4l0.1,0.1
		C12.6,8.6,12.9,9,13,9.5l0.3-0.4c0.3,0.4,0.4,0.8,0.4,1.2v0.1l0.2-0.1c0.1-0.1,0.2-0.3,0.2-0.4l0.1,0.2c0.3,0.5,0.4,1,0.3,1.5
		c0.2,0,0.3-0.1,0.5-0.2l0.1-0.1L15,12.1c0,0.4-0.2,0.9-0.5,1.2h0.4L14.6,14c-0.1,0.2-0.3,0.5-0.5,0.6l0,0c-0.3,0.3-0.7,0.4-1.1,0.5
		l-0.4,0C12.2,15.2,11.9,15.2,11.6,15.1z"/>
	<g>
		<path class="st4" d="M12.3,14.7H12c-0.4,0-0.8,0-1.1-0.1l0.1-0.3c0.3,0.1,0.7,0.1,1.1,0.1h0.4l0.1,0c0.5-0.2,1-0.4,1.5-0.8
			l0.2,0.2c-0.5,0.4-1,0.6-1.6,0.8L12.3,14.7C12.4,14.7,12.4,14.7,12.3,14.7z"/>
		<path class="st4" d="M12.4,15.2L12,14.3c-0.5-1.2-0.7-2.5-0.4-3.8l0.2-1.4l0.3,0l-0.2,1.4c-0.2,1.2-0.1,2.5,0.4,3.6l0.4,0.9
			L12.4,15.2z"/>
		<path class="st4" d="M11.8,13.6L11.8,13.6c-0.6,0-1.1-0.1-1.6-0.4l0.1-0.2c0.4,0.3,0.9,0.4,1.4,0.4h0l0.5-0.1
			c0.6-0.1,1.1-0.3,1.5-0.8l0.2-0.2l0.2,0.2L14,12.7c-0.4,0.4-1,0.7-1.7,0.8L11.8,13.6C11.8,13.6,11.8,13.6,11.8,13.6z"/>
		<path class="st4" d="M12.3,12.2h-0.7c0,0,0,0,0,0l-0.5-0.1c-0.4-0.1-0.8-0.4-0.9-0.8l0.2-0.1c0.2,0.3,0.4,0.5,0.8,0.6l0.5,0.1h0.6
			c0.5,0,1-0.2,1.3-0.7l0.1-0.1l0.2,0.2l-0.1,0.1C13.5,12,12.9,12.2,12.3,12.2z"/>
		<path class="st4" d="M11.7,10.9C11.7,10.9,11.6,10.9,11.7,10.9l-0.3-0.1c-0.3-0.1-0.6-0.3-0.8-0.6l0.2-0.1
			c0.2,0.2,0.4,0.4,0.7,0.5l0.2,0.1l0.6-0.1c0.3-0.1,0.6-0.2,0.8-0.4l0.1,0.2c-0.3,0.2-0.6,0.3-0.9,0.4L11.7,10.9
			C11.7,10.9,11.7,10.9,11.7,10.9z"/>
	</g>
	<path class="st2" d="M9.4,12.3l0,0.1c0.1,0.5,0.3,1,0.6,1.5H9.8c-0.1,0-0.1,0-0.1,0.1c0,0.1,0,0.1,0,0.1l0.3,0.3
		c0.6,0.6,1.4,0.9,2.3,0.9c0.1,0,0.2,0,0.3,0l0.4,0c0.4,0,0.9-0.2,1.2-0.5c0.2-0.2,0.4-0.4,0.5-0.7l0.4-0.7c0,0,0-0.1,0-0.1
		c0,0-0.1-0.1-0.1-0.1h-0.2c0.2-0.3,0.3-0.7,0.4-1.1l0.1-0.7c0-0.1,0-0.1-0.1-0.1c-0.1,0-0.1,0-0.2,0l-0.1,0.1
		c-0.1,0.1-0.1,0.1-0.2,0.1c0-0.5-0.1-1-0.3-1.4l-0.1-0.2c0-0.1-0.1-0.1-0.2-0.1C14,9.8,14,9.9,14,10c0,0.1-0.1,0.2-0.1,0.3
		c0-0.4-0.2-0.8-0.4-1.2c0,0-0.1-0.1-0.1-0.1c0,0-0.1,0-0.1,0.1l-0.1,0.2c-0.1-0.4-0.4-0.8-0.8-1l-0.1-0.1c0,0-0.1,0-0.1,0
		c-0.5,0.3-0.8,0.7-1.1,1.2l0-0.2c0,0,0-0.1-0.1-0.1c0,0-0.1,0-0.1,0c-0.3,0.3-0.5,0.8-0.6,1.3l0,0c0,0-0.1-0.1-0.1-0.1
		s-0.1,0-0.1,0.1c-0.3,0.6-0.2,1.3,0.1,1.9l-0.4-0.1c0,0-0.1,0-0.1,0C9.4,12.2,9.4,12.2,9.4,12.3L9.4,12.3z M10.2,12.5
		c0.1,0,0.1,0,0.1-0.1c0,0,0-0.1,0-0.1l-0.1-0.2c-0.3-0.4-0.3-1-0.2-1.4l0.1,0.2c0,0,0.1,0.1,0.2,0.1c0.1,0,0.1-0.1,0.1-0.1v-0.3
		c0-0.4,0.1-0.7,0.3-1l0.1,0.3c0,0.1,0.1,0.1,0.1,0.1c0.1,0,0.1,0,0.1-0.1l0-0.1c0.2-0.5,0.6-1,1.1-1.3l0.1,0
		c0.4,0.3,0.7,0.7,0.8,1.2c0,0.1,0.1,0.1,0.1,0.1c0.1,0,0.1,0,0.1-0.1l0.2-0.2c0.2,0.3,0.3,0.6,0.3,1v0.1c0,0,0,0.1,0.1,0.1
		c0,0,0.1,0,0.1,0l0.2-0.1c0.1-0.1,0.1-0.1,0.2-0.2c0.2,0.4,0.3,0.9,0.2,1.4c0,0,0,0.1,0,0.1c0,0,0.1,0,0.1,0c0.1,0,0.3,0,0.4-0.1
		l0,0.4c0,0.4-0.2,0.8-0.4,1.1c0,0,0,0.1,0,0.1c0,0,0.1,0.1,0.1,0.1h0.2L14.4,14c-0.1,0.2-0.3,0.4-0.5,0.6c-0.3,0.2-0.7,0.4-1,0.4
		l-0.3,0l0,0l-0.2-0.4l0,0c0.6-0.2,1.1-0.4,1.6-0.8l-0.2-0.2c-0.4,0.3-0.9,0.6-1.5,0.8l-0.1,0l-0.1-0.2c-0.1-0.2-0.2-0.4-0.2-0.6
		l0.3,0c0.6-0.1,1.2-0.4,1.7-0.8l0.2-0.2L14,12.3l-0.2,0.2c-0.4,0.4-0.9,0.7-1.5,0.8l-0.3,0c-0.1-0.2-0.1-0.5-0.1-0.7
		c0-0.1,0-0.2,0-0.3h0.5c0.6,0,1.2-0.3,1.5-0.8l0.1-0.1l-0.2-0.2l-0.1,0.1c-0.3,0.4-0.8,0.7-1.3,0.7h-0.6c0-0.4,0-0.7,0-1.1l0.5-0.1
		c0.3-0.1,0.6-0.2,0.9-0.4l-0.1-0.2c-0.3,0.2-0.5,0.3-0.8,0.4l-0.4,0.1c0,0,0,0,0,0l0.2-1.4l-0.3,0l-0.2,1.4c0,0,0,0,0,0.1l-0.1,0
		c-0.3-0.1-0.5-0.3-0.7-0.5l-0.2,0.1c0.2,0.3,0.5,0.5,0.8,0.6l0.1,0.1c0,0.4-0.1,0.7,0,1.1l-0.3-0.1c-0.3-0.1-0.6-0.3-0.8-0.6
		l-0.2,0.1c0.2,0.4,0.5,0.7,0.9,0.8l0.4,0.1c0,0.1,0,0.3,0,0.4c0,0.2,0.1,0.5,0.1,0.7c-0.5,0-0.9-0.1-1.3-0.4l-0.1,0.2
		c0.5,0.3,1,0.4,1.5,0.4c0.1,0.2,0.2,0.5,0.2,0.7l0,0.1H12c-0.4,0-0.7,0-1.1-0.1l-0.1,0.3c0.4,0.1,0.7,0.1,1.1,0.1h0.2l0.2,0.4
		c-0.2,0-0.4,0-0.7-0.1c-0.6-0.1-1.1-0.4-1.5-0.8l-0.1-0.1h0.2c0.1,0,0.1,0,0.1-0.1c0-0.1,0-0.1,0-0.1C10,13.5,9.8,13,9.7,12.4
		L10.2,12.5z"/>
</g>
</svg>
