<?xml version="1.0" encoding="utf-8"?>
<!-- Generator: Adobe Illustrator 24.0.2, SVG Export Plug-In . SVG Version: 6.00 Build 0)  -->
<svg version="1.1" id="ic_check" xmlns="http://www.w3.org/2000/svg" xmlns:xlink="http://www.w3.org/1999/xlink" x="0px" y="0px"
	 viewBox="0 0 20 20" style="enable-background:new 0 0 20 20;" xml:space="preserve">
<g>
	<path d="M13.9,7c0.3,0.3,0.3,0.7,0,1l-4.7,4.7c-0.3,0.3-0.7,0.3-1,0l-2.3-2.3c-0.3-0.3-0.3-0.7,0-1s0.7-0.3,1,0l1.8,1.8L12.9,7
		C13.2,6.7,13.6,6.7,13.9,7z M18.9,9.9c0,5-4,9.1-9.1,9.1c-5,0-9.1-4-9.1-9.1c0-5,4-9.1,9.1-9.1C14.9,0.8,18.9,4.9,18.9,9.9z
		 M17.5,9.9c0-4.2-3.4-7.6-7.6-7.6S2.3,5.7,2.3,9.9s3.4,7.6,7.6,7.6S17.5,14.1,17.5,9.9z"/>
</g>
</svg>
