<?xml version="1.0" encoding="utf-8"?>
<!-- Generator: Adobe Illustrator 24.0.2, SVG Export Plug-In . SVG Version: 6.00 Build 0)  -->
<svg version="1.1" id="ic_connect" shape-rendering="geometricPrecision"
	 xmlns="http://www.w3.org/2000/svg" xmlns:xlink="http://www.w3.org/1999/xlink" x="0px" y="0px" viewBox="0 0 24 24"
	 style="enable-background:new 0 0 24 24;" xml:space="preserve">
<style type="text/css">
	.st0{fill:#035EFF;}
	.st1{fill:#B1D0FC;}
	.st2{fill:#619EF7;}
	.st3{fill:#2278F4;}
	.st4{fill:#FFFFFF;}
</style>
<g>
	<ellipse class="st0" cx="12.1" cy="19.6" rx="1" ry="1"/>
	<g>
		<g>
			<path class="st1" d="M1.5,7.9l1.8,1.8c4.8-4.9,12.7-4.9,17.6,0l1.8-1.8C16.9,2.1,7.4,2.1,1.5,7.9L1.5,7.9z"/>
		</g>
	</g>
	<g>
		<g>
			<path class="st2" d="M5.2,11.6L7,13.4c2.8-2.8,7.4-2.8,10.3,0l1.8-1.8C15.2,7.7,9,7.7,5.2,11.6L5.2,11.6z"/>
		</g>
	</g>
	<g>
		<g>
			<path class="st3" d="M8.8,15.2l1.8,1.8c0.8-0.8,2.2-0.8,3,0l1.8-1.8C13.6,13.4,10.6,13.4,8.8,15.2L8.8,15.2z"/>
		</g>
	</g>
</g>
<g>
	<path class="st4" d="M12.1,4c-0.2,0-0.3-0.1-0.4-0.3c-0.1-0.2,0-0.4,0.1-0.5c0.1-0.1,0.3-0.1,0.5,0c0.2,0.1,0.2,0.3,0.2,0.4
		C12.5,3.8,12.3,4,12.1,4z"/>
	<path class="st4" d="M13.6,17.5c-0.1,0-0.2,0-0.3-0.1c-0.3-0.3-0.7-0.5-1.2-0.5c-0.4,0-0.9,0.2-1.2,0.5c-0.1,0.1-0.2,0.1-0.3,0.1
		c-0.1,0-0.2,0-0.3-0.1l-1.8-1.8c-0.2-0.2-0.2-0.4,0-0.6c1-1,2.3-1.5,3.6-1.5s2.7,0.5,3.6,1.5c0.2,0.2,0.2,0.4,0,0.6l-1.8,1.8
		C13.8,17.5,13.7,17.5,13.6,17.5z M9.4,15.3l1.2,1.2c0.4-0.3,0.9-0.5,1.5-0.5h0c0.5,0,1,0.2,1.5,0.5l1.2-1.2c-0.8-0.6-1.7-1-2.7-1
		S10.2,14.6,9.4,15.3z"/>
	<path class="st4" d="M17.3,13.8c-0.1,0-0.2,0-0.3-0.1c-1.3-1.3-3-2-4.8-2s-3.5,0.7-4.8,2c-0.1,0.1-0.2,0.1-0.3,0.1
		c-0.1,0-0.2,0-0.3-0.1l-1.8-1.8c-0.2-0.2-0.2-0.4,0-0.6c1.9-1.9,4.5-3,7.3-3s5.3,1.1,7.3,3c0.2,0.2,0.2,0.4,0,0.6l-1.8,1.8
		C17.5,13.8,17.4,13.8,17.3,13.8L17.3,13.8z M12.1,10.9c1.9,0,3.7,0.7,5.1,2l1.2-1.2c-1.7-1.6-4-2.5-6.3-2.5S7.5,10,5.8,11.6L7,12.8
		C8.4,11.6,10.2,10.9,12.1,10.9L12.1,10.9z"/>
	<path class="st4" d="M20.9,10.2c-0.1,0-0.2,0-0.3-0.1c-2.3-2.3-5.3-3.5-8.5-3.5s-6.2,1.2-8.5,3.5c-0.1,0.1-0.2,0.1-0.3,0.1
		c-0.1,0-0.2,0-0.3-0.1L1.2,8.2c-0.2-0.2-0.2-0.4,0-0.6c1.2-1.2,2.6-2.2,4.2-3c1.5-0.7,3.1-1.2,4.7-1.4c0.2,0,0.5,0.1,0.5,0.4
		c0,0.2-0.1,0.5-0.4,0.5C7.2,4.5,4.4,5.8,2.1,7.9l1.2,1.2c2.4-2.2,5.5-3.5,8.8-3.5s6.4,1.2,8.8,3.5l1.2-1.2c-2.2-2.1-5-3.4-8.1-3.8
		c-0.2,0-0.4-0.2-0.4-0.5c0-0.2,0.2-0.4,0.5-0.4c1.7,0.2,3.2,0.7,4.7,1.4c1.5,0.7,2.9,1.7,4.2,3c0.2,0.2,0.2,0.4,0,0.6l-1.8,1.8
		C21.1,10.2,21,10.2,20.9,10.2L20.9,10.2z"/>
	<path class="st4" d="M12.1,21c-0.4,0-0.8-0.2-1-0.4c-0.6-0.6-0.6-1.5,0-2.1c0.3-0.3,0.6-0.4,1-0.4c0.4,0,0.8,0.2,1,0.4
		c0.6,0.6,0.6,1.5,0,2.1C12.9,20.9,12.5,21,12.1,21L12.1,21z M12.1,19c-0.2,0-0.3,0.1-0.4,0.2c-0.2,0.2-0.2,0.6,0,0.8
		c0.1,0.1,0.3,0.2,0.4,0.2s0.3-0.1,0.4-0.2c0.2-0.2,0.2-0.6,0-0.8c0,0,0,0,0,0C12.4,19.1,12.3,19,12.1,19z"/>
</g>
</svg>
