<?xml version="1.0" encoding="utf-8"?>
<!-- Generator: Adobe Illustrator 24.0.2, SVG Export Plug-In . SVG Version: 6.00 Build 0)  -->
<svg version="1.1" id="Capa_1" xmlns="http://www.w3.org/2000/svg" xmlns:xlink="http://www.w3.org/1999/xlink" x="0px" y="0px"
	 viewBox="0 0 24 24" style="enable-background:new 0 0 24 24;" xml:space="preserve">
<style type="text/css">
	.st0{fill:#0396E8;}
</style>
<g>
	<circle class="st0" cx="11.9" cy="11.9" r="9.8"/>
	<path d="M16.8,8.4c0.3,0.3,0.3,0.9,0,1.2L11,15.4c-0.3,0.3-0.9,0.3-1.2,0L7,12.7c-0.3-0.3-0.3-0.9,0-1.2c0.3-0.3,0.9-0.3,1.2,0
		l2.2,2.2l5.2-5.2C15.9,8.1,16.5,8.1,16.8,8.4z M23,11.9C23,18,18,23,11.9,23C5.8,23,0.8,18,0.8,11.9c0-6.1,5-11.1,11.1-11.1
		C18,0.8,23,5.8,23,11.9z M21.3,11.9c0-5.2-4.2-9.3-9.3-9.3c-5.2,0-9.3,4.2-9.3,9.3c0,5.2,4.2,9.3,9.3,9.3
		C17.1,21.3,21.3,17.1,21.3,11.9z"/>
</g>
</svg>
