<?xml version="1.0" encoding="utf-8"?>
<!-- Generator: Adobe Illustrator 24.0.1, SVG Export Plug-In . SVG Version: 6.00 Build 0)  -->
<svg version="1.1" id="Capa_1" xmlns="http://www.w3.org/2000/svg" xmlns:xlink="http://www.w3.org/1999/xlink" x="0px" y="0px"
	 viewBox="0 0 30 22" style="enable-background:new 0 0 30 22;" xml:space="preserve">
<style type="text/css">
	.st0{fill:#008CFF;}
</style>
<title>Clear Purple</title>
<desc>Created with Sketch.</desc>
<g>
	<path class="st0" d="M17.8,16.3L7.5,6.1C7.2,5.8,7.2,5.3,7.5,5l0,0c0.3-0.3,0.8-0.3,1.1,0l10.3,10.3c0.3,0.3,0.3,0.8,0,1.1l0,0
		C18.6,16.7,18.1,16.7,17.8,16.3z"/>
	<path class="st0" d="M7.5,15.2L17.8,5c0.3-0.3,0.8-0.3,1.1,0l0,0c0.3,0.3,0.3,0.8,0,1.1L8.6,16.3c-0.3,0.3-0.8,0.3-1.1,0l0,0
		C7.2,16,7.2,15.5,7.5,15.2z"/>
</g>
</svg>
