<?xml version="1.0" encoding="utf-8"?>
<!-- Generator: Adobe Illustrator 24.0.2, SVG Export Plug-In . SVG Version: 6.00 Build 0)  -->
<svg version="1.1" id="Capa_1" xmlns="http://www.w3.org/2000/svg" xmlns:xlink="http://www.w3.org/1999/xlink" x="0px" y="0px"
	 viewBox="0 0 24 24" style="enable-background:new 0 0 24 24;" xml:space="preserve">
<style type="text/css">
	.st0{fill:#FFFFFF;}
	.st1{fill:#D8D8D8;}
	.st2{fill:#3094EF;}
	.st3{fill:#0869B2;}
	.st4{fill:#F5F5F5;}
	.st5{fill:#A4C400;}
	.st6{fill:#90AC00;}
</style>
<title>Artboard</title>
<desc>Created with Sketch.</desc>
<g id="Page-1_2_">
	<g id="_x31_34---Copy-Files_1_">
		<g id="Icons_1_" transform="translate(1 1)">
			<path id="Shape_61_" class="st0" d="M10.7,14.2v1.4c0,0.1,0.1,0.1,0.1,0.1h3c0.1,0,0.1,0.1,0.1,0.1v0.4c0,0.1,0,0.1,0.1,0.1
				c0,0,0.1,0,0.1,0l0.9-0.7v1.1c0,0.6-0.5,1.1-1.1,1.1H4.1c-0.6,0-1.1-0.5-1.1-1.1V6.7h2.5c0.6,0,1.1-0.5,1.1-1.1V3.1H14
				c0.6,0,1.1,0.5,1.1,1.1v9.9l-0.9-0.7c0,0-0.1,0-0.1,0c0,0-0.1,0.1-0.1,0.1V14c0,0.1-0.1,0.1-0.1,0.1h-3
				C10.7,14.1,10.7,14.2,10.7,14.2L10.7,14.2z"/>
			<g>
				<path id="Shape_60_" class="st1" d="M13.8,15.7H13c0.1,0,0.1,0.1,0.1,0.1v0.4c0,0.1,0,0.1,0.1,0.1c0,0,0.1,0,0.1,0L14,16v-0.1
					C14,15.8,13.9,15.7,13.8,15.7L13.8,15.7z"/>
				<path id="Shape_59_" class="st1" d="M10.8,14.1H10c-0.1,0-0.1,0.1-0.1,0.1v1.4c0,0.1,0.1,0.1,0.1,0.1h0.8
					c-0.1,0-0.1-0.1-0.1-0.1v-1.4C10.7,14.2,10.7,14.1,10.8,14.1z"/>
				<path id="Shape_58_" class="st1" d="M14.2,16.8c0,0.6-0.5,1.1-1.1,1.1H14c0.6,0,1.1-0.5,1.1-1.1v-1.1l-0.8,0.6V16.8z"/>
				<path id="Shape_57_" class="st1" d="M13.1,13.6V14c0,0.1-0.1,0.1-0.1,0.1h0.8c0.1,0,0.1-0.1,0.1-0.1v-0.1l-0.6-0.5
					c0,0-0.1,0-0.1,0C13.2,13.5,13.1,13.5,13.1,13.6L13.1,13.6z"/>
				<path id="Shape_56_" class="st1" d="M14,3.1h-0.8c0.6,0,1.1,0.5,1.1,1.1v9.3l0.8,0.6V4.2C15.1,3.6,14.6,3.1,14,3.1z"/>
			</g>
			<path id="Shape_55_" class="st2" d="M6.6,3.1v2.5c0,0.6-0.5,1.1-1.1,1.1H3L6.6,3.1z"/>
			<path id="Shape_54_" d="M12.3,4.5h-1.6c-0.2,0-0.3-0.1-0.3-0.3c0-0.2,0.1-0.3,0.3-0.3h1.6c0.2,0,0.3,0.1,0.3,0.3
				C12.6,4.4,12.5,4.5,12.3,4.5z"/>
			<path id="Shape_53_" d="M14,4.5h-0.5c-0.2,0-0.3-0.1-0.3-0.3c0-0.2,0.1-0.3,0.3-0.3H14c0.2,0,0.3,0.1,0.3,0.3
				C14.2,4.4,14.1,4.5,14,4.5z"/>
			<path id="Shape_52_" class="st2" d="M18.9,5.3v12.6c0,0.6-0.5,1.1-1.1,1.1H7.9c-0.6,0-1.1-0.5-1.1-1.1H14c0.6,0,1.1-0.5,1.1-1.1
				v-1.1l1-0.7c0,0,0.1-0.1,0.1-0.1c0,0,0-0.1-0.1-0.1l-1-0.7V4.2h2.7C18.4,4.2,18.9,4.7,18.9,5.3z"/>
			<path id="Shape_51_" class="st3" d="M17.8,4.2H17c0.6,0,1.1,0.5,1.1,1.1v12.6c0,0.6-0.5,1.1-1.1,1.1h0.8c0.6,0,1.1-0.5,1.1-1.1
				V5.3C18.9,4.7,18.4,4.2,17.8,4.2z"/>
			<path id="Shape_50_" class="st4" d="M16.2,5.6h-1.1c-0.2,0-0.3-0.1-0.3-0.3c0-0.2,0.1-0.3,0.3-0.3h1.1c0.2,0,0.3,0.1,0.3,0.3
				C16.4,5.5,16.3,5.6,16.2,5.6z"/>
			<path id="Shape_49_" class="st4" d="M17.8,5.6h-0.5c-0.2,0-0.3-0.1-0.3-0.3C17,5.2,17.1,5,17.3,5h0.5c0.2,0,0.3,0.1,0.3,0.3
				C18.1,5.5,18,5.6,17.8,5.6z"/>
			<path id="Shape_48_" class="st5" d="M16,15l-1,0.7l-0.9,0.7c0,0-0.1,0-0.1,0c0,0-0.1-0.1-0.1-0.1v-0.4c0-0.1-0.1-0.1-0.1-0.1h-3
				c-0.1,0-0.1-0.1-0.1-0.1v-1.4c0-0.1,0.1-0.1,0.1-0.1h3c0.1,0,0.1-0.1,0.1-0.1v-0.4c0-0.1,0-0.1,0.1-0.1c0,0,0.1,0,0.1,0l0.9,0.7
				l1,0.7c0,0,0.1,0.1,0.1,0.1C16.1,15,16,15,16,15L16,15z"/>
			<path id="Shape_47_" class="st6" d="M16,14.8l-1-0.7l-0.9-0.7c0,0-0.1,0-0.1,0c0,0-0.1,0.1-0.1,0.1v0.3l0.3,0.2l1,0.7
				c0,0,0.1,0.1,0.1,0.1c0,0,0,0.1-0.1,0.1l-1,0.7L14,16v0.3c0,0.1,0,0.1,0.1,0.1c0,0,0.1,0,0.1,0l0.9-0.7l1-0.7
				c0,0,0.1-0.1,0.1-0.1C16.1,14.9,16,14.8,16,14.8L16,14.8z"/>
		</g>
		<g id="Layer_2_1_">
			<path id="Shape_46_" d="M6.2,9.3h2.5c0.2,0,0.3-0.1,0.3-0.3S8.8,8.8,8.6,8.8H6.2C6,8.8,5.9,8.9,5.9,9.1S6,9.3,6.2,9.3z"/>
			<path id="Shape_45_" d="M10,9.3h4.1c0.2,0,0.3-0.1,0.3-0.3s-0.1-0.3-0.3-0.3H10c-0.2,0-0.3,0.1-0.3,0.3S9.9,9.3,10,9.3z"/>
			<path id="Shape_44_" d="M14.1,10.2h-2.5c-0.2,0-0.3,0.1-0.3,0.3s0.1,0.3,0.3,0.3h2.5c0.2,0,0.3-0.1,0.3-0.3S14.3,10.2,14.1,10.2z
				"/>
			<path id="Shape_43_" d="M6.2,10.7h4.1c0.2,0,0.3-0.1,0.3-0.3s-0.1-0.3-0.3-0.3H6.2c-0.2,0-0.3,0.1-0.3,0.3S6,10.7,6.2,10.7z"/>
			<path id="Shape_42_" d="M8.9,11.8c0-0.2-0.1-0.3-0.3-0.3H6.2c-0.2,0-0.3,0.1-0.3,0.3c0,0.2,0.1,0.3,0.3,0.3h2.5
				C8.8,12.1,8.9,12,8.9,11.8z"/>
			<path id="Shape_41_" d="M14.1,11.5H10c-0.2,0-0.3,0.1-0.3,0.3c0,0.2,0.1,0.3,0.3,0.3h4.1c0.2,0,0.3-0.1,0.3-0.3
				C14.4,11.7,14.3,11.5,14.1,11.5z"/>
			<path id="Shape_40_" d="M18.8,4.9h-2.5c-0.1-0.6-0.7-1.1-1.3-1.1H7.6c-0.1,0-0.1,0-0.2,0.1L3.8,7.5C3.7,7.5,3.7,7.6,3.7,7.7v10.2
				c0,0.8,0.6,1.4,1.4,1.4h2.5c0.1,0.6,0.7,1.1,1.3,1.1h9.9c0.8,0,1.4-0.6,1.4-1.4V6.3C20.2,5.6,19.6,4.9,18.8,4.9z M15.2,17v-0.1
				c0-0.2-0.2-0.4-0.4-0.4h-2.9v-1.1h2.9c0.2,0,0.4-0.2,0.4-0.4v-0.1l1.5,1.1L15.2,17z M7.3,4.8v1.8c0,0.5-0.4,0.8-0.8,0.8H4.6
				L7.3,4.8z M4.3,17.8V8h2.2c0.8,0,1.4-0.6,1.4-1.4V4.4H15c0.5,0,0.8,0.4,0.8,0.8v9.3l-0.4-0.3c-0.1-0.1-0.3-0.1-0.4,0
				s-0.2,0.2-0.2,0.4v0.3h-2.9c-0.2,0-0.4,0.2-0.4,0.4v1.4c0,0.2,0.2,0.4,0.4,0.4h2.9v0.3c0,0.2,0.1,0.3,0.2,0.4s0.3,0.1,0.4,0
				l0.4-0.3v0.5c0,0.5-0.4,0.8-0.8,0.8H5.1C4.6,18.7,4.3,18.3,4.3,17.8z M19.6,18.9c0,0.5-0.4,0.8-0.8,0.8H8.9
				c-0.3,0-0.7-0.2-0.8-0.5H15c0.8,0,1.4-0.6,1.4-1.4v-1l0.8-0.6c0.1-0.1,0.2-0.2,0.2-0.3c0-0.1-0.1-0.3-0.2-0.3L16.3,15v-1.8H18
				c0.2,0,0.3-0.1,0.3-0.3c0-0.2-0.1-0.3-0.3-0.3h-1.6v-0.8H18c0.2,0,0.3-0.1,0.3-0.3s-0.1-0.3-0.3-0.3h-1.6v-0.8H18
				c0.2,0,0.3-0.1,0.3-0.3S18.1,9.9,18,9.9h-1.6V5.5h2.5c0.5,0,0.8,0.4,0.8,0.8V18.9z"/>
		</g>
	</g>
</g>
</svg>
