<?xml version="1.0" encoding="utf-8"?>
<!-- Generator: Adobe Illustrator 24.0.2, SVG Export Plug-In . SVG Version: 6.00 Build 0)  -->
<svg version="1.1" id="ic_zpiv" xmlns="http://www.w3.org/2000/svg" xmlns:xlink="http://www.w3.org/1999/xlink" x="0px" y="0px"
	 viewBox="0 0 24 24" style="enable-background:new 0 0 24 24;" xml:space="preserve">
<style type="text/css">
	.st0{fill:url(#SVGID_1_);}
	.st1{fill:#FFFFFF;}
</style>
<linearGradient id="SVGID_1_" gradientUnits="userSpaceOnUse" x1="13.2745" y1="23.4934" x2="10.8447" y2="0.8439">
	<stop  offset="0" style="stop-color:#00C7FF"/>
	<stop  offset="0.2807" style="stop-color:#00BEFF"/>
	<stop  offset="0.7459" style="stop-color:#00A4FF"/>
	<stop  offset="0.9944" style="stop-color:#0094FF"/>
</linearGradient>
<circle class="st0" cx="12" cy="12" r="11.5"/>
<g>
	<path class="st1" d="M15.9,11.8c-0.7,0-1.3,0.3-1.8,0.7c-0.1,0.1-0.2,0.1-0.3,0l-1.2-0.7c-0.1,0-0.1-0.1-0.1-0.2l0-1.4
		c0-0.1,0.1-0.2,0.2-0.2c1.1-0.3,1.8-1.2,1.8-2.4c0-1.3-1.1-2.4-2.4-2.4c-1.4,0-2.4,1.1-2.4,2.4c0,1.1,0.8,2.1,1.8,2.4
		c0.1,0,0.2,0.1,0.2,0.2l0,1.4c0,0.1-0.1,0.2-0.1,0.2l-1.2,0.7c-0.1,0.1-0.2,0-0.3,0c-0.4-0.5-1.1-0.7-1.8-0.7
		c-1.3,0-2.4,1.1-2.4,2.4c0,1.3,1.1,2.4,2.4,2.4c1.3,0,2.4-1.1,2.4-2.4c0-0.2,0-0.4-0.1-0.7c0-0.1,0-0.2,0.1-0.3l1.2-0.7
		c0.1,0,0.2,0,0.3,0l1.2,0.7c0.1,0.1,0.1,0.2,0.1,0.3c-0.1,0.2-0.1,0.4-0.1,0.7c0,1.3,1.1,2.4,2.4,2.4c1.3,0,2.4-1.1,2.4-2.4
		C18.3,12.9,17.2,11.8,15.9,11.8z"/>
	<path class="st1" d="M11.2,15.6c-0.5,1.1-1.6,1.9-2.9,1.9C6.5,17.4,5,16,5,14.2C5,12.4,6.5,11,8.2,11c0.8,0,1.6,0.3,2.1,0.8
		l0.6-0.3l0-0.8c-0.8-0.6-1.7-1-2.8-1c-2.5,0-4.5,2-4.5,4.5s2,4.5,4.5,4.5c1.4,0,2.7-0.7,3.6-1.8C11.5,16.5,11.3,16.1,11.2,15.6z"/>
	<path class="st1" d="M12,3.2c-2.5,0-4.5,2-4.5,4.5c0,0.6,0.1,1.2,0.4,1.8c0.1,0,0.2,0,0.4,0c0.4,0,0.8,0.1,1.2,0.1
		C9.1,9,8.8,8.4,8.8,7.6c0-1.8,1.4-3.2,3.2-3.2c1.8,0,3.2,1.4,3.2,3.2c0,1.4-0.9,2.6-2.2,3.1l0,0.8l0.6,0.4c1.7-0.6,2.9-2.3,2.9-4.2
		C16.5,5.2,14.5,3.2,12,3.2z"/>
	<path class="st1" d="M16.4,9.8c-0.2,0.5-0.5,0.9-0.9,1.2c0.1,0,0.2,0,0.3,0c1.8,0,3.2,1.4,3.2,3.2c0,1.8-1.4,3.2-3.2,3.2
		c-1.8,0-3.2-1.4-3.2-3.2c0-0.2,0-0.4,0.1-0.7l-0.6-0.3l-0.7,0.3c0,0.2,0,0.4,0,0.6c0,2.5,2,4.5,4.5,4.5c2.5,0,4.5-2,4.5-4.5
		C20.3,11.9,18.6,10.1,16.4,9.8z"/>
</g>
<path class="st1" d="M12,1C6,1,1,6,1,12s4.9,11,11,11s11-4.9,11-11S18.1,1,12,1z M12,21.7c-5.3,0-9.6-4.3-9.6-9.6S6.7,2.4,12,2.4
	s9.6,4.3,9.6,9.6S17.4,21.7,12,21.7z"/>
<path class="st1" d="M12,2.6c-5.2,0-9.4,4.2-9.4,9.4s4.2,9.4,9.4,9.4s9.4-4.2,9.4-9.4S17.3,2.6,12,2.6z M12,21.3
	c-5.1,0-9.2-4.1-9.2-9.2S7,2.8,12,2.8S21.3,7,21.3,12S17.1,21.3,12,21.3z"/>
</svg>
