<?xml version="1.0" encoding="utf-8"?>
<!-- Generator: Adobe Illustrator 24.0.1, SVG Export Plug-In . SVG Version: 6.00 Build 0)  -->
<svg version="1.1" id="ic-transaction-staked" xmlns="http://www.w3.org/2000/svg" xmlns:xlink="http://www.w3.org/1999/xlink"
	 x="0px" y="0px" viewBox="0 0 24 24" style="enable-background:new 0 0 24 24;" xml:space="preserve">
<style type="text/css">
	.st0{fill:#FFFFFF;}
</style>
<g>
	<path class="st0" d="M37.3,0.5c-6.1,0-11,4.9-11,11s4.9,11,11,11s11-4.9,11-11S43.3,0.5,37.3,0.5z M37.3,20.2
		c-4.9,0-8.8-3.9-8.8-8.8s3.9-8.7,8.8-8.7s8.8,3.9,8.8,8.8S42.1,20.2,37.3,20.2z"/>
	<path class="st0" d="M37.3,3.2c-4.6,0-8.3,3.7-8.3,8.3s3.7,8.3,8.3,8.3s8.3-3.7,8.3-8.3S41.8,3.2,37.3,3.2z M37.3,18.7
		c-4,0-7.3-3.3-7.3-7.3s3.2-7.2,7.3-7.2s7.3,3.3,7.3,7.3S41.3,18.7,37.3,18.7z"/>
</g>
<path class="st0" d="M20.1,14.1c-0.9-0.7-2-0.7-2.9-0.2c-0.1,0-0.2,0.1-0.3,0.1l-3.3-2.5L16.8,9c0.1,0.1,0.2,0.1,0.3,0.1
	c0.9,0.5,2,0.4,2.9-0.2C21.3,8,21.6,6.2,20.6,5c-0.9-1.2-2.7-1.5-3.9-0.6c-0.9,0.6-1.2,1.7-1.1,2.7c0,0.1,0,0.2,0,0.4l-2.8,2.1V6.1
	C13,6,13,5.9,13.1,5.9c0.9-0.5,1.5-1.4,1.5-2.5c0-1.5-1.2-2.8-2.8-2.8S9.1,1.9,9.1,3.4c0,1.1,0.6,2,1.5,2.5C10.8,5.9,10.9,6,11,6.1
	v3.5L8.1,7.5c0-0.1,0-0.2,0-0.4c0.2-1-0.2-2.1-1.1-2.7C5.8,3.5,4.1,3.8,3.2,5C2.3,6.2,2.5,8,3.8,8.9c0.9,0.6,2,0.7,2.9,0.2
	C6.8,9.1,6.9,9.1,7,9l3.3,2.5L7,14c-0.1-0.1-0.2-0.1-0.3-0.1c-0.9-0.5-2-0.4-2.9,0.2C2.5,15,2.3,16.7,3.2,18
	c0.9,1.2,2.7,1.5,3.9,0.6c0.9-0.7,1.2-1.7,1.1-2.7c0-0.1,0-0.2,0-0.4l2.8-2.1v3.5c-0.1,0-0.2,0.1-0.3,0.2c-0.9,0.5-1.5,1.4-1.5,2.5
	c0,1.5,1.2,2.8,2.8,2.8s2.8-1.2,2.8-2.8c0-1.1-0.6-2-1.5-2.5C13,17,13,17,12.9,16.9v-3.5l2.8,2.1c0,0.1,0,0.2,0,0.4
	c-0.2,1,0.2,2.1,1.1,2.7c1.2,0.9,3,0.7,3.9-0.6C21.6,16.7,21.3,15,20.1,14.1z"/>
</svg>
