<?xml version="1.0" encoding="utf-8"?>
<!-- Generator: Adobe Illustrator 24.0.1, SVG Export Plug-In . SVG Version: 6.00 Build 0)  -->
<svg version="1.1" id="ic_unlocked" shape-rendering="geometricPrecision"
	 xmlns="http://www.w3.org/2000/svg" xmlns:xlink="http://www.w3.org/1999/xlink" x="0px" y="0px" viewBox="0 0 24 24"
	 style="enable-background:new 0 0 24 24;" xml:space="preserve">
<style type="text/css">
	.st0{fill:#7C7687;}
</style>
<path id="Path_18909" class="st0" d="M8,10l0-1.8c0-1.7,1-3.3,2.6-3.9c1.3-0.5,2.6-0.3,3.6,0.4c0.4,0.3,0.9,0.2,1.3-0.1l0,0
	c0.4-0.4,0.4-1.2-0.1-1.5c-2.6-1.7-6.2-1.2-8.2,1.5C6.3,5.6,6,6.9,6,8.2L6,10h0c-1.1,0-2,0.9-2,2v8c0,1.1,0.9,2,2,2h12
	c1.1,0,2-0.9,2-2v-8c0-1.1-0.9-2-2-2H8z M17,20H7c-0.6,0-1-0.5-1-1V13c0-0.6,0.5-1,1-1H17c0.6,0,1,0.5,1,1V19C18,19.5,17.5,20,17,20
	z"/>
</svg>
