<?xml version="1.0" encoding="utf-8"?>
<!-- Generator: Adobe Illustrator 24.0.1, SVG Export Plug-In . SVG Version: 6.00 Build 0)  -->
<svg version="1.1" id="Capa_1" shape-rendering="crispEdges"
	 xmlns="http://www.w3.org/2000/svg" xmlns:xlink="http://www.w3.org/1999/xlink" x="0px" y="0px" viewBox="0 0 24 24"
	 style="enable-background:new 0 0 24 24;" xml:space="preserve">
<style type="text/css">
	.st0{filter:url(#Adobe_OpacityMaskFilter);}
	.st1{fill-rule:evenodd;clip-rule:evenodd;fill:#FFFFFF;}
	.st2{mask:url(#mask-2_1_);fill-rule:evenodd;clip-rule:evenodd;fill:#FFFFFF;}
</style>
<title>Top BarTheme</title>
<desc>Created with Sketch.</desc>
<g id="Top-BarTheme">
	<g id="Group-3" transform="translate(4.000000, 2.000000)">
		<g id="Clip-2">
		</g>
		<defs>
			<filter id="Adobe_OpacityMaskFilter" filterUnits="userSpaceOnUse" x="0" y="0" width="16.9" height="20">
				<feColorMatrix  type="matrix" values="1 0 0 0 0  0 1 0 0 0  0 0 1 0 0  0 0 0 1 0"/>
			</filter>
		</defs>
		<mask maskUnits="userSpaceOnUse" x="0" y="0" width="16.9" height="20" id="mask-2_1_">
			<g class="st0">
				<polygon id="path-1_1_" class="st1" points="0,0 16.9,0 16.9,20 0,20 				"/>
			</g>
		</mask>
		<path id="Fill-1" class="st2" d="M11.2,19.9c0.1,0,0.2,0,0.2,0c0.3,0,0.6-0.1,0.9-0.2c0.1,0,0.2,0,0.2-0.1
			c0.3-0.1,0.6-0.2,0.9-0.3c0.1,0,0.1,0,0.2-0.1c0.4-0.1,0.7-0.3,1-0.5l0.2-0.1c0.8-0.4,1.4-0.9,2.1-1.5L14.3,17
			C10.8,16.6,8,13.6,8,10c0-3.6,2.7-6.6,6.3-7l2.6-0.3c-0.6-0.6-1.3-1.1-2.1-1.5l-0.2-0.1c-0.3-0.2-0.7-0.3-1-0.5
			c-0.1,0-0.1,0-0.2-0.1c-0.3-0.1-0.6-0.2-0.9-0.3c-0.1,0-0.2,0-0.2-0.1c-0.3-0.1-0.6-0.1-0.9-0.2c-0.1,0-0.2,0-0.2,0
			C7.4-0.4,3.6,1.4,1.5,4.7c-2.1,3.3-2.1,7.4,0,10.7C3.6,18.6,7.4,20.4,11.2,19.9"/>
	</g>
</g>
</svg>
