<?xml version="1.0" encoding="utf-8"?>
<!-- Generator: Adobe Illustrator 24.0.2, SVG Export Plug-In . SVG Version: 6.00 Build 0)  -->
<svg version="1.1" id="Capa_1" xmlns="http://www.w3.org/2000/svg" xmlns:xlink="http://www.w3.org/1999/xlink" x="0px" y="0px"
	 viewBox="0 0 24 24" style="enable-background:new 0 0 24 24;" xml:space="preserve">
<style type="text/css">
	.st0{fill:#F7E365;}
	.st1{fill:#F3D332;}
	.st2{fill:#FAA68E;}
	.st3{fill:#E09380;}
	.st4{fill:#5EC4FC;}
	.st5{fill:#005AEA;}
	.st6{fill:#655E67;}
	.st7{fill:#F9B1A0;}
</style>
<title>Artboard</title>
<desc>Created with Sketch.</desc>
<g>
	<path class="st0" d="M21.1,1.6h-5.5c-0.6,0-1.1,0.5-1.1,1.1v5.5c0,0.6,0.5,1.1,1.1,1.1h1c0.3,0,0.5,0.2,0.5,0.5v0.9
		c0,0.2,0.2,0.3,0.4,0.1l1-1.3c0.1-0.1,0.2-0.2,0.4-0.2h2.2c0.6,0,1.1-0.5,1.1-1.1V2.7C22.1,2.1,21.7,1.6,21.1,1.6L21.1,1.6z"/>
	<path class="st1" d="M21.1,1.6h-1.1c0.6,0,1.1,0.5,1.1,1.1v5.5c0,0.6-0.5,1.1-1.1,1.1h1.1c0.6,0,1.1-0.5,1.1-1.1V2.7
		C22.1,2.1,21.7,1.6,21.1,1.6L21.1,1.6z"/>
	<path class="st2" d="M14.3,22.3H3.2l0.2-2.1c0.1-1.3,1.1-2.3,2.3-2.5l0.9-0.1c0.4-0.1,0.8-0.5,0.8-0.9v-3.2h3.3v3.2
		c0,0.5,0.3,0.8,0.8,0.9l0.9,0.1c1.3,0.2,2.2,1.2,2.3,2.5l0.1,1.6C14.7,22.1,14.5,22.3,14.3,22.3L14.3,22.3z"/>
	<path class="st3" d="M6.5,19.6c0-0.1,0.2-0.2,0.3-0.2h1.4c0.8,0,1.4-0.6,1.4-1.4v-0.6c0-0.1,0.1-0.2,0.2-0.2h0.9
		c-0.1-0.1-0.1-0.3-0.1-0.5v-1H7.7c-0.2,0-0.2-0.2-0.2-0.3l0.6-0.8c0.1-0.1,0.1-0.3,0.1-0.4c0-0.2-0.1-0.4-0.3-0.6l0,0
		c-0.2-0.1-0.4-0.2-0.6-0.1v3.2c0,0.5-0.3,0.8-0.8,0.9l-0.9,0.1c-0.6,0.1-1.1,0.4-1.5,0.8l-0.9,3.6l0,0.2h2.7L6.5,19.6z"/>
	<path class="st4" d="M14.3,22.3H3.2l0.2-2.1c0.1-1.3,1.1-2.3,2.3-2.5l0.9-0.1c0.1,0,0.1,0,0.2,0c0.5,0.6,1.3,1,2.2,1
		c0.9,0,1.7-0.4,2.2-1c0.1,0,0.1,0,0.2,0.1l0.9,0.1c1.3,0.2,2.2,1.2,2.3,2.5l0.1,1.6C14.7,22.1,14.5,22.3,14.3,22.3L14.3,22.3z"/>
	<path class="st5" d="M6.9,19.3h1.4c0.6,0,1.1-0.4,1.3-0.9c-0.2,0-0.4,0.1-0.6,0.1c-0.9,0-1.7-0.4-2.2-1c-0.5,0.2-1.6,0-2.6,1
		l-0.9,3.6l0,0.2h2.7l0.7-2.8C6.6,19.4,6.7,19.3,6.9,19.3L6.9,19.3z"/>
	<path class="st5" d="M14.7,21.9l-0.1-1.6c0-0.6-0.3-1.2-0.7-1.7c-0.9-1-2.1-0.9-2.6-1c0,0,0,0,0,0c0,0,0,0,0,0
		c-0.1,0.1-0.2,0.2-0.3,0.3l0.2,0c1.3,0.2,2.2,1.2,2.3,2.5l0.1,1.6c0,0.1,0,0.3-0.1,0.3h0.8C14.5,22.3,14.7,22.1,14.7,21.9z"/>
	<path class="st6" d="M9.5,3H8.1c-1.6,0-3,0.9-3.8,2.2c-1,0.3-1.8,1.2-1.8,2.4l0.1,4.2h12.2V8.4C14.9,5.4,12.5,3,9.5,3L9.5,3z"/>
	<g>
		<path class="st2" d="M5.3,12.5H3.2c-0.5,0-0.9-0.4-0.9-0.9v-0.3c0-0.5,0.4-0.9,0.9-0.9h2.2V12.5z"/>
		<path class="st2" d="M12.3,12.5h2.2c0.5,0,0.9-0.4,0.9-0.9v-0.3c0-0.5-0.4-0.9-0.9-0.9h-2.2L12.3,12.5z"/>
		<path class="st2" d="M13.9,11c0,3.1-3.1,4.9-4.9,4.9C7.1,15.9,4,14.1,4,11c0-2,0.5-3.5,1.4-4.5c0.2-0.2,0.6-0.2,0.8,0
			C6.4,6.8,6.6,7,6.8,7.2c0.3,0.2,0.6,0.5,1,0.5c0.2,0,0.5-0.1,0.6-0.3c0.1-0.2,0.3-0.2,0.5-0.1c1.2,0.5,2.4,0.9,3.7,0.9
			c0.5,0,0.9,0.4,1.1,0.9C13.8,9.6,13.9,10.3,13.9,11z"/>
	</g>
	<path class="st3" d="M13.7,9c-0.1-0.4-0.4-0.7-0.8-0.8c0.1,0.6,0.2,1.2,0.2,1.8c0,3.2-3.2,5-5,5c-0.9,0-2-0.4-3-1.1
		c1.1,1.3,2.7,2,3.9,2c1.8,0,4.9-1.8,4.9-4.9C13.9,10.3,13.8,9.6,13.7,9L13.7,9z"/>
	<path class="st7" d="M4.9,22.3l0.9-3.5c0-0.1,0.2-0.3,0.3-0.3h1.4c0.8,0,1.4-0.6,1.4-1.4v-0.6c0-0.1,0.1-0.2,0.2-0.2h1.4
		c0.4,0,0.7-0.3,0.7-0.7c0-0.2-0.1-0.4-0.2-0.5c-0.1-0.1-0.3-0.2-0.5-0.2H7c-0.2,0-0.2-0.2-0.2-0.3l0.6-0.8c0.1-0.1,0.1-0.3,0.1-0.4
		c0-0.2-0.1-0.4-0.3-0.6l0,0c-0.3-0.2-0.8-0.2-1,0.2c-0.4,0.6-2.2,3.1-2.4,3.4L2.3,22c0,0.2,0.1,0.4,0.3,0.4L4.9,22.3L4.9,22.3z"/>
	<g>
		<path d="M18.3,2.8c-0.8,0-1.5,0.7-1.5,1.5c0,0.2,0.1,0.3,0.3,0.3c0.2,0,0.3-0.1,0.3-0.3c0-0.5,0.4-0.8,0.8-0.8
			c0.5,0,0.8,0.4,0.8,0.8s-0.4,0.8-0.8,0.8h-0.2c-0.2,0-0.3,0.1-0.3,0.3v1.1c0,0.2,0.1,0.3,0.3,0.3c0.2,0,0.3-0.1,0.3-0.3V5.7
			c0.7-0.1,1.3-0.7,1.3-1.4C19.8,3.5,19.1,2.8,18.3,2.8z"/>
		<path d="M18.1,7.3c-0.2,0-0.3,0.1-0.3,0.3v0.1C17.8,7.9,18,8,18.1,8s0.3-0.1,0.3-0.3V7.6C18.4,7.4,18.3,7.3,18.1,7.3z"/>
		<path d="M21.1,1.3h-5.5c-0.8,0-1.4,0.6-1.4,1.4v2.5c-1-1.5-2.7-2.4-4.7-2.4H8.1c-1.6,0-3.2,0.9-4,2.3C3,5.3,2.2,6.4,2.2,7.6
			l0.1,2.7c-0.2,0.2-0.4,0.6-0.4,0.9v0.3c0,0.7,0.6,1.3,1.3,1.3H4c0.2,0.5,0.5,1,0.9,1.5c-0.2,0.3-1.4,1.9-1.4,2c0,0,0,0.1,0,0.1
			L2,21.9c0,0.2,0,0.4,0.1,0.5c0.1,0.2,0.3,0.2,0.5,0.2h11.6c0.2,0,0.4-0.1,0.6-0.2c0.1-0.2,0.2-0.4,0.2-0.6l-0.1-1.6
			c0-0.4-0.1-0.8-0.3-1.2c-0.1-0.2-0.3-0.2-0.4-0.1C14,19,13.9,19.2,14,19.3c0.1,0.3,0.2,0.6,0.3,0.9l0.1,1.6c0,0,0,0.1,0,0.1
			c0,0,0,0-0.1,0h-1.4v-1.3c0-0.2-0.1-0.3-0.3-0.3c-0.2,0-0.3,0.1-0.3,0.3V22H5.3L6.1,19c0,0,0,0,0,0h1.4c0.3,0,0.5-0.1,0.8-0.2
			c0.2,0,0.4,0.1,0.6,0.1c0.9,0,1.7-0.3,2.3-0.9l0,0c0.1,0,0,0,0.9,0.1c0.3,0.1,0.7,0.2,0.9,0.4c0.1,0,0.1,0,0.2,0
			c0.1,0,0.2-0.1,0.3-0.1c0.1-0.1,0.1-0.3-0.1-0.4c-0.4-0.2-0.8-0.4-1.2-0.5c-0.8-0.1-0.9-0.1-1-0.2c-0.2-0.1-0.4-0.3-0.4-0.6
			c0.4-0.2,0.6-0.5,0.6-0.9c0-0.1,0-0.2-0.1-0.3c0.7-0.4,1.8-1.3,2.4-2.6h0.6c0.7,0,1.3-0.6,1.3-1.3v-0.3c0-0.4-0.2-0.7-0.4-1V9.5
			c0.1,0,0.2,0,0.3,0h1c0.1,0,0.2,0.1,0.2,0.2v0.9c0,0.2,0.1,0.4,0.3,0.5c0.1,0,0.1,0,0.2,0c0.2,0,0.3-0.1,0.4-0.2l1-1.3
			c0,0,0.1-0.1,0.1-0.1h2.2c0.8,0,1.4-0.6,1.4-1.4V2.7C22.4,1.9,21.8,1.3,21.1,1.3L21.1,1.3z M2.6,11.5v-0.3c0-0.3,0.3-0.6,0.6-0.6
			h0.5c0,0.5,0,1,0.1,1.5H3.2C2.8,12.2,2.6,11.9,2.6,11.5z M8.9,18.2c0.2-0.3,0.3-0.6,0.3-0.9v-0.5h1.1c0,0.3,0.2,0.6,0.4,0.8
			C10.2,18,9.6,18.2,8.9,18.2z M10.5,16.1H9.1c-0.3,0-0.6,0.2-0.6,0.6v0.6c0,0.6-0.5,1-1,1H6.2c-0.3,0-0.6,0.2-0.6,0.5L4.7,22H2.6
			l1.4-5.5c0.1-0.2,2.1-3,2.4-3.3c0.1-0.1,0.2-0.1,0.3-0.2c0.1,0,0.2,0,0.3,0.1l0,0c0.1,0.1,0.2,0.2,0.2,0.3c0,0.1,0,0.2-0.1,0.2
			l-0.6,0.8c-0.1,0.2-0.1,0.4,0,0.5c0.1,0.2,0.3,0.3,0.4,0.3h3.5c0.1,0,0.2,0,0.3,0.1c0.1,0.1,0.1,0.2,0.1,0.3
			C10.9,16,10.7,16.1,10.5,16.1z M15.1,11.5c0,0.3-0.3,0.6-0.6,0.6H14c0.1-0.4,0.1-0.7,0.1-1.1c0-0.1,0-0.3,0-0.4h0.3
			c0.3,0,0.6,0.3,0.6,0.6V11.5z M14.4,10h-0.3c0-0.4-0.1-0.7-0.2-1c-0.1-0.6-0.7-1.1-1.4-1.1C11.4,7.8,10.2,7.5,9,6.9
			c-0.3-0.1-0.7,0-0.9,0.2C8.1,7.3,7.9,7.4,7.8,7.3C7.6,7.3,7.3,7.2,7,7C6.8,6.8,6.6,6.6,6.4,6.4C6.3,6.2,6,6.1,5.8,6.1h0
			c-0.2,0-0.5,0.1-0.6,0.3C4.9,6.7,4.6,7.1,4.4,7.5c-0.1,0.2,0,0.3,0.1,0.4C4.7,8,4.9,7.9,5,7.8c0.2-0.4,0.4-0.7,0.7-1
			c0-0.1,0.1-0.1,0.1-0.1c0,0,0.1,0,0.1,0.1C6.2,7,6.4,7.3,6.6,7.4C6.9,7.7,7.3,8,7.8,8c0.3,0,0.7-0.2,0.9-0.5c0,0,0.1,0,0.1,0
			c1.2,0.6,2.5,0.9,3.8,1c0.4,0,0.7,0.3,0.8,0.6c0.1,0.4,0.1,0.8,0.2,1.2c0,0.2,0,0.5,0,0.7c0,0.5-0.1,0.9-0.2,1.3
			c-0.5,1.3-1.5,2.1-2.2,2.5c-0.2-0.1-0.4-0.2-0.6-0.2H7.2l0.5-0.6c0.1-0.2,0.2-0.4,0.2-0.6c0-0.3-0.2-0.6-0.4-0.8l0,0
			c-0.2-0.2-0.5-0.2-0.8-0.2c-0.3,0-0.5,0.2-0.7,0.4c-0.1,0.2-0.3,0.5-0.6,0.9c-0.4-0.4-0.6-0.9-0.8-1.4c-0.2-0.7-0.3-1.3-0.2-2
			c0-0.4,0.1-0.8,0.2-1.2c0-0.2-0.1-0.3-0.2-0.4c-0.2,0-0.3,0.1-0.4,0.2c-0.1,0.3-0.1,0.7-0.2,1H3.2c-0.1,0-0.2,0-0.2,0L2.9,7.6
			c0-1,0.6-1.8,1.5-2.1c0.1,0,0.2-0.1,0.2-0.1c0.7-1.3,2.1-2.1,3.5-2.1h1.4c2.8,0,5.1,2.3,5.1,5.1V10C14.6,10,14.5,10,14.4,10
			L14.4,10z M21.8,8.2c0,0.4-0.3,0.7-0.7,0.7h-2.2c-0.3,0-0.5,0.1-0.6,0.3l-0.8,1.1V9.7c0-0.5-0.4-0.8-0.8-0.8h-1
			c-0.1,0-0.2,0-0.3-0.1V8.4c0-0.7-0.1-1.4-0.4-2.1V2.7c0-0.4,0.3-0.7,0.7-0.7h5.5c0.4,0,0.7,0.3,0.7,0.7V8.2z"/>
		<path d="M7.4,11.3c0.2,0,0.3-0.1,0.3-0.3v-0.3c0-0.2-0.1-0.3-0.3-0.3c-0.2,0-0.3,0.1-0.3,0.3V11C7,11.2,7.2,11.3,7.4,11.3z"/>
		<path d="M12,11.3c0.2,0,0.3-0.1,0.3-0.3v-0.3c0-0.2-0.1-0.3-0.3-0.3c-0.2,0-0.3,0.1-0.3,0.3V11C11.7,11.2,11.9,11.3,12,11.3
			L12,11.3z"/>
		<path d="M9.1,12.9c0.4-0.2,0.8-0.2,1.3,0c0,0,0.1,0,0.2,0c0.1,0,0.2-0.1,0.3-0.2c0.1-0.1,0-0.3-0.1-0.4c-0.6-0.4-1.3-0.4-1.9,0
			c-0.1,0.1-0.2,0.3-0.1,0.4C8.8,12.9,9,13,9.1,12.9L9.1,12.9z"/>
	</g>
</g>
</svg>
