<?xml version="1.0" encoding="utf-8"?>
<!-- Generator: Adobe Illustrator 24.0.2, SVG Export Plug-In . SVG Version: 6.00 Build 0)  -->
<svg version="1.1" id="ic_error_connection" shape-rendering="geometricPrecision"
	 xmlns="http://www.w3.org/2000/svg" xmlns:xlink="http://www.w3.org/1999/xlink" x="0px" y="0px" viewBox="0 0 24 24"
	 style="enable-background:new 0 0 24 24;" xml:space="preserve">
<style type="text/css">
	.st0{fill:#FFFFFF;}
</style>
<g>
	<path class="st0" d="M12.2,3.8c-0.2,0-0.3-0.1-0.4-0.3c-0.1-0.2,0-0.4,0.1-0.5c0.1-0.1,0.3-0.1,0.5,0c0.2,0.1,0.2,0.3,0.2,0.4
		C12.6,3.6,12.4,3.8,12.2,3.8z"/>
	<path class="st0" d="M13.7,17.3c-0.1,0-0.2,0-0.3-0.1c-0.3-0.3-0.7-0.5-1.2-0.5c-0.4,0-0.9,0.2-1.2,0.5c-0.1,0.1-0.2,0.1-0.3,0.1
		c-0.1,0-0.2,0-0.3-0.1l-1.8-1.8c-0.2-0.2-0.2-0.4,0-0.6c1-1,2.3-1.5,3.6-1.5s2.7,0.5,3.6,1.5c0.2,0.2,0.2,0.4,0,0.6L14,17.2
		C13.9,17.3,13.8,17.3,13.7,17.3z M9.5,15.1l1.2,1.2c0.4-0.3,0.9-0.5,1.5-0.5h0c0.5,0,1,0.2,1.5,0.5l1.2-1.2c-0.8-0.6-1.7-1-2.7-1
		S10.3,14.4,9.5,15.1z"/>
	<path class="st0" d="M17.3,13.6c-0.1,0-0.2,0-0.3-0.1c-1.3-1.3-3-2-4.8-2s-3.5,0.7-4.8,2c-0.1,0.1-0.2,0.1-0.3,0.1
		c-0.1,0-0.2,0-0.3-0.1l-1.8-1.8c-0.2-0.2-0.2-0.4,0-0.6c1.9-1.9,4.5-3,7.3-3s5.3,1.1,7.3,3c0.2,0.2,0.2,0.4,0,0.6l-1.8,1.8
		C17.6,13.6,17.5,13.6,17.3,13.6L17.3,13.6z M12.2,10.7c1.9,0,3.7,0.7,5.1,2l1.2-1.2c-1.7-1.6-4-2.5-6.3-2.5s-4.6,0.9-6.3,2.5
		l1.2,1.2C8.5,11.4,10.3,10.7,12.2,10.7L12.2,10.7z"/>
	<path class="st0" d="M21,10c-0.1,0-0.2,0-0.3-0.1c-2.3-2.3-5.3-3.5-8.5-3.5S6,7.6,3.7,9.9C3.6,10,3.5,10,3.4,10
		c-0.1,0-0.2,0-0.3-0.1L1.3,8c-0.2-0.2-0.2-0.4,0-0.6c1.2-1.2,2.6-2.2,4.2-3c1.5-0.7,3.1-1.2,4.7-1.4c0.2,0,0.5,0.1,0.5,0.4
		c0,0.2-0.1,0.5-0.4,0.5C7.2,4.3,4.5,5.6,2.2,7.7L3.4,9c2.4-2.2,5.5-3.5,8.8-3.5S18.6,6.7,21,9l1.2-1.2c-2.2-2.1-5-3.4-8.1-3.8
		c-0.2,0-0.4-0.2-0.4-0.5c0-0.2,0.2-0.4,0.5-0.4c1.7,0.2,3.2,0.7,4.7,1.4c1.5,0.7,2.9,1.7,4.2,3c0.2,0.2,0.2,0.4,0,0.6l-1.8,1.8
		C21.2,10,21.1,10,21,10L21,10z"/>
	<path class="st0" d="M12.2,20.8c-0.4,0-0.8-0.2-1-0.4c-0.6-0.6-0.6-1.5,0-2.1c0.3-0.3,0.6-0.4,1-0.4s0.8,0.2,1,0.4
		c0.6,0.6,0.6,1.5,0,2.1C13,20.7,12.6,20.8,12.2,20.8L12.2,20.8z M12.2,18.8c-0.2,0-0.3,0.1-0.4,0.2c-0.2,0.2-0.2,0.6,0,0.8
		c0.1,0.1,0.3,0.2,0.4,0.2s0.3-0.1,0.4-0.2c0.2-0.2,0.2-0.6,0-0.8c0,0,0,0,0,0C12.5,18.9,12.4,18.8,12.2,18.8z"/>
</g>
</svg>
