<?xml version="1.0" encoding="utf-8"?>
<!-- Generator: Adobe Illustrator 24.0.1, SVG Export Plug-In . SVG Version: 6.00 Build 0)  -->
<svg version="1.1" id="ic_piv" xmlns="http://www.w3.org/2000/svg" xmlns:xlink="http://www.w3.org/1999/xlink" x="0px" y="0px"
	 viewBox="0 0 24 24" style="enable-background:new 0 0 24 24;" xml:space="preserve">
<style type="text/css">
	.st0{fill:#44A2E2;}
	.st1{fill:#FFFFFF;}
</style>
<circle class="st0" cx="12" cy="12" r="11.1"/>
<g>
	<path class="st1" d="M15.7,11.8c-0.7,0-1.3,0.3-1.7,0.7c-0.1,0.1-0.2,0.1-0.3,0l-1.2-0.7c-0.1,0-0.1-0.1-0.1-0.2l0-1.3
		c0-0.1,0.1-0.2,0.2-0.2c1-0.3,1.8-1.2,1.8-2.3c0-1.3-1-2.3-2.3-2.4c-1.3,0-2.4,1-2.4,2.4c0,1.1,0.8,2,1.8,2.3
		c0.1,0,0.2,0.1,0.2,0.2l0,1.4c0,0.1,0,0.2-0.1,0.2l-1.2,0.7c-0.1,0.1-0.2,0-0.3,0c-0.4-0.4-1-0.7-1.7-0.7c-1.3,0-2.3,1.1-2.3,2.4
		c0,1.3,1.1,2.3,2.3,2.3c1.3,0,2.4-1.1,2.4-2.4c0-0.2,0-0.4-0.1-0.6c0-0.1,0-0.2,0.1-0.3l1.2-0.7c0.1,0,0.2,0,0.3,0l1.2,0.7
		c0.1,0.1,0.1,0.2,0.1,0.3c-0.1,0.2-0.1,0.4-0.1,0.6c0,1.3,1.1,2.4,2.4,2.4c1.3,0,2.3-1,2.3-2.3C18,12.8,17,11.8,15.7,11.8z"/>
	<path class="st1" d="M11.2,15.2c-0.4,1.2-1.6,2-2.9,2c-1.7,0-3.1-1.4-3.1-3.1c0-1.7,1.4-3.1,3.1-3.1c0.8,0,1.5,0.3,2.1,0.8l0.6-0.3
		l0-0.8c-0.7-0.6-1.7-0.9-2.7-0.9C5.9,9.8,4,11.7,4,14.1s1.9,4.3,4.3,4.3c1.5,0,2.7-0.7,3.5-1.8C11.5,16.2,11.3,15.7,11.2,15.2z"/>
	<path class="st1" d="M12,3.4c-2.4,0-4.3,1.9-4.3,4.3C7.6,8.4,7.8,9,8,9.6c0.1,0,0.2,0,0.3,0c0.4,0,0.9,0.1,1.3,0.2
		c-0.4-0.5-0.7-1.2-0.7-2c0-1.7,1.4-3.1,3.1-3.1c1.7,0,3.1,1.4,3.1,3.1c0,1.4-0.9,2.6-2.2,3l0,0.7l0.6,0.3c1.6-0.6,2.8-2.2,2.8-4.1
		C16.3,5.4,14.4,3.4,12,3.4z"/>
	<path class="st1" d="M16.1,9.8c-0.2,0.5-0.6,0.9-0.9,1.3c0.2,0,0.3,0,0.5,0c1.7,0,3.1,1.4,3.1,3.1c0,1.7-1.4,3.1-3.1,3.1
		c-1.7,0-3.1-1.4-3.1-3.1c0-0.2,0-0.4,0.1-0.6L12,13.2l-0.6,0.3c0,0.2,0,0.4,0,0.6c0,2.4,1.9,4.3,4.3,4.3c2.4,0,4.3-1.9,4.3-4.3
		C20,11.9,18.3,10,16.1,9.8z"/>
</g>
<path class="st1" d="M12,1.3C6.1,1.3,1.3,6.1,1.3,12S6.1,22.7,12,22.7S22.7,17.9,22.7,12S17.9,1.3,12,1.3z M12,21.3
	c-5.1,0-9.3-4.2-9.3-9.3S6.8,2.7,12,2.7s9.3,4.2,9.3,9.3S17.1,21.3,12,21.3z"/>
<path class="st1" d="M12,2.9c-5,0-9.1,4.1-9.1,9.1s4.1,9.1,9.1,9.1s9.1-4.1,9.1-9.1S17,2.9,12,2.9z M12,20.9c-4.9,0-8.9-4-8.9-8.9
	s4-8.9,8.9-8.9s8.9,4,8.9,8.9S16.9,20.9,12,20.9z"/>
</svg>
