<?xml version="1.0" encoding="utf-8"?>
<!-- Generator: Adobe Illustrator 24.0.1, SVG Export Plug-In . SVG Version: 6.00 Build 0)  -->
<svg version="1.1" id="Capa_1" shape-rendering="geometricPrecision"
	 xmlns="http://www.w3.org/2000/svg" xmlns:xlink="http://www.w3.org/1999/xlink" x="0px" y="0px" viewBox="0 0 24 24"
	 style="enable-background:new 0 0 24 24;" xml:space="preserve">
<style type="text/css">
	.st0{fill:#FFFFFF;}
</style>
<title>Top Bar Sync</title>
<desc>Created with Sketch.</desc>
<g id="Top-Bar-Sync">
	<g id="Group" transform="translate(3.000000, 2.000000)">
		<path id="Path_18901" class="st0" d="M9,17c-2.3,0-4.4-1.1-5.7-3H6v-2H0v6h2v-2.4c2.4,3,6.4,4.1,10,2.9c3.2-1.1,5.5-4,5.9-7.4
			c0.1-0.6-0.4-1.1-1-1.1h0c-0.5,0-0.9,0.4-1,0.9C15.5,14.3,12.6,17,9,17z"/>
		<path id="Path_18902" class="st0" d="M16,2v2.4c-2.4-3-6.4-4.1-10-2.9c-3.2,1.1-5.5,4-5.9,7.4C0,9.5,0.5,10,1.1,10h0
			c0.5,0,0.9-0.4,1-0.9c0.3-2.7,2.2-5,4.9-5.8C9.8,2.4,13,3.5,14.7,6H12v2h6V2H16z"/>
	</g>
</g>
</svg>
