<?xml version="1.0" encoding="utf-8"?>
<!-- Generator: Adobe Illustrator 24.0.1, SVG Export Plug-In . SVG Version: 6.00 Build 0)  -->
<svg version="1.1" id="ic_peers_connection" shape-rendering="geometricPrecision"
	 xmlns="http://www.w3.org/2000/svg" xmlns:xlink="http://www.w3.org/1999/xlink" x="0px" y="0px" viewBox="0 0 24 24"
	 style="enable-background:new 0 0 24 24;" xml:space="preserve">
<style type="text/css">
	.st0{fill:#FFFFFF;}
</style>
<g>
	<path class="st0" d="M18.2,12.9c-1.1,0-2.1,0.4-2.8,1.2c-0.1,0.1-0.3,0.2-0.5,0.1l-2-1.1c-0.1-0.1-0.2-0.2-0.2-0.4l0-2.2
		c0-0.2,0.1-0.3,0.3-0.4C14.7,9.6,16,8,16,6.2c0-2.1-1.7-3.9-3.9-3.9c-2.2,0-4,1.7-4,3.9c0,1.8,1.3,3.4,3,3.8c0.2,0,0.3,0.2,0.3,0.4
		l0,2.3c0,0.2-0.1,0.3-0.2,0.4l-2,1.1c-0.2,0.1-0.4,0.1-0.5-0.1C8,13.3,7,12.9,5.9,12.9c-2.1,0-3.9,1.8-3.9,3.9
		c0,2.2,1.8,3.9,3.9,3.9c2.2,0,3.9-1.8,3.9-3.9c0-0.4-0.1-0.7-0.1-1.1c0-0.2,0-0.4,0.2-0.5l2-1.1c0.1-0.1,0.3-0.1,0.4,0l1.9,1.1
		c0.2,0.1,0.2,0.3,0.2,0.5c-0.1,0.3-0.2,0.7-0.2,1.1c0,2.2,1.8,3.9,3.9,3.9c2.2,0,3.9-1.7,3.9-3.9C22.1,14.7,20.4,12.9,18.2,12.9z"
		/>
</g>
</svg>
