<?xml version="1.0" encoding="utf-8"?>
<!-- Generator: Adobe Illustrator 24.0.1, SVG Export Plug-In . SVG Version: 6.00 Build 0)  -->
<svg version="1.1" id="ic_locked" xmlns="http://www.w3.org/2000/svg" xmlns:xlink="http://www.w3.org/1999/xlink" x="0px" y="0px"
	 viewBox="0 0 24 24" style="enable-background:new 0 0 24 24;" xml:space="preserve">
<style type="text/css">
	.st0{fill:#FFFFFF;}
</style>
<path id="Path_18899" class="st0" d="M18,10l0-1.7C18,5,15.5,2.1,12.2,2C8.8,1.9,6,4.6,6,8v2h0c-1.1,0-2,0.9-2,2v8c0,1.1,0.9,2,2,2
	h12c1.1,0,2-0.9,2-2v-8C20,10.9,19.1,10,18,10L18,10z M8,8c0-2.2,1.8-4,4-4s4,1.8,4,4v2H8V8z M16.4,20H7.6C6.7,20,6,19.3,6,18.4
	v-4.8C6,12.7,6.7,12,7.6,12h8.8c0.9,0,1.6,0.7,1.6,1.6v4.8C18,19.3,17.3,20,16.4,20z"/>
</svg>
