<?xml version="1.0" encoding="utf-8"?>
<!-- Generator: Adobe Illustrator 24.0.1, SVG Export Plug-In . SVG Version: 6.00 Build 0)  -->
<svg version="1.1" id="ic_close" xmlns="http://www.w3.org/2000/svg" xmlns:xlink="http://www.w3.org/1999/xlink" x="0px" y="0px"
	 viewBox="0 0 20 20" style="enable-background:new 0 0 20 20;" xml:space="preserve">
<style type="text/css">
	.st0{fill:#6D6D6D;}
</style>
<title>ic-close-white</title>
<desc>Created with Sketch.</desc>
<g>
	<path class="st0" d="M16.5,18.4L1.9,3.8c-0.4-0.4-0.4-1.1,0-1.6l0,0c0.4-0.4,1.1-0.4,1.6,0l14.6,14.6c0.4,0.4,0.4,1.1,0,1.6l0,0
		C17.6,18.8,16.9,18.8,16.5,18.4z"/>
	<path class="st0" d="M1.9,16.8L16.5,2.2c0.4-0.4,1.1-0.4,1.6,0v0c0.4,0.4,0.4,1.1,0,1.6L3.5,18.4c-0.4,0.4-1.1,0.4-1.6,0h0
		C1.5,17.9,1.5,17.2,1.9,16.8z"/>
</g>
</svg>
