<?xml version="1.0" encoding="utf-8"?>
<!-- Generator: Adobe Illustrator 24.0.2, SVG Export Plug-In . SVG Version: 6.00 Build 0)  -->
<svg version="1.1" id="Capa_1" xmlns="http://www.w3.org/2000/svg" xmlns:xlink="http://www.w3.org/1999/xlink" x="0px" y="0px"
	 viewBox="0 0 24 24" style="enable-background:new 0 0 24 24;" xml:space="preserve">
<style type="text/css">
	.st0{fill:#69C5F7;}
	.st1{fill:#0762E5;}
	.st2{fill:#E5EBF5;}
	.st3{fill:#D15573;}
	.st4{fill:#C21D44;}
	.st5{fill:#CAD8EA;}
	.st6{fill:#72869E;}
	.st7{fill:#536275;}
	.st8{fill:#FFFFFF;}
</style>
<g>
	<path class="st0" d="M10.3,22.7L3.7,21V3.8l6.7-1.7V22.7z"/>
	<path class="st1" d="M4.9,21V3.8l5.4-1.4V2.1L3.7,3.8V21l6.7,1.7v-0.3L4.9,21z"/>
	<path class="st2" d="M9,12.4c0,0.4-0.4,0.8-0.8,0.8c-0.4,0-0.8-0.4-0.8-0.8s0.4-0.8,0.8-0.8C8.6,11.6,9,12,9,12.4z"/>
	<path class="st3" d="M16.7,11.1h-6.4v3.4h6.4v1.9l4.8-3.6l-4.8-3.6V11.1z"/>
	<path class="st4" d="M10.3,11.1h1.3v3.4h-1.3V11.1z"/>
	<path class="st2" d="M10.3,4h4.4v7h-4.4V4z"/>
	<path class="st2" d="M10.3,14.5h4.4v6.3h-4.4V14.5z"/>
	<path class="st5" d="M10.3,4h1.3v7h-1.3V4z"/>
	<path class="st5" d="M10.3,14.5h1.3v6.3h-1.3V14.5z"/>
	<path class="st6" d="M10.3,14.5h3v4.9h-3V14.5z"/>
	<path class="st6" d="M10.3,5.4h3v5.7h-3V5.4z"/>
	<path class="st7" d="M10.3,14.5h1.3v4.9h-1.3V14.5z"/>
	<path class="st7" d="M10.3,5.4h1.3v5.7h-1.3V5.4z"/>
	<path class="st8" d="M14.9,13.1h-0.6v-0.6h0.6V13.1z M13.8,13.1h-0.6v-0.6h0.6V13.1z"/>
	<path class="st8" d="M3.4,21.2l7.3,1.9V1.7L3.4,3.6V21.2z M4,4.1l6-1.6v19.9l-6-1.6V4.1z"/>
	<path class="st8" d="M8.2,11.3c-0.6,0-1.1,0.5-1.1,1.1s0.5,1.1,1.1,1.1s1.1-0.5,1.1-1.1S8.8,11.3,8.2,11.3z M8.2,12.9
		c-0.3,0-0.5-0.2-0.5-0.5s0.2-0.5,0.5-0.5c0.3,0,0.5,0.2,0.5,0.5S8.4,12.9,8.2,12.9z"/>
	<path class="st8" d="M14.4,9.9H15V3.7h-3.5v0.6h2.9V9.9z"/>
	<path class="st8" d="M14.4,20.4h-2.9v0.6H15v-5.4h-0.6V20.4z"/>
	<path class="st8" d="M22,12.8l-5.6-4.3v2.2h-4.9v0.6H17V9.8l3.9,3l-3.9,3v-1.6h-5.5v0.6h4.9V17L22,12.8z"/>
	<path class="st8" d="M13,9.9h0.6V5.1h-2.2v0.6H13V9.9z"/>
	<path class="st8" d="M13.7,15.7H13v3.4h-1.5v0.6h2.2V15.7z"/>
</g>
</svg>
