<?xml version="1.0" encoding="utf-8"?>
<!-- Generator: Adobe Illustrator 24.0.2, SVG Export Plug-In . SVG Version: 6.00 Build 0)  -->
<svg version="1.1" id="Capa_1" xmlns="http://www.w3.org/2000/svg" xmlns:xlink="http://www.w3.org/1999/xlink" x="0px" y="0px"
	 viewBox="0 0 50 40" style="enable-background:new 0 0 50 40;" xml:space="preserve">
<style type="text/css">
	.st0{fill:#FFFFFF;}
	.st1{fill:#7FACFA;}
	.st2{fill:#A4C2F7;}
	.st3{fill:#E3E7F2;}
	.st4{fill:url(#SVGID_1_);}
	.st5{fill:#428DFF;}
</style>
<g>
	<path class="st0" d="M24.2,16.1v-8c0-0.1,0-0.2-0.1-0.3c-0.1-0.1-0.2-0.1-0.3-0.1h-5.1c-0.1,0-0.3-0.1-0.3-0.2L17,5.3
		c-0.1-0.1-0.2-0.2-0.3-0.2H9.4C9.2,5.1,9,5.2,9,5.5v10.6L24.2,16.1L24.2,16.1z"/>
	<path class="st1" d="M34.8,7.7h-5.1c-0.1,0-0.3-0.1-0.3-0.2l1.2,8.6h4.7v-8C35.2,7.9,35.1,7.7,34.8,7.7z"/>
	<g>
		<path class="st2" d="M33.7,16.1v-8c0-0.2-0.2-0.4-0.4-0.4H19c-0.1,0-0.3-0.1-0.3-0.2l-1.3-2.2c-0.1-0.1-0.2-0.2-0.3-0.2h-6
			c-0.2,0-0.4,0.2-0.4,0.4v10.6H33.7z"/>
		<path class="st2" d="M34.6,33.4h-8.2c-0.1,0-0.1-0.1-0.1-0.1l-2.6-17c0,0,0-0.1,0-0.1s0.1,0,0.1,0h13.4c0,0,0.1,0,0.1,0
			c0,0,0,0.1,0,0.1l-2.6,17C34.7,33.3,34.6,33.4,34.6,33.4z"/>
	</g>
	<path class="st0" d="M17.8,33.4H9.6c-0.1,0-0.1-0.1-0.1-0.1l-2.6-17c0,0,0-0.1,0-0.1s0.1,0,0.1,0h13.4c0,0,0.1,0,0.1,0
		c0,0,0,0.1,0,0.1l-2.6,17C18,33.3,17.9,33.4,17.8,33.4z"/>
	<g>
		<rect x="10.6" y="14" class="st2" width="23.1" height="2.1"/>
		<rect x="11.1" y="12.4" class="st2" width="22" height="1.6"/>
		<rect x="11.7" y="10.8" class="st2" width="21" height="1.6"/>
	</g>
	<path class="st3" d="M33,33.4H11.2c-0.1,0-0.1-0.1-0.1-0.1l-2.6-17c0,0,0-0.1,0-0.1c0,0,0.1,0,0.1,0h26.9c0,0,0.1,0,0.1,0
		c0,0,0,0.1,0,0.1l-2.6,17C33.1,33.3,33.1,33.4,33,33.4z"/>
	
		<linearGradient id="SVGID_1_" gradientUnits="userSpaceOnUse" x1="-720.257" y1="73.421" x2="-720.2069" y2="73.5004" gradientTransform="matrix(162.1333 0 0 102.4 116799.6563 -7495.8306)">
		<stop  offset="0" style="stop-color:#D4E1F4"/>
		<stop  offset="0.1717" style="stop-color:#D4E1F4"/>
		<stop  offset="0.2" style="stop-color:#D4E1F4"/>
		<stop  offset="0.2001" style="stop-color:#DAE4F4"/>
		<stop  offset="0.2007" style="stop-color:#EBEBF4"/>
		<stop  offset="0.2014" style="stop-color:#F6F1F4"/>
		<stop  offset="0.2023" style="stop-color:#FDF4F4"/>
		<stop  offset="0.205" style="stop-color:#FFF5F4"/>
		<stop  offset="0.2522" style="stop-color:#FFF5F4"/>
		<stop  offset="0.26" style="stop-color:#FFF5F4"/>
		<stop  offset="0.26" style="stop-color:#D4E1F4"/>
		<stop  offset="0.3974" style="stop-color:#D4E1F4"/>
		<stop  offset="0.42" style="stop-color:#D4E1F4"/>
		<stop  offset="0.4201" style="stop-color:#DAE4F4"/>
		<stop  offset="0.4207" style="stop-color:#EBEBF4"/>
		<stop  offset="0.4214" style="stop-color:#F6F1F4"/>
		<stop  offset="0.4223" style="stop-color:#FDF4F4"/>
		<stop  offset="0.425" style="stop-color:#FFF5F4"/>
		<stop  offset="0.4894" style="stop-color:#FFF5F4"/>
		<stop  offset="0.5" style="stop-color:#FFF5F4"/>
		<stop  offset="0.5" style="stop-color:#F9F2F4"/>
		<stop  offset="0.5001" style="stop-color:#E8EBF4"/>
		<stop  offset="0.5003" style="stop-color:#DDE5F4"/>
		<stop  offset="0.5005" style="stop-color:#D6E2F4"/>
		<stop  offset="0.501" style="stop-color:#D4E1F4"/>
		<stop  offset="0.7062" style="stop-color:#D4E1F4"/>
		<stop  offset="0.74" style="stop-color:#D4E1F4"/>
		<stop  offset="0.741" style="stop-color:#FFF5F4"/>
		<stop  offset="0.8346" style="stop-color:#FFF5F4"/>
		<stop  offset="0.85" style="stop-color:#FFF5F4"/>
		<stop  offset="0.851" style="stop-color:#D4E1F4"/>
	</linearGradient>
	<polygon class="st4" points="29.5,23.4 21.1,23.4 21.1,29.7 29.5,29.7 31,29.7 31,23.4 	"/>
	<g>
		<path class="st5" d="M34.6,33.9H9.7c-0.3,0-0.6-0.2-0.7-0.6l-2.6-17c0-0.2,0-0.4,0.2-0.5c0.1-0.1,0.3-0.2,0.5-0.2h30.1
			c0.2,0,0.4,0.1,0.5,0.2c0.1,0.1,0.2,0.3,0.2,0.5l-2.6,17C35.2,33.6,34.9,33.9,34.6,33.9L34.6,33.9z M10,32.8h24.3l2.5-16.2H7.5
			L10,32.8z"/>
		<path class="st5" d="M35.2,16.6H9c-0.1,0-0.3-0.1-0.4-0.2c-0.1-0.1-0.2-0.2-0.2-0.4V5.5c0-0.5,0.4-0.9,0.9-0.9h7.2
			c0.3,0,0.6,0.2,0.8,0.5l1.3,2.2h16.1c0.5,0,0.9,0.4,0.9,0.9v8c0,0.1-0.1,0.3-0.2,0.4C35.5,16.5,35.4,16.6,35.2,16.6z M9.6,15.5
			h25.2V8.2h-16c-0.3,0-0.6-0.2-0.8-0.5l-1.3-2.2h-7V15.5z"/>
		<path class="st5" d="M33.7,16.6H10.6c-0.1,0-0.3-0.1-0.4-0.2c-0.1-0.1-0.2-0.2-0.2-0.4V14c0-0.1,0.1-0.3,0.2-0.4
			c0.1-0.1,0.2-0.2,0.4-0.2h23.1c0.1,0,0.3,0.1,0.4,0.2c0.1,0.1,0.2,0.2,0.2,0.4v2.1c0,0.1-0.1,0.3-0.2,0.4
			C33.9,16.5,33.8,16.6,33.7,16.6L33.7,16.6z M11.1,15.5h22v-1h-22V15.5z"/>
		<path class="st5" d="M33.1,14.5h-22c-0.1,0-0.3-0.1-0.4-0.2c-0.1-0.1-0.2-0.2-0.2-0.4v-1.6c0-0.1,0.1-0.3,0.2-0.4
			c0.1-0.1,0.2-0.2,0.4-0.2h22c0.1,0,0.3,0.1,0.4,0.2c0.1,0.1,0.2,0.2,0.2,0.4V14c0,0.1-0.1,0.3-0.2,0.4
			C33.4,14.4,33.3,14.5,33.1,14.5L33.1,14.5z M11.7,13.4h21v-0.5h-21V13.4z"/>
		<path class="st5" d="M32.6,12.9h-21c-0.1,0-0.3-0.1-0.4-0.2c-0.1-0.1-0.2-0.2-0.2-0.4v-1.6c0-0.1,0.1-0.3,0.2-0.4
			c0.1-0.1,0.2-0.2,0.4-0.2h21c0.1,0,0.3,0.1,0.4,0.2c0.1,0.1,0.2,0.2,0.2,0.4v1.6c0,0.1-0.1,0.3-0.2,0.4
			C32.9,12.9,32.8,12.9,32.6,12.9L32.6,12.9z M12.2,11.9h19.9v-0.5H12.2V11.9z"/>
		<path class="st5" d="M31,30.2h-10c-0.1,0-0.3-0.1-0.4-0.2c-0.1-0.1-0.2-0.2-0.2-0.4v-6.3c0-0.1,0.1-0.3,0.2-0.4
			c0.1-0.1,0.2-0.2,0.4-0.2h10c0.1,0,0.3,0.1,0.4,0.2c0.1,0.1,0.2,0.2,0.2,0.4v6.3c0,0.1-0.1,0.3-0.2,0.4
			C31.3,30.2,31.2,30.2,31,30.2L31,30.2z M21.6,29.2h8.9v-5.2h-8.9V29.2z"/>
		<path class="st5" d="M25.3,26h-2.1c-0.3,0-0.5-0.2-0.5-0.5s0.2-0.5,0.5-0.5h2.1c0.3,0,0.5,0.2,0.5,0.5S25.5,26,25.3,26z"/>
		<path class="st5" d="M27.9,26h-0.5c-0.3,0-0.5-0.2-0.5-0.5s0.2-0.5,0.5-0.5h0.5c0.3,0,0.5,0.2,0.5,0.5S28.2,26,27.9,26z"/>
		<path class="st5" d="M28.9,28.1h-5.8c-0.3,0-0.5-0.2-0.5-0.5c0-0.3,0.2-0.5,0.5-0.5h5.8c0.3,0,0.5,0.2,0.5,0.5
			S29.2,28.1,28.9,28.1z"/>
	</g>
</g>
</svg>
