<?xml version="1.0" encoding="utf-8"?>
<!-- Generator: Adobe Illustrator 24.0.2, SVG Export Plug-In . SVG Version: 6.00 Build 0)  -->
<svg version="1.1" id="Capa_1" xmlns="http://www.w3.org/2000/svg" xmlns:xlink="http://www.w3.org/1999/xlink" x="0px" y="0px"
	 viewBox="0 0 24 24" style="enable-background:new 0 0 24 24;" xml:space="preserve">
<style type="text/css">
	.st0{fill:#CCDAEC;}
	.st1{fill:#1D3F54;}
	.st2{fill:#E8D8BF;}
	.st3{fill:#0086FF;}
</style>
<title>Artboard</title>
<desc>Created with Sketch.</desc>
<title>Artboard</title>
<desc>Created with Sketch.</desc>
<path class="st0" d="M17.3,3.7h-5.7c-0.2,0-0.4,0.1-0.5,0.2l-9.8,9.8c-0.3,0.3-0.3,0.9,0,1.2l5.6,5.6c0.3,0.3,0.9,0.3,1.2,0l9.8-9.8
	c0.1-0.1,0.2-0.3,0.2-0.5V4.5C18.1,4,17.8,3.7,17.3,3.7z M15.4,7.5c-0.6,0-1.1-0.5-1.1-1.1c0-0.6,0.5-1.1,1.1-1.1
	c0.6,0,1.1,0.5,1.1,1.1C16.6,7,16.1,7.5,15.4,7.5z"/>
<g>
	<path class="st1" d="M4.1,14.1l4.9-4.9l0.5,0.5l-4.9,4.9L4.1,14.1z"/>
	<path class="st1" d="M5.7,15.6l5.7-5.7l0.5,0.5l-5.7,5.7L5.7,15.6z"/>
	<path class="st1" d="M7.2,17.1l4.9-4.9l0.5,0.5l-4.9,4.9L7.2,17.1z"/>
</g>
<path class="st2" d="M22.9,9.1L18.8,5c-0.2-0.2-0.4-0.3-0.7-0.4v0.8c0,0,0.1,0.1,0.1,0.1l4.2,4.2c0.4,0.4,0.4,1,0,1.4
	c-0.4,0.4-1,0.4-1.3,0l-4.5-4.5c0,0.3-0.2,0.5-0.4,0.7l4.3,4.3c0.7,0.7,1.8,0.7,2.4,0C23.6,10.9,23.6,9.8,22.9,9.1z"/>
<path class="st3" d="M18.8,5c-0.1-0.1-0.2-0.2-0.3-0.2V4.5c0-0.6-0.5-1.2-1.2-1.2h-5.7c-0.3,0-0.6,0.1-0.8,0.3L1,13.5
	c-0.5,0.5-0.5,1.3,0,1.8l5.6,5.6c0.5,0.5,1.3,0.5,1.8,0l9.8-9.8c0.2-0.2,0.3-0.5,0.3-0.8V9.6l2,2c0.7,0.7,1.8,0.7,2.4,0
	c0.7-0.7,0.7-1.8,0-2.4L18.8,5z M17.7,7.7l-0.9-0.9C16.9,6.7,17,6.5,17,6.4c0-0.8-0.7-1.5-1.5-1.5c-0.8,0-1.5,0.7-1.5,1.5
	s0.7,1.5,1.5,1.5c0.4,0,0.7-0.1,1-0.4l1.3,1.3v1.4c0,0.1,0,0.2-0.1,0.3l-9.8,9.8c-0.2,0.2-0.5,0.2-0.7,0l-5.6-5.6
	c-0.2-0.2-0.2-0.5,0-0.7l9.8-9.8c0.1-0.1,0.2-0.1,0.3-0.1h5.7c0.2,0,0.4,0.2,0.4,0.4V7.7z M16.2,6.4c0,0.4-0.3,0.8-0.8,0.8
	c-0.4,0-0.8-0.3-0.8-0.8c0-0.4,0.3-0.8,0.8-0.8C15.9,5.6,16.2,5.9,16.2,6.4z M22.4,11c-0.4,0.4-1,0.4-1.4,0l-2.5-2.5V5.8l3.9,3.9
	C22.8,10,22.8,10.6,22.4,11C22.4,11,22.4,11,22.4,11L22.4,11z"/>
<path d="M4.1,14.1l4.9-4.9l0.5,0.5l-4.9,4.9L4.1,14.1z"/>
<path d="M5.7,15.6l5.7-5.7l0.5,0.5l-5.7,5.7L5.7,15.6z"/>
<path d="M7.2,17.1l4.9-4.9l0.5,0.5l-4.9,4.9L7.2,17.1z"/>
</svg>
