<?xml version="1.0" encoding="utf-8"?>
<!-- Generator: Adobe Illustrator 24.0.2, SVG Export Plug-In . SVG Version: 6.00 Build 0)  -->
<svg version="1.1" id="Capa_1" xmlns="http://www.w3.org/2000/svg" xmlns:xlink="http://www.w3.org/1999/xlink" x="0px" y="0px"
	 viewBox="0 0 24 24" style="enable-background:new 0 0 24 24;" xml:space="preserve">
<style type="text/css">
	.st0{fill:#CCDAEC;}
	.st1{fill:#1D3F54;}
	.st2{fill:#E8D8BF;}
</style>
<title>Artboard</title>
<desc>Created with Sketch.</desc>
<path class="st0" d="M17,4.4h-5.7c-0.2,0-0.4,0.1-0.5,0.2L1,14.4c-0.3,0.3-0.3,0.9,0,1.2l5.6,5.6c0.3,0.3,0.9,0.3,1.2,0l9.8-9.8
	c0.1-0.1,0.2-0.3,0.2-0.5V5.1C17.8,4.7,17.5,4.4,17,4.4z M15.2,8.2C14.5,8.2,14,7.7,14,7c0-0.6,0.5-1.1,1.1-1.1
	c0.6,0,1.1,0.5,1.1,1.1C16.3,7.7,15.8,8.2,15.2,8.2z"/>
<g>
	<path class="st1" d="M3.9,14.8l4.9-4.9l0.5,0.5l-4.9,4.9L3.9,14.8z"/>
	<path class="st1" d="M5.4,16.3l5.7-5.7l0.5,0.5l-5.7,5.7L5.4,16.3z"/>
	<path class="st1" d="M6.9,17.8l4.9-4.9l0.5,0.5l-4.9,4.9L6.9,17.8z"/>
</g>
<path class="st2" d="M22.6,9.8l-4.2-4.2c-0.2-0.2-0.4-0.3-0.7-0.4v0.8c0,0,0.1,0.1,0.1,0.1l4.2,4.2c0.4,0.4,0.4,1,0,1.4
	c-0.4,0.4-1,0.4-1.3,0l-4.5-4.5c0,0.3-0.2,0.5-0.4,0.7l4.3,4.3c0.7,0.7,1.8,0.7,2.4,0C23.3,11.6,23.3,10.5,22.6,9.8z"/>
<path d="M18.5,5.6c-0.1-0.1-0.2-0.2-0.3-0.2V5.1C18.2,4.5,17.7,4,17,4h-5.7c-0.3,0-0.6,0.1-0.8,0.3l-9.8,9.8c-0.5,0.5-0.5,1.3,0,1.8
	l5.6,5.6c0.5,0.5,1.3,0.5,1.8,0l9.8-9.8c0.2-0.2,0.3-0.5,0.3-0.8v-0.7l2,2c0.7,0.7,1.8,0.7,2.4,0c0.7-0.7,0.7-1.8,0-2.4L18.5,5.6z
	 M17.4,8.4l-0.9-0.9c0.1-0.2,0.1-0.3,0.1-0.5c0-0.8-0.7-1.5-1.5-1.5c-0.8,0-1.5,0.7-1.5,1.5s0.7,1.5,1.5,1.5c0.4,0,0.7-0.1,1-0.4
	l1.3,1.3v1.4c0,0.1,0,0.2-0.1,0.3L7.5,21c-0.2,0.2-0.5,0.2-0.7,0l-5.6-5.6c-0.2-0.2-0.2-0.5,0-0.7L11,4.9c0.1-0.1,0.2-0.1,0.3-0.1
	H17c0.2,0,0.4,0.2,0.4,0.4V8.4z M15.9,7c0,0.4-0.3,0.8-0.8,0.8c-0.4,0-0.8-0.3-0.8-0.8c0-0.4,0.3-0.8,0.8-0.8
	C15.6,6.3,15.9,6.6,15.9,7z M22.1,11.7c-0.4,0.4-1,0.4-1.4,0l-2.5-2.5V6.4l3.9,3.9C22.5,10.7,22.5,11.3,22.1,11.7
	C22.1,11.7,22.1,11.7,22.1,11.7L22.1,11.7z"/>
<path d="M3.9,14.8l4.9-4.9l0.5,0.5l-4.9,4.9L3.9,14.8z"/>
<path d="M5.4,16.3l5.7-5.7l0.5,0.5l-5.7,5.7L5.4,16.3z"/>
<path d="M6.9,17.8l4.9-4.9l0.5,0.5l-4.9,4.9L6.9,17.8z"/>
</svg>
