<?xml version="1.0" encoding="utf-8"?>
<!-- Generator: Adobe Illustrator 24.0.2, SVG Export Plug-In . SVG Version: 6.00 Build 0)  -->
<svg version="1.1" id="ic_mint" xmlns="http://www.w3.org/2000/svg" xmlns:xlink="http://www.w3.org/1999/xlink" x="0px" y="0px"
	 viewBox="0 0 24 24" style="enable-background:new 0 0 24 24;" xml:space="preserve">
<style type="text/css">
	.st0{fill:#006DF0;}
	.st1{fill:#055CA3;}
	.st2{fill:#FFFFFF;}
	.st3{fill:#AEAFAE;}
	.st4{fill:#58AF7A;}
</style>
<circle class="st0" cx="11.8" cy="12.3" r="10"/>
<path class="st1" d="M13.3,20.8c-5.5,0-10-4.5-10-10c0-2.4,0.8-4.6,2.3-6.3c-2.2,1.8-3.7,4.6-3.7,7.8c0,5.5,4.5,10,10,10
	c3.1,0,5.9-1.4,7.8-3.7C17.9,20,15.7,20.8,13.3,20.8L13.3,20.8z"/>
<path class="st2" d="M11.8,1.6C6,1.6,1.2,6.4,1.2,12.3S6,22.9,11.8,22.9s10.7-4.8,10.7-10.7S17.7,1.6,11.8,1.6L11.8,1.6z M11.8,21.6
	c-5.1,0-9.3-4.2-9.3-9.3s4.2-9.3,9.3-9.3s9.3,4.2,9.3,9.3S17,21.6,11.8,21.6z"/>
<path class="st2" d="M7.8,8.2c1.5-1.5,3.5-2,5.5-1.5l-0.9,0.1c-0.4,0.1-0.7,0.5-0.6,0.9c0.1,0.4,0.4,0.6,0.7,0.6c0,0,0.1,0,0.1,0
	l3.6-0.6c0.3,0,0.5-0.2,0.6-0.5s0-0.6-0.1-0.8l-2.5-2.8c-0.3-0.3-0.8-0.3-1.1-0.1s-0.3,0.8-0.1,1.1l0.4,0.4
	c-2.4-0.6-4.9,0.1-6.7,1.9c-2,2-2.7,5-1.6,7.7c0.1,0.3,0.4,0.5,0.7,0.5c0.1,0,0.2,0,0.3-0.1c0.4-0.1,0.6-0.6,0.4-1
	C5.7,12.2,6.2,9.8,7.8,8.2L7.8,8.2z"/>
<path class="st2" d="M17.6,9.2c-0.4,0.1-0.6,0.6-0.4,1c0.8,2.1,0.3,4.5-1.3,6.1c-1.5,1.5-3.5,2-5.5,1.5l0.9-0.1
	c0.4-0.1,0.7-0.5,0.6-0.9c-0.1-0.4-0.5-0.7-0.9-0.6l-3.6,0.6c-0.3,0-0.5,0.2-0.6,0.5c-0.1,0.3,0,0.6,0.1,0.8l2.5,2.8
	C9.6,20.9,9.8,21,10,21c0.2,0,0.4-0.1,0.5-0.2c0.3-0.3,0.3-0.8,0.1-1.1l-0.4-0.4c0.5,0.1,1.1,0.2,1.6,0.2c1.9,0,3.7-0.7,5.1-2.1
	c2-2,2.7-5,1.6-7.7C18.4,9.3,18,9.1,17.6,9.2z"/>
<g>
	<path class="st3" d="M11.3,15.7c-0.6-0.1-1.1-0.4-1.6-0.8l-0.3-0.3H10c-0.4-0.4-0.7-1-0.8-1.6l0-0.1l0.7,0.1l-0.1-0.2
		c-0.3-0.5-0.4-1.2-0.1-1.8l0.3,0.4V11c0-0.5,0.2-1,0.5-1.3l0.1,0.5l0-0.1c0.3-0.6,0.7-1.1,1.2-1.4l0.1,0.1c0.4,0.3,0.7,0.7,0.8,1.3
		L13,9.7c0.3,0.4,0.4,0.8,0.4,1.2V11l0.2-0.1c0.1-0.1,0.2-0.3,0.2-0.4l0.1,0.2c0.3,0.5,0.4,1,0.3,1.5c0.2,0,0.3-0.1,0.5-0.2l0.1-0.1
		l-0.1,0.7c0,0.4-0.2,0.9-0.5,1.2h0.4l-0.4,0.7c-0.1,0.2-0.3,0.5-0.5,0.6l0,0c-0.3,0.3-0.7,0.4-1.1,0.5l-0.4,0
		C11.9,15.7,11.6,15.7,11.3,15.7z"/>
	<g>
		<path class="st4" d="M12,15.2h-0.4c-0.4,0-0.8,0-1.1-0.1l0.1-0.3c0.3,0.1,0.7,0.1,1.1,0.1H12l0.1,0c0.5-0.2,1-0.4,1.5-0.8l0.2,0.2
			c-0.5,0.4-1,0.6-1.6,0.8L12,15.2C12.1,15.2,12,15.2,12,15.2z"/>
		<path class="st4" d="M12.1,15.8l-0.4-0.9c-0.5-1.2-0.7-2.5-0.4-3.8l0.2-1.4l0.3,0l-0.2,1.4c-0.2,1.2-0.1,2.5,0.4,3.6l0.4,0.9
			L12.1,15.8z"/>
		<path class="st4" d="M11.5,14.1L11.5,14.1c-0.6,0-1.1-0.1-1.6-0.4l0.1-0.2c0.4,0.3,0.9,0.4,1.4,0.4h0l0.5-0.1
			c0.6-0.1,1.1-0.3,1.5-0.8l0.2-0.2l0.2,0.2l-0.2,0.2c-0.4,0.4-1,0.7-1.7,0.8L11.5,14.1C11.5,14.1,11.5,14.1,11.5,14.1z"/>
		<path class="st4" d="M12,12.8h-0.7c0,0,0,0,0,0l-0.5-0.1c-0.4-0.1-0.8-0.4-0.9-0.8l0.2-0.1c0.2,0.3,0.4,0.5,0.8,0.6l0.5,0.1H12
			c0.5,0,1-0.2,1.3-0.7l0.1-0.1l0.2,0.2L13.6,12C13.2,12.5,12.6,12.8,12,12.8z"/>
		<path class="st4" d="M11.4,11.4C11.3,11.4,11.3,11.4,11.4,11.4l-0.3-0.1c-0.3-0.1-0.6-0.3-0.8-0.6l0.2-0.1
			c0.2,0.2,0.4,0.4,0.7,0.5l0.2,0.1l0.6-0.1c0.3-0.1,0.6-0.2,0.8-0.4l0.1,0.2c-0.3,0.2-0.6,0.3-0.9,0.4L11.4,11.4
			C11.4,11.4,11.4,11.4,11.4,11.4z"/>
	</g>
	<path class="st2" d="M9.1,12.8l0,0.1c0.1,0.5,0.3,1,0.6,1.5H9.5c-0.1,0-0.1,0-0.1,0.1c0,0.1,0,0.1,0,0.1l0.3,0.3
		c0.6,0.6,1.4,0.9,2.3,0.9c0.1,0,0.2,0,0.3,0l0.4,0c0.4,0,0.9-0.2,1.2-0.5c0.2-0.2,0.4-0.4,0.5-0.7l0.4-0.7c0,0,0-0.1,0-0.1
		c0,0-0.1-0.1-0.1-0.1h-0.2c0.2-0.3,0.3-0.7,0.4-1.1l0.1-0.7c0-0.1,0-0.1-0.1-0.1c-0.1,0-0.1,0-0.2,0l-0.1,0.1
		c-0.1,0.1-0.1,0.1-0.2,0.1c0-0.5-0.1-1-0.3-1.4l-0.1-0.2c0-0.1-0.1-0.1-0.2-0.1c-0.1,0-0.1,0.1-0.1,0.1c0,0.1-0.1,0.2-0.1,0.3
		c0-0.4-0.2-0.8-0.4-1.2c0,0-0.1-0.1-0.1-0.1c0,0-0.1,0-0.1,0.1l-0.1,0.2c-0.1-0.4-0.4-0.8-0.8-1l-0.1-0.1c0,0-0.1,0-0.1,0
		c-0.5,0.3-0.8,0.7-1.1,1.2l0-0.2c0,0,0-0.1-0.1-0.1c0,0-0.1,0-0.1,0c-0.3,0.3-0.5,0.8-0.6,1.3l0,0c0,0-0.1-0.1-0.1-0.1
		c0,0-0.1,0-0.1,0.1c-0.3,0.6-0.2,1.3,0.1,1.9l-0.4-0.1c0,0-0.1,0-0.1,0C9.1,12.7,9.1,12.7,9.1,12.8L9.1,12.8z M9.8,13
		C9.9,13,10,13,10,13c0,0,0-0.1,0-0.1l-0.1-0.2c-0.3-0.4-0.3-1-0.2-1.4l0.1,0.2c0,0,0.1,0.1,0.2,0.1c0.1,0,0.1-0.1,0.1-0.1V11
		c0-0.4,0.1-0.7,0.3-1l0.1,0.3c0,0.1,0.1,0.1,0.1,0.1c0.1,0,0.1,0,0.1-0.1l0-0.1c0.2-0.5,0.6-1,1.1-1.3l0.1,0
		c0.4,0.3,0.7,0.7,0.8,1.2c0,0.1,0.1,0.1,0.1,0.1c0.1,0,0.1,0,0.1-0.1L13,9.9c0.2,0.3,0.3,0.6,0.3,1V11c0,0,0,0.1,0.1,0.1
		c0,0,0.1,0,0.1,0l0.2-0.1c0.1-0.1,0.1-0.1,0.2-0.2c0.2,0.4,0.3,0.9,0.2,1.4c0,0,0,0.1,0,0.1c0,0,0.1,0,0.1,0c0.1,0,0.3,0,0.4-0.1
		l0,0.4c0,0.4-0.2,0.8-0.4,1.1c0,0,0,0.1,0,0.1c0,0,0.1,0.1,0.1,0.1h0.2l-0.3,0.5c-0.1,0.2-0.3,0.4-0.5,0.6c-0.3,0.2-0.7,0.4-1,0.4
		l-0.3,0l0,0l-0.2-0.4l0,0c0.6-0.2,1.1-0.4,1.6-0.8l-0.2-0.2c-0.4,0.3-0.9,0.6-1.5,0.8l-0.1,0l-0.1-0.2c-0.1-0.2-0.2-0.4-0.2-0.6
		l0.3,0c0.6-0.1,1.2-0.4,1.7-0.8l0.2-0.2l-0.2-0.2L13.5,13c-0.4,0.4-0.9,0.7-1.5,0.8l-0.3,0c-0.1-0.2-0.1-0.5-0.1-0.7
		c0-0.1,0-0.2,0-0.3H12c0.6,0,1.2-0.3,1.5-0.8l0.1-0.1l-0.2-0.2l-0.1,0.1c-0.3,0.4-0.8,0.7-1.3,0.7h-0.6c0-0.4,0-0.7,0-1.1l0.5-0.1
		c0.3-0.1,0.6-0.2,0.9-0.4l-0.1-0.2c-0.3,0.2-0.5,0.3-0.8,0.4l-0.4,0.1c0,0,0,0,0,0l0.2-1.4l-0.3,0L11.3,11c0,0,0,0,0,0.1l-0.1,0
		c-0.3-0.1-0.5-0.3-0.7-0.5l-0.2,0.1c0.2,0.3,0.5,0.5,0.8,0.6l0.1,0.1c0,0.4-0.1,0.7,0,1.1l-0.3-0.1c-0.3-0.1-0.6-0.3-0.8-0.6
		l-0.2,0.1c0.2,0.4,0.5,0.7,0.9,0.8l0.4,0.1c0,0.1,0,0.3,0,0.4c0,0.2,0.1,0.5,0.1,0.7c-0.5,0-0.9-0.1-1.3-0.4l-0.1,0.2
		c0.5,0.3,1,0.4,1.5,0.4c0.1,0.2,0.2,0.5,0.2,0.7l0,0.1h-0.1c-0.4,0-0.7,0-1.1-0.1l-0.1,0.3c0.4,0.1,0.7,0.1,1.1,0.1h0.2l0.2,0.4
		c-0.2,0-0.4,0-0.7-0.1c-0.6-0.1-1.1-0.4-1.5-0.8l-0.1-0.1H10c0.1,0,0.1,0,0.1-0.1s0-0.1,0-0.1c-0.4-0.4-0.7-0.9-0.7-1.5L9.8,13z"/>
</g>
</svg>
