<?xml version="1.0" encoding="utf-8"?>
<!-- Generator: Adobe Illustrator 24.0.2, SVG Export Plug-In . SVG Version: 6.00 Build 0)  -->
<svg version="1.1" id="Capa_1" xmlns="http://www.w3.org/2000/svg" xmlns:xlink="http://www.w3.org/1999/xlink" x="0px" y="0px"
	 viewBox="0 0 24 40" style="enable-background:new 0 0 24 40;" xml:space="preserve">
<style type="text/css">
	.st0{fill:#DDDDDD;}
	.st1{fill:#9B9B9B;}
	.st2{fill:#CCCCCC;}
	.st3{fill:#2E80BC;}
	.st4{fill:#FFFFFF;}
	.st5{fill:#00BDFF;}
</style>
<title>Address</title>
<desc>Created with Sketch.</desc>
<g>
	<title>Address Book Send</title>
	<desc>Created with Sketch.</desc>
	<rect x="3.8" y="10.4" class="st0" width="16.1" height="21.2"/>
	<path class="st1" d="M19.9,11.2h1.4v13.1l0,0c0.6,0,1.1,0.4,1.1,1.1v1.9c0,0.6-0.4,1.1-1.1,1.1l0,0v2.5h-1.4V11.2z"/>
	<g>
		<path class="st2" d="M2.8,12.3H5c0.4,0,0.8,0.3,0.8,0.8l0,0c0,0.4-0.3,0.8-0.8,0.8H2.8c-0.4-0.1-0.8-0.4-0.8-0.9l0,0
			C2.1,12.5,2.4,12.3,2.8,12.3z"/>
		<path class="st2" d="M2.8,16.2H5c0.4,0,0.8,0.3,0.8,0.8l0,0c0,0.4-0.3,0.8-0.8,0.8H2.8c-0.4,0-0.8-0.3-0.8-0.8l0,0
			C2.1,16.6,2.4,16.2,2.8,16.2z"/>
		<path class="st2" d="M2.8,20.2H5c0.4,0,0.8,0.3,0.8,0.8l0,0c0,0.4-0.3,0.8-0.8,0.8H2.8c-0.4,0-0.8-0.3-0.8-0.8l0,0
			C2.1,20.5,2.4,20.2,2.8,20.2z"/>
		<path class="st2" d="M2.8,24.3H5c0.4,0,0.8,0.3,0.8,0.8l0,0c0,0.4-0.3,0.8-0.8,0.8H2.8c-0.4,0-0.8-0.3-0.8-0.8l0,0
			C2.1,24.6,2.4,24.3,2.8,24.3z"/>
		<path class="st2" d="M2.8,28.3H5c0.4,0,0.8,0.3,0.8,0.8l0,0c0,0.4-0.3,0.8-0.8,0.8H2.8c-0.4,0-0.8-0.3-0.8-0.8l0,0
			C2.1,28.6,2.4,28.3,2.8,28.3z"/>
	</g>
	<g>
		<circle class="st3" cx="12.3" cy="15.9" r="1.4"/>
		<path class="st3" d="M12.3,17.3L12.3,17.3c1.2,0,2.2,1,2.2,2.2v2.2l0,0h-4.4l0,0v-2.2C10.1,18.3,11.1,17.3,12.3,17.3z"/>
	</g>
	<g>
		<path class="st4" d="M3.8,16.6c-0.1,0-0.3-0.1-0.3-0.3v-2.5c0-0.2,0.1-0.3,0.3-0.3c0.2,0,0.3,0.1,0.3,0.3v2.5
			C4.3,16.5,4,16.6,3.8,16.6z"/>
		<path class="st4" d="M3.8,20.7c-0.2,0-0.3-0.1-0.3-0.3v-2.5c0-0.2,0.1-0.3,0.3-0.3c0.2,0,0.3,0.1,0.3,0.3v2.5
			C4.3,20.4,4,20.7,3.8,20.7z"/>
		<path class="st4" d="M3.8,24.6c-0.2,0-0.3-0.1-0.3-0.3v-2.5c0-0.2,0.1-0.3,0.3-0.3c0.2,0,0.3,0.1,0.3,0.3v2.5
			C4.3,24.5,4,24.6,3.8,24.6z"/>
		<path class="st4" d="M3.8,28.6c-0.2,0-0.3-0.1-0.3-0.3v-2.5c0-0.2,0.1-0.3,0.3-0.3c0.2,0,0.3,0.1,0.3,0.3v2.5
			C4.3,28.5,4,28.6,3.8,28.6z"/>
		<path class="st4" d="M21.4,31.2h-1.4c-0.2,0-0.3-0.1-0.3-0.3c0-0.2,0.1-0.3,0.3-0.3H21v-2.2c0-0.2,0.1-0.3,0.3-0.3
			c0.4,0,0.8-0.3,0.8-0.8v-1.9c0-0.4-0.3-0.8-0.8-0.8c-0.2,0-0.3-0.1-0.3-0.3v-8.8c0-0.2,0.1-0.3,0.3-0.3c0.2,0,0.3,0.1,0.3,0.3V24
			c0.7,0.2,1.1,0.8,1.1,1.4v1.9c0,0.7-0.4,1.2-1.1,1.4v2.2C21.8,31,21.6,31.2,21.4,31.2z"/>
		<path class="st4" d="M21.4,14.4c-0.2,0-0.3-0.1-0.3-0.3v-0.3c0-0.2,0.1-0.3,0.3-0.3c0.2,0,0.3,0.1,0.3,0.3V14
			C21.8,14.3,21.6,14.4,21.4,14.4z"/>
		<path class="st4" d="M21.4,12.6c-0.2,0-0.3-0.1-0.3-0.3v-0.8h-1.1c-0.2,0-0.3-0.1-0.3-0.3c0-0.2,0.1-0.3,0.3-0.3h1.4
			c0.2,0,0.3,0.1,0.3,0.3v1.1C21.8,12.4,21.6,12.6,21.4,12.6z"/>
		<path class="st4" d="M4.9,22.1H3.2c-0.2,0-0.3-0.1-0.3-0.3s0.1-0.3,0.3-0.3H5c0.2,0,0.3-0.1,0.3-0.3c0-0.2-0.1-0.3-0.3-0.3H2.8
			c-0.2,0-0.3,0.1-0.3,0.3c0,0.2-0.1,0.3-0.3,0.3c-0.2,0-0.3-0.1-0.3-0.3c0-0.6,0.4-1.1,1.1-1.1h2.2c0.6,0,1.1,0.4,1.1,1.1
			C6.2,21.8,5.6,22.1,4.9,22.1z"/>
		<path class="st4" d="M4.9,18H3.2c-0.2,0-0.3-0.1-0.3-0.3c0-0.2,0.1-0.3,0.3-0.3H5c0.2,0,0.3-0.1,0.3-0.3S5.3,16.7,5,16.7H2.8
			c-0.2,0-0.3,0.1-0.3,0.3s-0.1,0.3-0.3,0.3c-0.2,0-0.4-0.2-0.4-0.3c0-0.6,0.4-1.1,1.1-1.1H5c0.6,0,1.1,0.4,1.1,1.1
			C6,17.6,5.6,18,4.9,18z"/>
		<path class="st4" d="M4.9,14H3.2c-0.2,0-0.3-0.1-0.3-0.3c0-0.2,0.1-0.3,0.3-0.3H5c0.2,0,0.3-0.1,0.3-0.3s-0.2-0.4-0.4-0.4H2.7
			c-0.1,0-0.3,0.1-0.3,0.3c0,0.2-0.1,0.3-0.3,0.3s-0.3-0.1-0.3-0.3c0-0.6,0.4-1.1,1.1-1.1H5c0.6,0,1.1,0.4,1.1,1.1
			C6.1,13.6,5.6,14,4.9,14z"/>
		<path class="st4" d="M4.9,30.1H3.2c-0.2,0-0.3-0.1-0.3-0.3c0-0.2,0.1-0.3,0.3-0.3H5c0.2,0,0.3-0.1,0.3-0.3S5.3,28.8,5,28.8H2.8
			c-0.2,0-0.3,0.1-0.3,0.3c0,0.2-0.1,0.3-0.3,0.3c-0.2,0-0.3-0.1-0.3-0.3c0-0.6,0.4-1.1,1.1-1.1h2.2c0.6,0,1.1,0.4,1.1,1.1
			C6.2,29.8,5.6,30.1,4.9,30.1z"/>
		<path class="st4" d="M4.9,26.1H3.2c-0.2,0-0.3-0.1-0.3-0.3c0-0.2,0.1-0.3,0.3-0.3H5c0.2,0,0.3-0.1,0.3-0.3c0-0.2-0.1-0.3-0.3-0.3
			H2.8c-0.2,0-0.3,0.1-0.3,0.3c0,0.2-0.1,0.3-0.3,0.3c-0.2,0-0.3-0.1-0.3-0.3c0-0.6,0.4-1.1,1.1-1.1h2.2c0.6,0,1.1,0.4,1.1,1.1
			C6.2,25.7,5.6,26.1,4.9,26.1z"/>
		<path class="st4" d="M19.9,31.9H3.8c-0.2,0-0.3-0.1-0.3-0.3v-0.8c0-0.2,0.1-0.3,0.3-0.3c0.2,0,0.3,0.1,0.3,0.3v0.3h15.3v-4
			c0-0.2,0.1-0.3,0.3-0.3c0.2,0,0.3,0.1,0.3,0.3v4.4C20.3,31.8,20.1,31.9,19.9,31.9z"/>
		<path class="st4" d="M19.9,26.1c-0.2,0-0.3-0.1-0.3-0.3v-15H4.3v1.4c0,0.2-0.1,0.3-0.3,0.3s-0.4-0.1-0.4-0.2v-1.9
			c0-0.2,0.1-0.3,0.3-0.3h16.1c0.2,0,0.3,0.1,0.3,0.3v15.3C20.3,26,20.1,26.1,19.9,26.1z"/>
		<path class="st4" d="M12.3,17.7c-1,0-1.9-0.8-1.9-1.9s0.8-1.8,1.9-1.8c1,0,1.9,0.8,1.9,1.9C14.1,16.9,13.3,17.7,12.3,17.7z
			 M12.3,14.8c-0.6,0-1.1,0.4-1.1,1.1c0,0.7,0.4,1.1,1.1,1.1s1.1-0.4,1.1-1.1C13.4,15.3,12.9,14.8,12.3,14.8z"/>
		<path class="st4" d="M14.4,22.1c-0.2,0-0.3-0.1-0.3-0.3v-2.2c0-1-0.8-1.9-1.9-1.9c-1,0-1.9,0.8-1.9,1.9v1.9h2.5
			c0.2,0,0.3,0.1,0.3,0.3s-0.1,0.3-0.3,0.3H10c-0.2,0-0.3-0.1-0.3-0.3v-2.2c0-1.4,1.1-2.5,2.5-2.5s2.5,1.1,2.5,2.5v2.2
			C14.8,21.9,14.6,22.1,14.4,22.1z"/>
	</g>
	<path class="st4" d="M12.3,20.7c-0.2,0-0.3-0.1-0.3-0.3v-1.4c0-0.2,0.1-0.3,0.3-0.3c0.2,0,0.3,0.1,0.3,0.3v1.4
		C12.6,20.4,12.4,20.7,12.3,20.7z"/>
	<g>
		<path class="st5" d="M10.1,24.6H9.8c-0.2,0-0.3-0.1-0.3-0.3c0-0.2,0.1-0.3,0.3-0.3h0.3c0.2,0,0.3,0.1,0.3,0.3S10.2,24.6,10.1,24.6
			z"/>
		<path class="st5" d="M16.3,24.6h-4.7c-0.2,0-0.3-0.1-0.3-0.3c0-0.2,0.1-0.3,0.3-0.3h4.7c0.2,0,0.3,0.1,0.3,0.3
			C16.6,24.5,16.5,24.6,16.3,24.6z"/>
		<path class="st5" d="M16.3,26.1h-8c-0.2,0-0.3-0.1-0.3-0.3c0-0.2,0.1-0.3,0.3-0.3h8c0.2,0,0.3,0.1,0.3,0.3
			C16.6,26,16.5,26.1,16.3,26.1z"/>
		<path class="st5" d="M14.8,27.5H8.2c-0.2,0-0.3-0.1-0.3-0.3c0-0.2,0.1-0.3,0.3-0.3h6.6c0.2,0,0.3,0.1,0.3,0.3
			C15.2,27.4,15,27.5,14.8,27.5z"/>
	</g>
</g>
</svg>
