<?xml version="1.0" encoding="utf-8"?>
<!-- Generator: Adobe Illustrator 24.0.2, SVG Export Plug-In . SVG Version: 6.00 Build 0)  -->
<svg version="1.1" id="Capa_1" xmlns="http://www.w3.org/2000/svg" xmlns:xlink="http://www.w3.org/1999/xlink" x="0px" y="0px"
	 viewBox="0 0 24 40" style="enable-background:new 0 0 24 40;" xml:space="preserve">
<style type="text/css">
	.st0{fill:#0579C9;}
	.st1{fill:#0064B7;}
	.st2{fill:#C18E52;}
	.st3{fill:#FDCB9F;}
	.st4{fill:#E8B289;}
	.st5{fill:#E8B28A;}
	.st6{fill:#E7B289;}
	.st7{fill:#666666;}
	.st8{fill:#696867;}
	.st9{fill:#004472;}
	.st10{fill:#90DAF5;}
	.st11{fill:#5A5B5B;}
	.st12{fill:#F5C59C;}
	.st13{fill:#FCCA9F;}
	.st14{fill:#5F5F5F;}
	.st15{fill:#91D8F2;}
	.st16{fill:#E4E4E4;}
	.st17{fill:#CB985C;}
	.st18{fill:#CACACA;}
	.st19{fill:#AD7B43;}
	.st20{fill:#C59459;}
	.st21{fill:#91DAF5;}
	.st22{fill:#72D0EB;}
</style>
<title>Privacy</title>
<desc>Created with Sketch.</desc>
<title>Privacy</title>
<desc>Created with Sketch.</desc>
<title>Privacy Active</title>
<desc>Created with Sketch.</desc>
<title>Privacy</title>
<desc>Created with Sketch.</desc>
<g>
	<g>
		<path class="st0" d="M13.1,7.5c0.2,0,0.5,0,0.7,0c0.1,0.1,0.2,0,0.2,0c0.4,0,0.7,0.2,0.9,0.5c0,0.1-0.1,0.1-0.2,0.2
			c-0.5,0.5-1,1-1.6,1.6C13.1,9.9,13.1,10,13,10c-1.1,0-2.2,0-3.3,0C9.6,10,9.6,10,9.6,9.9c0,0,0-0.1,0.1-0.1
			c0.5-0.5,1.1-1.1,1.6-1.6c0.2-0.1,0.3-0.3,0.4-0.4c0,0,0.1,0,0.1,0c0.4,0.4,0.4,0.4,0.9,0C12.8,7.7,12.9,7.5,13.1,7.5z"/>
		<path class="st0" d="M8.1,10c0-0.4-0.1-0.8,0.1-1.2c0.2-0.6,0.5-1,1.1-1.2c0.1,0,0.1,0,0.2-0.1c0.6,0,1.2,0,1.7,0
			c0,0.1,0,0.1-0.1,0.2c-0.2,0.1-0.3,0.3-0.5,0.5C10,8.7,9.5,9.2,8.9,9.8C8.8,9.9,8.8,10,8.6,10C8.5,10,8.3,10,8.1,10
			C8.1,10,8.1,10,8.1,10z"/>
		<path class="st0" d="M10.5,8.1c0.2-0.2,0.4-0.4,0.6-0.6c0.1,0,0.2,0,0.2,0c0.1,0.1,0.3,0.1,0.3,0.3c-0.1,0.2-0.2,0.3-0.4,0.4
			c-0.2,0-0.3,0-0.5,0C10.7,8.2,10.6,8.2,10.5,8.1z"/>
		<path class="st1" d="M14.9,8.1c-0.2-0.3-0.5-0.5-0.9-0.5c0,0,0,0,0,0c0,0,0,0,0,0c0.3,0,0.6,0,1,0c0.1,0.1,0.3,0,0.4,0.1
			C15.3,7.8,15.1,7.9,14.9,8.1C15,8.1,15,8.1,14.9,8.1z"/>
		<path class="st2" d="M14.1,7.5C14.1,7.5,14.1,7.5,14.1,7.5c-0.1,0-0.2,0.1-0.2,0C13.9,7.5,14,7.5,14.1,7.5z"/>
		<path class="st0" d="M5.7,24c0.4-0.1,0.8,0,1.2,0c0.1,0,0.2,0,0.2,0c0-0.1,0-0.1-0.1-0.2c-0.4-0.5-0.7-1-1.1-1.5c0,0,0,0,0-0.1
			c0.2-0.3,0.5-0.6,0.8-0.8C7.2,21,7.6,20.6,8,20.2c0,0,0.1-0.1,0.1-0.2c0.1-0.1,0.2-0.1,0.3-0.1c0.2,0,0.4-0.1,0.6-0.1
			c0,0,0.1,0,0.1,0c0.3,0.3,0.5,0.5,0.8,0.8c0,0,0,0.1,0.1,0.1c0,0.3,0,0.7,0,1.1c0,0,0,0.1,0,0.1c0,0.1-0.1,0.1-0.2,0.2
			c-1.2,1.2-2.4,2.4-3.6,3.6c-0.1,0.1-0.1,0.2-0.3,0.2c-0.1-0.2-0.1-0.4,0.1-0.5c0.3-0.3,0.7-0.7,1-1c0.1-0.1,0.2-0.2,0.3-0.3
			c0,0,0,0,0,0c0,0,0,0,0,0c-0.3,0.1-0.7,0-1,0C6,24.1,5.8,24.2,5.7,24z"/>
		<path class="st1" d="M5.7,24c0.5,0,0.9,0,1.4,0c0,0.1-0.1,0.2-0.1,0.3c-0.4,0.4-0.8,0.8-1.1,1.1c-0.1,0.1-0.2,0.3-0.1,0.4
			c0,0,0,0,0,0.1c0,0.1-0.1,0.2-0.2,0.2c-0.9,0.9-1.7,1.7-2.6,2.6c-0.2,0.2-0.3,0.3-0.2,0.6c0,0.2,0,0.4,0,0.6c0,0.6,0,1.2,0,1.7
			c0,0.1,0,0.2-0.1,0.3c-0.1-0.2,0-0.3,0-0.5c0-0.5,0-1,0-1.6c-0.1-0.3-0.1-0.6,0-0.9c0-0.1,0-0.2,0-0.3c0-0.7,0-1.3,0.1-2
			C2.8,25.4,4.2,24.1,5.7,24z"/>
		<path class="st3" d="M8.4,19c-0.1-0.5-0.3-0.9-0.3-1.4c0-0.1-0.1-0.1-0.2-0.1c-0.2,0-0.4,0-0.6,0c-0.1,0-0.2,0-0.3,0
			c0.2-0.1,0.4-0.1,0.6-0.1c0.4,0,0.4,0,0.4-0.4c0-0.3,0-0.7,0-1c0,0,0-0.1,0-0.1c0.3-0.4,0.6-0.7,0.9-1c0,0,0.1-0.1,0.2,0
			c0.1,0.8,0.5,0.9,1.2,0.9c0.2,0,0.4,0,0.6,0c0.4-0.1,0.6-0.3,0.6-0.7c0-0.2,0-0.3,0.1-0.5c0-0.1,0.1-0.1,0.2-0.1
			c0.3,0,0.6,0,0.9,0c0.1,0,0.1,0,0.2,0.1c0,0.1,0,0.1-0.1,0.2c-0.1,0.1-0.1,0.1-0.2,0.2c-1.3,1.3-2.5,2.5-3.8,3.8
			C8.7,18.8,8.5,18.9,8.4,19C8.4,19,8.4,19,8.4,19z"/>
		<path class="st0" d="M6.6,12.9c-0.3,0-0.6,0-0.9,0c-0.5,0-0.9-0.3-0.9-0.7c-0.1-0.5,0.2-0.9,0.8-1c0.6,0,1.1,0,1.7,0
			c0.1,0,0.1,0,0.1,0.1c0,0.1-0.1,0.1-0.2,0.2c-0.4,0.4-0.8,0.8-1.3,1.3c0.3,0,0.6,0,0.9,0c0.3,0,0.7,0,1,0c0.1,0,0.2,0,0.3,0.1
			c0,0,0,0,0,0C7.6,12.9,7.1,12.9,6.6,12.9z"/>
		<path class="st4" d="M6.5,16.5c0-0.5,0-1.1,0-1.6c0.1-0.5,0.4-0.8,0.9-0.8c0.1,0,0.3,0,0.4,0c0.2,0.3,0.5,0.3,0.9,0.3
			c0.2,0,0.4,0,0.5,0.1c0,0,0,0.1,0,0.1c-0.2,0.1-0.4,0-0.6,0.1c-0.2,0-0.4,0-0.3,0.2c0,0,0,0,0,0.1c-0.4,0.5-0.9,0.9-1.4,1.4
			C6.7,16.4,6.6,16.5,6.5,16.5z"/>
		<path class="st0" d="M6,22.3c-0.1-0.2-0.3-0.3-0.4-0.5c0-0.1,0.1-0.1,0.1-0.2c0.4-0.4,0.7-0.7,1.1-1.1c0.1-0.1,0.2-0.1,0.2-0.2
			c0,0,0.1,0,0.1-0.1C7.4,20.1,7.7,20,8,20.1c0.1,0,0,0.1,0,0.1c-0.2,0.2-0.4,0.4-0.6,0.6C6.9,21.3,6.4,21.8,6,22.3z"/>
		<path class="st0" d="M7,20.3c-0.5,0.5-0.9,1-1.5,1.5c0,0,0,0,0,0c-0.1-0.2-0.3-0.4-0.4-0.6C5,20.9,5,20.7,5.3,20.6
			C5.9,20.5,6.5,20.4,7,20.3z"/>
		<path class="st3" d="M8.1,13.7c0-0.1,0-0.3,0-0.4c0.1-0.2,0.2-0.4,0.5-0.4c0.5,0,1,0,1.5,0c0.1,0,0.1,0.1,0,0.2
			c-0.3,0.3-0.5,0.6-0.8,0.8c-0.3,0-0.6,0-0.9,0C8.2,13.8,8.2,13.7,8.1,13.7z"/>
		<path class="st5" d="M6.7,17.2C6.7,17.2,6.7,17.2,6.7,17.2c0-0.1,0-0.2,0.1-0.2c0.4-0.4,0.7-0.7,1.1-1.1c0,0,0.1-0.1,0.2-0.1
			c0,0.4,0,0.9,0,1.3c0,0.2,0,0.2-0.2,0.2c-0.3,0-0.5,0-0.8,0C6.9,17.4,6.9,17.3,6.7,17.2z"/>
		<path class="st6" d="M8.1,13.7c0.4,0,0.8,0,1.2,0c0.3-0.1,0.6-0.1,0.9-0.1c1.1,0,2.3,0,3.4,0c0.3,0,0.6,0,0.9,0c0.2,0,0.3,0,0.5,0
			c0.2,0,0.3-0.1,0.2-0.3c0-0.1,0-0.3,0-0.4c0,0,0-0.1,0-0.1c0.2-0.1,0.4-0.1,0.6,0c0.2,0.1,0.4,0.3,0.5,0.5c0,0.2,0.1,0.3-0.1,0.5
			c-0.3,0.1-0.6,0-0.9,0c-0.3,0-0.7,0-1,0c-0.3,0-0.6,0-0.9,0c-1.1,0-2.3,0-3.4,0c-0.3,0-0.6,0-0.9,0c-0.3,0-0.6,0-0.8,0
			C8.3,13.8,8.2,13.8,8.1,13.7C8.1,13.7,8.1,13.7,8.1,13.7z"/>
		<path class="st7" d="M8.1,13.7c0.4,0,0.7,0,1.1,0c-0.1,0.3-0.4,0.5-0.7,0.7c-0.1,0-0.2,0-0.3,0c-0.3,0-0.4-0.1-0.5-0.4
			C7.8,13.9,7.9,13.7,8.1,13.7z"/>
		<path class="st8" d="M8.5,12.9c-0.1,0.1-0.2,0.3-0.4,0.4c0-0.1,0-0.3,0-0.4c0,0,0,0,0,0C8.2,12.8,8.4,12.8,8.5,12.9z"/>
		<path class="st4" d="M16.4,17.4c-0.1,0.9-0.3,1.7-0.8,2.4c0,0,0,0.1,0,0.1c-0.1,0.3-0.3,0.4-0.5,0.6c-0.2,0.2-0.3,0.4-0.3,0.7
			c0,0,0,0.1,0,0.1c0,0,0,0.1-0.1,0.1c-0.8,0.9-1.7,1.7-2.5,2.5c-0.2,0.2-0.4,0.4-0.6,0.5c0,0,0,0-0.1,0c-0.4-0.2-0.8-0.5-1.2-0.8
			c-0.2-0.1-0.4-0.3-0.7-0.4c0-0.1,0-0.2,0-0.3c0,0,0,0,0-0.1c0.1-0.2,0.3-0.3,0.4-0.5c0.3-0.3,0.7-0.7,1-1c0.1,0,0.1,0,0.2,0
			c0.7,0.1,1.3-0.1,1.9-0.4c1.4-0.8,2.1-2.1,2.1-3.7c0,0,0,0,0-0.1c0.3-0.4,0.7-0.7,1-1c0,0,0,0,0.1,0c0,0,0,0,0,0.1
			c0,0.3,0,0.6,0,1C16.5,17.3,16.4,17.4,16.4,17.4z"/>
		<path class="st3" d="M17.9,14.6C18,14.6,18,14.6,17.9,14.6c0.1,0.7,0.1,1.4,0.1,2.1c0,0.4-0.4,0.7-0.8,0.7c-0.3,0-0.6,0-0.8,0
			c0-0.4,0-0.8,0-1.2c0,0,0,0,0,0c0.3-0.4,0.7-0.7,1-1C17.6,14.9,17.8,14.8,17.9,14.6z"/>
		<path class="st0" d="M16.1,20C16.1,20,16.1,20,16.1,20c-0.4,0.4-0.7,0.8-1.1,1.1c-0.1,0.1-0.1,0.2-0.2,0.2c0,0,0,0,0,0
			c-0.1-0.4,0-0.7,0.4-0.9c0.2-0.1,0.3-0.3,0.4-0.5C15.7,19.9,15.9,20,16.1,20z"/>
		<path class="st0" d="M16.8,20.1C16.8,20.1,16.8,20.1,16.8,20.1c0.8,0.1,1.5,0.3,2.2,0.4c0.2,0,0.4,0,0.5,0.3c0,0.1,0,0.1,0,0.2
			c-1.4,1.4-2.7,2.7-4.1,4.1c-0.1,0.1-0.1,0.2-0.3,0.2c0-0.2,0.1-0.3,0.1-0.5c0.1-0.2,0.1-0.4,0.2-0.5c0.1-0.2,0-0.4-0.1-0.6
			c-0.2-0.2-0.4-0.3-0.5-0.6c0,0,0,0,0-0.1c0-0.3,0-0.5,0-0.8c0,0,0-0.1,0-0.1c0,0,0-0.1,0-0.1C15.4,21.5,16.1,20.8,16.8,20.1z"/>
		<path class="st1" d="M17.9,24c0.2,0,0.4,0,0.6,0c0,0,0,0,0,0.1c-0.1,0.1-0.2,0-0.3,0c0.6,0.1,1,0.4,1.5,0.7c0,0,0.1,0.1,0.1,0.1
			c0,0.1-0.1,0.1-0.1,0.2c-0.3,0.3-0.6,0.6-0.9,0.9c-0.1,0.1-0.1,0.1-0.2,0.1c-0.1-0.2,0.1-0.3,0.1-0.4c0-0.2-0.1-0.2-0.2-0.3
			c-0.3-0.4-0.7-0.7-1.1-1.1c0,0-0.1-0.1-0.1-0.1c0-0.1-0.1-0.1-0.1-0.2c0-0.1,0.1,0,0.2-0.1C17.6,24,17.7,24.1,17.9,24z"/>
		<path class="st0" d="M17.9,24c-0.1,0.1-0.3,0-0.4,0c-0.1,0-0.1,0-0.2,0c0,0.1,0.1,0.1,0.1,0.2c0,0,0,0.1,0.1,0.1
			c-0.6,0.4-1,1-1.5,1.5c-0.4,0.4-0.8,0.8-1.2,1.2c-0.1,0.1-0.3,0.1-0.4,0c0-0.1,0-0.2,0.1-0.3c0.1,0,0.2-0.1,0.2-0.2
			c0.8-0.8,1.5-1.5,2.3-2.3c0.1-0.1,0.2-0.3,0.4-0.4c0,0,0,0.1,0.1,0.1C17.5,24,17.7,24,17.9,24z"/>
		<path class="st9" d="M19.8,25c-0.4-0.5-1-0.7-1.6-0.9c0.1-0.1,0.1,0,0.2,0c0.1,0,0.1,0,0.2,0c0.1,0,0.2,0,0.3,0
			c0.5,0,0.9,0.2,1.4,0.5c0,0,0,0,0,0C20.2,24.7,20,24.9,19.8,25C19.8,25,19.8,25,19.8,25z"/>
		<path class="st1" d="M18.1,11.2c0.3,0,0.5,0,0.8,0c0.5,0.1,0.7,0.3,0.8,0.8c0,0.1,0,0.2-0.1,0.3c0,0-0.1-0.1-0.1,0
			c-0.2,0.2-0.3,0.3-0.5,0.5c-0.1,0.1,0,0.1,0,0.1c-0.1,0.1-0.2,0-0.3,0.1c-0.2,0.1-0.4,0.1-0.7,0c-0.1-0.1,0-0.2,0.1-0.2
			c0.2-0.2,0.4-0.4,0.4-0.7c0-0.3-0.1-0.5-0.4-0.6C18.2,11.3,18.1,11.3,18.1,11.2z"/>
		<path class="st9" d="M21.2,32.3c-0.2,0-0.3,0-0.5,0c-0.1-0.1-0.1-0.2-0.1-0.3c0-0.9,0-1.9,0-2.8c0,0,0-0.1,0-0.1
			c0.3-0.3,0.5-0.5,0.8-0.8c0.1-0.1,0.2-0.3,0.2-0.5c0-0.2,0-0.5,0-0.7c0-0.1,0-0.3,0.1-0.4c0.1,0.1,0,0.2,0.1,0.4
			c0.1,0.3,0.1,0.6,0,1c0,1.2,0,2.4,0,3.6c0.1,0.1,0.1,0.1,0.1,0.2c0,0.1,0,0.2-0.1,0.3c-0.1,0-0.1-0.2-0.1-0.2
			C21.5,32,21.5,32.2,21.2,32.3z"/>
		<path class="st9" d="M21.8,27c0,0.2,0,0.3,0,0.5c-0.2,0.3-0.5,0.6-0.8,0.9c0,0-0.1,0.1-0.2,0c-0.1-0.2,0-0.5,0-0.7
			c0-0.7-0.2-1.4-0.5-2c0,0,0,0,0-0.1c0.1-0.3,0.3-0.4,0.5-0.6c0,0,0,0,0,0c0.5,0.5,0.8,1,0.9,1.7C21.8,26.7,21.8,26.8,21.8,27z"/>
		<path class="st1" d="M20.3,25.5c0.5,0.7,0.6,1.5,0.5,2.4c0,0.2,0,0.3,0,0.5c0,0,0,0,0,0c0,0,0,0,0,0c0,0.1-0.1,0.1-0.2,0.2
			c-0.8,0.8-1.6,1.6-2.4,2.4c-0.1,0.1-0.2,0.2-0.3,0.2c-0.1,0.1-0.2,0.1-0.2,0.2c0,0,0,0.1-0.1,0.1c-0.2,0.2-0.5,0.5-0.7,0.7
			c-0.7,0-1.5,0-2.2,0c-0.1-0.1,0-0.2,0.1-0.3c0.6-1,1.2-2,1.9-3c0.1-0.2,0.2-0.4,0.4-0.5c0.1,0,0.2-0.1,0.2-0.2
			c0.9-0.9,1.8-1.8,2.7-2.7C20.1,25.6,20.1,25.4,20.3,25.5z"/>
		<path class="st0" d="M14.4,27.1c0.2,0.1,0.3,0,0.4-0.1c0.2-0.3,0.5-0.5,0.7-0.7c0.3-0.3,0.5-0.5,0.8-0.8c0.2-0.2,0.5-0.5,0.7-0.7
			c0.1-0.1,0.2-0.3,0.4-0.4c0.1,0,0.1-0.1,0.2-0.1c0.4,0.4,0.7,0.7,1.1,1.1c0.1,0.1,0.2,0.2,0.2,0.4c-0.1,0-0.2,0.1-0.3,0.2
			c-0.1,0.2-0.2,0.2-0.3,0.3c-0.5,0.5-1,1-1.6,1.6c-1.2,1.2-2.3,2.3-3.5,3.5c-0.3,0.3-0.5,0.6-0.7,0.9c-0.9,0-1.7,0-2.6,0
			c-0.2-0.1-0.2-0.2-0.3-0.4c0-0.1,0.1-0.1,0.1-0.2c0.5-0.5,1.1-1.1,1.6-1.6c0,0,0.1-0.1,0.1-0.1c0,0,0,0,0.1,0
			c0.3,0.6,0.5,1.2,0.7,1.8c0,0.1,0.1,0.2,0.1,0.3c0.1-0.1,0.1-0.1,0.1-0.2c0.6-1.5,1.2-3,1.8-4.5C14.2,27.2,14.2,27.1,14.4,27.1
			C14.3,27,14.3,27,14.4,27.1z"/>
		<path class="st1" d="M2.7,32.1c0-0.7,0-1.4,0-2.1c0.1-0.1,0.1-0.2,0.2-0.3c1-1,2-2,3-3c0.1-0.1,0.1-0.2,0.3-0.2c0,0,0,0,0.1,0
			c0.2,0.2,0.3,0.5,0.5,0.8c0.3,0.4,0.5,0.8,0.8,1.2c0,0,0,0.1,0,0.1c-0.8,0.8-1.6,1.6-2.4,2.4C5,31.1,5,31.2,4.9,31.3
			c-0.1,0.1-0.2,0.1-0.2,0.2c0,0,0,0.1-0.1,0.1c-0.2,0.2-0.5,0.5-0.7,0.7c-0.3,0-0.6,0-0.9,0C2.8,32.3,2.7,32.2,2.7,32.1z"/>
		<path class="st1" d="M8.2,32.3c-1.2,0-2.4,0-3.6,0c0-0.1,0-0.1,0.1-0.2C5,32,5.2,31.7,5.4,31.5c0.8-0.8,1.6-1.6,2.4-2.4
			c0,0,0,0,0.1,0c0.4,0.5,0.6,1,1,1.5c0.1,0.2,0.3,0.4,0.3,0.6c0,0,0,0,0,0.1C8.9,31.7,8.5,31.9,8.2,32.3z"/>
		<path class="st1" d="M20.8,29.3c0,1,0,2,0,3c-1,0-2,0-3,0c-0.1-0.1,0-0.1,0.1-0.2c0.2-0.2,0.3-0.3,0.5-0.5
			c0.7-0.7,1.4-1.4,2.1-2.1C20.6,29.4,20.7,29.3,20.8,29.3z"/>
		<path class="st0" d="M12.4,32.3c0-0.3,0.2-0.5,0.4-0.7c1.8-1.8,3.6-3.6,5.4-5.4c0.1-0.1,0.2-0.2,0.3-0.3c0-0.1,0.2-0.1,0.3-0.1
			c0,0.1-0.2,0.2-0.2,0.4c0,0.1-0.1,0.2-0.2,0.3c-0.1,0.1-0.3,0.2-0.4,0.4c-1.4,1.4-2.8,2.8-4.1,4.1c-0.1,0.1-0.2,0.2-0.3,0.2
			c-0.1,0.1-0.2,0.1-0.2,0.2c0,0-0.1,0.1-0.1,0.1c-0.2,0.2-0.5,0.4-0.6,0.7C12.6,32.3,12.5,32.3,12.4,32.3z"/>
		<path class="st0" d="M16.7,29.1c-0.5,0.8-1,1.6-1.4,2.3c-0.2,0.3-0.4,0.6-0.5,0.9c-0.5,0-0.9,0-1.4,0c0-0.1,0.1-0.2,0.2-0.3
			c0.2-0.1,0.3-0.3,0.5-0.4c0.8-0.8,1.6-1.6,2.4-2.4C16.5,29.1,16.6,29,16.7,29.1C16.7,29,16.7,29,16.7,29.1
			C16.7,29,16.7,29,16.7,29.1z"/>
		<path class="st1" d="M8.2,32.3c0,0,0-0.1,0-0.1c0.3-0.3,0.6-0.6,0.9-0.9c0.2,0.1,0.3,0.3,0.4,0.6c0,0.2-0.3,0.3-0.4,0.4
			C8.8,32.3,8.5,32.3,8.2,32.3z"/>
		<path class="st1" d="M18.4,31.6c-0.2,0.2-0.3,0.4-0.5,0.5c-0.1,0-0.1,0.1-0.1,0.1c-0.3,0-0.5,0-0.8,0c0,0,0-0.1,0-0.1
			c0.2-0.2,0.4-0.4,0.7-0.6c0.2,0,0.4,0,0.5,0C18.3,31.6,18.4,31.5,18.4,31.6z"/>
		<path class="st1" d="M5.4,31.6c-0.2,0.3-0.5,0.5-0.7,0.7c-0.3,0-0.5,0-0.8,0C3.9,32.2,4,32.1,4,32c0.2-0.2,0.4-0.3,0.5-0.5
			C4.8,31.6,5.1,31.5,5.4,31.6z"/>
		<path class="st0" d="M14.1,31.6c-0.2,0.3-0.5,0.4-0.7,0.7c-0.2,0-0.5,0-0.7,0c-0.1-0.1,0-0.2,0.1-0.2c0.2-0.2,0.4-0.3,0.5-0.5
			C13.5,31.6,13.8,31.6,14.1,31.6z"/>
		<path class="st9" d="M21.8,32.1c0,0.1-0.1,0.1-0.2,0.2c-0.1,0-0.3,0-0.4,0c0.2-0.2,0.3-0.4,0.5-0.6C21.8,31.9,21.8,32,21.8,32.1z"
			/>
		<path class="st1" d="M9.1,32.3c0.1-0.2,0.3-0.2,0.4-0.4c0,0,0,0,0,0c0,0.2,0.2,0.3,0.2,0.4C9.5,32.3,9.3,32.3,9.1,32.3z"/>
		<path class="st10" d="M16.4,11c0,0.1,0,0.2,0,0.2c-0.1,0.1-0.2,0.1-0.3,0.1c-1.1,0-2.3,0-3.4,0c-0.3,0-0.6,0-0.9,0
			c-1.1,0-2.3,0-3.4,0c-0.1,0-0.2,0-0.2-0.1c0,0,0,0,0,0c0.1-0.1,0.2-0.1,0.3-0.1c1,0,2,0,3.1,0c0.2,0,0.4-0.1,0.6-0.2
			c0.2-0.3,0.5-0.5,0.8-0.8c-1.1,0-2.2,0-3.3,0c-0.3,0-0.6,0-0.9,0c-0.2,0-0.3,0-0.5-0.1c0,0,0,0,0,0c0.2,0,0.4,0,0.6,0
			c0.3-0.1,0.6-0.1,0.9,0c1.1,0,2.3,0,3.4,0c0.3-0.1,0.6,0,0.9-0.1c0.4,0,0.9,0,1.3,0c0,0,0.1,0,0.1,0c0,0,0,0.1,0,0.1
			c-0.2,0.1-0.5,0.1-0.8,0c-0.5-0.1-0.9,0.1-1.2,0.5c-0.1,0.2-0.3,0.3-0.5,0.5c0.9,0,1.7,0,2.5,0c0.2,0,0.4,0,0.6,0
			c0.2,0,0.2-0.1,0.2-0.2c0-0.3,0-0.6,0-0.9c0,0,0,0,0.1,0C16.4,10.3,16.4,10.6,16.4,11C16.4,10.9,16.4,10.9,16.4,11z"/>
		<path class="st0" d="M9.6,9.9c-0.3,0-0.6,0-0.9,0c0.6-0.6,1.2-1.2,1.8-1.8c0.2,0,0.4,0,0.6,0c0.1,0,0.2,0,0.2,0.1
			C10.7,8.8,10.2,9.4,9.6,9.9z"/>
		<path class="st0" d="M14,9.9c-0.3,0-0.6,0-0.9,0c0.6-0.6,1.2-1.3,1.9-1.9c0,0,0,0,0,0c0.2,0.1,0.3,0.3,0.3,0.5c0,0,0,0,0,0.1
			C14.9,9.1,14.5,9.6,14,9.9z"/>
		<path class="st1" d="M15.3,8.6C15.3,8.6,15.3,8.6,15.3,8.6c0.2-0.3,0.4-0.5,0.6-0.7c0,0,0.1,0,0.1,0.1c0.4,0.4,0.5,0.9,0.4,1.5
			c0,0.2,0,0.3,0,0.5c0,0,0,0,0,0c-0.3,0.1-0.6,0.1-1,0l0,0c0,0-0.1-0.1-0.1-0.1C15.3,9.4,15.3,9,15.3,8.6z"/>
		<path class="st1" d="M15.9,8c-0.1,0.3-0.4,0.4-0.6,0.6c-0.1-0.2-0.2-0.4-0.3-0.5c0.1-0.2,0.2-0.3,0.4-0.4
			C15.6,7.7,15.7,7.8,15.9,8z"/>
		<path class="st3" d="M8.7,19.6C8.7,19.5,8.7,19.5,8.7,19.6c0.3-0.4,0.6-0.6,0.9-0.9c1-1,2.1-2.1,3.1-3.1c0.1-0.1,0.2-0.2,0.3-0.2
			c0.3,0.3,0.6,0.4,1,0.4c0.2,0,0.4,0,0.6,0c0.3-0.1,0.4-0.2,0.6-0.5c0-0.1,0-0.2,0.2-0.2c0.1,0.2,0.1,0.3,0.1,0.5
			c0,0.2,0,0.5,0,0.7c0,0,0,0.1,0,0.1c0,0.1-0.1,0.2-0.2,0.2c-1.5,1.5-3,3-4.4,4.4c-0.1,0.1-0.1,0.2-0.3,0.2
			c-0.3-0.1-0.6-0.2-0.8-0.5c-0.3-0.2-0.6-0.5-0.8-0.8C8.8,19.8,8.7,19.7,8.7,19.6z"/>
		<path class="st0" d="M6.2,26.5C6.1,26.5,6.1,26.5,6.2,26.5c-0.2-0.2-0.3-0.3-0.4-0.6c0,0,0,0,0,0c0.1-0.1,0.1-0.1,0.2-0.2
			c1.2-1.2,2.4-2.4,3.6-3.6C9.6,22.1,9.7,22,9.7,22c0.1,0.3,0.1,0.6,0,0.9l0,0c0,0.1-0.1,0.2-0.2,0.2C8.4,24.3,7.3,25.4,6.2,26.5
			C6.2,26.5,6.2,26.5,6.2,26.5z"/>
		<path class="st4" d="M9.8,22.9c0-0.3,0-0.6,0-0.9c0,0,0-0.1,0-0.1c0.2-0.2,0.4-0.4,0.6-0.6c0.1-0.1,0.1-0.1,0.2-0.1
			c0.2,0,0.4,0.1,0.6,0.2c0,0.1-0.1,0.2-0.2,0.2C10.6,22.1,10.1,22.4,9.8,22.9z"/>
		<path class="st4" d="M10.5,21.2c-0.2,0.2-0.4,0.4-0.6,0.5c-0.1,0.1-0.1,0.1-0.2,0.1c0-0.4,0-0.8,0-1.2
			C10,20.9,10.2,21.1,10.5,21.2C10.5,21.2,10.5,21.2,10.5,21.2C10.5,21.2,10.5,21.2,10.5,21.2z"/>
		<path class="st1" d="M5.8,25.9c0.1,0.2,0.3,0.4,0.3,0.6C6,26.6,6,26.6,5.9,26.7c-1,1-2,2-3,3c-0.1,0.1-0.1,0.1-0.2,0.2
			c-0.1-0.6,0.1-1.1,0.6-1.5c0.8-0.7,1.5-1.5,2.3-2.3C5.6,26.1,5.7,26,5.8,25.9z"/>
		<path class="st7" d="M10.1,13.7c1.1,0,2.3,0,3.4,0c0,0.2-0.1,0.3-0.3,0.4c-0.2,0.2-0.4,0.5-0.4,0.8c0,0.1,0,0.2-0.1,0.2
			c-0.1-0.2-0.1-0.3,0-0.5c0-0.1,0-0.1-0.1-0.1c-0.4,0-0.7,0-1.1,0c0,0.2,0,0.4-0.1,0.5c-0.1-0.1-0.1-0.2-0.1-0.3
			c0-0.1-0.1-0.2-0.2-0.2c0,0,0,0-0.1,0c-0.2,0-0.4-0.1-0.5,0c-0.2,0.1-0.1,0.3-0.1,0.4c-0.1,0.3-0.2,0.5-0.4,0.7
			c0.2,0,0.5-0.1,0.7,0.1c-0.4,0.1-0.9,0.1-1.3,0c-0.4-0.1-0.5-0.5-0.5-0.9c-0.1-0.1-0.1-0.2,0-0.3c0,0,0,0,0,0
			c0.1,0,0.1,0.1,0.1,0.2C9.5,14.3,9.8,14,10.1,13.7z"/>
		<path class="st3" d="M11.6,14.5c0.4-0.1,0.7,0,1.1,0c0.1,0,0.1,0.1,0.1,0.2c0,0.2,0,0.3,0,0.5c0.1,0,0.1,0.1,0.1,0.2
			c0,0,0,0,0,0.1c-0.1,0.1-0.1,0.1-0.2,0.2c-1.3,1.3-2.5,2.5-3.8,3.8c-0.1,0.1-0.1,0.2-0.2,0.2c-0.1-0.1-0.2-0.3-0.2-0.5
			c0-0.1,0.1-0.2,0.2-0.3c1.3-1.3,2.7-2.7,4-4c0.1-0.1,0.1-0.1,0.2-0.2c0,0,0-0.1,0-0.1C12.4,14.5,12,14.5,11.6,14.5z"/>
		<path class="st5" d="M8.1,15.8c-0.5,0.4-0.9,0.9-1.4,1.4c-0.2-0.2-0.3-0.4-0.3-0.7c0.5-0.5,1-0.9,1.4-1.4C8,15,8,15,8.1,14.9
			C8.2,15.2,8.2,15.5,8.1,15.8C8.1,15.8,8.1,15.8,8.1,15.8z"/>
		<path class="st11" d="M11,15.7c-0.3,0-0.5,0-0.9,0c0.5-0.3,0.6-0.6,0.5-1.1c0-0.1,0-0.2,0.2-0.2c0.1,0,0.1,0,0.2,0
			c0.6,0,0.6,0,0.6,0.6C11.5,15.4,11.3,15.6,11,15.7z"/>
		<path class="st3" d="M8.1,15.8c0-0.3,0-0.6,0-0.9c0,0,0,0,0,0c0.1-0.1,0.2-0.3,0.3-0.3c0.2,0,0.4,0,0.7,0c0,0.1,0,0.2,0,0.3
			C8.8,15.1,8.4,15.4,8.1,15.8z"/>
		<path class="st0" d="M8.3,11.2c1.1,0,2.3,0,3.4,0c0,0.1,0,0.1-0.1,0.1c-0.5,0.5-1,1-1.5,1.5c0,0,0,0-0.1,0c-0.5,0-1.1,0-1.6,0
			c-0.1,0-0.3,0-0.4,0c-0.1-0.1-0.3,0-0.4,0c-0.3,0-0.6,0-0.9,0c0-0.1,0-0.1,0.1-0.2c0.4-0.4,0.9-0.9,1.3-1.3
			C8.2,11.3,8.2,11.3,8.3,11.2z"/>
		<path class="st0" d="M8.3,11.2c-0.4,0.5-0.9,0.9-1.3,1.4c-0.1,0.1-0.1,0.2-0.2,0.2c-0.3,0-0.6,0-0.9,0c0.5-0.6,1.1-1.1,1.6-1.6
			c0.2,0,0.5,0,0.7,0C8.2,11.2,8.2,11.2,8.3,11.2z"/>
		<path class="st7" d="M10.1,13.7c-0.3,0.3-0.6,0.6-1,0.9c0,0,0-0.1-0.1-0.2c-0.2,0-0.4,0-0.6,0C8.8,14.2,9,14,9.2,13.7
			C9.5,13.7,9.8,13.7,10.1,13.7z"/>
		<path class="st12" d="M8.4,14.5c-0.1,0.1-0.2,0.2-0.3,0.3C8.1,14.5,8.1,14.5,8.4,14.5z"/>
		<path class="st3" d="M10.1,12.9C10.1,12.9,10.1,12.9,10.1,12.9c0.3-0.1,0.6-0.1,0.8-0.1c0,0,0,0,0.1,0c0.1,0.1,0,0.1,0,0.1
			c-0.2,0.2-0.5,0.5-0.7,0.7c-0.3,0-0.6,0-0.9,0C9.6,13.4,9.8,13.1,10.1,12.9z"/>
		<path class="st0" d="M18.1,11.2c0.1,0.1,0.3,0.1,0.4,0.3c0.3,0.4,0.3,1-0.2,1.3c-0.1,0-0.1,0.1-0.2,0.1c-0.1,0.1-0.2,0.1-0.3,0.1
			c-0.5,0-0.9,0-1.4,0c-0.1,0-0.3,0-0.4-0.1c-0.2,0-0.4,0-0.6,0c0,0,0,0,0,0c0.5-0.5,1-1,1.5-1.5c0,0,0.1,0,0.1-0.1
			C17.4,11.2,17.7,11.2,18.1,11.2z"/>
		<path class="st3" d="M10.2,13.7c0.3-0.3,0.5-0.5,0.8-0.8c0.1-0.1,0.1-0.1,0.2-0.1c1,0,2.1,0,3.1,0c0.1,0,0.1,0.1,0.1,0.2
			c-0.2,0.2-0.4,0.5-0.7,0.7C12.5,13.7,11.4,13.7,10.2,13.7z"/>
		<path class="st7" d="M13,15.3C13,15.3,13,15.3,13,15.3C13,15.3,12.9,15.3,13,15.3c0.5-0.6,1-1.1,1.5-1.6c0.3,0,0.7,0,1,0
			c0.2,0,0.3,0.2,0.3,0.3c0,0.2-0.1,0.3-0.3,0.4c-0.1,0-0.1,0-0.2,0c-0.2,0-0.4,0-0.6,0c-0.2,0-0.3,0.1-0.3,0.3
			c0,0.3-0.1,0.5-0.2,0.7c-0.1,0.1-0.1,0.1-0.2,0.2c0.2,0,0.5-0.1,0.7,0.1c-0.4,0.1-0.9,0.1-1.3,0C13.2,15.6,13.1,15.5,13,15.3z"/>
		<path class="st7" d="M14.5,13.7c-0.5,0.5-1,1-1.5,1.5c0-0.1-0.1-0.1-0.1-0.2c-0.1-0.5,0.1-0.9,0.5-1.2c0.1,0,0.1-0.1,0.2-0.2
			C13.9,13.7,14.2,13.7,14.5,13.7z"/>
		<path class="st3" d="M13.7,13.7c0.3-0.3,0.5-0.5,0.8-0.8c0,0,0,0,0.1-0.1c0.3,0,0.6-0.1,0.9,0c0,0,0,0,0,0c0,0,0,0,0,0
			c-0.2,0.3-0.5,0.6-0.8,0.8C14.3,13.7,14,13.7,13.7,13.7z"/>
		<path class="st11" d="M16.4,13.7c0.2,0,0.3,0.1,0.3,0.3c0.1,0.3,0,0.4-0.3,0.5c-0.3,0-0.6,0.1-0.9-0.1c0.3-0.3,0.3-0.5,0-0.7
			C15.8,13.7,16.1,13.7,16.4,13.7z"/>
		<path class="st13" d="M14.6,13.7c0.2-0.3,0.5-0.5,0.8-0.8c0,0.2,0,0.4,0,0.6c0,0.1,0,0.2-0.2,0.2C15,13.7,14.8,13.7,14.6,13.7z"/>
		<path class="st14" d="M16.4,12.9c0,0.1,0,0.3,0,0.4c-0.1-0.1-0.3-0.2-0.4-0.4C16.1,12.9,16.3,12.9,16.4,12.9z"/>
		<path class="st10" d="M8.6,10c0.3,0,0.6,0,0.9,0c0,0,0,0.1,0,0.1c-0.4,0.4-0.7,0.8-1.1,1.1c-0.1,0-0.2,0-0.3,0c0-0.2,0-0.5,0-0.7
			C8.2,10.3,8.4,10.1,8.6,10z"/>
		<path class="st15" d="M8.6,10c-0.1,0.2-0.3,0.3-0.5,0.5c0-0.2,0-0.3,0-0.5C8.3,10,8.4,10,8.6,10z"/>
		<path class="st0" d="M6.2,26.5c0-0.1,0.1-0.1,0.1-0.2c1.1-1.1,2.3-2.3,3.4-3.4c0,0,0.1,0,0.1-0.1c0,0.1,0,0.2,0,0.3
			c0,0.2-0.2,0.3-0.3,0.4c-0.5,0.5-0.4,0.4-0.2,1c0.2,0.5,0.4,1,0.6,1.5c0,0,0,0.1,0,0.1c0,0,0,0,0,0.1c-0.1,0.1-0.2,0.1-0.3,0.2
			c-0.6,0.6-1.2,1.3-1.9,1.9c-0.1,0.1-0.1,0.2-0.3,0.1C7,27.9,6.6,27.2,6.2,26.5z"/>
		<path class="st3" d="M15.4,17.3c0,1.3-0.5,2.4-1.5,3.3c-0.6,0.5-1.4,0.9-2.2,0.9c-0.1,0-0.2,0-0.4,0c-0.1,0-0.1-0.1,0-0.2
			c0-0.1,0.1-0.1,0.1-0.2c1.2-1.2,2.5-2.5,3.7-3.7C15.2,17.4,15.2,17.2,15.4,17.3z"/>
		<path class="st3" d="M15.4,17.3c0,0-0.1,0.1-0.1,0.1c-1.3,1.3-2.6,2.6-3.8,3.8c-0.1,0.1-0.2,0.1-0.1,0.2c0,0-0.1,0-0.1,0
			c-0.2-0.1-0.4-0.1-0.6-0.2c0,0,0,0,0,0c0.1-0.1,0.1-0.1,0.2-0.2c1.5-1.5,3-3,4.4-4.4c0.1-0.1,0.1-0.1,0.2-0.2
			C15.5,16.6,15.5,16.9,15.4,17.3C15.4,17.2,15.4,17.3,15.4,17.3z"/>
		<path class="st16" d="M9.8,26.2c-0.3-0.7-0.5-1.3-0.8-2c-0.1-0.2,0-0.3,0.1-0.4c0.2-0.2,0.4-0.4,0.6-0.6c0.1,0,0.1,0,0.2,0
			c0.6,0.4,1.2,0.8,1.7,1.2c0,0.1,0,0.1-0.1,0.2c-0.5,0.5-1,1-1.5,1.5C10,26.2,9.9,26.3,9.8,26.2z"/>
		<path class="st4" d="M14.7,22.3c0,0.3,0,0.6,0,0.9c-0.1,0-0.1-0.1-0.1-0.2c0-0.2,0-0.4,0-0.6c-0.8,0.8-1.5,1.5-2.3,2.3
			c-0.1,0.1-0.1,0.1-0.2,0.1c-0.2-0.1-0.4-0.2-0.5-0.4c0.5-0.5,1-1,1.5-1.5c0.5-0.5,1.1-1,1.6-1.6c0.1,0.2,0.1,0.5,0,0.8
			C14.7,22.2,14.7,22.2,14.7,22.3z"/>
		<path class="st4" d="M15.5,14.5c0.3,0,0.6,0,0.9,0c0.1,0.3,0,0.6,0,0.8c0,0.3,0.1,0.6-0.1,0.9c0,0,0,0,0,0c0,0,0,0,0,0
			c-0.1-0.2,0-0.5-0.1-0.7c-0.2,0.2-0.4,0.4-0.7,0.6c-0.1,0.1-0.1,0.2-0.2,0.1c0-0.3,0-0.7,0-1c0-0.1,0-0.2,0-0.2
			c-0.1-0.2-0.1-0.4,0-0.5C15.4,14.5,15.5,14.5,15.5,14.5z"/>
		<path class="st16" d="M11.6,24.4c0.2,0.1,0.3,0.3,0.5,0.3c0,0,0.1,0,0.1,0.1c0,0,0,0,0,0.1c-0.2,0.2-0.4,0.3-0.7,0.5
			c-0.4,0.3-0.8,0.6-1.3,0.9c-0.2,0.1-0.3,0.2-0.5,0c0,0,0-0.1,0-0.1c0,0,0.1,0,0.1,0C10.5,25.6,11.1,25,11.6,24.4
			C11.6,24.4,11.6,24.4,11.6,24.4z"/>
		<path class="st4" d="M15.4,16.3c0.3-0.3,0.6-0.6,1-0.9c0,0.3,0,0.6,0,0.8c0,0.1-0.1,0.2-0.2,0.3c-0.2,0.2-0.5,0.5-0.7,0.7
			C15.4,16.9,15.4,16.6,15.4,16.3C15.4,16.3,15.4,16.3,15.4,16.3z"/>
		<path class="st17" d="M14.7,22.3c-0.1-0.3,0-0.6,0-0.9c0,0,0-0.1,0-0.1c0,0,0,0,0,0C14.9,21.6,14.9,21.9,14.7,22.3
			C14.7,22.2,14.7,22.2,14.7,22.3z"/>
		<path class="st0" d="M14.7,22.2c0-0.3,0-0.6,0-0.9c0.4-0.4,0.8-0.7,1.1-1.1C16,20.1,16,20,16.2,20c0.2,0,0.4,0.1,0.6,0.1
			c0,0,0,0.1,0,0.1C16.1,20.9,15.4,21.6,14.7,22.2z"/>
		<path class="st3" d="M16.4,16.2c0-0.3,0-0.6,0-0.9c0.3-0.4,0.7-0.8,1.1-1.1c0.2,0.1,0.4,0.2,0.4,0.4c0,0,0,0.1-0.1,0.1
			C17.4,15.2,16.9,15.7,16.4,16.2z"/>
		<path class="st3" d="M17.5,14.2c-0.4,0.4-0.7,0.8-1.1,1.1c0-0.3-0.1-0.5,0-0.8c0.2-0.1,0.3-0.2,0.3-0.4
			C17,14.1,17.2,14.1,17.5,14.2C17.5,14.1,17.5,14.2,17.5,14.2z"/>
		<path class="st1" d="M19.1,12.8c-0.1,0-0.1,0-0.2,0c0.2-0.2,0.5-0.5,0.7-0.7c0,0,0,0.1,0,0.1C19.6,12.6,19.4,12.7,19.1,12.8z"/>
		<path class="st16" d="M12.3,24.9C12.3,24.9,12.3,24.9,12.3,24.9c0-0.2,0.1-0.2,0.2-0.2c0.7-0.4,1.3-0.9,2-1.3
			c0.1-0.1,0.2-0.2,0.3-0.1c0.2,0.2,0.4,0.4,0.6,0.6c0.2,0.2,0.2,0.4,0.1,0.6c-0.1,0.3-0.3,0.7-0.4,1c0,0.1,0,0.1-0.1,0.2
			c-0.3,0.2-0.5,0.5-0.8,0.7c-0.1,0-0.2,0-0.2-0.1c-0.5-0.4-1.1-0.7-1.6-1.1C12.3,25,12.3,25,12.3,24.9z"/>
		<path class="st0" d="M14.9,25.5c0,0,0.1-0.1,0.1-0.1c0.1-0.1,0.1-0.1,0.2-0.2c1.3-1.3,2.6-2.6,3.9-3.9c0.1-0.1,0.1-0.1,0.2-0.2
			c-0.3,0.5-0.6,0.9-0.9,1.3c-0.4,0.5-0.8,1-1.1,1.6c0,0.1-0.1,0.3-0.2,0.4c-0.8,0.8-1.6,1.6-2.4,2.4c-0.1,0.1-0.1,0.2-0.2,0.1
			c-0.1-0.2,0.1-0.4,0.1-0.6C14.7,26,14.8,25.7,14.9,25.5z"/>
		<path class="st4" d="M14.7,23.2c-0.1,0-0.1,0-0.2,0.1c-0.8,0.5-1.5,1-2.3,1.5c0,0-0.1,0-0.1-0.1c0.4-0.3,0.7-0.7,1.1-1
			c0.5-0.5,0.9-0.9,1.4-1.4C14.7,22.6,14.6,22.9,14.7,23.2C14.7,23.2,14.7,23.2,14.7,23.2z"/>
		<path class="st9" d="M20.8,24.9c-0.2,0.2-0.3,0.4-0.5,0.5c-0.2-0.1-0.4-0.3-0.4-0.5c0.1-0.2,0.3-0.3,0.4-0.4
			C20.5,24.6,20.6,24.8,20.8,24.9z"/>
		<path class="st1" d="M19.8,25c0.1,0.2,0.3,0.3,0.4,0.5c0,0,0,0,0,0c-0.1,0-0.2,0.1-0.2,0.2c-0.9,0.9-1.8,1.8-2.8,2.8
			c-0.1,0.1-0.1,0.2-0.2,0.1c0-0.1,0-0.2,0.1-0.2c0.4-0.6,0.8-1.3,1.2-1.9c0.1-0.1,0.1-0.2,0.2-0.3C19,25.8,19.4,25.4,19.8,25
			C19.8,25,19.8,25,19.8,25z"/>
		<path class="st18" d="M14.6,26.2c0,0.2-0.2,0.4-0.2,0.6c-0.1,0.1-0.1,0.2-0.1,0.2c0,0,0,0,0,0c-0.1,0.2-0.2,0.3-0.4,0.4
			c-0.8,0.8-1.6,1.6-2.4,2.4c-0.1,0.1-0.1,0.2-0.2,0.2c0,0,0,0,0,0c-0.2-0.2-0.2-0.4-0.3-0.6c0,0,0,0,0-0.1c0-0.1,0.1-0.1,0.2-0.2
			c0.9-0.9,1.8-1.8,2.7-2.7c0.1-0.1,0.2-0.2,0.3-0.2C14.4,26.3,14.5,26.2,14.6,26.2z"/>
		<path class="st0" d="M15.4,12.9c-0.3,0-0.6,0-0.9,0c0-0.1,0-0.1,0.1-0.2c0.4-0.4,0.9-0.9,1.3-1.3c0.1-0.1,0.1-0.1,0.2-0.1
			c0.1,0,0.2,0,0.3,0c0.2,0,0.4,0,0.6,0C16.5,11.8,15.9,12.3,15.4,12.9z"/>
		<path class="st1" d="M18.4,31.6c-0.2,0-0.4,0-0.6,0c-0.1,0-0.2,0-0.2-0.1c0,0,0,0,0,0c0.1-0.1,0.1-0.2,0.2-0.2
			c0.6-0.6,1.2-1.2,1.9-1.8c0.3-0.3,0.7-0.7,1.1-1c0.1,0.3,0.1,0.5,0,0.8c0,0,0,0.1,0,0.1c-0.4,0.4-0.9,0.9-1.3,1.3
			C19.1,30.9,18.8,31.3,18.4,31.6z"/>
		<path class="st9" d="M20.8,29.1c0-0.3,0-0.6,0-0.9c0,0,0,0,0-0.1c0.3-0.3,0.7-0.6,1-1c0.1,0.7-0.1,1.2-0.7,1.6
			C21,28.9,20.9,29,20.8,29.1z"/>
		<path class="st0" d="M18.3,26.5c-0.2,0.5-0.5,0.9-0.8,1.3c-0.2,0.3-0.3,0.5-0.5,0.8c-0.1,0.2-0.2,0.3-0.3,0.5
			c-0.1,0-0.1,0.1-0.2,0.1c-0.8,0.8-1.5,1.5-2.3,2.3c-0.1,0.1-0.1,0.1-0.2,0.2c-0.3,0-0.6,0.1-0.8,0c0,0,0.1-0.1,0.1-0.1
			c0.1-0.1,0.1-0.2,0.2-0.2c0.1-0.1,0.1-0.1,0.2-0.2c1.5-1.5,2.9-2.9,4.4-4.4C18.2,26.6,18.3,26.5,18.3,26.5z"/>
		<path class="st19" d="M17.9,31.2c0,0.1-0.1,0.2-0.2,0.2C17.7,31.4,17.8,31.3,17.9,31.2z"/>
		<path class="st18" d="M11.3,30c0.1-0.1,0.3-0.3,0.4-0.4c0.8-0.8,1.6-1.6,2.4-2.4c0.1-0.1,0.1-0.1,0.2-0.2
			c-0.4,0.9-0.7,1.8-1.1,2.7c-0.3,0.8-0.7,1.6-1,2.5c-0.1-0.3-0.2-0.6-0.3-0.8C11.7,31,11.5,30.5,11.3,30z"/>
		<path class="st0" d="M11.1,29.4c0.1,0.2,0.2,0.4,0.2,0.6c-0.4,0.5-0.9,1-1.4,1.4c-0.1,0.1-0.3,0.3-0.4,0.4c0,0,0,0,0,0
			c-0.1-0.2-0.2-0.4-0.3-0.6c0,0,0,0,0,0c0-0.1,0.1-0.1,0.2-0.2c0.5-0.5,1-1,1.5-1.5C10.9,29.5,10.9,29.4,11.1,29.4z"/>
		<path class="st1" d="M5.4,31.6c-0.2,0.1-0.4,0-0.7,0c-0.1,0-0.1,0-0.2-0.1c0,0,0,0,0,0c0.1-0.1,0.1-0.2,0.2-0.2
			c0.4-0.4,0.8-0.8,1.2-1.1c0.4-0.4,0.9-0.9,1.3-1.3c0.1-0.1,0.1-0.1,0.2-0.1c0.2,0.1,0.3,0.3,0.3,0.5c0,0.1,0,0.1-0.1,0.2
			C6.9,30.1,6.2,30.8,5.4,31.6C5.4,31.5,5.4,31.6,5.4,31.6z"/>
		<path class="st0" d="M7.8,29.1c-0.1-0.2-0.2-0.3-0.3-0.5c0,0,0-0.1,0-0.1c0.1,0,0.2-0.1,0.2-0.2c0.7-0.7,1.3-1.3,2-2
			c0.1-0.1,0.1-0.2,0.2-0.1c0.2,0.1,0.2,0.3,0.2,0.5c0,0.1-0.1,0.2-0.1,0.3C9.3,27.8,8.7,28.4,8,29C8,29.1,7.9,29.2,7.8,29.1
			C7.8,29.1,7.8,29.1,7.8,29.1z"/>
		<path class="st19" d="M4.8,31.2c0,0.1-0.1,0.2-0.2,0.2C4.6,31.4,4.7,31.3,4.8,31.2z"/>
		<path class="st0" d="M7.8,29.1c0.6-0.6,1.3-1.3,1.9-1.9C9.9,27.1,10,27,10,26.9c0,0,0,0,0.1,0c0.3,0.8,0.6,1.6,1,2.3
			c0,0,0,0.1,0,0.1c0,0,0,0,0,0.1c-0.5,0.5-1.1,1-1.6,1.6c-0.1,0.1-0.2,0.2-0.4,0.3C8.7,30.6,8.2,29.9,7.8,29.1z"/>
		<path class="st20" d="M13.5,31.2c0,0.1-0.1,0.2-0.2,0.2C13.3,31.4,13.4,31.3,13.5,31.2z"/>
		<path class="st0" d="M16.1,11.2c-0.5,0.5-0.9,0.9-1.4,1.4c-0.1,0.1-0.1,0.2-0.2,0.2c0,0,0,0-0.1,0c-1.1,0-2.3,0-3.4,0c0,0,0,0,0,0
			c0-0.1,0-0.1,0.1-0.1c0.5-0.4,0.9-0.9,1.4-1.4c0.1-0.1,0.1-0.1,0.2-0.2C13.8,11.2,15,11.2,16.1,11.2z"/>
		<path class="st10" d="M8.4,11.2c0.3-0.3,0.6-0.6,0.9-1c0.1-0.1,0.1-0.1,0.2-0.2c1.1,0,2.3,0,3.4,0c-0.1,0.2-0.3,0.3-0.4,0.5
			c-0.4,0.6-1,0.8-1.7,0.7C10,11.1,9.2,11.2,8.4,11.2z"/>
		<path class="st21" d="M15.4,11.2c-0.9,0-1.7,0-2.6,0c0.4-0.4,0.7-0.8,1.1-1.1c0.1-0.1,0.2,0,0.2,0c0.4,0,0.9,0,1.3,0
			c0.1,0.1,0.1,0.2,0.1,0.2C15.4,10.6,15.5,10.9,15.4,11.2z"/>
		<path class="st0" d="M12.7,11.2c-0.5,0.6-1.1,1.1-1.6,1.6c-0.3,0-0.6,0-0.9,0c0.5-0.5,0.9-0.9,1.4-1.4c0.1-0.1,0.1-0.2,0.2-0.2
			C12,11.2,12.3,11.2,12.7,11.2z"/>
		<path class="st22" d="M15.4,11.2c0-0.4,0-0.8,0-1.2c0,0,0,0,0,0c0.3,0,0.6,0,1,0c0,0.3,0,0.6,0,0.9c0,0.2-0.1,0.3-0.3,0.3
			C15.8,11.2,15.6,11.2,15.4,11.2z"/>
		<path class="st0" d="M15.3,8.6c0.2,0.4,0.1,0.9,0.1,1.3c-0.5,0-0.9,0-1.4,0C14.4,9.5,14.8,9.1,15.3,8.6z"/>
		<path class="st11" d="M15.3,14.5c0,0.2,0,0.4,0,0.5c-0.1,0.4-0.3,0.6-0.6,0.7c-0.3,0-0.5,0-0.9,0c0.3-0.2,0.5-0.4,0.5-0.7
			c0-0.1,0-0.2,0-0.3c0-0.2,0.1-0.3,0.3-0.3C14.9,14.5,15.1,14.4,15.3,14.5z"/>
		<path class="st18" d="M10.1,26.9C10.1,26.9,10.1,26.9,10.1,26.9c-0.1-0.2-0.2-0.4-0.2-0.5c0,0,0,0,0-0.1c0.2,0.1,0.4,0,0.5-0.1
			c0.4-0.3,0.8-0.6,1.2-0.9c0.1,0,0,0.1,0,0.1c-0.1,0.1-0.2,0.2-0.3,0.3c-0.3,0.3-0.7,0.7-1,1C10.3,26.8,10.2,26.9,10.1,26.9z"/>
		<path class="st18" d="M10.1,26.9c0.5-0.5,1-1,1.5-1.5c0,0,0,0,0-0.1c0.2-0.2,0.4-0.3,0.7-0.4c0.6,0.4,1.1,0.8,1.7,1.2
			c0.1,0.1,0.1,0.1,0.2,0.1c0,0,0,0,0,0c0,0,0,0,0,0c-0.1,0-0.2,0.1-0.2,0.2c-0.9,0.9-1.8,1.8-2.7,2.7c-0.1,0.1-0.1,0.1-0.2,0.2
			C10.7,28.5,10.4,27.7,10.1,26.9z"/>
		<path class="st16" d="M14.2,26.3C14.2,26.3,14.2,26.3,14.2,26.3c0.2-0.3,0.5-0.6,0.7-0.8c-0.1,0.3-0.2,0.5-0.3,0.7
			C14.5,26.4,14.4,26.3,14.2,26.3z"/>
	</g>
	<g>
		<polygon points="10.1,13.8 10.1,13.8 10.1,13.8 		"/>
		<path d="M8.9,15.2C8.9,15.2,8.9,15.2,8.9,15.2C8.9,15.2,8.9,15.2,8.9,15.2z"/>
		<polygon points="7,12.6 7,12.6 7,12.6 7,12.6 		"/>
		<path d="M10.4,12.6C10.4,12.6,10.4,12.6,10.4,12.6C10.4,12.6,10.4,12.6,10.4,12.6C10.4,12.6,10.4,12.6,10.4,12.6
			C10.4,12.6,10.4,12.6,10.4,12.6z"/>
		<path d="M17.5,15.1C17.5,15.1,17.5,15.1,17.5,15.1C17.5,15.1,17.5,15.2,17.5,15.1C17.5,15.1,17.5,15.1,17.5,15.1z"/>
		<path d="M12.9,11C12.9,11,12.9,11,12.9,11C12.9,11,12.9,11,12.9,11C12.9,11,12.9,11,12.9,11z"/>
		<path d="M9.8,9.8C9.8,9.8,9.8,9.8,9.8,9.8C9.8,9.8,9.8,9.8,9.8,9.8C9.8,9.8,9.8,9.8,9.8,9.8C9.8,9.8,9.8,9.8,9.8,9.8z"/>
		<path d="M22,26.8c-0.1-0.8-0.4-1.5-0.9-2.1c-0.2-0.2-0.4-0.4-0.6-0.5c-0.1-0.1-0.3-0.2-0.4-0.3c-0.6-0.3-1.2-0.4-1.9-0.5
			c-0.1,0-0.2,0.1-0.2-0.1c0.1-0.1,0.2-0.2,0.2-0.3c0.5-0.7,1-1.3,1.5-2c0.1-0.2,0.2-0.4,0.1-0.6c-0.1-0.2-0.3-0.2-0.5-0.2
			c-0.7-0.2-1.4-0.3-2.1-0.4c-0.3,0-0.5-0.1-0.8-0.2c-0.2,0-0.2-0.1-0.1-0.3c0.2-0.4,0.3-0.7,0.4-1.1c0.1-0.3,0.1-0.3,0.4-0.3
			c0.7,0,1.2-0.4,1.3-1.1c0.1-0.6,0.1-1.3,0-1.9c0-0.1,0-0.2-0.1-0.3c-0.1-0.3-0.3-0.5-0.6-0.7c-0.2-0.1-0.4-0.1-0.7-0.1
			c-0.1,0-0.2,0-0.2-0.2c0-0.1,0.1-0.2,0.2-0.2c0.1,0,0.1,0,0.2,0c0.4,0,0.8,0,1.1,0c0.4,0,0.8,0,1.2-0.3c0.1-0.1,0.2-0.2,0.3-0.2
			c0.2-0.3,0.3-0.7,0.2-1.1c-0.2-0.5-0.5-0.8-1-0.9c-0.6,0-1.2,0-1.8,0c-0.3,0-0.3,0-0.3-0.3c0,0,0-0.1,0-0.1c0-0.3,0-0.7,0-1
			c0-0.7-0.2-1.2-0.7-1.7c-0.3-0.3-0.7-0.4-1.1-0.5c-0.7,0-1.3,0-2,0c-0.2,0.1-0.4,0.2-0.5,0.4c-0.1,0.1-0.2,0.1-0.4,0
			c-0.1-0.1-0.3-0.3-0.5-0.4c-0.7,0-1.3,0-2,0c-0.2,0-0.4,0-0.7,0.1C8.3,8,7.9,8.6,7.9,9.4c0,0.4,0,0.9,0,1.3c0,0.3,0,0.3-0.3,0.3
			c-0.6,0-1.2,0-1.8,0c-0.5,0.1-1,0.4-1.1,1c-0.1,0.5,0.1,1,0.7,1.3c0.3,0.1,0.5,0.1,0.8,0.2c0.3,0,0.6,0,0.9,0c0.2,0,0.4,0,0.6,0
			c0.1,0,0.2,0,0.2,0.2c0,0.1-0.1,0.2-0.2,0.2c-0.1,0-0.1,0-0.2,0c-0.7,0-1.2,0.5-1.2,1.2c0,0.5,0,1.1,0,1.6c0,0.3,0.1,0.6,0.2,0.8
			c0.3,0.4,0.7,0.5,1.1,0.5c0.2,0,0.3,0.1,0.3,0.3c0,0.3,0.1,0.6,0.2,0.9c0,0.1,0.1,0.2,0.1,0.3c0.1,0.2,0.1,0.2-0.1,0.3
			c-0.2,0-0.4,0.1-0.6,0.1C6.8,19.9,6,20,5.1,20.2c-0.5,0.1-0.6,0.4-0.3,0.8c0.2,0.3,0.4,0.5,0.6,0.8c0.2,0.2,0.3,0.4,0.5,0.6
			c0.2,0.3,0.5,0.6,0.7,1c-0.8,0-1.6,0.1-2.3,0.6c-0.5,0.3-0.9,0.8-1.3,1.3c-0.2,0.5-0.4,0.9-0.5,1.5c0,1.7,0,3.5,0,5.2
			c0,0.2,0.1,0.3,0.3,0.3c0.8,0,1.6,0,2.5,0c0.4-0.2,0.4-0.4,0.1-0.7c-0.3-0.1-0.6,0-0.9-0.1c-0.1,0-0.2,0-0.3,0
			c-0.3,0-0.5,0.1-0.8,0c-0.1-0.1-0.1-0.2-0.1-0.3c0-1.3,0-2.5,0-3.8c0-0.1,0-0.1,0-0.2c0-0.1,0-0.2,0-0.2c0.1-1.3,1-2.4,2.3-2.6
			c0.2,0,0.5-0.1,0.7,0C6.2,24.6,6,24.8,5.8,25c-0.4,0.4-0.4,0.5-0.1,0.9c0,0,0,0,0,0c0.1,0.2,0.3,0.4,0.4,0.6
			c0.4,0.7,0.9,1.3,1.3,2c0.1,0.2,0.3,0.4,0.4,0.7c0.4,0.7,0.9,1.4,1.3,2.2c-0.4,0-0.8,0-1.1,0c-0.4,0-0.8,0-1.3,0
			c-0.2,0-0.4,0.2-0.4,0.4c0,0.2,0.1,0.3,0.3,0.4c5,0,10.1,0,15.1,0c0.2-0.1,0.3-0.1,0.3-0.3C22,30.2,22,28.5,22,26.8z M17.1,14.6
			c0.2,0,0.4,0.1,0.4,0.3c0.1,0.6,0.1,1.2,0,1.8c-0.1,0.3-0.5,0.5-0.8,0.4c-0.1,0-0.1-0.1-0.1-0.1c0-0.3,0-0.7,0-1
			c0-0.3,0-0.6,0-0.9c0,0,0,0,0,0C16.7,14.6,16.7,14.6,17.1,14.6z M9.4,8.3c0.3-0.1,0.7-0.1,1-0.1c0.3,0,0.6-0.1,0.9,0
			c0.2,0.2,0.4,0.4,0.6,0.6c0.2,0.2,0.4,0.2,0.6,0c0.4-0.6,1-0.7,1.7-0.6c0.2,0,0.3,0,0.5,0c0.3,0,0.6,0.1,0.8,0.3
			c0.5,0.4,0.5,0.8,0.4,1.4c-0.1,0.1-0.1,0-0.2,0c-2.3,0-4.6,0-6.9,0c0,0-0.1,0-0.1,0C8.6,9,8.8,8.5,9.4,8.3z M8.9,10.6
			c1.1,0,2.3,0,3.4,0c0.3,0,0.6,0,0.9,0c0.9,0,1.7,0,2.6,0c0.1,0,0.2,0,0.1,0.2c0,0.1,0,0.2,0,0.3c-0.1,0.1-0.1,0-0.2,0
			c-0.9,0-1.8,0-2.8,0c0,0,0,0,0,0c-1.4,0-2.7,0-4.1,0c-0.1,0-0.1,0-0.2,0c0,0,0-0.1,0-0.1C8.6,10.5,8.6,10.6,8.9,10.6z M7.9,16.8
			c0,0.2-0.1,0.3-0.3,0.3c-0.1,0-0.2,0-0.3,0c-0.2,0-0.2-0.1-0.3-0.2c-0.1-0.3,0-0.6,0-0.9c0-0.3,0-0.5,0-0.8c0-0.3,0.2-0.5,0.5-0.5
			c0.1,0,0.2,0,0.3,0c0.1,0.1,0,0.1,0,0.2C7.9,15.5,7.9,16.1,7.9,16.8z M6,12.7c-0.1,0-0.1,0-0.2,0c-0.3-0.1-0.4-0.2-0.4-0.4
			c0-0.2,0.2-0.4,0.4-0.4c0.3,0,0.6,0,1,0c0.3,0,0.6,0,0.9,0c1.1,0,2.3,0,3.4,0c0.3,0,0.6,0,0.9,0c1.1,0,2.3,0,3.4,0
			c0.3,0,0.6,0,0.9,0c0.8,0,1.5,0,2.3,0c0.2,0,0.4,0.2,0.4,0.4c0,0.2-0.1,0.4-0.4,0.4c-0.1,0.1-0.2,0-0.3,0
			C14.4,12.7,10.2,12.7,6,12.7z M10.3,22.9c-0.1,0,0-0.1,0-0.1c0-0.5,0-0.9,0-1.4c0.3,0.1,0.5,0.2,0.8,0.3c0.9,0.2,1.8,0.2,2.8-0.1
			c0.1,0,0.1,0,0.2-0.1c0.4-0.2,0.4-0.2,0.4,0.3c0,0.3,0,0.6,0,0.9c0,0.1-0.1,0.1-0.1,0.2c-0.6,0.4-1.2,0.8-1.8,1.2
			c-0.2,0.1-0.3-0.1-0.4-0.1C11.4,23.6,10.9,23.3,10.3,22.9z M11.7,24.7c-0.2,0.2-0.4,0.4-0.7,0.5c-0.2,0.2-0.5,0.4-0.8,0.6
			c-0.2-0.6-0.4-1.1-0.7-1.7c-0.1-0.1,0.1-0.2,0.1-0.3c0.3-0.3,0.3-0.3,0.6-0.1c0.4,0.3,0.8,0.6,1.2,0.8
			C11.5,24.6,11.6,24.6,11.7,24.7z M14.5,23.6c0.1-0.1,0.1-0.1,0.2,0c0.3,0.3,0.3,0.3,0.2,0.7c-0.2,0.4-0.3,0.8-0.5,1.2
			c0,0.1-0.1,0.1-0.2,0.1c-0.4-0.3-0.9-0.6-1.3-0.9C13.5,24.3,14,24,14.5,23.6z M14,20.7c-0.7,0.4-1.5,0.5-2.3,0.3
			c-0.3,0-0.6-0.1-0.8-0.2c-0.7-0.3-1.3-0.8-1.7-1.5C9,19,8.9,18.7,8.8,18.4c-0.1-0.2-0.1-0.5-0.1-0.7c0-0.8,0-1.7,0-2.5
			c0-0.2,0-0.3,0-0.5c0-0.1,0-0.2,0.1-0.1c0.1,0,0.2,0,0.2,0.1c0,0.2,0,0.3,0,0.5c0.2,0.7,0.6,1,1.3,1c0.2,0,0.5,0,0.7,0
			c0,0,0.1,0,0.1,0c0.5-0.1,0.8-0.4,1-0.9c0-0.2,0-0.3,0-0.5c0-0.2,0-0.2,0.2-0.3c0.2,0,0.3,0.1,0.2,0.3c0,0.3,0,0.5,0.2,0.8
			c0.3,0.4,0.7,0.6,1.2,0.6c0.2,0,0.5,0,0.7,0c0.6-0.1,1-0.5,1.1-1.2c0-0.1,0-0.1,0-0.2c0-0.2,0.1-0.3,0.2-0.2c0,0,0,0.1,0,0.1
			c0,0.9,0,1.8,0,2.7c0,0.1,0,0.1,0,0.2C15.9,19,15.2,20,14,20.7z M9.7,14.6c0-0.1,0.1-0.1,0.1-0.1c0.2,0,0.5,0,0.7,0
			c0.2,0,0.4,0,0.7,0c0.2,0,0.2,0,0.2,0.2c0,0.6-0.1,0.7-0.7,0.7c-0.2,0-0.3,0-0.5,0C9.7,15.5,9.5,15,9.7,14.6z M13.3,14.6
			c0.5,0,1,0,1.5,0c0.1,0,0.1,0,0.1,0.1c0.1,0.5-0.1,0.8-0.6,0.8c-0.2,0-0.4,0-0.6,0c-0.2,0-0.4-0.1-0.5-0.4c0,0,0,0,0,0
			C13.2,14.9,13.2,14.8,13.3,14.6z M15.9,13.8c0,0.1-0.1,0-0.2,0c-1.9,0-3.7,0-5.6,0c0,0,0,0-0.1,0c-0.4,0-0.9,0-1.3,0
			c-0.1,0-0.1,0-0.2,0c-0.1-0.4-0.1-0.4,0.4-0.4c0.2,0,0.4,0,0.5,0c0.3,0,0.6,0,0.9,0c1.2,0,2.3,0,3.5,0c0.3,0,0.6,0,0.9,0
			c0.3,0,0.7,0,1,0c0.1,0,0.2,0,0.1,0.2C15.9,13.6,16,13.7,15.9,13.8z M10.2,31.6c-0.1,0-0.2-0.1-0.2-0.2c-0.1-0.2-0.3-0.4-0.4-0.6
			c-0.4-0.7-0.9-1.3-1.3-2c-0.2-0.2-0.3-0.4-0.4-0.6c-0.5-0.7-0.9-1.4-1.3-2.1c0,0,0,0,0,0c-0.3-0.5-0.3-0.5,0.1-0.9
			c0.3-0.3,0.6-0.6,0.9-0.9c0.1-0.1,0.2-0.3,0.2-0.5c-0.5-0.6-0.9-1.2-1.4-1.8c-0.2-0.2-0.3-0.4-0.4-0.6c-0.3-0.4-0.3-0.4,0.2-0.5
			c0.1,0,0.2,0,0.3,0c0.4-0.1,0.9-0.2,1.3-0.3c0.3-0.1,0.7-0.1,1-0.2c0,0,0.1,0,0.1,0c0.1,0,0.6,0.6,0.6,0.7c0,0.4,0,0.9,0,1.3
			c0,0,0,0,0,0c0.1,0.6-0.2,0.9-0.6,1.2c-0.2,0.1-0.3,0.3-0.2,0.5c0.3,0.8,0.6,1.5,0.9,2.3c0.1,0.2,0.2,0.5,0.3,0.7
			c0.3,0.8,0.7,1.6,1,2.4c0.1,0.2,0.2,0.5,0.3,0.7c0.2,0.4,0.4,0.9,0.6,1.4C11.2,31.6,10.7,31.6,10.2,31.6z M11.8,29.6
			c-0.1-0.2-0.2-0.5-0.3-0.7c-0.3-0.8-0.6-1.6-1-2.4c0-0.1,0-0.1,0.1-0.2c0.5-0.4,1.1-0.8,1.6-1.1c0.1-0.1,0.1-0.1,0.2,0
			c0.5,0.4,1.1,0.8,1.6,1.2c0.1,0,0.1,0.1,0,0.1c-0.2,0.5-0.4,1-0.6,1.5c-0.4,1-0.8,1.9-1.2,2.9C12.1,30.5,12,30.1,11.8,29.6z
			 M14.6,31.5c-0.1,0.2-0.3,0.1-0.4,0.1c-0.3,0-0.6,0-0.9,0c-0.1,0-0.3,0-0.4,0c0-0.2,0.1-0.3,0.1-0.4c0.6-1.5,1.2-3,1.8-4.5
			c0-0.1,0.1-0.1,0.1-0.2c0.2-0.5,0.4-1.1,0.6-1.6c0,0,0,0,0,0c0,0,0,0,0,0c0.1-0.3,0.2-0.5,0.3-0.8c0.1-0.2,0-0.4-0.1-0.5
			c-0.2-0.2-0.4-0.4-0.6-0.6c0-0.1,0-0.1,0-0.2c0,0,0,0,0,0c0,0,0,0,0,0c0-0.4,0-0.7,0-1.1c0-0.1,0-0.2,0-0.3c0-0.2,0-0.3,0-0.5
			c0.2-0.2,0.3-0.3,0.5-0.5c0.1-0.1,0.2,0,0.3,0c0.2,0,0.4,0,0.6,0.1c0.4,0,0.7,0.1,1.1,0.2c0.4,0.1,0.8,0.2,1.2,0.2
			c-0.7,0.9-1.4,1.9-2.1,2.8c-0.1,0.3,0.1,0.5,0.3,0.7c0.4,0.4,0.7,0.7,1.1,1.1c0.1,0.1,0.1,0.1,0,0.2c-0.6,0.9-1.2,1.8-1.7,2.8
			c-0.5,0.8-1,1.7-1.5,2.5C14.8,31.1,14.7,31.3,14.6,31.5z M21.2,31.5C21.2,31.5,21.2,31.5,21.2,31.5c-0.9,0.1-1.8,0-2.6,0
			c-0.3,0-0.6,0-0.9,0c-0.8,0-1.5,0-2.3,0c0.7-1.1,1.4-2.2,2.1-3.2c0.5-0.9,1.1-1.7,1.6-2.6c0.1-0.2,0.1-0.4-0.1-0.6
			c-0.3-0.3-0.6-0.6-0.9-0.9c0.8,0,1.4,0.1,2,0.5c0.2,0.1,0.4,0.3,0.5,0.5c0.5,0.5,0.7,1.1,0.7,1.8c0,0,0,0,0,0c0,0,0,0,0,0
			c0,0,0,0,0,0c0,0.1,0,0.2,0,0.4c0,0.5,0,0.9,0,1.4c0,0.1,0,0.2,0,0.2c0,0,0,0,0,0c0,0,0,0,0,0c0,0.8,0,1.5,0,2.3
			C21.2,31.4,21.2,31.5,21.2,31.5z"/>
	</g>
</g>
</svg>
