<?xml version="1.0" encoding="utf-8"?>
<!-- Generator: Adobe Illustrator 24.0.2, SVG Export Plug-In . SVG Version: 6.00 Build 0)  -->
<svg version="1.1" id="Capa_1" xmlns="http://www.w3.org/2000/svg" xmlns:xlink="http://www.w3.org/1999/xlink" x="0px" y="0px"
	 viewBox="0 0 24 40" style="enable-background:new 0 0 24 40;" xml:space="preserve">
<style type="text/css">
	.st0{fill:#88B6FF;}
	.st1{fill:#2E80BC;}
	.st2{fill:#CCCCCC;}
	.st3{fill:#00BDFF;}
	.st4{fill:#FFFFFF;}
</style>
<title>Address Active</title>
<desc>Created with Sketch.</desc>
<g>
	<title>Address Book Send</title>
	<desc>Created with Sketch.</desc>
	<rect x="3.2" y="10" class="st0" width="16.1" height="21.2"/>
	<path class="st1" d="M19.3,10.8h1.4v13.1l0,0c0.6,0,1.1,0.4,1.1,1.1v1.9c0,0.6-0.4,1.1-1.1,1.1l0,0v2.5h-1.4V10.8z"/>
	<g>
		<path class="st2" d="M2.2,11.9h2.2c0.4,0,0.8,0.3,0.8,0.8l0,0c0,0.4-0.3,0.8-0.8,0.8H2.2c-0.4-0.1-0.8-0.4-0.8-0.9l0,0
			C1.4,12.1,1.8,11.9,2.2,11.9z"/>
		<path class="st2" d="M2.2,15.8h2.2c0.4,0,0.8,0.3,0.8,0.8l0,0c0,0.4-0.3,0.8-0.8,0.8H2.2c-0.4,0-0.8-0.3-0.8-0.8l0,0
			C1.4,16.2,1.8,15.8,2.2,15.8z"/>
		<path class="st2" d="M2.2,19.8h2.2c0.4,0,0.8,0.3,0.8,0.8l0,0c0,0.4-0.3,0.8-0.8,0.8H2.2c-0.4,0-0.8-0.3-0.8-0.8l0,0
			C1.4,20.1,1.8,19.8,2.2,19.8z"/>
		<path class="st2" d="M2.2,23.9h2.2c0.4,0,0.8,0.3,0.8,0.8l0,0c0,0.4-0.3,0.8-0.8,0.8H2.2c-0.4,0-0.8-0.3-0.8-0.8l0,0
			C1.4,24.2,1.8,23.9,2.2,23.9z"/>
		<path class="st2" d="M2.2,27.8h2.2c0.4,0,0.8,0.3,0.8,0.8l0,0c0,0.4-0.3,0.8-0.8,0.8H2.2c-0.4,0-0.8-0.3-0.8-0.8l0,0
			C1.4,28.2,1.8,27.8,2.2,27.8z"/>
	</g>
	<g>
		<circle class="st1" cx="11.7" cy="15.5" r="1.4"/>
		<path class="st1" d="M11.7,16.9L11.7,16.9c1.2,0,2.2,1,2.2,2.2v2.2l0,0H9.5l0,0v-2.2C9.5,17.9,10.5,16.9,11.7,16.9z"/>
	</g>
	<g>
		<path class="st3" d="M3.2,16.2c-0.1,0-0.3-0.1-0.3-0.3v-2.5C2.9,13.1,3,13,3.2,13c0.2,0,0.3,0.1,0.3,0.3v2.5
			C3.6,16,3.4,16.2,3.2,16.2z"/>
		<path class="st3" d="M3.2,20.2c-0.2,0-0.3-0.1-0.3-0.3v-2.5C2.9,17.2,3,17,3.2,17c0.2,0,0.3,0.1,0.3,0.3v2.5
			C3.6,20,3.4,20.2,3.2,20.2z"/>
		<path class="st3" d="M3.2,24.2c-0.2,0-0.3-0.1-0.3-0.3v-2.5C2.9,21.1,3,21,3.2,21c0.2,0,0.3,0.1,0.3,0.3v2.5
			C3.6,24.1,3.4,24.2,3.2,24.2z"/>
		<path class="st3" d="M3.2,28.2c-0.2,0-0.3-0.1-0.3-0.3v-2.5C2.9,25.1,3,25,3.2,25c0.2,0,0.3,0.1,0.3,0.3v2.5
			C3.6,28.1,3.4,28.2,3.2,28.2z"/>
		<path class="st3" d="M20.7,30.8h-1.4c-0.2,0-0.3-0.1-0.3-0.3c0-0.2,0.1-0.3,0.3-0.3h1.1V28c0-0.2,0.1-0.3,0.3-0.3
			c0.4,0,0.8-0.3,0.8-0.8V25c0-0.4-0.3-0.8-0.8-0.8c-0.2,0-0.3-0.1-0.3-0.3v-8.8c0-0.2,0.1-0.3,0.3-0.3s0.3,0.1,0.3,0.3v8.5
			c0.7,0.2,1.1,0.8,1.1,1.4v1.9c0,0.7-0.4,1.2-1.1,1.4v2.2C21.2,30.6,20.9,30.8,20.7,30.8z"/>
		<path class="st3" d="M20.7,14c-0.2,0-0.3-0.1-0.3-0.3v-0.3c0-0.2,0.1-0.3,0.3-0.3s0.3,0.1,0.3,0.3v0.3C21.2,13.8,20.9,14,20.7,14z
			"/>
		<path class="st3" d="M20.7,12.2c-0.2,0-0.3-0.1-0.3-0.3v-0.8h-1.1c-0.2,0-0.3-0.1-0.3-0.3s0.1-0.3,0.3-0.3h1.4
			c0.2,0,0.3,0.1,0.3,0.3v1.1C21.2,12,20.9,12.2,20.7,12.2z"/>
		<path class="st3" d="M4.3,21.7H2.5c-0.2,0-0.3-0.1-0.3-0.3c0-0.2,0.1-0.3,0.3-0.3h1.9c0.2,0,0.3-0.1,0.3-0.3s-0.1-0.3-0.3-0.3H2.2
			c-0.2,0-0.3,0.1-0.3,0.3S1.8,21,1.5,21s-0.3-0.1-0.3-0.3c0-0.6,0.4-1.1,1.1-1.1h2.2c0.6,0,1.1,0.4,1.1,1.1
			C5.6,21.3,5,21.7,4.3,21.7z"/>
		<path class="st3" d="M4.3,17.6H2.5c-0.2,0-0.3-0.1-0.3-0.3s0.1-0.3,0.3-0.3h1.9c0.2,0,0.3-0.1,0.3-0.3c0-0.2-0.1-0.3-0.3-0.3H2.2
			c-0.2,0-0.3,0.1-0.3,0.3c0,0.2-0.1,0.3-0.3,0.3s-0.4-0.2-0.4-0.3c0-0.6,0.4-1.1,1.1-1.1h2.2c0.6,0,1.1,0.4,1.1,1.1
			C5.4,17.2,5,17.6,4.3,17.6z"/>
		<path class="st3" d="M4.3,13.6H2.5c-0.2,0-0.3-0.1-0.3-0.3c0-0.2,0.1-0.3,0.3-0.3h1.9c0.2,0,0.3-0.1,0.3-0.3s-0.2-0.4-0.4-0.4H2.1
			c-0.1,0-0.3,0.1-0.3,0.3c0,0.2-0.1,0.3-0.3,0.3s-0.3-0.1-0.3-0.3c0-0.6,0.4-1.1,1.1-1.1h2.2c0.6,0,1.1,0.4,1.1,1.1
			C5.5,13.2,5,13.6,4.3,13.6z"/>
		<path class="st3" d="M4.3,29.7H2.5c-0.2,0-0.3-0.1-0.3-0.3c0-0.2,0.1-0.3,0.3-0.3h1.9c0.2,0,0.3-0.1,0.3-0.3
			c0-0.2-0.1-0.3-0.3-0.3H2.2c-0.2,0-0.3,0.1-0.3,0.3c0,0.2-0.1,0.3-0.3,0.3S1.2,29,1.2,28.7c0-0.6,0.4-1.1,1.1-1.1h2.2
			c0.6,0,1.1,0.4,1.1,1.1S5,29.7,4.3,29.7z"/>
		<path class="st3" d="M4.3,25.6H2.5c-0.2,0-0.3-0.1-0.3-0.3c0-0.2,0.1-0.3,0.3-0.3h1.9c0.2,0,0.3-0.1,0.3-0.3
			c0-0.2-0.1-0.3-0.3-0.3H2.2c-0.2,0-0.3,0.1-0.3,0.3c0,0.2-0.1,0.3-0.3,0.3s-0.3-0.1-0.3-0.3c0-0.6,0.4-1.1,1.1-1.1h2.2
			c0.6,0,1.1,0.4,1.1,1.1C5.6,25.3,5,25.6,4.3,25.6z"/>
		<path class="st3" d="M19.3,31.5H3.2c-0.2,0-0.3-0.1-0.3-0.3v-0.8c0-0.2,0.1-0.3,0.3-0.3c0.2,0,0.3,0.1,0.3,0.3v0.3h15.3v-4
			c0-0.2,0.1-0.3,0.3-0.3c0.2,0,0.3,0.1,0.3,0.3v4.4C19.6,31.4,19.5,31.5,19.3,31.5z"/>
		<path class="st3" d="M19.3,25.6c-0.2,0-0.3-0.1-0.3-0.3v-15H3.6v1.4c0,0.2-0.1,0.3-0.3,0.3c-0.2,0-0.4-0.1-0.4-0.2V10
			c0-0.2,0.1-0.3,0.3-0.3h16.1c0.2,0,0.3,0.1,0.3,0.3v15.3C19.6,25.5,19.5,25.6,19.3,25.6z"/>
		<path class="st3" d="M11.7,17.3c-1,0-1.9-0.8-1.9-1.9s0.8-1.8,1.9-1.8c1,0,1.9,0.8,1.9,1.9C13.4,16.5,12.7,17.3,11.7,17.3z
			 M11.7,14.4c-0.6,0-1.1,0.4-1.1,1.1s0.4,1.1,1.1,1.1s1.1-0.4,1.1-1.1S12.2,14.4,11.7,14.4z"/>
		<path class="st3" d="M13.8,21.7c-0.2,0-0.3-0.1-0.3-0.3v-2.2c0-1-0.8-1.9-1.9-1.9c-1,0-1.9,0.8-1.9,1.9V21h2.5
			c0.2,0,0.3,0.1,0.3,0.3c0,0.2-0.1,0.3-0.3,0.3H9.4c-0.2,0-0.3-0.1-0.3-0.3v-2.2c0-1.4,1.1-2.5,2.5-2.5s2.5,1.1,2.5,2.5v2.2
			C14.2,21.5,14,21.7,13.8,21.7z"/>
	</g>
	<path class="st4" d="M11.7,20.2c-0.2,0-0.3-0.1-0.3-0.3v-1.4c0-0.2,0.1-0.3,0.3-0.3s0.3,0.1,0.3,0.3v1.4C12,20,11.8,20.2,11.7,20.2
		z"/>
	<g>
		<path class="st3" d="M9.5,24.2H9.1c-0.2,0-0.3-0.1-0.3-0.3c0-0.2,0.1-0.3,0.3-0.3h0.3c0.2,0,0.3,0.1,0.3,0.3
			C9.8,24.1,9.6,24.2,9.5,24.2z"/>
		<path class="st3" d="M15.7,24.2h-4.7c-0.2,0-0.3-0.1-0.3-0.3c0-0.2,0.1-0.3,0.3-0.3h4.7c0.2,0,0.3,0.1,0.3,0.3
			C16,24.1,15.9,24.2,15.7,24.2z"/>
		<path class="st3" d="M15.7,25.6h-8c-0.2,0-0.3-0.1-0.3-0.3c0-0.2,0.1-0.3,0.3-0.3h8c0.2,0,0.3,0.1,0.3,0.3
			C16,25.5,15.9,25.6,15.7,25.6z"/>
		<path class="st3" d="M14.2,27.1H7.6c-0.2,0-0.3-0.1-0.3-0.3s0.1-0.3,0.3-0.3h6.6c0.2,0,0.3,0.1,0.3,0.3S14.3,27.1,14.2,27.1z"/>
	</g>
</g>
</svg>
