<?xml version="1.0" encoding="utf-8"?>
<!-- Generator: Adobe Illustrator 24.0.2, SVG Export Plug-In . SVG Version: 6.00 Build 0)  -->
<svg version="1.1" id="Capa_1" xmlns="http://www.w3.org/2000/svg" xmlns:xlink="http://www.w3.org/1999/xlink" x="0px" y="0px"
	 viewBox="0 0 24 40" style="enable-background:new 0 0 24 40;" xml:space="preserve">
<style type="text/css">
	.st0{fill:#C49A6C;}
	.st1{fill:#A97C50;}
	.st2{fill:#8B5E3C;}
	.st3{fill:#FF9811;}
	.st4{fill:#FF0000;}
</style>
<title>Send</title>
<desc>Created with Sketch.</desc>
<path class="st0" d="M22,30.1c0,4.9-4.5,5.6-9.5,5.6S3,35,3,30.1C3,26,6.5,21,10.3,19.5h5C19,21.2,22,26.1,22,30.1z"/>
<path class="st1" d="M17.8,16.3c0.3-0.3,0.3-0.8,0.1-1.2c-0.2-0.4-0.6-0.6-1-0.6H8.9c-0.4,0-0.8,0.3-1,0.7C7.7,15.6,7.7,16,8,16.4
	l2.3,3.2h5L17.8,16.3z"/>
<path class="st1" d="M13.3,35.7c-0.3,0-0.5,0-0.8,0C7.6,35.7,3,35,3,30.1C3,26,6.5,21,10.3,19.5h1.7C8.1,21,4.7,26,4.7,30.1
	C4.7,34.7,8.7,35.6,13.3,35.7z"/>
<path class="st2" d="M11.9,19.5h-1.7L8,16.4c-0.3-0.3-0.4-0.8-0.2-1.2c0.2-0.4,0.6-0.7,1-0.7h1.7c-0.4,0-0.8,0.3-1,0.7
	c-0.2,0.4-0.1,0.9,0.2,1.2L11.9,19.5z"/>
<path class="st3" d="M17.5,27.9c0,2.8-2.2,5-5,5s-5-2.2-5-5s2.2-5,5-5S17.5,25.1,17.5,27.9z"/>
<path class="st4" d="M12.4,5.8l1.2,1.2l-2.9,2.9c-0.3,0.3-0.3,0.9,0,1.2l1.1,1.1c0.3,0.3,0.9,0.3,1.2,0L16,9.3l1.2,1.2l0.4-5.1
	L12.4,5.8z"/>
<path d="M12.5,22.3c-3.1,0-5.6,2.5-5.6,5.6s2.5,5.6,5.6,5.6s5.6-2.5,5.6-5.6C18.1,24.8,15.6,22.3,12.5,22.3z M12.5,32.3
	c-2.5,0-4.5-2-4.5-4.5s2-4.5,4.5-4.5s4.5,2,4.5,4.5C17,30.3,15,32.3,12.5,32.3z"/>
<path d="M16.1,19.3l2.1-2.7c0.4-0.5,0.5-1.2,0.2-1.8c-0.3-0.6-0.9-0.9-1.5-0.9H8.9c-0.7,0-1.3,0.4-1.5,1c-0.3,0.6-0.2,1.3,0.3,1.8
	l1.7,2.6c-3.7,1.9-6.9,6.7-6.9,10.8c0,6.1,6.8,6.1,10,6.1s10,0,10-6.1C22.5,26,19.7,21.3,16.1,19.3z M8.3,15.4
	c0.1-0.2,0.3-0.3,0.5-0.3h8.1c0.2,0,0.4,0.1,0.5,0.3c0.1,0.2,0.1,0.4-0.1,0.6L15,19h-4.5l-2.1-3C8.3,15.8,8.3,15.6,8.3,15.4
	L8.3,15.4z M12.5,35.1c-5.3,0-8.9-0.9-8.9-5c0-3.8,3.2-8.5,6.8-10h4.8c3.3,1.5,6.2,6.2,6.2,10C21.4,34.3,17.8,35.1,12.5,35.1z"/>
<path d="M18.1,4.8l-0.5,7L16,10.1l-2.2,2.2c-0.7,0.7-1.9,0.7-2.6,0l-0.6-0.6c-0.7-0.7-0.7-1.9,0-2.6l2.2-2.2l-1.6-1.6L18.1,4.8z
	 M16.7,9.2L16.9,6l-3.3,0.3l0.7,0.7l-2.9,2.9c-0.3,0.3-0.3,0.9,0,1.3l0.3,0.3c0.3,0.3,0.9,0.3,1.3,0L16,8.5L16.7,9.2z"/>
<g>
	<path d="M14.1,28c-0.3,0-0.6,0.1-0.8,0.3c0,0-0.1,0-0.1,0L12.7,28c0,0-0.1-0.1-0.1-0.1l0-0.6c0,0,0-0.1,0.1-0.1
		c0.4-0.1,0.8-0.5,0.8-1c0-0.6-0.5-1-1-1c-0.6,0-1,0.5-1,1c0,0.5,0.3,0.9,0.8,1c0,0,0.1,0.1,0.1,0.1l0,0.6c0,0,0,0.1-0.1,0.1
		l-0.5,0.3c0,0-0.1,0-0.1,0c-0.2-0.2-0.5-0.3-0.8-0.3c-0.6,0-1,0.5-1,1c0,0.6,0.5,1,1,1c0.6,0,1-0.5,1-1c0-0.1,0-0.2,0-0.3
		c0,0,0-0.1,0-0.1l0.5-0.3c0,0,0.1,0,0.1,0l0.5,0.3c0,0,0.1,0.1,0,0.1c0,0.1,0,0.2,0,0.3c0,0.6,0.5,1,1,1c0.6,0,1-0.5,1-1
		C15.2,28.5,14.7,28,14.1,28z"/>
	<path d="M12.1,29.7c-0.2,0.4-0.7,0.7-1.2,0.7c-0.8,0-1.4-0.6-1.4-1.4s0.6-1.4,1.4-1.4c0.4,0,0.7,0.1,0.9,0.3l0.2-0.1l0-0.4
		c-0.3-0.3-0.7-0.4-1.2-0.4C9.8,27.1,9,28,9,29c0,1.1,0.9,1.9,1.9,1.9c0.6,0,1.1-0.3,1.5-0.7C12.3,30.1,12.2,29.9,12.1,29.7z"/>
	<path d="M12.5,24.3c-1.1,0-1.9,0.9-1.9,1.9c0,0.3,0.1,0.5,0.1,0.7c0.1,0,0.1,0,0.2,0c0.2,0,0.3,0,0.5,0.1c-0.2-0.2-0.2-0.5-0.2-0.8
		c0-0.8,0.6-1.4,1.4-1.4c0.8,0,1.4,0.6,1.4,1.4c0,0.6-0.4,1.1-1,1.3l0,0.3l0.3,0.2c0.7-0.3,1.2-1,1.2-1.8
		C14.4,25.2,13.6,24.3,12.5,24.3z"/>
	<path d="M14.4,27.1c-0.1,0.2-0.2,0.4-0.4,0.5c0,0,0.1,0,0.1,0c0.8,0,1.4,0.6,1.4,1.4s-0.6,1.4-1.4,1.4c-0.8,0-1.4-0.6-1.4-1.4
		c0-0.1,0-0.2,0-0.3l-0.3-0.1l-0.3,0.1c0,0.1,0,0.2,0,0.3c0,1.1,0.9,1.9,1.9,1.9c1.1,0,1.9-0.9,1.9-1.9C16,28.1,15.3,27.3,14.4,27.1
		z"/>
</g>
</svg>
