<?xml version="1.0" encoding="utf-8"?>
<!-- Generator: Adobe Illustrator 24.0.1, SVG Export Plug-In . SVG Version: 6.00 Build 0)  -->
<svg version="1.1" id="Capa_1" xmlns="http://www.w3.org/2000/svg" xmlns:xlink="http://www.w3.org/1999/xlink" x="0px" y="0px"
	 viewBox="0 0 24 40" style="enable-background:new 0 0 24 40;" xml:space="preserve">
<style type="text/css">
	.st0{fill:#8AC2FF;}
</style>
<title>Artboard</title>
<desc>Created with Sketch.</desc>
<g id="Artboard">
	<g id="ic_settings-active" transform="translate(1.000000, 13.000000)">
		<g id="Group_8818">
			<g id="Group_8816">
				<path id="Path_18871" class="st0" d="M12.8,22H9.2c-0.6,0-1.1-0.5-1.2-1.1l-0.2-2l-0.1,0l-1.6,1.3c-0.5,0.4-1.2,0.4-1.6-0.1
					l-2.6-2.6c-0.4-0.4-0.5-1.1-0.1-1.6l1.3-1.6l0-0.1L1.1,14C0.5,13.9,0,13.4,0,12.8V9.2C0,8.6,0.5,8.1,1.1,8l2-0.2l0-0.1L1.9,6.1
					C1.5,5.6,1.5,4.9,1.9,4.5l2.6-2.6c0.4-0.4,1.1-0.5,1.6-0.1l1.6,1.3l0.1,0L8,1.1C8.1,0.5,8.6,0,9.2,0h3.6c0.6,0,1.1,0.5,1.2,1.1
					l0.2,2l0.1,0l1.6-1.3c0.5-0.4,1.2-0.4,1.6,0.1l2.6,2.6c0.4,0.4,0.5,1.1,0.1,1.6l-1.3,1.6l0,0.1L20.9,8C21.5,8.1,22,8.6,22,9.2
					v3.6c0,0.6-0.5,1.1-1.1,1.2l-2,0.2l0,0.1l1.3,1.6c0.4,0.5,0.4,1.2-0.1,1.6l-2.6,2.6c-0.4,0.4-1.1,0.5-1.6,0.1l-1.6-1.3l-0.1,0
					L14,20.9C13.9,21.5,13.4,22,12.8,22z M11,20L11,20c0.6,0,1.2-0.5,1.2-1.1l0.2-1.5l0.6-0.2c0.3-0.1,0.6-0.2,1-0.4l0.6-0.3l1.2,1
					c0.5,0.4,1.2,0.4,1.6-0.1l0,0c0.4-0.4,0.5-1.1,0.1-1.6l-1-1.2l0.3-0.6c0.2-0.3,0.3-0.6,0.4-0.9l0.2-0.6l1.5-0.1
					c0.6-0.1,1.1-0.6,1.1-1.2v0c0-0.6-0.5-1.1-1.1-1.2l-1.5-0.2l-0.2-0.6c-0.1-0.4-0.3-0.7-0.4-1l-0.3-0.6l1-1.2
					c0.4-0.5,0.4-1.2-0.1-1.6l0,0c-0.4-0.4-1.1-0.5-1.6-0.1l-1.2,1L14,5.2c-0.3-0.2-0.7-0.3-1-0.4l-0.6-0.2l-0.1-1.5
					C12.1,2.5,11.6,2,11,2h0c-0.6,0-1.1,0.5-1.2,1.1L9.6,4.6L9,4.8C8.7,4.9,8.4,5,8.1,5.2L7.4,5.5l-1.2-1C5.8,4.2,5.1,4.2,4.6,4.6
					l0,0C4.2,5.1,4.2,5.8,4.6,6.3l1,1.2L5.2,8.1C5,8.4,4.9,8.7,4.8,9L4.6,9.6L3.1,9.8C2.5,9.9,2,10.4,2,11v0c0,0.6,0.5,1.1,1.1,1.2
					l1.5,0.2l0.2,0.6c0.1,0.4,0.3,0.7,0.4,1l0.3,0.6l-1,1.2c-0.4,0.5-0.4,1.2,0.1,1.6l0,0c0.4,0.4,1.1,0.5,1.6,0.1l1.2-1l0.6,0.3
					c0.3,0.2,0.6,0.3,1,0.4l0.6,0.2l0.1,1.5C9.9,19.5,10.4,20,11,20z"/>
			</g>
			<g id="Group_8817" transform="translate(7.000000, 7.000000)">
				<path id="Path_18872" class="st0" d="M4,8C1.8,8,0,6.2,0,4s1.8-4,4-4s4,1.8,4,4c0,1.1-0.4,2.1-1.2,2.8S5.1,8,4,8z M4,2
					C2.9,2,2,2.9,2,4s0.9,2,2,2s2-0.9,2-2S5.1,2,4,2z"/>
			</g>
		</g>
	</g>
</g>
</svg>
