<?xml version="1.0" encoding="utf-8"?>
<!-- Generator: Adobe Illustrator 24.0.1, SVG Export Plug-In . SVG Version: 6.00 Build 0)  -->
<svg version="1.1" id="Capa_1" xmlns="http://www.w3.org/2000/svg" xmlns:xlink="http://www.w3.org/1999/xlink" x="0px" y="0px"
	 viewBox="0 0 24 40" style="enable-background:new 0 0 24 40;" xml:space="preserve">
<style type="text/css">
	.st0{fill:#8AC5FF;}
</style>
<title>Address Active</title>
<desc>Created with Sketch.</desc>
<g id="Address">
	<g id="Group-2_1_" transform="translate(3.000000, 12.000000)">
		<path id="Path_18863_1_" class="st0" d="M3.8,0H1.4C0.5,0-0.2,0.7-0.2,1.6v18.9c0,0.9,0.7,1.6,1.6,1.6h14.9c0.9,0,1.6-0.7,1.6-1.6
			V1.6c0-0.9-0.7-1.6-1.6-1.6H3.8z M1.8,20V2h1v18H1.8z M14.3,20H4.8V2h9.5c0.8,0,1.5,0.7,1.5,1.5v15.1C15.8,19.4,15.1,20,14.3,20z"
			/>
		<path id="Path_18864_1_" class="st0" d="M13.6,4H6.9C6.3,4,5.8,4.5,5.8,5.2v3.7c0,0.6,0.5,1.1,1.1,1.1h6.7c0.6,0,1.1-0.5,1.1-1.1
			V5.2C14.8,4.5,14.3,4,13.6,4z M12.1,8H8.4C8.1,8,7.8,7.7,7.8,7.4V6.7C7.8,6.3,8.1,6,8.4,6h3.7c0.4,0,0.7,0.3,0.7,0.7v0.7
			C12.8,7.7,12.5,8,12.1,8z"/>
	</g>
</g>
</svg>
