<?xml version="1.0" encoding="utf-8"?>
<!-- Generator: Adobe Illustrator 24.0.1, SVG Export Plug-In . SVG Version: 6.00 Build 0)  -->
<svg version="1.1" id="Capa_1" xmlns="http://www.w3.org/2000/svg" xmlns:xlink="http://www.w3.org/1999/xlink" x="0px" y="0px"
	 viewBox="0 0 24 40" style="enable-background:new 0 0 24 40;" xml:space="preserve">
<style type="text/css">
	.st0{fill:#FFFFFF;}
</style>
<title>Address</title>
<desc>Created with Sketch.</desc>
<g id="Address">
	<g id="Group-2" transform="translate(3.000000, 12.000000)">
		<path id="Path_18863" class="st0" d="M4,0H1.6C0.7,0,0,0.7,0,1.6v18.9C0,21.3,0.7,22,1.6,22h14.9c0.9,0,1.6-0.7,1.6-1.6V1.6
			C18,0.7,17.3,0,16.4,0H4z M2,20V2h1v18H2z M14.5,20H5V2h9.5C15.3,2,16,2.7,16,3.5v15.1C16,19.3,15.3,20,14.5,20z"/>
		<path id="Path_18864" class="st0" d="M13.9,4H7.1C6.5,4,6,4.5,6,5.1v3.7C6,9.5,6.5,10,7.1,10h6.7c0.6,0,1.1-0.5,1.1-1.1V5.1
			C15,4.5,14.5,4,13.9,4z M12.3,8H8.7C8.3,8,8,7.7,8,7.3V6.7C8,6.3,8.3,6,8.7,6h3.7C12.7,6,13,6.3,13,6.7v0.7C13,7.7,12.7,8,12.3,8z
			"/>
	</g>
</g>
</svg>
