<?xml version="1.0" encoding="utf-8"?>
<!-- Generator: Adobe Illustrator 24.0.1, SVG Export Plug-In . SVG Version: 6.00 Build 0)  -->
<svg version="1.1" id="Capa_1" xmlns="http://www.w3.org/2000/svg" xmlns:xlink="http://www.w3.org/1999/xlink" x="0px" y="0px"
	 viewBox="0 0 24 30" style="enable-background:new 0 0 24 30;" xml:space="preserve">
<style type="text/css">
	.st0{fill:#008CFF;}
</style>
<title>Master Active</title>
<desc>Created with Sketch.</desc>
<g>
	<path class="st0" d="M17,18.3c-0.9,0-1.7,0.3-2.2,0.9c-0.1,0.1-0.3,0.1-0.4,0.1l-1.5-0.9c-0.1-0.1-0.2-0.2-0.2-0.3l0-1.8
		c0-0.1,0.1-0.3,0.2-0.3c1.3-0.3,2.3-1.6,2.3-3c0-1.7-1.4-3.1-3.1-3.1C10.4,9.9,9,11.3,9,13c0,1.4,1,2.7,2.3,3
		c0.1,0,0.2,0.2,0.2,0.3l0,1.8c0,0.1-0.1,0.2-0.2,0.3l-1.5,0.9c-0.1,0.1-0.3,0-0.4-0.1c-0.6-0.6-1.4-0.9-2.2-0.9
		c-1.7,0-3.1,1.4-3.1,3.1c0,1.7,1.4,3.1,3.1,3.1c1.7,0,3.1-1.4,3.1-3.1c0-0.3,0-0.6-0.1-0.8c0-0.1,0-0.3,0.1-0.4l1.6-0.9
		c0.1-0.1,0.2-0.1,0.3,0l1.5,0.9c0.1,0.1,0.2,0.2,0.1,0.4c-0.1,0.3-0.1,0.6-0.1,0.9c0,1.7,1.4,3.1,3.1,3.1c1.7,0,3.1-1.4,3.1-3.1
		C20,19.7,18.7,18.3,17,18.3z"/>
	<path class="st0" d="M11.1,22.8c-0.6,1.5-2.1,2.6-3.8,2.6c-2.3,0-4.1-1.8-4.1-4.1c0-2.3,1.8-4.1,4.1-4.1c1,0,2,0.4,2.7,1l0.7-0.4
		l0.1-1.1c-1-0.8-2.2-1.2-3.5-1.2c-3.1,0-5.7,2.5-5.7,5.7s2.5,5.7,5.7,5.7c1.9,0,3.6-0.9,4.6-2.4C11.5,24.1,11.3,23.5,11.1,22.8z"/>
	<path class="st0" d="M12.1,7.3c-3.1,0-5.7,2.5-5.7,5.7c0,0.8,0.2,1.6,0.5,2.4c0.1,0,0.2,0,0.4,0c0.6,0,1.1,0.1,1.7,0.2
		C8.4,14.9,8,14,8,13c0-2.3,1.8-4.1,4.1-4.1c2.3,0,4.1,1.8,4.1,4.1c0,1.8-1.2,3.4-2.8,3.9l0,1l0.8,0.5c2.1-0.8,3.7-2.9,3.7-5.3
		C17.8,9.9,15.2,7.3,12.1,7.3z"/>
	<path class="st0" d="M17.5,15.7c-0.3,0.6-0.7,1.2-1.2,1.7c0.2,0,0.5-0.1,0.7-0.1c2.3,0,4.1,1.8,4.1,4.1c0,2.3-1.8,4.1-4.1,4.1
		c-2.3,0-4.1-1.8-4.1-4.1c0-0.3,0-0.6,0.1-0.8l-0.8-0.4l-0.8,0.4c0,0.3-0.1,0.5-0.1,0.8c0,3.1,2.5,5.7,5.7,5.7
		c3.1,0,5.7-2.5,5.7-5.7C22.6,18.4,20.4,16,17.5,15.7z"/>
</g>
</svg>
