<?xml version="1.0" encoding="utf-8"?>
<!-- Generator: Adobe Illustrator 24.0.1, SVG Export Plug-In . SVG Version: 6.00 Build 0)  -->
<svg version="1.1" id="Capa_1" xmlns="http://www.w3.org/2000/svg" xmlns:xlink="http://www.w3.org/1999/xlink" x="0px" y="0px"
	 viewBox="0 0 24 40" style="enable-background:new 0 0 24 40;" xml:space="preserve">
<style type="text/css">
	.st0{fill:#FFFFFF;}
</style>
<title>Settings</title>
<desc>Created with Sketch.</desc>
<g id="Settings">
	<path id="Path_18871" class="st0" d="M14.2,35H9.8c-0.4,0-0.7-0.3-0.7-0.7l-0.2-2.5l-0.1,0l-1.9,1.6c-0.3,0.2-0.7,0.2-1,0l-3.1-3.1
		c-0.3-0.3-0.3-0.7-0.1-1l1.6-1.9l0-0.1L1.7,27c-0.4,0-0.7-0.4-0.7-0.7v-4.4c0-0.4,0.3-0.7,0.7-0.7l2.5-0.2l0-0.1l-1.6-1.9
		c-0.2-0.3-0.2-0.7,0.1-1l3.1-3.1c0.3-0.3,0.7-0.3,1,0l1.9,1.6l0.1,0L9,13.7c0-0.4,0.4-0.7,0.7-0.7h4.4c0.4,0,0.7,0.3,0.7,0.7
		l0.2,2.5l0.1,0l1.9-1.6c0.3-0.2,0.7-0.2,1,0l3.1,3.1c0.3,0.3,0.3,0.7,0.1,1l-1.6,1.9l0,0.1l2.5,0.3c0.4,0,0.7,0.4,0.7,0.7v4.4
		c0,0.4-0.3,0.7-0.7,0.7l-2.5,0.2l0,0.1l1.6,1.9c0.2,0.3,0.2,0.7-0.1,1l-3.1,3.1c-0.3,0.3-0.7,0.3-1,0l-1.9-1.6l-0.1,0L15,34.3
		C14.9,34.7,14.6,35,14.2,35z M11.6,33h0.8c0.4,0,0.7-0.3,0.7-0.7l0.2-1.9l0.6-0.2c0.3-0.1,0.6-0.2,1-0.4l0.6-0.3l1.5,1.2
		c0.3,0.2,0.7,0.2,1-0.1l0.6-0.6c0.3-0.3,0.3-0.7,0.1-1l-1.2-1.5l0.3-0.6c0.2-0.3,0.3-0.6,0.4-0.9l0.2-0.6l1.9-0.2
		c0.4,0,0.7-0.4,0.7-0.7v-0.8c0-0.4-0.3-0.7-0.7-0.7l-1.9-0.2L18.2,22c-0.1-0.3-0.2-0.6-0.4-0.9l-0.3-0.6l1.2-1.5
		c0.2-0.3,0.2-0.7-0.1-1l-0.6-0.6c-0.3-0.3-0.7-0.3-1-0.1l-1.5,1.2L15,18.2c-0.3-0.2-0.7-0.3-1-0.4l-0.6-0.2l-0.2-1.9
		c0-0.4-0.4-0.7-0.7-0.7h-0.8c-0.4,0-0.7,0.3-0.7,0.7l-0.2,1.9L10,17.8c-0.3,0.1-0.6,0.2-1,0.4l-0.6,0.3l-1.5-1.2
		c-0.3-0.2-0.7-0.2-1,0.1l-0.6,0.6c-0.3,0.3-0.3,0.7-0.1,1l1.2,1.5L6.2,21c-0.2,0.3-0.3,0.7-0.4,1l-0.2,0.6l-1.9,0.2
		c-0.4,0-0.7,0.4-0.7,0.7v0.8c0,0.4,0.3,0.7,0.7,0.7l1.9,0.2l0.2,0.6c0.1,0.4,0.3,0.7,0.4,1l0.3,0.6l-1.2,1.5
		c-0.2,0.3-0.2,0.7,0.1,1l0.6,0.6c0.3,0.3,0.7,0.3,1,0.1l1.5-1.2l0.6,0.3c0.3,0.2,0.6,0.3,1,0.4l0.6,0.2l0.2,1.9
		C10.9,32.7,11.2,33,11.6,33z"/>
	<path id="Path_18872" class="st0" d="M12,28c-2.2,0-4-1.8-4-4s1.8-4,4-4s4,1.8,4,4c0,1.1-0.4,2.1-1.2,2.8C14.1,27.6,13.1,28,12,28z
		 M12,22c-1.1,0-2,0.9-2,2s0.9,2,2,2s2-0.9,2-2S13.1,22,12,22z"/>
</g>
</svg>
