<?xml version="1.0" encoding="utf-8"?>
<!-- Generator: Adobe Illustrator 24.0.1, SVG Export Plug-In . SVG Version: 6.00 Build 0)  -->
<svg version="1.1" id="Capa_1" xmlns="http://www.w3.org/2000/svg" xmlns:xlink="http://www.w3.org/1999/xlink" x="0px" y="0px"
	 viewBox="0 0 24 40" style="enable-background:new 0 0 24 40;" xml:space="preserve">
<style type="text/css">
	.st0{fill:#7BABEF;}
</style>
<title>Receive off</title>
<desc>Created with Sketch.</desc>
<g id="ic-transaction-received_1_">
	<g id="Group_8834_1_">
		<path class="st0" d="M18.9,24.5L11.8,31l-7.2-6.5l1.5-1.6l4.6,4.3v-4.8c0.3,0.1,0.6,0.1,1.1,0.1c0.3,0,0.7,0,1.1-0.1v4.9l4.6-4.3
			L18.9,24.5z"/>
		<path class="st0" d="M22.6,29.1v2.4c0,2.2-1.8,4.1-4.1,4.1H5.3c-2.2,0-4.1-1.8-4.1-4.1v-2.4h2.1V31c0,1.3,1.1,2.4,2.4,2.4H18
			c1.3,0,2.4-1.1,2.4-2.4v-1.9H22.6z"/>
	</g>
	<path class="st0" d="M20.4,29.1V31c0,1.3-1.1,2.4-2.4,2.4H5.7c-1.3,0-2.4-1.1-2.4-2.4v-1.9H1.2v2.4c0,2.2,1.8,4.1,4.1,4.1h13.2
		c2.2,0,4.1-1.8,4.1-4.1v-2.4H20.4z M18.9,24.5l-1.5-1.6l-4.6,4.3v-4.8c-0.3,0.1-0.7,0.1-1.1,0.1c-0.4,0-0.7,0-1.1-0.1v4.9L6.1,23
		l-1.5,1.6l7.2,6.5L18.9,24.5z"/>
</g>
<circle class="st0" cx="11.9" cy="17.5" r="4"/>
</svg>
