<?xml version="1.0" encoding="utf-8"?>
<!-- Generator: Adobe Illustrator 24.0.2, SVG Export Plug-In . SVG Version: 6.00 Build 0)  -->
<svg version="1.1" id="Capa_1" xmlns="http://www.w3.org/2000/svg" xmlns:xlink="http://www.w3.org/1999/xlink" x="0px" y="0px"
	 viewBox="0 0 24 40" style="enable-background:new 0 0 24 40;" xml:space="preserve">
<style type="text/css">
	.st0{fill:#3E3D42;}
	.st1{fill:#FFFFFF;}
</style>
<title>Settings</title>
<desc>Created with Sketch.</desc>
<title>Artboard</title>
<desc>Created with Sketch.</desc>
<path class="st0" d="M19.6,23.3c-0.1,0.5-0.3,1-0.6,1.4l2.1,2.1l-3,3l-2.1-2.1c-0.5,0.2-0.9,0.4-1.4,0.6v3h-4.3v-3
	c-0.5-0.1-1-0.3-1.4-0.6l-2.1,2.1l-3-3l2.1-2.1c-0.2-0.5-0.4-0.9-0.6-1.4h-3V19h3c0.1-0.5,0.3-1,0.6-1.4l-2.1-2.1l3-3l2.1,2.1
	c0.5-0.2,0.9-0.4,1.4-0.6v-3h4.3v3c0.5,0.1,1,0.3,1.4,0.6l2.1-2.1l3,3L19,17.5c0.2,0.5,0.4,0.9,0.6,1.4h3v4.3H19.6z"/>
<circle class="st1" cx="12.3" cy="21.1" r="5.4"/>
<path d="M12.3,15.2c-3.3,0-5.9,2.6-5.9,5.9c0,3.3,2.6,5.9,5.9,5.9s5.9-2.6,5.9-5.9C18.3,17.8,15.6,15.2,12.3,15.2z M12.3,26
	c-2.7,0-4.8-2.2-4.8-4.8s2.2-4.8,4.8-4.8s4.8,2.2,4.8,4.8C17.2,23.8,15,25.9,12.3,26z"/>
<path d="M22.6,18.4H20c-0.1-0.3-0.2-0.5-0.3-0.8l1.8-1.8c0.1-0.1,0.2-0.2,0.2-0.4c0-0.1-0.1-0.3-0.2-0.4l-3-3
	c-0.2-0.2-0.5-0.2-0.8,0l-1.8,1.8c-0.3-0.1-0.5-0.2-0.8-0.3v-2.6c0-0.3-0.2-0.5-0.5-0.5h-4.3c-0.3,0-0.5,0.2-0.5,0.5v2.6
	c-0.3,0.1-0.5,0.2-0.8,0.3L7,12c-0.1-0.1-0.2-0.2-0.4-0.2c-0.1,0-0.3,0.1-0.4,0.2l-3,3c-0.1,0.1-0.2,0.2-0.2,0.4
	c0,0.1,0.1,0.3,0.2,0.4l1.8,1.8c-0.1,0.3-0.2,0.5-0.3,0.8H2.1c-0.3,0-0.5,0.2-0.5,0.5v4.3c0,0.3,0.2,0.5,0.5,0.5h2.6
	c0.1,0.3,0.2,0.5,0.3,0.8l-1.8,1.8c-0.1,0.1-0.2,0.2-0.2,0.4c0,0.1,0.1,0.3,0.2,0.4l3,3c0.2,0.2,0.5,0.2,0.8,0l1.8-1.8
	c0.3,0.1,0.5,0.2,0.8,0.3v2.6c0,0.3,0.2,0.5,0.5,0.5h4.3c0.3,0,0.5-0.2,0.5-0.5v-2.6c0.3-0.1,0.5-0.2,0.8-0.3l1.8,1.8
	c0.1,0.1,0.2,0.2,0.4,0.2c0.1,0,0.3-0.1,0.4-0.2l3-3c0.1-0.1,0.2-0.2,0.2-0.4c0-0.1-0.1-0.3-0.2-0.4l-1.8-1.8
	c0.1-0.3,0.2-0.5,0.3-0.8h2.6c0.3,0,0.5-0.2,0.5-0.5V19C23.1,18.7,22.9,18.4,22.6,18.4z M22,22.7h-2.5c-0.2,0-0.4,0.2-0.5,0.4
	c-0.1,0.5-0.3,0.9-0.5,1.3c-0.1,0.2-0.1,0.5,0.1,0.6l1.7,1.7l-2.3,2.3l-1.7-1.7c-0.2-0.2-0.4-0.2-0.6-0.1c-0.4,0.2-0.9,0.4-1.3,0.5
	c-0.2,0.1-0.4,0.3-0.4,0.5v2.5h-3.2v-2.5c0-0.2-0.2-0.4-0.4-0.5c-0.5-0.1-0.9-0.3-1.3-0.5c-0.2-0.1-0.5-0.1-0.6,0.1l-1.7,1.7
	l-2.3-2.3l1.7-1.7c0.2-0.2,0.2-0.4,0.1-0.6C6,24,5.8,23.6,5.6,23.1c-0.1-0.2-0.3-0.4-0.5-0.4H2.7v-3.2h2.5c0.2,0,0.4-0.2,0.5-0.4
	c0.1-0.5,0.3-0.9,0.5-1.3c0.1-0.2,0.1-0.5-0.1-0.6l-1.7-1.7l2.3-2.3l1.7,1.7C8.5,15,8.8,15.1,9,15c0.4-0.2,0.9-0.4,1.3-0.5
	c0.2-0.1,0.4-0.3,0.4-0.5v-2.5H14v2.5c0,0.2,0.2,0.4,0.4,0.5c0.5,0.1,0.9,0.3,1.3,0.5c0.2,0.1,0.5,0.1,0.6-0.1l1.7-1.7l2.3,2.3
	l-1.7,1.7c-0.2,0.2-0.2,0.4-0.1,0.6c0.2,0.4,0.4,0.9,0.5,1.3c0.1,0.2,0.3,0.4,0.5,0.4H22V22.7z"/>
<g>
	<path d="M14.1,21.2c-0.3,0-0.6,0.1-0.8,0.3c0,0-0.1,0-0.1,0l-0.6-0.3c0,0-0.1-0.1-0.1-0.1l0-0.6c0-0.1,0-0.1,0.1-0.1
		c0.5-0.1,0.8-0.6,0.8-1.1c0-0.6-0.5-1.1-1.1-1.1c-0.6,0-1.1,0.5-1.1,1.1c0,0.5,0.4,1,0.8,1.1c0.1,0,0.1,0.1,0.1,0.1l0,0.6
		c0,0,0,0.1-0.1,0.1l-0.6,0.3c0,0-0.1,0-0.1,0c-0.2-0.2-0.5-0.3-0.8-0.3c-0.6,0-1.1,0.5-1.1,1.1c0,0.6,0.5,1.1,1.1,1.1
		c0.6,0,1.1-0.5,1.1-1.1c0-0.1,0-0.2,0-0.3c0-0.1,0-0.1,0.1-0.1l0.6-0.3c0,0,0.1,0,0.1,0l0.6,0.3c0,0,0.1,0.1,0.1,0.1
		c0,0.1,0,0.2,0,0.3c0,0.6,0.5,1.1,1.1,1.1c0.6,0,1.1-0.5,1.1-1.1C15.2,21.7,14.7,21.2,14.1,21.2z"/>
	<path d="M11.9,23c-0.2,0.5-0.7,0.8-1.3,0.8c-0.8,0-1.5-0.7-1.5-1.5c0-0.8,0.7-1.5,1.5-1.5c0.4,0,0.7,0.1,1,0.4l0.3-0.1l0-0.4
		c-0.4-0.3-0.8-0.4-1.3-0.4c-1.1,0-2.1,0.9-2.1,2.1c0,1.1,0.9,2.1,2.1,2.1c0.7,0,1.2-0.3,1.6-0.8C12.1,23.4,12,23.2,11.9,23z"/>
	<path d="M12.3,17.2c-1.1,0-2.1,0.9-2.1,2.1c0,0.3,0.1,0.5,0.2,0.8c0.1,0,0.1,0,0.2,0c0.2,0,0.3,0,0.5,0.1c-0.2-0.2-0.3-0.5-0.3-0.8
		c0-0.8,0.7-1.5,1.5-1.5c0.8,0,1.5,0.7,1.5,1.5c0,0.7-0.4,1.2-1,1.4l0,0.4l0.3,0.2c0.8-0.3,1.3-1,1.3-1.9
		C14.4,18.1,13.5,17.2,12.3,17.2z"/>
	<path d="M14.4,20.3c-0.1,0.2-0.2,0.4-0.4,0.6c0,0,0.1,0,0.1,0c0.8,0,1.5,0.7,1.5,1.5c0,0.8-0.7,1.5-1.5,1.5c-0.8,0-1.5-0.7-1.5-1.5
		c0-0.1,0-0.2,0-0.3l-0.3-0.1L12.1,22c0,0.1,0,0.2,0,0.3c0,1.1,0.9,2.1,2.1,2.1c1.1,0,2.1-0.9,2.1-2.1
		C16.2,21.3,15.4,20.4,14.4,20.3z"/>
</g>
</svg>
