<?xml version="1.0" encoding="utf-8"?>
<!-- Generator: Adobe Illustrator 24.0.2, SVG Export Plug-In . SVG Version: 6.00 Build 0)  -->
<svg version="1.1" id="Capa_1" xmlns="http://www.w3.org/2000/svg" xmlns:xlink="http://www.w3.org/1999/xlink" x="0px" y="0px"
	 viewBox="0 0 24 40" style="enable-background:new 0 0 24 40;" xml:space="preserve">
<style type="text/css">
	.st0{fill:#E6E9ED;}
	.st1{fill:#1D94FF;}
	.st2{fill:#CCD1D9;}
	.st3{fill:#71B5FF;}
	.st4{fill:#0070C4;}
	.st5{fill:#FFFFFF;}
</style>
<title>Dashboard</title>
<desc>Created with Sketch.</desc>
<title>Dashboard</title>
<desc>Created with Sketch.</desc>
<g>
	<g>
		<g>
			<path class="st0" d="M1.7,12.2v13.7h14.4c0-1,0.8-1.8,1.8-1.8s1.8,0.8,1.8,1.8h1.4V12.2H1.7z"/>
		</g>
		<g>
			<path class="st1" d="M3.1,21.6h1.4v2.9H3.1V21.6z"/>
		</g>
		<g>
			<path class="st1" d="M6,22.3h1.4v2.2H6V22.3z"/>
		</g>
		<g>
			<path class="st1" d="M8.9,19.4h1.4v5.1H8.9V19.4z"/>
		</g>
		<g>
			<path class="st1" d="M13.2,20.9v2.4c-0.2,0.4-0.4,0.8-0.5,1.3h-0.9v-3.6H13.2z"/>
		</g>
		<g>
			<path class="st2" d="M17.9,22.7c-1.8,0-3.3,1.5-3.3,3.3c0,0.6,0.2,1.1,0.4,1.6c0.6,1,1.6,1.6,2.8,1.6c1.2,0,2.3-0.7,2.8-1.6
				c0.3-0.5,0.4-1,0.4-1.6C21.2,24.1,19.7,22.7,17.9,22.7z M17.9,27.7c-1,0-1.8-0.8-1.8-1.8s0.8-1.8,1.8-1.8s1.8,0.8,1.8,1.8
				S18.9,27.7,17.9,27.7z"/>
		</g>
		<g>
			<path class="st1" d="M20.7,27.5l1.9,1.1c-0.9,1.6-2.7,2.7-4.7,2.7s-3.8-1.1-4.7-2.7l1.9-1.1c0.6,1,1.6,1.6,2.8,1.6
				C19.1,29.2,20.2,28.5,20.7,27.5L20.7,27.5z"/>
		</g>
		<g>
			<path class="st3" d="M23.3,25.9c0,1-0.3,1.9-0.7,2.7l-1.9-1.1c0.3-0.5,0.4-1,0.4-1.6c0-1.8-1.5-3.3-3.3-3.3v-2.2
				c1.2,0,2.3,0.4,3.3,1.1C22.5,22.6,23.3,24.1,23.3,25.9z"/>
		</g>
		<g>
			<path class="st4" d="M17.9,20.5v2.2c-1.8,0-3.3,1.5-3.3,3.3c0,0.6,0.2,1.1,0.4,1.6l-1.9,1.1c-0.5-0.8-0.7-1.7-0.7-2.7
				c0-0.5,0.1-1,0.2-1.4c0.1-0.4,0.3-0.9,0.5-1.3C14.2,21.6,15.9,20.5,17.9,20.5L17.9,20.5z"/>
		</g>
		<g>
			<path class="st3" d="M11.6,17.1c0.1,0.1,0.2,0.3,0.2,0.5c0,0.4-0.3,0.7-0.7,0.7s-0.7-0.3-0.7-0.7s0.3-0.7,0.7-0.7
				C11.3,16.9,11.4,17,11.6,17.1z"/>
		</g>
		<g>
			<path class="st3" d="M14.8,14.9c-0.1,0.1-0.3,0.2-0.5,0.2c-0.2,0-0.4-0.1-0.5-0.2c-0.1-0.1-0.2-0.3-0.2-0.5
				c0-0.4,0.3-0.7,0.7-0.7c0.4,0,0.7,0.3,0.7,0.7C15,14.6,14.9,14.7,14.8,14.9z"/>
		</g>
		<g>
			<path class="st3" d="M17,16c0.1,0.1,0.2,0.3,0.2,0.5c0,0.4-0.3,0.7-0.7,0.7c-0.4,0-0.7-0.3-0.7-0.7c0-0.2,0.1-0.4,0.2-0.5
				c0.1-0.1,0.3-0.2,0.5-0.2C16.7,15.8,16.9,15.9,17,16z"/>
		</g>
		<g>
			<path class="st3" d="M21.2,9.7c1.2,0,2.2,1,2.2,2.2s-1,2.2-2.2,2.2c-0.6,0-1.1-0.2-1.5-0.6c-0.3-0.3-0.5-0.7-0.6-1.2
				c0-0.1,0-0.2,0-0.4C19,10.6,20,9.7,21.2,9.7L21.2,9.7z"/>
		</g>
	</g>
	<g>
		<path class="st5" d="M21.5,21.4v-7.1c1.2-0.2,2.2-1.2,2.2-2.5c0-1.4-1.1-2.5-2.5-2.5c-1.4,0-2.5,1.1-2.5,2.5H1.3v14.4h10.9
			c0.2,3,2.7,5.4,5.8,5.4c3.2,0,5.8-2.6,5.8-5.8C23.7,24.1,22.8,22.5,21.5,21.4z M21.2,10c1,0,1.8,0.8,1.8,1.8s-0.8,1.8-1.8,1.8
			s-1.8-0.8-1.8-1.8S20.2,10,21.2,10z M2,12.6h16.7c0.1,0.3,0.2,0.6,0.4,0.8l-2.2,2.2c-0.1-0.1-0.3-0.1-0.5-0.1
			c-0.2,0-0.3,0-0.5,0.1l-0.7-0.7c0.1-0.1,0.1-0.3,0.1-0.5c0-0.6-0.5-1.1-1.1-1.1s-1.1,0.5-1.1,1.1c0,0.2,0,0.3,0.1,0.5l-1.8,1.8
			c-0.1-0.1-0.3-0.1-0.5-0.1c-0.6,0-1.1,0.5-1.1,1.1c0,0.6,0.5,1.1,1.1,1.1c0.6,0,1.1-0.5,1.1-1.1c0-0.2,0-0.3-0.1-0.5l1.8-1.8
			c0.1,0.1,0.3,0.1,0.5,0.1s0.3,0,0.5-0.1l0.7,0.7c-0.1,0.1-0.1,0.3-0.1,0.5c0,0.6,0.5,1.1,1.1,1.1c0.6,0,1.1-0.5,1.1-1.1
			c0-0.2,0-0.3-0.1-0.5l2.2-2.2c0.3,0.2,0.7,0.4,1.2,0.5v6.6c-0.9-0.5-1.8-0.8-2.9-0.8c-1.7,0-3.3,0.8-4.3,2v-1.6h-2.2v4.3h0.8
			c0,0.2-0.1,0.5-0.1,0.7H2V12.6z M16.5,16.2c0.2,0,0.4,0.2,0.4,0.4c0,0.2-0.2,0.4-0.4,0.4c-0.2,0-0.4-0.2-0.4-0.4
			C16.1,16.3,16.3,16.2,16.5,16.2z M13.9,14.4c0-0.2,0.2-0.4,0.4-0.4c0.2,0,0.4,0.2,0.4,0.4c0,0.2-0.2,0.4-0.4,0.4
			C14.1,14.7,13.9,14.6,13.9,14.4z M11.4,17.6c0,0.2-0.2,0.4-0.4,0.4s-0.4-0.2-0.4-0.4s0.2-0.4,0.4-0.4S11.4,17.4,11.4,17.6z
			 M17.9,28.8c-1.6,0-2.9-1.3-2.9-2.9s1.3-2.9,2.9-2.9s2.9,1.3,2.9,2.9S19.5,28.8,17.9,28.8z M12.9,23.1c-0.2,0.3-0.3,0.6-0.4,1
			h-0.3v-2.9h0.7V23.1z M17.6,20.9v1.4c-1.8,0.2-3.3,1.7-3.3,3.6c0,0.5,0.1,1,0.3,1.5l-1.3,0.7c-0.3-0.7-0.5-1.4-0.5-2.2
			C12.9,23.3,14.9,21.1,17.6,20.9L17.6,20.9z M17.9,31c-1.7,0-3.3-0.9-4.2-2.2L15,28c0.7,0.9,1.7,1.5,2.9,1.5s2.3-0.6,2.9-1.5
			l1.3,0.7C21.2,30.1,19.7,31,17.9,31z M22.5,28.1l-1.3-0.7c0.2-0.5,0.3-1,0.3-1.5c0-1.9-1.4-3.4-3.3-3.6v-1.4
			c2.6,0.2,4.7,2.4,4.7,5C23,26.7,22.8,27.5,22.5,28.1L22.5,28.1z"/>
		<path class="st5" d="M17.9,23.8c-1.2,0-2.2,1-2.2,2.2s1,2.2,2.2,2.2s2.2-1,2.2-2.2S19.1,23.8,17.9,23.8z M17.9,27.4
			c-0.8,0-1.4-0.6-1.4-1.4s0.6-1.4,1.4-1.4c0.8,0,1.4,0.6,1.4,1.4S18.7,27.4,17.9,27.4z"/>
		<path class="st5" d="M2.7,13.3h0.7V14H2.7V13.3z"/>
		<path class="st5" d="M4.2,13.3h5.1V14H4.2V13.3z"/>
		<path class="st5" d="M2.7,14.7h0.7v0.7H2.7V14.7z"/>
		<path class="st5" d="M4.2,14.7h5.1v0.7H4.2V14.7z"/>
		<path class="st5" d="M2.7,16.2h0.7v0.7H2.7V16.2z"/>
		<path class="st5" d="M4.2,16.2h5.1v0.7H4.2V16.2z"/>
		<path class="st5" d="M2.7,17.6h0.7v0.7H2.7V17.6z"/>
		<path class="st5" d="M4.2,17.6h5.1v0.7H4.2V17.6z"/>
		<path class="st5" d="M2.7,24.8h2.2v-3.6H2.7V24.8z M3.5,21.9h0.7v2.2H3.5V21.9z"/>
		<path class="st5" d="M5.6,24.8h2.2v-2.9H5.6V24.8z M6.4,22.7h0.7v1.4H6.4V22.7z"/>
		<path class="st5" d="M8.5,24.8h2.2v-5.8H8.5V24.8z M9.2,19.8H10v4.3H9.2V19.8z"/>
	</g>
</g>
</svg>
