<?xml version="1.0" encoding="utf-8"?>
<!-- Generator: Adobe Illustrator 24.0.1, SVG Export Plug-In . SVG Version: 6.00 Build 0)  -->
<svg version="1.1" id="Capa_1" xmlns="http://www.w3.org/2000/svg" xmlns:xlink="http://www.w3.org/1999/xlink" x="0px" y="0px"
	 viewBox="0 0 24 40" style="enable-background:new 0 0 24 40;" xml:space="preserve">
<style type="text/css">
	.st0{fill:#8AD2FF;}
</style>
<title>Receive off</title>
<desc>Created with Sketch.</desc>
<g id="ic-transaction-received_1_">
	<g id="Group_8834_1_">
		<path class="st0" d="M19.1,23.6l-7.2,6.6l-7.2-6.6l1.5-1.6l4.6,4.3v-4.8c0.3,0.1,0.6,0.1,1.1,0.1c0.3,0,0.8,0,1.1-0.1v4.9l4.6-4.3
			L19.1,23.6z"/>
		<path class="st0" d="M22.7,28.2v2.4c0,2.3-1.8,4.1-4.1,4.1H5.3c-2.3,0-4.1-1.8-4.1-4.1v-2.4h2.2v1.9c0,1.3,1.1,2.4,2.4,2.4h12.4
			c1.3,0,2.4-1.1,2.4-2.4v-1.9H22.7z"/>
	</g>
	<path class="st0" d="M20.6,28.2v1.9c0,1.3-1.1,2.4-2.4,2.4H5.7c-1.3,0-2.4-1.1-2.4-2.4v-1.9H1.2v2.4c0,2.3,1.8,4.1,4.1,4.1h13.3
		c2.3,0,4.1-1.8,4.1-4.1v-2.4H20.6z M19.1,23.6l-1.5-1.6l-4.6,4.3v-4.8c-0.3,0.1-0.8,0.1-1.1,0.1c-0.4,0-0.8,0-1.1-0.1v4.9L6.2,22
		l-1.5,1.6l7.2,6.6L19.1,23.6z"/>
</g>
<circle class="st0" cx="12" cy="16.6" r="4"/>
</svg>
