<?xml version="1.0" encoding="utf-8"?>
<!-- Generator: Adobe Illustrator 24.0.2, SVG Export Plug-In . SVG Version: 6.00 Build 0)  -->
<svg version="1.1" id="Layer_1" xmlns="http://www.w3.org/2000/svg" xmlns:xlink="http://www.w3.org/1999/xlink" x="0px" y="0px"
	 viewBox="0 0 24 31" style="enable-background:new 0 0 24 31;" xml:space="preserve">
<style type="text/css">
	.st0{fill:#FFFFFF;}
	.st1{fill:#C2CACC;}
	.st2{fill:#7C8C8E;}
</style>
<title>Cold Staking</title>
<desc>Created with Sketch.</desc>
<title>Cold Staking</title>
<desc>Created with Sketch.</desc>
<g>
	<path class="st0" d="M14.3,9.3C14.2,9.2,14.2,9.1,14,9L8,5.6c-0.2-0.1-0.5-0.1-0.7,0L1.3,9C1.2,9.1,1.1,9.1,1,9.3l6.6,3.8L14.3,9.3
		z"/>
	<path class="st1" d="M1.2,9.3C1.1,9.4,1.1,9.5,1.1,9.6v6.9c0,0.2,0.1,0.5,0.3,0.6l6,3.4c0.1,0.1,0.2,0.1,0.3,0.1V13L1.2,9.3z"/>
	<path class="st2" d="M7.7,13v7.6c0.1,0,0.2,0,0.3-0.1l3.4-1.9v-2.8c0-0.2,0.1-0.4,0.3-0.5l2.6-1.5V9.7c0-0.1,0-0.2-0.1-0.3L7.7,13z
		"/>
	<path class="st1" d="M11.5,15.5c-0.1,0.1-0.1,0.2-0.1,0.3v5.9c0,0.2,0.1,0.4,0.3,0.5l5.1,2.9c0.1,0.1,0.2,0.1,0.3,0.1v-6.5
		L11.5,15.5z"/>
	<path class="st0" d="M22.7,15.5c-0.1-0.1-0.1-0.2-0.2-0.2l-5.1-2.9c-0.2-0.1-0.4-0.1-0.6,0l-5.1,2.9c-0.1,0.1-0.2,0.1-0.2,0.2
		l5.6,3.2L22.7,15.5z"/>
	<path class="st2" d="M17.1,18.7v6.5c0.1,0,0.2,0,0.3-0.1l5.1-2.9c0.2-0.1,0.3-0.3,0.3-0.5v-5.9c0-0.1,0-0.2-0.1-0.3L17.1,18.7z"/>
	<path d="M7.7,17.5c-0.2,0-0.3,0.1-0.3,0.3v0.9c0,0.2,0.1,0.3,0.3,0.3S8,18.9,8,18.7v-0.9C8.1,17.7,7.9,17.5,7.7,17.5L7.7,17.5z"/>
	<path d="M8.1,13.2l4.7-2.7c0.2-0.1,0.2-0.3,0.1-0.4c-0.1-0.2-0.3-0.2-0.4-0.1l-4.7,2.7L3.1,10c-0.2-0.1-0.4,0-0.4,0.1
		c-0.1,0.2,0,0.4,0.1,0.4l4.7,2.7v3.1c0,0.2,0.1,0.3,0.3,0.3c0.2,0,0.3-0.1,0.3-0.3C8.1,16.3,8.1,13.2,8.1,13.2z"/>
	<path d="M15.4,14.8l1.9-1.1c0.2-0.1,0.2-0.3,0.1-0.4c-0.1-0.2-0.3-0.2-0.4-0.1l-1.9,1.1c-0.2,0.1-0.2,0.3-0.1,0.4
		C15.1,14.8,15.3,14.9,15.4,14.8z"/>
	<path d="M17.1,23.9c0.2,0,0.3-0.1,0.3-0.3v-4.7l4-2.3c0.2-0.1,0.2-0.3,0.1-0.4c-0.1-0.2-0.3-0.2-0.4-0.1l-4,2.3l-4-2.3
		c-0.2-0.1-0.4,0-0.4,0.1c-0.1,0.2,0,0.4,0.1,0.4l4,2.3v4.7C16.8,23.8,16.9,23.9,17.1,23.9z"/>
	<path d="M1.3,17.4l6,3.4c0.3,0.2,0.7,0.2,1,0l2.9-1.7v2.5c0,0.3,0.2,0.6,0.5,0.8l5.1,2.9c0.3,0.2,0.6,0.2,0.9,0l5.1-2.9
		c0.3-0.2,0.5-0.5,0.5-0.8v-2.2c0-0.2-0.1-0.3-0.3-0.3s-0.3,0.1-0.3,0.3v2.2c0,0.1-0.1,0.2-0.1,0.2l-5.1,2.9c-0.1,0-0.2,0-0.3,0
		l-5.1-2.9c-0.1,0-0.1-0.1-0.1-0.2c0-0.8,0-4.4,0-5.9c0-0.1,0.1-0.2,0.1-0.2c0.9-0.5,3.5-2,5.1-2.9c0.1,0,0.2,0,0.3,0l5.1,2.9
		c0.1,0,0.1,0.1,0.1,0.2v2.1c0,0.2,0.1,0.3,0.3,0.3s0.3-0.1,0.3-0.3v-2.1c0-0.3-0.2-0.6-0.5-0.8L17.7,12c-0.3-0.2-0.6-0.2-0.9,0
		l-2,1.1V9.5c0-0.4-0.2-0.7-0.5-0.9l-6-3.4C7.9,5.1,7.5,5.1,7.2,5.3L6,6C5.8,6.1,5.8,6.3,5.9,6.4C6,6.6,6.2,6.6,6.3,6.5l1.2-0.7
		c0.1-0.1,0.3-0.1,0.4,0l6,3.4c0.1,0.1,0.2,0.2,0.2,0.3v4l-2.5,1.4c-0.3,0.2-0.5,0.5-0.5,0.8v2.6l-3.2,1.8c-0.1,0.1-0.3,0.1-0.4,0
		l-6-3.4c-0.1-0.1-0.2-0.2-0.2-0.3V9.5c0-0.1,0.1-0.3,0.2-0.3l3.4-2C5.1,7.1,5.1,6.9,5,6.8c0-0.1-0.2-0.1-0.4,0l-3.4,2
		C0.9,8.9,0.8,9.2,0.8,9.6v6.9C0.8,16.8,0.9,17.2,1.3,17.4z"/>
	<path d="M3.3,9.2c0.1,0.2,0.3,0.2,0.4,0.1l1.9-1.1c0.2-0.1,0.3-0.3,0.2-0.4C5.7,7.6,5.5,7.5,5.3,7.6L3.4,8.8C3.2,8.8,3.2,9,3.3,9.2
		z"/>
</g>
</svg>
