<?xml version="1.0" encoding="utf-8"?>
<!-- Generator: Adobe Illustrator 24.0.1, SVG Export Plug-In . SVG Version: 6.00 Build 0)  -->
<svg version="1.1" id="Layer_1" xmlns="http://www.w3.org/2000/svg" xmlns:xlink="http://www.w3.org/1999/xlink" x="0px" y="0px"
	 viewBox="0 0 24 31" style="enable-background:new 0 0 24 31;" xml:space="preserve">
<style type="text/css">
	.st0{fill:#6EB1F4;}
</style>
<title>Cold Staking</title>
<desc>Created with Sketch.</desc>
<title>Cold Staking</title>
<desc>Created with Sketch.</desc>
<path class="st0" d="M20.5,20.3c-0.9-0.7-2-0.7-3-0.2c-0.1,0-0.2,0.1-0.3,0.1l-3.4-2.5l3.4-2.5c0.1,0.1,0.2,0.1,0.3,0.1
	c0.9,0.5,2.1,0.4,3-0.2c1.3-0.9,1.5-2.7,0.6-4c-0.9-1.3-2.7-1.5-4-0.6c-0.9,0.7-1.3,1.8-1.1,2.8c0,0.1,0,0.2,0,0.4l-2.9,2.2v-3.6
	c0.1-0.1,0.2-0.1,0.3-0.2c0.9-0.5,1.6-1.4,1.6-2.5c0-1.6-1.3-2.9-2.9-2.9S9.2,7.7,9.2,9.3c0,1.1,0.6,2.1,1.6,2.5
	c0.1,0.1,0.2,0.1,0.3,0.2v3.6l-2.9-2.2c0-0.1,0-0.2,0-0.4c0.2-1-0.2-2.1-1.1-2.8c-1.3-0.9-3.1-0.7-4,0.6c-0.9,1.3-0.7,3.1,0.6,4
	c0.9,0.7,2,0.7,3,0.2c0.1,0,0.2-0.1,0.3-0.1l3.4,2.5l-3.4,2.5C7,20.1,6.8,20.1,6.7,20c-0.9-0.5-2.1-0.4-3,0.2
	c-1.3,0.9-1.5,2.7-0.6,4c0.9,1.3,2.7,1.5,4,0.6c0.9-0.7,1.3-1.8,1.1-2.8c0-0.1,0-0.2,0-0.4l2.9-2.2v3.6c-0.1,0.1-0.2,0.1-0.3,0.2
	c-0.9,0.5-1.6,1.4-1.6,2.5c0,1.6,1.3,2.9,2.9,2.9s2.9-1.3,2.9-2.9c0-1.1-0.6-2.1-1.6-2.5c-0.1-0.1-0.2-0.1-0.3-0.2v-3.6l2.9,2.2
	c0,0.1,0,0.2,0,0.4c-0.2,1,0.2,2.1,1.1,2.8c1.3,0.9,3.1,0.7,4-0.6C22,23,21.7,21.2,20.5,20.3z"/>
</svg>
