<?xml version="1.0" encoding="utf-8"?>
<!-- Generator: Adobe Illustrator 24.0.2, SVG Export Plug-In . SVG Version: 6.00 Build 0)  -->
<svg version="1.1" id="Capa_1" xmlns="http://www.w3.org/2000/svg" xmlns:xlink="http://www.w3.org/1999/xlink" x="0px" y="0px"
	 viewBox="0 0 24 40" style="enable-background:new 0 0 24 40;" xml:space="preserve">
<style type="text/css">
	.st0{fill:#E6E9ED;}
	.st1{fill:#1D94FF;}
	.st2{fill:#CCD1D9;}
	.st3{fill:#71B5FF;}
	.st4{fill:#0070C4;}
</style>
<title>Dashboard</title>
<desc>Created with Sketch.</desc>
<title>Dashboard</title>
<desc>Created with Sketch.</desc>
<g>
	<g>
		<g>
			<path class="st0" d="M1.3,12.8v13.9h14.6c0-1,0.8-1.8,1.8-1.8s1.8,0.8,1.8,1.8H21V12.8H1.3z"/>
		</g>
		<g>
			<path class="st1" d="M2.8,22.3h1.5v2.9H2.8V22.3z"/>
		</g>
		<g>
			<path class="st1" d="M5.7,23h1.5v2.2H5.7V23z"/>
		</g>
		<g>
			<path class="st1" d="M8.6,20.1h1.5v5.1H8.6V20.1z"/>
		</g>
		<g>
			<path class="st1" d="M13,21.6V24c-0.2,0.4-0.4,0.8-0.5,1.3h-0.9v-3.6H13z"/>
		</g>
		<g>
			<path class="st2" d="M17.7,23.4c-1.8,0-3.3,1.5-3.3,3.3c0,0.6,0.2,1.2,0.4,1.6c0.6,1,1.6,1.6,2.8,1.6c1.2,0,2.3-0.7,2.8-1.6
				c0.3-0.5,0.4-1,0.4-1.6C21,24.9,19.5,23.4,17.7,23.4z M17.7,28.5c-1,0-1.8-0.8-1.8-1.8c0-1,0.8-1.8,1.8-1.8s1.8,0.8,1.8,1.8
				C19.5,27.7,18.7,28.5,17.7,28.5z"/>
		</g>
		<g>
			<path class="st1" d="M20.6,28.3l1.9,1.1c-0.9,1.6-2.7,2.7-4.7,2.7S13.9,31,13,29.4l1.9-1.1c0.6,1,1.6,1.6,2.8,1.6
				S20,29.3,20.6,28.3L20.6,28.3z"/>
		</g>
		<g>
			<path class="st3" d="M23.2,26.7c0,1-0.3,1.9-0.7,2.7l-1.9-1.1c0.3-0.5,0.4-1,0.4-1.6c0-1.8-1.5-3.3-3.3-3.3v-2.2
				c1.2,0,2.4,0.4,3.3,1.1C22.3,23.3,23.2,24.9,23.2,26.7z"/>
		</g>
		<g>
			<path class="st4" d="M17.7,21.2v2.2c-1.8,0-3.3,1.5-3.3,3.3c0,0.6,0.2,1.2,0.4,1.6L13,29.4c-0.5-0.8-0.7-1.7-0.7-2.7
				c0-0.5,0.1-1,0.2-1.5c0.1-0.4,0.3-0.9,0.5-1.3C13.9,22.3,15.7,21.2,17.7,21.2L17.7,21.2z"/>
		</g>
		<g>
			<path class="st3" d="M11.3,17.8c0.1,0.1,0.2,0.3,0.2,0.5c0,0.4-0.3,0.7-0.7,0.7c-0.4,0-0.7-0.3-0.7-0.7s0.3-0.7,0.7-0.7
				C11,17.6,11.2,17.6,11.3,17.8z"/>
		</g>
		<g>
			<path class="st3" d="M14.6,15.5c-0.1,0.1-0.3,0.2-0.5,0.2c-0.2,0-0.4-0.1-0.5-0.2c-0.1-0.1-0.2-0.3-0.2-0.5
				c0-0.4,0.3-0.7,0.7-0.7s0.7,0.3,0.7,0.7C14.8,15.2,14.7,15.4,14.6,15.5z"/>
		</g>
		<g>
			<path class="st3" d="M16.8,16.7c0.1,0.1,0.2,0.3,0.2,0.5c0,0.4-0.3,0.7-0.7,0.7c-0.4,0-0.7-0.3-0.7-0.7c0-0.2,0.1-0.4,0.2-0.5
				c0.1-0.1,0.3-0.2,0.5-0.2S16.6,16.6,16.8,16.7z"/>
		</g>
		<g>
			<path class="st3" d="M21,10.3c1.2,0,2.2,1,2.2,2.2s-1,2.2-2.2,2.2c-0.6,0-1.2-0.2-1.5-0.6c-0.3-0.3-0.5-0.7-0.6-1.2
				c0-0.1,0-0.2,0-0.4C18.8,11.3,19.8,10.3,21,10.3L21,10.3z"/>
		</g>
	</g>
	<g>
		<path d="M21.4,22.1V15c1.2-0.2,2.2-1.2,2.2-2.5c0-1.4-1.1-2.6-2.6-2.6s-2.6,1.1-2.6,2.6H0.9V27h11c0.2,3,2.7,5.5,5.8,5.5
			c3.2,0,5.8-2.6,5.8-5.8C23.5,24.8,22.7,23.2,21.4,22.1z M21,10.6c1,0,1.8,0.8,1.8,1.8S22,14.3,21,14.3s-1.8-0.8-1.8-1.8
			S20,10.6,21,10.6z M1.7,13.2h16.9c0.1,0.3,0.2,0.6,0.4,0.8l-2.2,2.2c-0.1-0.1-0.3-0.1-0.5-0.1c-0.2,0-0.3,0-0.5,0.1l-0.7-0.7
			c0.1-0.1,0.1-0.3,0.1-0.5c0-0.6-0.5-1.1-1.1-1.1c-0.6,0-1.1,0.5-1.1,1.1c0,0.2,0,0.3,0.1,0.5l-1.8,1.8c-0.1-0.1-0.3-0.1-0.5-0.1
			c-0.6,0-1.1,0.5-1.1,1.1s0.5,1.1,1.1,1.1c0.6,0,1.1-0.5,1.1-1.1c0-0.2,0-0.3-0.1-0.5l1.8-1.8c0.1,0.1,0.3,0.1,0.5,0.1
			c0.2,0,0.3,0,0.5-0.1l0.7,0.7c-0.1,0.1-0.1,0.3-0.1,0.5c0,0.6,0.5,1.1,1.1,1.1c0.6,0,1.1-0.5,1.1-1.1c0-0.2,0-0.3-0.1-0.5l2.2-2.2
			c0.3,0.3,0.7,0.4,1.2,0.5v6.7c-0.9-0.5-1.9-0.8-2.9-0.8c-1.7,0-3.3,0.8-4.4,2v-1.6h-2.2v4.4H12c0,0.2-0.1,0.5-0.1,0.7H1.7V13.2z
			 M16.3,16.8c0.2,0,0.4,0.2,0.4,0.4c0,0.2-0.2,0.4-0.4,0.4s-0.4-0.2-0.4-0.4C15.9,17,16.1,16.8,16.3,16.8z M13.7,15
			c0-0.2,0.2-0.4,0.4-0.4c0.2,0,0.4,0.2,0.4,0.4c0,0.2-0.2,0.4-0.4,0.4C13.9,15.4,13.7,15.2,13.7,15z M11.2,18.3
			c0,0.2-0.2,0.4-0.4,0.4c-0.2,0-0.4-0.2-0.4-0.4c0-0.2,0.2-0.4,0.4-0.4C11,17.9,11.2,18.1,11.2,18.3z M17.7,29.6
			c-1.6,0-2.9-1.3-2.9-2.9c0-1.6,1.3-2.9,2.9-2.9s2.9,1.3,2.9,2.9C20.6,28.3,19.3,29.6,17.7,29.6z M12.6,23.9
			c-0.2,0.3-0.3,0.6-0.4,1h-0.3v-2.9h0.7V23.9z M17.4,21.6v1.5c-1.8,0.2-3.3,1.7-3.3,3.6c0,0.5,0.1,1,0.3,1.5l-1.3,0.7
			c-0.3-0.7-0.5-1.4-0.5-2.2C12.6,24,14.7,21.8,17.4,21.6L17.4,21.6z M17.7,31.8c-1.8,0-3.3-0.9-4.2-2.2l1.3-0.7
			c0.7,0.9,1.7,1.5,3,1.5c1.2,0,2.3-0.6,3-1.5l1.3,0.7C21,30.9,19.5,31.8,17.7,31.8z M22.3,28.9L21,28.2c0.2-0.5,0.3-1,0.3-1.5
			c0-1.9-1.4-3.4-3.3-3.6v-1.5c2.6,0.2,4.7,2.4,4.7,5.1C22.8,27.5,22.6,28.2,22.3,28.9L22.3,28.9z"/>
		<path d="M17.7,24.5c-1.2,0-2.2,1-2.2,2.2c0,1.2,1,2.2,2.2,2.2c1.2,0,2.2-1,2.2-2.2C19.9,25.5,18.9,24.5,17.7,24.5z M17.7,28.1
			c-0.8,0-1.5-0.7-1.5-1.5c0-0.8,0.7-1.5,1.5-1.5s1.5,0.7,1.5,1.5C19.2,27.5,18.5,28.1,17.7,28.1z"/>
		<path d="M2.4,13.9h0.7v0.7H2.4V13.9z"/>
		<path d="M3.9,13.9H9v0.7H3.9V13.9z"/>
		<path d="M2.4,15.4h0.7v0.7H2.4V15.4z"/>
		<path d="M3.9,15.4H9v0.7H3.9V15.4z"/>
		<path d="M2.4,16.8h0.7v0.7H2.4V16.8z"/>
		<path d="M3.9,16.8H9v0.7H3.9V16.8z"/>
		<path d="M2.4,18.3h0.7V19H2.4V18.3z"/>
		<path d="M3.9,18.3H9V19H3.9V18.3z"/>
		<path d="M2.4,25.6h2.2v-3.6H2.4V25.6z M3.1,22.7h0.7v2.2H3.1V22.7z"/>
		<path d="M5.3,25.6h2.2v-2.9H5.3V25.6z M6,23.4h0.7v1.5H6V23.4z"/>
		<path d="M8.2,25.6h2.2v-5.8H8.2V25.6z M9,20.5h0.7v4.4H9V20.5z"/>
	</g>
</g>
</svg>
