<?xml version="1.0" encoding="utf-8"?>
<!-- Generator: Adobe Illustrator 24.0.2, SVG Export Plug-In . SVG Version: 6.00 Build 0)  -->
<svg version="1.1" id="Layer_1" xmlns="http://www.w3.org/2000/svg" xmlns:xlink="http://www.w3.org/1999/xlink" x="0px" y="0px"
	 viewBox="0 0 24 31" style="enable-background:new 0 0 24 31;" xml:space="preserve">
<style type="text/css">
	.st0{fill:#DAF1F4;}
	.st1{fill:#B9E4EF;}
	.st2{fill:#93D8E4;}
</style>
<title>Cold Staking</title>
<desc>Created with Sketch.</desc>
<title>Cold Staking</title>
<desc>Created with Sketch.</desc>
<title>Cold Staking</title>
<desc>Created with Sketch.</desc>
<g>
	<path class="st0" d="M14.5,10.2c-0.1-0.1-0.1-0.2-0.3-0.3l-6-3.4c-0.2-0.1-0.5-0.1-0.7,0l-6,3.4c-0.1,0.1-0.2,0.1-0.3,0.3l6.6,3.8
		L14.5,10.2z"/>
	<path class="st1" d="M1.4,10.2c-0.1,0.1-0.1,0.2-0.1,0.3v6.9c0,0.2,0.1,0.5,0.3,0.6l6,3.4c0.1,0.1,0.2,0.1,0.3,0.1v-7.6L1.4,10.2z"
		/>
	<path class="st2" d="M7.9,13.9v7.6c0.1,0,0.2,0,0.3-0.1l3.4-1.9v-2.8c0-0.2,0.1-0.4,0.3-0.5l2.6-1.5v-4.1c0-0.1,0-0.2-0.1-0.3
		L7.9,13.9z"/>
	<path class="st1" d="M11.7,16.4c-0.1,0.1-0.1,0.2-0.1,0.3v5.9c0,0.2,0.1,0.4,0.3,0.5L17,26c0.1,0.1,0.2,0.1,0.3,0.1v-6.5L11.7,16.4
		z"/>
	<path class="st0" d="M22.9,16.4c-0.1-0.1-0.1-0.2-0.2-0.2l-5.1-2.9c-0.2-0.1-0.4-0.1-0.6,0l-5.1,2.9c-0.1,0.1-0.2,0.1-0.2,0.2
		l5.6,3.2L22.9,16.4z"/>
	<path class="st2" d="M17.3,19.6v6.5c0.1,0,0.2,0,0.3-0.1l5.1-2.9c0.2-0.1,0.3-0.3,0.3-0.5v-5.9c0-0.1,0-0.2-0.1-0.3L17.3,19.6z"/>
	<path d="M7.9,18.4c-0.2,0-0.3,0.1-0.3,0.3v0.9c0,0.2,0.1,0.3,0.3,0.3c0.2,0,0.3-0.1,0.3-0.3v-0.9C8.3,18.6,8.1,18.4,7.9,18.4
		L7.9,18.4z"/>
	<path d="M8.3,14.1l4.7-2.7c0.2-0.1,0.2-0.3,0.1-0.4c-0.1-0.2-0.3-0.2-0.4-0.1l-4.7,2.7l-4.7-2.7c-0.2-0.1-0.4,0-0.4,0.1
		c-0.1,0.2,0,0.4,0.1,0.4l4.7,2.7v3.1c0,0.2,0.1,0.3,0.3,0.3c0.2,0,0.3-0.1,0.3-0.3V14.1z"/>
	<path d="M15.6,15.7l1.9-1.1c0.2-0.1,0.2-0.3,0.1-0.4c-0.1-0.2-0.3-0.2-0.4-0.1l-1.9,1.1c-0.2,0.1-0.2,0.3-0.1,0.4
		C15.3,15.7,15.5,15.8,15.6,15.7z"/>
	<path d="M17.3,24.8c0.2,0,0.3-0.1,0.3-0.3v-4.7l4-2.3c0.2-0.1,0.2-0.3,0.1-0.4c-0.1-0.2-0.3-0.2-0.4-0.1l-4,2.3l-4-2.3
		c-0.2-0.1-0.4,0-0.4,0.1c-0.1,0.2,0,0.4,0.1,0.4l4,2.3v4.7C17,24.7,17.1,24.8,17.3,24.8z"/>
	<path d="M1.5,18.3l6,3.4c0.3,0.2,0.7,0.2,1,0l2.9-1.7v2.5c0,0.3,0.2,0.6,0.5,0.8l5.1,2.9c0.3,0.2,0.6,0.2,0.9,0l5.1-2.9
		c0.3-0.2,0.5-0.5,0.5-0.8v-2.2c0-0.2-0.1-0.3-0.3-0.3s-0.3,0.1-0.3,0.3v2.2c0,0.1-0.1,0.2-0.1,0.2l-5.1,2.9c-0.1,0-0.2,0-0.3,0
		l-5.1-2.9c-0.1,0-0.1-0.1-0.1-0.2c0-0.8,0-4.4,0-5.9c0-0.1,0.1-0.2,0.1-0.2c0.9-0.5,3.5-2,5.1-2.9c0.1,0,0.2,0,0.3,0l5.1,2.9
		c0.1,0,0.1,0.1,0.1,0.2v2.1c0,0.2,0.1,0.3,0.3,0.3s0.3-0.1,0.3-0.3v-2.1c0-0.3-0.2-0.6-0.5-0.8l-5.1-2.9c-0.3-0.2-0.6-0.2-0.9,0
		l-2,1.1v-3.6c0-0.4-0.2-0.7-0.5-0.9l-6-3.4C8.1,6,7.7,6,7.4,6.2L6.2,6.9C6,7,6,7.2,6.1,7.3c0.1,0.2,0.3,0.2,0.4,0.1l1.2-0.7
		c0.1-0.1,0.3-0.1,0.4,0l6,3.4c0.1,0.1,0.2,0.2,0.2,0.3v4l-2.5,1.4c-0.3,0.2-0.5,0.5-0.5,0.8v2.6l-3.2,1.8c-0.1,0.1-0.3,0.1-0.4,0
		l-6-3.4c-0.1-0.1-0.2-0.2-0.2-0.3v-6.9c0-0.1,0.1-0.3,0.2-0.3l3.4-2c0.2-0.1,0.2-0.3,0.1-0.4C5.2,7.6,5,7.6,4.8,7.7l-3.4,2
		C1.1,9.8,1,10.1,1,10.5v6.9C1,17.7,1.1,18.1,1.5,18.3z"/>
	<path d="M3.5,10.1c0.1,0.2,0.3,0.2,0.4,0.1l1.9-1.1C6,9,6.1,8.8,6,8.7C5.9,8.5,5.7,8.4,5.5,8.5L3.6,9.7C3.4,9.7,3.4,9.9,3.5,10.1z"
		/>
</g>
</svg>
