<?xml version="1.0" encoding="utf-8"?>
<!-- Generator: Adobe Illustrator 24.0.2, SVG Export Plug-In . SVG Version: 6.00 Build 0)  -->
<svg version="1.1" id="Capa_1" xmlns="http://www.w3.org/2000/svg" xmlns:xlink="http://www.w3.org/1999/xlink" x="0px" y="0px"
	 viewBox="0 0 24 40" style="enable-background:new 0 0 24 40;" xml:space="preserve">
<style type="text/css">
	.st0{fill:#C49A6C;}
	.st1{fill:#A97C50;}
	.st2{fill:#8B5E3C;}
	.st3{fill:#FF9811;}
	.st4{fill:#0087E2;}
</style>
<title>Receive off</title>
<desc>Created with Sketch.</desc>
<title>Receive off</title>
<desc>Created with Sketch.</desc>
<path class="st0" d="M22,31.1c0,4.9-4.5,5.6-9.5,5.6S3,36,3,31.1c0-4.1,3.4-9.1,7.2-10.6h5C19,22.1,22,27,22,31.1z"/>
<path class="st1" d="M17.8,17.3c0.3-0.3,0.3-0.8,0.1-1.2s-0.6-0.6-1-0.6H8.9c-0.4,0-0.8,0.3-1,0.7C7.7,16.5,7.7,17,8,17.3l2.3,3.2h5
	L17.8,17.3z"/>
<path class="st1" d="M13.3,36.6c-0.3,0-0.5,0-0.8,0C7.6,36.6,3,36,3,31.1c0-4.1,3.4-9.1,7.2-10.6h1.7C8.1,22,4.7,26.9,4.7,31.1
	C4.7,35.7,8.7,36.5,13.3,36.6z"/>
<path class="st2" d="M11.9,20.5h-1.7L8,17.3c-0.3-0.3-0.4-0.8-0.2-1.2c0.2-0.4,0.6-0.7,1-0.7h1.7c-0.4,0-0.8,0.3-1,0.7
	c-0.2,0.4-0.1,0.9,0.2,1.2L11.9,20.5z"/>
<path class="st3" d="M17.5,28.9c0,2.8-2.2,5-5,5s-5-2.2-5-5s2.2-5,5-5S17.5,26.1,17.5,28.9z"/>
<path class="st4" d="M15.8,9.4h-1.7V5.2c0-0.5-0.4-0.9-0.9-0.9h-1.6c-0.5,0-0.9,0.4-0.9,0.9v4.2H9.2l3.3,3.9L15.8,9.4z"/>
<path d="M12.5,23.3c-3.1,0-5.6,2.5-5.6,5.6s2.5,5.6,5.6,5.6s5.6-2.5,5.6-5.6C18.1,25.8,15.6,23.3,12.5,23.3z M12.5,33.3
	c-2.5,0-4.5-2-4.5-4.5s2-4.5,4.5-4.5s4.5,2,4.5,4.5C17,31.3,15,33.3,12.5,33.3z"/>
<path d="M16.1,20.3l2.1-2.7c0.4-0.5,0.5-1.2,0.2-1.8c-0.3-0.6-0.9-0.9-1.5-0.9H8.9c-0.7,0-1.3,0.4-1.5,1c-0.3,0.6-0.2,1.3,0.3,1.8
	l1.7,2.6C5.6,22.2,2.5,27,2.5,31.1c0,6.1,6.8,6.1,10,6.1s10,0,10-6.1C22.5,27,19.7,22.2,16.1,20.3z M8.3,16.4
	C8.4,16.2,8.6,16,8.9,16h8.1c0.2,0,0.4,0.1,0.5,0.3c0.1,0.2,0.1,0.4-0.1,0.6l-2.3,3h-4.5l-2.1-3C8.3,16.8,8.3,16.6,8.3,16.4
	L8.3,16.4z M12.5,36.1c-5.3,0-8.9-0.9-8.9-5c0-3.8,3.2-8.5,6.8-10h4.8c3.3,1.5,6.2,6.2,6.2,10C21.4,35.2,17.8,36.1,12.5,36.1z"/>
<path d="M12.5,14.1L7.9,8.8h2.3V5.6c0-1,0.8-1.8,1.8-1.8h0.8c1,0,1.8,0.8,1.8,1.8v3.2h2.3L12.5,14.1z M10.4,9.9l2.1,2.5l2.1-2.5h-1
	V5.8c0-0.5-0.4-0.9-0.9-0.9h-0.4c-0.5,0-0.9,0.4-0.9,0.9v4.1H10.4z"/>
<g>
	<path d="M14.1,29c-0.3,0-0.6,0.1-0.8,0.3c0,0-0.1,0-0.1,0L12.7,29c0,0-0.1-0.1-0.1-0.1l0-0.6c0,0,0-0.1,0.1-0.1
		c0.4-0.1,0.8-0.5,0.8-1c0-0.6-0.5-1-1-1c-0.6,0-1,0.5-1,1c0,0.5,0.3,0.9,0.8,1c0,0,0.1,0.1,0.1,0.1l0,0.6c0,0,0,0.1-0.1,0.1
		l-0.5,0.3c0,0-0.1,0-0.1,0c-0.2-0.2-0.5-0.3-0.8-0.3c-0.6,0-1,0.5-1,1c0,0.6,0.5,1,1,1c0.6,0,1-0.5,1-1c0-0.1,0-0.2,0-0.3
		c0,0,0-0.1,0-0.1l0.5-0.3c0,0,0.1,0,0.1,0l0.5,0.3c0,0,0.1,0.1,0,0.1c0,0.1,0,0.2,0,0.3c0,0.6,0.5,1,1,1c0.6,0,1-0.5,1-1
		C15.2,29.4,14.7,29,14.1,29z"/>
	<path d="M12.1,30.7c-0.2,0.4-0.7,0.7-1.2,0.7c-0.8,0-1.4-0.6-1.4-1.4s0.6-1.4,1.4-1.4c0.4,0,0.7,0.1,0.9,0.3l0.2-0.1l0-0.4
		c-0.3-0.3-0.7-0.4-1.2-0.4C9.8,28.1,9,29,9,30c0,1.1,0.9,1.9,1.9,1.9c0.6,0,1.1-0.3,1.5-0.7C12.3,31,12.2,30.9,12.1,30.7z"/>
	<path d="M12.5,25.3c-1.1,0-1.9,0.9-1.9,1.9c0,0.3,0.1,0.5,0.1,0.7c0.1,0,0.1,0,0.2,0c0.2,0,0.3,0,0.5,0.1c-0.2-0.2-0.2-0.5-0.2-0.8
		c0-0.8,0.6-1.4,1.4-1.4c0.8,0,1.4,0.6,1.4,1.4c0,0.6-0.4,1.1-1,1.3l0,0.3l0.3,0.2c0.7-0.3,1.2-1,1.2-1.8
		C14.4,26.1,13.6,25.3,12.5,25.3z"/>
	<path d="M14.4,28.1c-0.1,0.2-0.2,0.4-0.4,0.5c0,0,0.1,0,0.1,0c0.8,0,1.4,0.6,1.4,1.4s-0.6,1.4-1.4,1.4c-0.8,0-1.4-0.6-1.4-1.4
		c0-0.1,0-0.2,0-0.3l-0.3-0.1l-0.3,0.1c0,0.1,0,0.2,0,0.3c0,1.1,0.9,1.9,1.9,1.9c1.1,0,1.9-0.9,1.9-1.9C16,29,15.3,28.2,14.4,28.1z"
		/>
</g>
</svg>
