<?xml version="1.0" encoding="utf-8"?>
<!-- Generator: Adobe Illustrator 24.0.2, SVG Export Plug-In . SVG Version: 6.00 Build 0)  -->
<svg version="1.1" id="Capa_1" xmlns="http://www.w3.org/2000/svg" xmlns:xlink="http://www.w3.org/1999/xlink" x="0px" y="0px"
	 viewBox="0 0 24 40" style="enable-background:new 0 0 24 40;" xml:space="preserve">
<style type="text/css">
	.st0{fill:#FFFFFF;}
	.st1{fill:#2E80BC;}
	.st2{fill:#CCCCCC;}
</style>
<title>Address</title>
<desc>Created with Sketch.</desc>
<g>
	<title>Address Book Send</title>
	<desc>Created with Sketch.</desc>
	<rect x="3.6" y="11" class="st0" width="16.1" height="21.2"/>
	<path class="st1" d="M19.7,11.8h1.4v13.1l0,0c0.6,0,1.1,0.4,1.1,1.1v1.9c0,0.6-0.4,1.1-1.1,1.1l0,0v2.5h-1.4V11.8z"/>
	<g>
		<path class="st2" d="M2.7,12.9h2.2c0.4,0,0.8,0.3,0.8,0.8l0,0c0,0.4-0.3,0.8-0.8,0.8H2.7c-0.4-0.1-0.8-0.4-0.8-0.9l0,0
			C1.9,13.1,2.2,12.9,2.7,12.9z"/>
		<path class="st2" d="M2.7,16.9h2.2c0.4,0,0.8,0.3,0.8,0.8l0,0c0,0.4-0.3,0.8-0.8,0.8H2.7c-0.4,0-0.8-0.3-0.8-0.8l0,0
			C1.9,17.2,2.2,16.9,2.7,16.9z"/>
		<path class="st2" d="M2.7,20.8h2.2c0.4,0,0.8,0.3,0.8,0.8l0,0c0,0.4-0.3,0.8-0.8,0.8H2.7c-0.4,0-0.8-0.3-0.8-0.8l0,0
			C1.9,21.2,2.2,20.8,2.7,20.8z"/>
		<path class="st2" d="M2.7,24.9h2.2c0.4,0,0.8,0.3,0.8,0.8l0,0c0,0.4-0.3,0.8-0.8,0.8H2.7c-0.4,0-0.8-0.3-0.8-0.8l0,0
			C1.9,25.3,2.2,24.9,2.7,24.9z"/>
		<path class="st2" d="M2.7,28.9h2.2c0.4,0,0.8,0.3,0.8,0.8l0,0c0,0.4-0.3,0.8-0.8,0.8H2.7c-0.4,0-0.8-0.3-0.8-0.8l0,0
			C1.9,29.2,2.2,28.9,2.7,28.9z"/>
	</g>
	<g>
		<circle class="st1" cx="12.1" cy="16.5" r="1.4"/>
		<path class="st1" d="M12.1,18L12.1,18c1.2,0,2.2,1,2.2,2.2v2.2l0,0H9.9l0,0v-2.2C9.9,19,10.9,18,12.1,18z"/>
	</g>
	<g>
		<path d="M3.6,17.2c-0.1,0-0.3-0.1-0.3-0.3v-2.5c0-0.2,0.1-0.3,0.3-0.3s0.4,0,0.4,0.2v2.5C4.1,17.1,3.9,17.2,3.6,17.2z"/>
		<path d="M3.6,21.3c-0.2,0-0.3-0.1-0.3-0.3v-2.5c0-0.2,0.1-0.3,0.3-0.3s0.4,0,0.4,0.2V21C4.1,21.1,3.9,21.3,3.6,21.3z"/>
		<path d="M3.6,25.3c-0.2,0-0.3-0.1-0.3-0.3v-2.5c0-0.2,0.1-0.3,0.3-0.3s0.4,0,0.4,0.2v2.5C4.1,25.1,3.9,25.3,3.6,25.3z"/>
		<path d="M3.6,29.2c-0.2,0-0.3-0.1-0.3-0.3v-2.5c0-0.2,0.1-0.3,0.3-0.3s0.4,0,0.4,0.3v2.5C4.1,29.1,3.9,29.2,3.6,29.2z"/>
		<path d="M21.2,31.9h-1.4c-0.2,0-0.3-0.1-0.3-0.3c0-0.2,0.1-0.3,0.3-0.3h1.1V29c0-0.2,0.1-0.3,0.3-0.3c0.4,0,0.8-0.3,0.8-0.8V26
			c0-0.4-0.3-0.8-0.8-0.8c-0.2,0-0.3-0.1-0.3-0.3v-8.8c0-0.2,0.1-0.3,0.3-0.3c0.2,0,0.3,0.1,0.3,0.3v8.5c0.7,0.2,1.1,0.8,1.1,1.4
			v1.9c0,0.7-0.4,1.2-1.1,1.4v2.2C21.6,31.7,21.4,31.9,21.2,31.9z"/>
		<path d="M21.2,15c-0.2,0-0.3-0.1-0.3-0.3v-0.3c0-0.2,0.1-0.3,0.3-0.3c0.2,0,0.3,0.1,0.3,0.3v0.3C21.6,14.9,21.4,15,21.2,15z"/>
		<path d="M21.2,13.2c-0.2,0-0.3-0.1-0.3-0.3v-0.8h-1.1c-0.2,0-0.3-0.1-0.3-0.3s0.1-0.3,0.3-0.3h1.4c0.2,0,0.3,0.1,0.3,0.3v1.1
			C21.6,13,21.4,13.2,21.2,13.2z"/>
		<path d="M4.7,22.7H3c-0.2,0-0.3-0.1-0.3-0.3c0-0.2,0.1-0.3,0.3-0.3h1.9c0.2,0,0.3-0.1,0.3-0.3c0-0.2-0.1-0.3-0.3-0.3H2.7
			c-0.2,0-0.3,0.1-0.3,0.3c0,0.2-0.1,0.3-0.3,0.3S1.8,22,1.8,21.8c0-0.6,0.4-1.1,1.1-1.1H5c0.6,0,1.1,0.4,1.1,1.1
			C6.1,22.4,5.4,22.7,4.7,22.7z"/>
		<path d="M4.7,18.6H3c-0.2,0-0.3-0.1-0.3-0.3C2.7,18.1,2.8,18,3,18h1.9c0.2,0,0.3-0.1,0.3-0.3s-0.1-0.3-0.3-0.3H2.7
			c-0.2,0-0.3,0.1-0.3,0.3S2.2,18,2,18s-0.4-0.2-0.4-0.3c0-0.6,0.4-1.1,1.1-1.1h2.2C5.4,16.5,6,17,6,17.6
			C5.9,18.2,5.4,18.6,4.7,18.6z"/>
		<path d="M4.7,14.7H3c-0.2,0-0.3-0.1-0.3-0.3C2.7,14.1,2.8,14,3,14h1.9c0.2,0,0.3-0.1,0.3-0.3S5,13.2,4.7,13.2H2.5
			c-0.1,0-0.3,0.1-0.3,0.3s-0.1,0.3-0.3,0.3s-0.3-0.1-0.3-0.3c0-0.6,0.4-1.1,1.1-1.1h2.2c0.6,0,1.1,0.4,1.1,1.1
			C6,14.2,5.4,14.7,4.7,14.7z"/>
		<path d="M4.7,30.8H3c-0.2,0-0.3-0.1-0.3-0.3c0-0.2,0.1-0.3,0.3-0.3h1.9c0.2,0,0.3-0.1,0.3-0.3c0-0.2-0.1-0.3-0.3-0.3H2.7
			c-0.2,0-0.3,0.1-0.3,0.3S2.2,30.1,2,30.1S1.7,30,1.7,29.8c0-0.6,0.4-1.1,1.1-1.1H5c0.6,0,1.1,0.4,1.1,1.1
			C6.1,30.4,5.4,30.8,4.7,30.8z"/>
		<path d="M4.7,26.7H3c-0.2,0-0.3-0.1-0.3-0.3C2.7,26.1,2.8,26,3,26h1.9c0.2,0,0.3-0.1,0.3-0.3c0-0.2-0.1-0.3-0.3-0.3H2.7
			c-0.2,0-0.3,0.1-0.3,0.3C2.3,25.9,2.2,26,2,26s-0.3-0.1-0.3-0.3c0-0.6,0.4-1.1,1.1-1.1H5c0.6,0,1.1,0.4,1.1,1.1
			C6.1,26.4,5.4,26.7,4.7,26.7z"/>
		<path d="M19.7,32.5H3.6c-0.2,0-0.3-0.1-0.3-0.3v-0.8c0-0.2,0.1-0.3,0.3-0.3S4,31.2,4,31.4v0.3h15.3v-4c0-0.2,0.1-0.3,0.3-0.3
			c0.2,0,0.3,0.1,0.3,0.3v4.4C20.1,32.4,20,32.5,19.7,32.5z"/>
		<path d="M19.7,26.7c-0.2,0-0.3-0.1-0.3-0.3v-15H4.1v1.4c0,0.2-0.1,0.3-0.3,0.3S3.4,13,3.4,12.9V11c0-0.2,0.1-0.3,0.3-0.3h16.1
			c0.2,0,0.3,0.1,0.3,0.3v15.3C20.1,26.6,20,26.7,19.7,26.7z"/>
		<path d="M12.1,18.3c-1,0-1.9-0.8-1.9-1.9s0.8-1.8,1.9-1.8c1,0,1.9,0.8,1.9,1.9C13.9,17.5,13.1,18.3,12.1,18.3z M12.1,15.4
			c-0.6,0-1.1,0.4-1.1,1.1s0.4,1.1,1.1,1.1s1.1-0.4,1.1-1.1C13.2,15.9,12.7,15.4,12.1,15.4z"/>
		<path d="M14.2,22.7c-0.2,0-0.3-0.1-0.3-0.3v-2.2c0-1-0.8-1.9-1.9-1.9c-1,0-1.9,0.8-1.9,1.9v1.9h2.5c0.2,0,0.3,0.1,0.3,0.3
			c0,0.2-0.1,0.3-0.3,0.3H9.8c-0.2,0-0.3-0.1-0.3-0.3v-2.2c0-1.4,1.1-2.5,2.5-2.5s2.5,1.1,2.5,2.5v2.2
			C14.7,22.5,14.5,22.7,14.2,22.7z"/>
	</g>
	<path class="st0" d="M12.1,21.3c-0.2,0-0.3-0.1-0.3-0.3v-1.4c0-0.2,0.1-0.3,0.3-0.3s0.3,0.1,0.3,0.3V21
		C12.5,21.1,12.2,21.3,12.1,21.3z"/>
	<g>
		<path d="M9.9,25.3H9.6c-0.2,0-0.3-0.1-0.3-0.3c0-0.2,0.1-0.3,0.3-0.3h0.3c0.2,0,0.3,0.1,0.3,0.3S10,25.3,9.9,25.3z"/>
		<path d="M16.1,25.3h-4.7c-0.2,0-0.3-0.1-0.3-0.3c0-0.2,0.1-0.3,0.3-0.3h4.7c0.2,0,0.3,0.1,0.3,0.3C16.4,25.1,16.3,25.3,16.1,25.3z
			"/>
		<path d="M16.1,26.7h-8c-0.2,0-0.3-0.1-0.3-0.3c0-0.2,0.1-0.3,0.3-0.3h8c0.2,0,0.3,0.1,0.3,0.3S16.3,26.7,16.1,26.7z"/>
		<path d="M14.7,28.1H8.1c-0.2,0-0.3-0.1-0.3-0.3s0.1-0.3,0.3-0.3h6.6c0.2,0,0.3,0.1,0.3,0.3S14.8,28.1,14.7,28.1z"/>
	</g>
</g>
</svg>
