<?xml version="1.0" encoding="utf-8"?>
<!-- Generator: Adobe Illustrator 24.0.1, SVG Export Plug-In . SVG Version: 6.00 Build 0)  -->
<svg version="1.1" id="Capa_1" xmlns="http://www.w3.org/2000/svg" xmlns:xlink="http://www.w3.org/1999/xlink" x="0px" y="0px"
	 viewBox="0 0 24 40" style="enable-background:new 0 0 24 40;" xml:space="preserve">
<style type="text/css">
	.st0{fill:#8AC5FF;}
</style>
<title>Dashboard</title>
<desc>Created with Sketch.</desc>
<title>Dashboard</title>
<desc>Created with Sketch.</desc>
<g id="Dashboard_1_">
	<path id="Path_18866_1_" class="st0" d="M9.5,19h-7C1.7,19,1,18.3,1,17.5v-5C1,11.7,1.7,11,2.5,11h7c0.8,0,1.5,0.7,1.5,1.5v5
		C11,18.3,10.3,19,9.5,19z"/>
	<path id="Path_18867_1_" class="st0" d="M21.5,33h-7c-0.8,0-1.5-0.7-1.5-1.5v-19c0-0.8,0.7-1.5,1.5-1.5h7c0.8,0,1.5,0.7,1.5,1.5v19
		C23,32.3,22.3,33,21.5,33z"/>
	<path id="Path_18868_1_" class="st0" d="M9.5,33h-7C1.7,33,1,32.3,1,31.5v-9C1,21.7,1.7,21,2.5,21h7c0.8,0,1.5,0.7,1.5,1.5v9
		C11,32.3,10.3,33,9.5,33z"/>
</g>
</svg>
