<?xml version="1.0" encoding="utf-8"?>
<!-- Generator: Adobe Illustrator 24.0.2, SVG Export Plug-In . SVG Version: 6.00 Build 0)  -->
<svg version="1.1" id="Capa_1" xmlns="http://www.w3.org/2000/svg" xmlns:xlink="http://www.w3.org/1999/xlink" x="0px" y="0px"
	 viewBox="0 0 24 30" style="enable-background:new 0 0 24 30;" xml:space="preserve">
<style type="text/css">
	.st0{fill:#0E8E9B;}
</style>
<title>Master Active</title>
<desc>Created with Sketch.</desc>
<g>
	<path class="st0" d="M12.1,18.6l-2.6-1.4v-2.6l2.6,1.4V18.6z"/>
	<path class="st0" d="M12.1,18.6l2.6-1.4v-2.6L12.1,16V18.6z"/>
	<path class="st0" d="M9.5,14.6l2.6-1.5l2.6,1.5L12.1,16L9.5,14.6z"/>
	<path class="st0" d="M4,13.8l-2.6-1.4V9.8L4,11.2V13.8z"/>
	<path class="st0" d="M4,13.8l2.6-1.4V9.8L4,11.2V13.8z"/>
	<path class="st0" d="M1.4,9.8L4,8.3l2.6,1.5L4,11.2L1.4,9.8z"/>
	<path class="st0" d="M4,23.2l-2.6-1.4v-2.6L4,20.6V23.2z"/>
	<path class="st0" d="M4,23.2l2.6-1.4v-2.6L4,20.6V23.2z"/>
	<path class="st0" d="M1.4,19.2L4,17.7l2.6,1.5L4,20.6L1.4,19.2z"/>
	<path class="st0" d="M20.2,13.8l-2.6-1.4V9.8l2.6,1.4V13.8z"/>
	<path class="st0" d="M20.2,13.8l2.6-1.4V9.8l-2.6,1.4V13.8z"/>
	<path class="st0" d="M17.6,9.8l2.6-1.5l2.6,1.5l-2.6,1.4L17.6,9.8z"/>
	<path class="st0" d="M20.2,23.2l-2.6-1.4v-2.6l2.6,1.4V23.2z"/>
	<path class="st0" d="M20.2,23.2l2.6-1.4v-2.6l-2.6,1.4V23.2z"/>
	<path class="st0" d="M17.6,19.2l2.6-1.5l2.6,1.5l-2.6,1.4L17.6,19.2z"/>
	<path class="st0" d="M12.1,10.4L9.5,8.9V6.3l2.6,1.4V10.4z"/>
	<path class="st0" d="M12.1,10.4L14.7,9V6.3l-2.6,1.4V10.4z"/>
	<path class="st0" d="M9.5,6.3l2.6-1.5l2.6,1.5l-2.6,1.4L9.5,6.3z"/>
	<path class="st0" d="M12.1,26.9l-2.6-1.4v-2.6l2.6,1.4V26.9z"/>
	<path class="st0" d="M12.1,26.9l2.6-1.4v-2.6l-2.6,1.4V26.9z"/>
	<path class="st0" d="M9.5,22.9l2.6-1.5l2.6,1.5l-2.6,1.4L9.5,22.9z"/>
	<path d="M23,12.7c0.1-0.1,0.2-0.2,0.2-0.3V9.8c0-0.2-0.1-0.3-0.3-0.3h-0.1l-2.4,1.3l-1.9-1h-0.1l2.1-1.2c0.1-0.1,0.2-0.3,0.1-0.4
		S20.2,8,20.1,8l-2.6,1.5c-0.1,0.1-0.2,0.2-0.2,0.3v0.6L15,9l0,0V6.3c0-0.1-0.1-0.2-0.2-0.3l-2.6-1.5c-0.1-0.1-0.2-0.1-0.3,0
		L9.4,6.1c-0.1,0-0.2,0.1-0.2,0.2v2.6l0,0l-2.3,1.4V9.8c0-0.1-0.1-0.2-0.2-0.3L4.1,8C4,8,3.9,8,3.8,8L1.2,9.5
		C1.1,9.6,1.1,9.7,1.1,9.8v2.6c0,0.1,0.1,0.2,0.2,0.3L3.7,14v3.6L1.2,19C1.1,19.1,1,19.2,1,19.3v1c0,0.2,0.1,0.3,0.3,0.3
		s0.3-0.1,0.3-0.3v-0.4l2,1.1v1.9l-2.1-1.2c-0.2-0.1-0.3,0-0.4,0.1c-0.1,0.2,0,0.3,0.1,0.4l0,0l2.6,1.4c0.1,0,0.2,0,0.3,0l2.2-1.2
		l2.9,1.9v1.3c0,0.1,0.1,0.2,0.2,0.3l2.6,1.4c0.1,0,0.2,0,0.3,0l2.6-1.4c0.1-0.1,0.2-0.2,0.2-0.3v-1.3l2.9-1.9l2.2,1.2
		c0.1,0,0.2,0,0.3,0l2.6-1.4c0.1-0.1,0.2-0.2,0.2-0.3v-2.6c0-0.1-0.1-0.2-0.2-0.3l-2.4-1.4V14L23,12.7z M14,22.9l-1.9,1l-1.9-1h-0.1
		l2-1.1L14,22.9L14,22.9z M2,19.2l2-1.1l2,1.1H5.9l-1.9,1L2,19.2L2,19.2z M6.3,12.2l-2,1.1v-1.9l2-1.1V12.2z M6.6,18.9l-2.3-1.3V14
		l2.1-1.1l2.8,1.9V17L6.6,18.9z M9.8,8.8V6.9l2,1.1v1.9L9.8,8.8z M14.4,8.8l-2,1.1v-2l2-1.1V8.8z M12.1,13.4l2,1.1H14l-1.9,1l-1.9-1
		h-0.1L12.1,13.4z M9.8,15.1l2,1.1V18l-2-1.1V15.1z M12.4,16.2l2-1.1V17l-2,1.1V16.2z M15,14.7l2.8-1.9l2.1,1.1v3.6l-2.3,1.3L15,17
		V14.7z M19.9,11.4v1.9l-2-1.1v-1.9L19.9,11.4z M17.9,21.6v-1.9l2,1.1v1.9L17.9,21.6z M22.1,19.3l-1.9,1l-1.9-1h-0.1l2-1.1
		L22.1,19.3L22.1,19.3z M20.5,13.3v-1.9l2-1.1v1.9L20.5,13.3z M17.3,12.5l-2.6,1.7l-2.3-1.3v-2.3l2.1-1.1l2.8,1.8L17.3,12.5
		C17.3,12.4,17.3,12.4,17.3,12.5L17.3,12.5z M12.1,5.2l2,1.1l-1.9,1h-0.1H12l-1.9-1L12.1,5.2z M9.7,9.4l2.1,1.1v2.3l-2.3,1.3
		l-2.6-1.7v-0.1v-1.2L9.7,9.4z M4,8.7l2,1.1H5.9l-1.9,1l-1.9-1H2L4,8.7z M1.7,10.3l2,1.1v1.9l-2-1.1V10.3z M4.3,20.8l2-1.1v1.9
		l-2,1.1V20.8z M6.9,21.9L6.9,21.9v-2.5l2.6-1.9l2.3,1.2v2.5l-2.4,1.4c-0.1,0.1-0.2,0.2-0.2,0.3v0.6L6.9,21.9z M9.8,24v-0.6l2,1.1
		v1.9l-2-1.1V24z M12.4,26.4v-1.9l2-1.1v1.9L12.4,26.4z M15,22.9c0-0.1-0.1-0.2-0.2-0.3l-2.4-1.4v-2.5l2.3-1.2l2.6,1.9v2.4v0.1
		L15,23.5V22.9z M20.5,22.7v-1.9l2-1.1v1.9L20.5,22.7z"/>
	<path d="M21.2,9.2l0.4,0.2c0.1,0.1,0.3,0,0.4-0.1s0-0.3-0.1-0.4l-0.4-0.2c-0.1-0.1-0.3,0-0.4,0.1S21,9.1,21.2,9.2z"/>
</g>
</svg>
