<?xml version="1.0" encoding="utf-8"?>
<!-- Generator: Adobe Illustrator 24.0.2, SVG Export Plug-In . SVG Version: 6.00 Build 0)  -->
<svg version="1.1" id="Capa_1" xmlns="http://www.w3.org/2000/svg" xmlns:xlink="http://www.w3.org/1999/xlink" x="0px" y="0px"
	 viewBox="0 0 24 40" style="enable-background:new 0 0 24 40;" xml:space="preserve">
<style type="text/css">
	.st0{fill:#666666;}
	.st1{fill:#A3A3A3;}
	.st2{fill:#474747;}
</style>
<title>Receive off</title>
<desc>Created with Sketch.</desc>
<title>Receive off</title>
<desc>Created with Sketch.</desc>
<path class="st0" d="M21.5,29.8c0,4.9-4.5,5.6-9.5,5.6s-9.5-0.6-9.5-5.6c0-4.1,3.4-9.1,7.2-10.6h5C18.5,20.8,21.5,25.8,21.5,29.8z"
	/>
<path class="st0" d="M17.3,16c0.3-0.3,0.3-0.8,0.1-1.2c-0.2-0.4-0.6-0.6-1-0.6H8.4c-0.4,0-0.8,0.3-1,0.7c-0.2,0.4-0.1,0.9,0.2,1.2
	l2.3,3.2h5L17.3,16z"/>
<path class="st1" d="M12.8,35.4c-0.3,0-0.5,0-0.8,0c-4.9,0-9.5-0.6-9.5-5.6c0-4.1,3.4-9.1,7.2-10.6h1.7c-3.8,1.5-7.2,6.4-7.2,10.6
	C4.2,34.4,8.2,35.3,12.8,35.4z"/>
<path class="st2" d="M11.4,19.2H9.8l-2.2-3.2c-0.3-0.3-0.4-0.8-0.2-1.2c0.2-0.4,0.6-0.7,1-0.7H10c-0.4,0-0.8,0.3-1,0.7
	c-0.2,0.4-0.1,0.9,0.2,1.2L11.4,19.2z"/>
<path class="st2" d="M17,27.6c0,2.8-2.2,5-5,5s-5-2.2-5-5s2.2-5,5-5S17,24.8,17,27.6z"/>
<path class="st0" d="M15.3,8.1h-1.7V3.9c0-0.5-0.4-0.9-0.9-0.9h-1.6c-0.5,0-0.9,0.4-0.9,0.9v4.2H8.7L12,12L15.3,8.1z"/>
<path d="M12,22c-3.1,0-5.6,2.5-5.6,5.6s2.5,5.6,5.6,5.6s5.6-2.5,5.6-5.6C17.6,24.5,15.1,22,12,22z M12,32c-2.5,0-4.5-2-4.5-4.5
	s2-4.5,4.5-4.5s4.5,2,4.5,4.5C16.5,30,14.5,32,12,32z"/>
<path d="M15.6,19l2.1-2.7c0.4-0.5,0.5-1.2,0.2-1.8c-0.3-0.6-0.9-0.9-1.5-0.9H8.4c-0.7,0-1.3,0.4-1.5,1s-0.2,1.3,0.3,1.8L8.9,19
	C5.1,20.9,2,25.7,2,29.8c0,6.1,6.8,6.1,10,6.1s10,0,10-6.1C22,25.7,19.2,21,15.6,19z M7.8,15.1c0.1-0.2,0.3-0.3,0.5-0.3h8.1
	c0.2,0,0.4,0.1,0.5,0.3c0.1,0.2,0.1,0.4-0.1,0.6l-2.3,3H10l-2.1-3C7.8,15.5,7.8,15.3,7.8,15.1L7.8,15.1z M12,34.8
	c-5.3,0-8.9-0.9-8.9-5c0-3.8,3.2-8.5,6.8-10h4.8c3.3,1.5,6.2,6.2,6.2,10C20.9,34,17.3,34.8,12,34.8z"/>
<path d="M12,12.8L7.4,7.5h2.3V4.3c0-1,0.8-1.8,1.8-1.8h0.8c1,0,1.8,0.8,1.8,1.8v3.2h2.3L12,12.8z M9.9,8.6l2.1,2.5l2.1-2.5h-1V4.5
	c0-0.5-0.4-0.9-0.9-0.9h-0.4c-0.5,0-0.9,0.4-0.9,0.9v4.1H9.9z"/>
<g>
	<path d="M13.6,27.7c-0.3,0-0.6,0.1-0.8,0.3c0,0-0.1,0-0.1,0l-0.5-0.3c0,0-0.1-0.1-0.1-0.1l0-0.6c0,0,0-0.1,0.1-0.1
		c0.4-0.1,0.8-0.5,0.8-1c0-0.6-0.5-1-1-1c-0.6,0-1,0.5-1,1c0,0.5,0.3,0.9,0.8,1c0,0,0.1,0.1,0.1,0.1l0,0.6c0,0,0,0.1-0.1,0.1
		L11.3,28c0,0-0.1,0-0.1,0c-0.2-0.2-0.5-0.3-0.8-0.3c-0.6,0-1,0.5-1,1c0,0.6,0.5,1,1,1c0.6,0,1-0.5,1-1c0-0.1,0-0.2,0-0.3
		c0,0,0-0.1,0-0.1L12,28c0,0,0.1,0,0.1,0l0.5,0.3c0,0,0.1,0.1,0,0.1c0,0.1,0,0.2,0,0.3c0,0.6,0.5,1,1,1c0.6,0,1-0.5,1-1
		C14.7,28.2,14.2,27.7,13.6,27.7z"/>
	<path d="M11.6,29.4c-0.2,0.4-0.7,0.7-1.2,0.7c-0.8,0-1.4-0.6-1.4-1.4c0-0.8,0.6-1.4,1.4-1.4c0.4,0,0.7,0.1,0.9,0.3l0.2-0.1l0-0.4
		c-0.3-0.3-0.7-0.4-1.2-0.4c-1.1,0-1.9,0.9-1.9,1.9c0,1.1,0.9,1.9,1.9,1.9c0.6,0,1.1-0.3,1.5-0.7C11.8,29.8,11.7,29.6,11.6,29.4z"/>
	<path d="M12,24c-1.1,0-1.9,0.9-1.9,1.9c0,0.3,0.1,0.5,0.1,0.7c0.1,0,0.1,0,0.2,0c0.2,0,0.3,0,0.5,0.1c-0.2-0.2-0.2-0.5-0.2-0.8
		c0-0.8,0.6-1.4,1.4-1.4c0.8,0,1.4,0.6,1.4,1.4c0,0.6-0.4,1.1-1,1.3l0,0.3l0.3,0.2c0.7-0.3,1.2-1,1.2-1.8C13.9,24.9,13.1,24,12,24z"
		/>
	<path d="M13.9,26.8c-0.1,0.2-0.2,0.4-0.4,0.5c0,0,0.1,0,0.1,0c0.8,0,1.4,0.6,1.4,1.4c0,0.8-0.6,1.4-1.4,1.4c-0.8,0-1.4-0.6-1.4-1.4
		c0-0.1,0-0.2,0-0.3L12,28.3l-0.3,0.1c0,0.1,0,0.2,0,0.3c0,1.1,0.9,1.9,1.9,1.9c1.1,0,1.9-0.9,1.9-1.9C15.5,27.8,14.8,27,13.9,26.8z
		"/>
</g>
</svg>
