<?xml version="1.0" encoding="utf-8"?>
<!-- Generator: Adobe Illustrator 24.0.1, SVG Export Plug-In . SVG Version: 6.00 Build 0)  -->
<svg version="1.1" id="Capa_1" xmlns="http://www.w3.org/2000/svg" xmlns:xlink="http://www.w3.org/1999/xlink" x="0px" y="0px"
	 viewBox="0 0 24 40" style="enable-background:new 0 0 24 40;" xml:space="preserve">
<style type="text/css">
	.st0{fill:#0086FF;}
</style>
<title>Privacy</title>
<desc>Created with Sketch.</desc>
<title>Privacy</title>
<desc>Created with Sketch.</desc>
<g id="Privacy_1_">
	<g id="Group_1_" transform="translate(1.000000, 13.000000)">
		<path id="Path_18869_1_" class="st0" d="M19.9,10.1l-2-9c-0.1-0.6-0.7-1-1.3-0.9l-5.7,1l-5.7-1C4.6,0.1,4,0.5,3.9,1.1l-2,9h-1
			c-0.6,0-1,0.4-1,1v0c0,0.6,0.4,1,1,1h20c0.6,0,1-0.4,1-1v0c0-0.6-0.4-1-1-1H19.9z M6.8,2.5l4.1,0.7L15,2.5
			c0.6-0.1,1.2,0.3,1.3,0.9l1.5,6.8h-14l1.5-6.7C5.6,2.8,6.1,2.4,6.8,2.5z"/>
		<path id="Path_18870_1_" class="st0" d="M11.6,14.1l-2,0.2l0-0.5l-5.2,0.4c-2.1,0.2-3.6,2-3.4,4l0,0c0.3,2.4,2.4,4.1,4.8,3.9
			c2.3-0.3,3.8-3.9,4-6.2l2.1-0.2c0.5,2.2,2.7,5.5,4.9,5.4c2.4-0.2,4.2-2.3,4.1-4.7v0c-0.2-2.1-2-3.6-4-3.4l-5.2,0.4L11.6,14.1z"/>
	</g>
</g>
</svg>
