<?xml version="1.0" encoding="utf-8"?>
<!-- Generator: Adobe Illustrator 24.0.2, SVG Export Plug-In . SVG Version: 6.00 Build 0)  -->
<svg version="1.1" id="Capa_1" xmlns="http://www.w3.org/2000/svg" xmlns:xlink="http://www.w3.org/1999/xlink" x="0px" y="0px"
	 viewBox="0 0 30 30" style="enable-background:new 0 0 30 30;" xml:space="preserve">
<style type="text/css">
	.st0{fill:#A4C2F7;}
	.st1{fill:url(#SVGID_1_);}
	.st2{fill:#FFFFFF;}
	.st3{fill:#428DFF;}
</style>
<g>
	<circle class="st0" cx="15.1" cy="15.1" r="12.7"/>
	
		<linearGradient id="SVGID_1_" gradientUnits="userSpaceOnUse" x1="-735.6148" y1="65.7027" x2="-735.5768" y2="65.7387" gradientTransform="matrix(461.6393 0 0 486.8196 339594.375 -31979.0293)">
		<stop  offset="0" style="stop-color:#D4E1F4"/>
		<stop  offset="0.1717" style="stop-color:#D4E1F4"/>
		<stop  offset="0.2" style="stop-color:#D4E1F4"/>
		<stop  offset="0.2001" style="stop-color:#DAE4F4"/>
		<stop  offset="0.2007" style="stop-color:#EBEBF4"/>
		<stop  offset="0.2014" style="stop-color:#F6F1F4"/>
		<stop  offset="0.2023" style="stop-color:#FDF4F4"/>
		<stop  offset="0.205" style="stop-color:#FFF5F4"/>
		<stop  offset="0.2522" style="stop-color:#FFF5F4"/>
		<stop  offset="0.26" style="stop-color:#FFF5F4"/>
		<stop  offset="0.26" style="stop-color:#D4E1F4"/>
		<stop  offset="0.3974" style="stop-color:#D4E1F4"/>
		<stop  offset="0.42" style="stop-color:#D4E1F4"/>
		<stop  offset="0.4201" style="stop-color:#DAE4F4"/>
		<stop  offset="0.4207" style="stop-color:#EBEBF4"/>
		<stop  offset="0.4214" style="stop-color:#F6F1F4"/>
		<stop  offset="0.4223" style="stop-color:#FDF4F4"/>
		<stop  offset="0.425" style="stop-color:#FFF5F4"/>
		<stop  offset="0.4894" style="stop-color:#FFF5F4"/>
		<stop  offset="0.5" style="stop-color:#FFF5F4"/>
		<stop  offset="0.5" style="stop-color:#F9F2F4"/>
		<stop  offset="0.5001" style="stop-color:#E8EBF4"/>
		<stop  offset="0.5003" style="stop-color:#DDE5F4"/>
		<stop  offset="0.5005" style="stop-color:#D6E2F4"/>
		<stop  offset="0.501" style="stop-color:#D4E1F4"/>
		<stop  offset="0.7062" style="stop-color:#D4E1F4"/>
		<stop  offset="0.74" style="stop-color:#D4E1F4"/>
		<stop  offset="0.741" style="stop-color:#FFF5F4"/>
		<stop  offset="0.8346" style="stop-color:#FFF5F4"/>
		<stop  offset="0.85" style="stop-color:#FFF5F4"/>
		<stop  offset="0.851" style="stop-color:#D4E1F4"/>
	</linearGradient>
	<ellipse class="st1" cx="14.4" cy="15.1" rx="12.1" ry="12.7"/>
	<path class="st2" d="M15.1,27.8c0.1,0,0.2,0,0.3,0C8.9,27.6,3.7,22,3.7,15.1S8.9,2.6,15.4,2.4c-0.1,0-0.2,0-0.3,0
		c-7,0-12.7,5.7-12.7,12.7S8.1,27.8,15.1,27.8z"/>
	<circle class="st0" cx="15.1" cy="15" r="1.3"/>
	<g>
		<path class="st3" d="M15.1,28.2c-7.3,0-13.2-5.9-13.2-13.2S7.8,1.9,15.1,1.9s13.2,5.9,13.2,13.2C28.2,22.3,22.3,28.2,15.1,28.2z
			 M15.1,2.8C8.3,2.8,2.8,8.3,2.8,15.1s5.5,12.3,12.3,12.3s12.3-5.5,12.3-12.3C27.3,8.3,21.9,2.8,15.1,2.8z"/>
		<path class="st3" d="M13.8,15.5h-3.5c-0.2,0-0.4-0.2-0.4-0.4c0-0.2,0.2-0.4,0.4-0.4h3.5c0.2,0,0.4,0.2,0.4,0.4
			C14.2,15.3,14,15.5,13.8,15.5z"/>
		<path class="st3" d="M15.1,14.2c-0.1,0-0.2,0-0.3-0.1c-0.1-0.1-0.1-0.2-0.1-0.3V8.9c0-0.2,0.2-0.4,0.4-0.4s0.4,0.2,0.4,0.4v4.8
			c0,0.1,0,0.2-0.1,0.3C15.3,14.1,15.2,14.2,15.1,14.2L15.1,14.2z"/>
		<path class="st3" d="M15.1,16.8c-1,0-1.8-0.8-1.8-1.8c0-1,0.8-1.8,1.8-1.8c1,0,1.8,0.8,1.8,1.8C16.8,16,16,16.8,15.1,16.8z
			 M15.1,14.2c-0.5,0-0.9,0.4-0.9,0.9c0,0.5,0.4,0.9,0.9,0.9c0.5,0,0.9-0.4,0.9-0.9C16,14.5,15.6,14.2,15.1,14.2L15.1,14.2z"/>
		<path class="st3" d="M15.1,6.3c-0.1,0-0.2,0-0.3-0.1c-0.1-0.1-0.1-0.2-0.1-0.3V5.4c0-0.2,0.2-0.4,0.4-0.4s0.4,0.2,0.4,0.4v0.4
			c0,0.1,0,0.2-0.1,0.3C15.3,6.2,15.2,6.3,15.1,6.3z"/>
		<path class="st3" d="M15.1,25.1c-0.1,0-0.2,0-0.3-0.1c-0.1-0.1-0.1-0.2-0.1-0.3v-0.4c0-0.2,0.2-0.4,0.4-0.4s0.4,0.2,0.4,0.4v0.4
			c0,0.1,0,0.2-0.1,0.3C15.3,25.1,15.2,25.1,15.1,25.1L15.1,25.1z"/>
		<path class="st3" d="M24.7,15.5h-0.4c-0.2,0-0.4-0.2-0.4-0.4c0-0.2,0.2-0.4,0.4-0.4h0.4c0.2,0,0.4,0.2,0.4,0.4
			C25.2,15.3,25,15.5,24.7,15.5z"/>
		<path class="st3" d="M5.9,15.5H5.4C5.2,15.5,5,15.3,5,15c0-0.2,0.2-0.4,0.4-0.4h0.4c0.2,0,0.4,0.2,0.4,0.4S6.1,15.5,5.9,15.5z"/>
		<path class="st3" d="M21.6,9c-0.2,0-0.3-0.1-0.4-0.3c-0.1-0.2,0-0.4,0.1-0.5l0.3-0.3c0.1-0.1,0.3-0.2,0.4-0.1
			c0.2,0,0.3,0.2,0.3,0.3c0,0.2,0,0.3-0.1,0.4l-0.3,0.3C21.8,8.9,21.7,9,21.6,9z"/>
		<path class="st3" d="M8.3,22.3c-0.2,0-0.3-0.1-0.4-0.3s0-0.4,0.1-0.5l0.3-0.3c0.2-0.2,0.4-0.2,0.6,0c0.2,0.2,0.2,0.4,0,0.6
			l-0.3,0.3C8.5,22.2,8.4,22.3,8.3,22.3L8.3,22.3z"/>
		<path class="st3" d="M21.9,22.3c-0.1,0-0.2,0-0.3-0.1l-0.3-0.3c-0.2-0.2-0.2-0.4,0-0.6c0.2-0.2,0.4-0.2,0.6,0l0.3,0.3
			c0.1,0.1,0.2,0.3,0.1,0.5C22.2,22.2,22.1,22.3,21.9,22.3L21.9,22.3z"/>
		<path class="st3" d="M8.6,9c-0.1,0-0.2,0-0.3-0.1L8,8.5C7.8,8.3,7.8,8.1,8,7.9c0.2-0.2,0.4-0.2,0.6,0l0.3,0.3C9,8.3,9,8.5,9,8.7
			S8.7,9,8.6,9L8.6,9z"/>
	</g>
</g>
</svg>
