<?xml version="1.0" encoding="utf-8"?>
<!-- Generator: Adobe Illustrator 24.0.2, SVG Export Plug-In . SVG Version: 6.00 Build 0)  -->
<svg version="1.1" id="ic-transaction-received" xmlns="http://www.w3.org/2000/svg" xmlns:xlink="http://www.w3.org/1999/xlink"
	 x="0px" y="0px" viewBox="0 0 24 24" style="enable-background:new 0 0 24 24;" xml:space="preserve">
<style type="text/css">
	.st0{fill:#C49A6C;}
	.st1{fill:#A97C50;}
	.st2{fill:#8B5E3C;}
	.st3{fill:#128FFF;}
	.st4{fill:#FFFFFF;}
</style>
<path class="st0" d="M19.4,17.1c0,4.8-4.4,5.4-9.2,5.4s-9.2-0.6-9.2-5.4c0-4,3.3-8.8,7-10.2H13C16.5,8.5,19.4,13.2,19.4,17.1z"/>
<path class="st1" d="M15.4,3.8c0.3-0.3,0.3-0.8,0.1-1.1s-0.6-0.6-1-0.6H6.8c-0.4,0-0.8,0.2-1,0.6C5.6,3.1,5.7,3.5,6,3.9l2.2,3.1H13
	L15.4,3.8z"/>
<path class="st1" d="M11,22.5c-0.2,0-0.5,0-0.7,0c-4.8,0-9.2-0.6-9.2-5.4c0-4,3.3-8.8,7-10.2h1.6c-3.7,1.5-7,6.2-7,10.2
	C2.8,21.6,6.6,22.4,11,22.5z"/>
<path class="st2" d="M9.8,6.9H8.1L6,3.9C5.7,3.5,5.6,3.1,5.8,2.7c0.2-0.4,0.6-0.6,1-0.6h1.6c-0.4,0-0.8,0.2-1,0.6
	C7.2,3.1,7.3,3.5,7.6,3.9L9.8,6.9z"/>
<path class="st3" d="M15.1,15c0,2.7-2.2,4.8-4.8,4.8S5.4,17.7,5.4,15s2.2-4.8,4.8-4.8S15.1,12.3,15.1,15z"/>
<path class="st4" d="M22.9,6.1h-1.6v-4c0-0.5-0.4-0.8-0.8-0.8h-1.6c-0.5,0-0.8,0.4-0.8,0.8v4h-1.6l3.2,3.8L22.9,6.1z"/>
<path d="M10.3,9.6c-3,0-5.4,2.4-5.4,5.4s2.4,5.4,5.4,5.4s5.4-2.4,5.4-5.4C15.7,12,13.3,9.6,10.3,9.6z M10.3,19.3
	C7.9,19.3,6,17.4,6,15s1.9-4.3,4.3-4.3s4.3,1.9,4.3,4.3C14.6,17.4,12.7,19.3,10.3,19.3z"/>
<path d="M13.8,6.7l2-2.6C16.2,3.6,16.3,3,16,2.4c-0.3-0.6-0.8-0.9-1.5-0.9H6.8c-0.6,0-1.2,0.4-1.5,1C5,3.1,5.1,3.7,5.6,4.2l1.7,2.5
	c-3.6,1.8-6.7,6.5-6.7,10.4c0,5.9,6.5,5.9,9.7,5.9s9.7,0,9.7-5.9C20,13.2,17.2,8.6,13.8,6.7z M6.3,2.9c0.1-0.2,0.3-0.3,0.5-0.3h7.8
	c0.2,0,0.4,0.1,0.5,0.3c0.1,0.2,0.1,0.4-0.1,0.6l-2.3,2.9H8.4l-2-2.9C6.2,3.3,6.2,3.1,6.3,2.9L6.3,2.9z M10.3,22
	c-5.2,0-8.6-0.8-8.6-4.8c0-3.7,3.1-8.3,6.6-9.7h4.6c3.2,1.5,6,6,6,9.7C18.9,21.2,15.5,22,10.3,22z"/>
<path d="M19.7,10.7l-4.4-5.1h2.2V2.5c0-1,0.8-1.8,1.8-1.8h0.8c1,0,1.8,0.8,1.8,1.8v3.1h2.2L19.7,10.7z M17.6,6.6L19.7,9l2.1-2.4h-1
	v-4c0-0.5-0.4-0.9-0.9-0.9h-0.4c-0.5,0-0.9,0.4-0.9,0.9v4H17.6z"/>
<g>
	<path d="M11.9,15.1c-0.3,0-0.5,0.1-0.7,0.3c0,0-0.1,0-0.1,0l-0.5-0.3c0,0-0.1-0.1-0.1-0.1l0-0.6c0,0,0-0.1,0.1-0.1
		c0.4-0.1,0.8-0.5,0.8-1c0-0.5-0.4-1-1-1c-0.6,0-1,0.4-1,1c0,0.5,0.3,0.9,0.8,1c0,0,0.1,0.1,0.1,0.1l0,0.6c0,0,0,0.1-0.1,0.1
		l-0.5,0.3c0,0-0.1,0-0.1,0c-0.2-0.2-0.4-0.3-0.7-0.3c-0.6,0-1,0.5-1,1c0,0.6,0.5,1,1,1c0.6,0,1-0.5,1-1c0-0.1,0-0.2,0-0.3
		c0,0,0-0.1,0-0.1l0.5-0.3c0,0,0.1,0,0.1,0l0.5,0.3c0,0,0.1,0.1,0,0.1c0,0.1,0,0.2,0,0.3c0,0.6,0.5,1,1,1c0.6,0,1-0.4,1-1
		C12.9,15.6,12.4,15.1,11.9,15.1z"/>
	<path d="M9.9,16.7c-0.2,0.4-0.7,0.7-1.2,0.7c-0.7,0-1.3-0.6-1.3-1.3c0-0.7,0.6-1.3,1.3-1.3c0.3,0,0.6,0.1,0.9,0.3L9.8,15l0-0.3
		c-0.3-0.2-0.7-0.4-1.1-0.4c-1,0-1.9,0.8-1.9,1.9S7.7,18,8.7,18c0.6,0,1.1-0.3,1.4-0.7C10.1,17.1,10,16.9,9.9,16.7z"/>
	<path d="M10.3,11.5c-1,0-1.9,0.8-1.9,1.9c0,0.2,0,0.5,0.1,0.7c0.1,0,0.1,0,0.2,0c0.2,0,0.3,0,0.5,0.1C9.1,13.9,9,13.7,9,13.4
		c0-0.7,0.6-1.3,1.3-1.3c0.7,0,1.3,0.6,1.3,1.3c0,0.6-0.4,1.1-0.9,1.3l0,0.3l0.3,0.1c0.7-0.3,1.2-0.9,1.2-1.7
		C12.1,12.4,11.3,11.5,10.3,11.5z"/>
	<path d="M12.1,14.3c-0.1,0.2-0.2,0.4-0.4,0.5c0,0,0.1,0,0.1,0c0.7,0,1.3,0.6,1.3,1.3c0,0.7-0.6,1.3-1.3,1.3c-0.7,0-1.3-0.6-1.3-1.3
		c0-0.1,0-0.2,0-0.3l-0.3-0.1L10,15.8c0,0.1,0,0.2,0,0.3c0,1,0.8,1.9,1.9,1.9c1,0,1.9-0.8,1.9-1.9C13.7,15.2,13,14.4,12.1,14.3z"/>
</g>
</svg>
