<?xml version="1.0" encoding="utf-8"?>
<!-- Generator: Adobe Illustrator 24.0.1, SVG Export Plug-In . SVG Version: 6.00 Build 0)  -->
<svg version="1.1" id="ic_receive_on" xmlns="http://www.w3.org/2000/svg" xmlns:xlink="http://www.w3.org/1999/xlink" x="0px"
	 y="0px" viewBox="0 0 26 26" style="enable-background:new 0 0 26 26;" xml:space="preserve">
<style type="text/css">
	.st0{fill:#8AD8FF;}
</style>
<g id="ic-transaction-received_1_">
	<g id="Group_8834_1_">
		<path class="st0" d="M19.9,12.4l-7.2,6.5l-7.2-6.5L7,10.8l4.6,4.3v-4.8c0.3,0.1,0.6,0.1,1.1,0.1c0.3,0,0.7,0,1.1-0.1v4.9l4.6-4.3
			L19.9,12.4z"/>
		<path class="st0" d="M23.5,17v2.4c0,2.2-1.8,4.1-4.1,4.1H6.2c-2.2,0-4.1-1.8-4.1-4.1V17h2.1v1.9c0,1.3,1.1,2.4,2.4,2.4h12.3
			c1.3,0,2.4-1.1,2.4-2.4V17H23.5z"/>
	</g>
	<path class="st0" d="M21.4,17v1.9c0,1.3-1.1,2.4-2.4,2.4H6.6c-1.3,0-2.4-1.1-2.4-2.4V17H2.1v2.4c0,2.2,1.8,4.1,4.1,4.1h13.3
		c2.2,0,4.1-1.8,4.1-4.1V17H21.4z M19.9,12.4l-1.5-1.6l-4.6,4.3v-4.8c-0.3,0.1-0.7,0.1-1.1,0.1c-0.4,0-0.7,0-1.1-0.1v4.9L7,10.9
		l-1.5,1.6l7.2,6.5L19.9,12.4z"/>
</g>
<circle class="st0" cx="12.8" cy="5.5" r="4"/>
</svg>
