<?xml version="1.0" encoding="utf-8"?>
<!-- Generator: Adobe Illustrator 24.0.1, SVG Export Plug-In . SVG Version: 6.00 Build 0)  -->
<svg version="1.1" id="Capa_1" xmlns="http://www.w3.org/2000/svg" xmlns:xlink="http://www.w3.org/1999/xlink" x="0px" y="0px"
	 viewBox="0 0 26 26" style="enable-background:new 0 0 26 26;" xml:space="preserve">
<style type="text/css">
	.st0{fill:#FFFFFF;}
</style>
<g id="ic-transaction-received_1_">
	<g id="Group_8834_1_">
		<path class="st0" d="M20.2,12.6l-7.3,6.6l-7.3-6.6L7.1,11l4.7,4.4v-4.9c0.3,0.1,0.7,0.1,1.1,0.1c0.3,0,0.8,0,1.1-0.1v5l4.7-4.4
			L20.2,12.6z"/>
		<path class="st0" d="M23.9,17.3v2.4c0,2.3-1.8,4.1-4.1,4.1H6.2c-2.3,0-4.1-1.8-4.1-4.1v-2.4h2.2v2c0,1.3,1.1,2.4,2.4,2.4h12.5
			c1.3,0,2.4-1.1,2.4-2.4v-2H23.9z"/>
	</g>
	<path class="st0" d="M21.7,17.3v2c0,1.3-1.1,2.4-2.4,2.4H6.7c-1.3,0-2.4-1.1-2.4-2.4v-2H2.1v2.4c0,2.3,1.8,4.1,4.1,4.1h13.5
		c2.3,0,4.1-1.8,4.1-4.1v-2.4H21.7z M20.2,12.6L18.6,11L14,15.3v-4.9c-0.3,0.1-0.8,0.1-1.1,0.1c-0.4,0-0.8,0-1.1-0.1v5l-4.7-4.4
		l-1.5,1.6l7.3,6.6L20.2,12.6z"/>
</g>
<circle class="st0" cx="13" cy="5.5" r="4"/>
</svg>
