<?xml version="1.0" encoding="utf-8"?>
<!-- Generator: Adobe Illustrator 24.0.2, SVG Export Plug-In . SVG Version: 6.00 Build 0)  -->
<svg version="1.1" id="Capa_1" xmlns="http://www.w3.org/2000/svg" xmlns:xlink="http://www.w3.org/1999/xlink" x="0px" y="0px"
	 viewBox="0 0 28 24" style="enable-background:new 0 0 28 24;" xml:space="preserve">
<style type="text/css">
	.st0{fill:#FFFFFF;}
	.st1{fill:#777777;}
	.st2{fill:#006DF0;}
	.st3{fill:#7CBAF7;}
	.st4{fill:#08539E;}
</style>
<title>Sub Menu Locked Copy 2</title>
<desc>Created with Sketch.</desc>
<g>
	<path class="st0" d="M22,9.3h-1.4V7.4c0-3.6-2.9-6.5-6.5-6.5S7.5,3.8,7.5,7.4v1.9H6.1c-0.3,0-0.5,0.2-0.5,0.5v11.6
		c0,1,0.8,1.9,1.9,1.9h13c1,0,1.9-0.8,1.9-1.9V9.7C22.4,9.5,22.2,9.3,22,9.3z M17.8,9.3h-7.4V7.4c0-2.1,1.7-3.7,3.7-3.7
		s3.7,1.7,3.7,3.7V9.3z"/>
	<path class="st1" d="M8.5,7.4c0-3.1,2.5-5.6,5.6-5.6s5.6,2.5,5.6,5.6v1.9h-0.9V7.4c0-2.6-2.1-4.7-4.7-4.7S9.4,4.8,9.4,7.4v1.9H8.5
		V7.4z"/>
	<path class="st2" d="M21.5,21.3c0,0.5-0.4,0.9-0.9,0.9h-13c-0.5,0-0.9-0.4-0.9-0.9V10.2h14.9V21.3z"/>
	<path class="st3" d="M8.5,21.3V10.2H6.6v11.2c0,0.5,0.4,0.9,0.9,0.9h1.6C8.8,22.3,8.5,21.9,8.5,21.3z"/>
	<path class="st4" d="M19.6,10.2v11.2c0,0.5-0.3,0.9-0.7,0.9h1.6c0.5,0,0.9-0.4,0.9-0.9V10.2L19.6,10.2L19.6,10.2z"/>
	<path class="st0" d="M16.3,16.3c-0.4,0-0.8,0.2-1.1,0.4c0,0.1-0.1,0.1-0.2,0l-0.8-0.4c-0.1,0-0.1-0.1-0.1-0.1l0-0.9
		c0-0.1,0-0.1,0.1-0.1c0.7-0.2,1.1-0.8,1.1-1.5c0-0.8-0.7-1.5-1.5-1.5c-0.8,0-1.5,0.7-1.5,1.5c0,0.7,0.5,1.3,1.1,1.5
		c0.1,0,0.1,0.1,0.1,0.1l0,0.9c0,0.1,0,0.1-0.1,0.1l-0.7,0.4c-0.1,0-0.1,0-0.2,0c-0.3-0.3-0.7-0.5-1.1-0.5c-0.8,0-1.5,0.7-1.5,1.5
		c0,0.8,0.7,1.5,1.5,1.5c0.8,0,1.5-0.7,1.5-1.5c0-0.1,0-0.3-0.1-0.4c0-0.1,0-0.1,0.1-0.2l0.8-0.4c0.1,0,0.1,0,0.2,0l0.7,0.4
		c0.1,0,0.1,0.1,0.1,0.2c0,0.1-0.1,0.3-0.1,0.4c0,0.8,0.7,1.5,1.5,1.5c0.8,0,1.5-0.7,1.5-1.5C17.8,17,17.1,16.3,16.3,16.3z"/>
	<path class="st0" d="M13.3,18.7c-0.3,0.6-1,1.1-1.8,1.1c-1.1,0-2-0.9-2-2c0-1.1,0.9-2,2-2c0.5,0,1,0.2,1.3,0.5l0.4-0.2l0-0.5
		c-0.5-0.4-1.1-0.6-1.7-0.6c-1.5,0-2.8,1.2-2.8,2.8s1.2,2.8,2.8,2.8c0.9,0,1.7-0.4,2.2-1C13.6,19.3,13.4,19,13.3,18.7z"/>
	<path class="st0" d="M13.9,10.9c-1.5,0-2.8,1.2-2.8,2.8c0,0.4,0.1,0.7,0.2,1c0.1,0,0.2,0,0.2,0c0.2,0,0.5,0,0.7,0.1
		c-0.2-0.3-0.3-0.7-0.3-1.1c0-1.1,0.9-2,2-2c1.1,0,2,0.9,2,2c0,0.9-0.6,1.6-1.4,1.9l0,0.5l0.4,0.2c1-0.4,1.8-1.4,1.8-2.6
		C16.7,12.2,15.5,10.9,13.9,10.9z"/>
	<path class="st0" d="M16.7,15c-0.1,0.3-0.3,0.5-0.5,0.8c0.1,0,0.1,0,0.2,0c1.1,0,2,0.9,2,2c0,1.1-0.9,2-2,2c-1.1,0-2-0.9-2-2
		c0-0.1,0-0.3,0-0.4L14,17.2l-0.4,0.2c0,0.1,0,0.3,0,0.4c0,1.5,1.2,2.8,2.8,2.8c1.5,0,2.8-1.2,2.8-2.8C19.1,16.4,18,15.2,16.7,15z"
		/>
</g>
</svg>
