<?xml version="1.0" encoding="utf-8"?>
<!-- Generator: Adobe Illustrator 24.0.1, SVG Export Plug-In . SVG Version: 6.00 Build 0)  -->
<svg version="1.1" id="Capa_1" xmlns="http://www.w3.org/2000/svg" xmlns:xlink="http://www.w3.org/1999/xlink" x="0px" y="0px"
	 viewBox="0 0 28 24" style="enable-background:new 0 0 28 24;" xml:space="preserve">
<style type="text/css">
	.st0{fill:#FFFFFF;}
	.st1{fill:none;}
</style>
<title>Sub Menu Locked Copy 2</title>
<desc>Created with Sketch.</desc>
<g id="Sub-Menu-Locked-Copy-2">
	<g id="ic-check-locked" transform="translate(4.000000, 0.000000)">
		<path id="Path_18899" class="st0" d="M18,10l0-1.7C18,5,15.5,2.1,12.2,2C8.8,1.9,6,4.6,6,8v2h0c-1.1,0-2,0.9-2,2v8
			c0,1.1,0.9,2,2,2h12c1.1,0,2-0.9,2-2v-8C20,10.9,19.1,10,18,10L18,10z M8,8c0-2.2,1.8-4,4-4s4,1.8,4,4v2H8V8z M16.7,20H7.3
			C6.6,20,6,19.4,6,18.7v-5.5C6,12.6,6.6,12,7.3,12h9.5c0.7,0,1.3,0.6,1.3,1.3v5.5C18,19.4,17.4,20,16.7,20z"/>
		<polygon id="Rectangle_4417" class="st1" points="0,0 24,0 24,24 0,24 		"/>
	</g>
</g>
</svg>
