<?xml version="1.0" encoding="utf-8"?>
<!-- Generator: Adobe Illustrator 24.0.2, SVG Export Plug-In . SVG Version: 6.00 Build 0)  -->
<svg version="1.1" id="Capa_1" xmlns="http://www.w3.org/2000/svg" xmlns:xlink="http://www.w3.org/1999/xlink" x="0px" y="0px"
	 viewBox="0 0 28 24" style="enable-background:new 0 0 28 24;" xml:space="preserve">
<style type="text/css">
	.st0{fill:#FFFFFF;}
	.st1{fill:#6D6D6D;}
	.st2{fill:#006DF0;}
	.st3{fill:#5AA6F2;}
	.st4{fill:#03488C;}
</style>
<g>
	<g>
		<path class="st0" d="M21.3,9.1H20V7.3c0-3.4-2.8-6.2-6.2-6.2S7.5,3.9,7.5,7.3v0.4C7.5,8,7.7,8.2,8,8.2h1.8c0.2,0,0.4-0.2,0.4-0.4
			V7.3c0-2,1.6-3.6,3.6-3.6s3.6,1.6,3.6,3.6v1.8H6.2c-0.2,0-0.4,0.2-0.4,0.4v11.2c0,1,0.8,1.8,1.8,1.8H20c1,0,1.8-0.8,1.8-1.8V9.6
			C21.8,9.3,21.6,9.1,21.3,9.1z"/>
		<path class="st1" d="M13.8,2.9c-2.5,0-4.5,2-4.5,4.5H8.4c0-3,2.4-5.4,5.4-5.4s5.4,2.4,5.4,5.4v1.8h-0.9V7.3
			C18.2,4.9,16.2,2.9,13.8,2.9z"/>
		<path class="st2" d="M20.9,20.7c0,0.5-0.4,0.9-0.9,0.9H7.5c-0.5,0-0.9-0.4-0.9-0.9V10h14.3V20.7z"/>
		<path class="st3" d="M8.4,20.7V10H6.6v10.7c0,0.5,0.4,0.9,0.9,0.9h1.6C8.7,21.6,8.4,21.2,8.4,20.7z"/>
		<path class="st4" d="M19.1,10v10.7c0,0.5-0.3,0.9-0.7,0.9H20c0.5,0,0.9-0.4,0.9-0.9V10H19.1L19.1,10z"/>
	</g>
	<g>
		<path class="st0" d="M16.2,15.9c-0.4,0-0.8,0.2-1,0.4c0,0-0.1,0.1-0.2,0L14.2,16c0,0-0.1-0.1-0.1-0.1l0-0.8c0-0.1,0-0.1,0.1-0.1
			c0.6-0.2,1.1-0.7,1.1-1.4c0-0.8-0.6-1.4-1.4-1.4c-0.8,0-1.5,0.6-1.5,1.4c0,0.7,0.5,1.2,1.1,1.4c0.1,0,0.1,0.1,0.1,0.1l0,0.8
			c0,0.1,0,0.1-0.1,0.1l-0.7,0.4c-0.1,0-0.1,0-0.2,0c-0.3-0.3-0.6-0.4-1-0.4c-0.8,0-1.4,0.7-1.4,1.5c0,0.8,0.6,1.4,1.4,1.4
			c0.8,0,1.4-0.6,1.4-1.4c0-0.1,0-0.3-0.1-0.4c0-0.1,0-0.1,0.1-0.2l0.7-0.4c0,0,0.1,0,0.2,0l0.7,0.4c0.1,0,0.1,0.1,0.1,0.2
			c0,0.1-0.1,0.3-0.1,0.4c0,0.8,0.7,1.4,1.4,1.4c0.8,0,1.4-0.6,1.4-1.4C17.6,16.6,17,16,16.2,15.9z"/>
		<path class="st0" d="M13.3,18.3c-0.3,0.6-1,1-1.7,1c-1.1,0-1.9-0.9-1.9-1.9c0-1.1,0.9-1.9,1.9-1.9c0.5,0,0.9,0.2,1.3,0.5l0.3-0.2
			l0-0.5c-0.5-0.4-1-0.6-1.6-0.6c-1.5,0-2.7,1.2-2.7,2.7c0,1.5,1.2,2.7,2.7,2.7c0.8,0,1.6-0.4,2.1-1C13.5,18.8,13.4,18.6,13.3,18.3z
			"/>
		<path class="st0" d="M13.9,10.8c-1.5,0-2.7,1.2-2.7,2.7c0,0.4,0.1,0.7,0.2,1c0.1,0,0.2,0,0.2,0c0.2,0,0.4,0,0.7,0.1
			c-0.2-0.3-0.3-0.7-0.3-1.1c0-1.1,0.9-1.9,1.9-1.9c1.1,0,1.9,0.9,1.9,1.9c0,0.9-0.6,1.6-1.3,1.8l0,0.5l0.4,0.2
			c1-0.4,1.7-1.4,1.7-2.5C16.5,12,15.4,10.8,13.9,10.8z"/>
		<path class="st0" d="M16.5,14.7c-0.1,0.3-0.3,0.5-0.5,0.7c0.1,0,0.1,0,0.2,0c1.1,0,1.9,0.9,1.9,1.9c0,1.1-0.9,1.9-1.9,1.9
			c-1.1,0-1.9-0.9-1.9-1.9c0-0.1,0-0.3,0-0.4l-0.4-0.2L13.5,17c0,0.1,0,0.3,0,0.4c0,1.5,1.2,2.7,2.7,2.7c1.5,0,2.7-1.2,2.7-2.7
			C18.8,16,17.8,14.9,16.5,14.7z"/>
	</g>
</g>
</svg>
