<?xml version="1.0" encoding="utf-8"?>
<!-- Generator: Adobe Illustrator 24.0.2, SVG Export Plug-In . SVG Version: 6.00 Build 0)  -->
<svg version="1.1" id="ic_send" xmlns="http://www.w3.org/2000/svg" xmlns:xlink="http://www.w3.org/1999/xlink" x="0px" y="0px"
	 viewBox="0 0 26 26" style="enable-background:new 0 0 26 26;" xml:space="preserve">
<style type="text/css">
	.st0{fill:#C49A6C;}
	.st1{fill:#A97C50;}
	.st2{fill:#8B5E3C;}
	.st3{fill:#FF9811;}
	.st4{fill:#FF0000;}
</style>
<path class="st0" d="M20.6,18.5c0,4.8-4.4,5.4-9.2,5.4s-9.2-0.6-9.2-5.4c0-4,3.3-8.8,7-10.2h4.8C17.7,9.8,20.6,14.6,20.6,18.5z"/>
<path class="st1" d="M16.5,5.2c0.3-0.3,0.3-0.8,0.1-1.1c-0.2-0.4-0.6-0.6-1-0.6H7.9c-0.4,0-0.8,0.2-1,0.6C6.7,4.4,6.8,4.9,7.1,5.2
	l2.2,3.1h4.8L16.5,5.2z"/>
<path class="st1" d="M12.1,23.9c-0.2,0-0.5,0-0.7,0c-4.8,0-9.2-0.6-9.2-5.4c0-4,3.3-8.8,7-10.2h1.6c-3.7,1.5-7,6.2-7,10.2
	C3.9,23,7.7,23.8,12.1,23.9z"/>
<path class="st2" d="M10.9,8.3H9.3L7.1,5.2C6.8,4.9,6.7,4.4,6.9,4.1c0.2-0.4,0.6-0.6,1-0.6h1.6c-0.4,0-0.8,0.2-1,0.6
	C8.3,4.4,8.4,4.9,8.7,5.2L10.9,8.3z"/>
<path class="st3" d="M16.3,16.3c0,2.7-2.2,4.8-4.8,4.8S6.6,19,6.6,16.3s2.2-4.8,4.8-4.8S16.3,13.7,16.3,16.3z"/>
<path class="st4" d="M19.5,2.6l1.1,1.1l-2.8,2.8c-0.3,0.3-0.3,0.8,0,1.2l1.1,1.1c0.3,0.3,0.8,0.3,1.2,0L22.9,6l1.1,1.1l0.4-4.9
	L19.5,2.6z"/>
<path d="M11.4,11c-3,0-5.4,2.4-5.4,5.4s2.4,5.4,5.4,5.4s5.4-2.4,5.4-5.4C16.8,13.4,14.4,11,11.4,11z M11.4,20.6
	c-2.4,0-4.3-1.9-4.3-4.3S9,12,11.4,12s4.3,1.9,4.3,4.3C15.7,18.7,13.8,20.6,11.4,20.6z"/>
<path d="M14.9,8.1l2-2.6c0.4-0.5,0.4-1.1,0.2-1.7c-0.3-0.6-0.8-0.9-1.5-0.9H7.9c-0.6,0-1.2,0.4-1.5,1C6.1,4.4,6.3,5.1,6.7,5.6
	l1.7,2.5c-3.6,1.8-6.7,6.5-6.7,10.4c0,5.9,6.5,5.9,9.7,5.9s9.7,0,9.7-5.9C21.1,14.5,18.3,9.9,14.9,8.1z M7.4,4.3
	C7.5,4.1,7.7,4,7.9,4h7.8c0.2,0,0.4,0.1,0.5,0.3c0.1,0.2,0.1,0.4-0.1,0.6l-2.3,2.9H9.5l-2-2.9C7.3,4.7,7.3,4.5,7.4,4.3L7.4,4.3z
	 M11.4,23.3c-5.2,0-8.6-0.8-8.6-4.8c0-3.7,3.1-8.3,6.6-9.7H14c3.2,1.5,6,6,6,9.7C20,22.5,16.6,23.3,11.4,23.3z"/>
<path d="M25,1.6l-0.5,6.7l-1.6-1.6l-2.2,2.2c-0.7,0.7-1.8,0.7-2.5,0l-0.5-0.5c-0.7-0.7-0.7-1.8,0-2.5l2.2-2.2l-1.6-1.6L25,1.6z
	 M23.6,5.9l0.2-3.2L20.7,3l0.7,0.7l-2.8,2.8c-0.3,0.3-0.3,0.9,0,1.2l0.3,0.3c0.3,0.3,0.9,0.3,1.2,0l2.8-2.8L23.6,5.9z"/>
<g>
	<path d="M13,16.5c-0.3,0-0.5,0.1-0.7,0.3c0,0-0.1,0-0.1,0l-0.5-0.3c0,0-0.1-0.1-0.1-0.1l0-0.6c0,0,0-0.1,0.1-0.1
		c0.4-0.1,0.8-0.5,0.8-1c0-0.5-0.4-1-1-1c-0.6,0-1,0.4-1,1c0,0.5,0.3,0.9,0.8,1c0,0,0.1,0.1,0.1,0.1l0,0.6c0,0,0,0.1-0.1,0.1
		l-0.5,0.3c0,0-0.1,0-0.1,0c-0.2-0.2-0.4-0.3-0.7-0.3c-0.6,0-1,0.5-1,1c0,0.6,0.5,1,1,1c0.6,0,1-0.5,1-1c0-0.1,0-0.2,0-0.3
		c0,0,0-0.1,0-0.1l0.5-0.3c0,0,0.1,0,0.1,0l0.5,0.3c0,0,0.1,0.1,0,0.1c0,0.1,0,0.2,0,0.3c0,0.6,0.5,1,1,1c0.6,0,1-0.4,1-1
		C14,16.9,13.5,16.5,13,16.5z"/>
	<path d="M11,18.1c-0.2,0.4-0.7,0.7-1.2,0.7c-0.7,0-1.3-0.6-1.3-1.3s0.6-1.3,1.3-1.3c0.3,0,0.6,0.1,0.9,0.3l0.2-0.1l0-0.3
		c-0.3-0.2-0.7-0.4-1.1-0.4c-1,0-1.9,0.8-1.9,1.9c0,1,0.8,1.9,1.9,1.9c0.6,0,1.1-0.3,1.4-0.7C11.2,18.5,11.1,18.3,11,18.1z"/>
	<path d="M11.4,12.9c-1,0-1.9,0.8-1.9,1.9c0,0.2,0,0.5,0.1,0.7c0.1,0,0.1,0,0.2,0c0.2,0,0.3,0,0.5,0.1c-0.1-0.2-0.2-0.5-0.2-0.7
		c0-0.7,0.6-1.3,1.3-1.3c0.7,0,1.3,0.6,1.3,1.3c0,0.6-0.4,1.1-0.9,1.3l0,0.3l0.3,0.1c0.7-0.3,1.2-0.9,1.2-1.7
		C13.3,13.7,12.4,12.9,11.4,12.9z"/>
	<path d="M13.2,15.6c-0.1,0.2-0.2,0.4-0.4,0.5c0,0,0.1,0,0.1,0c0.7,0,1.3,0.6,1.3,1.3s-0.6,1.3-1.3,1.3c-0.7,0-1.3-0.6-1.3-1.3
		c0-0.1,0-0.2,0-0.3l-0.3-0.1l-0.3,0.1c0,0.1,0,0.2,0,0.3c0,1,0.8,1.9,1.9,1.9c1,0,1.9-0.8,1.9-1.9C14.8,16.5,14.1,15.7,13.2,15.6z"
		/>
</g>
</svg>
