<?xml version="1.0" encoding="utf-8"?>
<!-- Generator: Adobe Illustrator 24.0.1, SVG Export Plug-In . SVG Version: 6.00 Build 0)  -->
<svg version="1.1" id="Capa_1" xmlns="http://www.w3.org/2000/svg" xmlns:xlink="http://www.w3.org/1999/xlink" x="0px" y="0px"
	 viewBox="0 0 28 24" style="enable-background:new 0 0 28 24;" xml:space="preserve">
<style type="text/css">
	.st0{fill:#FFFFFF;}
</style>
<title>Sub Menu Locked</title>
<desc>Created with Sketch.</desc>
<g id="Sub-Menu-Locked">
	<g id="ic-check-locked-off" transform="translate(9.000000, 2.000000)">
		<path id="Path_18909" class="st0" d="M4,8l0-1.9c0-1.3,0.5-2.5,1.5-3.3c1.4-1.1,3.3-1.1,4.7-0.2c0.4,0.3,0.9,0.2,1.3-0.1l0,0
			c0.4-0.4,0.4-1.2-0.1-1.5c-2-1.4-4.7-1.4-6.9,0.1C2.9,2.3,2,4.2,2,6.2L2,8h0c-1.1,0-2,0.9-2,2v8c0,1.1,0.9,2,2,2h12
			c1.1,0,2-0.9,2-2v-8c0-1.1-0.9-2-2-2H4z M12.6,18H3.4C2.6,18,2,17.4,2,16.6v-5.1C2,10.6,2.6,10,3.4,10h9.1c0.8,0,1.4,0.6,1.4,1.4
			v5.1C14,17.4,13.4,18,12.6,18z"/>
	</g>
</g>
</svg>
