<?xml version="1.0" encoding="utf-8"?>
<!-- Generator: Adobe Illustrator 24.0.2, SVG Export Plug-In . SVG Version: 6.00 Build 0)  -->
<svg version="1.1" id="Capa_1" xmlns="http://www.w3.org/2000/svg" xmlns:xlink="http://www.w3.org/1999/xlink" x="0px" y="0px"
	 viewBox="0 0 28 24" style="enable-background:new 0 0 28 24;" xml:space="preserve">
<style type="text/css">
	.st0{fill:#FFFFFF;}
	.st1{fill:#777777;}
	.st2{fill:#006DF0;}
	.st3{fill:#7CBAF7;}
	.st4{fill:#08539E;}
	.st5{fill:#FBA615;}
	.st6{fill:#F88604;}
	.st7{fill:#786E79;}
	.st8{fill:#453E43;}
</style>
<title>Sub Menu Locked Copy</title>
<desc>Created with Sketch.</desc>
<g>
	<path class="st0" d="M18.1,8.8h-1.4V7c0-3.6-2.9-6.5-6.5-6.5S3.7,3.4,3.7,7v1.9H2.3C2,8.8,1.8,9,1.8,9.3v11.6c0,1,0.8,1.9,1.9,1.9
		h13c1,0,1.9-0.8,1.9-1.9V9.3C18.5,9,18.3,8.8,18.1,8.8z M13.9,8.8H6.4V7c0-2.1,1.7-3.7,3.7-3.7s3.7,1.7,3.7,3.7V8.8z"/>
	<path class="st1" d="M4.6,7c0-3.1,2.5-5.6,5.6-5.6s5.6,2.5,5.6,5.6v1.9h-0.9V7c0-2.6-2.1-4.7-4.7-4.7S5.5,4.4,5.5,7v1.9H4.6V7z"/>
	<path class="st2" d="M17.6,20.9c0,0.5-0.4,0.9-0.9,0.9h-13c-0.5,0-0.9-0.4-0.9-0.9V9.7h14.9V20.9z"/>
	<path class="st3" d="M4.6,20.9V9.7H2.7v11.2c0,0.5,0.4,0.9,0.9,0.9h1.6C4.9,21.8,4.6,21.4,4.6,20.9z"/>
	<path class="st4" d="M15.8,9.7v11.2c0,0.5-0.3,0.9-0.7,0.9h1.6c0.5,0,0.9-0.4,0.9-0.9V9.7L15.8,9.7L15.8,9.7z"/>
	<path class="st0" d="M12.4,15.8c-0.4,0-0.8,0.2-1.1,0.4c0,0.1-0.1,0.1-0.2,0l-0.8-0.4c-0.1,0-0.1-0.1-0.1-0.1l0-0.9
		c0-0.1,0-0.1,0.1-0.1c0.7-0.2,1.1-0.8,1.1-1.5c0-0.8-0.7-1.5-1.5-1.5c-0.8,0-1.5,0.7-1.5,1.5c0,0.7,0.5,1.3,1.1,1.5
		c0.1,0,0.1,0.1,0.1,0.1l0,0.9c0,0.1,0,0.1-0.1,0.1L9,16.3c-0.1,0-0.1,0-0.2,0c-0.3-0.3-0.7-0.5-1.1-0.5c-0.8,0-1.5,0.7-1.5,1.5
		c0,0.8,0.7,1.5,1.5,1.5c0.8,0,1.5-0.7,1.5-1.5c0-0.1,0-0.3-0.1-0.4c0-0.1,0-0.1,0.1-0.2l0.8-0.4c0.1,0,0.1,0,0.2,0l0.7,0.4
		c0.1,0,0.1,0.1,0.1,0.2c0,0.1-0.1,0.3-0.1,0.4c0,0.8,0.7,1.5,1.5,1.5c0.8,0,1.5-0.7,1.5-1.5C13.9,16.5,13.3,15.9,12.4,15.8z"/>
	<path class="st0" d="M9.5,18.3c-0.3,0.6-1,1.1-1.8,1.1c-1.1,0-2-0.9-2-2c0-1.1,0.9-2,2-2c0.5,0,1,0.2,1.3,0.5l0.4-0.2l0-0.5
		c-0.5-0.4-1.1-0.6-1.7-0.6c-1.5,0-2.8,1.2-2.8,2.8s1.2,2.8,2.8,2.8c0.9,0,1.7-0.4,2.2-1C9.7,18.8,9.6,18.6,9.5,18.3z"/>
	<path class="st0" d="M10.1,10.5c-1.5,0-2.8,1.2-2.8,2.8c0,0.4,0.1,0.7,0.2,1c0.1,0,0.2,0,0.2,0c0.2,0,0.5,0,0.7,0.1
		c-0.2-0.3-0.3-0.7-0.3-1.1c0-1.1,0.9-2,2-2c1.1,0,2,0.9,2,2c0,0.9-0.6,1.6-1.4,1.9l0,0.5l0.4,0.2c1-0.4,1.8-1.4,1.8-2.6
		C12.8,11.7,11.6,10.5,10.1,10.5z"/>
	<path class="st0" d="M12.8,14.6c-0.1,0.3-0.3,0.5-0.5,0.8c0.1,0,0.1,0,0.2,0c1.1,0,2,0.9,2,2c0,1.1-0.9,2-2,2c-1.1,0-2-0.9-2-2
		c0-0.1,0-0.3,0-0.4l-0.4-0.2l-0.4,0.2c0,0.1,0,0.3,0,0.4c0,1.5,1.2,2.8,2.8,2.8c1.5,0,2.8-1.2,2.8-2.8
		C15.2,15.9,14.1,14.8,12.8,14.6z"/>
</g>
<g>
	<g>
		<path class="st5" d="M8.6,22.9L8.6,22.9c-0.5-0.5-0.5-1-0.1-1.4L22.7,7.4l1.4,1.4L9.9,22.9C9.5,23.3,9,23.3,8.6,22.9L8.6,22.9z"/>
	</g>
	<path class="st6" d="M23.5,8.1L9.6,22c-0.4,0.4-0.9,0.4-1.3,0l-0.1-0.1c-0.1,0.3,0,0.7,0.2,0.9l0.1,0.1c0.4,0.4,0.9,0.4,1.3,0
		L24.1,8.8L23.5,8.1z"/>
	<g>
		<path class="st7" d="M22.6,8.8c1.7,1.7,2.9,3.9,3.4,6.1c0,0.1,0.2,0.1,0.2,0c0.6-2.6-0.1-5.5-2.2-7.5s-4.9-2.8-7.5-2.2
			c-0.1,0-0.1,0.2,0,0.2C18.8,5.9,20.9,7.1,22.6,8.8L22.6,8.8z"/>
	</g>
	<g>
		<path class="st8" d="M24.1,7.4c-1.7-1.7-4-2.5-6.2-2.4c1.9,0.1,3.8,0.9,5.2,2.4c1.6,1.6,2.3,3.6,2.4,5.6c0.3,0.6,0.5,1.3,0.6,1.9
			c0,0.1,0.2,0.1,0.2,0C26.8,12.3,26.1,9.4,24.1,7.4L24.1,7.4z"/>
	</g>
	<g>
		<path class="st7" d="M22.6,10.5l-1.7-1.7c-0.1-0.1-0.1-0.4,0-0.5l2.2-2.2c0.1-0.1,0.4-0.1,0.5,0l1.7,1.7c0.1,0.1,0.1,0.4,0,0.5
			l-2.2,2.2C23,10.7,22.8,10.7,22.6,10.5z"/>
	</g>
	<g>
		<path class="st8" d="M24.9,7.4l-1.8,1.8c-0.2,0.2-0.4,0.2-0.6,0l-1.3-1.3l-0.4,0.4c-0.1,0.1-0.1,0.4,0,0.5l1.7,1.7
			c0.1,0.1,0.4,0.1,0.5,0l2.2-2.2c0.1-0.1,0.1-0.4,0-0.5L24.9,7.4z"/>
	</g>
	<g>
		<path class="st0" d="M10.7,19.7L10.7,19.7l-2,2c-0.1,0.1-0.2,0.3-0.2,0.5c0,0.2,0.1,0.3,0.2,0.5l0.1,0.1c0.1,0.1,0.3,0.2,0.5,0.2
			c0.2,0,0.3-0.1,0.5-0.2l1-1v0L21.4,11l0,0.8L10.7,22.5l-0.6,0.6c-0.2,0.2-0.5,0.3-0.8,0.3c-0.3,0-0.6-0.1-0.8-0.3L8.3,23
			C8.1,22.8,8,22.5,8,22.2c0-0.3,0.1-0.6,0.3-0.8l1.7-1.7l0.6-0.6l0,0l8-8c0.1,0,0.2,0,0.2,0c0,0,0.1,0,0.1,0l0,0.4L10.7,19.7z"/>
		<path class="st0" d="M26.3,10.4c0-0.1-0.2-0.2-0.3-0.2c-0.1,0-0.2,0.2-0.2,0.3c0.4,1.1,0.5,2.3,0.3,3.5C25.7,12.6,25,11.3,24,10
			l1-1c0.1,0.2,0.2,0.3,0.3,0.5c0,0.1,0.1,0.1,0.2,0.1c0,0,0.1,0,0.1,0c0.1-0.1,0.2-0.2,0.1-0.4c-0.1-0.2-0.2-0.4-0.4-0.6l0.1-0.1
			c0.1-0.1,0.2-0.3,0.2-0.5c0-0.2-0.1-0.3-0.2-0.5l-1.7-1.7c-0.1-0.1-0.3-0.2-0.5-0.2c-0.2,0-0.3,0.1-0.5,0.2L22.8,6
			c-1.9-1.2-4.2-1.6-6.3-1.1c-0.2,0-0.3,0.2-0.3,0.4c0,0.2,0.1,0.3,0.3,0.4c1.7,0.4,3.2,1.1,4.5,2.1l-0.3,0.3
			c-0.2,0.2-0.2,0.6,0,0.9l-1.4,1.4L19,10.7l-0.2,0.2l-0.4,0.4v0c0.2,0,0.3,0.2,0.3,0.3c0,0,0.1,0,0.1,0l0,0l0.6-0.6l0,0l0.2-0.2
			c0,0,0,0,0,0l1.3-1.3l1,1l-1,1c0.1,0.1,0.2,0.3,0.3,0.5c0,0,0,0,0,0l0,0l0.4-0.4l0.3-0.3l0.4-0.4c0.1,0.1,0.3,0.2,0.4,0.2
			c0.2,0,0.3-0.1,0.5-0.2l0.3-0.3c1,1.4,1.7,2.9,2.1,4.5c0,0.2,0.2,0.3,0.4,0.3c0.1,0,0.2,0,0.2-0.1c0.1-0.1,0.1-0.1,0.1-0.2
			C26.9,13.5,26.8,11.9,26.3,10.4z M17.3,5.3c1.8-0.2,3.6,0.1,5.1,1.1l-1,1C20.2,6.5,18.8,5.8,17.3,5.3z M23,10.3c0,0-0.1,0-0.1,0
			l-0.2-0.2l-1.6-1.6c0,0,0-0.1,0-0.1c0,0,0,0,0-0.1L23,6.5l0.3-0.3c0,0,0,0,0.1,0c0,0,0,0,0.1,0L25.1,8c0,0,0,0.1,0,0.1
			c0,0,0,0,0,0.1L23,10.3z"/>
	</g>
</g>
</svg>
