<?xml version="1.0" encoding="utf-8"?>
<!-- Generator: Adobe Illustrator 24.0.2, SVG Export Plug-In . SVG Version: 6.00 Build 0)  -->
<svg version="1.1" id="ic-transaction-staked" xmlns="http://www.w3.org/2000/svg" xmlns:xlink="http://www.w3.org/1999/xlink"
	 x="0px" y="0px" viewBox="0 0 24 24" style="enable-background:new 0 0 24 24;" xml:space="preserve">
<style type="text/css">
	.st0{fill:#36AAEA;}
	.st1{fill:#0087E2;}
	.st2{fill:#84CEEF;}
	.st3{fill:#A4C2F7;}
	.st4{fill:url(#SVGID_1_);}
	.st5{fill:#FFFFFF;}
	.st6{fill:#428DFF;}
</style>
<path class="st0" d="M9.4,14.8v8.3l-7.2-4v-8.3"/>
<path class="st1" d="M9.4,14.8v8.3l7.2-4v-8.3"/>
<path class="st2" d="M2.2,10.6l7.2-4l7.2,4l-7.2,4L2.2,10.6z"/>
<path d="M11.6,16.5c-0.2,0-0.3-0.1-0.4-0.2l-0.1-0.1c0,0,0-0.1-0.1-0.1V16v-0.1v-0.1v-0.1c0,0,0-0.1,0.1-0.1c0,0,0-0.1,0.1-0.1
	c0.1-0.1,0.3-0.2,0.4-0.2s0.3,0.1,0.4,0.2l0.1,0.1c0,0,0,0.1,0.1,0.1v0.1v0.1V16v0.1c0,0,0,0.1-0.1,0.1c0,0,0,0.1-0.1,0.1
	C11.9,16.4,11.8,16.5,11.6,16.5z"/>
<path d="M16.8,10.1l-7.2-4C9.4,6,9.2,6,9,6.1l-7.2,4c-0.2,0.1-0.3,0.4-0.3,0.7v8.3c0,0.2,0.1,0.4,0.3,0.5l7.2,4c0.3,0.2,0.5,0,0.5,0
	l7.2-4c0.2-0.1,0.3-0.3,0.3-0.5v-8.3C17.2,10.4,17,10.2,16.8,10.1z M9.4,7.3l6,3.3l-6,3.3l-6-3.3L9.4,7.3z M2.8,11.6l6,3.3v7.2
	l-6-3.3C2.8,18.8,2.8,11.6,2.8,11.6z M12.2,20.9v-2.7c0-0.3-0.3-0.6-0.6-0.6S11,17.9,11,18.2v3.4l-1,0.5v-7.2l6-3.3v7.2L12.2,20.9z"
	/>
<path class="st1" d="M20,5.3v1.3h-3.1c-0.4,0-0.6,0.3-0.6,0.6v1.2c0,0.4,0.3,0.6,0.6,0.6H20v1.3l2.9-2.5L20,5.3z"/>
<path d="M23.6,7.9l-4,3.4V9.5h-2.4c-0.8,0-1.4-0.6-1.4-1.4V7.6c0-0.8,0.6-1.4,1.4-1.4h2.4V4.4L23.6,7.9z M20.4,9.5l1.9-1.6l-1.9-1.6
	V7h-3.1c-0.4,0-0.7,0.3-0.7,0.7V8c0,0.4,0.3,0.7,0.7,0.7h3.1V9.5z"/>
<path class="st1" d="M14.3,6.3V5h3.1C17.8,5,18,4.7,18,4.4V3.2c0-0.4-0.3-0.6-0.6-0.6h-3.1V1.3l-2.9,2.5L14.3,6.3z"/>
<path d="M10.7,3.8l4-3.4v1.7h2.4c0.8,0,1.4,0.6,1.4,1.4v0.6c0,0.8-0.6,1.4-1.4,1.4h-2.4v1.7L10.7,3.8z M13.9,2.2L12,3.8l1.9,1.6V4.6
	H17c0.4,0,0.7-0.3,0.7-0.7V3.6c0-0.4-0.3-0.7-0.7-0.7h-3.1V2.2z"/>
<g>
	<circle class="st3" cx="17.8" cy="18" r="4.6"/>
	
		<linearGradient id="SVGID_1_" gradientUnits="userSpaceOnUse" x1="-738.5893" y1="62.7263" x2="-738.5756" y2="62.7393" gradientTransform="matrix(461.6393 0 0 486.8196 340976.3125 -30521.5703)">
		<stop  offset="0" style="stop-color:#D4E1F4"/>
		<stop  offset="0.1717" style="stop-color:#D4E1F4"/>
		<stop  offset="0.2" style="stop-color:#D4E1F4"/>
		<stop  offset="0.2001" style="stop-color:#DAE4F4"/>
		<stop  offset="0.2007" style="stop-color:#EBEBF4"/>
		<stop  offset="0.2014" style="stop-color:#F6F1F4"/>
		<stop  offset="0.2023" style="stop-color:#FDF4F4"/>
		<stop  offset="0.205" style="stop-color:#FFF5F4"/>
		<stop  offset="0.2522" style="stop-color:#FFF5F4"/>
		<stop  offset="0.26" style="stop-color:#FFF5F4"/>
		<stop  offset="0.26" style="stop-color:#D4E1F4"/>
		<stop  offset="0.3974" style="stop-color:#D4E1F4"/>
		<stop  offset="0.42" style="stop-color:#D4E1F4"/>
		<stop  offset="0.4201" style="stop-color:#DAE4F4"/>
		<stop  offset="0.4207" style="stop-color:#EBEBF4"/>
		<stop  offset="0.4214" style="stop-color:#F6F1F4"/>
		<stop  offset="0.4223" style="stop-color:#FDF4F4"/>
		<stop  offset="0.425" style="stop-color:#FFF5F4"/>
		<stop  offset="0.4894" style="stop-color:#FFF5F4"/>
		<stop  offset="0.5" style="stop-color:#FFF5F4"/>
		<stop  offset="0.5" style="stop-color:#F9F2F4"/>
		<stop  offset="0.5001" style="stop-color:#E8EBF4"/>
		<stop  offset="0.5003" style="stop-color:#DDE5F4"/>
		<stop  offset="0.5005" style="stop-color:#D6E2F4"/>
		<stop  offset="0.501" style="stop-color:#D4E1F4"/>
		<stop  offset="0.7062" style="stop-color:#D4E1F4"/>
		<stop  offset="0.74" style="stop-color:#D4E1F4"/>
		<stop  offset="0.741" style="stop-color:#FFF5F4"/>
		<stop  offset="0.8346" style="stop-color:#FFF5F4"/>
		<stop  offset="0.85" style="stop-color:#FFF5F4"/>
		<stop  offset="0.851" style="stop-color:#D4E1F4"/>
	</linearGradient>
	<ellipse class="st4" cx="17.6" cy="18" rx="4.3" ry="4.6"/>
	<path class="st5" d="M17.8,22.6c0,0,0.1,0,0.1,0c-2.3-0.1-4.2-2.1-4.2-4.6s1.9-4.5,4.2-4.6c0,0-0.1,0-0.1,0c-2.5,0-4.6,2.1-4.6,4.6
		S15.3,22.6,17.8,22.6z"/>
	<circle class="st3" cx="17.8" cy="18" r="0.5"/>
	<g>
		<path class="st6" d="M17.8,22.7c-2.6,0-4.7-2.1-4.7-4.7s2.1-4.7,4.7-4.7s4.7,2.1,4.7,4.7C22.6,20.6,20.5,22.7,17.8,22.7z
			 M17.8,13.6c-2.4,0-4.4,2-4.4,4.4s2,4.4,4.4,4.4s4.4-2,4.4-4.4C22.3,15.5,20.3,13.6,17.8,13.6z"/>
		<path class="st6" d="M17.4,18.1h-1.3c-0.1,0-0.2-0.1-0.2-0.2c0-0.1,0.1-0.2,0.2-0.2h1.3c0.1,0,0.2,0.1,0.2,0.2
			S17.4,18.1,17.4,18.1z"/>
		<path class="st6" d="M17.8,17.7c0,0-0.1,0-0.1,0s0-0.1,0-0.1v-1.7c0-0.1,0.1-0.2,0.2-0.2s0.2,0.1,0.2,0.2v1.7c0,0,0,0.1,0,0.1
			C17.9,17.6,17.9,17.7,17.8,17.7L17.8,17.7z"/>
		<path class="st6" d="M17.8,18.6c-0.3,0-0.6-0.3-0.6-0.6c0-0.3,0.3-0.6,0.6-0.6c0.3,0,0.6,0.3,0.6,0.6
			C18.5,18.3,18.2,18.6,17.8,18.6z M17.8,17.7c-0.2,0-0.3,0.1-0.3,0.3s0.1,0.3,0.3,0.3s0.3-0.1,0.3-0.3C18.1,17.8,18,17.7,17.8,17.7
			L17.8,17.7z"/>
		<path class="st6" d="M17.8,14.8c0,0-0.1,0-0.1,0s0-0.1,0-0.1v-0.2c0-0.1,0.1-0.2,0.2-0.2s0.2,0.1,0.2,0.2v0.2c0,0,0,0.1,0,0.1
			C17.9,14.8,17.9,14.8,17.8,14.8z"/>
		<path class="st6" d="M17.8,21.6c0,0-0.1,0-0.1,0s0-0.1,0-0.1v-0.2c0-0.1,0.1-0.2,0.2-0.2s0.2,0.1,0.2,0.2v0.2c0,0,0,0.1,0,0.1
			C17.9,21.6,17.9,21.6,17.8,21.6L17.8,21.6z"/>
		<path class="st6" d="M21.3,18.1h-0.2c-0.1,0-0.2-0.1-0.2-0.2c0-0.1,0.1-0.2,0.2-0.2h0.2c0.1,0,0.2,0.1,0.2,0.2
			S21.4,18.1,21.3,18.1z"/>
		<path class="st6" d="M14.5,18.1h-0.2c-0.1,0-0.2-0.1-0.2-0.2c0-0.1,0.1-0.2,0.2-0.2h0.2c0.1,0,0.2,0.1,0.2,0.2
			S14.6,18.1,14.5,18.1z"/>
		<path class="st6" d="M20.2,15.8c-0.1,0-0.1,0-0.1-0.1c0-0.1,0-0.1,0-0.2l0.1-0.1c0,0,0.1-0.1,0.2,0c0.1,0,0.1,0.1,0.1,0.1
			c0,0.1,0,0.1,0,0.2l-0.1,0.1C20.3,15.8,20.2,15.8,20.2,15.8z"/>
		<path class="st6" d="M15.4,20.6c-0.1,0-0.1,0-0.1-0.1c0-0.1,0-0.1,0-0.2l0.1-0.1c0.1-0.1,0.2-0.1,0.2,0c0.1,0.1,0.1,0.2,0,0.2
			l-0.1,0.1C15.5,20.6,15.4,20.6,15.4,20.6L15.4,20.6z"/>
		<path class="st6" d="M20.3,20.6c0,0-0.1,0-0.1,0l-0.1-0.1c-0.1-0.1-0.1-0.2,0-0.2c0.1-0.1,0.2-0.1,0.2,0l0.1,0.1
			c0,0,0.1,0.1,0,0.2C20.4,20.6,20.4,20.6,20.3,20.6L20.3,20.6z"/>
		<path class="st6" d="M15.5,15.8c0,0-0.1,0-0.1,0l-0.1-0.1c-0.1-0.1-0.1-0.2,0-0.2c0.1-0.1,0.2-0.1,0.2,0l0.1,0.1
			c0,0,0.1,0.1,0,0.2S15.5,15.8,15.5,15.8L15.5,15.8z"/>
	</g>
</g>
</svg>
