<?xml version="1.0" encoding="utf-8"?>
<!-- Generator: Adobe Illustrator 24.0.2, SVG Export Plug-In . SVG Version: 6.00 Build 0)  -->
<svg version="1.1" id="ic-transaction-staked" xmlns="http://www.w3.org/2000/svg" xmlns:xlink="http://www.w3.org/1999/xlink"
	 x="0px" y="0px" viewBox="0 0 24 24" style="enable-background:new 0 0 24 24;" xml:space="preserve">
<style type="text/css">
	.st0{fill:#666666;}
	.st1{fill:#A5A5A5;}
</style>
<path class="st0" d="M10.8,14.6v8.3l-7.2-4v-8.3"/>
<path class="st0" d="M10.8,14.6v8.3l7.2-4v-8.3"/>
<path class="st0" d="M3.6,10.4l7.2-4l7.2,4l-7.2,4L3.6,10.4z"/>
<path d="M18.2,9.9l-7.2-4c-0.2-0.1-0.4-0.1-0.6,0l-7.2,4c-0.2,0.1-0.3,0.4-0.3,0.7V19c0,0.2,0.1,0.4,0.3,0.5c0,0,7.2,4,7.2,4
	c0.3,0.2,0.5,0,0.5,0c0,0,7.2-4,7.2-4c0.2-0.1,0.3-0.3,0.3-0.5v-8.3C18.6,10.2,18.4,10,18.2,9.9z M10.8,7.1l6,3.3l-6,3.3l-6-3.3
	L10.8,7.1z M4.2,11.4l6,3.3v7.2l-6-3.3V11.4z M13.6,20.7V18c0-0.3-0.3-0.6-0.6-0.6s-0.6,0.3-0.6,0.6v3.4l-1.1,0.6v-7.2l6-3.3v7.2
	L13.6,20.7z"/>
<path d="M22.3,8.3l0-0.1c-0.1-1.8-1-2.9-1.7-3.9c-0.7-0.9-1.3-1.7-1.3-2.9c0-0.1-0.1-0.2-0.1-0.2c-0.1,0-0.2,0-0.3,0
	c-1.1,0.8-2,2.1-2.3,3.4c-0.2,0.9-0.3,1.9-0.3,2.5c-1-0.2-1.2-1.7-1.2-1.8c0-0.1-0.1-0.1-0.1-0.2c-0.1,0-0.2,0-0.2,0
	c-0.1,0-1.3,0.7-1.4,3.2c0,0.1,0,0.2,0,0.3c0,2.5,2,4.5,4.5,4.5s4.5-2,4.5-4.5C22.3,8.5,22.3,8.4,22.3,8.3z"/>
<path class="st0" d="M16.3,11.1C16.3,11,16.3,11,16.3,11.1c0-0.5,0.1-0.7,0.2-0.9c0.1,0.3,0.4,0.6,0.8,0.6c0.1,0,0.2-0.1,0.2-0.2
	c0-0.4,0-0.8,0.1-1.1c0.1-0.3,0.3-0.7,0.5-1c0.1,0.4,0.3,0.7,0.5,0.9c0.3,0.4,0.6,0.8,0.6,1.6c0,0,0,0.1,0,0.1
	c0,0.9-0.7,1.6-1.5,1.6S16.3,11.9,16.3,11.1z"/>
<path class="st0" d="M19.4,12.3c0.3-0.4,0.4-0.8,0.4-1.3c0-0.1,0-0.1,0-0.2c-0.1-0.8-0.4-1.3-0.7-1.8c-0.3-0.4-0.5-0.7-0.5-1.2
	c0-0.1-0.1-0.2-0.1-0.2c-0.1,0-0.2,0-0.3,0c-0.5,0.4-0.9,1-1,1.5c-0.1,0.3-0.1,0.6-0.1,0.9c-0.2-0.2-0.2-0.5-0.2-0.5
	c0-0.1-0.1-0.1-0.1-0.2c-0.1,0-0.2,0-0.2,0c-0.1,0-0.6,0.3-0.6,1.5c0,0,0,0.1,0,0.1c0,0.5,0.2,0.9,0.4,1.3c-1.4-0.6-2.4-2-2.4-3.7
	c0-0.1,0-0.1,0-0.2c0-1.5,0.5-2.2,0.8-2.6c0.2,0.8,0.8,1.8,1.9,1.8c0.1,0,0.2-0.1,0.2-0.2c0-0.8,0-1.8,0.2-2.7
	c0.3-1,0.9-2.1,1.8-2.8C19,3,19.5,3.8,20.2,4.6c0.7,1,1.5,2,1.6,3.6l0,0.1c0,0.1,0,0.2,0,0.3C21.8,10.3,20.8,11.7,19.4,12.3z"/>
<path class="st1" d="M14.7,7.1c0.2,0.6,0.8,1.5,1.9,1.5c0.1,0,0.2-0.1,0.2-0.2c0-0.7,0-1.5,0.2-2.2c0.3-0.8,0.9-1.7,1.8-2.3
	c0.1,0.9,0.7,1.5,1.3,2.2c0.7,0.8,1.5,1.6,1.6,2.9c0-0.1,0-0.2,0-0.3c0-0.1,0-0.2,0-0.3l0-0.1c-0.1-1.6-0.9-2.6-1.6-3.6
	C19.5,3.8,19,3,18.8,1.9C18,2.7,17.3,3.7,17,4.7c-0.2,0.9-0.2,1.8-0.2,2.7c0,0.1-0.1,0.2-0.2,0.2c-1.1,0-1.7-1-1.9-1.8
	c-0.3,0.3-0.8,1.1-0.8,2.6c0,0.1,0,0.2,0,0.2c0,0.1,0,0.2,0,0.3C13.9,7.9,14.4,7.4,14.7,7.1z"/>
</svg>
