<?xml version="1.0" encoding="utf-8"?>
<!-- Generator: Adobe Illustrator 24.0.2, SVG Export Plug-In . SVG Version: 6.00 Build 0)  -->
<svg version="1.1" id="ic-transaction-staked" xmlns="http://www.w3.org/2000/svg" xmlns:xlink="http://www.w3.org/1999/xlink"
	 x="0px" y="0px" viewBox="0 0 24 24" style="enable-background:new 0 0 24 24;" xml:space="preserve">
<style type="text/css">
	.st0{fill:#C1BFBF;}
</style>
<title>contract-icon-reward</title>
<g>
	<path class="st0" d="M17.3,2.7L23,8.5l-2.7,2.9c0,0-0.4,1.5-0.5,1.8S19.5,14,19.5,14s-0.1,0.7-0.1,0.8c0.1,0.1,0.4,1.2,0.4,1.2
		s-0.8,0.8-0.9,0.8c-0.1,0-0.9,0.2-0.9,0.2l-0.3,1.2l-1.2,0.6h-0.3l-0.6,1.4l-1.1,0.4c0,0-0.9-0.2-1-0.2S13,20,13,20l-0.9,1.5
		c0,0-0.9,0.1-1.1,0.1s-1.2-0.7-1.2-0.8s-0.1-0.6-0.1-0.6s-1.1,0.4-1.1,0.4s-1.1-0.7-1.1-0.8s-0.3-1.2-0.3-1.2L5.8,18l-0.5-1.3
		l-1.7-1.1L4.1,14l-0.2-0.9l-0.2-1.4l-0.8-1.1L1.2,8.9l5.5-5.7l2.4,2.4l3.1-0.1l2.7-0.1L17.3,2.7z"/>
	<path d="M0.6,8.6c0.1-0.1,0.2-0.2,0.3-0.3c1.8-1.8,3.6-3.6,5.4-5.4c0.3-0.3,0.5-0.3,0.9,0c0.6,0.7,1.2,1.4,1.9,2
		c0.1,0.1,0.2,0.1,0.3,0.1c1.6,0,3.2,0,4.7,0c0.1,0,0.2-0.1,0.3-0.1c0.8-0.8,1.5-1.5,2.3-2.3c0.3-0.3,0.5-0.3,0.8,0
		c0.4,0.4,0.9,0.9,1.3,1.3c0.1,0.1,0.2,0.3,0.2,0.4c0,0.1-0.1,0.3-0.3,0.4c-0.2,0.1-0.3,0-0.5-0.1c-0.3-0.3-0.6-0.6-0.9-0.9
		c-0.1-0.1-0.1-0.1-0.2-0.2c-0.2,0.2-0.4,0.4-0.5,0.5c-0.6,0.6-1.1,1.1-1.7,1.7C14.7,5.9,14.5,6,14.3,6c-0.8,0-1.5,0-2.3,0
		c-0.6,0-1,0.2-1.4,0.6C9.7,7.7,8.8,8.8,7.9,9.9c0,0-0.1,0.1-0.1,0.2c0.6,0.3,1.2,0.3,1.8,0.1c0.4-0.1,0.7-0.4,1-0.7
		c0.2-0.3,0.5-0.6,0.7-0.9c0.3-0.3,0.5-0.3,0.8-0.1c1.4,1.3,3.4,1,4.4-0.7c0.2-0.3,0.4-0.3,0.6-0.2c0.2,0.1,0.3,0.4,0.1,0.7
		c-0.4,0.7-0.8,1.1-1.6,1.5c1.2,1.2,2.4,2.4,3.7,3.6c0.2-0.3,0.4-0.7,0.4-1.1c0-0.3,0-0.6,0-0.9c0-0.2,0.1-0.4,0.2-0.5
		c0.7-0.7,1.3-1.4,2-2c0.1-0.1,0.1-0.1,0.2-0.2c-0.4-0.4-0.8-0.8-1.2-1.2c-0.1-0.1-0.2-0.3-0.2-0.4c0-0.1,0.1-0.3,0.2-0.3
		c0.1-0.1,0.3-0.1,0.4,0.1c0.5,0.5,1.1,1,1.6,1.6c0.2,0.2,0.2,0.4-0.1,0.6c-0.5,0.5-1.1,1.1-1.6,1.6c-0.2,0.3-0.5,0.5-0.7,0.8
		c0,0.1-0.1,0.1-0.1,0.2c0,0.9-0.2,1.8-0.8,2.6c0.5,0.6,0.7,1.3,0.3,2c-0.3,0.7-0.9,1.1-1.7,1.1c0,1.2-0.9,1.9-1.9,1.9
		c0,0.8-0.4,1.5-1.1,1.8c-0.8,0.3-1.5,0.1-2.1-0.5c-0.1,0.4-0.4,0.8-0.7,1.1c-1.1,1.1-2.6,0.7-3.1-0.8c0,0,0,0,0-0.1
		c-1.3,0.6-2.6-0.3-2.6-1.7C5.6,18.7,5.1,18.2,5,17c-0.8,0-1.4-0.3-1.7-1.1c-0.3-0.7-0.2-1.4,0.4-2c-0.5-0.7-0.5-1.4-0.5-2.2
		c0-0.2,0-0.3-0.2-0.4c-0.7-0.7-1.4-1.4-2-2.1C0.8,9.1,0.7,9,0.6,8.9C0.6,8.8,0.6,8.7,0.6,8.6z M4.3,13.2c1-1.4,2.9-1,3.3,0.5
		c0.9-0.5,1.7-0.5,2.3,0.1c0.3,0.3,0.5,0.6,0.6,1c0.1,0.6,0,1.1-0.3,1.5c0.9,0.3,1.3,1,1.3,1.9c0.7,0,1.2,0.3,1.6,0.8
		c0.3,0.3,0.7,0.7,1,1c0.3,0.2,0.6,0.3,0.9,0.2c0.3-0.1,0.5-0.3,0.6-0.7c0.1-0.3,0-0.6-0.3-0.9c-0.4-0.4-0.8-0.8-1.2-1.2
		C14,17.2,14,17,14.1,16.8c0.1-0.2,0.3-0.3,0.5-0.2c0.1,0,0.2,0.1,0.3,0.2c0.4,0.4,0.7,0.8,1.1,1.1c0.2,0.1,0.4,0.3,0.6,0.3
		c0.4,0.1,0.7-0.2,0.9-0.5c0.2-0.4,0.1-0.7-0.2-1c-0.4-0.4-0.8-0.8-1.2-1.2c-0.2-0.2-0.2-0.5-0.1-0.7c0.2-0.2,0.4-0.2,0.7,0.1
		c0.4,0.4,0.8,0.8,1.1,1.1c0.4,0.4,0.9,0.4,1.3,0c0.4-0.4,0.4-0.9,0-1.3c-1.5-1.5-3-3-4.4-4.5c-0.1-0.1-0.2-0.1-0.3-0.1
		c-0.9,0.1-1.8-0.1-2.6-0.7c0,0-0.1,0-0.1-0.1c-0.2,0.3-0.4,0.5-0.6,0.8c-1.1,1.2-2.9,1.4-4.2,0.4c-0.3-0.3-0.4-0.5-0.1-0.8
		c1-1.2,2-2.4,3-3.6C9.9,6.1,10,6.1,10,6C9.8,6,9.7,6,9.6,6C8.7,6,8.9,6.1,8.3,5.4c-0.5-0.5-1-1.1-1.5-1.7c-1.7,1.7-3.4,3.3-5.1,5
		C1.7,8.9,1.8,8.9,1.9,9c0.6,0.6,1.2,1.3,1.9,1.9C3.9,11,4,11.2,4,11.5c0,0.3,0,0.6,0,0.8C4,12.6,4.1,12.9,4.3,13.2z M5.9,16.9
		c0,0.5,0.2,0.8,0.6,1c0.3,0.2,0.7,0.1,1-0.2c0.7-0.7,1.3-1.3,2-2c0.3-0.4,0.3-0.9-0.1-1.3c-0.3-0.3-0.9-0.3-1.3,0
		c-0.6,0.6-1.3,1.3-1.9,1.9C6,16.6,5.9,16.8,5.9,16.9z M6.8,14.3c0-0.5-0.2-0.8-0.5-1c-0.4-0.2-0.7-0.1-1,0.2c-0.3,0.3-0.7,0.7-1,1
		c-0.4,0.4-0.3,0.9,0,1.3c0.4,0.3,0.9,0.3,1.3,0c0.3-0.3,0.7-0.6,1-1C6.6,14.7,6.7,14.4,6.8,14.3z M7.8,18.9c0,0.5,0.2,0.8,0.6,0.9
		c0.4,0.2,0.7,0.1,1-0.2c0.4-0.3,0.7-0.7,1-1c0.3-0.4,0.3-0.9,0-1.3C10,17,9.4,17,9.1,17.4c-0.4,0.3-0.7,0.7-1,1
		C7.9,18.5,7.8,18.8,7.8,18.9z M12.5,20c0-0.4-0.2-0.7-0.6-0.9c-0.3-0.1-0.7-0.1-1,0.2c-0.1,0.1-0.2,0.2-0.3,0.3
		c-0.5,0.5-0.2,1.3,0.4,1.5C11.7,21.3,12.5,20.7,12.5,20z"/>
	<path d="M19.9,6.2c-0.2,0-0.4-0.2-0.4-0.5c0-0.2,0.2-0.4,0.4-0.4c0.2,0,0.4,0.2,0.4,0.5C20.3,6,20.1,6.2,19.9,6.2z"/>
</g>
</svg>
