<?xml version="1.0" encoding="utf-8"?>
<!-- Generator: Adobe Illustrator 24.0.1, SVG Export Plug-In . SVG Version: 6.00 Build 0)  -->
<svg version="1.1" id="ic-transaction-staked" xmlns="http://www.w3.org/2000/svg" xmlns:xlink="http://www.w3.org/1999/xlink"
	 x="0px" y="0px" viewBox="0 0 24 24" style="enable-background:new 0 0 24 24;" xml:space="preserve">
<style type="text/css">
	.st0{fill:#707070;}
</style>
<path class="st0" d="M12,1.1C6,1.1,1.1,6,1.1,12S6,23,12,23s11-4.9,11-11S18.1,1.1,12,1.1z M12,20.8c-4.9,0-8.8-3.9-8.8-8.8
	s4-8.7,8.8-8.7s8.8,3.9,8.8,8.8S16.9,20.8,12,20.8z"/>
<path class="st0" d="M12,3.8c-4.6,0-8.3,3.7-8.3,8.3s3.7,8.3,8.3,8.3s8.3-3.7,8.3-8.3S16.6,3.8,12,3.8z M12,19.3
	c-4,0-7.3-3.3-7.3-7.3S8,4.8,12,4.8S19.3,8,19.3,12S16.1,19.3,12,19.3z"/>
<path class="st0" d="M12,18c0,0-0.6,0.2-1.6-0.1s-1.9-1.5-1.6-3.2c0.3-1.7,1.6-2.3,1.9-3.8c0.2-1.5-0.2-2.2-0.5-2.6c0,0,0.7,0.4,1,1
	c0,0,0-0.7-0.3-1.1c0,0,1.3,0.5,2.8,2.9s1.6,3,1.6,4.1s-0.9,3-3.1,2.6c0,0,0.8-0.3,1.1-0.9s0.4-1.7-0.4-3.4c0,0,0,1.6-0.6,1.5
	s-0.7-1.5-0.2-2.7c0,0-1.6,1.5-1.4,3.6C10.7,17.7,12,18,12,18z"/>
</svg>
