<?xml version="1.0" encoding="utf-8"?>
<!-- Generator: Adobe Illustrator 24.0.2, SVG Export Plug-In . SVG Version: 6.00 Build 0)  -->
<svg version="1.1" id="ic-transaction-received" xmlns="http://www.w3.org/2000/svg" xmlns:xlink="http://www.w3.org/1999/xlink"
	 x="0px" y="0px" viewBox="0 0 24 24" style="enable-background:new 0 0 24 24;" xml:space="preserve">
<style type="text/css">
	.st0{fill:#666666;}
	.st1{fill:#A3A3A3;}
	.st2{fill:#474747;}
</style>
<path class="st0" d="M18.5,17.3c0,4.3-4,4.9-8.3,4.9s-8.3-0.6-8.3-4.9c0-3.6,3-8,6.4-9.3h4.4C15.8,9.4,18.5,13.7,18.5,17.3z"/>
<path class="st0" d="M14.8,5.2c0.2-0.3,0.3-0.7,0.1-1c-0.2-0.3-0.5-0.5-0.9-0.5H7c-0.4,0-0.7,0.2-0.9,0.6C5.9,4.5,6,4.9,6.2,5.2
	l2,2.8h4.4L14.8,5.2z"/>
<path class="st1" d="M10.8,22.2c-0.2,0-0.4,0-0.7,0c-4.3,0-8.3-0.6-8.3-4.9c0-3.6,3-8,6.4-9.3h1.5c-3.3,1.3-6.4,5.7-6.4,9.3
	C3.3,21.3,6.8,22.1,10.8,22.2z"/>
<path class="st2" d="M9.7,8H8.2l-2-2.8C6,4.9,5.9,4.5,6.1,4.2c0.2-0.4,0.5-0.6,0.9-0.6h1.5C8,3.6,7.7,3.8,7.5,4.2
	c-0.2,0.4-0.1,0.8,0.2,1L9.7,8z"/>
<path class="st2" d="M14.6,15.3c0,2.4-2,4.4-4.4,4.4s-4.4-2-4.4-4.4s2-4.4,4.4-4.4S14.6,12.9,14.6,15.3z"/>
<path class="st0" d="M22,7.3h-1.5V3.7c0-0.4-0.3-0.8-0.8-0.8h-1.4c-0.4,0-0.8,0.3-0.8,0.8v3.6h-1.5l2.9,3.4L22,7.3z"/>
<path d="M10.2,10.4c-2.7,0-4.9,2.2-4.9,4.9s2.2,4.9,4.9,4.9S15,18,15,15.3C15,12.6,12.9,10.4,10.2,10.4z M10.2,19.2
	c-2.2,0-3.9-1.8-3.9-3.9s1.8-3.9,3.9-3.9s3.9,1.8,3.9,3.9C14.1,17.5,12.3,19.2,10.2,19.2z"/>
<path d="M13.3,7.8l1.8-2.4c0.3-0.4,0.4-1,0.2-1.5c-0.2-0.5-0.8-0.8-1.3-0.8H7C6.4,3.1,5.9,3.4,5.6,4S5.5,5.1,5.9,5.5l1.5,2.3
	c-3.3,1.7-6,5.9-6,9.5c0,5.4,5.9,5.4,8.8,5.4s8.8,0,8.8-5.4C19,13.7,16.4,9.5,13.3,7.8z M6.5,4.4c0.1-0.2,0.3-0.3,0.4-0.3H14
	c0.2,0,0.4,0.1,0.4,0.3c0.1,0.2,0.1,0.4-0.1,0.5l-2,2.6H8.4L6.6,4.9C6.5,4.7,6.4,4.5,6.5,4.4L6.5,4.4z M10.2,21.7
	c-4.7,0-7.8-0.7-7.8-4.4c0-3.3,2.8-7.5,6-8.8h4.2c2.9,1.4,5.5,5.4,5.5,8.8C18,20.9,14.8,21.7,10.2,21.7z"/>
<path d="M19,11.5l-4-4.7h2V4c0-0.9,0.7-1.6,1.6-1.6h0.7C20.3,2.4,21,3.1,21,4v2.8h2L19,11.5z M17.2,7.8L19,10l1.9-2.2H20V4.2
	c0-0.4-0.4-0.8-0.8-0.8h-0.4c-0.4,0-0.8,0.4-0.8,0.8v3.6H17.2z"/>
<g>
	<path d="M11.6,15.4c-0.3,0-0.5,0.1-0.7,0.3c0,0-0.1,0-0.1,0l-0.5-0.3c0,0-0.1-0.1-0.1-0.1l0-0.5c0,0,0-0.1,0.1-0.1
		c0.4-0.1,0.7-0.5,0.7-0.9c0-0.5-0.4-0.9-0.9-0.9c-0.5,0-0.9,0.4-0.9,0.9c0,0.4,0.3,0.8,0.7,0.9c0,0,0.1,0,0.1,0.1l0,0.5
		c0,0,0,0.1-0.1,0.1l-0.5,0.3c0,0-0.1,0-0.1,0c-0.2-0.2-0.4-0.3-0.7-0.3c-0.5,0-0.9,0.4-0.9,0.9c0,0.5,0.4,0.9,0.9,0.9
		c0.5,0,0.9-0.4,0.9-0.9c0-0.1,0-0.2,0-0.2c0,0,0-0.1,0-0.1l0.5-0.3c0,0,0.1,0,0.1,0l0.4,0.3c0,0,0.1,0.1,0,0.1c0,0.1,0,0.2,0,0.3
		c0,0.5,0.4,0.9,0.9,0.9c0.5,0,0.9-0.4,0.9-0.9C12.5,15.8,12.1,15.4,11.6,15.4z"/>
	<path d="M9.8,16.9c-0.2,0.4-0.6,0.6-1.1,0.6c-0.7,0-1.2-0.5-1.2-1.2c0-0.7,0.5-1.2,1.2-1.2c0.3,0,0.6,0.1,0.8,0.3l0.2-0.1l0-0.3
		c-0.3-0.2-0.6-0.4-1-0.4c-0.9,0-1.7,0.8-1.7,1.7C7,17.3,7.8,18,8.7,18c0.5,0,1-0.2,1.3-0.6C9.9,17.2,9.8,17.1,9.8,16.9z"/>
	<path d="M10.2,12.2c-0.9,0-1.7,0.8-1.7,1.7c0,0.2,0,0.4,0.1,0.6c0,0,0.1,0,0.2,0c0.1,0,0.3,0,0.4,0.1c-0.1-0.2-0.2-0.4-0.2-0.7
		c0-0.7,0.5-1.2,1.2-1.2c0.7,0,1.2,0.5,1.2,1.2c0,0.5-0.4,1-0.8,1.1l0,0.3l0.2,0.1c0.6-0.2,1.1-0.9,1.1-1.6
		C11.8,12.9,11.1,12.2,10.2,12.2z"/>
	<path d="M11.8,14.7c-0.1,0.2-0.2,0.3-0.3,0.5c0,0,0.1,0,0.1,0c0.7,0,1.2,0.5,1.2,1.2c0,0.7-0.5,1.2-1.2,1.2c-0.7,0-1.2-0.5-1.2-1.2
		c0-0.1,0-0.2,0-0.2L10.2,16l-0.2,0.1c0,0.1,0,0.2,0,0.2c0,0.9,0.8,1.7,1.7,1.7c0.9,0,1.7-0.8,1.7-1.7
		C13.3,15.5,12.6,14.8,11.8,14.7z"/>
</g>
</svg>
