<?xml version="1.0" encoding="utf-8"?>
<!-- Generator: Adobe Illustrator 24.0.2, SVG Export Plug-In . SVG Version: 6.00 Build 0)  -->
<svg version="1.1" id="ic-transaction-mint" xmlns="http://www.w3.org/2000/svg" xmlns:xlink="http://www.w3.org/1999/xlink"
	 x="0px" y="0px" viewBox="0 0 24 24" style="enable-background:new 0 0 24 24;" xml:space="preserve">
<style type="text/css">
	.st0{fill:#006DF0;}
	.st1{fill:#055CA3;}
	.st2{fill:#FFFFFF;}
	.st3{fill:#AEAFAE;}
	.st4{fill:#58AF7A;}
</style>
<circle class="st0" cx="11.9" cy="12.2" r="10"/>
<path class="st1" d="M13.4,20.7c-5.5,0-10-4.5-10-10c0-2.4,0.8-4.6,2.3-6.3C3.4,6.2,1.9,9,1.9,12.2c0,5.5,4.5,10,10,10
	c3.1,0,5.9-1.4,7.8-3.7C18,19.9,15.8,20.7,13.4,20.7L13.4,20.7z"/>
<path class="st2" d="M11.9,1.5C6.1,1.5,1.3,6.3,1.3,12.2s4.8,10.7,10.7,10.7S22.6,18,22.6,12.2S17.8,1.5,11.9,1.5L11.9,1.5z
	 M11.9,21.5c-5.1,0-9.3-4.2-9.3-9.3s4.2-9.3,9.3-9.3s9.3,4.2,9.3,9.3S17.1,21.5,11.9,21.5z"/>
<path class="st2" d="M7.9,8.1c1.5-1.5,3.5-2,5.5-1.5l-0.9,0.1c-0.4,0.1-0.7,0.5-0.6,0.9c0.1,0.4,0.4,0.6,0.7,0.6c0,0,0.1,0,0.1,0
	l3.6-0.6c0.3,0,0.5-0.2,0.6-0.5c0.1-0.3,0-0.6-0.1-0.8l-2.5-2.8c-0.3-0.3-0.8-0.3-1.1-0.1s-0.3,0.8-0.1,1.1l0.4,0.4
	C11.2,4.6,8.6,5.2,6.8,7c-2,2-2.7,5-1.6,7.7c0.1,0.3,0.4,0.5,0.7,0.5c0.1,0,0.2,0,0.3-0.1c0.4-0.1,0.6-0.6,0.4-1
	C5.8,12.1,6.3,9.7,7.9,8.1L7.9,8.1z"/>
<path class="st2" d="M17.7,9.1c-0.4,0.1-0.6,0.6-0.4,1c0.8,2.1,0.3,4.5-1.3,6.1c-1.5,1.5-3.5,2-5.5,1.5l0.9-0.1
	c0.4-0.1,0.7-0.5,0.6-0.9C12,16.3,11.6,16,11.2,16l-3.6,0.6c-0.3,0-0.5,0.2-0.6,0.5c-0.1,0.3,0,0.6,0.1,0.8l2.5,2.8
	c0.1,0.2,0.4,0.3,0.6,0.3c0.2,0,0.4-0.1,0.5-0.2c0.3-0.3,0.3-0.8,0.1-1.1l-0.4-0.4c0.5,0.1,1.1,0.2,1.6,0.2c1.9,0,3.7-0.7,5.1-2.1
	c2-2,2.7-5,1.6-7.7C18.5,9.2,18.1,9,17.7,9.1z"/>
<g>
	<path class="st3" d="M11.4,15.5c-0.6-0.1-1.1-0.4-1.6-0.8l-0.3-0.3h0.5c-0.4-0.4-0.7-1-0.8-1.6l0-0.1l0.7,0.1l-0.1-0.2
		c-0.3-0.5-0.4-1.2-0.1-1.8l0.3,0.4v-0.3c0-0.5,0.2-1,0.5-1.3l0.1,0.5l0-0.1c0.3-0.6,0.7-1.1,1.2-1.4L12,8.7
		c0.4,0.3,0.7,0.7,0.8,1.3l0.3-0.4c0.3,0.4,0.4,0.8,0.4,1.2v0.1l0.2-0.1c0.1-0.1,0.2-0.3,0.2-0.4l0.1,0.2c0.3,0.5,0.4,1,0.3,1.5
		c0.2,0,0.3-0.1,0.5-0.2l0.1-0.1l-0.1,0.7c0,0.4-0.2,0.9-0.5,1.2h0.4l-0.4,0.7c-0.1,0.2-0.3,0.5-0.5,0.6l0,0
		c-0.3,0.3-0.7,0.4-1.1,0.5l-0.4,0C12,15.6,11.7,15.6,11.4,15.5z"/>
	<g>
		<path class="st4" d="M12.1,15.1h-0.4c-0.4,0-0.8,0-1.1-0.1l0.1-0.3c0.3,0.1,0.7,0.1,1.1,0.1h0.4l0.1,0c0.5-0.2,1-0.4,1.5-0.8
			l0.2,0.2c-0.5,0.4-1,0.6-1.6,0.8L12.1,15.1C12.2,15.1,12.1,15.1,12.1,15.1z"/>
		<path class="st4" d="M12.2,15.6l-0.4-0.9c-0.5-1.2-0.7-2.5-0.4-3.8l0.2-1.4l0.3,0L11.6,11c-0.2,1.2-0.1,2.5,0.4,3.6l0.4,0.9
			L12.2,15.6z"/>
		<path class="st4" d="M11.6,14L11.6,14c-0.6,0-1.1-0.1-1.6-0.4l0.1-0.2c0.4,0.3,0.9,0.4,1.4,0.4h0l0.5-0.1c0.6-0.1,1.1-0.3,1.5-0.8
			l0.2-0.2l0.2,0.2l-0.2,0.2c-0.4,0.4-1,0.7-1.7,0.8L11.6,14C11.6,14,11.6,14,11.6,14z"/>
		<path class="st4" d="M12.1,12.7h-0.7c0,0,0,0,0,0l-0.5-0.1c-0.4-0.1-0.8-0.4-0.9-0.8l0.2-0.1c0.2,0.3,0.4,0.5,0.8,0.6l0.5,0.1h0.6
			c0.5,0,1-0.2,1.3-0.7l0.1-0.1l0.2,0.2l-0.1,0.1C13.3,12.4,12.7,12.7,12.1,12.7z"/>
		<path class="st4" d="M11.5,11.3C11.4,11.3,11.4,11.3,11.5,11.3l-0.3-0.1c-0.3-0.1-0.6-0.3-0.8-0.6l0.2-0.1
			c0.2,0.2,0.4,0.4,0.7,0.5l0.2,0.1l0.6-0.1c0.3-0.1,0.6-0.2,0.8-0.4l0.1,0.2c-0.3,0.2-0.6,0.3-0.9,0.4L11.5,11.3
			C11.5,11.3,11.5,11.3,11.5,11.3z"/>
	</g>
	<path class="st2" d="M9.2,12.7l0,0.1c0.1,0.5,0.3,1,0.6,1.5H9.6c-0.1,0-0.1,0-0.1,0.1c0,0.1,0,0.1,0,0.1l0.3,0.3
		c0.6,0.6,1.4,0.9,2.3,0.9c0.1,0,0.2,0,0.3,0l0.4,0c0.4,0,0.9-0.2,1.2-0.5c0.2-0.2,0.4-0.4,0.5-0.7l0.4-0.7c0,0,0-0.1,0-0.1
		c0,0-0.1-0.1-0.1-0.1h-0.2c0.2-0.3,0.3-0.7,0.4-1.1l0.1-0.7c0-0.1,0-0.1-0.1-0.1c-0.1,0-0.1,0-0.2,0l-0.1,0.1
		c-0.1,0.1-0.1,0.1-0.2,0.1c0-0.5-0.1-1-0.3-1.4L14,10.3c0-0.1-0.1-0.1-0.2-0.1c-0.1,0-0.1,0.1-0.1,0.1c0,0.1-0.1,0.2-0.1,0.3
		c0-0.4-0.2-0.8-0.4-1.2c0,0-0.1-0.1-0.1-0.1c0,0-0.1,0-0.1,0.1l-0.1,0.2c-0.1-0.4-0.4-0.8-0.8-1l-0.1-0.1c0,0-0.1,0-0.1,0
		c-0.5,0.3-0.8,0.7-1.1,1.2l0-0.2c0,0,0-0.1-0.1-0.1c0,0-0.1,0-0.1,0c-0.3,0.3-0.5,0.8-0.6,1.3l0,0c0,0-0.1-0.1-0.1-0.1
		c0,0-0.1,0-0.1,0.1c-0.3,0.6-0.2,1.3,0.1,1.9l-0.4-0.1c0,0-0.1,0-0.1,0C9.2,12.6,9.2,12.6,9.2,12.7L9.2,12.7z M9.9,12.9
		c0.1,0,0.1,0,0.1-0.1c0,0,0-0.1,0-0.1L10,12.5c-0.3-0.4-0.3-1-0.2-1.4l0.1,0.2c0,0,0.1,0.1,0.2,0.1c0.1,0,0.1-0.1,0.1-0.1v-0.3
		c0-0.4,0.1-0.7,0.3-1l0.1,0.3c0,0.1,0.1,0.1,0.1,0.1c0.1,0,0.1,0,0.1-0.1l0-0.1c0.2-0.5,0.6-1,1.1-1.3l0.1,0
		c0.4,0.3,0.7,0.7,0.8,1.2c0,0.1,0.1,0.1,0.1,0.1c0.1,0,0.1,0,0.1-0.1l0.2-0.2c0.2,0.3,0.3,0.6,0.3,1v0.1c0,0,0,0.1,0.1,0.1
		c0,0,0.1,0,0.1,0l0.2-0.1c0.1-0.1,0.1-0.1,0.2-0.2c0.2,0.4,0.3,0.9,0.2,1.4c0,0,0,0.1,0,0.1c0,0,0.1,0,0.1,0c0.1,0,0.3,0,0.4-0.1
		l0,0.4c0,0.4-0.2,0.8-0.4,1.1c0,0,0,0.1,0,0.1c0,0,0.1,0.1,0.1,0.1h0.2l-0.3,0.5c-0.1,0.2-0.3,0.4-0.5,0.6c-0.3,0.2-0.7,0.4-1,0.4
		l-0.3,0l0,0l-0.2-0.4l0,0c0.6-0.2,1.1-0.4,1.6-0.8L13.7,14c-0.4,0.3-0.9,0.6-1.5,0.8l-0.1,0l-0.1-0.2c-0.1-0.2-0.2-0.4-0.2-0.6
		l0.3,0c0.6-0.1,1.2-0.4,1.7-0.8l0.2-0.2l-0.2-0.2l-0.2,0.2c-0.4,0.4-0.9,0.7-1.5,0.8l-0.3,0c-0.1-0.2-0.1-0.5-0.1-0.7
		c0-0.1,0-0.2,0-0.3h0.5c0.6,0,1.2-0.3,1.5-0.8l0.1-0.1l-0.2-0.2l-0.1,0.1c-0.3,0.4-0.8,0.7-1.3,0.7h-0.6c0-0.4,0-0.7,0-1.1l0.5-0.1
		c0.3-0.1,0.6-0.2,0.9-0.4l-0.1-0.2c-0.3,0.2-0.5,0.3-0.8,0.4L11.6,11c0,0,0,0,0,0l0.2-1.4l-0.3,0l-0.2,1.4c0,0,0,0,0,0.1l-0.1,0
		c-0.3-0.1-0.5-0.3-0.7-0.5l-0.2,0.1c0.2,0.3,0.5,0.5,0.8,0.6l0.1,0.1c0,0.4-0.1,0.7,0,1.1L11,12.3c-0.3-0.1-0.6-0.3-0.8-0.6
		L10,11.8c0.2,0.4,0.5,0.7,0.9,0.8l0.4,0.1c0,0.1,0,0.3,0,0.4c0,0.2,0.1,0.5,0.1,0.7c-0.5,0-0.9-0.1-1.3-0.4L10,13.6
		c0.5,0.3,1,0.4,1.5,0.4c0.1,0.2,0.2,0.5,0.2,0.7l0,0.1h-0.1c-0.4,0-0.7,0-1.1-0.1L10.6,15c0.4,0.1,0.7,0.1,1.1,0.1H12l0.2,0.4
		c-0.2,0-0.4,0-0.7-0.1c-0.6-0.1-1.1-0.4-1.5-0.8l-0.1-0.1h0.2c0.1,0,0.1,0,0.1-0.1c0-0.1,0-0.1,0-0.1c-0.4-0.4-0.7-0.9-0.7-1.5
		L9.9,12.9z"/>
</g>
</svg>
