<?xml version="1.0" encoding="utf-8"?>
<!-- Generator: Adobe Illustrator 24.0.1, SVG Export Plug-In . SVG Version: 6.00 Build 0)  -->
<svg version="1.1" id="ic-transaction-staked" xmlns="http://www.w3.org/2000/svg" xmlns:xlink="http://www.w3.org/1999/xlink"
	 x="0px" y="0px" viewBox="0 0 24 24" style="enable-background:new 0 0 24 24;" xml:space="preserve">
<style type="text/css">
	.st0{fill:#B6B6B6;}
</style>
<path class="st0" d="M12,1.5C6.2,1.5,1.5,6.2,1.5,12S6.2,22.6,12,22.6S22.6,17.9,22.6,12S17.9,1.5,12,1.5z M12,20.5
	c-4.7,0-8.5-3.8-8.5-8.5S7.4,3.6,12,3.6s8.5,3.8,8.5,8.5S16.7,20.5,12,20.5z"/>
<path class="st0" d="M12,4.1c-4.4,0-8,3.6-8,8s3.6,8,8,8s8-3.6,8-8S16.4,4.1,12,4.1z M12,19c-3.8,0-7-3.2-7-7s3.2-6.9,7-6.9
	s7,3.1,7,6.9S15.9,19,12,19z"/>
<path class="st0" d="M12,17.8c0,0-0.6,0.2-1.5-0.1s-1.8-1.4-1.5-3.1s1.5-2.2,1.8-3.7c0.2-1.4-0.2-2.1-0.5-2.5c0,0,0.7,0.4,1,1
	c0,0,0-0.7-0.3-1.1c0,0,1.3,0.5,2.7,2.8s1.5,2.9,1.5,3.9s-0.9,2.9-3,2.5c0,0,0.8-0.3,1.1-0.9s0.4-1.6-0.4-3.3c0,0,0,1.5-0.6,1.4
	c-0.6-0.1-0.7-1.4-0.2-2.6c0,0-1.5,1.4-1.3,3.5C10.8,17.5,12,17.8,12,17.8z"/>
</svg>
