<?xml version="1.0" encoding="utf-8"?>
<!-- Generator: Adobe Illustrator 24.0.2, SVG Export Plug-In . SVG Version: 6.00 Build 0)  -->
<svg version="1.1" id="ic-transaction-staked" xmlns="http://www.w3.org/2000/svg" xmlns:xlink="http://www.w3.org/1999/xlink"
	 x="0px" y="0px" viewBox="0 0 24 24" style="enable-background:new 0 0 24 24;" xml:space="preserve">
<style type="text/css">
	.st0{fill:#767777;}
</style>
<path class="st0" d="M8.8,15.2v8.3l-7.1-3.9v-8.3"/>
<path class="st0" d="M8.8,15.2v8.3l7.1-3.9v-8.3"/>
<path class="st0" d="M1.6,11l7.2-4l7.2,4l-7.2,4L1.6,11z"/>
<path d="M11,16.8c-0.2,0-0.3-0.1-0.4-0.2c0,0-0.1-0.1-0.1-0.1c0,0,0-0.1-0.1-0.1c0,0,0-0.1,0-0.1c0,0,0-0.1,0-0.1c0,0,0-0.1,0-0.1
	c0,0,0-0.1,0-0.1c0,0,0-0.1,0.1-0.1c0,0,0-0.1,0.1-0.1c0.1-0.1,0.3-0.2,0.4-0.2s0.3,0.1,0.4,0.2c0,0,0.1,0.1,0.1,0.1
	c0,0,0,0.1,0.1,0.1c0,0,0,0.1,0,0.1c0,0,0,0.1,0,0.1c0,0,0,0.1,0,0.1c0,0,0,0.1,0,0.1c0,0,0,0.1-0.1,0.1c0,0,0,0.1-0.1,0.1
	C11.3,16.8,11.2,16.8,11,16.8z"/>
<path d="M16.2,10.5l-7.2-4c-0.2-0.1-0.4-0.1-0.6,0l-7.2,4C1.2,10.6,1,10.8,1,11.1v8.3c0,0.2,0.1,0.4,0.3,0.5c0,0,7.2,4,7.2,4
	c0.3,0.2,0.5,0,0.5,0c0,0,7.2-4,7.2-4c0.2-0.1,0.3-0.3,0.3-0.5v-8.3C16.5,10.7,16.4,10.6,16.2,10.5z M8.8,7.7l6,3.3l-6,3.3l-6-3.3
	L8.8,7.7z M2.2,12l6,3.3v7.2l-6-3.3V12z M11.6,21.2v-2.7c0-0.3-0.3-0.6-0.6-0.6s-0.6,0.3-0.6,0.6v3.4l-1.1,0.6v-7.2l6-3.3v7.2
	L11.6,21.2z"/>
<path class="st0" d="M19.4,5.7v1.3h-3.1c-0.4,0-0.6,0.3-0.6,0.6v1.2c0,0.4,0.3,0.6,0.6,0.6h3.1v1.3l2.9-2.5L19.4,5.7z"/>
<path d="M22.9,8.2l-4,3.4V9.9h-2.4c-0.8,0-1.4-0.6-1.4-1.4V7.9c0-0.8,0.6-1.4,1.4-1.4h2.4V4.8L22.9,8.2z M19.8,9.8l1.9-1.6l-1.9-1.6
	v0.8h-3.1C16.3,7.3,16,7.6,16,8v0.3C16,8.7,16.3,9,16.7,9h3.1V9.8z"/>
<path class="st0" d="M13.7,6.6V5.4h3.1c0.4,0,0.6-0.3,0.6-0.6V3.5c0-0.4-0.3-0.6-0.6-0.6h-3.1V1.6l-2.9,2.5L13.7,6.6z"/>
<path d="M10.1,4.1l4-3.4v1.7h2.4c0.8,0,1.4,0.6,1.4,1.4v0.6c0,0.8-0.6,1.4-1.4,1.4h-2.4v1.7L10.1,4.1z M13.3,2.5l-1.9,1.6l1.9,1.6
	V4.9h3.1c0.4,0,0.7-0.3,0.7-0.7V3.9c0-0.4-0.3-0.7-0.7-0.7h-3.1V2.5z"/>
</svg>
