<?xml version="1.0" encoding="utf-8"?>
<!-- Generator: Adobe Illustrator 24.0.1, SVG Export Plug-In . SVG Version: 6.00 Build 0)  -->
<svg version="1.1" id="ic-transaction-mint" xmlns="http://www.w3.org/2000/svg" xmlns:xlink="http://www.w3.org/1999/xlink"
	 x="0px" y="0px" viewBox="0 0 24 24" style="enable-background:new 0 0 24 24;" xml:space="preserve">
<style type="text/css">
	.st0{fill:#707070;}
	.st1{fill:none;}
</style>
<g id="Group_8823">
	<path id="Path_18880" class="st0" d="M8,12c0,2.2,1.8,4,4,4s4-1.8,4-4s-1.8-4-4-4S8,9.8,8,12z"/>
	<path id="Path_18881" class="st0" d="M7,8H5.1C7.3,4.2,12.2,2.9,16,5.1c2.2,1.3,3.7,3.5,4,6.1c0.1,0.5,0.5,0.9,1,0.9h0
		c0.6,0,1.1-0.5,1-1.1C21.4,5.9,17.2,2,12,2C8.9,2,5.9,3.5,4,6V5H2v5h5V8z"/>
	<path id="Path_18882" class="st0" d="M17,16h1.9c-2.2,3.8-7.1,5.1-10.9,2.9c-2.2-1.3-3.7-3.5-4-6.1C4,12.4,3.6,12,3.1,12h0
		c-0.6,0-1.1,0.5-1,1.1c0.6,5,4.8,8.9,9.9,8.9c3.2,0,6.1-1.5,8-4v1h2v-5h-5V16z"/>
</g>
<path id="Rectangle_4408" class="st1" d="M0,0h24v24H0V0z"/>
</svg>
