<?xml version="1.0" encoding="utf-8"?>
<!-- Generator: Adobe Illustrator 24.0.2, SVG Export Plug-In . SVG Version: 6.00 Build 0)  -->
<svg version="1.1" id="ic-transaction-sent" xmlns="http://www.w3.org/2000/svg" xmlns:xlink="http://www.w3.org/1999/xlink"
	 x="0px" y="0px" viewBox="0 0 24 24" style="enable-background:new 0 0 24 24;" xml:space="preserve">
<style type="text/css">
	.st0{fill:#666666;}
	.st1{fill:#A3A3A3;}
	.st2{fill:#474747;}
</style>
<path class="st0" d="M17.4,17.3c0,4-3.7,4.5-7.6,4.5s-7.6-0.5-7.6-4.5c0-3.3,2.8-7.3,5.8-8.5h4C15,10.1,17.4,14,17.4,17.3z"/>
<path class="st0" d="M14,6.2c0.2-0.3,0.2-0.6,0.1-0.9c-0.2-0.3-0.5-0.5-0.8-0.5H6.8C6.4,4.7,6.1,4.9,6,5.2c-0.1,0.3-0.1,0.7,0.1,1
	l1.8,2.6h4L14,6.2z"/>
<path class="st1" d="M10.3,21.8c-0.2,0-0.4,0-0.6,0c-4,0-7.6-0.5-7.6-4.5c0-3.3,2.8-7.3,5.8-8.5h1.3C6.2,10,3.4,14,3.4,17.3
	C3.4,21,6.7,21.7,10.3,21.8z"/>
<path class="st2" d="M9.3,8.8H7.9L6.1,6.2C5.9,5.9,5.8,5.6,6,5.2c0.1-0.3,0.5-0.5,0.8-0.5h1.3c-0.4,0-0.7,0.2-0.8,0.5
	c-0.1,0.3-0.1,0.7,0.1,1L9.3,8.8z"/>
<path class="st2" d="M13.8,15.5c0,2.2-1.8,4-4,4s-4-1.8-4-4s1.8-4,4-4S13.8,13.3,13.8,15.5z"/>
<path class="st0" d="M17.5,2.9l1,1l-2.4,2.4c-0.3,0.3-0.3,0.7,0,1L17,8.2c0.3,0.3,0.7,0.3,1,0l2.4-2.4l1,1l0.3-4.1L17.5,2.9z"/>
<path d="M9.7,11c-2.5,0-4.5,2-4.5,4.5s2,4.5,4.5,4.5s4.5-2,4.5-4.5C14.2,13,12.2,11,9.7,11z M9.7,19.1c-2,0-3.6-1.6-3.6-3.6
	s1.6-3.6,3.6-3.6s3.6,1.6,3.6,3.6C13.3,17.5,11.7,19.1,9.7,19.1z"/>
<path d="M12.7,8.6l1.7-2.2c0.3-0.4,0.4-1,0.1-1.4c-0.2-0.5-0.7-0.8-1.2-0.8H6.8c-0.5,0-1,0.3-1.2,0.8S5.4,6.1,5.8,6.5l1.4,2.1
	c-3,1.5-5.6,5.4-5.6,8.7c0,4.9,5.5,4.9,8.1,4.9s8.1,0,8.1-4.9C17.8,14,15.5,10.2,12.7,8.6z M6.4,5.4c0.1-0.2,0.2-0.3,0.4-0.3h6.5
	c0.2,0,0.3,0.1,0.4,0.3c0.1,0.2,0.1,0.3,0,0.5l-1.9,2.4H8.1L6.5,5.9C6.3,5.8,6.3,5.6,6.4,5.4L6.4,5.4z M9.7,21.4
	c-4.3,0-7.2-0.7-7.2-4c0-3.1,2.6-6.9,5.5-8.1h3.9c2.7,1.2,5,5,5,8.1C16.9,20.7,14.1,21.4,9.7,21.4z"/>
<path d="M22.1,2.1l-0.4,5.6l-1.3-1.3l-1.8,1.8c-0.6,0.6-1.5,0.6-2.1,0L16,7.8c-0.6-0.6-0.6-1.5,0-2.1l1.8-1.8l-1.3-1.3L22.1,2.1z
	 M20.9,5.7l0.2-2.6l-2.6,0.2l0.6,0.6l-2.4,2.4c-0.3,0.3-0.3,0.7,0,1L17,7.5c0.3,0.3,0.7,0.3,1,0l2.4-2.4L20.9,5.7z"/>
<g>
	<path d="M11.1,15.6c-0.2,0-0.5,0.1-0.6,0.3c0,0-0.1,0-0.1,0l-0.4-0.2c0,0,0,0,0-0.1l0-0.5c0,0,0-0.1,0.1-0.1
		c0.4-0.1,0.6-0.4,0.6-0.8c0-0.5-0.4-0.8-0.8-0.8c-0.5,0-0.8,0.4-0.8,0.8c0,0.4,0.3,0.7,0.6,0.8c0,0,0.1,0,0.1,0.1l0,0.5
		c0,0,0,0.1,0,0.1l-0.4,0.2c0,0-0.1,0-0.1,0c-0.2-0.2-0.4-0.3-0.6-0.3c-0.5,0-0.8,0.4-0.8,0.8c0,0.5,0.4,0.8,0.8,0.8
		c0.5,0,0.8-0.4,0.8-0.8c0-0.1,0-0.2,0-0.2c0,0,0-0.1,0-0.1l0.4-0.2c0,0,0.1,0,0.1,0l0.4,0.2c0,0,0.1,0.1,0,0.1c0,0.1,0,0.2,0,0.2
		c0,0.5,0.4,0.8,0.8,0.8c0.5,0,0.8-0.4,0.8-0.8C11.9,16,11.5,15.6,11.1,15.6z"/>
	<path d="M9.4,17c-0.2,0.4-0.6,0.6-1,0.6c-0.6,0-1.1-0.5-1.1-1.1c0-0.6,0.5-1.1,1.1-1.1c0.3,0,0.5,0.1,0.7,0.3l0.2-0.1l0-0.3
		c-0.3-0.2-0.6-0.3-1-0.3c-0.9,0-1.5,0.7-1.5,1.5c0,0.9,0.7,1.5,1.5,1.5c0.5,0,0.9-0.2,1.2-0.6C9.5,17.3,9.5,17.1,9.4,17z"/>
	<path d="M9.7,12.6c-0.9,0-1.5,0.7-1.5,1.5c0,0.2,0,0.4,0.1,0.6c0,0,0.1,0,0.1,0c0.1,0,0.3,0,0.4,0c-0.1-0.2-0.2-0.4-0.2-0.6
		c0-0.6,0.5-1.1,1.1-1.1c0.6,0,1.1,0.5,1.1,1.1c0,0.5-0.3,0.9-0.8,1.1l0,0.3l0.2,0.1c0.6-0.2,1-0.8,1-1.4
		C11.3,13.3,10.6,12.6,9.7,12.6z"/>
	<path d="M11.3,14.9c-0.1,0.2-0.2,0.3-0.3,0.4c0,0,0.1,0,0.1,0c0.6,0,1.1,0.5,1.1,1.1c0,0.6-0.5,1.1-1.1,1.1c-0.6,0-1.1-0.5-1.1-1.1
		c0-0.1,0-0.2,0-0.2l-0.2-0.1l-0.2,0.1c0,0.1,0,0.1,0,0.2c0,0.9,0.7,1.5,1.5,1.5c0.9,0,1.5-0.7,1.5-1.5C12.6,15.7,12,15,11.3,14.9z"
		/>
</g>
</svg>
