<?xml version="1.0" encoding="utf-8"?>
<!-- Generator: Adobe Illustrator 24.0.1, SVG Export Plug-In . SVG Version: 6.00 Build 0)  -->
<svg version="1.1" id="ic-transaction-staked" xmlns="http://www.w3.org/2000/svg" xmlns:xlink="http://www.w3.org/1999/xlink"
	 x="0px" y="0px" viewBox="0 0 24 24" style="enable-background:new 0 0 24 24;" xml:space="preserve">
<style type="text/css">
	.st0{fill:#B6B6B6;}
</style>
<title>contract-icon-reward</title>
<g>
	<path class="st0" d="M15.6,9.4c0.1-0.1,0.5-0.6,0.5-0.8c-0.2,0-0.4,0-0.6,0h-1.3C14.6,8.9,15.1,9.2,15.6,9.4z"/>
	<path class="st0" d="M23,12.2c0-0.8-0.1-1.6-0.2-2.3L21.4,10h-0.7l-3.3,0.2c-0.1,0-0.1,0-0.2,0c-0.3,0-1.7-0.1-2.2-0.5
		c-0.4-0.2-1-0.6-1.3-0.8c-0.2-0.1-0.4-0.2-0.6-0.3c-0.5-0.1-1.2-0.4-1.7-0.3c-0.3,0.1-1.8,1.1-2,1.3S9,10.5,8.9,10.8
		c0,0.3-0.5,1.1-0.5,1.1c1.4,0.7,2.2-1.6,2.4-1.7c0.2-0.1,0.5-0.2,0.9-0.2c0.6,0,1.1,0.2,1.6,0.6l4.6,3.9h0.4c0.3,0,1.3,0,2.3-0.1
		c-1,3.8-4.5,6.6-8.7,6.6c-3.4,0-6.4-1.9-7.9-4.7l0,0l-1.2-0.6l-1,0.6c1.7,3.9,5.6,6.6,10.1,6.6c5.3,0,9.8-3.8,10.8-8.8l0,0
		C22.9,13.7,23,12.9,23,12.2z"/>
	<path class="st0" d="M10.3,18c0.3,0.2,0.6,0.1,0.8-0.2l1.6-2.7c0.2-0.3,0.1-0.6-0.2-0.8s-0.6-0.1-0.8,0.2l-1.6,2.7
		C10,17.5,10.1,17.8,10.3,18z"/>
	<path class="st0" d="M8.9,17.5c0.3,0.1,0.6,0.1,0.7-0.2l1.4-2.5c0.1-0.3,0.1-0.6-0.2-0.7c-0.3-0.1-0.6-0.1-0.7,0.2l-1.4,2.5
		C8.6,17,8.7,17.3,8.9,17.5z"/>
	<path class="st0" d="M7.7,16.8c0.3,0.1,0.6,0.1,0.7-0.2l1-1.8c0.1-0.3,0.1-0.6-0.2-0.7C9,13.9,8.7,14,8.5,14.3l-1,1.8
		C7.3,16.3,7.4,16.6,7.7,16.8z"/>
	<path class="st0" d="M7.7,14c-0.2-0.1-0.5-0.1-0.7,0.2l-0.7,1.3c-0.1,0.2-0.1,0.5,0.2,0.7C6.7,16.3,7,16.3,7.2,16l0.7-1.3
		C8,14.4,7.9,14.1,7.7,14z"/>
	<path class="st0" d="M6.2,14.8l0.7-1c0,0,0.4-0.4,1-0.2C8,13.7,8.3,14,8.3,14s0.3-0.5,0.9-0.4c0.4,0,0.7,0.4,0.7,0.4
		s0.3-0.4,0.9-0.4c0.5,0,0.7,0.5,0.7,0.5s0.4-0.5,1.2-0.2c0.6,0.3,0.5,1.1,0.5,1.1l-1.3,2.3l1,0.7c0,0,0.3,0.3,0.6,0
		c0.3-0.2,0-0.6,0-0.6l-0.8-0.7c0-0.1,0.2-0.3,0.2-0.3l1.3,1.1c0,0,0.3,0.2,0.7-0.1c0.3-0.2,0-0.5,0-0.5l-1.3-1.2l0.2-0.3l1.9,1.6
		c0,0,0.3,0.2,0.7-0.1c0.4-0.3,0-0.7,0-0.7l-1.8-1.7l0.2-0.3l2.3,2.1c0,0,0.5,0.3,0.8-0.1s-0.1-0.7-0.1-0.7l-4.6-4.1
		c-0.2-0.2-0.4-0.3-0.7-0.4c0,0-0.5-0.3-0.9-0.3c-0.5,0-0.7,0.2-0.7,0.2s-0.5,0.9-0.9,1.3c-0.4,0.3-1.1,0.6-1.8,0.3l-0.4-0.3
		c0,0,0.3-0.3,0.4-1.2C8.5,10.1,8.6,9.7,9,9.4C9.3,9,9.7,8.6,10.3,8.5c0,0-1.1-0.3-2.3,0.4C6.9,9.7,6.8,9.8,5.6,9.8
		c-0.5,0-1.4,0-2.3,0C4.3,6,7.8,3.2,12,3.2c3.7,0,6.8,2.2,8.2,5.4c0.4,0.1,1,0.3,1.2,0.4l0,0l0.9-0.6C20.7,4.2,16.7,1.2,12,1.2
		c-5.3,0-9.7,3.7-10.7,8.6l0,0C1,10.6,1,11.4,1,12.2c0,0.9,0.1,1.8,0.3,2.7h2.1L6.2,14.8z"/>
</g>
</svg>
