<?xml version="1.0" encoding="utf-8"?>
<!-- Generator: Adobe Illustrator 24.0.2, SVG Export Plug-In . SVG Version: 6.00 Build 0)  -->
<svg version="1.1" id="ic-transaction-sent" xmlns="http://www.w3.org/2000/svg" xmlns:xlink="http://www.w3.org/1999/xlink"
	 x="0px" y="0px" viewBox="0 0 24 24" style="enable-background:new 0 0 24 24;" xml:space="preserve">
<style type="text/css">
	.st0{fill:#C49A6C;}
	.st1{fill:#A97C50;}
	.st2{fill:#8B5E3C;}
	.st3{fill:#FF9811;}
	.st4{fill:#FF0000;}
</style>
<path class="st0" d="M17.6,16.6c0,4-3.7,4.5-7.6,4.5s-7.6-0.5-7.6-4.5c0-3.3,2.8-7.3,5.8-8.5h4C15.1,9.4,17.6,13.3,17.6,16.6z"/>
<path class="st1" d="M14.2,5.5c0.2-0.3,0.2-0.6,0.1-0.9C14.1,4.2,13.8,4,13.5,4H7C6.6,4,6.3,4.2,6.1,4.5C6,4.9,6,5.2,6.3,5.5
	l1.8,2.6h4L14.2,5.5z"/>
<path class="st1" d="M10.5,21.1c-0.2,0-0.4,0-0.6,0c-4,0-7.6-0.5-7.6-4.5c0-3.3,2.8-7.3,5.8-8.5h1.3c-3.1,1.2-5.8,5.2-5.8,8.5
	C3.6,20.3,6.8,21,10.5,21.1z"/>
<path class="st2" d="M9.5,8.1H8.1L6.3,5.5C6.1,5.3,6,4.9,6.1,4.5C6.3,4.2,6.6,4,7,4h1.3C8,4,7.6,4.2,7.5,4.5c-0.1,0.3-0.1,0.7,0.1,1
	L9.5,8.1z"/>
<path class="st3" d="M14,14.8c0,2.2-1.8,4-4,4s-4-1.8-4-4s1.8-4,4-4S14,12.6,14,14.8z"/>
<path class="st4" d="M17.7,2.2l1,1l-2.4,2.4c-0.3,0.3-0.3,0.7,0,1l0.9,0.9c0.3,0.3,0.7,0.3,1,0l2.4-2.4l1,1l0.3-4.1L17.7,2.2z"/>
<path d="M9.9,10.3c-2.5,0-4.5,2-4.5,4.5s2,4.5,4.5,4.5s4.5-2,4.5-4.5C14.4,12.3,12.4,10.3,9.9,10.3z M9.9,18.4c-2,0-3.6-1.6-3.6-3.6
	s1.6-3.6,3.6-3.6s3.6,1.6,3.6,3.6C13.5,16.8,11.9,18.4,9.9,18.4z"/>
<path d="M12.8,7.9l1.7-2.2c0.3-0.4,0.4-1,0.1-1.4c-0.2-0.5-0.7-0.8-1.2-0.8H7c-0.5,0-1,0.3-1.2,0.8S5.6,5.4,6,5.8l1.4,2.1
	c-3,1.5-5.6,5.4-5.6,8.7c0,4.9,5.5,4.9,8.1,4.9s8.1,0,8.1-4.9C18,13.3,15.7,9.5,12.8,7.9z M6.5,4.7C6.6,4.6,6.8,4.5,7,4.5h6.5
	c0.2,0,0.3,0.1,0.4,0.3c0.1,0.2,0.1,0.3,0,0.5l-1.9,2.4H8.3L6.6,5.2C6.5,5.1,6.5,4.9,6.5,4.7L6.5,4.7z M9.9,20.7
	c-4.3,0-7.2-0.7-7.2-4c0-3.1,2.6-6.9,5.5-8.1h3.9c2.7,1.2,5,5,5,8.1C17.1,20,14.2,20.7,9.9,20.7z"/>
<path d="M22.3,1.4L21.9,7l-1.3-1.3l-1.8,1.8c-0.6,0.6-1.5,0.6-2.1,0l-0.5-0.5c-0.6-0.6-0.6-1.5,0-2.1L18,3.2l-1.3-1.3L22.3,1.4z
	 M21.1,5l0.2-2.6l-2.6,0.2l0.6,0.6l-2.4,2.4c-0.3,0.3-0.3,0.7,0,1l0.3,0.3c0.3,0.3,0.7,0.3,1,0l2.4-2.4L21.1,5z"/>
<g>
	<path d="M11.2,14.9c-0.2,0-0.5,0.1-0.6,0.3c0,0-0.1,0-0.1,0l-0.4-0.2c0,0,0,0,0-0.1l0-0.5c0,0,0-0.1,0.1-0.1
		c0.4-0.1,0.6-0.4,0.6-0.8c0-0.5-0.4-0.8-0.8-0.8c-0.5,0-0.8,0.4-0.8,0.8c0,0.4,0.3,0.7,0.6,0.8c0,0,0.1,0,0.1,0.1l0,0.5
		c0,0,0,0.1,0,0.1l-0.4,0.2c0,0-0.1,0-0.1,0C9,15,8.8,14.9,8.6,14.9c-0.5,0-0.8,0.4-0.8,0.8c0,0.5,0.4,0.8,0.8,0.8
		c0.5,0,0.8-0.4,0.8-0.8c0-0.1,0-0.2,0-0.2c0,0,0-0.1,0-0.1l0.4-0.2c0,0,0.1,0,0.1,0l0.4,0.2c0,0,0.1,0.1,0,0.1c0,0.1,0,0.2,0,0.2
		c0,0.5,0.4,0.8,0.8,0.8c0.5,0,0.8-0.4,0.8-0.8C12.1,15.3,11.7,14.9,11.2,14.9z"/>
	<path d="M9.6,16.3c-0.2,0.4-0.6,0.6-1,0.6c-0.6,0-1.1-0.5-1.1-1.1c0-0.6,0.5-1.1,1.1-1.1c0.3,0,0.5,0.1,0.7,0.3l0.2-0.1l0-0.3
		c-0.3-0.2-0.6-0.3-1-0.3c-0.9,0-1.5,0.7-1.5,1.5c0,0.9,0.7,1.5,1.5,1.5c0.5,0,0.9-0.2,1.2-0.6C9.7,16.6,9.6,16.4,9.6,16.3z"/>
	<path d="M9.9,11.9c-0.9,0-1.5,0.7-1.5,1.5c0,0.2,0,0.4,0.1,0.6c0,0,0.1,0,0.1,0c0.1,0,0.3,0,0.4,0c-0.1-0.2-0.2-0.4-0.2-0.6
		c0-0.6,0.5-1.1,1.1-1.1c0.6,0,1.1,0.5,1.1,1.1c0,0.5-0.3,0.9-0.8,1.1l0,0.3l0.2,0.1c0.6-0.2,1-0.8,1-1.4
		C11.5,12.6,10.8,11.9,9.9,11.9z"/>
	<path d="M11.4,14.2c-0.1,0.2-0.2,0.3-0.3,0.4c0,0,0.1,0,0.1,0c0.6,0,1.1,0.5,1.1,1.1c0,0.6-0.5,1.1-1.1,1.1c-0.6,0-1.1-0.5-1.1-1.1
		c0-0.1,0-0.2,0-0.2l-0.2-0.1l-0.2,0.1c0,0.1,0,0.1,0,0.2c0,0.9,0.7,1.5,1.5,1.5c0.9,0,1.5-0.7,1.5-1.5C12.8,15,12.2,14.3,11.4,14.2
		z"/>
</g>
</svg>
