<?xml version="1.0" encoding="utf-8"?>
<!-- Generator: Adobe Illustrator 24.0.1, SVG Export Plug-In . SVG Version: 6.00 Build 0)  -->
<svg version="1.1" id="ic-transaction-staked" xmlns="http://www.w3.org/2000/svg" xmlns:xlink="http://www.w3.org/1999/xlink"
	 x="0px" y="0px" viewBox="0 0 24 24" style="enable-background:new 0 0 24 24;" xml:space="preserve">
<style type="text/css">
	.st0{fill:#B6B6B6;}
	.st1{fill:none;}
</style>
<path id="Path_18914" class="st0" d="M76.8,6V4.9c-0.1-1.7-1.5-2.9-3.1-2.9c-1.4,0.1-2.6,1.1-2.8,2.6l0,0l0,0
	C70.5,2.9,69,1.8,67.4,2c-1.5,0.2-2.6,1.5-2.6,3v1h-4v6h2v10h16V12h2V6H76.8z M72.8,5.4V5c0-0.6,0.4-1,1-1c0.6,0,1,0.4,1,1v1h-2.6
	L72.8,5.4z M71.8,8v8h-2V8H71.8z M66.8,5c0-0.6,0.4-1,1-1c0.6,0,1,0.4,1,1v0.4L69.4,6h-2.6V5z M62.8,8h5v2h-5V8z M76.8,20h-12v-8h3
	v6h6v-6h3V20z M78.8,10h-5V8h5V10z"/>
<path id="Rectangle_4527" class="st1" d="M58.8,0h24v24h-24V0z"/>
<path class="st0" d="M12,1.1C6,1.1,1.1,6,1.1,12S6,23,12,23s11-4.9,11-11S18.1,1.1,12,1.1z M12,20.8c-4.9,0-8.8-3.9-8.8-8.8
	s4-8.7,8.8-8.7s8.8,3.9,8.8,8.8S16.9,20.8,12,20.8z"/>
<path class="st0" d="M12,3.8c-4.6,0-8.3,3.7-8.3,8.3s3.7,8.3,8.3,8.3s8.3-3.7,8.3-8.3S16.6,3.8,12,3.8z M12,19.3
	c-4,0-7.3-3.3-7.3-7.3S8,4.8,12,4.8S19.3,8,19.3,12S16.1,19.3,12,19.3z"/>
</svg>
