<?xml version="1.0" encoding="utf-8"?>
<!-- Generator: Adobe Illustrator 24.0.2, SVG Export Plug-In . SVG Version: 6.00 Build 0)  -->
<svg version="1.1" id="ic-transaction-received" xmlns="http://www.w3.org/2000/svg" xmlns:xlink="http://www.w3.org/1999/xlink"
	 x="0px" y="0px" viewBox="0 0 24 24" style="enable-background:new 0 0 24 24;" xml:space="preserve">
<style type="text/css">
	.st0{fill:#C49A6C;}
	.st1{fill:#A97C50;}
	.st2{fill:#8B5E3C;}
	.st3{fill:#FF9811;}
	.st4{fill:#0087E2;}
</style>
<path class="st0" d="M18.9,16.9c0,4.3-4,4.9-8.3,4.9s-8.3-0.6-8.3-4.9c0-3.6,3-8,6.3-9.3H13C16.3,9,18.9,13.3,18.9,16.9z"/>
<path class="st1" d="M15.2,4.8c0.2-0.3,0.3-0.7,0.1-1s-0.5-0.5-0.9-0.5H7.4C7,3.2,6.7,3.4,6.5,3.8C6.4,4.1,6.4,4.6,6.7,4.8l2,2.8H13
	L15.2,4.8z"/>
<path class="st1" d="M11.3,21.8c-0.2,0-0.4,0-0.7,0c-4.3,0-8.3-0.6-8.3-4.9c0-3.6,3-8,6.3-9.3h1.5c-3.3,1.3-6.3,5.7-6.3,9.3
	C3.8,20.9,7.3,21.7,11.3,21.8z"/>
<path class="st2" d="M10.1,7.6H8.6l-2-2.8c-0.3-0.3-0.3-0.7-0.2-1C6.7,3.4,7,3.2,7.4,3.2h1.5C8.5,3.2,8.1,3.4,8,3.8
	c-0.2,0.4-0.1,0.8,0.2,1L10.1,7.6z"/>
<path class="st3" d="M15,14.9c0,2.4-2,4.4-4.4,4.4s-4.4-2-4.4-4.4s2-4.4,4.4-4.4S15,12.5,15,14.9z"/>
<path class="st4" d="M21.8,6.1h-1.3V2.9c0-0.4-0.3-0.7-0.7-0.7h-1.3c-0.4,0-0.7,0.3-0.7,0.7v3.3h-1.3l2.6,3.1L21.8,6.1z"/>
<path d="M10.6,10.1c-2.7,0-4.9,2.2-4.9,4.9s2.2,4.9,4.9,4.9s4.9-2.2,4.9-4.9C15.5,12.2,13.3,10.1,10.6,10.1z M10.6,18.8
	c-2.2,0-3.9-1.7-3.9-3.9S8.4,11,10.6,11s3.9,1.7,3.9,3.9C14.5,17.1,12.8,18.8,10.6,18.8z"/>
<path d="M13.8,7.4l1.8-2.3c0.3-0.4,0.4-1,0.2-1.5c-0.2-0.5-0.8-0.8-1.3-0.8H7.4c-0.6,0-1.1,0.3-1.3,0.9S5.9,4.7,6.3,5.2l1.5,2.3
	c-3.3,1.7-6,5.9-6,9.4c0,5.4,5.9,5.4,8.8,5.4s8.8,0,8.8-5.4C19.4,13.3,16.9,9.1,13.8,7.4z M7,4C7,3.8,7.2,3.7,7.4,3.7h7.1
	c0.2,0,0.4,0.1,0.4,0.3C15,4.2,15,4.4,14.9,4.5l-2,2.6H8.9L7,4.5C6.9,4.4,6.9,4.2,7,4L7,4z M10.6,21.3c-4.7,0-7.8-0.7-7.8-4.4
	c0-3.3,2.8-7.5,6-8.8h4.2c2.9,1.4,5.5,5.4,5.5,8.8C18.4,20.5,15.3,21.3,10.6,21.3z"/>
<path d="M19.2,9.9l-3.6-4.2h1.8V3.2c0-0.8,0.6-1.4,1.4-1.4h0.6c0.8,0,1.4,0.6,1.4,1.4v2.5h1.8L19.2,9.9z M17.5,6.6l1.7,2l1.7-2h-0.8
	V3.3c0-0.4-0.3-0.7-0.7-0.7H19c-0.4,0-0.7,0.3-0.7,0.7v3.2H17.5z"/>
<g>
	<path d="M12,15c-0.3,0-0.5,0.1-0.7,0.3c0,0-0.1,0-0.1,0l-0.5-0.3c0,0,0-0.1-0.1-0.1l0-0.5c0,0,0-0.1,0.1-0.1
		c0.4-0.1,0.7-0.5,0.7-0.9c0-0.5-0.4-0.9-0.9-0.9c-0.5,0-0.9,0.4-0.9,0.9c0,0.4,0.3,0.8,0.7,0.9c0,0,0.1,0,0.1,0.1l0,0.5
		c0,0,0,0.1-0.1,0.1l-0.5,0.3c0,0-0.1,0-0.1,0C9.7,15.2,9.4,15,9.2,15c-0.5,0-0.9,0.4-0.9,0.9c0,0.5,0.4,0.9,0.9,0.9
		c0.5,0,0.9-0.4,0.9-0.9c0-0.1,0-0.2,0-0.2c0,0,0-0.1,0-0.1l0.5-0.3c0,0,0.1,0,0.1,0l0.4,0.3c0,0,0.1,0.1,0,0.1c0,0.1,0,0.2,0,0.3
		c0,0.5,0.4,0.9,0.9,0.9c0.5,0,0.9-0.4,0.9-0.9C12.9,15.5,12.5,15.1,12,15z"/>
	<path d="M10.2,16.5c-0.2,0.4-0.6,0.6-1.1,0.6C8.5,17.2,8,16.6,8,16c0-0.7,0.5-1.2,1.2-1.2c0.3,0,0.6,0.1,0.8,0.3l0.2-0.1l0-0.3
		c-0.3-0.2-0.6-0.4-1-0.4c-0.9,0-1.7,0.8-1.7,1.7s0.8,1.7,1.7,1.7c0.5,0,1-0.2,1.3-0.6C10.4,16.9,10.3,16.7,10.2,16.5z"/>
	<path d="M10.6,11.8c-0.9,0-1.7,0.8-1.7,1.7c0,0.2,0,0.4,0.1,0.6c0,0,0.1,0,0.2,0c0.1,0,0.3,0,0.4,0.1c-0.1-0.2-0.2-0.4-0.2-0.7
		c0-0.7,0.5-1.2,1.2-1.2c0.7,0,1.2,0.5,1.2,1.2c0,0.5-0.4,1-0.8,1.1l0,0.3l0.2,0.1c0.6-0.2,1.1-0.9,1.1-1.6
		C12.3,12.6,11.5,11.8,10.6,11.8z"/>
	<path d="M12.3,14.3c-0.1,0.2-0.2,0.3-0.3,0.5c0,0,0.1,0,0.1,0c0.7,0,1.2,0.5,1.2,1.2c0,0.7-0.5,1.2-1.2,1.2c-0.7,0-1.2-0.5-1.2-1.2
		c0-0.1,0-0.2,0-0.2l-0.2-0.1l-0.2,0.1c0,0.1,0,0.2,0,0.2c0,0.9,0.8,1.7,1.7,1.7c0.9,0,1.7-0.8,1.7-1.7
		C13.7,15.1,13.1,14.4,12.3,14.3z"/>
</g>
</svg>
