<?xml version="1.0" encoding="utf-8"?>
<!-- Generator: Adobe Illustrator 24.0.2, SVG Export Plug-In . SVG Version: 6.00 Build 0)  -->
<svg version="1.1" id="ic-transaction-staked" xmlns="http://www.w3.org/2000/svg" xmlns:xlink="http://www.w3.org/1999/xlink"
	 x="0px" y="0px" viewBox="0 0 24 24" style="enable-background:new 0 0 24 24;" xml:space="preserve">
<style type="text/css">
	.st0{fill:#5B5B5B;}
	.st1{fill:#353535;}
	.st2{fill:#595959;}
	.st3{fill:#FFFFFF;}
	.st4{fill:#050505;}
</style>
<path class="st0" d="M9.1,14.6v8.3l-7.2-4v-8.3"/>
<path class="st0" d="M9.1,14.6v8.3l7.2-4v-8.3"/>
<path class="st0" d="M1.9,10.4l7.2-4l7.2,4l-7.2,4L1.9,10.4z"/>
<path d="M11.3,16.3c-0.2,0-0.3-0.1-0.4-0.2L10.8,16c0,0,0-0.1-0.1-0.1v-0.1v-0.1v-0.1v-0.1c0,0,0-0.1,0.1-0.1c0,0,0-0.1,0.1-0.1
	c0.1-0.1,0.3-0.2,0.4-0.2s0.3,0.1,0.4,0.2l0.1,0.1c0,0,0,0.1,0.1,0.1v0.1v0.1v0.1v0.1c0,0,0,0.1-0.1,0.1c0,0,0,0.1-0.1,0.1
	C11.6,16.2,11.5,16.3,11.3,16.3z"/>
<path d="M16.5,9.9l-7.2-4c-0.2-0.1-0.4-0.1-0.6,0l-7.2,4c-0.2,0.1-0.3,0.4-0.3,0.7v8.3c0,0.2,0.1,0.4,0.3,0.5l7.2,4
	c0.3,0.2,0.5,0,0.5,0l7.2-4c0.2-0.1,0.3-0.3,0.3-0.5v-8.3C16.9,10.2,16.7,10,16.5,9.9z M9.1,7.1l6,3.3l-6,3.3l-6-3.3L9.1,7.1z
	 M2.5,11.4l6,3.3v7.2l-6-3.3C2.5,18.6,2.5,11.4,2.5,11.4z M11.9,20.7V18c0-0.3-0.3-0.6-0.6-0.6s-0.6,0.3-0.6,0.6v3.4l-1,0.5v-7.2
	l6-3.3v7.2L11.9,20.7z"/>
<path class="st0" d="M19.7,5.1v1.3h-3.1C16.2,6.4,16,6.7,16,7v1.2c0,0.4,0.3,0.6,0.6,0.6h3.1v1.3l2.9-2.5L19.7,5.1z"/>
<path d="M23.3,7.7l-4,3.4V9.3h-2.4c-0.8,0-1.4-0.6-1.4-1.4V7.4c0-0.8,0.6-1.4,1.4-1.4h2.4V4.2L23.3,7.7z M20.1,9.3L22,7.7l-1.9-1.6
	v0.7H17c-0.4,0-0.7,0.3-0.7,0.7v0.3c0,0.4,0.3,0.7,0.7,0.7h3.1V9.3z"/>
<path class="st0" d="M14,6.1V4.8h3.1c0.4,0,0.6-0.3,0.6-0.6V3c0-0.4-0.3-0.6-0.6-0.6H14V1.1l-2.9,2.5L14,6.1z"/>
<path d="M10.4,3.6l4-3.4v1.7h2.4c0.8,0,1.4,0.6,1.4,1.4v0.6c0,0.8-0.6,1.4-1.4,1.4h-2.4V7L10.4,3.6z M13.6,2l-1.9,1.6l1.9,1.6V4.4
	h3.1c0.4,0,0.7-0.3,0.7-0.7V3.4c0-0.4-0.3-0.7-0.7-0.7h-3.1V2z"/>
<g>
	<circle class="st1" cx="17.5" cy="17.8" r="4.6"/>
	<ellipse class="st2" cx="17.2" cy="17.8" rx="4.3" ry="4.6"/>
	<path class="st3" d="M17.5,22.4c0,0,0.1,0,0.1,0c-2.3-0.1-4.2-2.1-4.2-4.6s1.9-4.5,4.2-4.6c0,0-0.1,0-0.1,0c-2.5,0-4.6,2.1-4.6,4.6
		S15,22.4,17.5,22.4z"/>
	<circle class="st2" cx="17.5" cy="17.8" r="0.5"/>
	<g>
		<path class="st4" d="M17.5,22.5c-2.6,0-4.7-2.1-4.7-4.7s2.1-4.7,4.7-4.7s4.7,2.1,4.7,4.7C22.2,20.4,20.1,22.5,17.5,22.5z
			 M17.5,13.4c-2.4,0-4.4,2-4.4,4.4c0,2.4,2,4.4,4.4,4.4s4.4-2,4.4-4.4C21.9,15.3,19.9,13.4,17.5,13.4z"/>
		<path class="st4" d="M17,17.9h-1.3c-0.1,0-0.2-0.1-0.2-0.2c0-0.1,0.1-0.2,0.2-0.2H17c0.1,0,0.2,0.1,0.2,0.2S17.1,17.9,17,17.9z"/>
		<path class="st4" d="M17.5,17.4c0,0-0.1,0-0.1,0c0,0,0-0.1,0-0.1v-1.7c0-0.1,0.1-0.2,0.2-0.2c0.1,0,0.2,0.1,0.2,0.2v1.7
			c0,0,0,0.1,0,0.1C17.6,17.4,17.5,17.4,17.5,17.4L17.5,17.4z"/>
		<path class="st4" d="M17.5,18.4c-0.3,0-0.6-0.3-0.6-0.6c0-0.3,0.3-0.6,0.6-0.6c0.3,0,0.6,0.3,0.6,0.6
			C18.1,18.1,17.8,18.4,17.5,18.4z M17.5,17.4c-0.2,0-0.3,0.1-0.3,0.3c0,0.2,0.1,0.3,0.3,0.3c0.2,0,0.3-0.1,0.3-0.3
			C17.8,17.6,17.7,17.4,17.5,17.4L17.5,17.4z"/>
		<path class="st4" d="M17.5,14.6c0,0-0.1,0-0.1,0s0-0.1,0-0.1v-0.2c0-0.1,0.1-0.2,0.2-0.2c0.1,0,0.2,0.1,0.2,0.2v0.2
			c0,0,0,0.1,0,0.1C17.6,14.6,17.5,14.6,17.5,14.6z"/>
		<path class="st4" d="M17.5,21.4c0,0-0.1,0-0.1,0s0-0.1,0-0.1v-0.2c0-0.1,0.1-0.2,0.2-0.2c0.1,0,0.2,0.1,0.2,0.2v0.2
			c0,0,0,0.1,0,0.1C17.6,21.4,17.5,21.4,17.5,21.4L17.5,21.4z"/>
		<path class="st4" d="M21,17.9h-0.2c-0.1,0-0.2-0.1-0.2-0.2c0-0.1,0.1-0.2,0.2-0.2H21c0.1,0,0.2,0.1,0.2,0.2S21.1,17.9,21,17.9z"/>
		<path class="st4" d="M14.2,17.9H14c-0.1,0-0.2-0.1-0.2-0.2c0-0.1,0.1-0.2,0.2-0.2h0.2c0.1,0,0.2,0.1,0.2,0.2S14.3,17.9,14.2,17.9z
			"/>
		<path class="st4" d="M19.8,15.6c-0.1,0-0.1,0-0.1-0.1c0-0.1,0-0.1,0-0.2l0.1-0.1c0,0,0.1-0.1,0.2,0c0.1,0,0.1,0.1,0.1,0.1
			c0,0.1,0,0.1,0,0.2l-0.1,0.1C19.9,15.6,19.9,15.6,19.8,15.6z"/>
		<path class="st4" d="M15,20.4c-0.1,0-0.1,0-0.1-0.1s0-0.1,0-0.2L15,20c0.1-0.1,0.2-0.1,0.2,0c0.1,0.1,0.1,0.2,0,0.2l-0.1,0.1
			C15.1,20.4,15.1,20.4,15,20.4L15,20.4z"/>
		<path class="st4" d="M19.9,20.4c0,0-0.1,0-0.1,0l-0.1-0.1c-0.1-0.1-0.1-0.2,0-0.2c0.1-0.1,0.2-0.1,0.2,0l0.1,0.1
			c0,0,0.1,0.1,0,0.2C20.1,20.3,20,20.4,19.9,20.4L19.9,20.4z"/>
		<path class="st4" d="M15.1,15.6c0,0-0.1,0-0.1,0l-0.1-0.1c-0.1-0.1-0.1-0.2,0-0.2c0.1-0.1,0.2-0.1,0.2,0l0.1,0.1
			c0,0,0.1,0.1,0,0.2C15.3,15.5,15.2,15.6,15.1,15.6L15.1,15.6z"/>
	</g>
</g>
</svg>
