<?xml version="1.0" encoding="utf-8"?>
<!-- Generator: Adobe Illustrator 24.0.2, SVG Export Plug-In . SVG Version: 6.00 Build 0)  -->
<svg version="1.1" id="ic-transaction-staked" xmlns="http://www.w3.org/2000/svg" xmlns:xlink="http://www.w3.org/1999/xlink"
	 x="0px" y="0px" viewBox="0 0 24 24" style="enable-background:new 0 0 24 24;" xml:space="preserve">
<style type="text/css">
	.st0{fill:#36AAEA;}
	.st1{fill:#0087E2;}
	.st2{fill:#84CEEF;}
</style>
<path class="st0" d="M11.6,12.2v9.5l-8.1-4.5V7.7"/>
<path class="st1" d="M11.6,12.2v9.5l8.1-4.5V7.7"/>
<path class="st2" d="M3.5,7.5L11.6,3l8.1,4.5L11.6,12L3.5,7.5z"/>
<path d="M14.1,14.1c-0.2,0-0.3-0.1-0.5-0.2c0,0-0.1-0.1-0.1-0.1c0,0,0-0.1-0.1-0.1c0,0,0-0.1,0-0.1c0,0,0-0.1,0-0.1c0,0,0-0.1,0-0.1
	c0,0,0-0.1,0-0.1c0,0,0-0.1,0.1-0.1c0,0,0.1-0.1,0.1-0.1c0.1-0.1,0.3-0.2,0.5-0.2c0.2,0,0.3,0.1,0.5,0.2c0,0,0.1,0.1,0.1,0.1
	c0,0,0,0.1,0.1,0.1c0,0,0,0.1,0,0.1c0,0,0,0.1,0,0.1c0,0,0,0.1,0,0.1c0,0,0,0.1,0,0.1c0,0,0,0.1-0.1,0.1c0,0-0.1,0.1-0.1,0.1
	C14.5,14.1,14.3,14.1,14.1,14.1z"/>
<path d="M20.1,6.9l-8.1-4.5c-0.2-0.1-0.4-0.1-0.6,0L3.2,6.9C3,7,2.8,7.3,2.8,7.7v9.5c0,0.2,0.1,0.5,0.3,0.6c0,0,8.1,4.5,8.1,4.5
	c0.3,0.2,0.6,0,0.6,0c0,0,8.1-4.5,8.1-4.5c0.2-0.1,0.3-0.3,0.3-0.6V7.7C20.4,7.2,20.3,7,20.1,6.9z M11.6,3.7l6.8,3.7l-6.8,3.7
	L4.9,7.5L11.6,3.7z M4.2,8.6l6.8,3.8v8.2l-6.8-3.8V8.6z M14.8,19.1V16c0-0.4-0.3-0.7-0.7-0.7c-0.4,0-0.7,0.3-0.7,0.7v3.8l-1.2,0.7
	v-8.2l6.8-3.8v8.2L14.8,19.1z"/>
</svg>
