<?xml version="1.0" encoding="utf-8"?>
<!-- Generator: Adobe Illustrator 24.0.2, SVG Export Plug-In . SVG Version: 6.00 Build 0)  -->
<svg version="1.1" id="ic-transaction-staked" xmlns="http://www.w3.org/2000/svg" xmlns:xlink="http://www.w3.org/1999/xlink"
	 x="0px" y="0px" viewBox="0 0 24 24" style="enable-background:new 0 0 24 24;" xml:space="preserve">
<style type="text/css">
	.st0{fill:#36AAEA;}
	.st1{fill:#0087E2;}
	.st2{fill:#84CEEF;}
</style>
<path class="st0" d="M10,14.1v8.3l-7.2-4v-8.3"/>
<path class="st1" d="M10,14.1v8.3l7.2-4v-8.3"/>
<path class="st2" d="M2.9,10L10,6l7.2,4l-7.2,4L2.9,10z"/>
<path d="M17.5,9.4l-7.2-4c-0.2-0.1-0.4-0.1-0.6,0l-7.2,4c-0.2,0.1-0.3,0.4-0.3,0.7v8.3c0,0.2,0.1,0.4,0.3,0.5c0,0,7.2,4,7.2,4
	c0.3,0.2,0.5,0,0.5,0c0,0,7.2-4,7.2-4c0.2-0.1,0.3-0.3,0.3-0.5v-8.3C17.8,9.7,17.7,9.5,17.5,9.4z M10,6.7l6,3.3l-6,3.3l-6-3.3
	L10,6.7z M3.5,10.9l6,3.3v7.2l-6-3.3V10.9z M12.8,20.2v-2.7c0-0.3-0.3-0.6-0.6-0.6s-0.6,0.3-0.6,0.6v3.4l-1.1,0.6v-7.2l6-3.3v7.2
	L12.8,20.2z"/>
<g>
	<path d="M21.5,7.8l0-0.1c-0.1-1.8-1-2.9-1.7-3.9c-0.7-0.9-1.3-1.7-1.3-2.9c0-0.1-0.1-0.2-0.1-0.2c-0.1,0-0.2,0-0.3,0
		c-1.1,0.8-2,2.1-2.3,3.4C15.6,5,15.5,6,15.5,6.6c-1-0.2-1.2-1.7-1.2-1.8c0-0.1-0.1-0.1-0.1-0.2c-0.1,0-0.2,0-0.2,0
		c-0.1,0-1.3,0.7-1.4,3.2c0,0.1,0,0.2,0,0.3c0,2.5,2,4.5,4.5,4.5s4.5-2,4.5-4.5C21.5,8,21.5,7.9,21.5,7.8z"/>
	<path class="st1" d="M15.5,10.6C15.5,10.5,15.5,10.5,15.5,10.6c0-0.5,0.1-0.7,0.2-0.9c0.1,0.3,0.4,0.6,0.8,0.6
		c0.1,0,0.2-0.1,0.2-0.2c0-0.4,0-0.8,0.1-1.1c0.1-0.3,0.3-0.7,0.5-1c0.1,0.4,0.3,0.7,0.5,0.9c0.3,0.4,0.6,0.8,0.6,1.6
		c0,0,0,0.1,0,0.1c0,0.9-0.7,1.6-1.5,1.6C16.2,12.2,15.5,11.4,15.5,10.6z"/>
	<path class="st0" d="M18.6,11.8c0.3-0.4,0.4-0.8,0.4-1.3c0-0.1,0-0.1,0-0.2C19,9.5,18.6,9,18.3,8.6c-0.3-0.4-0.5-0.7-0.5-1.2
		c0-0.1-0.1-0.2-0.1-0.2c-0.1,0-0.2,0-0.3,0c-0.5,0.4-0.9,1-1,1.5c-0.1,0.3-0.1,0.6-0.1,0.9C16.1,9.5,16,9.1,16,9.1
		C16,9,16,9,15.9,8.9c-0.1,0-0.2,0-0.2,0c-0.1,0-0.6,0.3-0.6,1.5c0,0,0,0.1,0,0.1c0,0.5,0.2,0.9,0.4,1.3C14,11.2,13,9.8,13,8.2
		c0-0.1,0-0.1,0-0.2c0-1.5,0.5-2.2,0.8-2.6c0.2,0.8,0.8,1.8,1.9,1.8c0.1,0,0.2-0.1,0.2-0.2c0-0.8,0-1.8,0.2-2.7
		c0.3-1,0.9-2.1,1.8-2.8c0.1,1.1,0.7,1.8,1.3,2.7c0.7,1,1.5,2,1.6,3.6l0,0.1c0,0.1,0,0.2,0,0.3C21,9.8,20,11.2,18.6,11.8z"/>
	<path class="st2" d="M13.9,6.6c0.2,0.6,0.8,1.5,1.9,1.5C15.9,8.1,16,8,16,7.9c0-0.7,0-1.5,0.2-2.2c0.3-0.8,0.9-1.7,1.8-2.3
		c0.1,0.9,0.7,1.5,1.3,2.2c0.7,0.8,1.5,1.6,1.6,2.9c0-0.1,0-0.2,0-0.3c0-0.1,0-0.2,0-0.3l0-0.1c-0.1-1.6-0.9-2.6-1.6-3.6
		c-0.6-0.8-1.2-1.6-1.3-2.7c-0.8,0.7-1.5,1.8-1.8,2.8C16.1,5.1,16,6.1,16,6.9c0,0.1-0.1,0.2-0.2,0.2c-1.1,0-1.7-1-1.9-1.8
		c-0.3,0.3-0.8,1.1-0.8,2.6c0,0.1,0,0.2,0,0.2c0,0.1,0,0.2,0,0.3C13.2,7.4,13.6,6.9,13.9,6.6z"/>
</g>
</svg>
