<?xml version="1.0" encoding="utf-8"?>
<!-- Generator: Adobe Illustrator 24.0.1, SVG Export Plug-In . SVG Version: 6.00 Build 0)  -->
<svg version="1.1" id="ic-transaction-staked" xmlns="http://www.w3.org/2000/svg" xmlns:xlink="http://www.w3.org/1999/xlink"
	 x="0px" y="0px" viewBox="0 0 24 24" style="enable-background:new 0 0 24 24;" xml:space="preserve">
<style type="text/css">
	.st0{fill:#707070;}
</style>
<g>
	<path class="st0" d="M12,1.1C5.9,1.1,1,6,1,12.1s4.9,11,11,11s11-4.9,11-11S18.1,1.1,12,1.1z M12,20.9c-4.9,0-8.8-3.9-8.8-8.8
		s4-8.8,8.8-8.8s8.8,3.9,8.8,8.8S16.9,20.9,12,20.9z"/>
	<path class="st0" d="M12,3.8c-4.6,0-8.3,3.7-8.3,8.3s3.7,8.3,8.3,8.3s8.3-3.7,8.3-8.3S16.6,3.8,12,3.8z M12,19.4
		c-4,0-7.3-3.3-7.3-7.3S8,4.8,12,4.8s7.3,3.3,7.3,7.3S16,19.4,12,19.4z"/>
</g>
</svg>
