<?xml version="1.0" encoding="utf-8"?>
<!-- Generator: Adobe Illustrator 24.0.1, SVG Export Plug-In . SVG Version: 6.00 Build 0)  -->
<svg version="1.1" id="Capa_1" xmlns="http://www.w3.org/2000/svg" xmlns:xlink="http://www.w3.org/1999/xlink" x="0px" y="0px"
	 viewBox="0 0 24 24" style="enable-background:new 0 0 24 24;" xml:space="preserve">
<style type="text/css">
	.st0{fill:#8AB7FF;}
</style>
<title>Artboard</title>
<desc>Created with Sketch.</desc>
<path id="Path_18962" class="st0" d="M15.3,10.4h5.5V4.9h-2.2v1.3C15.4,2.6,9.7,2.1,5.9,5.7c-1.6,1.5-2.6,3.7-2.7,5.9
	c-0.2,5.2,3.9,9.2,8.8,9.2c1.9,0,3.7-0.6,5.2-1.7c0.5-0.4,0.6-1.2,0.1-1.6h0c-0.4-0.4-1-0.4-1.4-0.1C14,18.7,11.5,19,9.2,18
	c-2.5-1.2-4-3.7-3.8-6.5s2.1-5.1,4.8-5.8s5.5,0.3,7.1,2.5h-2V10.4z"/>
</svg>
