<?xml version="1.0" encoding="utf-8"?>
<!-- Generator: Adobe Illustrator 24.0.2, SVG Export Plug-In . SVG Version: 6.00 Build 0)  -->
<svg version="1.1" id="Capa_1" xmlns="http://www.w3.org/2000/svg" xmlns:xlink="http://www.w3.org/1999/xlink" x="0px" y="0px"
	 viewBox="0 0 24 24" style="enable-background:new 0 0 24 24;" xml:space="preserve">
<style type="text/css">
	.st0{fill:#FFFFFF;}
	.st1{opacity:0.1;enable-background:new    ;}
	.st2{fill:#006DF0;}
</style>
<title>Artboard</title>
<desc>Created with Sketch.</desc>
<circle class="st0" cx="11.9" cy="12.2" r="10.3"/>
<path class="st1" d="M13.4,21C7.7,21,3.1,16.4,3.1,10.8C3.1,8.3,4,6,5.4,4.2c-2.3,1.9-3.8,4.8-3.8,8c0,5.7,4.6,10.3,10.3,10.3
	c3.2,0,6.1-1.5,8-3.8C18.1,20.2,15.9,21,13.4,21L13.4,21z"/>
<path class="st2" d="M11.9,1.2c-6.1,0-11,4.9-11,11s4.9,11,11,11s11-4.9,11-11S18,1.2,11.9,1.2L11.9,1.2z M11.9,21.8
	c-5.3,0-9.6-4.3-9.6-9.6s4.3-9.6,9.6-9.6s9.6,4.3,9.6,9.6S17.2,21.8,11.9,21.8z"/>
<path class="st2" d="M7.8,8.1c1.5-1.5,3.6-2,5.6-1.5l-0.9,0.2c-0.4,0.1-0.7,0.5-0.6,0.9c0.1,0.4,0.4,0.7,0.8,0.7c0,0,0.1,0,0.1,0
	l3.7-0.6c0.3,0,0.5-0.2,0.6-0.5s0-0.6-0.2-0.8l-2.5-2.8c-0.3-0.3-0.8-0.3-1.1-0.1c-0.3,0.3-0.3,0.8-0.1,1.1L13.6,5
	c-2.4-0.6-5.1,0.1-6.9,2C4.6,9,4,12.1,5,14.9c0.1,0.3,0.4,0.5,0.7,0.5c0.1,0,0.2,0,0.3-0.1c0.4-0.2,0.6-0.6,0.4-1
	C5.6,12.2,6.1,9.7,7.8,8.1L7.8,8.1z"/>
<path class="st2" d="M17.9,9.1c-0.4,0.2-0.6,0.6-0.4,1c0.8,2.2,0.3,4.6-1.3,6.3c-1.5,1.5-3.6,2-5.6,1.5l0.9-0.2
	c0.4-0.1,0.7-0.5,0.6-0.9c-0.1-0.4-0.5-0.7-0.9-0.6l-3.7,0.6c-0.3,0-0.5,0.2-0.6,0.5c-0.1,0.3,0,0.6,0.2,0.8l2.5,2.8
	c0.2,0.2,0.4,0.3,0.6,0.3c0.2,0,0.4-0.1,0.5-0.2c0.3-0.3,0.3-0.8,0.1-1.1l-0.4-0.4c0.6,0.1,1.1,0.2,1.7,0.2c1.9,0,3.8-0.7,5.3-2.2
	c2.1-2.1,2.7-5.2,1.7-7.9C18.7,9.2,18.3,9,17.9,9.1z"/>
</svg>
