<?xml version="1.0" encoding="utf-8"?>
<!-- Generator: Adobe Illustrator 24.0.1, SVG Export Plug-In . SVG Version: 6.00 Build 0)  -->
<svg version="1.1" id="ic_unlock_staking" xmlns="http://www.w3.org/2000/svg" xmlns:xlink="http://www.w3.org/1999/xlink" x="0px"
	 y="0px" viewBox="0 0 24 24" style="enable-background:new 0 0 24 24;" xml:space="preserve">
<style type="text/css">
	.st0{fill:#FFFFFF;}
</style>
<path id="Path_18899" class="st0" d="M14.1,18.7c0.9-0.1,1.6-0.8,1.6-1.8v-0.8L14.1,18.7z M15,10.9c-0.4-0.2-0.8-0.3-1.1-0.4
	c0.1,0.1,0.1,0.2,0.1,0.3v1.8L15,10.9z M8.7,0.9c-3-0.1-5.5,2.3-5.5,5.4V8c-1,0-1.8,0.8-1.8,1.8V17c0,1,0.8,1.8,1.8,1.8h6.9l1.1-1.8
	h-7c-0.5,0-1-0.4-1-1v-5.2c0-0.5,0.4-1,1-1h6.2L10.5,8H5V6.2c0-2,1.6-3.6,3.6-3.6s3.6,1.6,3.6,3.6v0.1c0.5,0.1,1.1,0.2,1.8,0.4V6.5
	C13.9,3.5,11.7,1,8.7,0.9z"/>
<g>
	<path class="st0" d="M21.3,15.4C17.7,9.5,11.1,8.9,11,8.9l0.2-2c0.3,0,7.7,0.7,11.9,7.4L21.3,15.4z"/>
</g>
<g>
	<path class="st0" d="M9.6,22.8L9.6,22.8c-0.5-0.3-0.6-0.9-0.3-1.4l7.9-12.8c0.3-0.5,0.9-0.6,1.4-0.3l0,0c0.5,0.3,0.6,0.9,0.3,1.4
		L11,22.4C10.7,22.9,10.1,23,9.6,22.8z"/>
</g>
</svg>
