<?xml version="1.0" encoding="utf-8"?>
<!-- Generator: Adobe Illustrator 24.0.2, SVG Export Plug-In . SVG Version: 6.00 Build 0)  -->
<svg version="1.1" id="ic_unlock_staking" xmlns="http://www.w3.org/2000/svg" xmlns:xlink="http://www.w3.org/1999/xlink" x="0px"
	 y="0px" viewBox="0 0 24 24" style="enable-background:new 0 0 24 24;" xml:space="preserve">
<style type="text/css">
	.st0{fill:#303C42;}
	.st1{fill:#F2F2F2;}
	.st2{fill:#006DF0;}
	.st3{fill:#5AA6F2;}
	.st4{fill:#03488C;}
	.st5{fill:#FFFFFF;}
	.st6{fill:#FBA615;}
	.st7{fill:#F88604;}
	.st8{fill:#786E79;}
	.st9{fill:#453E43;}
</style>
<g>
	<g>
		<path class="st0" d="M15.5,8.5h-1.1V7c0-2.9-2.4-5.3-5.3-5.3S3.8,4.1,3.8,7v0.4c0,0.2,0.2,0.4,0.4,0.4h1.5c0.2,0,0.4-0.2,0.4-0.4
			V7c0-1.7,1.4-3,3-3s3,1.4,3,3v1.5H2.7c-0.2,0-0.4,0.2-0.4,0.4v9.4c0,0.8,0.7,1.5,1.5,1.5h10.6c0.8,0,1.5-0.7,1.5-1.5V8.9
			C15.9,8.7,15.8,8.5,15.5,8.5z"/>
		<path class="st1" d="M9.1,3.2C7,3.2,5.3,4.9,5.3,7H4.6c0-2.5,2-4.5,4.5-4.5s4.5,2,4.5,4.5v1.5h-0.8V7C12.9,4.9,11.2,3.2,9.1,3.2z"
			/>
		<path class="st2" d="M15.2,18.3c0,0.4-0.3,0.8-0.8,0.8H3.8c-0.4,0-0.8-0.3-0.8-0.8V9.2h12.1V18.3z"/>
		<path class="st3" d="M4.6,18.3V9.2H3.1v9.1c0,0.4,0.3,0.8,0.8,0.8h1.3C4.8,19.1,4.6,18.7,4.6,18.3z"/>
		<path class="st4" d="M13.7,9.2v9.1c0,0.4-0.3,0.8-0.6,0.8h1.3c0.4,0,0.8-0.3,0.8-0.8V9.2H13.7L13.7,9.2z"/>
	</g>
	<g>
		<path class="st5" d="M11.2,14.3c-0.3,0-0.7,0.1-0.9,0.4c0,0-0.1,0-0.2,0l-0.6-0.4c0,0-0.1-0.1-0.1-0.1l0-0.7c0-0.1,0-0.1,0.1-0.1
			c0.5-0.1,0.9-0.6,0.9-1.2c0-0.7-0.5-1.2-1.2-1.2c-0.7,0-1.2,0.5-1.2,1.2c0,0.6,0.4,1.1,0.9,1.2C9,13.4,9,13.4,9,13.5l0,0.7
			c0,0,0,0.1-0.1,0.1l-0.6,0.4c0,0-0.1,0-0.2,0c-0.2-0.2-0.5-0.4-0.9-0.4c-0.7,0-1.2,0.6-1.2,1.2c0,0.7,0.5,1.2,1.2,1.2
			c0.7,0,1.2-0.5,1.2-1.2c0-0.1,0-0.2,0-0.3c0-0.1,0-0.1,0.1-0.1l0.6-0.4c0,0,0.1,0,0.1,0L9.9,15c0,0,0.1,0.1,0.1,0.1
			c0,0.1,0,0.2,0,0.3c0,0.7,0.6,1.2,1.2,1.2c0.7,0,1.2-0.5,1.2-1.2C12.4,14.8,11.8,14.3,11.2,14.3z"/>
		<path class="st5" d="M8.8,16.2c-0.3,0.5-0.8,0.9-1.4,0.9c-0.9,0-1.6-0.7-1.6-1.6c0-0.9,0.7-1.6,1.6-1.6c0.4,0,0.8,0.2,1.1,0.4
			l0.3-0.1l0-0.4c-0.4-0.3-0.9-0.5-1.4-0.5c-1.2,0-2.3,1-2.3,2.3s1,2.3,2.3,2.3c0.7,0,1.3-0.3,1.8-0.8C8.9,16.7,8.8,16.5,8.8,16.2z"
			/>
		<path class="st5" d="M9.2,9.9C8,9.9,7,10.9,7,12.2C7,12.5,7,12.8,7.1,13c0.1,0,0.1,0,0.2,0c0.2,0,0.4,0,0.6,0.1
			c-0.2-0.3-0.3-0.6-0.3-0.9c0-0.9,0.7-1.6,1.6-1.6c0.9,0,1.6,0.7,1.6,1.6c0,0.7-0.5,1.3-1.1,1.5l0,0.4l0.3,0.2
			c0.8-0.3,1.5-1.1,1.5-2.1C11.5,10.9,10.5,9.9,9.2,9.9z"/>
		<path class="st5" d="M11.4,13.2c-0.1,0.2-0.3,0.4-0.4,0.6c0,0,0.1,0,0.1,0c0.9,0,1.6,0.7,1.6,1.6c0,0.9-0.7,1.6-1.6,1.6
			c-0.9,0-1.6-0.7-1.6-1.6c0-0.1,0-0.2,0-0.3L9.3,15l-0.3,0.2c0,0.1,0,0.2,0,0.3c0,1.2,1,2.3,2.3,2.3c1.2,0,2.3-1,2.3-2.3
			C13.4,14.3,12.5,13.4,11.4,13.2z"/>
	</g>
</g>
<g>
	<g>
		<path class="st6" d="M7.1,21.6L7.1,21.6c-0.4-0.4-0.4-0.8-0.1-1.1L18.7,8.8l1.1,1.1L8.2,21.6C7.9,21.9,7.4,21.9,7.1,21.6L7.1,21.6
			z"/>
	</g>
	<path class="st7" d="M19.3,9.4L8,20.8c-0.3,0.3-0.8,0.3-1.1,0l-0.1-0.1c-0.1,0.3,0,0.6,0.2,0.8l0.1,0.1c0.3,0.3,0.8,0.3,1.1,0
		L19.8,9.9L19.3,9.4z"/>
	<g>
		<path class="st8" d="M18.6,10c1.4,1.4,2.4,3.2,2.8,5c0,0.1,0.2,0.1,0.2,0c0.5-2.2-0.1-4.5-1.8-6.2c-1.7-1.7-4-2.3-6.2-1.8
			c-0.1,0-0.1,0.2,0,0.2C15.5,7.6,17.2,8.5,18.6,10L18.6,10z"/>
	</g>
	<g>
		<path class="st9" d="M19.8,8.8c-1.4-1.4-3.3-2-5.1-1.9c1.6,0.1,3.1,0.7,4.3,1.9c1.3,1.3,1.9,2.9,1.9,4.6c0.2,0.5,0.4,1,0.5,1.6
			c0,0.1,0.2,0.1,0.2,0C22.1,12.8,21.5,10.5,19.8,8.8L19.8,8.8z"/>
	</g>
	<g>
		<path class="st8" d="M18.6,11.4L17.2,10c-0.1-0.1-0.1-0.3,0-0.4L19,7.7c0.1-0.1,0.3-0.1,0.4,0l1.4,1.4c0.1,0.1,0.1,0.3,0,0.4
			l-1.8,1.8C18.9,11.5,18.7,11.5,18.6,11.4z"/>
	</g>
	<g>
		<path class="st9" d="M20.5,8.8l-1.4,1.4c-0.1,0.1-0.3,0.1-0.5,0l-1.1-1.1l-0.3,0.3c-0.1,0.1-0.1,0.3,0,0.4l1.4,1.4
			c0.1,0.1,0.3,0.1,0.4,0l1.8-1.8c0.1-0.1,0.1-0.3,0-0.4L20.5,8.8z"/>
	</g>
	<g>
		<path d="M8.8,18.9L8.8,18.9l-1.6,1.6C7.1,20.7,7,20.8,7,21c0,0.1,0.1,0.3,0.2,0.4l0.1,0.1c0.1,0.1,0.2,0.2,0.4,0.2
			c0.1,0,0.3-0.1,0.4-0.2l0.8-0.8v0l8.8-8.8l0,0.6l-8.8,8.8l-0.5,0.5C8.1,21.9,7.9,22,7.6,22c-0.3,0-0.5-0.1-0.7-0.3l-0.1-0.1
			c-0.2-0.2-0.3-0.4-0.3-0.7c0-0.3,0.1-0.5,0.3-0.7l1.4-1.4l0.5-0.5l0,0l6.6-6.6c0.1,0,0.1,0,0.2,0c0,0,0,0,0.1,0l0,0.3L8.8,18.9z"
			/>
		<path d="M21.6,11.3c0-0.1-0.2-0.2-0.3-0.1c-0.1,0-0.2,0.2-0.1,0.3c0.3,0.9,0.4,1.9,0.3,2.9c-0.4-1.2-0.9-2.4-1.7-3.4l0.8-0.8
			c0.1,0.1,0.1,0.3,0.2,0.4c0,0.1,0.1,0.1,0.2,0.1c0,0,0.1,0,0.1,0c0.1-0.1,0.2-0.2,0.1-0.3c-0.1-0.2-0.2-0.3-0.3-0.5L21,9.7
			c0.1-0.1,0.2-0.2,0.2-0.4S21.1,9.1,21,9l-1.4-1.4c-0.1-0.1-0.2-0.2-0.4-0.2s-0.3,0.1-0.4,0.2l-0.1,0.1c-1.5-1-3.4-1.3-5.2-0.9
			c-0.1,0-0.3,0.2-0.3,0.3c0,0.2,0.1,0.3,0.3,0.3c1.4,0.3,2.6,0.9,3.7,1.7L17,9.4c-0.2,0.2-0.2,0.5,0,0.7l-1.1,1.1l-0.3,0.3
			l-0.1,0.1L15.2,12v0c0.1,0,0.2,0.1,0.2,0.3c0,0,0.1,0,0.1,0l0,0l0.5-0.5l0,0l0.2-0.2c0,0,0,0,0,0l1.1-1.1l0.8,0.8l-0.9,0.9
			c0.1,0.1,0.2,0.3,0.2,0.4c0,0,0,0,0,0l0,0l0.3-0.3l0.3-0.3l0.3-0.3c0.1,0.1,0.2,0.1,0.4,0.1c0.1,0,0.3-0.1,0.4-0.2l0.3-0.3
			c0.8,1.1,1.4,2.4,1.7,3.7c0,0.1,0.2,0.3,0.3,0.3c0.1,0,0.1,0,0.2-0.1c0.1,0,0.1-0.1,0.1-0.2C22.1,13.8,22,12.5,21.6,11.3z
			 M14.2,7.1c1.5-0.2,2.9,0.1,4.2,0.9l-0.8,0.8C16.6,8,15.5,7.5,14.2,7.1z M18.9,11.2c0,0-0.1,0-0.1,0l-0.1-0.1l-1.3-1.3
			c0,0,0,0,0-0.1c0,0,0,0,0-0.1L19,8.1l0.2-0.2c0,0,0,0,0.1,0c0,0,0,0,0.1,0l1.4,1.4c0,0,0,0,0,0.1c0,0,0,0,0,0.1L18.9,11.2z"/>
	</g>
</g>
</svg>
