<?xml version="1.0" encoding="utf-8"?>
<!-- Generator: Adobe Illustrator 24.0.2, SVG Export Plug-In . SVG Version: 6.00 Build 0)  -->
<svg version="1.1" id="ic_unlocked" xmlns="http://www.w3.org/2000/svg" xmlns:xlink="http://www.w3.org/1999/xlink" x="0px"
	 y="0px" viewBox="0 0 24 24" style="enable-background:new 0 0 24 24;" xml:space="preserve">
<style type="text/css">
	.st0{fill:#303C42;}
	.st1{fill:#F2F2F2;}
	.st2{fill:#006DF0;}
	.st3{fill:#5AA6F2;}
	.st4{fill:#03488C;}
	.st5{fill:#FFFFFF;}
</style>
<g>
	<g>
		<path class="st0" d="M19.4,9.3h-1.3V7.5c0-3.4-2.8-6.2-6.2-6.2S5.7,4.1,5.7,7.5v0.4c0,0.2,0.2,0.4,0.4,0.4h1.8
			c0.2,0,0.4-0.2,0.4-0.4V7.5c0-2,1.6-3.5,3.5-3.5s3.5,1.6,3.5,3.5v1.8H4.3c-0.2,0-0.4,0.2-0.4,0.4v11.1c0,1,0.8,1.8,1.8,1.8h12.4
			c1,0,1.8-0.8,1.8-1.8V9.7C19.8,9.5,19.6,9.3,19.4,9.3z"/>
		<path class="st1" d="M11.9,3.1c-2.4,0-4.4,2-4.4,4.4H6.5c0-2.9,2.4-5.3,5.3-5.3s5.3,2.4,5.3,5.3v1.8h-0.9V7.5
			C16.3,5.1,14.3,3.1,11.9,3.1z"/>
		<path class="st2" d="M18.9,20.8c0,0.5-0.4,0.9-0.9,0.9H5.7c-0.5,0-0.9-0.4-0.9-0.9V10.1h14.2V20.8z"/>
		<path class="st3" d="M6.5,20.8V10.1H4.8v10.6c0,0.5,0.4,0.9,0.9,0.9h1.5C6.8,21.7,6.5,21.3,6.5,20.8z"/>
		<path class="st4" d="M17.2,10.1v10.6c0,0.5-0.3,0.9-0.7,0.9h1.5c0.5,0,0.9-0.4,0.9-0.9V10.1H17.2L17.2,10.1z"/>
	</g>
	<g>
		<path class="st5" d="M14.2,16c-0.4,0-0.8,0.2-1,0.4c0,0-0.1,0.1-0.2,0l-0.7-0.4c0,0-0.1-0.1-0.1-0.1l0-0.8c0-0.1,0-0.1,0.1-0.1
			c0.6-0.2,1.1-0.7,1.1-1.4c0-0.8-0.6-1.4-1.4-1.4c-0.8,0-1.4,0.6-1.4,1.4c0,0.7,0.5,1.2,1.1,1.4c0.1,0,0.1,0.1,0.1,0.1l0,0.8
			c0,0.1,0,0.1-0.1,0.1L11,16.5c-0.1,0-0.1,0-0.2,0c-0.3-0.3-0.6-0.4-1-0.4c-0.8,0-1.4,0.7-1.4,1.4c0,0.8,0.6,1.4,1.4,1.4
			c0.8,0,1.4-0.6,1.4-1.4c0-0.1,0-0.3-0.1-0.4c0-0.1,0-0.1,0.1-0.2l0.7-0.4c0,0,0.1,0,0.2,0l0.7,0.4c0.1,0,0.1,0.1,0.1,0.2
			c0,0.1-0.1,0.3-0.1,0.4c0,0.8,0.6,1.4,1.4,1.4c0.8,0,1.4-0.6,1.4-1.4C15.7,16.7,15,16,14.2,16z"/>
		<path class="st5" d="M11.4,18.3c-0.3,0.6-0.9,1-1.7,1c-1,0-1.9-0.8-1.9-1.9c0-1,0.8-1.9,1.9-1.9c0.5,0,0.9,0.2,1.3,0.5l0.3-0.2
			l0-0.5c-0.4-0.4-1-0.6-1.6-0.6c-1.5,0-2.6,1.2-2.6,2.6s1.2,2.6,2.6,2.6c0.8,0,1.6-0.4,2.1-1C11.6,18.9,11.5,18.6,11.4,18.3z"/>
		<path class="st5" d="M12,10.9c-1.5,0-2.6,1.2-2.6,2.6c0,0.4,0.1,0.7,0.2,1c0.1,0,0.2,0,0.2,0c0.2,0,0.4,0,0.6,0.1
			c-0.2-0.3-0.3-0.7-0.3-1.1c0-1,0.8-1.9,1.9-1.9c1,0,1.9,0.8,1.9,1.9c0,0.8-0.6,1.6-1.3,1.8l0,0.5l0.4,0.2c1-0.4,1.7-1.3,1.7-2.5
			C14.6,12.1,13.4,10.9,12,10.9z"/>
		<path class="st5" d="M14.6,14.8c-0.1,0.3-0.3,0.5-0.5,0.7c0.1,0,0.1,0,0.2,0c1,0,1.9,0.8,1.9,1.9c0,1-0.8,1.9-1.9,1.9
			c-1,0-1.9-0.8-1.9-1.9c0-0.1,0-0.3,0-0.4L12,16.9l-0.4,0.2c0,0.1,0,0.3,0,0.4c0,1.5,1.2,2.6,2.6,2.6c1.5,0,2.6-1.2,2.6-2.6
			C16.9,16.1,15.9,15,14.6,14.8z"/>
	</g>
</g>
</svg>
