<?xml version="1.0" encoding="utf-8"?>
<!-- Generator: Adobe Illustrator 24.0.2, SVG Export Plug-In . SVG Version: 6.00 Build 0)  -->
<svg version="1.1" id="ic_unlock_staking" xmlns="http://www.w3.org/2000/svg" xmlns:xlink="http://www.w3.org/1999/xlink" x="0px"
	 y="0px" viewBox="0 0 24 24" style="enable-background:new 0 0 24 24;" xml:space="preserve">
<style type="text/css">
	.st0{fill:#303C42;}
	.st1{fill:#F2F2F2;}
	.st2{fill:#006DF0;}
	.st3{fill:#7CBAF7;}
	.st4{fill:#08539E;}
	.st5{fill:#FFFFFF;}
	.st6{fill:#FBA615;}
	.st7{fill:#F88604;}
	.st8{fill:#786E79;}
	.st9{fill:#453E43;}
</style>
<g>
	<path class="st0" d="M15.1,8.4h-1.2V6.8c0-3.2-2.6-5.8-5.8-5.8S2.4,3.6,2.4,6.8v1.6H1.2c-0.2,0-0.4,0.2-0.4,0.4v10.3
		c0,0.9,0.7,1.6,1.6,1.6h11.5c0.9,0,1.6-0.7,1.6-1.6V8.9C15.5,8.6,15.4,8.4,15.1,8.4z M11.4,8.4H4.9V6.8c0-1.8,1.5-3.3,3.3-3.3
		s3.3,1.5,3.3,3.3V8.4z"/>
	<path class="st1" d="M3.2,6.8c0-2.7,2.2-4.9,4.9-4.9s4.9,2.2,4.9,4.9v1.6h-0.8V6.8c0-2.3-1.8-4.1-4.1-4.1S4,4.5,4,6.8v1.6H3.2V6.8z
		"/>
	<path class="st2" d="M14.7,19.1c0,0.5-0.4,0.8-0.8,0.8H2.4c-0.5,0-0.8-0.4-0.8-0.8V9.3h13.1V19.1z"/>
	<path class="st3" d="M3.2,19.1V9.3H1.6v9.9c0,0.5,0.4,0.8,0.8,0.8h1.4C3.5,19.9,3.2,19.6,3.2,19.1z"/>
	<path class="st4" d="M13.1,9.3v9.9c0,0.5-0.3,0.8-0.6,0.8h1.4c0.5,0,0.8-0.4,0.8-0.8V9.3H13.1L13.1,9.3z"/>
	<path class="st5" d="M10.1,14.6c-0.4,0-0.7,0.1-1,0.4c0,0-0.1,0.1-0.2,0l-0.7-0.4c0,0-0.1-0.1-0.1-0.1l0-0.8c0-0.1,0-0.1,0.1-0.1
		c0.6-0.1,1-0.7,1-1.3c0-0.7-0.6-1.3-1.3-1.3c-0.7,0-1.3,0.6-1.3,1.3c0,0.6,0.4,1.1,1,1.3c0.1,0,0.1,0.1,0.1,0.1l0,0.8
		c0,0.1,0,0.1-0.1,0.1l-0.7,0.4c-0.1,0-0.1,0-0.2,0c-0.2-0.2-0.6-0.4-1-0.4c-0.7,0-1.3,0.6-1.3,1.3c0,0.7,0.6,1.3,1.3,1.3
		c0.7,0,1.3-0.6,1.3-1.3c0-0.1,0-0.2,0-0.4c0-0.1,0-0.1,0.1-0.2L8,15.1c0,0,0.1,0,0.1,0l0.7,0.4c0.1,0,0.1,0.1,0.1,0.2
		c0,0.1-0.1,0.2-0.1,0.4c0,0.7,0.6,1.3,1.3,1.3c0.7,0,1.3-0.6,1.3-1.3C11.5,15.3,10.9,14.7,10.1,14.6z"/>
	<path class="st5" d="M7.5,16.8c-0.3,0.6-0.9,0.9-1.6,0.9c-1,0-1.8-0.8-1.8-1.8c0-1,0.8-1.8,1.8-1.8c0.4,0,0.9,0.2,1.2,0.4l0.3-0.2
		l0-0.5c-0.4-0.3-0.9-0.5-1.5-0.5c-1.4,0-2.5,1.1-2.5,2.5s1.1,2.5,2.5,2.5c0.8,0,1.5-0.4,1.9-0.9C7.7,17.3,7.6,17.1,7.5,16.8z"/>
	<path class="st5" d="M8,9.9c-1.4,0-2.4,1.1-2.4,2.5c0,0.3,0.1,0.6,0.2,0.9c0.1,0,0.1,0,0.2,0c0.2,0,0.4,0,0.6,0.1
		c-0.2-0.3-0.3-0.6-0.3-1c0-1,0.8-1.8,1.8-1.8c1,0,1.8,0.8,1.8,1.8c0,0.8-0.5,1.4-1.2,1.7l0,0.4l0.3,0.2c0.9-0.4,1.6-1.2,1.6-2.3
		C10.5,11,9.4,9.9,8,9.9z"/>
	<path class="st5" d="M10.4,13.5c-0.1,0.3-0.3,0.5-0.5,0.7c0.1,0,0.1,0,0.2,0c1,0,1.8,0.8,1.8,1.8c0,1-0.8,1.8-1.8,1.8
		c-1,0-1.8-0.8-1.8-1.8c0-0.1,0-0.2,0-0.4l-0.3-0.2l-0.4,0.2c0,0.1,0,0.2,0,0.4c0,1.4,1.1,2.5,2.5,2.5c1.4,0,2.5-1.1,2.5-2.5
		C12.6,14.7,11.6,13.7,10.4,13.5z"/>
</g>
<g>
	<g>
		<path class="st6" d="M9.1,23L9.1,23c-0.5-0.3-0.6-0.8-0.3-1.2l9.8-14.9l1.5,1l-9.8,14.9C10,23.1,9.5,23.2,9.1,23L9.1,23z"/>
	</g>
	<path class="st7" d="M19.5,7.4L9.9,21.9c-0.2,0.4-0.8,0.5-1.1,0.2l-0.1-0.1c0,0.3,0.1,0.6,0.4,0.8L9.1,23c0.4,0.2,0.9,0.1,1.1-0.2
		l9.8-14.9L19.5,7.4z"/>
	<g>
		<path class="st8" d="M18.9,8.1c1.8,1.2,3.2,2.9,4,4.7c0,0.1,0.2,0.1,0.2,0c0.1-2.4-1.1-4.8-3.2-6.2s-4.8-1.5-7-0.5
			c-0.1,0-0.1,0.2,0,0.2C15,6.3,17,6.9,18.9,8.1L18.9,8.1z"/>
	</g>
	<g>
		<path class="st9" d="M19.9,6.6c-1.8-1.2-3.9-1.5-5.9-0.9c1.7-0.2,3.4,0.1,5,1.1c1.6,1.1,2.7,2.7,3.1,4.5c0.3,0.5,0.6,1,0.9,1.6
			c0,0.1,0.2,0.1,0.2,0C23.2,10.4,22,8,19.9,6.6L19.9,6.6z"/>
	</g>
	<g>
		<path class="st8" d="M19.2,9.6l-1.8-1.2c-0.2-0.1-0.2-0.3-0.1-0.5l1.5-2.3c0.1-0.2,0.3-0.2,0.5-0.1L21,6.8
			c0.2,0.1,0.2,0.3,0.1,0.5l-1.5,2.3C19.5,9.7,19.3,9.7,19.2,9.6z"/>
	</g>
	<g>
		<path class="st9" d="M20.6,6.5l-1.2,1.9c-0.1,0.2-0.3,0.2-0.5,0.1l-1.4-0.9L17.2,8c-0.1,0.2-0.1,0.4,0.1,0.5l1.8,1.2
			c0.2,0.1,0.4,0.1,0.5-0.1l1.5-2.3c0.1-0.2,0.1-0.4-0.1-0.5L20.6,6.5z"/>
	</g>
	<g>
		<path d="M10.4,19.8L10.4,19.8L9,21.9c-0.1,0.1-0.1,0.3-0.1,0.4c0,0.1,0.1,0.3,0.2,0.4l0.1,0.1c0.1,0.1,0.3,0.1,0.4,0.1
			c0.1,0,0.3-0.1,0.4-0.2l0.7-1.1l0,0l7.4-11.3l0.1,0.7l-7.4,11.3l-0.4,0.7c-0.2,0.2-0.4,0.4-0.7,0.5c-0.3,0.1-0.6,0-0.8-0.2
			l-0.1-0.1c-0.2-0.2-0.4-0.4-0.5-0.7c-0.1-0.3,0-0.6,0.2-0.8l1.2-1.8l0.4-0.7l0,0l5.6-8.4c0.1,0,0.1,0,0.2,0c0,0,0,0,0.1,0l0.1,0.4
			L10.4,19.8z"/>
		<path d="M22.4,8.9c-0.1-0.1-0.2-0.2-0.3-0.1c-0.1,0.1-0.2,0.2-0.1,0.3c0.5,0.9,0.8,2,0.9,3c-0.6-1.2-1.5-2.3-2.5-3.2l0.7-1
			c0.1,0.1,0.2,0.2,0.3,0.4c0.1,0.1,0.2,0.1,0.2,0.1c0,0,0.1,0,0.1,0c0.1-0.1,0.1-0.2,0-0.3c-0.1-0.2-0.3-0.3-0.4-0.5l0.1-0.1
			c0.1-0.1,0.1-0.3,0.1-0.4c0-0.1-0.1-0.3-0.2-0.4l-1.8-1.2c-0.1-0.1-0.3-0.1-0.4-0.1s-0.3,0.1-0.4,0.2l-0.1,0.1
			c-1.8-0.7-3.9-0.6-5.7,0.2c-0.1,0.1-0.2,0.2-0.2,0.4c0,0.2,0.2,0.3,0.3,0.3c1.5,0,3,0.4,4.3,1L17,7.8c-0.2,0.3-0.1,0.6,0.1,0.8
			L16.2,10L16,10.4l-0.1,0.2L15.6,11l0,0c0.2,0,0.3,0.1,0.3,0.2c0,0,0.1,0,0.1,0l0,0l0.4-0.7l0,0l0.2-0.2c0,0,0,0,0,0l0.9-1.4
			l1.1,0.7l-0.7,1.1c0.1,0.1,0.3,0.2,0.3,0.4c0,0,0,0,0,0l0,0l0.3-0.4l0.2-0.4l0.3-0.4c0.1,0.1,0.3,0.1,0.4,0.1
			c0.1,0,0.3-0.1,0.4-0.2L20,9.3c1.1,1,2,2.2,2.6,3.6c0.1,0.1,0.2,0.2,0.4,0.2c0.1,0,0.1-0.1,0.2-0.1c0-0.1,0.1-0.1,0.1-0.2
			C23.4,11.4,23,10.1,22.4,8.9z M13.6,6c1.5-0.5,3.2-0.5,4.7,0l-0.7,1C16.3,6.5,14.9,6.2,13.6,6z M19.4,9.4c0,0-0.1,0-0.1,0
			l-0.2-0.1l-1.6-1.1c0,0,0,0,0-0.1c0,0,0,0,0-0.1l1.3-2L19,5.8c0,0,0,0,0.1,0c0,0,0,0,0.1,0L20.9,7c0,0,0,0,0,0.1c0,0,0,0,0,0.1
			L19.4,9.4z"/>
	</g>
</g>
</svg>
