<?xml version="1.0" encoding="utf-8"?>
<!-- Generator: Adobe Illustrator 24.0.1, SVG Export Plug-In . SVG Version: 6.00 Build 0)  -->
<svg version="1.1" id="Group_9077" xmlns="http://www.w3.org/2000/svg" xmlns:xlink="http://www.w3.org/1999/xlink" x="0px" y="0px"
	 viewBox="0 0 24 24" style="enable-background:new 0 0 24 24;" xml:space="preserve">
<style type="text/css">
	.st0{fill:#707070;}
</style>
<path class="st0" d="M22.6,13.3c-2.4-2.9-6.3-4.8-10.7-4.8c-4.4,0-8.3,1.9-10.7,4.8c2-3.9,6-6.5,10.7-6.5
	C16.5,6.7,20.6,9.4,22.6,13.3z"/>
<path class="st0" d="M12.1,7.1c-2.7,0-4.9,2.2-4.9,4.9s2.2,4.9,4.9,4.9c2.7,0,4.9-2.2,4.9-4.9S14.8,7.1,12.1,7.1z M12.1,14.2
	c-1.2,0-2.2-1-2.2-2.2s1-2.2,2.2-2.2s2.2,1,2.2,2.2S13.3,14.2,12.1,14.2z"/>
</svg>
