<?xml version="1.0" encoding="utf-8"?>
<!-- Generator: Adobe Illustrator 24.0.2, SVG Export Plug-In . SVG Version: 6.00 Build 0)  -->
<svg version="1.1" id="Group_9077" xmlns="http://www.w3.org/2000/svg" xmlns:xlink="http://www.w3.org/1999/xlink" x="0px" y="0px"
	 viewBox="0 0 24 24" style="enable-background:new 0 0 24 24;" xml:space="preserve">
<style type="text/css">
	.st0{fill:#E3F2FF;}
	.st1{fill:#4DBBEB;}
	.st2{fill:#57555C;}
	.st3{fill:#FFFFFF;}
</style>
<path class="st0" d="M12.1,8c3.7,0,7.2,2.2,9.6,4.7c-1.9,3.2-5.6,5.4-9.6,5.4s-7.7-2.2-9.6-5.4C4.9,10.1,8.5,8,12.1,8z"/>
<path class="st1" d="M15,13c0-1.6-1.3-2.9-2.9-2.9c-1.7,0-2.9,1.4-2.9,2.9c0,1.6,1.3,2.9,2.9,2.9C13.7,15.9,15,14.6,15,13z"/>
<path class="st2" d="M12.1,12.1c0.5,0,0.8,0.4,0.8,0.8s-0.4,0.8-0.8,0.8s-0.8-0.4-0.8-0.8S11.6,12.1,12.1,12.1z"/>
<path class="st3" d="M9.9,11.6c0.2-0.2,0.2-0.4,0-0.6c-0.2-0.2-0.4-0.2-0.6,0c-0.2,0.2-0.2,0.4,0,0.6C9.5,11.8,9.7,11.8,9.9,11.6z"
	/>
<path class="st3" d="M13.4,13c0-0.7-0.6-1.3-1.3-1.3c-0.7,0-1.3,0.6-1.3,1.3s0.6,1.3,1.3,1.3C12.8,14.2,13.4,13.7,13.4,13z M11.7,13
	c0-0.2,0.2-0.4,0.4-0.4c0.2,0,0.4,0.2,0.4,0.4c0,0.2-0.2,0.4-0.4,0.4C11.9,13.4,11.7,13.2,11.7,13z"/>
<path class="st3" d="M12.1,16.3c1.8,0,3.3-1.5,3.3-3.3S14,9.6,12.1,9.6c-0.5,0-0.9,0.1-1.3,0.3c-0.2,0.1-0.3,0.3-0.2,0.6
	s0.3,0.3,0.6,0.2c0.3-0.1,0.7-0.2,1-0.2c1.4,0,2.5,1.1,2.5,2.5s-1.1,2.5-2.5,2.5S9.6,14.4,9.6,13c0,0,0,0,0,0c0-0.2-0.2-0.4-0.4-0.4
	c-0.2,0-0.4,0.2-0.4,0.4c0,0,0,0,0,0.1C8.8,14.8,10.3,16.3,12.1,16.3z"/>
<path class="st3" d="M12.5,6.3V3.8c0-0.2-0.2-0.4-0.4-0.4s-0.4,0.2-0.4,0.4v2.5c0,0.2,0.2,0.4,0.4,0.4S12.5,6.5,12.5,6.3z"/>
<path class="st3" d="M7.5,7.1c0.2-0.2,0.2-0.4,0-0.6L5.7,4.7c-0.2-0.2-0.4-0.2-0.6,0c-0.2,0.2-0.2,0.4,0,0.6l1.8,1.8
	C7,7.2,7.3,7.2,7.5,7.1z"/>
<path class="st3" d="M17.4,7.1l1.8-1.8c0.2-0.2,0.2-0.4,0-0.6c-0.2-0.2-0.4-0.2-0.6,0l-1.8,1.8c-0.2,0.2-0.2,0.4,0,0.6
	C17,7.2,17.2,7.2,17.4,7.1z"/>
<path class="st3" d="M1.5,13c-0.2,0.2-0.1,0.4,0,0.6c0.2,0.2,0.4,0.1,0.6,0c0.1-0.1,0.2-0.2,0.3-0.3c2.1,3.1,5.8,5.1,9.7,5.1
	s7.6-2,9.7-5.1c0.1,0.1,0.2,0.2,0.3,0.3c0.2,0.2,0.4,0.2,0.6,0c0.2-0.2,0.2-0.4,0-0.6c-2.7-3-6.6-5.5-10.6-5.5
	C8.1,7.5,4.2,10,1.5,13z M12.1,8.4c4.2,0,7.6,2.8,9.1,4.3c-1.9,3-5.4,4.9-9.1,4.9S4.9,15.7,3,12.7C4.5,11.2,8,8.4,12.1,8.4z"/>
</svg>
