<?xml version="1.0" encoding="utf-8"?>
<!-- Generator: Adobe Illustrator 24.0.2, SVG Export Plug-In . SVG Version: 6.00 Build 0)  -->
<svg version="1.1" id="ic_locked" xmlns="http://www.w3.org/2000/svg" xmlns:xlink="http://www.w3.org/1999/xlink" x="0px" y="0px"
	 viewBox="0 0 24 24" style="enable-background:new 0 0 24 24;" xml:space="preserve">
<style type="text/css">
	.st0{fill:#303C42;}
	.st1{fill:#F2F2F2;}
	.st2{fill:#006DF0;}
	.st3{fill:#7CBAF7;}
	.st4{fill:#08539E;}
	.st5{fill:#FFFFFF;}
</style>
<g>
	<path class="st0" d="M19.8,9.5h-1.4V7.6c0-3.6-2.9-6.5-6.5-6.5S5.4,4,5.4,7.6v1.9H4c-0.3,0-0.5,0.2-0.5,0.5v11.6
		c0,1,0.8,1.9,1.9,1.9h13c1,0,1.9-0.8,1.9-1.9V9.9C20.3,9.7,20.1,9.5,19.8,9.5z M15.7,9.5H8.2V7.6c0-2.1,1.7-3.7,3.7-3.7
		s3.7,1.7,3.7,3.7V9.5z"/>
	<path class="st1" d="M6.4,7.6C6.4,4.5,8.9,2,11.9,2s5.6,2.5,5.6,5.6v1.9h-0.9V7.6C16.6,5,14.5,3,11.9,3S7.3,5,7.3,7.6v1.9H6.4V7.6z
		"/>
	<path class="st2" d="M19.4,21.6c0,0.5-0.4,0.9-0.9,0.9h-13c-0.5,0-0.9-0.4-0.9-0.9V10.4h14.9V21.6z"/>
	<path class="st3" d="M6.4,21.6V10.4H4.5v11.2c0,0.5,0.4,0.9,0.9,0.9h1.6C6.7,22.5,6.4,22.1,6.4,21.6z"/>
	<path class="st4" d="M17.5,10.4v11.2c0,0.5-0.3,0.9-0.7,0.9h1.6c0.5,0,0.9-0.4,0.9-0.9V10.4H17.5L17.5,10.4z"/>
	<path class="st5" d="M14.2,16.5c-0.4,0-0.8,0.2-1.1,0.4c0,0.1-0.1,0.1-0.2,0l-0.8-0.4c-0.1,0-0.1-0.1-0.1-0.1l0-0.9
		c0-0.1,0-0.1,0.1-0.1c0.7-0.2,1.1-0.8,1.1-1.5c0-0.8-0.7-1.5-1.5-1.5c-0.8,0-1.5,0.7-1.5,1.5c0,0.7,0.5,1.3,1.1,1.5
		c0.1,0,0.1,0.1,0.1,0.1l0,0.9c0,0.1,0,0.1-0.1,0.1L10.7,17c-0.1,0-0.1,0-0.2,0c-0.3-0.3-0.7-0.5-1.1-0.5C8.6,16.5,8,17.2,8,18
		c0,0.8,0.7,1.5,1.5,1.5c0.8,0,1.5-0.7,1.5-1.5c0-0.1,0-0.3-0.1-0.4c0-0.1,0-0.1,0.1-0.2l0.8-0.4c0.1,0,0.1,0,0.2,0l0.7,0.4
		c0.1,0,0.1,0.1,0.1,0.2c0,0.1-0.1,0.3-0.1,0.4c0,0.8,0.7,1.5,1.5,1.5c0.8,0,1.5-0.7,1.5-1.5C15.7,17.2,15,16.5,14.2,16.5z"/>
	<path class="st5" d="M11.2,18.9c-0.3,0.6-1,1.1-1.8,1.1c-1.1,0-2-0.9-2-2c0-1.1,0.9-2,2-2c0.5,0,1,0.2,1.3,0.5l0.4-0.2l0-0.5
		c-0.5-0.4-1.1-0.6-1.7-0.6c-1.5,0-2.8,1.2-2.8,2.8c0,1.5,1.2,2.8,2.8,2.8c0.9,0,1.7-0.4,2.2-1C11.5,19.5,11.3,19.2,11.2,18.9z"/>
	<path class="st5" d="M11.8,11.1c-1.5,0-2.8,1.2-2.8,2.8c0,0.4,0.1,0.7,0.2,1c0.1,0,0.2,0,0.2,0c0.2,0,0.5,0,0.7,0.1
		c-0.2-0.3-0.3-0.7-0.3-1.1c0-1.1,0.9-2,2-2c1.1,0,2,0.9,2,2c0,0.9-0.6,1.6-1.4,1.9l0,0.5l0.4,0.2c1-0.4,1.8-1.4,1.8-2.6
		C14.6,12.4,13.4,11.1,11.8,11.1z"/>
	<path class="st5" d="M14.5,15.2c-0.1,0.3-0.3,0.5-0.5,0.8c0.1,0,0.1,0,0.2,0c1.1,0,2,0.9,2,2c0,1.1-0.9,2-2,2c-1.1,0-2-0.9-2-2
		c0-0.1,0-0.3,0-0.4l-0.4-0.2l-0.4,0.2c0,0.1,0,0.3,0,0.4c0,1.5,1.2,2.8,2.8,2.8c1.5,0,2.8-1.2,2.8-2.8C17,16.6,15.9,15.4,14.5,15.2
		z"/>
</g>
</svg>
