<?xml version="1.0" encoding="utf-8"?>
<!-- Generator: Adobe Illustrator 24.0.2, SVG Export Plug-In . SVG Version: 6.00 Build 0)  -->
<svg version="1.1" id="Group_9077" xmlns="http://www.w3.org/2000/svg" xmlns:xlink="http://www.w3.org/1999/xlink" x="0px" y="0px"
	 viewBox="0 0 24 24" style="enable-background:new 0 0 24 24;" xml:space="preserve">
<style type="text/css">
	.st0{fill:#E3F2FF;}
	.st1{fill:#4DBBEB;}
	.st2{fill:#57555C;}
</style>
<path class="st0" d="M12.2,8.2c3.6,0,7,2.1,9.4,4.6c-1.8,3.1-5.5,5.3-9.4,5.3s-7.6-2.1-9.4-5.3C5.2,10.3,8.6,8.2,12.2,8.2z"/>
<path class="st1" d="M15,13.1c0-1.6-1.3-2.9-2.9-2.9c-1.6,0-2.9,1.3-2.9,2.9c0,1.6,1.3,2.9,2.9,2.9C13.8,16,15,14.7,15,13.1z"/>
<path class="st2" d="M12.2,12.3c0.5,0,0.8,0.4,0.8,0.8s-0.4,0.8-0.8,0.8c-0.5,0-0.8-0.4-0.8-0.8S11.7,12.3,12.2,12.3z"/>
<path d="M10,11.8c0.2-0.2,0.2-0.4,0-0.6c-0.2-0.2-0.4-0.2-0.6,0c-0.2,0.2-0.2,0.4,0,0.6C9.6,11.9,9.9,11.9,10,11.8z"/>
<path d="M13.4,13.1c0-0.7-0.6-1.2-1.2-1.2S11,12.4,11,13.1s0.6,1.2,1.2,1.2S13.4,13.8,13.4,13.1z M11.8,13.1c0-0.2,0.2-0.4,0.4-0.4
	c0.2,0,0.4,0.2,0.4,0.4s-0.2,0.4-0.4,0.4C12,13.5,11.8,13.3,11.8,13.1z"/>
<path d="M12.2,16.4c1.8,0,3.3-1.5,3.3-3.3S14,9.8,12.2,9.8c-0.5,0-0.9,0.1-1.3,0.3c-0.2,0.1-0.3,0.3-0.2,0.5
	c0.1,0.2,0.3,0.3,0.5,0.2c0.3-0.1,0.6-0.2,1-0.2c1.4,0,2.5,1.1,2.5,2.5s-1.1,2.5-2.5,2.5s-2.5-1.1-2.5-2.5c0,0,0,0,0,0
	c0-0.2-0.2-0.4-0.4-0.4c-0.2,0-0.4,0.2-0.4,0.4c0,0,0,0,0,0.1C8.9,14.9,10.4,16.4,12.2,16.4z"/>
<path d="M12.6,6.6V4.1c0-0.2-0.2-0.4-0.4-0.4c-0.2,0-0.4,0.2-0.4,0.4v2.5C11.8,6.8,12,7,12.2,7S12.6,6.8,12.6,6.6z"/>
<path d="M7.6,7.3c0.2-0.2,0.2-0.4,0-0.6L5.9,5C5.7,4.8,5.5,4.8,5.3,5c-0.2,0.2-0.2,0.4,0,0.6L7,7.3C7.2,7.5,7.5,7.5,7.6,7.3z"/>
<path d="M17.3,7.3l1.7-1.7c0.2-0.2,0.2-0.4,0-0.6c-0.2-0.2-0.4-0.2-0.6,0l-1.7,1.7c-0.2,0.2-0.2,0.4,0,0.6
	C16.9,7.5,17.2,7.5,17.3,7.3z"/>
<path d="M1.8,13.2c-0.1,0.2-0.1,0.4,0,0.6c0.2,0.1,0.4,0.1,0.6,0c0.1-0.1,0.2-0.2,0.3-0.3c2,3.1,5.7,5,9.5,5s7.5-1.9,9.5-5
	c0.1,0.1,0.2,0.2,0.3,0.3c0.1,0.2,0.4,0.2,0.6,0c0.2-0.1,0.2-0.4,0-0.6c-2.6-2.9-6.5-5.4-10.4-5.4C8.3,7.8,4.4,10.2,1.8,13.2z
	 M12.2,8.6c4.1,0,7.4,2.8,8.9,4.2c-1.8,2.9-5.3,4.8-8.9,4.8s-7.1-1.9-8.9-4.8C4.7,11.4,8.1,8.6,12.2,8.6z"/>
</svg>
