<?xml version="1.0" encoding="utf-8"?>
<!-- Generator: Adobe Illustrator 24.0.2, SVG Export Plug-In . SVG Version: 6.00 Build 0)  -->
<svg version="1.1" id="ic_dark_staking_on" xmlns="http://www.w3.org/2000/svg" xmlns:xlink="http://www.w3.org/1999/xlink" x="0px"
	 y="0px" viewBox="0 0 100 100" style="enable-background:new 0 0 100 100;" xml:space="preserve">
<style type="text/css">
	.st0{fill:#0F9AEF;}
	.st1{fill:#075893;}
	.st2{fill:#80D5FF;}
	.st3{fill:#FFFFFF;}
	.st4{fill:#00FFF8;}
</style>
<path class="st0" d="M38.1,61.1v32.1L10.6,78V45.9"/>
<path class="st1" d="M38.1,61.1v32.1L65.6,78V45.9"/>
<path class="st2" d="M10.4,44.9l27.7-15.3l27.7,15.3L38.1,60.2L10.4,44.9z"/>
<path class="st3" d="M46.7,67.7c-0.6,0-1.2-0.2-1.6-0.7c-0.1-0.1-0.2-0.2-0.3-0.3c-0.1-0.1-0.2-0.3-0.2-0.4
	c-0.1-0.1-0.1-0.3-0.1-0.4c0-0.1,0-0.3,0-0.4c0-0.1,0-0.3,0-0.4c0-0.1,0.1-0.3,0.1-0.4c0.1-0.1,0.1-0.3,0.2-0.4
	c0.1-0.1,0.2-0.2,0.3-0.3c0.4-0.4,1-0.7,1.6-0.7s1.2,0.2,1.6,0.7c0.1,0.1,0.2,0.2,0.3,0.3c0.1,0.1,0.1,0.3,0.2,0.4
	c0.1,0.1,0.1,0.3,0.1,0.4c0,0.1,0,0.3,0,0.4c0,0.1,0,0.3,0,0.4c0,0.1-0.1,0.3-0.1,0.4c-0.1,0.1-0.1,0.3-0.2,0.4
	c-0.1,0.1-0.2,0.2-0.3,0.3C47.9,67.4,47.3,67.7,46.7,67.7z"/>
<path class="st3" d="M66.9,42.9L39.2,27.6c-0.7-0.4-1.5-0.4-2.2,0L9.3,42.9c-0.7,0.4-1.2,1.4-1.2,2.7v32.3c0,0.8,0.4,1.6,1.2,2
	c0,0,27.7,15.4,27.7,15.4c1.1,0.7,2.1,0,2.1,0c0,0,27.8-15.4,27.8-15.4c0.7-0.4,1.2-1.2,1.2-2V45.6C68.1,43.9,67.6,43.3,66.9,42.9z
	 M38.1,32.1l23,12.8l-23,12.8l-23-12.8L38.1,32.1z M12.6,48.7l23.2,12.8v27.8L12.6,76.6V48.7z M49,84.6V74.1c0-1.2-1-2.3-2.3-2.3
	s-2.3,1-2.3,2.3v13l-4.1,2.3V61.6l23.2-12.8v27.8L49,84.6z"/>
<path class="st0" d="M79,24.4v4.9H66.9c-1.4,0-2.5,1.1-2.5,2.5v4.7c0,1.4,1.1,2.5,2.5,2.5H79v4.9l11.4-9.7L79,24.4z"/>
<path class="st3" d="M92.9,34.1L77.4,47.4v-6.8h-9.3c-2.9,0-5.3-2.4-5.3-5.3V33c0-2.9,2.4-5.3,5.3-5.3h9.3v-6.8L92.9,34.1z
	 M80.7,40.3l7.2-6.2l-7.2-6.2v3h-12c-1.4,0-2.6,1.2-2.6,2.6v1.3c0,1.4,1.2,2.6,2.6,2.6h12V40.3z"/>
<path class="st4" d="M57.1,28.1v-4.9h12.1c1.4,0,2.5-1.1,2.5-2.5V16c0-1.4-1.1-2.5-2.5-2.5H57.1V8.6l-11.4,9.7L57.1,28.1z"/>
<path class="st3" d="M43.2,18.3L58.7,5.1v6.8H68c2.9,0,5.3,2.4,5.3,5.3v2.3c0,2.9-2.4,5.3-5.3,5.3h-9.3v6.8L43.2,18.3z M55.4,12.1
	l-7.2,6.2l7.2,6.2v-3h12c1.4,0,2.6-1.2,2.6-2.6v-1.3c0-1.4-1.2-2.6-2.6-2.6h-12V12.1z"/>
</svg>
