<?xml version="1.0" encoding="utf-8"?>
<!-- Generator: Adobe Illustrator 24.0.2, SVG Export Plug-In . SVG Version: 6.00 Build 0)  -->
<svg version="1.1" id="Capa_1" xmlns="http://www.w3.org/2000/svg" xmlns:xlink="http://www.w3.org/1999/xlink" x="0px" y="0px"
	 viewBox="0 0 314.6 100" style="enable-background:new 0 0 314.6 100;" xml:space="preserve">
<style type="text/css">
	.st0{fill:#FFFFFF;}
	.st1{fill:url(#SVGID_1_);}
</style>
<title>Artboard</title>
<desc>Created with Sketch.</desc>
<g>
	<path class="st0" d="M44.9,53.8c1.3,1.7,1.9,3.7,1.9,6c0,3.4-1.4,6.1-4.1,7.9c-2.8,1.9-6.7,2.8-11.9,2.8H9.7v-39h20
		c5,0,8.8,0.9,11.4,2.8c2.6,1.8,3.9,4.3,3.9,7.4c0,1.9-0.5,3.5-1.4,5s-2.2,2.6-3.9,3.5C41.9,50.9,43.7,52.2,44.9,53.8z M20.6,39.4
		v7.5h7.6c3.7,0,5.6-1.3,5.6-3.8s-1.9-3.7-5.6-3.7H20.6z M35.7,58.6c0-2.6-1.9-4-5.8-4h-9.3v7.9h9.3C33.7,62.5,35.7,61.2,35.7,58.6z
		"/>
	<path class="st0" d="M47.9,40.3h10.6v30.2H47.9V40.3z M59.1,31.7c0,3.3-2.6,5.9-5.9,5.9s-5.9-2.6-5.9-5.9s2.6-5.9,5.9-5.9
		S59.1,28.4,59.1,31.7z"/>
	<path class="st0" d="M81,61.9c-0.9,0.6-2,0.9-3.2,0.9c-1,0-1.7-0.3-2.3-0.9c-0.6-0.6-0.9-1.5-0.9-2.5v-10h4.7
		c0.2-2.9,0.9-5.5,2.2-7.9v-0.1h-6.9v-7.9H64v7.9h-4.4v7.9H64v10.2c0,3.8,1.1,6.7,3.2,8.6s5.2,2.9,9.1,2.9c1.5,0,2.8-0.1,4.1-0.4
		c1.3-0.3,2.4-0.7,3.3-1.3L81,61.9z"/>
	<path class="st0" d="M91.4,68.7c-3.3-1.7-5.8-4.1-7.7-7.2c-1.9-3.1-2.8-6.6-2.8-10.5s0.9-7.4,2.8-10.5s4.4-5.5,7.7-7.2
		c3.3-1.7,6.9-2.6,11-2.6c3.6,0,6.8,0.6,9.7,1.9c2.9,1.3,5.2,3.1,7.1,5.5l-7,6.4c-2.5-3-5.6-4.6-9.2-4.6c-2.1,0-4,0.5-5.7,1.4
		s-2.9,2.2-3.9,3.9C92.5,46.9,92,48.8,92,51s0.5,4.1,1.4,5.8s2.2,3,3.9,3.9c1.7,0.9,3.5,1.4,5.7,1.4c3.6,0,6.7-1.5,9.2-4.6l7,6.4
		c-1.9,2.4-4.3,4.2-7.1,5.5c-2.9,1.3-6.1,1.9-9.7,1.9C98.3,71.3,94.6,70.4,91.4,68.7z"/>
	<path class="st0" d="M120.4,29.1H131v41.4h-10.6V29.1z"/>
	<path class="st0" d="M140.1,69c-2.6-1.3-4.6-3.2-6.1-5.6c-1.5-2.4-2.2-5.1-2.2-8.1s0.7-5.7,2.2-8c1.5-2.4,3.5-4.2,6.1-5.6
		c2.6-1.3,5.5-2,8.8-2s6.2,0.7,8.8,2s4.6,3.2,6.1,5.5c1.5,2.4,2.2,5.1,2.2,8.1s-0.7,5.7-2.2,8.1s-3.5,4.2-6.1,5.6
		c-2.6,1.3-5.5,2-8.8,2S142.7,70.4,140.1,69z M153.4,60.7c1.2-1.3,1.8-3.1,1.8-5.3s-0.6-4-1.8-5.2c-1.2-1.3-2.7-1.9-4.6-1.9
		c-1.9,0-3.4,0.6-4.6,1.9c-1.2,1.3-1.8,3-1.8,5.2c0,2.3,0.6,4,1.8,5.3s2.7,1.9,4.6,1.9C150.7,62.6,152.2,62,153.4,60.7z"/>
	<path class="st0" d="M198.5,40.3v30.2h-10.1v-3.2c-1.1,1.2-2.5,2.2-4,2.8c-1.6,0.6-3.2,0.9-5,0.9c-3.9,0-7-1.2-9.3-3.5
		s-3.5-5.8-3.5-10.4V40.3h10.6v15.2c0,2.3,0.4,3.9,1.3,5c0.9,1,2.1,1.6,3.7,1.6c1.7,0,3-0.6,4.1-1.8s1.6-3,1.6-5.4V40.3H198.5z"/>
	<path class="st0" d="M233.2,29.1v41.4h-10.1v-3c-2,2.3-4.9,3.5-8.9,3.5c-2.8,0-5.3-0.6-7.5-1.9c-2.3-1.3-4.1-3.1-5.4-5.5
		c-1.3-2.4-2-5.1-2-8.3c0-3.1,0.7-5.9,2-8.2c1.3-2.4,3.1-4.2,5.4-5.4c2.3-1.3,4.8-1.9,7.5-1.9c3.6,0,6.4,1,8.4,3.1V29.1H233.2z
		 M221,60.7c1.2-1.3,1.8-3.1,1.8-5.3s-0.6-4-1.8-5.2c-1.2-1.3-2.7-1.9-4.5-1.9c-1.9,0-3.4,0.6-4.6,1.9c-1.2,1.3-1.8,3-1.8,5.2
		c0,2.3,0.6,4,1.8,5.3s2.7,1.9,4.6,1.9C218.3,62.6,219.8,62,221,60.7z"/>
</g>
<linearGradient id="SVGID_1_" gradientUnits="userSpaceOnUse" x1="278.6105" y1="80.2259" x2="272.2488" y2="20.9254">
	<stop  offset="0" style="stop-color:#00C7FF"/>
	<stop  offset="0.2807" style="stop-color:#00BEFF"/>
	<stop  offset="0.7459" style="stop-color:#00A4FF"/>
	<stop  offset="0.9944" style="stop-color:#0094FF"/>
</linearGradient>
<circle class="st1" cx="275.4" cy="50.3" r="30.1"/>
<g>
	<path class="st0" d="M285.4,49.6c-1.8,0-3.4,0.7-4.6,1.9c-0.2,0.2-0.5,0.3-0.8,0.1l-3.2-1.9c-0.2-0.1-0.3-0.4-0.3-0.6l0-3.6
		c0-0.3,0.2-0.6,0.5-0.6c2.8-0.7,4.8-3.2,4.8-6.2c0-3.5-2.8-6.3-6.3-6.4c-3.5,0-6.4,2.8-6.4,6.4c0,3,2,5.5,4.8,6.2
		c0.3,0.1,0.5,0.3,0.5,0.6l0,3.7c0,0.3-0.1,0.5-0.4,0.6l-3.2,1.8c-0.3,0.1-0.6,0.1-0.8-0.1c-1.2-1.2-2.8-1.9-4.6-1.9
		c-3.5,0-6.3,2.9-6.3,6.4c0,3.5,2.8,6.3,6.3,6.3c3.5,0,6.4-2.8,6.4-6.4c0-0.6-0.1-1.2-0.2-1.7c-0.1-0.3,0-0.6,0.3-0.7l3.2-1.9
		c0.2-0.1,0.5-0.1,0.7,0l3.1,1.8c0.3,0.1,0.4,0.5,0.3,0.7c-0.2,0.6-0.2,1.1-0.2,1.8c0,3.5,2.9,6.4,6.4,6.4c3.5,0,6.3-2.8,6.4-6.3
		C291.7,52.5,288.9,49.6,285.4,49.6z"/>
	<path class="st0" d="M273.1,59.5c-1.3,2.9-4.2,4.9-7.6,4.9c-4.6,0-8.4-3.8-8.4-8.4c0-4.6,3.8-8.4,8.4-8.4c2.1,0,4.1,0.8,5.6,2.1
		l1.5-0.8l0.1-2.2c-2-1.6-4.5-2.5-7.2-2.5c-6.5,0-11.7,5.2-11.7,11.7s5.2,11.7,11.7,11.7c3.8,0,7.2-1.8,9.3-4.6
		C274,62,273.4,60.8,273.1,59.5z"/>
	<path class="st0" d="M275.4,27c-6.5,0-11.7,5.2-11.7,11.7c0,1.7,0.3,3.2,1,4.7c0.3,0,0.6,0,0.9,0c1.1,0,2.1,0.1,3.1,0.4
		c-1.1-1.4-1.7-3.1-1.7-5c0-4.6,3.8-8.4,8.4-8.4c4.6,0,8.4,3.8,8.4,8.4c0,3.8-2.5,6.9-5.9,8l0,2l1.6,0.9c4.4-1.7,7.5-6,7.5-11
		C287.1,32.2,281.8,27,275.4,27z"/>
	<path class="st0" d="M286.9,44.3c-0.6,1.2-1.4,2.3-2.3,3.3c0.2,0,0.5,0,0.7,0c4.6,0,8.4,3.8,8.4,8.4c0,4.6-3.8,8.4-8.4,8.4
		c-4.6,0-8.4-3.8-8.4-8.4c0-0.6,0.1-1.2,0.2-1.7l-1.6-0.8l-1.7,0.8c-0.1,0.6-0.1,1.1-0.1,1.7c0,6.5,5.2,11.7,11.7,11.7
		c6.5,0,11.7-5.2,11.7-11.7C297.1,50,292.6,45.1,286.9,44.3z"/>
</g>
<path class="st0" d="M275.4,21.4c-15.9,0-28.9,12.9-28.9,28.9s12.9,28.9,28.9,28.9s28.9-12.9,28.9-28.9S291.3,21.4,275.4,21.4z
	 M275.4,75.4c-13.9,0-25.2-11.3-25.2-25.2s11.3-25.2,25.2-25.2c13.9,0,25.2,11.3,25.2,25.2S289.3,75.4,275.4,75.4z"/>
<path class="st0" d="M275.4,25.5c-13.6,0-24.7,11.1-24.7,24.7S261.8,75,275.4,75c13.6,0,24.7-11.1,24.7-24.7S289,25.5,275.4,25.5z
	 M275.4,74.4c-13.3,0-24.1-10.8-24.1-24.1s10.8-24.1,24.1-24.1s24.1,10.8,24.1,24.1S288.7,74.4,275.4,74.4z"/>
</svg>
