<?xml version="1.0" encoding="utf-8"?>
<!-- Generator: Adobe Illustrator 24.0.2, SVG Export Plug-In . SVG Version: 6.00 Build 0)  -->
<svg version="1.1" id="Group_9058" xmlns="http://www.w3.org/2000/svg" xmlns:xlink="http://www.w3.org/1999/xlink" x="0px" y="0px"
	 viewBox="0 0 100 100" style="enable-background:new 0 0 100 100;" xml:space="preserve">
<style type="text/css">
	.st0{fill:#FFFFFF;}
	.st1{fill:#2E80BC;}
	.st2{fill:#CCCCCC;}
</style>
<title>Address Book Send</title>
<desc>Created with Sketch.</desc>
<rect x="19.4" y="10.8" class="st0" width="58.6" height="77"/>
<path class="st1" d="M78,13.6h5.2v47.7l0,0c2,0,4,1.6,4,4v6.8c0,2-1.6,4-4,4l0,0v9.2H78V13.6z"/>
<g>
	<path class="st2" d="M15.8,17.6h8c1.6,0,2.8,1.2,2.8,2.8l0,0c0,1.6-1.2,2.8-2.8,2.8h-8C14.2,22.8,13,21.6,13,20l0,0
		C13,18.4,14.2,17.6,15.8,17.6z"/>
	<path class="st2" d="M15.8,32h8c1.6,0,2.8,1.2,2.8,2.8l0,0c0,1.6-1.2,2.8-2.8,2.8h-8c-1.6,0-2.8-1.2-2.8-2.8l0,0
		C13,33.2,14.2,32,15.8,32z"/>
	<path class="st2" d="M15.8,46.5h8c1.6,0,2.8,1.2,2.8,2.8l0,0c0,1.6-1.2,2.8-2.8,2.8h-8c-1.6,0-2.8-1.2-2.8-2.8l0,0
		C13,47.7,14.2,46.5,15.8,46.5z"/>
	<path class="st2" d="M15.8,61.3h8c1.6,0,2.8,1.2,2.8,2.8l0,0c0,1.6-1.2,2.8-2.8,2.8h-8c-1.6,0-2.8-1.2-2.8-2.8l0,0
		C13,62.5,14.2,61.3,15.8,61.3z"/>
	<path class="st2" d="M15.8,75.7h8c1.6,0,2.8,1.2,2.8,2.8l0,0c0,1.6-1.2,2.8-2.8,2.8h-8c-1.6,0-2.8-1.2-2.8-2.8l0,0
		C13,77,14.2,75.7,15.8,75.7z"/>
</g>
<g>
	<circle class="st1" cx="50.3" cy="30.8" r="5.2"/>
	<path class="st1" d="M50.3,36L50.3,36c4.4,0,8,3.6,8,8v8l0,0h-16l0,0v-8C42.3,39.7,45.9,36,50.3,36z"/>
</g>
<g>
	<path class="st0" d="M19.4,33.2c-0.4,0-1.2-0.4-1.2-1.2v-9.2c0-0.8,0.4-1.2,1.2-1.2c0.8,0,1.2,0.4,1.2,1.2V32
		C21,32.8,20.2,33.2,19.4,33.2z"/>
	<path class="st0" d="M19.4,48.1c-0.8,0-1.2-0.4-1.2-1.2v-9.2c0-0.8,0.4-1.2,1.2-1.2c0.8,0,1.2,0.4,1.2,1.2v9.2
		C21,47.3,20.2,48.1,19.4,48.1z"/>
	<path class="st0" d="M19.4,62.5c-0.8,0-1.2-0.4-1.2-1.2v-9.2c0-0.8,0.4-1.2,1.2-1.2c0.8,0,1.2,0.4,1.2,1.2v9.2
		C21,62.1,20.2,62.5,19.4,62.5z"/>
	<path class="st0" d="M19.4,77c-0.8,0-1.2-0.4-1.2-1.2v-9.2c0-0.8,0.4-1.2,1.2-1.2c0.8,0,1.2,0.4,1.2,1.2v9.2
		C21,76.6,20.2,77,19.4,77z"/>
	<path class="st0" d="M83.2,86.6H78c-0.8,0-1.2-0.4-1.2-1.2s0.4-1.2,1.2-1.2h4v-8c0-0.8,0.4-1.2,1.2-1.2c1.6,0,2.8-1.2,2.8-2.8v-6.8
		c0-1.6-1.2-2.8-2.8-2.8c-0.8,0-1.2-0.4-1.2-1.2V29.2c0-0.8,0.4-1.2,1.2-1.2s1.2,0.4,1.2,1.2v30.9c2.4,0.8,4,2.8,4,5.2v6.8
		c0,2.4-1.6,4.4-4,5.2v8C84.8,85.8,84,86.6,83.2,86.6z"/>
	<path class="st0" d="M83.2,25.2c-0.8,0-1.2-0.4-1.2-1.2v-1.2c0-0.8,0.4-1.2,1.2-1.2s1.2,0.4,1.2,1.2V24
		C84.8,24.8,84,25.2,83.2,25.2z"/>
	<path class="st0" d="M83.2,18.8c-0.8,0-1.2-0.4-1.2-1.2v-2.8h-4c-0.8,0-1.2-0.4-1.2-1.2c0-0.8,0.4-1.2,1.2-1.2h5.2
		c0.8,0,1.2,0.4,1.2,1.2v4C84.8,18,84,18.8,83.2,18.8z"/>
	<path class="st0" d="M23.4,53.3H17c-0.8,0-1.2-0.4-1.2-1.2c0-0.8,0.4-1.2,1.2-1.2h6.8c0.8,0,1.2-0.4,1.2-1.2s-0.4-1.2-1.2-1.2h-8
		c-0.8,0-1.2,0.4-1.2,1.2s-0.4,1.2-1.2,1.2s-1.2-0.4-1.2-1.2c0-2,1.6-4,4-4h8c2,0,4,1.6,4,4S25.9,53.3,23.4,53.3z"/>
	<path class="st0" d="M23.4,38.5H17c-0.8,0-1.2-0.4-1.2-1.2c0-0.8,0.4-1.2,1.2-1.2h6.8c0.8,0,1.2-0.4,1.2-1.2c0-0.8-0.4-1.2-1.2-1.2
		h-8c-0.8,0-1.2,0.4-1.2,1.2c0,0.8-0.4,1.2-1.2,1.2s-1.6-0.8-1.6-1.2c0-2,1.6-4,4-4h8c2,0,4,1.6,4,4C27.5,36.8,25.9,38.5,23.4,38.5z
		"/>
	<path class="st0" d="M23.4,24H17c-0.8,0-1.2-0.4-1.2-1.2s0.4-1.2,1.2-1.2h6.8c0.8,0,1.2-0.4,1.2-1.2c0-0.8-0.8-1.6-1.6-1.6h-8
		c-0.4,0-1.2,0.4-1.2,1.2c0,0.8-0.4,1.2-1.2,1.2s-1.2-0.4-1.2-1.2c0-2,1.6-4,4-4h8c2,0,4,1.6,4,4S25.9,24,23.4,24z"/>
	<path class="st0" d="M23.4,82.6H17c-0.8,0-1.2-0.4-1.2-1.2c0-0.8,0.4-1.2,1.2-1.2h6.8c0.8,0,1.2-0.4,1.2-1.2c0-0.8-0.4-1.2-1.2-1.2
		h-8c-0.8,0-1.2,0.4-1.2,1.2c0,0.8-0.4,1.2-1.2,1.2s-1.2-0.4-1.2-1.2c0-2,1.6-4,4-4h8c2,0,4,1.6,4,4C28.3,81.4,25.9,82.6,23.4,82.6z
		"/>
	<path class="st0" d="M23.4,67.7H17c-0.8,0-1.2-0.4-1.2-1.2c0-0.8,0.4-1.2,1.2-1.2h6.8c0.8,0,1.2-0.4,1.2-1.2c0-0.8-0.4-1.2-1.2-1.2
		h-8c-0.8,0-1.2,0.4-1.2,1.2c0,0.8-0.4,1.2-1.2,1.2s-1.2-0.4-1.2-1.2c0-2,1.6-4,4-4h8c2,0,4,1.6,4,4C28.3,66.5,25.9,67.7,23.4,67.7z
		"/>
	<path class="st0" d="M78,89H19.4c-0.8,0-1.2-0.4-1.2-1.2V85c0-0.8,0.4-1.2,1.2-1.2c0.8,0,1.2,0.4,1.2,1.2v1.2h55.7V71.7
		c0-0.8,0.4-1.2,1.2-1.2c0.8,0,1.2,0.4,1.2,1.2v16C79.2,88.6,78.8,89,78,89z"/>
	<path class="st0" d="M78,67.7c-0.8,0-1.2-0.4-1.2-1.2V12H21v5.2c0,0.8-0.4,1.2-1.2,1.2c-0.8,0-1.6-0.4-1.6-0.8v-6.8
		c0-0.8,0.4-1.2,1.2-1.2H78c0.8,0,1.2,0.4,1.2,1.2v55.7C79.2,67.3,78.8,67.7,78,67.7z"/>
	<path class="st0" d="M50.3,37.2c-3.6,0-6.8-2.8-6.8-6.8s2.8-6.4,6.8-6.4c3.6,0,6.8,2.8,6.8,6.8C56.7,34.4,53.9,37.2,50.3,37.2z
		 M50.3,26.8c-2,0-4,1.6-4,4s1.6,4,4,4c2.4,0,4-1.6,4-4S52.3,26.8,50.3,26.8z"/>
	<path class="st0" d="M57.9,53.3c-0.8,0-1.2-0.4-1.2-1.2v-8c0-3.6-2.8-6.8-6.8-6.8c-3.6,0-6.8,2.8-6.8,6.8v6.8h9.2
		c0.8,0,1.2,0.4,1.2,1.2c0,0.8-0.4,1.2-1.2,1.2H41.9c-0.8,0-1.2-0.4-1.2-1.2v-8c0-5.2,4-9.2,9.2-9.2s9.2,4,9.2,9.2v8
		C59.5,52.5,58.7,53.3,57.9,53.3z"/>
</g>
<path class="st0" d="M50.3,48.1c-0.8,0-1.2-0.4-1.2-1.2v-5.2c0-0.8,0.4-1.2,1.2-1.2c0.8,0,1.2,0.4,1.2,1.2v5.2
	C51.5,47.3,50.7,48.1,50.3,48.1z"/>
</svg>
