<?xml version="1.0" encoding="utf-8"?>
<!-- Generator: Adobe Illustrator 24.0.2, SVG Export Plug-In . SVG Version: 6.00 Build 0)  -->
<svg version="1.1" id="Capa_1" xmlns="http://www.w3.org/2000/svg" xmlns:xlink="http://www.w3.org/1999/xlink" x="0px" y="0px"
	 viewBox="0 0 100 100" style="enable-background:new 0 0 100 100;" xml:space="preserve">
<style type="text/css">
	.st0{fill:#068FFF;}
	.st1{fill:#284CB2;}
	.st2{fill:#06DAF7;}
	.st3{fill:#FFFFFF;}
	.st4{fill:#A6F9FF;}
</style>
<path class="st0" d="M44.1,54.7l-9.1-5v-9.1l9.1,5V54.7z"/>
<path class="st1" d="M44.1,54.7l9.1-5v-9.1l-9.1,5V54.7z"/>
<path class="st2" d="M35,40.6l9.1-5.2l9.1,5.2l-9.1,5L35,40.6z"/>
<path class="st0" d="M15.7,38l-9.1-5V24l9.1,5V38z"/>
<path class="st1" d="M15.7,38l9.1-5V24l-9.1,5L15.7,38z"/>
<path class="st2" d="M6.6,24l9.1-5.2l9.1,5.2l-9.1,5L6.6,24z"/>
<path class="st0" d="M15.7,71l-9.1-5V57l9.1,5V71z"/>
<path class="st1" d="M15.7,71l9.1-5V57l-9.1,5L15.7,71z"/>
<path class="st2" d="M6.6,57l9.1-5.2l9.1,5.2l-9.1,5L6.6,57z"/>
<path class="st0" d="M72.5,38l-9.1-5V24l9.1,5V38z"/>
<path class="st1" d="M72.5,38l9.1-5V24l-9.1,5V38z"/>
<path class="st2" d="M63.4,24l9.1-5.2l9.1,5.2l-9.1,5L63.4,24z"/>
<path class="st0" d="M72.5,71l-9.1-5V57l9.1,5V71z"/>
<path class="st1" d="M72.5,71l9.1-5V57l-9.1,5V71z"/>
<path class="st2" d="M63.4,57l9.1-5.2l9.1,5.2l-9.1,5L63.4,57z"/>
<path class="st0" d="M44.1,25.9l-9.1-5v-9.1l9.1,5V25.9z"/>
<path class="st1" d="M44.1,25.9l9.1-5v-9.1l-9.1,5V25.9z"/>
<path class="st2" d="M35,11.8l9.1-5.2l9.1,5.2l-9.1,5L35,11.8z"/>
<path class="st0" d="M44.1,83.9L35,79v-9.1l9.1,5V83.9z"/>
<path class="st1" d="M44.1,83.9l9.1-5v-9.1l-9.1,5V83.9z"/>
<path class="st2" d="M35,69.9l9.1-5.2l9.1,5.2l-9.1,5L35,69.9z"/>
<path d="M82.2,34c0.3-0.2,0.6-0.6,0.6-1V24c0-0.6-0.5-1.1-1.1-1.1c-0.2,0-0.3,0-0.5,0.1l-8.6,4.7l-6.6-3.6l-0.3-0.2l7.4-4.2
	c0.5-0.3,0.7-1,0.4-1.5s-1-0.7-1.5-0.4L62.9,23c-0.3,0.2-0.5,0.6-0.5,0.9v2.2l-8.1-5.1c0-0.1,0-0.1,0-0.2v-9.1
	c0-0.4-0.2-0.7-0.5-0.9l-9.1-5.2c-0.3-0.2-0.7-0.2-1.1,0l-9.1,5.2c-0.3,0.2-0.5,0.6-0.5,0.9v9.1c0,0.1,0,0.1,0,0.2l-8.1,5.1V24
	c0-0.4-0.2-0.7-0.5-0.9l-9.1-5.2c-0.3-0.2-0.7-0.2-1.1,0L6,23c-0.3,0.2-0.5,0.6-0.5,0.9v9.1c0,0.4,0.2,0.8,0.6,1l8.5,4.7v12.5L6,56
	c-0.3,0.2-0.5,0.6-0.5,0.9v3.4c0,0.6,0.5,1.1,1.1,1.1c0.6,0,1.1-0.5,1.1-1.1v-1.5l6.9,3.8v6.6l-7.5-4.1c-0.5-0.3-1.2-0.1-1.5,0.4
	C5.3,66.1,5.5,66.7,6,67c0,0,0,0,0,0l9.1,5c0.3,0.2,0.7,0.2,1,0l7.7-4.2l10,6.7V79c0,0.4,0.2,0.8,0.6,1l9.1,5c0.3,0.2,0.7,0.2,1,0
	l9.1-5c0.3-0.2,0.6-0.6,0.6-1v-4.5l10-6.7L72,72c0.3,0.2,0.7,0.2,1,0l9.1-5c0.3-0.2,0.6-0.6,0.6-1V57c0-0.4-0.2-0.7-0.5-0.9
	l-8.5-4.9V38.7L82.2,34z M50.7,70l-6.6,3.6L37.5,70l-0.3-0.2l6.9-3.9l6.9,3.9L50.7,70z M8.8,57l6.9-3.9l6.9,3.9l-0.3,0.2l-6.6,3.6
	l-6.6-3.6L8.8,57z M23.7,32.4l-6.9,3.8v-6.6l6.9-3.8V32.4z M24.7,55.7l-7.9-4.5V38.7l7.2-3.9l10,6.5v7.9L24.7,55.7z M36.1,20.3v-6.6
	l6.9,3.8v6.6L36.1,20.3z M52.1,20.3l-6.9,3.8v-6.6l6.9-3.8V20.3z M44.1,36.7l6.9,3.9l-0.3,0.2l-6.6,3.6l-6.6-3.6l-0.3-0.2L44.1,36.7
	z M36.1,42.5l6.9,3.8v6.6l-6.9-3.8V42.5z M45.2,46.2l6.9-3.8v6.6l-6.9,3.8V46.2z M54.3,41.2l10-6.5l7.2,3.9v12.5l-7.9,4.5l-9.3-6.5
	V41.2z M71.4,29.6v6.6l-6.9-3.8v-6.6L71.4,29.6z M64.5,65.4v-6.6l6.9,3.8v6.6L64.5,65.4z M79.1,57.1l-6.6,3.6l-6.6-3.6l-0.3-0.2
	l6.9-3.9l6.9,3.9L79.1,57.1z M73.6,36.2v-6.6l6.9-3.8v6.6L73.6,36.2z M62.4,33.3l-9.2,6l-8-4.6v-8.2l7.3-4l9.9,6.2v4.3
	C62.4,33.2,62.4,33.2,62.4,33.3L62.4,33.3z M44.1,7.9l6.9,3.9l-6.6,3.6l-0.3,0.2l-0.3-0.2l-6.6-3.6L44.1,7.9z M35.7,22.6l7.3,4v8.2
	l-8,4.6l-9.2-6c0-0.1,0-0.2,0-0.3v-4.3L35.7,22.6z M15.7,20l6.9,3.9l-0.3,0.2l-6.6,3.6l-6.6-3.6l-0.3-0.2L15.7,20z M7.6,25.8
	l6.9,3.8v6.6l-6.9-3.8L7.6,25.8z M16.7,62.6l6.9-3.8v6.6l-6.9,3.8V62.6z M25.8,66.4c0-0.1,0.1-0.2,0.1-0.3v-8.6l9.2-6.5l7.9,4.3V64
	l-8.6,4.9c-0.3,0.2-0.5,0.6-0.5,0.9v2L25.8,66.4z M36.1,73.9v-2.2l6.9,3.8v6.6l-6.9-3.8V73.9z M45.2,82.1v-6.6l6.9-3.8v6.6
	L45.2,82.1z M54.3,69.9c0-0.4-0.2-0.7-0.5-0.9L45.2,64v-8.7l7.9-4.3l9.2,6.5v8.6c0,0.1,0,0.2,0.1,0.3l-8.1,5.4L54.3,69.9z
	 M73.6,69.2v-6.6l6.9-3.8v6.6L73.6,69.2z"/>
<path d="M75.9,21.9l1.2,0.7c0.5,0.3,1.2,0.1,1.5-0.4s0.1-1.2-0.4-1.5L77,20.1c-0.5-0.3-1.2-0.1-1.5,0.4C75.2,21,75.4,21.6,75.9,21.9
	z"/>
<g>
	<path class="st0" d="M87.7,82.8L66.3,94.6L44.9,82.8V59.4l21.4-11.7l21.4,11.7V82.8z"/>
	<path class="st2" d="M44.9,59.4v23.5l21.4,11.7l0,0V71.1L44.9,59.4L44.9,59.4z"/>
	<g>
		<path class="st3" d="M80.1,77.4c-0.6,0.3-1.1,0.8-1.5,1.5c-0.1,0.1-0.2,0.2-0.3,0.2l-1.1-0.2c-0.1,0-0.1-0.1-0.1-0.2l-0.1-1.4
			c0-0.1,0.1-0.2,0.1-0.3c0.9-0.7,1.5-2,1.4-3.2c-0.1-1.3-1.1-1.9-2.2-1.4c-1.1,0.6-2,2.1-1.9,3.5c0.1,1.1,0.8,1.8,1.7,1.6
			c0.1,0,0.2,0,0.2,0.2l0.1,1.4c0,0.1,0,0.2-0.1,0.3l-1,1.2c-0.1,0.1-0.2,0.1-0.3,0.1c-0.4-0.3-1-0.3-1.5,0c-1.1,0.6-2,2.2-1.9,3.5
			c0.1,1.3,1.1,1.9,2.2,1.4c1.1-0.6,2-2.1,1.9-3.5c0-0.2-0.1-0.4-0.1-0.6c0-0.1,0-0.2,0.1-0.3l1-1.2c0.1-0.1,0.2-0.1,0.2-0.1
			l1.1,0.2c0.1,0,0.1,0.1,0.1,0.2c0,0.2-0.1,0.5,0,0.7c0.1,1.3,1.1,2,2.2,1.4c1.1-0.6,2-2.1,1.9-3.5C82.3,77.5,81.3,76.8,80.1,77.4z
			"/>
		<path class="st3" d="M76.3,83.4c-0.4,1.2-1.3,2.4-2.3,2.9c-1.5,0.8-2.8,0-2.9-1.8c-0.1-1.8,1-3.8,2.5-4.6c0.7-0.4,1.4-0.4,1.9-0.1
			l0.5-0.5l0-0.9c-0.7-0.3-1.5-0.2-2.4,0.2c-2.1,1.1-3.7,4-3.5,6.4c0.1,2.5,2,3.6,4.1,2.5c1.2-0.6,2.2-1.8,2.9-3.2
			C76.7,84.2,76.5,83.8,76.3,83.4z"/>
		<path class="st3" d="M76.4,70.4c-2.1,1.1-3.7,4-3.5,6.4c0,0.6,0.2,1.1,0.4,1.5c0.1-0.1,0.2-0.1,0.3-0.2c0.3-0.2,0.6-0.3,0.9-0.3
			c-0.3-0.4-0.5-0.9-0.6-1.6c-0.1-1.8,1-3.8,2.5-4.6c1.5-0.8,2.8,0,2.9,1.8c0.1,1.4-0.6,3.1-1.7,4l0.1,0.8l0.5,0.1
			c1.4-1.4,2.3-3.5,2.2-5.4C80.3,70.5,78.5,69.4,76.4,70.4z"/>
		<path class="st3" d="M80.5,75.2c-0.2,0.6-0.4,1.1-0.7,1.6c0.1,0,0.2-0.1,0.2-0.1c1.5-0.8,2.8,0,2.9,1.8c0.1,1.8-1,3.8-2.5,4.6
			c-1.5,0.8-2.8,0-2.9-1.8c0-0.2,0-0.5,0-0.7l-0.6,0l-0.5,0.6c0,0.2,0,0.4,0,0.7c0.1,2.5,2,3.6,4.1,2.5c2.1-1.1,3.7-4,3.5-6.4
			C83.9,75.6,82.4,74.5,80.5,75.2z"/>
	</g>
	<g>
		<path class="st3" d="M51.7,76.7c0.6,0.3,1.1,0.8,1.5,1.5c0.1,0.1,0.2,0.2,0.3,0.2l1.1-0.2c0.1,0,0.1-0.1,0.1-0.2l0.1-1.4
			c0-0.1-0.1-0.2-0.1-0.3c-0.9-0.7-1.5-2-1.4-3.2c0.1-1.3,1.1-1.9,2.2-1.4c1.1,0.6,2,2.1,1.9,3.5c-0.1,1.1-0.8,1.8-1.7,1.6
			c-0.1,0-0.2,0-0.2,0.2l-0.1,1.4c0,0.1,0,0.2,0.1,0.3l1,1.2c0.1,0.1,0.2,0.1,0.3,0.1c0.4-0.3,1-0.3,1.5,0c1.1,0.6,2,2.2,1.9,3.5
			c-0.1,1.3-1.1,1.9-2.2,1.4c-1.1-0.6-2-2.1-1.9-3.5c0-0.2,0.1-0.4,0.1-0.6c0-0.1,0-0.2-0.1-0.3l-1-1.2c-0.1-0.1-0.2-0.1-0.2-0.1
			l-1.1,0.2c-0.1,0-0.1,0.1-0.1,0.2c0,0.2,0.1,0.5,0,0.7c-0.1,1.3-1.1,2-2.2,1.4c-1.1-0.6-2-2.1-1.9-3.5
			C49.6,76.8,50.6,76.1,51.7,76.7z"/>
		<path class="st3" d="M55.6,82.7c0.4,1.2,1.3,2.4,2.3,2.9c1.5,0.8,2.8,0,2.9-1.8s-1-3.8-2.5-4.6c-0.7-0.4-1.4-0.4-1.9-0.1l-0.5-0.5
			l0-0.9c0.7-0.3,1.5-0.2,2.4,0.2c2.1,1.1,3.7,4,3.5,6.4c-0.1,2.5-2,3.6-4.1,2.5c-1.2-0.6-2.2-1.8-2.9-3.2
			C55.2,83.5,55.4,83.1,55.6,82.7z"/>
		<path class="st3" d="M55.5,69.8c2.1,1.1,3.7,4,3.5,6.4c0,0.6-0.2,1.1-0.4,1.5c-0.1-0.1-0.2-0.1-0.3-0.2c-0.3-0.2-0.6-0.3-0.9-0.3
			c0.3-0.4,0.5-0.9,0.6-1.6c0.1-1.8-1-3.8-2.5-4.6c-1.5-0.8-2.8,0-2.9,1.8c-0.1,1.4,0.6,3.1,1.7,4l-0.1,0.8l-0.5,0.1
			c-1.4-1.4-2.3-3.5-2.2-5.4C51.6,69.8,53.4,68.7,55.5,69.8z"/>
		<path class="st3" d="M51.4,74.5c0.2,0.6,0.4,1.1,0.7,1.6c-0.1,0-0.2-0.1-0.2-0.1c-1.5-0.8-2.8,0-2.9,1.8c-0.1,1.8,1,3.8,2.5,4.6
			c1.5,0.8,2.8,0,2.9-1.8c0-0.2,0-0.5,0-0.7l0.6,0l0.5,0.6c0,0.2,0,0.4,0,0.7c-0.1,2.5-2,3.6-4.1,2.5c-2.1-1.1-3.7-4-3.5-6.4
			C47.9,74.9,49.5,73.8,51.4,74.5z"/>
	</g>
	<path class="st1" d="M44.9,59.4L44.9,59.4l21.4,11.7l21.4-11.7v0L66.3,47.6L44.9,59.4z"/>
	<g>
		<path class="st4" d="M87.7,59.4l7.1,7.1L73.3,78.2l-7.1-7.1L87.7,59.4z"/>
		<path class="st4" d="M44.9,59.4l-7.1,7.1l21.4,11.7l7.1-7.1L44.9,59.4z"/>
		<path class="st4" d="M87.7,59.4l7.1-7.1L73.3,40.5l-7.1,7.1L87.7,59.4z"/>
		<path class="st4" d="M44.9,59.4l-7.1-7.1l21.4-11.7l7.1,7.1L44.9,59.4z"/>
	</g>
	<path d="M89.3,59.4l6.2-6.2c0.3-0.3,0.4-0.6,0.3-1c-0.1-0.4-0.3-0.7-0.6-0.9l-7.5-4.1c-0.6-0.3-1.3-0.1-1.6,0.5
		c-0.3,0.6-0.1,1.3,0.5,1.6l6.2,3.4l-5.4,5.4L68.2,47.3l5.4-5.4l5.4,3c0.6,0.3,1.3,0.1,1.6-0.5c0.3-0.6,0.1-1.3-0.5-1.6l-6.2-3.4
		c-0.5-0.2-1-0.2-1.4,0.2L66.3,46L60,39.7c-0.4-0.4-0.9-0.4-1.4-0.2L37.3,51.3c-0.3,0.2-0.5,0.5-0.6,0.9c-0.1,0.4,0.1,0.7,0.3,1
		l6.2,6.2L37,65.6c-0.3,0.3-0.4,0.6-0.3,1c0.1,0.4,0.3,0.7,0.6,0.9l6.5,3.5v11.9c0,0.4,0.2,0.8,0.6,1l21.4,11.7
		c0.2,0.1,0.4,0.1,0.6,0.1c0.2,0,0.4,0,0.6-0.1l21.4-11.7c0.4-0.2,0.6-0.6,0.6-1V71l6.5-3.5c0.3-0.2,0.5-0.5,0.6-0.9
		c0.1-0.4-0.1-0.7-0.3-1L89.3,59.4z M66.3,69.8l-19-10.4l19-10.4l19,10.4L66.3,69.8z M59,42l5.4,5.4L45.1,57.9l-5.4-5.4L59,42z
		 M45.1,60.8l19.3,10.6L59,76.7L39.7,66.1L45.1,60.8z M86.5,82.2L67.4,92.6V80.8c0-0.6-0.5-1.2-1.2-1.2c-0.6,0-1.2,0.5-1.2,1.2v11.8
		L46,82.2v-9.9l12.6,6.9c0.2,0.1,0.4,0.1,0.6,0.1c0.3,0,0.6-0.1,0.8-0.3l6.2-6.2l6.2,6.2c0.2,0.2,0.5,0.3,0.8,0.3
		c0.2,0,0.4,0,0.6-0.1l12.6-6.9V82.2z M73.5,76.7l-5.4-5.4l19.3-10.6l5.4,5.4L73.5,76.7z"/>
	<path d="M83.5,47.3c0.3,0,0.6-0.1,0.8-0.3c0.2-0.2,0.3-0.5,0.3-0.8c0-0.3-0.1-0.6-0.3-0.8c-0.2-0.2-0.5-0.3-0.8-0.3
		c-0.3,0-0.6,0.1-0.8,0.3c-0.2,0.2-0.3,0.5-0.3,0.8c0,0.3,0.1,0.6,0.3,0.8C82.9,47.1,83.2,47.3,83.5,47.3z"/>
	<path d="M66.3,75.8c-0.3,0-0.6,0.1-0.8,0.3c-0.2,0.2-0.3,0.5-0.3,0.8c0,0.3,0.1,0.6,0.3,0.8c0.2,0.2,0.5,0.3,0.8,0.3
		c0.3,0,0.6-0.1,0.8-0.3c0.2-0.2,0.3-0.5,0.3-0.8c0-0.3-0.1-0.6-0.3-0.8C66.9,75.9,66.6,75.8,66.3,75.8z"/>
</g>
</svg>
