<?xml version="1.0" encoding="utf-8"?>
<!-- Generator: Adobe Illustrator 24.0.1, SVG Export Plug-In . SVG Version: 6.00 Build 0)  -->
<svg version="1.1" id="ic_empty_zpiv" xmlns="http://www.w3.org/2000/svg" xmlns:xlink="http://www.w3.org/1999/xlink" x="0px"
	 y="0px" viewBox="0 0 100 100" style="enable-background:new 0 0 100 100;" xml:space="preserve">
<style type="text/css">
	.st0{fill:#666666;}
	.st1{fill:#FFFFFF;}
</style>
<circle class="st0" cx="49.4" cy="50.4" r="28"/>
<g>
	<path class="st1" d="M58.7,49.7c-1.7,0-3.2,0.7-4.3,1.8c-0.2,0.2-0.5,0.2-0.7,0.1l-3-1.7c-0.2-0.1-0.3-0.3-0.3-0.6v-3.4
		c0-0.3,0.2-0.5,0.5-0.6c2.6-0.7,4.5-3,4.5-5.7c0-3.2-2.6-5.9-5.9-5.9c-3.3,0-6,2.6-6,5.9c0,2.8,1.9,5.1,4.5,5.7
		c0.3,0.1,0.5,0.3,0.5,0.6v3.4c0,0.2-0.1,0.5-0.3,0.6l-2.9,1.7c-0.2,0.1-0.5,0.1-0.7-0.1c-1.1-1.1-2.6-1.8-4.3-1.8
		c-3.2,0-5.9,2.7-5.9,5.9s2.6,5.9,5.9,5.9c3.3,0,5.9-2.6,5.9-5.9c0-0.6-0.1-1.1-0.2-1.6c-0.1-0.3,0-0.6,0.3-0.7l3-1.7
		c0.2-0.1,0.5-0.1,0.7,0l2.9,1.7c0.2,0.1,0.4,0.4,0.3,0.7c-0.1,0.5-0.2,1.1-0.2,1.6c0,3.2,2.7,5.9,5.9,5.9c3.3,0,5.9-2.6,5.9-5.9
		C64.6,52.5,62,49.8,58.7,49.7z"/>
	<path class="st1" d="M47.5,58.4c-1.1,3-4,5.1-7.3,5.1c-4.3,0-7.8-3.5-7.8-7.8s3.5-7.8,7.8-7.8c2,0,3.8,0.8,5.2,2l1.4-0.7l0.1-2
		c-1.9-1.5-4.2-2.3-6.7-2.3c-6,0-10.9,4.9-10.9,10.9s4.9,10.9,10.9,10.9c3.7,0,6.9-1.8,8.9-4.6C48.3,60.9,47.8,59.7,47.5,58.4z"/>
	<path class="st1" d="M49.4,28.7c-6,0-10.9,4.9-10.9,10.9c0,1.6,0.4,3.1,1,4.5c0.2,0,0.5,0,0.7,0c1.1,0,2.2,0.2,3.2,0.5
		c-1.1-1.3-1.8-3.1-1.8-5c0-4.3,3.5-7.8,7.8-7.8s7.8,3.5,7.8,7.8c0,3.5-2.3,6.4-5.5,7.4v1.9l1.5,0.9c4.1-1.6,7-5.5,7-10.2
		C60.3,33.6,55.4,28.7,49.4,28.7z"/>
	<path class="st1" d="M59.7,44.8c-0.6,1.2-1.4,2.3-2.3,3.2c0.4-0.1,0.9-0.1,1.3-0.1c4.3,0,7.8,3.5,7.8,7.8s-3.5,7.8-7.8,7.8
		s-7.8-3.5-7.8-7.8c0-0.5,0.1-1.1,0.2-1.6l-1.5-0.7L48,54.1c-0.1,0.5-0.1,1-0.1,1.6c0,6,4.9,10.9,10.9,10.9s10.9-4.9,10.9-10.9
		C69.5,50,65.2,45.3,59.7,44.8z"/>
</g>
<path class="st1" d="M49.4,23.5c-14.8,0-26.8,12-26.8,26.8s12,26.8,26.8,26.8s26.8-12,26.8-26.8S64.2,23.5,49.4,23.5z M49.4,73.8
	C36.5,73.8,26,63.3,26,50.4S36.5,27,49.4,27s23.4,10.5,23.4,23.4S62.3,73.8,49.4,73.8z"/>
<path class="st1" d="M49.4,27.4c-12.7,0-23,10.3-23,23s10.3,23,23,23s23-10.3,23-23S62.1,27.4,49.4,27.4z M49.4,72.8
	C37,72.8,27,62.8,27,50.4S37,28,49.4,28s22.4,10,22.4,22.4S61.8,72.8,49.4,72.8z"/>
<g>
	<path class="st0" d="M18.1,66.9c-0.5,0.2-1,0.5-1.5,0.8s-0.7,0.7-0.7,1.3v3.3c1.4-1.2,2.2-3,2.3-4.8c0,0,0,0,0-0.1l0,0v-0.5H18.1z"
		/>
	<path class="st0" d="M16.7,43.7c-0.2,0.1-0.3,0.2-0.5,0.3c-0.3,0.2-0.4,0.4-0.4,0.7v7.1c0,0.8,0.8,1.3,1.5,1.1l0,0
		c0.5-0.2,0.8-0.6,0.8-1.1v-7.5C18.1,43.7,17.3,43.3,16.7,43.7L16.7,43.7z"/>
	<path class="st0" d="M16.7,56.1c-0.2,0.1-0.3,0.2-0.5,0.2c-0.3,0.1-0.4,0.3-0.4,0.5V62c0,0.6,0.8,1,1.5,0.8l0,0
		c0.5-0.1,0.8-0.4,0.8-0.8v-5.4C18.1,56.1,17.3,55.8,16.7,56.1L16.7,56.1z"/>
	<path class="st0" d="M23.9,5.3l-15.1,18h7v16.8c0,0.8,0.8,1.3,1.5,1.1l0,0c0.5-0.2,0.8-0.6,0.8-1.1v-19h-4.4L23.9,8.9l10,11.9
		c-0.6,0.3-1.2,0.6-1.8,0.9c-1.5,0.9-2.5,2.5-2.6,4.3l0,0c0,0.1,0,0.2,0,0.4c1.9-1.7,4.2-3.2,6.7-4.2l1.5-0.6L23.9,5.3z"/>
</g>
<g>
	<path class="st0" d="M80.6,33.7c0.5-0.2,1-0.5,1.5-0.8s0.7-0.7,0.7-1.3v-3.3c-1.4,1.2-2.2,3-2.3,4.8c0,0,0,0,0,0.1l0,0v0.5H80.6z"
		/>
	<path class="st0" d="M82,56.9c0.2-0.1,0.3-0.2,0.5-0.3c0.3-0.2,0.4-0.4,0.4-0.7v-7.1c0-0.8-0.8-1.3-1.5-1.1l0,0
		c-0.5,0.2-0.8,0.6-0.8,1.1v7.5C80.6,56.9,81.4,57.3,82,56.9L82,56.9z"/>
	<path class="st0" d="M82,44.5c0.2-0.1,0.3-0.2,0.5-0.2c0.3-0.1,0.4-0.3,0.4-0.5v-5.2c0-0.6-0.8-1-1.5-0.8l0,0
		c-0.5,0.1-0.8,0.4-0.8,0.8V44C80.6,44.5,81.4,44.8,82,44.5L82,44.5z"/>
	<path class="st0" d="M74.7,95.2l15.1-18h-7V60.4c0-0.8-0.8-1.3-1.5-1.1l0,0c-0.5,0.2-0.8,0.6-0.8,1.1v19.1H85L74.7,91.7l-10-11.9
		c0.6-0.3,1.2-0.6,1.8-0.9c1.5-0.9,2.5-2.5,2.6-4.3l0,0c0-0.1,0-0.2,0-0.4c-1.9,1.7-4.2,3.2-6.7,4.2L61,78.9L74.7,95.2z"/>
</g>
</svg>
