<?xml version="1.0" encoding="utf-8"?>
<!-- Generator: Adobe Illustrator 24.0.2, SVG Export Plug-In . SVG Version: 6.00 Build 0)  -->
<svg version="1.1" id="Capa_1" xmlns="http://www.w3.org/2000/svg" xmlns:xlink="http://www.w3.org/1999/xlink" x="0px" y="0px"
	 viewBox="0 0 61.3 60" style="enable-background:new 0 0 61.3 60;" xml:space="preserve">
<style type="text/css">
	.st0{fill:#FFFFFF;}
</style>
<g>
	<path class="st0" d="M30.6,6.8C17.8,6.8,7.5,17.2,7.5,30s10.4,23.2,23.2,23.2S53.9,42.8,53.9,30C53.8,17.2,43.4,6.8,30.6,6.8z
		 M30.6,7.6c6.2,0,11.3,5,11.3,11.3c0,4.8-3,8.9-7.3,10.5L33,28.5v-1.9c3.3-1,5.6-4.1,5.6-7.7c0-4.5-3.6-8.1-8.1-8.1
		s-8.1,3.6-8.1,8.1c0,1.9,0.7,3.7,1.8,5.1c-1.1-0.3-2.2-0.5-3.3-0.5c-0.2,0-0.5,0-0.7,0c-0.7-1.4-1-3-1-4.7
		C19.3,12.7,24.4,7.6,30.6,7.6z M34,33.1l-3-1.8c-0.2-0.1-0.5-0.1-0.7,0l-3.1,1.8c-0.2,0.1-0.4,0.4-0.3,0.7c0.1,0.5,0.2,1.1,0.2,1.7
		c0,3.4-2.8,6.1-6.1,6.1c-3.4,0-6.1-2.7-6.1-6.1c0-3.4,2.7-6.1,6.1-6.2c1.7,0,3.3,0.7,4.4,1.8c0.2,0.2,0.5,0.3,0.8,0.1l3-1.8
		c0.2-0.1,0.3-0.3,0.3-0.6v-3.5c0-0.3-0.2-0.5-0.5-0.6c-2.7-0.7-4.6-3.1-4.6-5.9c0-3.4,2.8-6.1,6.2-6.1c3.3,0,6.1,2.8,6.1,6.1
		c0,2.9-2,5.3-4.6,5.9c-0.3,0.1-0.5,0.3-0.5,0.6v3.5c0,0.2,0.1,0.5,0.3,0.6l3.1,1.8c0.2,0.1,0.6,0.1,0.8-0.1
		c1.1-1.1,2.7-1.8,4.4-1.8c3.4,0,6.1,2.8,6,6.2c0,3.4-2.7,6.1-6.1,6.1c-3.4,0-6.1-2.8-6.1-6.1c0-0.6,0.1-1.1,0.2-1.7
		C34.4,33.5,34.3,33.2,34,33.1z M21.1,46.7c-6.2,0-11.3-5-11.3-11.3c0-6.2,5-11.3,11.3-11.3c2.6,0,5,0.9,7,2.4L28,28.6l-1.5,0.7
		c-1.4-1.3-3.3-2.1-5.4-2.1c-4.5,0-8.1,3.6-8.1,8.1s3.6,8.1,8.1,8.1c3.5,0,6.4-2.2,7.6-5.2c0.3,1.3,0.9,2.6,1.6,3.7
		C28.2,44.9,24.9,46.7,21.1,46.7z M40.2,46.7c-6.2,0-11.3-5-11.3-11.3c0-0.6,0-1.1,0.1-1.6l1.7-0.8l1.6,0.7
		c-0.1,0.5-0.2,1.1-0.2,1.6c0,4.5,3.6,8.1,8.1,8.1s8.1-3.6,8.1-8.1s-3.6-8.1-8.1-8.1c-0.5,0-0.9,0-1.4,0.1c1-0.9,1.8-2,2.4-3.3
		c5.7,0.5,10.2,5.4,10.2,11.2C51.5,41.7,46.4,46.7,40.2,46.7z"/>
	<path class="st0" d="M30.6,5.8C17.3,5.8,6.4,16.6,6.4,30s10.8,24.2,24.2,24.2S54.8,43.4,54.8,30S44,5.8,30.6,5.8z M30.6,53.8
		C17.5,53.8,6.9,43.1,6.9,30S17.5,6.2,30.7,6.2c13.1,0,23.8,10.6,23.8,23.8C54.4,43.1,43.8,53.8,30.6,53.8z"/>
	<path class="st0" d="M30.6,1c-16,0-29,13-29,29s13,29,29,29s29-13,29-29S46.6,1,30.6,1z M30.6,57.8C15.3,57.8,2.9,45.3,2.9,30
		S15.3,2.2,30.7,2.2C46,2.2,58.4,14.7,58.4,30S46,57.8,30.6,57.8z"/>
</g>
</svg>
