<?xml version="1.0" encoding="utf-8"?>
<!-- Generator: Adobe Illustrator 24.0.2, SVG Export Plug-In . SVG Version: 6.00 Build 0)  -->
<svg version="1.1" id="ic_empty_dark_multisend" xmlns="http://www.w3.org/2000/svg" xmlns:xlink="http://www.w3.org/1999/xlink"
	 x="0px" y="0px" viewBox="0 0 100 100" style="enable-background:new 0 0 100 100;" xml:space="preserve">
<style type="text/css">
	.st0{fill:#666666;}
	.st1{fill:#A3A3A3;}
	.st2{fill:#474747;}
	.st3{fill:#FFFFFF;}
</style>
<path class="st0" d="M74.8,78.7c0,13.3-12.2,15-25.5,15s-25.5-1.7-25.5-15c0-11.1,9.2-24.4,19.5-28.5h13.5
	C66.8,54.6,74.8,67.8,74.8,78.7z"/>
<path class="st0" d="M63.6,41.5c0.7-0.9,0.8-2.1,0.3-3.2s-1.5-1.7-2.7-1.7H39.5c-1.2,0-2.3,0.7-2.7,1.8c-0.5,1.1-0.3,2.3,0.5,3.2
	l6.1,8.5h13.5L63.6,41.5z"/>
<path class="st1" d="M51.4,93.7c-0.7,0-1.3,0-2,0c-13.3,0-25.5-1.7-25.5-15c0-11.1,9.2-24.4,19.5-28.5h4.5
	c-10.3,4.1-19.5,17.4-19.5,28.5C28.3,91.1,39.1,93.4,51.4,93.7z"/>
<path class="st2" d="M47.8,50.2h-4.5l-6.1-8.5c-0.8-0.9-1-2.1-0.5-3.2c0.5-1.1,1.6-1.8,2.7-1.8H44c-1.2,0-2.3,0.7-2.7,1.8
	c-0.5,1.1-0.3,2.3,0.5,3.2L47.8,50.2z"/>
<path class="st2" d="M62.8,72.7c0,7.5-6,13.5-13.5,13.5s-13.5-6-13.5-13.5s6-13.5,13.5-13.5S62.8,65.2,62.8,72.7z"/>
<path class="st0" d="M75.7,13.1l3.2,3.2L71,24.2c-0.9,0.9-0.9,2.4,0,3.3l3.1,3.1c0.9,0.9,2.4,0.9,3.3,0l7.9-7.9l3.2,3.2L89.5,12
	L75.7,13.1z"/>
<path class="st3" d="M49.3,57.7c-8.3,0-15,6.7-15,15s6.7,15,15,15s15-6.7,15-15C64.3,64.4,57.6,57.7,49.3,57.7z M49.3,84.7
	c-6.6,0-12-5.4-12-12s5.4-12,12-12s12,5.4,12,12C61.3,79.3,56,84.7,49.3,84.7z"/>
<path class="st3" d="M59.2,49.7l5.6-7.2c1.1-1.4,1.2-3.2,0.5-4.7c-0.8-1.5-2.3-2.5-4-2.5H39.5c-1.8,0-3.4,1-4.1,2.7
	s-0.4,3.5,0.7,4.8l4.7,7c-10.1,5.1-18.5,18.1-18.5,29c0,16.5,18.2,16.5,27,16.5s27,0,27-16.5C76.3,67.7,68.6,54.9,59.2,49.7z
	 M38.2,39.1c0.2-0.5,0.8-0.9,1.4-0.9h21.7c0.6,0,1.1,0.3,1.3,0.8c0.3,0.5,0.2,1.1-0.2,1.6l-6.3,8.1H44l-5.6-8
	C38,40.2,37.9,39.6,38.2,39.1L38.2,39.1z M49.3,92.2c-14.4,0-24-2.3-24-13.5c0-10.2,8.7-23,18.3-27h12.9c9,4.2,16.8,16.7,16.8,27
	C73.3,89.9,63.7,92.2,49.3,92.2z"/>
<path class="st3" d="M91.1,10.4l-1.4,18.8l-4.4-4.4l-6.1,6.1c-1.9,1.9-5,1.9-7,0l-1.5-1.5c-1.9-1.9-1.9-5,0-7l6.1-6.1l-4.4-4.4
	L91.1,10.4z M87.2,22.4l0.7-8.8l-8.8,0.7l1.9,1.9l-7.8,7.8c-0.9,0.9-0.9,2.5,0,3.4l0.8,0.8c0.9,0.9,2.5,0.9,3.4,0l7.8-7.8L87.2,22.4
	z"/>
<path class="st0" d="M26.8,13.1l-3.2,3.2l7.9,7.9c0.9,0.9,0.9,2.4,0,3.3l-3.1,3.1c-0.9,0.9-2.4,0.9-3.3,0l-7.9-7.9l-3.2,3.2L13,12
	L26.8,13.1z"/>
<path class="st3" d="M11.4,10.4l1.4,18.8l4.4-4.4l6.1,6.1c1.9,1.9,5,1.9,7,0l1.5-1.5c1.9-1.9,1.9-5,0-7l-6.1-6.1l4.4-4.4L11.4,10.4z
	 M15.3,22.4l-0.7-8.8l8.8,0.7l-1.9,1.9l7.8,7.8c0.9,0.9,0.9,2.5,0,3.4l-0.8,0.8c-0.9,0.9-2.5,0.9-3.4,0l-7.8-7.8L15.3,22.4z"/>
<path class="st0" d="M60.2,16.9h-4.5v11.2c0,1.3-1,2.3-2.3,2.3H49c-1.3,0-2.3-1-2.3-2.3V16.9h-4.5l9-10.5L60.2,16.9z"/>
<path class="st3" d="M51.2,4.1L38.9,18.4h6.3v8.6c0,2.7,2.2,4.9,4.9,4.9h2.1c2.7,0,4.9-2.2,4.9-4.9v-8.6h6.3L51.2,4.1z M45.5,15.4
	l5.7-6.7l5.7,6.7h-2.7v11.1c0,1.3-1.1,2.4-2.4,2.4h-1.2c-1.3,0-2.4-1.1-2.4-2.4V15.4H45.5z"/>
<g>
	<path class="st3" d="M53.8,73c-0.8,0-1.5,0.3-2,0.8c-0.1,0.1-0.2,0.1-0.4,0L50,73.1c-0.1-0.1-0.2-0.2-0.2-0.3l0-1.6
		c0-0.1,0.1-0.2,0.2-0.3c1.2-0.3,2.1-1.4,2.1-2.7c0-1.5-1.2-2.8-2.8-2.8c-1.6,0-2.8,1.2-2.8,2.8c0,1.3,0.9,2.4,2.1,2.7
		c0.1,0,0.2,0.1,0.2,0.3l0,1.6c0,0.1-0.1,0.2-0.2,0.3l-1.4,0.8c-0.1,0.1-0.3,0-0.4,0c-0.5-0.5-1.2-0.8-2-0.8c-1.5,0-2.8,1.3-2.8,2.8
		c0,1.5,1.3,2.8,2.8,2.8c1.5,0,2.8-1.3,2.8-2.8c0-0.3,0-0.5-0.1-0.8c0-0.1,0-0.3,0.1-0.3l1.4-0.8c0.1-0.1,0.2-0.1,0.3,0l1.4,0.8
		c0.1,0.1,0.2,0.2,0.1,0.3c-0.1,0.2-0.1,0.5-0.1,0.8c0,1.5,1.3,2.8,2.8,2.8c1.5,0,2.8-1.2,2.8-2.8C56.5,74.3,55.3,73,53.8,73z"/>
	<path class="st3" d="M48.2,77.5c-0.6,1.2-1.8,2-3.3,2c-2,0-3.7-1.7-3.7-3.7s1.7-3.7,3.7-3.7c0.9,0,1.8,0.4,2.5,0.9l0.7-0.3l0.1-1
		c-0.9-0.7-2-1.1-3.2-1.1c-2.8,0-5.2,2.3-5.2,5.2c0,2.8,2.3,5.2,5.2,5.2c1.6,0,3.1-0.8,4-1.9C48.7,78.6,48.4,78.1,48.2,77.5z"/>
	<path class="st3" d="M49.3,63.1c-2.8,0-5.2,2.3-5.2,5.2c0,0.7,0.1,1.3,0.4,1.9c0.2,0,0.3,0,0.5,0c0.4,0,0.9,0.1,1.3,0.2
		c-0.4-0.6-0.6-1.3-0.6-2.1c0-2,1.7-3.7,3.7-3.7c2,0,3.7,1.7,3.7,3.7c0,1.7-1.1,3.1-2.6,3.5l0,0.9l0.7,0.4c1.9-0.7,3.3-2.6,3.3-4.8
		C54.5,65.4,52.2,63.1,49.3,63.1z"/>
	<path class="st3" d="M54.4,70.7c-0.3,0.5-0.6,1-1,1.4c0.1,0,0.2,0,0.3,0c2,0,3.7,1.7,3.7,3.7s-1.7,3.7-3.7,3.7
		c-2,0-3.7-1.7-3.7-3.7c0-0.3,0-0.5,0.1-0.8l-0.7-0.3l-0.8,0.3c0,0.2-0.1,0.5-0.1,0.7c0,2.8,2.3,5.2,5.2,5.2c2.8,0,5.2-2.3,5.2-5.2
		C58.9,73.2,56.9,71,54.4,70.7z"/>
</g>
</svg>
