<?xml version="1.0" encoding="utf-8"?>
<!-- Generator: Adobe Illustrator 24.0.2, SVG Export Plug-In . SVG Version: 6.00 Build 0)  -->
<svg version="1.1" id="ic_empty_masternode" xmlns="http://www.w3.org/2000/svg" xmlns:xlink="http://www.w3.org/1999/xlink"
	 x="0px" y="0px" viewBox="0 0 100 100" style="enable-background:new 0 0 100 100;" xml:space="preserve">
<style type="text/css">
	.st0{fill:#068FFF;}
	.st1{fill:#284CB2;}
	.st2{fill:#06DAF7;}
	.st3{fill:#FFFFFF;}
	.st4{fill:#A6F9FF;}
</style>
<path class="st0" d="M45,55.5l-9.1-4.9v-9.1l9.1,4.9V55.5z"/>
<path class="st1" d="M45,55.5l9.1-4.9v-9.1L45,46.4V55.5z"/>
<path class="st2" d="M35.9,41.5l9.1-5.2l9.1,5.2L45,46.4L35.9,41.5z"/>
<path class="st0" d="M16.6,38.9l-9.1-4.9v-9.1l9.1,4.9V38.9z"/>
<path class="st1" d="M16.6,38.9l9.1-4.9v-9.1l-9.1,4.9L16.6,38.9z"/>
<path class="st2" d="M7.5,24.9l9.1-5.2l9.1,5.2l-9.1,4.9L7.5,24.9z"/>
<path class="st0" d="M16.6,71.8l-9.1-4.9v-9.1l9.1,4.9V71.8z"/>
<path class="st1" d="M16.6,71.8l9.1-4.9v-9.1l-9.1,4.9L16.6,71.8z"/>
<path class="st2" d="M7.5,57.8l9.1-5.2l9.1,5.2l-9.1,4.9L7.5,57.8z"/>
<path class="st0" d="M73.3,38.9l-9.1-4.9v-9.1l9.1,4.9V38.9z"/>
<path class="st1" d="M73.3,38.9l9.1-4.9v-9.1l-9.1,4.9V38.9z"/>
<path class="st2" d="M64.2,24.9l9.1-5.2l9.1,5.2l-9.1,4.9L64.2,24.9z"/>
<path class="st0" d="M73.3,71.8l-9.1-4.9v-9.1l9.1,4.9V71.8z"/>
<path class="st1" d="M73.3,71.8l9.1-4.9v-9.1l-9.1,4.9V71.8z"/>
<path class="st2" d="M64.2,57.8l9.1-5.2l9.1,5.2l-9.1,4.9L64.2,57.8z"/>
<path class="st0" d="M45,26.8l-9.1-5v-9.1l9.1,5V26.8z"/>
<path class="st1" d="M45,26.8l9.1-5v-9.1l-9.1,5V26.8z"/>
<path class="st2" d="M35.9,12.8L45,7.6l9.1,5.2l-9.1,5L35.9,12.8z"/>
<path class="st0" d="M45,84.6l-9.1-5v-9.1l9.1,5V84.6z"/>
<path class="st1" d="M45,84.6l9.1-5v-9.1l-9.1,5V84.6z"/>
<path class="st2" d="M35.9,70.6l9.1-5.2l9.1,5.2l-9.1,5L35.9,70.6z"/>
<path d="M82.9,34.9c0.3-0.2,0.6-0.6,0.6-1v-9.1c0-0.6-0.5-1.1-1.1-1.1c-0.2,0-0.3,0-0.5,0.1l-8.5,4.7L66.7,25l-0.3-0.2l7.4-4.2
	c0.5-0.3,0.7-1,0.4-1.5c-0.3-0.5-1-0.7-1.5-0.4l-9.1,5.2c-0.3,0.2-0.5,0.6-0.5,0.9v2.2L55.1,22c0-0.1,0-0.1,0-0.2v-9.1
	c0-0.4-0.2-0.7-0.5-0.9l-9.1-5.2c-0.3-0.2-0.7-0.2-1.1,0l-9.1,5.2c-0.3,0.2-0.5,0.6-0.5,0.9v9.1c0,0.1,0,0.1,0,0.2l-8.1,5.1v-2.2
	c0-0.4-0.2-0.7-0.5-0.9l-9.1-5.2c-0.3-0.2-0.7-0.2-1.1,0L7,23.9c-0.3,0.2-0.5,0.6-0.5,0.9v9.1c0,0.4,0.2,0.8,0.6,1l8.5,4.6V52
	L7,56.8c-0.3,0.2-0.5,0.6-0.5,0.9v3.3c0,0.6,0.5,1.1,1.1,1.1c0.6,0,1.1-0.5,1.1-1.1v-1.5l6.9,3.8V70l-7.5-4.1
	c-0.5-0.3-1.2-0.1-1.5,0.4c-0.3,0.5-0.1,1.2,0.4,1.5c0,0,0,0,0,0l9.1,4.9c0.3,0.2,0.7,0.2,1,0l7.7-4.2l10,6.6v4.5
	c0,0.4,0.2,0.8,0.6,1l9.1,4.9c0.3,0.2,0.7,0.2,1,0l9.1-5c0.3-0.2,0.6-0.6,0.6-1v-4.5l10-6.6l7.7,4.2c0.3,0.2,0.7,0.2,1,0l9.1-4.9
	c0.3-0.2,0.6-0.6,0.6-1v-9.1c0-0.4-0.2-0.7-0.5-0.9L74.4,52V39.5L82.9,34.9z M51.5,70.8L45,74.3l-6.6-3.6l-0.3-0.2l6.8-3.9l6.8,3.9
	L51.5,70.8z M9.8,57.8l6.8-3.9l6.8,3.9l-0.3,0.2l-6.6,3.6L10,57.9L9.8,57.8z M24.6,33.3l-6.9,3.8v-6.6l6.9-3.8V33.3z M25.6,56.5
	L17.7,52V39.5l7.2-3.9l9.9,6.5V50L25.6,56.5z M37,21.2v-6.6l6.9,3.8V25L37,21.2z M52.9,21.2L46,25v-6.6l6.9-3.8V21.2z M45,37.5
	l6.8,3.9l-0.3,0.2L45,45.2l-6.6-3.6l-0.3-0.2L45,37.5z M37,43.3l6.9,3.8v6.6L37,49.9V43.3z M46,47.1l6.9-3.8v6.6L46,53.7V47.1z
	 M55.1,42.1l9.9-6.5l7.2,3.9V52l-7.9,4.5L55.1,50V42.1z M72.2,30.5v6.6l-6.9-3.8v-6.6L72.2,30.5z M65.3,66.2v-6.6l6.9,3.8V70
	L65.3,66.2z M79.9,57.9l-6.6,3.6l-6.6-3.6l-0.3-0.2l6.8-3.9l6.8,3.9L79.9,57.9z M74.4,37.1v-6.6l6.9-3.8v6.6L74.4,37.1z M63.2,34.2
	l-9.2,6L46,35.7v-8.2l7.3-4l9.8,6.2v4.3C63.2,34,63.2,34.1,63.2,34.2L63.2,34.2z M45,8.9l6.8,3.9l-6.5,3.6L45,16.5l-0.3-0.2
	l-6.5-3.6L45,8.9z M36.6,23.5l7.3,4v8.2l-7.9,4.6l-9.2-6c0-0.1,0-0.2,0-0.3v-4.3L36.6,23.5z M16.6,20.9l6.8,3.9L23.2,25l-6.6,3.6
	L10,25l-0.3-0.2L16.6,20.9z M8.6,26.7l6.9,3.8v6.6l-6.9-3.8V26.7z M17.7,63.4l6.9-3.8v6.6L17.7,70V63.4z M26.7,67.2
	c0-0.1,0.1-0.2,0.1-0.3v-8.5l9.2-6.5l7.9,4.3v8.7l-8.5,4.9c-0.3,0.2-0.5,0.6-0.5,0.9v2L26.7,67.2z M37,74.6v-2.2l6.9,3.8v6.6
	L37,79.1V74.6z M46,82.8v-6.6l6.9-3.8v6.6L46,82.8z M55.1,70.6c0-0.4-0.2-0.7-0.5-0.9L46,64.8v-8.7l7.9-4.3l9.2,6.5v8.5
	c0,0.1,0,0.2,0.1,0.3l-8.1,5.4L55.1,70.6z M74.4,70v-6.6l6.9-3.8v6.6L74.4,70z"/>
<path d="M76.7,22.9l1.2,0.7c0.5,0.3,1.2,0.1,1.5-0.4s0.1-1.2-0.4-1.5L77.8,21c-0.5-0.3-1.2-0.1-1.5,0.4S76.2,22.6,76.7,22.9z"/>
<g>
	<path class="st0" d="M89.4,83.7L72.5,93l-16.8-9.2V65.2L72.5,56l16.8,9.2V83.7z"/>
	<path class="st2" d="M55.7,65.3v18.5L72.5,93l0,0V74.5L55.7,65.3L55.7,65.3z"/>
	<g>
		<path class="st3" d="M83.4,79.4c-0.5,0.2-0.9,0.7-1.1,1.2c0,0.1-0.1,0.1-0.2,0.1l-0.8-0.1c-0.1,0-0.1-0.1-0.1-0.1l-0.1-1.1
			c0-0.1,0-0.2,0.1-0.3c0.7-0.6,1.2-1.6,1.1-2.5c-0.1-1-0.8-1.5-1.7-1.1c-0.9,0.5-1.6,1.7-1.5,2.7c0.1,0.9,0.6,1.4,1.3,1.2
			c0.1,0,0.1,0,0.1,0.1l0.1,1.1c0,0.1,0,0.2-0.1,0.2l-0.8,1c-0.1,0.1-0.1,0.1-0.2,0.1c-0.3-0.2-0.8-0.2-1.2,0
			c-0.9,0.5-1.6,1.7-1.5,2.7c0.1,1,0.8,1.5,1.7,1.1c0.9-0.5,1.6-1.7,1.5-2.7c0-0.2,0-0.3-0.1-0.5c0-0.1,0-0.2,0.1-0.3l0.8-1
			c0.1-0.1,0.1-0.1,0.2-0.1l0.8,0.1c0.1,0,0.1,0.1,0.1,0.2c0,0.2,0,0.4,0,0.6c0.1,1,0.8,1.5,1.7,1.1c0.9-0.5,1.6-1.7,1.5-2.7
			C85.1,79.5,84.3,79,83.4,79.4z"/>
		<path class="st3" d="M80.4,84.2c-0.3,1-1,1.9-1.8,2.3c-1.2,0.6-2.2,0-2.3-1.4c-0.1-1.4,0.8-3,2-3.6c0.5-0.3,1.1-0.3,1.5-0.1
			l0.4-0.4l0-0.7c-0.5-0.2-1.2-0.2-1.9,0.2c-1.7,0.8-2.9,3.1-2.8,5.1c0.1,1.9,1.5,2.8,3.2,2c0.9-0.5,1.8-1.4,2.3-2.5
			C80.7,84.8,80.5,84.5,80.4,84.2z"/>
		<path class="st3" d="M80.5,74c-1.7,0.8-2.9,3.1-2.8,5.1c0,0.5,0.1,0.9,0.3,1.2c0.1-0.1,0.2-0.1,0.3-0.2c0.3-0.1,0.5-0.2,0.7-0.3
			c-0.3-0.3-0.4-0.7-0.5-1.2c-0.1-1.4,0.8-3,2-3.6c1.2-0.6,2.2,0,2.3,1.4c0.1,1.1-0.5,2.4-1.4,3.2l0,0.6l0.4,0.1
			c1.1-1.1,1.8-2.8,1.7-4.3C83.6,74,82.1,73.1,80.5,74z"/>
		<path class="st3" d="M83.7,77.7c-0.1,0.4-0.3,0.9-0.5,1.3c0.1,0,0.1-0.1,0.2-0.1c1.2-0.6,2.2,0,2.3,1.4c0.1,1.4-0.8,3-2,3.6
			c-1.2,0.6-2.2,0-2.3-1.4c0-0.2,0-0.4,0-0.5l-0.4,0l-0.4,0.5c0,0.2,0,0.4,0,0.5c0.1,1.9,1.5,2.8,3.2,2c1.7-0.8,2.9-3.1,2.8-5.1
			C86.4,78,85.2,77.2,83.7,77.7z"/>
	</g>
	<g>
		<path class="st3" d="M61.1,78.9c0.5,0.2,0.9,0.7,1.1,1.2c0,0.1,0.1,0.1,0.2,0.1l0.8-0.1c0.1,0,0.1-0.1,0.1-0.1l0.1-1.1
			c0-0.1,0-0.2-0.1-0.3c-0.7-0.6-1.2-1.6-1.1-2.5c0.1-1,0.8-1.5,1.7-1.1c0.9,0.5,1.6,1.7,1.5,2.7c-0.1,0.9-0.6,1.4-1.3,1.2
			c-0.1,0-0.1,0-0.1,0.1L64,80.2c0,0.1,0,0.2,0.1,0.2l0.8,1c0.1,0.1,0.1,0.1,0.2,0.1c0.3-0.2,0.8-0.2,1.2,0c0.9,0.5,1.6,1.7,1.5,2.7
			c-0.1,1-0.8,1.5-1.7,1.1c-0.9-0.5-1.6-1.7-1.5-2.7c0-0.2,0-0.3,0.1-0.5c0-0.1,0-0.2-0.1-0.3l-0.8-1c-0.1-0.1-0.1-0.1-0.2-0.1
			l-0.8,0.1c-0.1,0-0.1,0.1-0.1,0.2c0,0.2,0,0.4,0,0.6c-0.1,1-0.8,1.5-1.7,1.1c-0.9-0.5-1.6-1.7-1.5-2.7
			C59.4,79,60.2,78.5,61.1,78.9z"/>
		<path class="st3" d="M64.1,83.6c0.3,1,1,1.9,1.8,2.3c1.2,0.6,2.2,0,2.3-1.4c0.1-1.4-0.8-3-2-3.6c-0.5-0.3-1.1-0.3-1.5-0.1
			l-0.4-0.4l0-0.7c0.5-0.2,1.2-0.2,1.9,0.2c1.7,0.8,2.9,3.1,2.8,5.1c-0.1,1.9-1.5,2.8-3.2,2c-0.9-0.5-1.8-1.4-2.3-2.5
			C63.8,84.2,64,83.9,64.1,83.6z"/>
		<path class="st3" d="M64.1,73.4c1.7,0.8,2.9,3.1,2.8,5.1c0,0.5-0.1,0.9-0.3,1.2c-0.1-0.1-0.2-0.1-0.3-0.2
			c-0.3-0.1-0.5-0.2-0.7-0.3C65.8,79,66,78.6,66,78c0.1-1.4-0.8-3-2-3.6c-1.2-0.6-2.2,0-2.3,1.4c-0.1,1.1,0.5,2.4,1.4,3.2l0,0.6
			l-0.4,0.1c-1.1-1.1-1.8-2.8-1.7-4.3C61,73.5,62.4,72.6,64.1,73.4z"/>
		<path class="st3" d="M60.8,77.1c0.1,0.4,0.3,0.9,0.5,1.3c-0.1,0-0.1-0.1-0.2-0.1c-1.2-0.6-2.2,0-2.3,1.4c-0.1,1.4,0.8,3,2,3.6
			c1.2,0.6,2.2,0,2.3-1.4c0-0.2,0-0.4,0-0.5l0.4,0l0.4,0.5c0,0.2,0,0.4,0,0.5c-0.1,1.9-1.5,2.8-3.2,2c-1.7-0.8-2.9-3.1-2.8-5.1
			C58.1,77.5,59.3,76.6,60.8,77.1z"/>
	</g>
	<path class="st1" d="M55.7,65.2L55.7,65.2l16.8,9.2l16.8-9.2v0L72.5,56L55.7,65.2z"/>
	<g>
		<path class="st4" d="M89.4,65.2l5.6,5.6L78.1,80l-5.6-5.6L89.4,65.2z"/>
		<path class="st4" d="M55.7,65.2l-5.6,5.6L67,80l5.6-5.6L55.7,65.2z"/>
		<path class="st4" d="M89.4,65.2l5.6-5.6l-16.8-9.2L72.5,56L89.4,65.2z"/>
		<path class="st4" d="M55.7,65.2l-5.6-5.6L67,50.5l5.6,5.6L55.7,65.2z"/>
	</g>
	<path d="M90.6,65.2l4.9-4.9c0.2-0.2,0.3-0.5,0.3-0.8c0-0.3-0.2-0.5-0.5-0.7l-5.9-3.2c-0.4-0.2-1-0.1-1.2,0.4
		c-0.2,0.4-0.1,1,0.4,1.2l4.8,2.7l-4.2,4.2L74,55.8l4.2-4.2l4.3,2.3c0.4,0.2,1,0.1,1.2-0.4c0.2-0.4,0.1-1-0.4-1.2l-4.9-2.7
		c-0.4-0.2-0.8-0.1-1.1,0.2l-4.9,4.9l-4.9-4.9c-0.3-0.3-0.7-0.3-1.1-0.2l-16.8,9.2c-0.3,0.1-0.4,0.4-0.5,0.7c0,0.3,0.1,0.6,0.3,0.8
		l4.9,4.9l-4.9,4.9c-0.2,0.2-0.3,0.5-0.3,0.8c0,0.3,0.2,0.5,0.5,0.7l5.1,2.8v9.3c0,0.3,0.2,0.6,0.5,0.8l16.8,9.2
		c0.1,0.1,0.3,0.1,0.4,0.1s0.3,0,0.4-0.1l16.8-9.2c0.3-0.2,0.5-0.5,0.5-0.8v-9.3l5.1-2.8c0.3-0.1,0.4-0.4,0.5-0.7
		c0-0.3-0.1-0.6-0.3-0.8L90.6,65.2z M72.5,73.4l-14.9-8.2L72.5,57l14.9,8.2L72.5,73.4z M66.8,51.6l4.2,4.2l-15.2,8.3l-4.2-4.2
		L66.8,51.6z M55.9,66.4L71,74.7l-4.2,4.2l-15.2-8.3L55.9,66.4z M88.4,83.2l-15,8.2v-9.3c0-0.5-0.4-0.9-0.9-0.9s-0.9,0.4-0.9,0.9
		v9.3l-15-8.2v-7.8l9.9,5.4c0.1,0.1,0.3,0.1,0.4,0.1c0.2,0,0.5-0.1,0.6-0.3l4.9-4.9l4.9,4.9c0.2,0.2,0.4,0.3,0.6,0.3
		c0.1,0,0.3,0,0.4-0.1l9.9-5.4V83.2z M78.3,78.9L74,74.7l15.2-8.3l4.2,4.2L78.3,78.9z"/>
	<path d="M86.1,55.7c0.2,0,0.5-0.1,0.6-0.3c0.2-0.2,0.3-0.4,0.3-0.6c0-0.2-0.1-0.5-0.3-0.6c-0.2-0.2-0.4-0.3-0.6-0.3
		c-0.2,0-0.5,0.1-0.6,0.3c-0.2,0.2-0.3,0.4-0.3,0.6c0,0.2,0.1,0.5,0.3,0.6C85.6,55.7,85.8,55.7,86.1,55.7z"/>
	<path d="M72.5,78.2c-0.2,0-0.5,0.1-0.6,0.3c-0.2,0.2-0.3,0.4-0.3,0.6c0,0.2,0.1,0.5,0.3,0.6c0.2,0.2,0.4,0.3,0.6,0.3
		c0.2,0,0.5-0.1,0.6-0.3c0.2-0.2,0.3-0.4,0.3-0.6c0-0.2-0.1-0.5-0.3-0.6C73,78.3,72.8,78.2,72.5,78.2z"/>
</g>
</svg>
