<?xml version="1.0" encoding="utf-8"?>
<!-- Generator: Adobe Illustrator 24.0.1, SVG Export Plug-In . SVG Version: 6.00 Build 0)  -->
<svg version="1.1" id="ic_staking_on" xmlns="http://www.w3.org/2000/svg" xmlns:xlink="http://www.w3.org/1999/xlink" x="0px"
	 y="0px" viewBox="0 0 100 100" style="enable-background:new 0 0 100 100;" xml:space="preserve">
<style type="text/css">
	.st0{fill:#2792F4;}
	.st1{fill:#FFFFFF;}
</style>
<g>
	<circle class="st0" cx="56.9" cy="58.3" r="37.8"/>
	<g>
		<path class="st1" d="M69.4,57.4c-2.3,0-4.3,0.9-5.8,2.4c-0.3,0.3-0.7,0.3-1,0.1l-4-2.3c-0.3-0.2-0.4-0.4-0.4-0.8l0-4.5
			c0-0.4,0.2-0.7,0.6-0.8c3.4-0.9,6-4,6-7.7c0-4.4-3.5-7.9-7.9-8c-4.4,0-8,3.5-8,8c0,3.7,2.6,6.9,6,7.7c0.4,0.1,0.6,0.4,0.6,0.8
			l0,4.6c0,0.3-0.2,0.6-0.4,0.8l-4,2.3c-0.3,0.2-0.7,0.1-1-0.1c-1.5-1.5-3.5-2.4-5.8-2.4c-4.4,0-7.9,3.6-7.9,8
			c0,4.4,3.6,7.9,7.9,7.9c4.4,0,8-3.6,8-8c0-0.7-0.1-1.5-0.3-2.2c-0.1-0.4,0.1-0.7,0.4-0.9l4-2.3c0.3-0.2,0.6-0.2,0.9,0l3.9,2.3
			c0.3,0.2,0.5,0.6,0.4,0.9c-0.2,0.7-0.3,1.4-0.3,2.2c0,4.4,3.6,8,8,8c4.4,0,7.9-3.5,8-7.9C77.3,61.1,73.8,57.5,69.4,57.4z"/>
		<path class="st1" d="M54.3,69.1c-1.5,4-5.3,6.8-9.8,6.8c-5.8,0-10.5-4.7-10.5-10.5c0-5.8,4.7-10.5,10.5-10.5c2.7,0,5.1,1,7,2.7
			l1.9-1l0.2-2.8c-2.5-2-5.6-3.1-9.1-3.1c-8.1,0-14.7,6.6-14.7,14.7s6.6,14.7,14.7,14.7c4.9,0,9.3-2.4,11.9-6.1
			C55.4,72.5,54.7,70.8,54.3,69.1z"/>
		<path class="st1" d="M56.9,29.1c-8.1,0-14.7,6.6-14.7,14.7c0,2.2,0.5,4.2,1.3,6.1c0.3,0,0.6,0,0.9,0c1.5,0,2.9,0.2,4.3,0.6
			c-1.5-1.8-2.4-4.1-2.4-6.7c0-5.8,4.7-10.5,10.5-10.5c5.8,0,10.5,4.7,10.5,10.5c0,4.7-3.1,8.7-7.3,10l0,2.5l2,1.2
			c5.5-2.1,9.5-7.5,9.5-13.7C71.5,35.7,65,29.1,56.9,29.1z"/>
		<path class="st1" d="M70.7,50.8c-0.8,1.6-1.9,3-3.2,4.3c0.6-0.1,1.2-0.1,1.8-0.1c5.8,0,10.5,4.7,10.5,10.5
			c0,5.8-4.7,10.5-10.5,10.5c-5.8,0-10.5-4.7-10.5-10.5c0-0.7,0.1-1.5,0.2-2.1l-2.1-1l-2.2,1c-0.1,0.7-0.2,1.4-0.2,2.1
			c0,8.1,6.6,14.7,14.7,14.7c8.1,0,14.7-6.6,14.7-14.7C84,57.7,78.2,51.5,70.7,50.8z"/>
	</g>
	<path class="st1" d="M56.9,22.1c-20,0-36.2,16.2-36.2,36.2s16.2,36.2,36.2,36.2S93,78.2,93,58.3S76.8,22.1,56.9,22.1z M56.9,89.8
		c-17.4,0-31.5-14.1-31.5-31.5s14.1-31.5,31.5-31.5s31.5,14.1,31.5,31.5S74.3,89.8,56.9,89.8z"/>
	<path class="st1" d="M56.9,27.3c-17.1,0-30.9,13.9-30.9,30.9s13.9,30.9,30.9,30.9s30.9-13.9,30.9-30.9S74,27.3,56.9,27.3z
		 M56.9,88.4c-16.7,0-30.2-13.5-30.2-30.2s13.5-30.2,30.2-30.2s30.2,13.5,30.2,30.2S73.5,88.4,56.9,88.4z"/>
</g>
<circle class="st0" cx="24.2" cy="21.7" r="7.5"/>
<circle class="st0" cx="13" cy="30.6" r="6.2"/>
<circle class="st0" cx="47.4" cy="11" r="6.2"/>
<circle class="st0" cx="9.7" cy="13.7" r="3.1"/>
<circle class="st0" cx="12.8" cy="56" r="3.1"/>
<circle class="st0" cx="61.9" cy="10.8" r="3.1"/>
<circle class="st0" cx="20.7" cy="5.3" r="1.8"/>
<circle class="st0" cx="60.8" cy="16.8" r="1.8"/>
<circle class="st0" cx="56.2" cy="13.6" r="1.8"/>
<circle class="st0" cx="4.5" cy="38.3" r="1.8"/>
<circle class="st0" cx="22.8" cy="32.4" r="1.8"/>
<circle class="st0" cx="10.1" cy="40.6" r="3.1"/>
<circle class="st0" cx="36.2" cy="13.7" r="3.1"/>
</svg>
