<?xml version="1.0" encoding="utf-8"?>
<!-- Generator: Adobe Illustrator 24.0.2, SVG Export Plug-In . SVG Version: 6.00 Build 0)  -->
<svg version="1.1" id="ic_empty_multisend" xmlns="http://www.w3.org/2000/svg" xmlns:xlink="http://www.w3.org/1999/xlink" x="0px"
	 y="0px" viewBox="0 0 100 100" style="enable-background:new 0 0 100 100;" xml:space="preserve">
<style type="text/css">
	.st0{fill:#C49A6C;}
	.st1{fill:#A97C50;}
	.st2{fill:#8B5E3C;}
	.st3{fill:#FF9811;}
	.st4{fill:#FF0000;}
	.st5{fill:#068FFF;}
	.st6{fill:#06DAF7;}
	.st7{fill:#FFFFFF;}
	.st8{fill:#284CB2;}
	.st9{fill:#A6F9FF;}
</style>
<path class="st0" d="M74.1,76.5c0,13.3-12.2,15-25.5,15s-25.5-1.7-25.5-15c0-11.1,9.2-24.4,19.5-28.5h13.5
	C66,52.4,74.1,65.7,74.1,76.5z"/>
<path class="st1" d="M62.8,39.4c0.7-0.9,0.8-2.1,0.3-3.2s-1.5-1.7-2.7-1.7H38.8c-1.2,0-2.3,0.7-2.7,1.8c-0.5,1.1-0.3,2.3,0.5,3.2
	l6.1,8.5h13.5L62.8,39.4z"/>
<path class="st1" d="M50.6,91.5c-0.7,0-1.3,0-2,0c-13.3,0-25.5-1.7-25.5-15c0-11.1,9.2-24.4,19.5-28.5h4.5
	c-10.3,4.1-19.5,17.4-19.5,28.5C27.6,89,38.4,91.3,50.6,91.5z"/>
<path class="st2" d="M47.1,48h-4.5l-6.1-8.5c-0.8-0.9-1-2.1-0.5-3.2c0.5-1.1,1.6-1.8,2.7-1.8h4.5c-1.2,0-2.3,0.7-2.7,1.8
	c-0.5,1.1-0.3,2.3,0.5,3.2L47.1,48z"/>
<path class="st3" d="M62.1,70.5c0,7.5-6,13.5-13.5,13.5s-13.5-6-13.5-13.5S41.1,57,48.6,57S62.1,63.1,62.1,70.5z"/>
<path class="st4" d="M75,10.9l3.2,3.2L70.2,22c-0.9,0.9-0.9,2.4,0,3.3l3.1,3.1c0.9,0.9,2.4,0.9,3.3,0l7.9-7.9l3.2,3.2l1.1-13.8
	L75,10.9z"/>
<path d="M48.6,55.5c-8.3,0-15,6.7-15,15s6.7,15,15,15s15-6.7,15-15C63.6,62.3,56.9,55.6,48.6,55.5z M48.6,82.5c-6.6,0-12-5.4-12-12
	s5.4-12,12-12s12,5.4,12,12C60.6,77.2,55.2,82.5,48.6,82.5z"/>
<path d="M58.4,47.5l5.6-7.2c1.1-1.4,1.2-3.2,0.5-4.7c-0.8-1.5-2.3-2.5-4-2.5H38.8c-1.8,0-3.4,1-4.1,2.7s-0.4,3.5,0.7,4.8l4.7,7
	c-10.1,5.1-18.5,18.1-18.5,29C21.6,93,39.8,93,48.6,93s27,0,27-16.5C75.6,65.5,67.9,52.7,58.4,47.5z M37.4,36.9
	c0.2-0.5,0.8-0.9,1.4-0.9h21.7c0.6,0,1.1,0.3,1.3,0.8c0.3,0.5,0.2,1.1-0.2,1.6l-6.3,8.1H43.3l-5.6-8C37.3,38.1,37.2,37.5,37.4,36.9
	L37.4,36.9z M48.6,90c-14.4,0-24-2.3-24-13.5c0-10.2,8.7-23,18.3-27h12.9c9,4.2,16.8,16.7,16.8,27C72.6,87.7,63,90,48.6,90z"/>
<path d="M90.4,8.2L88.9,27l-4.4-4.4l-6.1,6.1c-1.9,1.9-5,1.9-7,0L70,27.1c-1.9-1.9-1.9-5,0-7l6.1-6.1l-4.4-4.4L90.4,8.2z M86.4,20.3
	l0.7-8.8l-8.8,0.7l1.9,1.9L72.4,22c-0.9,0.9-0.9,2.5,0,3.4l0.8,0.8c0.9,0.9,2.5,0.9,3.4,0l7.8-7.8L86.4,20.3z"/>
<path class="st4" d="M26,10.9l-3.2,3.2l7.9,7.9c0.9,0.9,0.9,2.4,0,3.3l-3.1,3.1c-0.9,0.9-2.4,0.9-3.3,0l-7.9-7.9l-3.2,3.2L12.2,9.9
	L26,10.9z"/>
<path d="M10.6,8.2L12.1,27l4.4-4.4l6.1,6.1c1.9,1.9,5,1.9,7,0l1.5-1.5c1.9-1.9,1.9-5,0-7L25,14.1l4.4-4.4L10.6,8.2z M14.6,20.3
	l-0.7-8.8l8.8,0.7l-1.9,1.9l7.8,7.8c0.9,0.9,0.9,2.5,0,3.4l-0.8,0.8c-0.9,0.9-2.5,0.9-3.4,0l-7.8-7.8L14.6,20.3z"/>
<path class="st4" d="M59.4,14.7h-4.5v11.2c0,1.3-1,2.3-2.3,2.3h-4.4c-1.3,0-2.3-1-2.3-2.3V14.7h-4.5l9-10.5L59.4,14.7z"/>
<path d="M50.4,1.9L38.2,16.2h6.3v8.6c0,2.7,2.2,4.9,4.9,4.9h2.1c2.7,0,4.9-2.2,4.9-4.9v-8.6h6.3L50.4,1.9z M44.7,13.2l5.7-6.7
	l5.7,6.7h-2.7v11.1c0,1.3-1.1,2.4-2.4,2.4h-1.2c-1.3,0-2.4-1.1-2.4-2.4V13.2H44.7z"/>
<g>
	<path d="M53,70.9c-0.8,0-1.5,0.3-2,0.8c-0.1,0.1-0.2,0.1-0.4,0l-1.4-0.8c-0.1-0.1-0.2-0.2-0.2-0.3l0-1.6c0-0.1,0.1-0.2,0.2-0.3
		c1.2-0.3,2.1-1.4,2.1-2.7c0-1.5-1.2-2.8-2.8-2.8c-1.6,0-2.8,1.2-2.8,2.8c0,1.3,0.9,2.4,2.1,2.7c0.1,0,0.2,0.1,0.2,0.3l0,1.6
		c0,0.1-0.1,0.2-0.2,0.3l-1.4,0.8c-0.1,0.1-0.3,0-0.3,0c-0.5-0.5-1.2-0.8-2-0.8c-1.5,0-2.8,1.3-2.8,2.8c0,1.5,1.3,2.8,2.8,2.8
		c1.5,0,2.8-1.3,2.8-2.8c0-0.3,0-0.5-0.1-0.8c0-0.1,0-0.3,0.1-0.3l1.4-0.8c0.1-0.1,0.2-0.1,0.3,0l1.4,0.8c0.1,0.1,0.2,0.2,0.1,0.3
		c-0.1,0.2-0.1,0.5-0.1,0.8c0,1.5,1.3,2.8,2.8,2.8c1.5,0,2.8-1.2,2.8-2.8C55.8,72.2,54.6,70.9,53,70.9z"/>
	<path d="M47.5,75.4c-0.6,1.2-1.8,2-3.3,2c-2,0-3.7-1.7-3.7-3.7s1.7-3.7,3.7-3.7c0.9,0,1.8,0.4,2.5,0.9l0.7-0.3l0.1-1
		c-0.9-0.7-2-1.1-3.2-1.1c-2.8,0-5.2,2.3-5.2,5.2c0,2.8,2.3,5.2,5.2,5.2c1.6,0,3.1-0.8,4-1.9C47.9,76.4,47.7,75.9,47.5,75.4z"/>
	<path d="M48.6,60.9c-2.8,0-5.2,2.3-5.2,5.2c0,0.7,0.1,1.3,0.4,1.9c0.2,0,0.3,0,0.5,0c0.4,0,0.9,0.1,1.3,0.2
		c-0.4-0.6-0.6-1.3-0.6-2.1c0-2,1.7-3.7,3.7-3.7c2,0,3.7,1.7,3.7,3.7c0,1.7-1.1,3.1-2.6,3.5l0,0.9l0.7,0.4c1.9-0.7,3.3-2.6,3.3-4.8
		C53.8,63.2,51.5,60.9,48.6,60.9z"/>
	<path d="M53.7,68.6c-0.3,0.5-0.6,1-1,1.4c0.1,0,0.2,0,0.3,0c2,0,3.7,1.7,3.7,3.7S55,77.4,53,77.4c-2,0-3.7-1.7-3.7-3.7
		c0-0.3,0-0.5,0.1-0.8l-0.7-0.3l-0.8,0.3c0,0.2-0.1,0.5-0.1,0.7c0,2.8,2.3,5.2,5.2,5.2c2.8,0,5.2-2.3,5.2-5.2
		C58.1,71,56.2,68.9,53.7,68.6z"/>
</g>
<g>
	<path class="st5" d="M91,87.2L74,96.5l-16.9-9.3V68.6L74,59.3L91,68.6V87.2z"/>
	<path class="st6" d="M57.1,68.6v18.6L74,96.5l0,0V77.9L57.1,68.6L57.1,68.6z"/>
	<g>
		<path class="st7" d="M85,82.9c-0.5,0.2-0.9,0.7-1.2,1.2c-0.1,0.1-0.1,0.1-0.2,0.1l-0.9-0.1c-0.1,0-0.1-0.1-0.1-0.1l-0.1-1.1
			c0-0.1,0-0.2,0.1-0.3c0.7-0.6,1.2-1.6,1.1-2.5C83.8,79,83,78.6,82.1,79c-0.9,0.5-1.6,1.7-1.5,2.8c0.1,0.9,0.6,1.4,1.3,1.2
			c0.1,0,0.1,0,0.1,0.1l0.1,1.1c0,0.1,0,0.2-0.1,0.2l-0.8,1c-0.1,0.1-0.1,0.1-0.2,0.1c-0.3-0.2-0.8-0.2-1.2,0
			c-0.9,0.5-1.6,1.7-1.5,2.8c0.1,1.1,0.8,1.5,1.7,1.1c0.9-0.5,1.6-1.7,1.5-2.8c0-0.2,0-0.3-0.1-0.5c0-0.1,0-0.2,0.1-0.3l0.8-1
			c0.1-0.1,0.1-0.1,0.2-0.1l0.8,0.1c0.1,0,0.1,0.1,0.1,0.2c0,0.2,0,0.4,0,0.6c0.1,1.1,0.9,1.5,1.8,1.1c0.9-0.5,1.6-1.7,1.5-2.7
			C86.7,83,85.9,82.5,85,82.9z"/>
		<path class="st7" d="M82,87.7c-0.3,1-1,1.9-1.8,2.3c-1.2,0.6-2.2,0-2.3-1.4c-0.1-1.4,0.8-3,2-3.6c0.6-0.3,1.1-0.3,1.5-0.1l0.4-0.4
			l0-0.7c-0.5-0.2-1.2-0.2-1.9,0.2C78.1,84.8,76.9,87,77,89c0.1,2,1.6,2.9,3.2,2c1-0.5,1.8-1.4,2.3-2.5C82.3,88.3,82.1,88,82,87.7z"
			/>
		<path class="st7" d="M82,77.4c-1.7,0.9-2.9,3.1-2.8,5.1c0,0.5,0.1,0.9,0.3,1.2c0.1-0.1,0.2-0.1,0.3-0.2c0.3-0.1,0.5-0.2,0.7-0.3
			c-0.3-0.3-0.4-0.7-0.5-1.2c-0.1-1.4,0.8-3,2-3.6c1.2-0.6,2.2,0,2.3,1.4c0.1,1.1-0.5,2.4-1.4,3.2l0,0.6l0.4,0.1
			c1.1-1.1,1.8-2.8,1.7-4.3C85.1,77.4,83.7,76.5,82,77.4z"/>
		<path class="st7" d="M85.3,81.1c-0.1,0.4-0.3,0.9-0.5,1.3c0.1,0,0.1-0.1,0.2-0.1c1.2-0.6,2.2,0,2.3,1.4c0.1,1.4-0.8,3-2,3.6
			c-1.2,0.6-2.2,0-2.3-1.4c0-0.2,0-0.4,0-0.5l-0.4,0l-0.4,0.5c0,0.2,0,0.4,0,0.5c0.1,2,1.6,2.9,3.2,2c1.7-0.9,2.9-3.1,2.8-5.1
			C88,81.5,86.8,80.6,85.3,81.1z"/>
	</g>
	<g>
		<path class="st7" d="M62.5,82.4c0.5,0.2,0.9,0.7,1.2,1.2c0.1,0.1,0.1,0.1,0.2,0.1l0.9-0.1c0.1,0,0.1-0.1,0.1-0.1l0.1-1.1
			c0-0.1,0-0.2-0.1-0.3c-0.7-0.6-1.2-1.6-1.1-2.5c0.1-1.1,0.8-1.5,1.7-1.1c0.9,0.5,1.6,1.7,1.5,2.8c-0.1,0.9-0.6,1.4-1.3,1.2
			c-0.1,0-0.1,0-0.1,0.1l-0.1,1.1c0,0.1,0,0.2,0.1,0.2l0.8,1c0.1,0.1,0.1,0.1,0.2,0.1c0.3-0.2,0.8-0.2,1.2,0
			c0.9,0.5,1.6,1.7,1.5,2.8c-0.1,1.1-0.8,1.5-1.7,1.1c-0.9-0.5-1.6-1.7-1.5-2.8c0-0.2,0-0.3,0.1-0.5c0-0.1,0-0.2-0.1-0.3l-0.8-1
			c-0.1-0.1-0.1-0.1-0.2-0.1l-0.8,0.1c-0.1,0-0.1,0.1-0.1,0.2c0,0.2,0,0.4,0,0.6c-0.1,1.1-0.9,1.5-1.8,1.1c-0.9-0.5-1.6-1.7-1.5-2.7
			C60.8,82.4,61.6,81.9,62.5,82.4z"/>
		<path class="st7" d="M65.6,87.1c0.3,1,1,1.9,1.8,2.3c1.2,0.6,2.2,0,2.3-1.4c0.1-1.4-0.8-3-2-3.6c-0.6-0.3-1.1-0.3-1.5-0.1
			l-0.4-0.4l0-0.7c0.5-0.2,1.2-0.2,1.9,0.2c1.7,0.9,2.9,3.1,2.8,5.1s-1.6,2.9-3.2,2c-1-0.5-1.8-1.4-2.3-2.5
			C65.3,87.7,65.4,87.4,65.6,87.1z"/>
		<path class="st7" d="M65.5,76.8c1.7,0.9,2.9,3.1,2.8,5.1c0,0.5-0.1,0.9-0.3,1.2c-0.1-0.1-0.2-0.1-0.3-0.2
			c-0.3-0.1-0.5-0.2-0.7-0.3c0.3-0.3,0.4-0.7,0.5-1.2c0.1-1.4-0.8-3-2-3.6c-1.2-0.6-2.2,0-2.3,1.4c-0.1,1.1,0.5,2.4,1.4,3.2l0,0.6
			L64,83.1c-1.1-1.1-1.8-2.8-1.7-4.3C62.4,76.9,63.8,76,65.5,76.8z"/>
		<path class="st7" d="M62.2,80.6c0.1,0.4,0.3,0.9,0.5,1.3c-0.1,0-0.1-0.1-0.2-0.1c-1.2-0.6-2.2,0-2.3,1.4c-0.1,1.4,0.8,3,2,3.6
			c1.2,0.6,2.2,0,2.3-1.4c0-0.2,0-0.4,0-0.5l0.4,0l0.4,0.5c0,0.2,0,0.4,0,0.5c-0.1,2-1.6,2.9-3.2,2c-1.7-0.9-2.9-3.1-2.8-5.1
			C59.5,80.9,60.8,80,62.2,80.6z"/>
	</g>
	<path class="st8" d="M57.1,68.6L57.1,68.6L74,77.9L91,68.6v0L74,59.3L57.1,68.6z"/>
	<g>
		<path class="st9" d="M91,68.6l5.6,5.6l-16.9,9.3L74,77.9L91,68.6z"/>
		<path class="st9" d="M57.1,68.6l-5.6,5.6l16.9,9.3l5.6-5.6L57.1,68.6z"/>
		<path class="st9" d="M91,68.6l5.6-5.6l-16.9-9.3L74,59.3L91,68.6z"/>
		<path class="st9" d="M57.1,68.6L51.5,63l16.9-9.3l5.6,5.6L57.1,68.6z"/>
	</g>
	<path d="M92.2,68.6l4.9-4.9c0.2-0.2,0.3-0.5,0.3-0.8c0-0.3-0.2-0.5-0.5-0.7L91,59c-0.4-0.2-1-0.1-1.2,0.4c-0.2,0.4-0.1,1,0.4,1.2
		l4.9,2.7l-4.2,4.2l-15.3-8.4l4.2-4.2l4.3,2.4c0.4,0.2,1,0.1,1.2-0.4c0.2-0.4,0.1-1-0.4-1.2l-4.9-2.7c-0.4-0.2-0.8-0.1-1.1,0.2
		L74,58l-4.9-4.9c-0.3-0.3-0.7-0.4-1.1-0.2l-16.9,9.3c-0.3,0.1-0.4,0.4-0.5,0.7c0,0.3,0.1,0.6,0.3,0.8l4.9,4.9l-4.9,4.9
		c-0.2,0.2-0.3,0.5-0.3,0.8c0,0.3,0.2,0.5,0.5,0.7l5.1,2.8v9.4c0,0.3,0.2,0.6,0.5,0.8l16.9,9.3c0.1,0.1,0.3,0.1,0.4,0.1
		c0.2,0,0.3,0,0.4-0.1L91.4,88c0.3-0.2,0.5-0.5,0.5-0.8v-9.4L97,75c0.3-0.1,0.4-0.4,0.5-0.7c0-0.3-0.1-0.6-0.3-0.8L92.2,68.6z
		 M74,76.9l-15-8.3l15-8.3l15,8.3L74,76.9z M68.3,54.9l4.2,4.2l-15.3,8.4L53,63.2L68.3,54.9z M57.3,69.7l15.3,8.4l-4.2,4.2L53,74
		L57.3,69.7z M90,86.7L74.9,95v-9.4c0-0.5-0.4-0.9-0.9-0.9c-0.5,0-0.9,0.4-0.9,0.9V95L58,86.7v-7.8l10,5.5c0.1,0.1,0.3,0.1,0.4,0.1
		c0.2,0,0.5-0.1,0.6-0.3l4.9-4.9l4.9,4.9c0.2,0.2,0.4,0.3,0.6,0.3c0.2,0,0.3,0,0.4-0.1l10-5.5V86.7z M79.8,82.4l-4.2-4.2l15.3-8.4
		L95,74L79.8,82.4z"/>
	<path d="M87.6,59.1c0.2,0,0.5-0.1,0.6-0.3c0.2-0.2,0.3-0.4,0.3-0.6c0-0.2-0.1-0.5-0.3-0.6c-0.2-0.2-0.4-0.3-0.6-0.3
		c-0.2,0-0.5,0.1-0.6,0.3c-0.2,0.2-0.3,0.4-0.3,0.6c0,0.2,0.1,0.5,0.3,0.6C87.2,59,87.4,59.1,87.6,59.1z"/>
	<path d="M74,81.6c-0.2,0-0.5,0.1-0.6,0.3c-0.2,0.2-0.3,0.4-0.3,0.6c0,0.2,0.1,0.5,0.3,0.6c0.2,0.2,0.4,0.3,0.6,0.3
		c0.2,0,0.5-0.1,0.6-0.3c0.2-0.2,0.3-0.4,0.3-0.6c0-0.2-0.1-0.5-0.3-0.6C74.5,81.7,74.3,81.6,74,81.6z"/>
</g>
</svg>
