<?xml version="1.0" encoding="utf-8"?>
<!-- Generator: Adobe Illustrator 24.0.2, SVG Export Plug-In . SVG Version: 6.00 Build 0)  -->
<svg version="1.1" id="Capa_1" xmlns="http://www.w3.org/2000/svg" xmlns:xlink="http://www.w3.org/1999/xlink" x="0px" y="0px"
	 viewBox="0 0 314.6 100" style="enable-background:new 0 0 314.6 100;" xml:space="preserve">
<style type="text/css">
	.st0{fill:#FFFFFF;}
	.st1{fill:url(#SVGID_1_);}
</style>
<title>Artboard</title>
<desc>Created with Sketch.</desc>
<g>
	<path class="st0" d="M46.2,54.1c1.3,1.7,1.9,3.7,1.9,6c0,3.4-1.4,6.1-4.1,7.9c-2.8,1.9-6.7,2.8-11.9,2.8H11v-39h20
		c5,0,8.8,0.9,11.4,2.8c2.6,1.8,3.9,4.3,3.9,7.4c0,1.9-0.5,3.5-1.4,5s-2.2,2.6-3.9,3.5C43.2,51.2,45,52.5,46.2,54.1z M21.9,39.7v7.5
		h7.6c3.7,0,5.6-1.3,5.6-3.8s-1.9-3.7-5.6-3.7H21.9z M37,58.9c0-2.6-1.9-4-5.8-4h-9.3v7.9h9.3C35,62.8,37,61.5,37,58.9z"/>
	<path class="st0" d="M49.2,40.6h10.6v30.2H49.2V40.6z M60.4,32c0,3.3-2.6,5.9-5.9,5.9s-5.9-2.6-5.9-5.9c0-3.3,2.6-5.9,5.9-5.9
		S60.4,28.7,60.4,32z"/>
	<path class="st0" d="M82.3,62.2c-0.9,0.6-2,0.9-3.2,0.9c-1,0-1.7-0.3-2.3-0.9c-0.6-0.6-0.9-1.5-0.9-2.5v-10h4.7
		c0.2-2.9,0.9-5.5,2.2-7.9v-0.1h-6.9v-7.9H65.3v7.9h-4.4v7.9h4.4v10.2c0,3.8,1.1,6.7,3.2,8.6s5.2,2.9,9.1,2.9c1.5,0,2.8-0.1,4.1-0.4
		c1.3-0.3,2.4-0.7,3.3-1.3L82.3,62.2z"/>
	<path class="st0" d="M92.7,69c-3.3-1.7-5.8-4.1-7.7-7.2c-1.9-3.1-2.8-6.6-2.8-10.5s0.9-7.4,2.8-10.5s4.4-5.5,7.7-7.2
		c3.3-1.7,6.9-2.6,11-2.6c3.6,0,6.8,0.6,9.7,1.9c2.9,1.3,5.2,3.1,7.1,5.5l-7,6.4c-2.5-3-5.6-4.6-9.2-4.6c-2.1,0-4,0.5-5.7,1.4
		s-2.9,2.2-3.9,3.9c-0.9,1.7-1.4,3.6-1.4,5.8s0.5,4.1,1.4,5.8s2.2,3,3.9,3.9c1.7,0.9,3.5,1.4,5.7,1.4c3.6,0,6.7-1.5,9.2-4.6l7,6.4
		c-1.9,2.4-4.3,4.2-7.1,5.5c-2.9,1.3-6.1,1.9-9.7,1.9C99.6,71.6,95.9,70.7,92.7,69z"/>
	<path class="st0" d="M121.7,29.4h10.6v41.4h-10.6V29.4z"/>
	<path class="st0" d="M141.4,69.3c-2.6-1.3-4.6-3.2-6.1-5.6c-1.5-2.4-2.2-5.1-2.2-8.1s0.7-5.7,2.2-8c1.5-2.4,3.5-4.2,6.1-5.6
		c2.6-1.3,5.5-2,8.8-2s6.2,0.7,8.8,2s4.6,3.2,6.1,5.5c1.5,2.4,2.2,5.1,2.2,8.1s-0.7,5.7-2.2,8.1s-3.5,4.2-6.1,5.6
		c-2.6,1.3-5.5,2-8.8,2S144,70.7,141.4,69.3z M154.7,61c1.2-1.3,1.8-3.1,1.8-5.3s-0.6-4-1.8-5.2c-1.2-1.3-2.7-1.9-4.6-1.9
		c-1.9,0-3.4,0.6-4.6,1.9c-1.2,1.3-1.8,3-1.8,5.2c0,2.3,0.6,4,1.8,5.3s2.7,1.9,4.6,1.9C152,62.9,153.5,62.3,154.7,61z"/>
	<path class="st0" d="M199.8,40.6v30.2h-10.1v-3.2c-1.1,1.2-2.5,2.2-4,2.8c-1.6,0.6-3.2,0.9-5,0.9c-3.9,0-7-1.2-9.3-3.5
		s-3.5-5.8-3.5-10.4V40.6h10.6v15.2c0,2.3,0.4,3.9,1.3,5c0.9,1,2.1,1.6,3.7,1.6c1.7,0,3-0.6,4.1-1.8s1.6-3,1.6-5.4V40.6H199.8z"/>
	<path class="st0" d="M234.5,29.4v41.4h-10.1v-3c-2,2.3-4.9,3.5-8.9,3.5c-2.8,0-5.3-0.6-7.5-1.9c-2.3-1.3-4.1-3.1-5.4-5.5
		c-1.3-2.4-2-5.1-2-8.3c0-3.1,0.7-5.9,2-8.2c1.3-2.4,3.1-4.2,5.4-5.4c2.3-1.3,4.8-1.9,7.5-1.9c3.6,0,6.4,1,8.4,3.1V29.4H234.5z
		 M222.3,61c1.2-1.3,1.8-3.1,1.8-5.3s-0.6-4-1.8-5.2c-1.2-1.3-2.7-1.9-4.5-1.9c-1.9,0-3.4,0.6-4.6,1.9c-1.2,1.3-1.8,3-1.8,5.2
		c0,2.3,0.6,4,1.8,5.3s2.7,1.9,4.6,1.9C219.6,62.9,221.1,62.3,222.3,61z"/>
</g>
<g>
	<linearGradient id="SVGID_1_" gradientUnits="userSpaceOnUse" x1="280.2746" y1="79.803" x2="273.7518" y2="19.0006">
		<stop  offset="0" style="stop-color:#00C7FF"/>
		<stop  offset="0.2807" style="stop-color:#00BEFF"/>
		<stop  offset="0.7459" style="stop-color:#00A4FF"/>
		<stop  offset="0.9944" style="stop-color:#0094FF"/>
	</linearGradient>
	<circle class="st1" cx="277" cy="49.1" r="30.9"/>
	<g>
		<path class="st0" d="M287.2,48.4c-1.9,0-3.5,0.7-4.7,1.9c-0.2,0.2-0.6,0.3-0.8,0.1l-3.3-1.9c-0.2-0.1-0.4-0.4-0.4-0.6l0-3.7
			c0-0.3,0.2-0.6,0.5-0.6c2.8-0.7,4.9-3.3,4.9-6.3c0-3.6-2.9-6.5-6.5-6.5c-3.6,0-6.6,2.9-6.6,6.5c0,3,2.1,5.6,4.9,6.3
			c0.3,0.1,0.5,0.3,0.5,0.6l0,3.7c0,0.3-0.1,0.5-0.4,0.6l-3.2,1.9c-0.3,0.2-0.6,0.1-0.8-0.1c-1.2-1.2-2.9-2-4.7-2
			c-3.6,0-6.5,3-6.5,6.6c0,3.6,2.9,6.5,6.5,6.5c3.6,0,6.5-2.9,6.5-6.5c0-0.6-0.1-1.2-0.2-1.8c-0.1-0.3,0-0.6,0.3-0.8l3.3-1.9
			c0.2-0.1,0.5-0.1,0.7,0l3.2,1.9c0.3,0.2,0.4,0.5,0.3,0.8c-0.2,0.6-0.3,1.2-0.3,1.8c0,3.6,3,6.5,6.5,6.5c3.6,0,6.5-2.9,6.5-6.5
			C293.7,51.4,290.8,48.4,287.2,48.4z"/>
		<path class="st0" d="M274.4,58.9c-1.4,2.7-4.3,4.6-7.6,4.6c-4.8,0-8.6-3.9-8.6-8.6c0-4.8,3.9-8.6,8.6-8.6c2.2,0,4.2,0.8,5.7,2.2
			l1.6-0.8l0.1-2.3c-2-1.6-4.6-2.6-7.4-2.6c-6.6,0-12,5.4-12,12s5.4,12,12,12c3.8,0,7.2-1.8,9.4-4.5
			C275.4,61.4,274.8,60.2,274.4,58.9z"/>
		<path class="st0" d="M277,25.2c-6.6,0-12,5.4-12,12c0,1.6,0.3,3.1,0.9,4.5c0.4,0,0.7,0,1.1,0c1,0,2,0.1,3,0.4
			c-0.9-1.4-1.5-3.1-1.5-4.9c0-4.8,3.9-8.6,8.6-8.6c4.8,0,8.6,3.9,8.6,8.6c0,3.8-2.5,7.1-6,8.2l0,2.1l1.7,1
			c4.5-1.7,7.7-6.1,7.7-11.2C289,30.6,283.6,25.2,277,25.2z"/>
		<path class="st0" d="M288.7,43c-0.6,1.2-1.4,2.4-2.3,3.3c0.3,0,0.5,0,0.8,0c4.8,0,8.6,3.9,8.6,8.6c0,4.8-3.9,8.6-8.6,8.6
			c-4.8,0-8.6-3.9-8.6-8.6c0-0.6,0.1-1.2,0.2-1.8l-1.7-0.8l-1.8,0.8c-0.1,0.6-0.1,1.1-0.1,1.7c0,6.6,5.4,12,12,12
			c6.6,0,12-5.4,12-12C299.2,48.8,294.6,43.8,288.7,43z"/>
	</g>
	<path class="st0" d="M277,19.5c-16.3,0-29.6,13.3-29.6,29.6s13.3,29.6,29.6,29.6c16.3,0,29.6-13.3,29.6-29.6S293.3,19.5,277,19.5z
		 M277,74.9c-14.2,0-25.8-11.6-25.8-25.8s11.6-25.8,25.8-25.8c14.2,0,25.8,11.6,25.8,25.8S291.2,74.9,277,74.9z"/>
	<path class="st0" d="M277,23.7c-14,0-25.3,11.3-25.3,25.3S263,74.4,277,74.4c14,0,25.3-11.3,25.3-25.3S291,23.7,277,23.7z
		 M277,73.8c-13.6,0-24.7-11.1-24.7-24.7s11.1-24.7,24.7-24.7s24.7,11.1,24.7,24.7S290.6,73.8,277,73.8z"/>
</g>
</svg>
