<?xml version="1.0" encoding="utf-8"?>
<!-- Generator: Adobe Illustrator 24.0.2, SVG Export Plug-In . SVG Version: 6.00 Build 0)  -->
<svg version="1.1" id="ic_empty_Dark_zpiv" xmlns="http://www.w3.org/2000/svg" xmlns:xlink="http://www.w3.org/1999/xlink" x="0px"
	 y="0px" viewBox="0 0 100 100" style="enable-background:new 0 0 100 100;" xml:space="preserve">
<style type="text/css">
	.st0{fill:#CB985C;}
	.st1{fill:#C59459;}
	.st2{fill:#B38045;}
	.st3{fill:#C18E52;}
	.st4{fill:#B28045;}
	.st5{fill:#FDCB9F;}
	.st6{fill:#E8B289;}
	.st7{fill:#E8B28A;}
	.st8{fill:#E7B289;}
	.st9{fill:#666666;}
	.st10{fill:#696867;}
	.st11{fill:#A3753F;}
	.st12{fill:#A2753F;}
	.st13{fill:#B27F45;}
	.st14{fill:#AD7B43;}
	.st15{fill:#9F733F;}
	.st16{fill:#90DAF5;}
	.st17{fill:#5A5B5B;}
	.st18{fill:#F5C59C;}
	.st19{fill:#FCCA9F;}
	.st20{fill:#5F5F5F;}
	.st21{fill:#91D8F2;}
	.st22{fill:#E4E4E4;}
	.st23{fill:#CACACA;}
	.st24{fill:#91DAF5;}
	.st25{fill:#72D0EB;}
	.st26{fill:#FFFFFF;}
	.st27{fill:#068FFF;}
	.st28{fill:#06DAF7;}
	.st29{fill:#284CB2;}
	.st30{fill:#A6F9FF;}
</style>
<g>
	<g>
		<path class="st0" d="M45,5.1c0.8,0,1.7,0,2.5,0c0.3,0.2,0.6,0,0.8,0.1c1.3,0.1,2.4,0.6,3,1.8c-0.1,0.3-0.3,0.5-0.5,0.7
			c-1.8,1.8-3.6,3.6-5.4,5.4c-0.3,0.3-0.5,0.6-0.9,0.6c-3.7,0-7.4,0.1-11.1,0c-0.3-0.1-0.5-0.2-0.3-0.5c0.1-0.1,0.1-0.2,0.2-0.3
			c1.8-1.8,3.7-3.6,5.4-5.5c0.6-0.4,1-0.9,1.5-1.4c0.2,0,0.3,0,0.4,0.1c1.5,1.4,1.5,1.4,3-0.1C44.1,5.7,44.4,5.2,45,5.1z"/>
		<path class="st0" d="M28,13.5c0.1-1.4-0.2-2.8,0.2-4.2c0.5-2,1.8-3.3,3.7-4c0.2-0.1,0.4-0.1,0.6-0.3c2,0,4,0,6,0
			c0.1,0.3-0.1,0.4-0.3,0.6c-0.6,0.5-1.2,1.1-1.7,1.7c-1.9,1.9-3.8,3.8-5.6,5.6c-0.3,0.3-0.5,0.6-0.9,0.7
			C29.2,13.8,28.6,13.8,28,13.5C28,13.6,28,13.6,28,13.5z"/>
		<path class="st1" d="M36.2,7.2c0.6-0.9,1.5-1.4,2.2-2.2c0.3,0,0.6,0,0.8,0c0.5,0.2,1,0.3,1,1c-0.2,0.7-0.8,1-1.3,1.5
			c-0.6-0.1-1.1-0.1-1.7-0.1C36.8,7.5,36.5,7.5,36.2,7.2z"/>
		<path class="st2" d="M51.3,7.1c-0.7-1-1.8-1.6-3-1.8c-0.1,0-0.1-0.1-0.1-0.1s0-0.1,0.1-0.1c1.1,0,2.2,0,3.3,0
			c0.4,0.2,0.9,0,1.2,0.4c-0.2,0.7-0.9,1-1.3,1.6C51.5,7.1,51.4,7.1,51.3,7.1z"/>
		<path class="st3" d="M48.3,5.1c0,0.1,0,0.1,0,0.2c-0.3,0-0.6,0.1-0.8-0.2C47.8,5.1,48.1,5.1,48.3,5.1z"/>
		<path class="st0" d="M19.8,61.7c1.4-0.3,2.8,0,4.2-0.1c0.3,0,0.6,0.2,0.7-0.2c0.1-0.2-0.1-0.5-0.3-0.7c-1.3-1.7-2.5-3.3-3.8-5
			c-0.1-0.1-0.1-0.1,0-0.2c0.8-1.1,1.9-1.9,2.8-2.9c1.3-1.4,2.7-2.7,4.1-4.1c0.2-0.2,0.4-0.3,0.3-0.6c0.3-0.3,0.7-0.2,1-0.3
			c0.6-0.1,1.2-0.3,1.9-0.3c0.1,0,0.2,0,0.2,0.1c0.9,0.9,1.8,1.8,2.7,2.7c0.1,0.1,0.1,0.2,0.2,0.4c0.1,1.2,0.1,2.4,0,3.6
			c0,0.1,0,0.3-0.1,0.4c-0.1,0.3-0.3,0.5-0.6,0.7c-4.1,4.1-8.2,8.2-12.4,12.3c-0.3,0.3-0.5,0.6-1,0.5c-0.5-0.7-0.2-1.2,0.3-1.8
			c1.2-1.2,2.3-2.3,3.5-3.5c0.3-0.3,0.6-0.6,0.9-1c0.1,0-0.1-0.1,0,0v0.1c-1.1,0.3-2.3,0.1-3.4,0.1C20.6,61.9,20.2,62,19.8,61.7z"/>
		<path class="st4" d="M19.8,61.7c1.6,0,3.2,0,4.8,0c0.1,0.5-0.2,0.7-0.5,0.9c-1.3,1.3-2.6,2.6-3.9,3.9c-0.5,0.5-0.6,0.9-0.3,1.5
			c0.1,0.1,0.1,0.1,0,0.2c-0.2,0.3-0.5,0.6-0.7,0.8c-3,3-5.9,6-8.9,8.9c-0.6,0.6-0.9,1.2-0.8,2c0.1,0.7,0,1.4,0.1,2.1c0,2,0,4,0,5.9
			c0,0.4,0.1,0.8-0.3,1.1c-0.2-0.5-0.1-1.1-0.1-1.6c0-1.8,0-3.6,0-5.4c-0.4-1-0.4-2.1,0-3.1c0-0.3,0-0.7,0-1
			c0.1-2.2-0.1-4.5,0.2-6.7C10,66.2,14.8,61.8,19.8,61.7z"/>
		<path class="st5" d="M29,44.3c-0.5-1.6-1-3.2-1-4.9c0-0.4-0.3-0.4-0.6-0.4c-0.7,0-1.4,0-2.1,0c-0.3,0-0.6,0.1-0.9-0.2
			c0.6-0.5,1.3-0.2,2-0.3c1.2,0,1.2,0,1.2-1.3c0-1.2,0-2.4,0-3.6c0-0.1,0-0.2,0-0.3c0.9-1.3,2.1-2.2,3.2-3.3c0.1-0.1,0.4-0.3,0.6,0
			c0.5,2.7,1.8,3,4.1,3c0.7,0,1.3,0.1,2-0.1c1.2-0.3,1.9-1.1,2.1-2.3c0.2-0.5,0-1.1,0.2-1.6c0.1-0.2,0.3-0.3,0.6-0.3c1,0,2,0,3,0
			c0.2,0,0.4,0,0.5,0.2s-0.1,0.4-0.2,0.6c-0.2,0.2-0.4,0.4-0.6,0.7c-4.3,4.3-8.6,8.6-12.9,12.9C29.8,43.5,29.4,43.9,29,44.3
			C29,44.5,28.9,44.5,29,44.3z"/>
		<path class="st0" d="M23,23.5c-1.1,0-2.1,0-3.2,0c-1.8-0.1-2.9-1-3.1-2.4c-0.3-1.7,0.8-3,2.7-3.3c1.9-0.1,3.9,0,5.8,0
			c0.2,0,0.4,0.1,0.3,0.3c-0.1,0.3-0.4,0.5-0.6,0.7c-1.4,1.4-2.8,2.8-4.3,4.3c1,0.1,2,0,2.9,0c1.1,0,2.3,0,3.4,0c0.3,0,0.7,0,1,0.3
			c0,0.1,0,0.1,0,0.2C26.3,23.5,24.7,23.5,23,23.5z"/>
		<path class="st6" d="M22.4,35.9c0-1.8,0-3.6,0-5.5c0.2-1.8,1.2-2.7,3-2.7c0.4,0,0.9,0,1.3,0c0.7,1.1,1.8,1,2.9,1
			c0.6,0,1.3-0.1,1.9,0.2c0.1,0.1,0.1,0.2,0,0.3c-0.7,0.4-1.4,0.1-2.1,0.2c-0.6-0.1-1.2-0.1-1.1,0.8c0,0.1,0,0.2-0.1,0.2
			c-1.5,1.7-3.1,3.2-4.7,4.8C23.1,35.5,22.9,35.9,22.4,35.9z"/>
		<path class="st0" d="M20.7,55.6c-0.5-0.6-1-1.2-1.3-1.8c0.1-0.3,0.3-0.5,0.5-0.7c1.2-1.2,2.4-2.4,3.7-3.7c0.3-0.3,0.5-0.5,0.8-0.6
			c0.1-0.1,0.2-0.1,0.3-0.2c1-0.4,2-0.8,3.1-0.5c0.5,0.1,0.1,0.3,0,0.4c-0.7,0.7-1.5,1.5-2.2,2.2C24,52.4,22.3,54,20.7,55.6z"/>
		<path class="st0" d="M24.3,48.8c-1.6,1.7-3.2,3.4-5,5h-0.1c-0.5-0.7-1-1.3-1.4-2c-0.6-0.8-0.3-1.6,0.6-1.8
			C20.3,49.5,22.3,49.2,24.3,48.8z"/>
		<path class="st5" d="M28,26.3c0-0.5,0-1,0-1.5c0.4-0.6,0.8-1.2,1.6-1.5c1.7-0.1,3.3-0.1,5,0c0.3,0.1,0.3,0.4,0.1,0.6
			c-0.9,0.9-1.6,2-2.8,2.6c-1.1,0.1-2.1,0-3.2,0C28.4,26.5,28.2,26.5,28,26.3z"/>
		<path class="st7" d="M23.3,38.4L23.3,38.4c-0.1-0.4,0.1-0.6,0.3-0.7c1.2-1.3,2.5-2.5,3.7-3.7c0.2-0.2,0.3-0.4,0.6-0.3
			c0,1.5,0,3.1,0,4.6c0,0.5-0.2,0.7-0.7,0.7c-0.9,0-1.9,0-2.8,0C24,38.9,23.7,38.6,23.3,38.4z"/>
		<path class="st8" d="M28,26.3c1.4,0,2.7,0,4.1,0c1-0.5,2.1-0.2,3.2-0.2c3.9,0,7.8,0,11.7,0c1,0,2.1,0,3.1,0c0.5,0,1.1,0,1.6,0
			c0.7,0,0.9-0.3,0.8-0.9c0-0.5-0.1-1,0.1-1.5c0-0.1,0.1-0.2,0.2-0.2c0.6-0.3,1.3-0.2,2-0.1c0.7,0.4,1.3,0.9,1.6,1.6
			c0.1,0.5,0.2,1.1-0.2,1.6c-1,0.4-2,0.1-3,0.2c-1.2,0-2.3,0-3.5,0c-1.1,0-2.1,0-3.2,0c-3.9,0-7.8,0-11.7,0c-1.1,0-2.1,0-3.2,0
			c-0.9,0-1.9,0-2.8,0c-0.3,0-0.7,0-1-0.3C28,26.4,28,26.3,28,26.3z"/>
		<path class="st9" d="M28,26.4c1.3,0,2.5,0,3.8,0.1c-0.5,1.1-1.4,1.8-2.3,2.4c-0.4,0-0.7,0-1.1,0c-0.9,0.1-1.5-0.3-1.8-1.2
			C26.8,27,27.1,26.5,28,26.4z"/>
		<path class="st10" d="M29.3,23.5c-0.4,0.5-0.8,0.9-1.3,1.3c0-0.4,0-0.9,0-1.3l0,0C28.4,23.1,28.9,23.1,29.3,23.5z"/>
		<path class="st6" d="M56.3,39c-0.2,3-0.9,5.7-2.7,8.1c-0.1,0.1-0.1,0.2-0.1,0.3c-0.2,0.9-1,1.4-1.6,2c-0.7,0.6-1.1,1.3-1,2.3
			c0,0.2,0,0.3-0.1,0.5c0,0.2-0.1,0.3-0.2,0.4c-2.8,2.9-5.7,5.7-8.5,8.6c-0.6,0.6-1.2,1.3-2,1.9c-0.1,0-0.2,0-0.2,0
			c-1.5-0.8-2.8-1.8-4.1-2.7c-0.8-0.5-1.5-1-2.3-1.5c-0.1-0.4,0-0.7,0-1.1c0-0.1,0-0.2,0.1-0.2c0.3-0.6,0.9-1.1,1.3-1.5
			c1.2-1.2,2.4-2.4,3.5-3.6c0.2-0.1,0.4,0,0.6,0c2.3,0.5,4.5-0.3,6.4-1.4c4.7-2.8,7.1-7,7.2-12.5c0-0.1,0-0.2,0.1-0.2
			c1-1.3,2.3-2.3,3.4-3.5c0.1-0.1,0.2,0,0.2,0c0.1,0.1,0.1,0.1,0.2,0.2c0.2,1.1,0.1,2.2,0.1,3.3C56.5,38.6,56.4,38.8,56.3,39z"/>
		<path class="st5" d="M61.6,29.4c0.1,0,0.1,0,0.2,0c0.3,2.4,0.2,4.7,0.1,7.1c0,1.3-1.3,2.5-2.7,2.5c-1,0-1.9,0-2.9,0
			c0-1.4,0-2.8,0-4.1v-0.1c1.1-1.3,2.3-2.4,3.5-3.6C60.4,30.6,61,30,61.6,29.4z"/>
		<path class="st0" d="M55.3,47.8c0.1,0.1,0.1,0.1,0.2,0.2c-1.4,1.1-2.6,2.5-3.9,3.7c-0.3,0.2-0.5,0.6-0.8,0.6h-0.1
			c-0.2-1.3,0.1-2.4,1.3-3.2c0.6-0.4,1-1,1.5-1.6C54.1,47.6,54.7,47.8,55.3,47.8z"/>
		<path class="st0" d="M57.6,48.3c0.1,0,0.2,0,0.3,0c2.4,0.5,4.8,1,7.1,1.5c0.7,0.1,1.5,0.2,1.7,1.1c0.1,0.2,0.1,0.4,0,0.6
			c-4.7,4.6-9.4,9.4-14.1,14c-0.3,0.3-0.5,0.8-1,0.6c-0.1-0.6,0.2-1.1,0.4-1.6c0.2-0.6,0.5-1.2,0.7-1.8c0.3-0.8,0.2-1.4-0.4-2
			c-0.6-0.6-1.3-1.2-1.8-1.9c0-0.1-0.1-0.2-0.1-0.3c0-0.9,0-1.9,0-2.8c0-0.1,0-0.2,0-0.3s0.1-0.2,0.2-0.3
			C52.9,52.9,55.2,50.6,57.6,48.3z"/>
		<path class="st4" d="M61.4,61.6c0.7,0,1.4,0,2.2,0c0,0.1,0,0.2,0,0.2c-0.3,0.2-0.6,0-0.9,0c1.9,0.3,3.6,1.2,5,2.5
			c0.1,0.1,0.3,0.3,0.3,0.5c0,0.3-0.2,0.5-0.4,0.7c-1.1,1.1-2.1,2.1-3.2,3.2c-0.2,0.2-0.4,0.4-0.7,0.3c-0.2-0.6,0.4-0.9,0.4-1.4
			s-0.4-0.8-0.7-1.2c-1.2-1.3-2.5-2.4-3.6-3.7c-0.1-0.1-0.2-0.2-0.3-0.3c-0.1-0.2-0.3-0.4-0.2-0.6c0.1-0.3,0.4-0.2,0.6-0.2
			C60.4,61.6,60.9,61.7,61.4,61.6z"/>
		<path class="st0" d="M61.4,61.6c-0.4,0.3-0.9,0.1-1.3,0.1c-0.2,0-0.5-0.1-0.6,0.1c-0.1,0.2,0.2,0.4,0.3,0.5s0.2,0.2,0.2,0.3
			c-1.9,1.5-3.5,3.3-5.2,5c-1.4,1.4-2.9,2.8-4.3,4.3c-0.4,0.4-0.9,0.5-1.4,0c-0.1-0.4,0-0.6,0.3-0.9c0.3-0.1,0.5-0.4,0.8-0.6
			c2.6-2.6,5.3-5.3,7.9-7.9c0.4-0.4,0.7-1,1.2-1.4c0,0.1,0,0.3,0.2,0.3C60.2,61.5,60.8,61.6,61.4,61.6z"/>
		<path class="st11" d="M67.9,64.8c-1.5-1.7-3.5-2.5-5.6-3.1c0.2-0.2,0.4-0.1,0.6-0.1s0.4,0,0.7,0c0.4-0.1,0.8-0.1,1.2,0
			c1.7,0.1,3.2,0.8,4.7,1.5v0.1c-0.3,0.7-0.9,1.1-1.4,1.5C68,64.9,67.9,64.9,67.9,64.8z"/>
		<path class="st4" d="M62.1,17.8c0.9,0,1.9,0,2.8,0c1.6,0.2,2.3,1,2.7,2.7c-0.1,0.3,0.1,0.6-0.2,0.9c-0.1-0.1-0.2-0.3-0.5-0.1
			c-0.5,0.5-1.1,1.1-1.6,1.6c-0.3,0.2,0,0.3,0.1,0.4c-0.3,0.2-0.6,0.1-0.9,0.2c-0.7,0.3-1.5,0.2-2.3,0.1c-0.5-0.5,0.1-0.6,0.3-0.7
			c0.8-0.6,1.3-1.3,1.3-2.3s-0.4-1.7-1.2-2.2C62.4,18.3,62,18.2,62.1,17.8z"/>
		<path class="st12" d="M72.8,89.8c-0.5,0-1,0-1.5,0C71.1,89.6,71,89.3,71,89c0-3.1-0.1-6.1,0-9.2c0-0.2,0-0.3,0.1-0.4
			c0.8-0.9,1.7-1.7,2.6-2.6c0.4-0.4,0.7-0.9,0.6-1.5c0-0.7,0-1.5,0-2.2c0-0.5-0.1-1,0.3-1.4c0.2,0.4,0.1,0.8,0.2,1.2
			c0.4,1.1,0.3,2.1,0,3.2c0,3.9,0,7.8,0,11.7C75,88,75,88.2,75,88.4c0,0.3,0,0.6-0.2,0.9c-0.5-0.1-0.2-0.5-0.4-0.8
			C73.8,88.8,73.5,89.6,72.8,89.8z"/>
		<path class="st12" d="M74.7,71.6c0,0.5,0,1,0,1.5c-0.8,1.2-1.9,2-2.9,3c-0.2,0.2-0.4,0.3-0.6,0c-0.2-0.8-0.1-1.6-0.1-2.5
			c0.1-2.4-0.5-4.7-1.7-6.8c0-0.1,0-0.2,0-0.3c0.3-0.9,1-1.4,1.8-1.9c0.1,0,0.1,0,0.2,0c1.6,1.6,2.7,3.5,3.2,5.8
			C74.6,70.8,74.6,71.2,74.7,71.6z"/>
		<path class="st13" d="M69.5,66.7c1.6,2.4,2,5.2,1.8,8c0,0.5,0,1,0,1.6l0.1,0.1c0,0.1,0,0.1,0,0.1c-0.1,0.3-0.4,0.5-0.6,0.7
			c-2.8,2.8-5.5,5.5-8.3,8.3c-0.3,0.3-0.6,0.6-0.9,0.8c-0.3,0.2-0.5,0.5-0.7,0.8c-0.1,0.1-0.1,0.2-0.2,0.3c-0.8,0.8-1.7,1.6-2.4,2.5
			c-2.5,0-5.1,0-7.6,0c-0.2-0.4,0.1-0.6,0.2-0.9c2.1-3.4,4.3-6.8,6.4-10.2c0.5-0.5,0.6-1.2,1.2-1.7c0.3-0.1,0.5-0.4,0.8-0.6
			c3.1-3.1,6.2-6.2,9.3-9.3C68.8,66.9,69,66.4,69.5,66.7z"/>
		<path class="st0" d="M49.3,72c0.6,0.3,1,0.2,1.4-0.4c0.7-0.9,1.5-1.6,2.3-2.4c0.9-0.9,1.8-1.8,2.6-2.6c0.8-0.8,1.7-1.6,2.5-2.4
			c0.4-0.4,0.7-0.9,1.2-1.2c0.2-0.1,0.4-0.3,0.7-0.2c1.2,1.3,2.5,2.5,3.7,3.8c0.3,0.3,0.7,0.7,0.6,1.2c-0.4,0.1-0.8,0.2-1,0.7
			s-0.8,0.7-1.1,1.1c-1.8,1.8-3.5,3.6-5.3,5.3c-4,4-7.9,7.9-11.9,11.9c-1,1-1.8,2-2.5,3.1c-3,0-6,0-9,0c-0.5-0.4-0.8-0.8-0.9-1.5
			c0-0.3,0.2-0.4,0.4-0.6c1.8-1.8,3.6-3.6,5.4-5.4c0.1-0.1,0.3-0.3,0.5-0.3c0.1,0,0.2,0,0.2,0.1c0.9,2,1.6,4,2.5,6
			c0.1,0.3,0.2,0.6,0.4,1c0.3-0.2,0.3-0.5,0.4-0.8c2.1-5.1,4.1-10.3,6.2-15.4c0.1-0.3,0.2-0.7,0.5-1C49.2,71.9,49.2,71.9,49.3,72z"
			/>
		<path class="st13" d="M9.4,89.1c0-2.4,0-4.9,0-7.3c0.2-0.3,0.4-0.6,0.7-0.9c3.4-3.4,6.7-6.7,10.1-10.1c0.3-0.3,0.5-0.6,0.9-0.7
			c0.1,0,0.2,0,0.2,0c0.7,0.8,1.2,1.8,1.8,2.7c0.9,1.4,1.8,2.8,2.6,4.2c0.2,0.1,0.2,0.3,0.2,0.4c-2.7,2.7-5.4,5.4-8.1,8
			c-0.3,0.3-0.6,0.6-0.9,0.8c-0.3,0.2-0.6,0.4-0.7,0.8c-0.1,0.1-0.1,0.2-0.2,0.3c-0.8,0.8-1.7,1.6-2.4,2.5c-1,0-2.1,0-3.1,0
			C9.9,89.8,9.5,89.7,9.4,89.1z"/>
		<path class="st4" d="M28.5,89.8c-4.1,0-8.2,0-12.2,0c-0.1-0.3,0.1-0.4,0.3-0.5c0.8-0.6,1.4-1.3,2.1-2c2.7-2.7,5.5-5.4,8.2-8.2
			c0.1,0,0.2,0,0.2,0c1.2,1.6,2.2,3.4,3.3,5.2c0.4,0.6,0.9,1.3,1.2,2c0,0.1,0,0.2,0,0.2C30.7,87.7,29.4,88.6,28.5,89.8z"/>
		<path class="st13" d="M71.3,79.6c0,3.4,0,6.8,0,10.2c-3.4,0-6.8,0-10.3,0c-0.2-0.3,0.1-0.5,0.3-0.7c0.6-0.5,1.2-1.1,1.8-1.7
			c2.4-2.4,4.9-4.9,7.3-7.3C70.7,79.9,70.9,79.5,71.3,79.6z"/>
		<path class="st0" d="M42.5,89.8c0.1-1,0.8-1.6,1.4-2.2c6.1-6.2,12.3-12.4,18.5-18.5c0.4-0.4,0.8-0.6,1-1.2c0.1-0.4,0.6-0.5,1-0.2
			c-0.2,0.5-0.6,0.8-0.7,1.3s-0.4,0.8-0.7,1.1c-0.5,0.4-0.9,0.8-1.3,1.3c-4.7,4.7-9.4,9.4-14.1,14.1c-0.3,0.3-0.6,0.6-0.9,0.8
			c-0.3,0.2-0.6,0.4-0.7,0.8c-0.1,0.2-0.2,0.3-0.4,0.4c-0.7,0.8-1.6,1.4-2,2.3C43.2,89.8,42.9,89.8,42.5,89.8z"/>
		<path class="st0" d="M57.4,78.8c-1.6,2.7-3.3,5.3-4.9,8c-0.6,1-1.3,2-1.9,3.1c-1.5,0-3.1,0-4.6,0c0-0.5,0.3-0.7,0.6-0.9
			c0.6-0.5,1.1-1,1.6-1.5c2.8-2.7,5.5-5.5,8.3-8.3c0.2-0.2,0.4-0.7,0.9-0.5C57.5,78.6,57.5,78.7,57.4,78.8
			C57.5,78.7,57.4,78.7,57.4,78.8z"/>
		<path class="st4" d="M28.5,89.8c-0.1-0.1-0.1-0.2,0-0.4c1-1,2-2,3-3.1c0.7,0.5,1,1.2,1.2,2c-0.2,0.8-0.9,1.1-1.4,1.5
			C30.3,89.8,29.4,89.8,28.5,89.8z"/>
		<path class="st14" d="M63.2,87.5c-0.5,0.7-1.1,1.3-1.8,1.8c-0.2,0.1-0.4,0.2-0.4,0.5c-0.9,0-1.9,0-2.8,0c-0.1-0.2-0.1-0.3,0-0.4
			c0.8-0.7,1.5-1.5,2.3-2.2c0.6,0.1,1.2,0.1,1.8,0.1C62.7,87.3,63,87.3,63.2,87.5z"/>
		<path class="st14" d="M18.7,87.4c-0.7,0.9-1.6,1.7-2.5,2.5c-0.9,0-1.8,0-2.7,0c-0.1-0.4,0.2-0.6,0.5-0.9c0.6-0.6,1.2-1.2,1.8-1.7
			C16.8,87.4,17.8,87.1,18.7,87.4z"/>
		<path class="st1" d="M48.3,87.5c-0.6,0.9-1.7,1.4-2.3,2.3c-0.8,0-1.7,0-2.5,0c-0.2-0.3,0-0.5,0.2-0.7c0.6-0.6,1.2-1.2,1.8-1.7
			C46.4,87.5,47.4,87.3,48.3,87.5z"/>
		<path class="st15" d="M74.7,89.2c0,0.3-0.3,0.4-0.5,0.6c-0.4,0-0.9,0-1.3,0c0.5-0.6,1-1.3,1.8-2C74.7,88.4,74.7,88.8,74.7,89.2z"
			/>
		<path class="st4" d="M31.3,89.8c0.3-0.7,1-0.8,1.3-1.5c0.1-0.1,0.1-0.1,0.2,0c0.1,0.6,0.6,0.9,0.8,1.5
			C32.8,89.8,32,89.8,31.3,89.8z"/>
		<path class="st16" d="M56.3,17c0,0.3,0,0.5,0,0.8c-0.3,0.4-0.7,0.3-1,0.3c-3.9,0-7.8,0-11.7,0c-1.1,0-2.1,0-3.2,0
			c-3.9,0-7.8,0-11.7,0c-0.3-0.1-0.6,0-0.7-0.3v-0.1c0.3-0.3,0.6-0.2,1-0.2c3.5,0,6.9,0,10.4,0c0.8,0,1.4-0.2,1.9-0.8
			c0.8-0.9,1.8-1.7,2.7-2.7c-3.8,0-7.5,0-11.3,0c-1,0-2.1,0-3.1,0c-0.6-0.1-1.2,0.2-1.7-0.3c0-0.1,0-0.1,0-0.2c0.7,0,1.3,0,2,0
			c1-0.4,2.1-0.4,3.1,0c3.9,0,7.8,0,11.8,0c1-0.5,2.1-0.2,3.1-0.2c1.5,0.1,3.1-0.1,4.6,0.1c0.1,0,0.2,0.1,0.3,0.2
			c0,0.1,0,0.2-0.1,0.3c-0.9,0.3-1.8,0.2-2.6,0.1c-1.7-0.2-2.9,0.3-3.9,1.7c-0.5,0.6-1.2,1.1-1.8,1.9c2.9,0,5.7,0,8.5,0
			c0.7,0,1.5,0,2.2,0c0.6,0,0.8-0.2,0.8-0.8c0-1-0.2-2,0.1-3c0.1-0.1,0.1-0.1,0.2-0.1c0,1,0,2.1,0,3.1C56.4,16.8,56.4,16.9,56.3,17z
			"/>
		<path class="st0" d="M33.1,13.5c-1,0-2.1,0-3.1,0c2-2.2,4.1-4.3,6.3-6.3c0.6,0,1.3,0,1.9,0c0.3,0,0.6,0,0.8,0.3
			C37,9.5,35,11.5,33.1,13.5z"/>
		<path class="st0" d="M48,13.5c-1,0-2.1,0-3.1,0c2.1-2.2,4.2-4.4,6.5-6.4c0.1,0,0.1,0,0.2,0c0.7,0.4,0.9,1.1,1.1,1.8
			c0,0.1,0,0.2-0.1,0.2C51.1,10.6,49.7,12.2,48,13.5z"/>
		<path class="st4" d="M52.5,9.1c0-0.1,0-0.1,0-0.2c0.5-0.9,1.3-1.5,2-2.2c0.1,0.1,0.2,0.1,0.3,0.2c1.2,1.5,1.6,3.2,1.5,5.1
			c0,0.5,0,1,0,1.6c-0.1,0-0.1,0-0.1,0c-1.1,0.3-2.2,0.4-3.3,0v-0.1c-0.1-0.1-0.2-0.3-0.2-0.4C52.6,11.7,52.5,10.4,52.5,9.1z"/>
		<path class="st4" d="M54.5,6.7c-0.4,1-1.3,1.5-2,2.2c-0.2-0.7-0.7-1.2-1-1.8c0.2-0.7,0.8-1,1.3-1.5C53.5,5.8,54,6.2,54.5,6.7z"/>
		<path class="st5" d="M29.9,46.3c0-0.1,0-0.1,0-0.2c0.9-1,2-2,3-3c3.6-3.6,7.1-7.1,10.7-10.7c0.3-0.3,0.5-0.7,1.1-0.6
			c0.9,1.1,2.2,1.4,3.6,1.3c0.7,0,1.4,0.1,2.1-0.1c0.9-0.2,1.5-0.8,1.9-1.6c0.1-0.2,0.1-0.6,0.5-0.5c0.3,0.5,0.2,1.1,0.2,1.7
			c0,0.8,0,1.6,0,2.4c0,0.1,0,0.2,0,0.3c-0.1,0.4-0.4,0.6-0.7,0.8c-5,5-10.1,10.1-15.2,15.1c-0.3,0.3-0.5,0.6-0.9,0.7
			c-1.1-0.2-2-0.8-2.6-1.6c-1.1-0.8-2-1.8-2.8-2.8C30.4,47.2,30,46.9,29.9,46.3z"/>
		<path class="st0" d="M21.3,70.1c-0.1,0-0.1,0-0.2,0c-0.5-0.6-1-1.2-1.2-2c0-0.1,0-0.1,0-0.2c0.2-0.2,0.5-0.4,0.7-0.6
			c4.1-4.1,8.1-8.1,12.2-12.2c0.2-0.2,0.5-0.4,0.7-0.6c0.5,1,0.3,2.1,0,3.1l0,0c-0.2,0.3-0.4,0.6-0.6,0.9
			c-3.8,3.8-7.7,7.6-11.5,11.5C21.4,70.1,21.4,70.1,21.3,70.1z"/>
		<path class="st6" d="M33.6,57.7c0-1,0-2.1,0-3.1c0-0.1,0-0.2,0-0.3c0.6-0.7,1.3-1.3,2-2c0.2-0.2,0.4-0.4,0.8-0.4
			c0.8,0.1,1.5,0.2,2.1,0.7c0,0.4-0.3,0.6-0.5,0.8C36.5,54.8,34.9,56.2,33.6,57.7z"/>
		<path class="st6" d="M36.2,51.9c-0.6,0.6-1.3,1.2-1.9,1.8c-0.2,0.2-0.4,0.5-0.7,0.5c0-1.3,0-2.6,0-4c0.9,0.5,1.6,1.2,2.6,1.5
			C36.3,51.8,36.3,51.8,36.2,51.9C36.3,51.9,36.3,51.9,36.2,51.9z"/>
		<path class="st4" d="M20,68.2c0.4,0.7,1,1.2,1.2,2c-0.2,0.2-0.5,0.4-0.7,0.6c-3.5,3.5-6.9,6.9-10.4,10.4c-0.2,0.2-0.5,0.4-0.7,0.6
			c-0.4-2.2,0.4-3.7,2.1-5.2c2.7-2.4,5.2-5.1,7.8-7.7C19.6,68.5,19.8,68.4,20,68.2z"/>
		<path class="st9" d="M34.9,26.5c3.9,0,7.8,0,11.8,0c0,0.6-0.5,0.9-0.9,1.2c-0.8,0.7-1.4,1.5-1.3,2.7c0,0.2,0.1,0.6-0.4,0.7
			c-0.4-0.5-0.3-1.1-0.2-1.6c0-0.3,0-0.4-0.3-0.4c-1.2,0-2.4-0.1-3.7,0.1c-0.1,0.6,0.1,1.3-0.2,1.8c-0.3-0.3-0.2-0.8-0.3-1.2
			c0-0.4-0.2-0.6-0.6-0.6c-0.1,0-0.2,0-0.2,0c-0.6,0-1.2-0.2-1.7,0.1c-0.5,0.3-0.2,1-0.3,1.5c-0.2,0.9-0.6,1.8-1.4,2.2
			c0.8,0,1.6-0.3,2.4,0.2c-1.5,0.3-3,0.4-4.5-0.1c-1.4-0.5-1.8-1.7-1.8-3c-0.3-0.3-0.2-0.7,0-1c0-0.1,0-0.1,0-0.2
			c0.5,0.1,0.3,0.3,0.3,0.5C32.8,28.5,33.6,27.3,34.9,26.5z"/>
		<path class="st5" d="M40.1,29.1c1.3-0.3,2.5-0.1,3.8-0.1c0.4,0,0.3,0.3,0.3,0.5c0.1,0.5-0.1,1.1,0.1,1.6c0.2,0.1,0.3,0.4,0.3,0.6
			c0,0.1,0,0.1-0.1,0.2c-0.2,0.2-0.5,0.4-0.7,0.7c-4.3,4.3-8.7,8.7-13,13c-0.2,0.2-0.4,0.6-0.8,0.6c-0.4-0.5-0.6-1.1-0.8-1.7
			c-0.1-0.5,0.3-0.7,0.5-1c4.5-4.5,9.1-9.1,13.6-13.6c0.2-0.2,0.5-0.4,0.7-0.5c0-0.1-0.1-0.2-0.1-0.3C42.6,29.1,41.3,29.1,40.1,29.1
			z"/>
		<path class="st7" d="M28,33.6c-1.6,1.5-3.2,3-4.6,4.7c-0.8-0.6-1-1.4-1-2.3c1.6-1.6,3.2-3.2,4.9-4.8c0.2-0.2,0.5-0.4,0.7-0.7
			C28.4,31.5,28.4,32.5,28,33.6C28,33.4,28,33.5,28,33.6z"/>
		<path class="st17" d="M37.8,33.2c-0.9,0-1.9,0-3,0c1.6-0.9,2-2.2,1.9-3.7c0-0.5,0.1-0.7,0.6-0.6c0.2,0,0.4,0,0.6,0
			c2.1,0,2.1,0,2.1,2C39.7,32.2,39,33,37.8,33.2z"/>
		<path class="st5" d="M28,33.4c0-1,0-2,0-3c0-0.1,0-0.1,0-0.2c0.3-0.5,0.6-0.9,1.2-1.2c0.8,0,1.5,0,2.3,0c0,0.3,0,0.7,0,1
			C30.3,31.2,29.1,32.3,28,33.4z"/>
		<path class="st0" d="M28.6,17.8c3.9,0,7.8,0,11.8,0c0.1,0.2-0.1,0.4-0.2,0.5c-1.7,1.7-3.4,3.5-5.2,5.2c-0.1,0-0.2,0-0.2,0
			c-1.8,0-3.6,0-5.5,0c-0.4,0-0.9,0-1.3,0c-0.4-0.3-1-0.1-1.4-0.2c-1.1,0-2.1,0-3.2,0c-0.1-0.3,0.1-0.5,0.3-0.6
			c1.5-1.5,2.9-2.9,4.4-4.4C28.2,18.1,28.4,18,28.6,17.8z"/>
		<path class="st0" d="M28.6,17.8c-1.5,1.6-3.1,3.1-4.6,4.7c-0.2,0.3-0.5,0.5-0.7,0.8c-1,0-2,0-3.2,0c1.9-1.9,3.6-3.7,5.3-5.4
			c0.8,0,1.7,0,2.5-0.1C28.2,17.8,28.4,17.8,28.6,17.8z"/>
		<path class="st9" d="M34.9,26.5c-1.1,1-2.2,2-3.3,3.1c-0.1-0.1,0.1-0.5-0.2-0.6c-0.7,0-1.3,0-2,0c0.8-0.8,1.5-1.6,2.3-2.4
			C32.8,26.5,33.9,26.5,34.9,26.5z"/>
		<path class="st18" d="M29.1,29.1c-0.3,0.5-0.7,0.8-1.2,1.2C28,29.1,28,29.1,29.1,29.1z"/>
		<path class="st5" d="M34.7,23.5c0.1,0,0.1,0,0.2,0c0.9-0.4,1.8-0.2,2.7-0.2c0.1,0,0.2,0.1,0.2,0.1c0.2,0.2,0.1,0.4,0,0.5
			c-0.8,0.8-1.5,1.8-2.5,2.4c-1.1,0-2.1,0-3.2,0C33,25.3,33.9,24.4,34.7,23.5z"/>
		<path class="st0" d="M62.1,17.8c0.4,0.4,0.9,0.5,1.3,0.9c1.2,1.3,0.9,3.3-0.6,4.3c-0.2,0.1-0.5,0.3-0.7,0.4
			c-0.2,0.3-0.6,0.3-0.9,0.3c-1.6,0-3.2,0-4.8,0c-0.5,0-1,0-1.4-0.2c-0.7,0-1.4,0-2.2,0v-0.1c1.7-1.8,3.5-3.5,5.2-5.3
			c0.1-0.1,0.3-0.2,0.4-0.2C59.6,17.8,60.9,17.8,62.1,17.8z"/>
		<path class="st5" d="M35.3,26.3c0.9-0.9,1.8-1.9,2.6-2.8c0.2-0.3,0.5-0.3,0.8-0.3c3.6,0,7.1-0.1,10.7,0c0.4,0.1,0.5,0.4,0.2,0.7
			c-0.8,0.8-1.5,1.8-2.5,2.4C43.1,26.3,39.2,26.3,35.3,26.3z"/>
		<path class="st9" d="M44.5,31.9c0-0.1,0-0.1,0-0.2c0.1-0.1,0,0,0-0.1c1.6-1.9,3.3-3.6,5.2-5.2c1.2,0,2.3,0,3.5,0
			c0.6,0.2,0.9,0.6,1,1.2c0,0.7-0.3,1.1-0.9,1.4c-0.3,0.1-0.5,0.2-0.8,0.2c-0.7-0.1-1.4,0-2.1,0c-0.7,0-0.9,0.3-0.9,0.9
			c0,0.9-0.2,1.7-0.8,2.5c-0.2,0.3-0.4,0.5-0.7,0.5c0.8,0.1,1.7-0.2,2.5,0.2c-1.5,0.3-3,0.3-4.5-0.1C45.3,32.9,44.9,32.4,44.5,31.9z
			"/>
		<path class="st9" d="M49.8,26.5c-1.7,1.8-3.5,3.6-5.3,5.3c-0.2-0.2-0.2-0.4-0.2-0.6c-0.3-1.8,0.4-3,1.8-4.1
			c0.2-0.2,0.4-0.4,0.5-0.6C47.7,26.5,48.8,26.5,49.8,26.5z"/>
		<path class="st5" d="M47,26.3c0.9-0.9,1.8-1.9,2.6-2.8c0.1-0.1,0.1-0.1,0.3-0.2c1-0.1,2-0.3,2.9,0.2l0,0c0,0.1,0,0.1,0,0.2
			c-0.7,1-1.6,1.9-2.6,2.6C49.1,26.3,48.1,26.3,47,26.3z"/>
		<path class="st17" d="M56.3,26.4c0.6,0.1,1.1,0.4,1.2,1.1c0.3,1,0,1.4-1.1,1.7c-1,0-2.1,0.3-3-0.2c1-0.9,1-1.6,0-2.5
			C54.3,26.4,55.3,26.4,56.3,26.4z"/>
		<path class="st19" d="M50.2,26.3c0.8-1,1.7-1.8,2.6-2.6c0,0.7,0,1.4,0,2.1c0,0.4-0.1,0.5-0.5,0.5C51.6,26.3,50.9,26.3,50.2,26.3z"
			/>
		<path class="st20" d="M56.3,23.5c0,0.4,0,0.9,0,1.3c-0.5-0.4-0.9-0.8-1.3-1.3C55.4,23.5,55.8,23.5,56.3,23.5z"/>
		<path class="st16" d="M29.6,13.7c1.1,0,2.1,0,3.2,0c0.1,0.1,0,0.2,0,0.3c-1.2,1.3-2.3,2.6-3.8,3.7c-0.3,0-0.7,0-1,0
			c0-0.8,0-1.5,0-2.3C28.4,14.6,28.9,14.1,29.6,13.7z"/>
		<path class="st21" d="M29.6,13.7c-0.5,0.6-1,1.2-1.6,1.7c0-0.6,0-1.1,0-1.7C28.5,13.7,29.1,13.7,29.6,13.7z"/>
		<path class="st0" d="M21.3,70.1c0-0.3,0.2-0.4,0.4-0.6c3.9-3.9,7.7-7.7,11.6-11.6c0.1-0.1,0.2-0.1,0.3-0.2c0,0.4,0.1,0.8-0.1,1.2
			c0,0.6-0.6,0.9-0.9,1.3c-1.6,1.7-1.5,1.4-0.7,3.5c0.7,1.7,1.4,3.5,2.1,5.2c0.1,0.1,0.1,0.3,0.1,0.5c0,0.1,0,0.2-0.1,0.2
			c-0.4,0.2-0.7,0.5-1,0.8c-2.1,2.1-4.3,4.3-6.4,6.4c-0.2,0.2-0.4,0.7-0.9,0.4C24.2,74.8,22.8,72.5,21.3,70.1z"/>
		<path class="st5" d="M52.8,38.5c0,4.6-1.7,8.4-5.1,11.3c-2.1,1.8-4.6,3-7.5,3.1c-0.4,0-0.8-0.1-1.2-0.2c-0.3-0.1-0.2-0.3-0.1-0.6
			c0.1-0.2,0.3-0.4,0.5-0.5c4.2-4.2,8.4-8.4,12.6-12.6C52.1,38.8,52.3,38.4,52.8,38.5z"/>
		<path class="st5" d="M52.8,38.5c-0.2,0.1-0.3,0.3-0.5,0.4c-4.4,4.4-8.7,8.7-13.1,13.1c-0.2,0.2-0.6,0.3-0.3,0.7
			c-0.2-0.1-0.3-0.1-0.5-0.2c-0.7-0.2-1.4-0.4-2.1-0.7c0-0.1,0-0.1,0-0.2c0.2-0.2,0.5-0.4,0.7-0.7c5-5,10.1-10.1,15.1-15.1
			c0.2-0.2,0.4-0.4,0.7-0.6c0.4,1,0.4,2,0,3C52.8,38.4,52.8,38.5,52.8,38.5z"/>
		<path class="st22" d="M33.8,69c-0.9-2.2-1.8-4.5-2.7-6.7c-0.2-0.5,0-1,0.4-1.3c0.7-0.7,1.3-1.4,2-2.1c0.2,0,0.4,0,0.5,0.1
			c2,1.3,3.9,2.7,5.9,4c0.1,0.3-0.1,0.5-0.3,0.6c-1.7,1.7-3.4,3.4-5.1,5.1C34.3,68.9,34.1,69.2,33.8,69z"/>
		<path class="st6" d="M50.6,55.6c0,1,0,2.1,0,3.1c-0.5-0.1-0.3-0.4-0.4-0.7c0-0.6,0-1.3,0-1.9c-2.6,2.6-5.2,5.2-7.8,7.8
			c-0.2,0.2-0.4,0.3-0.6,0.4C41,64.1,40.3,63.8,40,63c1.7-1.7,3.3-3.4,5-5.1c1.8-1.8,3.6-3.5,5.4-5.3c0.4,0.8,0.2,1.7,0.2,2.6
			C50.6,55.3,50.6,55.4,50.6,55.6z"/>
		<path class="st6" d="M53.3,28.9c1,0,2.1,0,3.1,0c0.2,0.9,0,1.9,0.1,2.8c-0.1,1,0.2,2.1-0.3,3.1l0,0c-0.1,0-0.1,0-0.2,0
			c-0.4-0.7-0.1-1.6-0.3-2.3c-0.8,0.7-1.5,1.5-2.2,2.2c-0.2,0.2-0.4,0.5-0.8,0.5c0-1.2,0-2.3,0-3.5c0-0.3,0.1-0.6-0.1-0.8
			c-0.4-0.6-0.4-1.2,0-1.8C52.8,28.9,53.1,29,53.3,28.9z"/>
		<path class="st22" d="M40.1,63c0.6,0.5,1.1,0.9,1.8,1.2c0.1,0.1,0.3,0,0.4,0.2c0,0.1,0,0.2-0.1,0.2c-0.7,0.6-1.5,1-2.3,1.6
			c-1.4,1.1-2.9,2.1-4.3,3.1c-0.5,0.4-1.1,0.6-1.7,0c-0.1-0.1-0.1-0.2-0.2-0.3c0.1,0,0.3-0.1,0.4-0.2C36,66.9,38,65,39.8,63
			C39.9,63,40,63,40.1,63z"/>
		<path class="st6" d="M52.8,35.2c1.1-1,2.1-2,3.3-3.2c0,1.1,0,2,0,2.8c-0.1,0.5-0.5,0.7-0.8,1c-0.8,0.8-1.7,1.6-2.5,2.5
			C52.8,37.3,52.8,36.3,52.8,35.2C52.8,35.3,52.8,35.3,52.8,35.2z"/>
		<path class="st0" d="M50.6,55.6c-0.4-1-0.1-2-0.2-3c0.1-0.1,0.1-0.2,0.2-0.3l0,0c0.4,1,0.4,2.1,0,3.1
			C50.6,55.5,50.6,55.5,50.6,55.6z"/>
		<path class="st0" d="M50.7,55.4c0-1,0-2.1,0-3.1c1.3-1.3,2.6-2.5,3.9-3.8c0.3-0.3,0.5-0.6,1-0.5c0.7,0,1.4,0.2,2.1,0.4
			c0,0.1,0,0.2-0.1,0.3C55.2,50.9,53,53.2,50.7,55.4z"/>
		<path class="st5" d="M56.3,34.9c0-1,0-2.1,0-3.1c1.1-1.4,2.4-2.7,3.8-3.8c0.8,0.2,1.3,0.7,1.5,1.5c-0.1,0.1-0.1,0.3-0.2,0.4
			C59.7,31.5,58,33.2,56.3,34.9z"/>
		<path class="st5" d="M60.1,27.9c-1.2,1.3-2.5,2.6-3.8,3.8c0.1-0.9-0.2-1.9,0.2-2.8c0.8-0.2,1.1-0.7,1-1.5c0.9,0.1,1.7,0.2,2.6,0.3
			C60.1,27.8,60.1,27.9,60.1,27.9z"/>
		<path class="st4" d="M65.4,23.3c-0.2,0-0.4,0-0.5,0c0.8-0.8,1.6-1.6,2.5-2.4c0.1,0.1-0.1,0.3,0,0.5C67.1,22.4,66.5,23.1,65.4,23.3
			z"/>
		<path class="st22" d="M42.2,64.5L42.2,64.5c0.1-0.5,0.4-0.6,0.7-0.8c2.2-1.5,4.5-3,6.7-4.5c0.3-0.2,0.6-0.5,1-0.3
			c0.6,0.6,1.3,1.3,1.9,1.9c0.6,0.6,0.7,1.2,0.4,1.9c-0.5,1.1-0.9,2.3-1.3,3.5c0,0.3,0,0.5-0.2,0.6c-0.9,0.7-1.6,1.8-2.6,2.4
			c-0.3,0-0.5-0.1-0.8-0.3c-1.8-1.3-3.6-2.5-5.4-3.9C42.5,64.9,42.3,64.8,42.2,64.5z"/>
		<path class="st0" d="M51.3,66.7c0.1-0.2,0.2-0.3,0.3-0.5c0.2-0.2,0.5-0.4,0.7-0.7c4.5-4.5,9-9,13.4-13.4c0.2-0.2,0.5-0.4,0.7-0.7
			c-1,1.6-2.2,3-3.2,4.5c-1.3,1.8-2.6,3.5-3.9,5.3c-0.1,0.5-0.4,0.9-0.8,1.3c-2.8,2.7-5.5,5.5-8.3,8.2c-0.2,0.2-0.3,0.6-0.7,0.4
			c-0.3-0.8,0.3-1.3,0.5-2C50.5,68.3,50.8,67.4,51.3,66.7z"/>
		<path class="st6" d="M50.7,58.9c-0.2,0.1-0.4,0.1-0.6,0.2c-2.6,1.7-5.2,3.5-7.9,5.3c-0.1-0.1-0.2-0.1-0.3-0.2
			c1.2-1.2,2.4-2.3,3.6-3.5c1.6-1.6,3.2-3.2,4.9-4.9C50.7,56.8,50.3,57.8,50.7,58.9C50.7,58.8,50.7,58.8,50.7,58.9z"/>
		<path class="st12" d="M71.2,64.7c-0.6,0.6-1.1,1.2-1.7,1.8c-0.8-0.3-1.2-0.9-1.5-1.7c0.4-0.6,0.9-1,1.5-1.5
			C70.1,63.7,70.7,64.1,71.2,64.7z"/>
		<path class="st13" d="M68,64.8c0.5,0.6,1,1.1,1.5,1.7c0,0.1,0,0.1,0,0.2c-0.4,0-0.6,0.3-0.8,0.5c-3.2,3.1-6.3,6.3-9.5,9.4
			c-0.2,0.2-0.3,0.5-0.7,0.4c-0.1-0.3,0-0.5,0.2-0.8c1.4-2.1,2.6-4.4,4.1-6.4c0.3-0.3,0.4-0.8,0.8-1c1.5-1.3,2.8-2.7,4.1-4.1
			C67.9,64.8,68,64.8,68,64.8z"/>
		<path class="st23" d="M50.3,69.1c-0.1,0.7-0.6,1.3-0.7,2c-0.2,0.2-0.3,0.5-0.3,0.8h-0.1c-0.4,0.5-0.8,1-1.2,1.4
			c-2.7,2.7-5.4,5.4-8.1,8c-0.2,0.2-0.5,0.6-0.8,0.6H39c-0.5-0.6-0.7-1.4-1-2.1c0-0.1,0-0.2,0-0.2c0.1-0.3,0.3-0.4,0.5-0.6
			c3.1-3.1,6.2-6.2,9.3-9.3c0.3-0.3,0.5-0.6,1-0.6C49.3,69.3,49.8,69.2,50.3,69.1z"/>
		<path class="st0" d="M52.8,23.4c-1,0-2,0-3,0c-0.1-0.3,0.1-0.5,0.3-0.6c1.5-1.5,3-3,4.5-4.6c0.2-0.2,0.4-0.3,0.6-0.4
			c0.3,0,0.7-0.1,1-0.1c0.7,0,1.4,0.1,2.1,0.1C56.6,19.8,54.8,21.7,52.8,23.4z"/>
		<path class="st13" d="M63.2,87.5c-0.6,0-1.3,0-1.9,0c-0.3,0-0.6,0-0.8-0.3c0.1-0.1,0.1-0.1,0.2-0.2c0.2-0.3,0.5-0.5,0.7-0.8
			c2.1-2.1,4.2-4.2,6.3-6.3c1.2-1.2,2.4-2.3,3.6-3.5c0.4,0.9,0.4,1.9,0,2.8c0,0.1,0,0.2,0,0.3c-1.5,1.5-3,2.9-4.5,4.4
			C65.7,85.1,64.4,86.3,63.2,87.5z"/>
		<path class="st12" d="M71.3,79.2c0-0.9,0-1.9,0-2.8c0-0.1,0-0.1,0-0.2c1.1-1,2.2-2.1,3.3-3.1c0.4,2.2-0.3,3.9-2.2,5.2
			C72.1,78.6,71.9,79.2,71.3,79.2z"/>
		<path class="st0" d="M62.9,70c-0.8,1.6-1.8,3-2.7,4.5c-0.5,0.9-1.1,1.8-1.6,2.7c-0.4,0.6-0.8,1.1-1.2,1.7
			c-0.4-0.2-0.5,0.2-0.6,0.4c-2.6,2.6-5.2,5.2-7.8,7.8c-0.2,0.2-0.4,0.4-0.7,0.6c-1,0.2-1.9,0.4-2.8-0.2c0.1-0.2,0.2-0.3,0.3-0.3
			c0.2-0.3,0.5-0.5,0.7-0.8c0.2-0.2,0.5-0.4,0.7-0.7c5-5,9.9-9.9,14.9-14.9C62.4,70.4,62.7,70.2,62.9,70z"/>
		<path class="st14" d="M61.4,86.2c0,0.4-0.4,0.6-0.7,0.8C60.8,86.6,61.1,86.4,61.4,86.2z"/>
		<path class="st23" d="M39,82.1c0.4-0.5,0.9-1,1.4-1.4c2.7-2.7,5.4-5.4,8.1-8.1c0.2-0.2,0.5-0.4,0.7-0.6c-1.2,3.1-2.4,6.1-3.6,9.2
			c-1.1,2.8-2.2,5.6-3.5,8.6c-0.4-1.1-0.8-1.9-1.1-2.8C40.3,85.4,39.6,83.8,39,82.1z"/>
		<path class="st0" d="M38.1,79.9c0.3,0.7,0.6,1.4,0.8,2.1c-1.5,1.7-3.2,3.3-4.8,4.9c-0.4,0.5-0.9,0.9-1.3,1.4c-0.1,0-0.1,0-0.2,0
			c-0.4-0.7-0.8-1.3-1.2-2l0,0c0.1-0.3,0.3-0.5,0.5-0.7c1.8-1.8,3.5-3.5,5.3-5.3C37.5,80.1,37.7,79.8,38.1,79.9z"/>
		<path class="st4" d="M18.7,87.4c-0.7,0.3-1.5,0.1-2.3,0.2c-0.2,0-0.4-0.1-0.5-0.3c0.1-0.1,0.1-0.1,0.2-0.2
			c0.2-0.3,0.5-0.5,0.7-0.8c1.3-1.3,2.7-2.6,4-3.9c1.5-1.5,2.9-2.9,4.4-4.4c0.2-0.2,0.4-0.5,0.7-0.5c0.6,0.4,1,0.9,1,1.7
			c0,0.2-0.2,0.4-0.3,0.6c-2.5,2.5-5.1,5.1-7.6,7.6C18.8,87.3,18.8,87.3,18.7,87.4z"/>
		<path class="st0" d="M26.8,79.1c-0.2-0.6-0.6-1.1-1-1.7c-0.1-0.1-0.1-0.2-0.2-0.3c0.4,0,0.6-0.3,0.8-0.5c2.3-2.2,4.5-4.5,6.8-6.7
			c0.2-0.2,0.3-0.6,0.7-0.3c0.6,0.4,0.7,1.1,0.8,1.7c0,0.4-0.2,0.7-0.5,0.9c-2.2,2.2-4.4,4.4-6.5,6.5c-0.2,0.2-0.4,0.5-0.8,0.4
			C26.9,79.1,26.9,79.1,26.8,79.1z"/>
		<path class="st14" d="M16.7,86.2c0,0.4-0.4,0.6-0.7,0.8C16.1,86.6,16.4,86.4,16.7,86.2z"/>
		<path class="st0" d="M27,79.1c2.2-2.2,4.4-4.4,6.6-6.5c0.4-0.4,0.9-0.7,1-1.3c0.1,0,0.2,0,0.2,0c1.2,2.6,2.2,5.3,3.2,8
			c0.1,0.1,0,0.3,0,0.4s0,0.1,0,0.2c-1.8,1.8-3.6,3.6-5.4,5.3c-0.4,0.4-0.8,0.8-1.2,1.1C30,83.9,28.3,81.6,27,79.1z"/>
		<path class="st1" d="M46.5,86.2c0,0.4-0.4,0.6-0.7,0.8C45.9,86.6,46.2,86.4,46.5,86.2z"/>
		<path class="st0" d="M55.3,17.8c-1.6,1.6-3.2,3.2-4.7,4.8c-0.2,0.3-0.5,0.5-0.7,0.8c-0.1,0-0.1,0-0.2,0c-3.9,0-7.8,0-11.8,0l0,0
			c-0.1-0.2,0.1-0.3,0.2-0.4c1.6-1.5,3.1-3.1,4.7-4.7c0.2-0.2,0.5-0.4,0.7-0.5C47.4,17.8,51.4,17.8,55.3,17.8z"/>
		<path class="st16" d="M29,17.7c1.1-1.1,2.1-2.2,3.2-3.3c0.2-0.2,0.4-0.4,0.6-0.7c3.9,0,7.7,0,11.7,0c-0.4,0.7-1,1-1.4,1.6
			c-1.4,2-3.3,2.6-5.7,2.4C34.5,17.5,31.8,17.7,29,17.7z"/>
		<path class="st24" d="M52.8,17.7c-2.9,0-5.9,0-8.9,0c1.3-1.4,2.5-2.6,3.8-3.8c0.2-0.2,0.5-0.1,0.8-0.1c1.5,0,2.9,0,4.4,0
			c0.2,0.2,0.3,0.5,0.3,0.8C53,15.6,53.3,16.7,52.8,17.7z"/>
		<path class="st0" d="M43.5,17.8c-1.8,1.9-3.7,3.8-5.6,5.6c-1,0-2,0-3,0c1.6-1.6,3.2-3.2,4.7-4.8c0.2-0.3,0.5-0.5,0.7-0.8
			C41.4,17.8,42.5,17.8,43.5,17.8z"/>
		<path class="st25" d="M52.8,17.7c0-1.3,0-2.6,0-4v-0.1c1.1,0,2.2,0,3.3,0c0,1.1,0,2.1,0,3.2c0,0.8-0.2,1-0.9,0.9
			C54.4,17.6,53.6,17.7,52.8,17.7z"/>
		<path class="st0" d="M52.5,9.1c0.6,1.4,0.2,3,0.3,4.4c-1.6,0-3.2,0-4.8,0C49.4,12,50.9,10.5,52.5,9.1z"/>
		<path class="st17" d="M52.7,29.1c0,0.6,0,1.2,0,1.8c-0.3,1.2-0.9,2.1-2.2,2.3c-0.9,0-1.9,0-3,0c1-0.6,1.7-1.3,1.8-2.4
			c0-0.4,0.1-0.7,0.1-1.1c-0.1-0.8,0.2-1,0.9-0.9C51,29,51.9,28.7,52.7,29.1z"/>
		<path class="st23" d="M34.7,71.3L34.7,71.3c-0.3-0.6-0.6-1.2-0.8-1.8c0-0.1,0-0.1,0-0.2c0.7,0.3,1.2,0.1,1.8-0.4
			c1.3-1,2.8-2,4.1-3c0.4,0.1,0.1,0.3,0,0.4c-0.3,0.4-0.7,0.7-1,1.1c-1.1,1.1-2.2,2.2-3.4,3.4C35.3,71.1,35.2,71.4,34.7,71.3z"/>
		<path class="st23" d="M34.7,71.3c1.8-1.6,3.4-3.4,5.2-5.1c0.1-0.1,0.1-0.1,0-0.2c0.7-0.5,1.5-1.1,2.3-1.5c2,1.4,3.9,2.8,5.9,4.2
			c0.2,0.2,0.5,0.3,0.8,0.5c0,0,0.1,0.1,0,0.1v0.1c-0.4,0-0.6,0.3-0.8,0.5c-3.2,3-6.2,6.1-9.3,9.2c-0.2,0.2-0.4,0.4-0.7,0.6
			C36.9,76.9,35.7,74.2,34.7,71.3z"/>
		<path class="st22" d="M48.8,69.3c0-0.1,0-0.1,0-0.2c0.8-0.9,1.6-1.7,2.5-2.5c-0.2,0.9-0.6,1.7-1,2.5
			C49.9,69.6,49.4,69.5,48.8,69.3z"/>
	</g>
	<g>
		<path class="st26" d="M34.7,26.7L34.7,26.7L34.7,26.7L34.7,26.7z"/>
		<path class="st26" d="M30.8,31.4C30.8,31.4,30.8,31.3,30.8,31.4C30.8,31.3,30.8,31.4,30.8,31.4z"/>
		<path class="st26" d="M24.1,22.6L24.1,22.6L24.1,22.6L24.1,22.6L24.1,22.6z"/>
		<path class="st26" d="M35.8,22.6L35.8,22.6L35.8,22.6L35.8,22.6L35.8,22.6z"/>
		<path class="st26" d="M60.1,31.2L60.1,31.2C60.1,31.3,60.1,31.3,60.1,31.2C60.1,31.3,60.1,31.2,60.1,31.2z"/>
		<path class="st26" d="M44.3,17.1C44.2,17.1,44.2,17.1,44.3,17.1C44.2,17.1,44.3,17.1,44.3,17.1L44.3,17.1z"/>
		<path class="st26" d="M33.7,12.9L33.7,12.9C33.6,12.9,33.6,12.9,33.7,12.9C33.6,13,33.6,13,33.7,12.9C33.7,13,33.7,12.9,33.7,12.9
			z"/>
		<path class="st26" d="M75.4,71c-0.2-2.7-1.3-5.1-3-7.1c-0.7-0.6-1.2-1.3-2-1.8c-0.5-0.4-1-0.7-1.5-1c-2-1.1-4.1-1.4-6.3-1.5
			c-0.2,0-0.6,0.2-0.7-0.2c0.2-0.4,0.5-0.8,0.8-1.1c1.7-2.3,3.4-4.5,5.1-6.8c0.5-0.6,0.9-1.3,0.4-2.1c-0.4-0.7-1.1-0.7-1.7-0.8
			c-2.4-0.5-4.9-1-7.3-1.5c-0.9-0.2-1.8-0.3-2.6-0.5c-0.6-0.1-0.7-0.3-0.5-0.9c0.6-1.2,1-2.5,1.2-3.9c0.2-1.1,0.2-1.1,1.4-1.1
			c2.3-0.1,4-1.4,4.3-3.7c0.3-2.2,0.2-4.4,0-6.5c0-0.4-0.1-0.7-0.3-1c-0.5-1-1.1-1.8-2.1-2.3c-0.7-0.4-1.5-0.4-2.3-0.4
			c-0.4,0-0.7-0.1-0.7-0.5c0-0.5,0.3-0.6,0.7-0.6c0.2,0,0.4,0,0.6,0c1.3,0,2.6,0,3.9,0c1.4,0,2.8,0,4-0.9c0.3-0.2,0.6-0.5,0.9-0.8
			c0.8-1.2,1.1-2.4,0.7-3.8c-0.6-1.7-1.8-2.6-3.5-2.9c-2.1,0-4.1,0-6.2,0c-0.9,0-0.9,0-1-1c0-0.1,0-0.3,0-0.4c0-1.1,0-2.3,0-3.4
			c-0.2-2.4-0.8-4.5-2.5-6c-1.1-1-2.4-1.5-3.8-1.6c-2.3,0-4.5,0-6.8,0c-0.7,0.3-1.2,0.8-1.7,1.4c-0.4,0.5-0.8,0.5-1.2,0
			c-0.5-0.5-0.9-1-1.5-1.4c-2.3,0-4.5,0-6.8,0c-0.7,0.2-1.5,0.1-2.2,0.5c-2.5,1.4-3.9,3.5-4,6.4c0,1.5,0,2.9,0,4.4c0,0.9-0.1,1-1,1
			c-2.1,0-4.1,0-6.2,0c-1.8,0.2-3.3,1.5-3.6,3.3c-0.4,1.9,0.5,3.6,2.3,4.6c0.9,0.4,1.8,0.5,2.7,0.5c1.1,0,2.2,0,3.2,0
			c0.7,0,1.3,0,2,0c0.3,0,0.6,0.1,0.6,0.5s-0.2,0.6-0.6,0.6c-0.2,0-0.4,0-0.7,0c-2.3,0.1-4,1.6-4.2,4c0,1.8,0,3.7,0,5.5
			c0,1,0.2,1.9,0.8,2.7c1,1.2,2.3,1.7,3.8,1.7c0.7,0,1,0.3,1.1,0.9c0.1,1.1,0.5,2.1,0.8,3.1c0.1,0.3,0.3,0.6,0.4,0.9
			c0.3,0.7,0.3,0.8-0.4,0.9c-0.6,0.1-1.3,0.3-1.9,0.4c-2.8,0.6-5.6,1.1-8.4,1.7c-1.7,0.4-2.1,1.4-1.1,2.8c0.7,0.9,1.4,1.9,2.1,2.8
			c0.6,0.7,1,1.5,1.6,2.1c0.7,1.1,1.6,2.1,2.4,3.3c-2.9,0-5.5,0.4-7.9,1.9c-1.8,1.2-3.2,2.7-4.3,4.5c-0.8,1.6-1.5,3.2-1.5,5
			c0,5.9,0,11.8,0,17.8c0,0.7,0.5,0.9,1,1.1c2.8,0,5.6,0,8.4,0c1.2-0.5,1.3-1.5,0.2-2.5c-1-0.4-2-0.1-2.9-0.2c-0.4,0-0.7,0-1.1,0
			C13.9,87,13,87.3,12.1,87c-0.3-0.3-0.2-0.6-0.2-0.9c0-4.3,0-8.6,0-12.9c0-0.2,0-0.5,0-0.7C12,72.2,12,72,12,71.7
			c0.2-4.4,3.6-8.2,7.9-8.8c0.8-0.1,1.5-0.4,2.4-0.1c-0.8,0.9-1.6,1.6-2.3,2.4c-1.3,1.4-1.4,1.6-0.3,3.2l0.1,0.1
			c0.4,0.7,0.9,1.5,1.4,2.2c1.4,2.3,2.9,4.6,4.3,6.9c0.5,0.8,1,1.5,1.4,2.3c1.5,2.4,3.1,4.8,4.6,7.4c-1.4,0-2.6,0-3.9,0
			c-1.4,0-2.9,0-4.3,0c-0.8,0-1.4,0.6-1.5,1.3c-0.1,0.7,0.2,1.1,1,1.4c17.2,0,34.4,0,51.6,0c0.5-0.2,1-0.4,1-1.1
			C75.4,82.8,75.5,76.9,75.4,71z M58.6,29.4c0.8-0.1,1.4,0.3,1.5,1.2c0.2,2,0.2,4,0,6c-0.2,1-1.8,1.7-2.7,1.3
			c-0.2-0.1-0.2-0.3-0.2-0.4c0-1.2,0-2.4,0-3.5c-0.1-1.1-0.1-2.1,0-3.2v-0.1C57.2,29.3,57.2,29.3,58.6,29.4z M32.4,7.7
			c1.2-0.5,2.4-0.4,3.6-0.3c1.1,0,2.1-0.2,3.2,0.1c0.7,0.7,1.4,1.4,2.1,2.1c0.7,0.7,1.5,0.8,2.1,0c1.4-2,3.3-2.5,5.6-2.2
			c0.5,0.1,1,0,1.6,0c1,0,1.9,0.3,2.6,1c1.5,1.2,1.8,2.8,1.5,4.6c-0.2,0.2-0.5,0.1-0.7,0.1c-7.9,0-15.7,0-23.6,0
			c-0.2,0-0.4,0.1-0.5-0.1C29.6,10.3,30.5,8.5,32.4,7.7z M30.8,15.7c3.9-0.1,7.8-0.1,11.8,0c1-0.1,2-0.1,3,0c2.9,0,5.8,0,8.7,0
			c0.4,0,0.6,0.1,0.5,0.5c-0.1,0.3,0.1,0.7-0.1,1c-0.2,0.2-0.4,0.1-0.6,0.1c-3.1,0-6.3,0-9.4,0c0,0,0,0-0.1,0c-4.7,0-9.4,0-14,0
			c-0.2,0-0.4,0.1-0.6-0.1c0-0.2,0-0.3,0-0.5C29.8,15.5,29.6,15.6,30.8,15.7z M27.4,36.9c0,0.8-0.2,1.1-1,0.9
			c-0.3,0-0.6,0.1-0.9-0.1c-0.5-0.1-0.8-0.3-1-0.8c-0.3-1-0.1-2-0.1-3c0-0.9,0-1.9,0-2.8c0-1.2,0.5-1.7,1.7-1.7c0.4,0,0.8,0,1.1,0
			c0.3,0.2,0.2,0.5,0.2,0.7C27.4,32.4,27.3,34.7,27.4,36.9z M20.9,22.8c-0.2,0-0.5,0.1-0.7-0.1c-0.9-0.2-1.3-0.7-1.3-1.5
			s0.5-1.3,1.4-1.4c1.1,0,2.2,0,3.3,0c1-0.1,2.1-0.1,3.1,0c3.9-0.1,7.8-0.1,11.8,0c1-0.1,2.1-0.1,3.1,0c3.9-0.1,7.8-0.1,11.8,0
			c1-0.1,2.1-0.1,3.1,0c2.6,0,5.2,0,7.8,0c0.8,0,1.4,0.6,1.4,1.4c0,0.7-0.5,1.3-1.3,1.5c-0.3,0.2-0.6,0.1-0.9,0.1
			C49.4,22.8,35.1,22.8,20.9,22.8z M35.5,57.7c-0.2-0.1-0.2-0.3-0.2-0.4c0-1.6,0-3.2,0-4.9c0.9,0.4,1.8,0.7,2.7,1.1
			c3.2,0.8,6.3,0.8,9.4-0.3c0.2-0.1,0.4-0.1,0.5-0.2c1.5-0.6,1.5-0.6,1.3,1c0,1.1,0,2.2,0.1,3.2c0,0.3-0.2,0.5-0.4,0.7
			c-2.1,1.4-4.2,2.8-6.2,4.2c-0.7,0.5-0.9-0.3-1.4-0.5C39.3,60.3,37.4,59,35.5,57.7z M40.1,63.9c-0.8,0.5-1.5,1.2-2.4,1.5
			c-0.7,0.8-1.7,1.3-2.6,2c-0.8-1.9-1.5-3.8-2.3-5.7c-0.2-0.5,0.2-0.6,0.4-0.9c0.9-0.9,0.9-0.9,1.9-0.2c1.4,0.9,2.8,1.9,4.2,2.8
			C39.6,63.6,39.8,63.7,40.1,63.9z M50,60.2c0.3-0.2,0.4-0.2,0.7,0c1.2,1.1,1.2,1,0.6,2.5c-0.6,1.4-1.1,2.7-1.6,4.1
			c-0.1,0.4-0.3,0.5-0.6,0.2c-1.5-1.1-2.9-2.1-4.5-3.2C46.4,62.6,48.2,61.4,50,60.2z M48,50.2c-2.5,1.3-5.1,1.7-7.9,1.2
			c-1-0.1-1.9-0.4-2.8-0.8c-2.6-1.1-4.5-2.8-5.8-5.3c-0.5-0.8-0.9-1.7-1.1-2.7c-0.3-0.8-0.5-1.7-0.5-2.5c0-2.9,0-5.7,0-8.6
			c0-0.5,0-1,0-1.6c0-0.3,0-0.5,0.4-0.5s0.6,0.1,0.5,0.5c0,0.5,0,1,0,1.6c0.6,2.3,2,3.4,4.4,3.4c0.8,0,1.7,0,2.5,0
			c0.1,0,0.3-0.1,0.4-0.1c1.7-0.3,2.8-1.4,3.3-3.1c0-0.5,0.1-1.1,0-1.6c-0.1-0.6,0.1-0.8,0.8-0.9c0.8,0,1,0.2,0.8,0.9
			c0,0.9,0.1,1.8,0.6,2.6c0.9,1.4,2.3,2,4,2c0.8,0,1.7,0,2.5-0.1c2.2-0.2,3.6-1.8,3.6-4c0-0.2,0-0.5,0-0.7c-0.1-0.7,0.2-0.9,0.8-0.6
			c0.2,0.1,0.1,0.2,0.1,0.4c0,3.1,0,6.2,0,9.3c0,0.2-0.1,0.4-0.1,0.6C54.5,44.4,52.1,47.9,48,50.2z M33.3,29.5
			c0.1-0.3,0.3-0.2,0.5-0.2c0.8,0,1.6,0,2.4,0c0.7,0,1.5,0,2.2,0c0.5,0,0.6,0.2,0.6,0.7c0,2-0.4,2.4-2.3,2.4c-0.5,0-1,0-1.6,0
			C33.6,32.3,32.7,30.9,33.3,29.5z M45.7,29.4c1.7-0.2,3.5,0,5.2-0.1c0.2,0,0.4,0,0.4,0.3c0.4,1.6-0.4,2.8-2.1,2.8c-0.7,0-1.3,0-2,0
			c-0.8,0-1.5-0.3-1.6-1.2l0,0C45.5,30.6,45.5,30,45.7,29.4z M54.7,26.8c-0.2,0.2-0.4,0.1-0.5,0.1c-6.3,0-12.7,0-19,0
			c-0.1,0-0.2,0-0.2,0c-1.5,0-3,0-4.4,0c-0.2,0-0.4,0.1-0.5-0.1c-0.2-1.5-0.2-1.5,1.3-1.5c0.6,0,1.2,0,1.8,0c1-0.1,2-0.1,3,0
			c4-0.1,7.9-0.1,11.9,0c1-0.1,2-0.1,3,0c1.1,0,2.3,0,3.4,0c0.4,0,0.5,0.1,0.5,0.5C54.7,26.1,54.9,26.5,54.7,26.8z M35.1,87.3
			c-0.5,0-0.6-0.3-0.7-0.6c-0.5-0.6-0.9-1.3-1.3-2c-1.5-2.3-2.9-4.6-4.3-6.9c-0.5-0.7-1-1.4-1.4-2.2c-1.5-2.3-3-4.7-4.4-7.1h-0.1
			c-1.1-1.6-1.1-1.6,0.3-2.9c1.1-1.1,2.1-2.1,3.2-3.2c0.5-0.5,0.8-1,0.6-1.7c-1.6-2.1-3.1-4.2-4.6-6.3c-0.6-0.6-1.1-1.3-1.5-2
			c-1.2-1.4-1.2-1.4,0.5-1.7c0.3-0.1,0.6-0.1,0.9-0.1c1.5-0.4,3-0.7,4.5-0.9c1.2-0.2,2.3-0.5,3.5-0.7c0.1,0,0.3-0.1,0.4-0.1
			c0.3,0,2.1,2,2.1,2.4c0,1.5,0,2.9,0,4.4v0.1c0.5,1.9-0.6,3.1-1.9,4.2c-0.6,0.5-1,1.1-0.8,1.9c1.1,2.6,2.2,5.3,3.2,7.9
			c0.4,0.8,0.7,1.6,1,2.5c1.2,2.7,2.3,5.5,3.3,8.3c0.4,0.7,0.7,1.5,1,2.3c0.6,1.5,1.2,3,1.9,4.6C38.6,87.3,36.9,87.3,35.1,87.3z
			 M40.6,80.7c-0.4-0.8-0.7-1.6-1-2.4c-1.1-2.7-2.2-5.5-3.3-8.2c-0.1-0.3-0.1-0.5,0.2-0.7c1.8-1.3,3.6-2.6,5.4-3.9
			c0.3-0.2,0.4-0.2,0.7,0c1.8,1.3,3.7,2.7,5.6,4c0.3,0.1,0.2,0.3,0.1,0.5c-0.7,1.7-1.4,3.4-2.1,5.1c-1.3,3.3-2.6,6.6-3.9,10
			C41.7,83.6,41.1,82.2,40.6,80.7z M50,87c-0.3,0.6-0.9,0.2-1.3,0.3c-1,0-2,0-3,0c-0.5,0-1,0-1.5,0c0-0.5,0.3-1,0.5-1.4
			c2-5.1,4.1-10.2,6.1-15.3c0.1-0.2,0.2-0.4,0.3-0.7c0.7-1.8,1.4-3.6,2.2-5.4l0,0c0,0,0,0,0-0.1c0.3-0.9,0.6-1.8,1-2.6
			c0.3-0.7,0.2-1.3-0.4-1.8c-0.7-0.7-1.5-1.4-2.1-2.2c0-0.2-0.1-0.4-0.1-0.6v-0.1V57c-0.1-1.2,0-2.4,0-3.6c0-0.3,0-0.7,0-1
			c0-0.5-0.1-1.1,0.1-1.6c0.6-0.6,1.2-1.2,1.7-1.8c0.4-0.5,0.7,0.1,1.1,0.1c0.7,0.1,1.5,0.2,2.2,0.5c1.3-0.1,2.5,0.4,3.7,0.6
			c1.4,0.2,2.7,0.5,4.3,0.8c-2.4,3.2-4.8,6.4-7.2,9.5c-0.5,1.1,0.5,1.6,1,2.3c1.3,1.2,2.5,2.5,3.8,3.7c0.2,0.2,0.2,0.4,0,0.6
			c-2,3.1-4,6.3-5.9,9.4c-1.7,2.9-3.5,5.7-5.3,8.5C50.8,85.7,50.4,86.3,50,87z M72.7,87.2L72.7,87.2c-3,0.2-6,0.1-9,0.1
			c-1.1,0-2.1,0-3.2,0c-2.6,0-5.2,0-7.9,0c2.4-3.8,4.7-7.4,7-11.1c1.8-3,3.6-5.9,5.5-8.8c0.4-0.8,0.2-1.4-0.4-2c-1-0.9-2-1.9-3-3
			c2.6-0.1,4.8,0.3,6.8,1.8c0.7,0.4,1.3,1,1.8,1.7c1.6,1.8,2.4,3.8,2.3,6.2l0,0l0,0l0,0c0.1,0.4,0.1,0.8,0.1,1.2
			c0.1,1.6,0,3.1,0,4.7c0,0.3,0,0.5,0,0.8l0,0v0.1c0,2.6,0,5.2,0,7.8C72.8,86.8,72.9,87,72.7,87.2z"/>
	</g>
</g>
<g>
	<path class="st27" d="M89.5,88.5l-14.4,7.9l-14.4-7.9V72.7l14.4-7.9l14.4,7.9V88.5z"/>
	<path class="st28" d="M60.7,72.7v15.8l14.4,7.9l0,0V80.6L60.7,72.7L60.7,72.7z"/>
	<g>
		<path class="st26" d="M84.7,84.6c-0.4,0.2-0.7,0.6-1,1c0,0.1-0.1,0.1-0.2,0.1l-0.7-0.1c0,0-0.1-0.1-0.1-0.1l-0.1-0.9
			c0-0.1,0-0.2,0.1-0.2c0.6-0.5,1-1.4,1-2.1c-0.1-0.9-0.7-1.3-1.5-0.9c-0.8,0.4-1.4,1.4-1.3,2.4c0,0.8,0.5,1.2,1.1,1
			c0.1,0,0.1,0,0.1,0.1l0.1,0.9c0,0.1,0,0.1-0.1,0.2l-0.7,0.8c-0.1,0.1-0.1,0.1-0.2,0.1c-0.3-0.2-0.6-0.2-1,0
			c-0.8,0.4-1.3,1.5-1.3,2.3c0.1,0.9,0.7,1.3,1.5,0.9c0.8-0.4,1.4-1.4,1.3-2.3c0-0.2,0-0.3-0.1-0.4c0-0.1,0-0.2,0.1-0.2l0.7-0.8
			c0-0.1,0.1-0.1,0.2-0.1l0.7,0.1c0.1,0,0.1,0.1,0.1,0.2c0,0.2,0,0.3,0,0.5c0.1,0.9,0.7,1.3,1.5,0.9c0.8-0.4,1.3-1.4,1.3-2.3
			C86.2,84.7,85.5,84.3,84.7,84.6z"/>
		<path class="st26" d="M82.2,88.7c-0.3,0.8-0.9,1.6-1.6,2c-1,0.5-1.9,0-2-1.2c-0.1-1.2,0.7-2.6,1.7-3.1c0.5-0.2,0.9-0.3,1.3-0.1
			l0.3-0.4l0-0.6c-0.5-0.2-1-0.1-1.6,0.2c-1.4,0.7-2.5,2.7-2.4,4.3c0.1,1.7,1.3,2.4,2.7,1.7c0.8-0.4,1.5-1.2,1.9-2.2
			C82.4,89.2,82.3,89,82.2,88.7z"/>
		<path class="st26" d="M82.2,80c-1.4,0.7-2.5,2.7-2.4,4.3c0,0.4,0.1,0.8,0.3,1c0.1,0,0.2-0.1,0.2-0.1c0.2-0.1,0.4-0.2,0.6-0.2
			c-0.2-0.2-0.4-0.6-0.4-1.1c-0.1-1.2,0.7-2.6,1.7-3.1c1-0.5,1.9,0,2,1.2c0.1,1-0.4,2.1-1.2,2.7l0,0.5l0.4,0.1
			c0.9-0.9,1.6-2.4,1.5-3.7C84.8,80,83.6,79.2,82.2,80z"/>
		<path class="st26" d="M85,83.1c-0.1,0.4-0.3,0.7-0.4,1.1c0.1,0,0.1-0.1,0.2-0.1c1-0.5,1.9,0,2,1.2c0.1,1.2-0.7,2.6-1.7,3.1
			c-1,0.5-1.9,0-2-1.2c0-0.2,0-0.3,0-0.5l-0.4,0l-0.4,0.4c0,0.2,0,0.3,0,0.4c0.1,1.7,1.3,2.4,2.7,1.7c1.4-0.7,2.5-2.7,2.4-4.3
			C87.3,83.4,86.2,82.7,85,83.1z"/>
	</g>
	<g>
		<path class="st26" d="M65.6,84.2c0.4,0.2,0.7,0.6,1,1c0,0.1,0.1,0.1,0.2,0.1l0.7-0.1c0,0,0.1-0.1,0.1-0.1l0.1-0.9
			c0-0.1,0-0.2-0.1-0.2c-0.6-0.5-1-1.4-1-2.1c0.1-0.9,0.7-1.3,1.5-0.9c0.8,0.4,1.4,1.4,1.3,2.4c0,0.8-0.5,1.2-1.1,1
			c-0.1,0-0.1,0-0.1,0.1l-0.1,0.9c0,0.1,0,0.1,0.1,0.2l0.7,0.8c0.1,0.1,0.1,0.1,0.2,0.1c0.3-0.2,0.6-0.2,1,0
			c0.8,0.4,1.3,1.5,1.3,2.3c-0.1,0.9-0.7,1.3-1.5,0.9c-0.8-0.4-1.4-1.4-1.3-2.3c0-0.2,0-0.3,0.1-0.4c0-0.1,0-0.2-0.1-0.2l-0.7-0.8
			c0-0.1-0.1-0.1-0.2-0.1L67,85.9c-0.1,0-0.1,0.1-0.1,0.2c0,0.2,0,0.3,0,0.5c-0.1,0.9-0.7,1.3-1.5,0.9c-0.8-0.4-1.3-1.4-1.3-2.3
			C64.2,84.2,64.9,83.8,65.6,84.2z"/>
		<path class="st26" d="M68.2,88.2c0.3,0.8,0.9,1.6,1.6,2c1,0.5,1.9,0,2-1.2c0.1-1.2-0.7-2.6-1.7-3.1c-0.5-0.2-0.9-0.3-1.3-0.1
			l-0.3-0.4l0-0.6c0.5-0.2,1-0.1,1.6,0.2c1.4,0.7,2.5,2.7,2.4,4.3c-0.1,1.7-1.3,2.4-2.7,1.7c-0.8-0.4-1.5-1.2-1.9-2.2
			C68,88.7,68.1,88.5,68.2,88.2z"/>
		<path class="st26" d="M68.2,79.5c1.4,0.7,2.5,2.7,2.4,4.3c0,0.4-0.1,0.8-0.3,1c-0.1,0-0.2-0.1-0.2-0.1c-0.2-0.1-0.4-0.2-0.6-0.2
			c0.2-0.2,0.4-0.6,0.4-1.1c0.1-1.2-0.7-2.6-1.7-3.1c-1-0.5-1.9,0-2,1.2c-0.1,1,0.4,2.1,1.2,2.7l0,0.5l-0.4,0.1
			c-0.9-0.9-1.6-2.4-1.5-3.7C65.5,79.5,66.7,78.8,68.2,79.5z"/>
		<path class="st26" d="M65.4,82.7c0.1,0.4,0.3,0.7,0.4,1.1c-0.1,0-0.1-0.1-0.2-0.1c-1-0.5-1.9,0-2,1.2s0.7,2.6,1.7,3.1
			c1,0.5,1.9,0,2-1.2c0-0.2,0-0.3,0-0.5l0.4,0l0.4,0.4c0,0.2,0,0.3,0,0.4c-0.1,1.7-1.3,2.4-2.7,1.7c-1.4-0.7-2.5-2.7-2.4-4.3
			C63.1,83,64.1,82.2,65.4,82.7z"/>
	</g>
	<path class="st29" d="M60.7,72.7L60.7,72.7l14.4,7.9l14.4-7.9v0l-14.4-7.9L60.7,72.7z"/>
	<g>
		<path class="st30" d="M89.5,72.7l4.8,4.8l-14.4,7.9l-4.8-4.8L89.5,72.7z"/>
		<path class="st30" d="M60.7,72.7L56,77.4l14.4,7.9l4.8-4.8L60.7,72.7z"/>
		<path class="st30" d="M89.5,72.7l4.8-4.8L79.9,60l-4.8,4.8L89.5,72.7z"/>
		<path class="st30" d="M60.7,72.7L56,67.9L70.4,60l4.8,4.8L60.7,72.7z"/>
	</g>
	<path class="st26" d="M90.6,72.7l4.2-4.2c0.2-0.2,0.3-0.4,0.2-0.7c0-0.2-0.2-0.5-0.4-0.6l-5.1-2.8c-0.4-0.2-0.8-0.1-1.1,0.3
		c-0.2,0.4-0.1,0.9,0.3,1.1l4.1,2.3l-3.6,3.6l-13-7.1L80,61l3.6,2c0.4,0.2,0.9,0.1,1.1-0.3c0.2-0.4,0.1-0.9-0.3-1.1l-4.2-2.3
		c-0.3-0.2-0.7-0.1-0.9,0.1l-4.2,4.2l-4.2-4.2c-0.2-0.2-0.6-0.3-0.9-0.1l-14.4,7.9c-0.2,0.1-0.4,0.3-0.4,0.6c0,0.2,0,0.5,0.2,0.7
		l4.2,4.2l-4.2,4.2c-0.2,0.2-0.3,0.4-0.2,0.7c0,0.2,0.2,0.5,0.4,0.6l4.4,2.4v8c0,0.3,0.2,0.5,0.4,0.7l14.4,7.9
		c0.1,0.1,0.2,0.1,0.4,0.1s0.3,0,0.4-0.1l14.4-7.9c0.2-0.1,0.4-0.4,0.4-0.7v-8l4.4-2.4c0.2-0.1,0.4-0.3,0.4-0.6c0-0.2,0-0.5-0.2-0.7
		L90.6,72.7z M75.1,79.7l-12.8-7l12.8-7l12.8,7L75.1,79.7z M70.2,61l3.6,3.6l-13,7.1l-3.6-3.6L70.2,61z M60.9,73.7l13,7.1l-3.6,3.6
		l-13-7.1L60.9,73.7z M88.8,88l-12.8,7.1v-8c0-0.4-0.3-0.8-0.8-0.8c-0.4,0-0.8,0.3-0.8,0.8v8L61.5,88v-6.7L70,86
		c0.1,0.1,0.2,0.1,0.4,0.1c0.2,0,0.4-0.1,0.6-0.2l4.2-4.2l4.2,4.2c0.1,0.1,0.3,0.2,0.6,0.2c0.1,0,0.3,0,0.4-0.1l8.5-4.7V88z
		 M80,84.4l-3.6-3.6l13-7.1l3.6,3.6L80,84.4z"/>
	<path class="st26" d="M86.7,64.6c0.2,0,0.4-0.1,0.6-0.2c0.1-0.1,0.2-0.3,0.2-0.6c0-0.2-0.1-0.4-0.2-0.6c-0.1-0.1-0.3-0.2-0.6-0.2
		c-0.2,0-0.4,0.1-0.6,0.2c-0.1,0.1-0.2,0.3-0.2,0.6c0,0.2,0.1,0.4,0.2,0.6C86.3,64.5,86.5,64.6,86.7,64.6z"/>
	<path class="st26" d="M75.1,83.8c-0.2,0-0.4,0.1-0.6,0.2c-0.1,0.1-0.2,0.3-0.2,0.6c0,0.2,0.1,0.4,0.2,0.6c0.1,0.1,0.3,0.2,0.6,0.2
		c0.2,0,0.4-0.1,0.6-0.2c0.1-0.1,0.2-0.3,0.2-0.6c0-0.2-0.1-0.4-0.2-0.6C75.5,83.9,75.3,83.8,75.1,83.8z"/>
</g>
</svg>
