<?xml version="1.0" encoding="utf-8"?>
<!-- Generator: Adobe Illustrator 24.0.2, SVG Export Plug-In . SVG Version: 6.00 Build 0)  -->
<svg version="1.1" id="ic_dark_staking_off" xmlns="http://www.w3.org/2000/svg" xmlns:xlink="http://www.w3.org/1999/xlink"
	 x="0px" y="0px" viewBox="0 0 100 100" style="enable-background:new 0 0 100 100;" xml:space="preserve">
<style type="text/css">
	.st0{fill:#767777;}
	.st1{fill:#FFFFFF;}
</style>
<path class="st0" d="M38.1,61.3v32.1L10.6,78.1V46.1"/>
<path class="st0" d="M38.1,61.3v32.1l27.5-15.2V46.1"/>
<path class="st0" d="M10.4,45l27.7-15.3L65.8,45L38.1,60.4L10.4,45z"/>
<path class="st1" d="M46.7,67.8c-0.6,0-1.2-0.2-1.6-0.7c-0.1-0.1-0.2-0.2-0.3-0.3c-0.1-0.1-0.2-0.3-0.2-0.4
	c-0.1-0.1-0.1-0.3-0.1-0.4c0-0.1,0-0.3,0-0.4c0-0.1,0-0.3,0-0.4c0-0.1,0.1-0.3,0.1-0.4c0.1-0.1,0.1-0.3,0.2-0.4
	c0.1-0.1,0.2-0.2,0.3-0.3c0.4-0.4,1-0.7,1.6-0.7s1.2,0.2,1.6,0.7c0.1,0.1,0.2,0.2,0.3,0.3c0.1,0.1,0.1,0.3,0.2,0.4
	c0.1,0.1,0.1,0.3,0.1,0.4c0,0.1,0,0.3,0,0.4c0,0.1,0,0.3,0,0.4c0,0.1-0.1,0.3-0.1,0.4c-0.1,0.1-0.1,0.3-0.2,0.4
	c-0.1,0.1-0.2,0.2-0.3,0.3C47.9,67.6,47.3,67.8,46.7,67.8z"/>
<path class="st1" d="M66.9,43.1L39.2,27.7c-0.7-0.4-1.5-0.4-2.2,0L9.3,43.1c-0.7,0.4-1.2,1.4-1.2,2.7V78c0,0.8,0.4,1.6,1.2,2
	C9.3,80,37,95.4,37,95.4c1.1,0.7,2.1,0,2.1,0c0,0,27.8-15.4,27.8-15.4c0.7-0.4,1.2-1.2,1.2-2V45.7C68.1,44,67.6,43.5,66.9,43.1z
	 M38.1,32.3l23,12.8l-23,12.8L15.1,45L38.1,32.3z M12.6,48.9l23.2,12.8v27.8L12.6,76.7V48.9z M49,84.8V74.3c0-1.2-1-2.3-2.3-2.3
	s-2.3,1-2.3,2.3v13l-4.1,2.3V61.7l23.2-12.8v27.8L49,84.8z"/>
<path class="st0" d="M79,24.5v4.9H66.9c-1.4,0-2.5,1.1-2.5,2.5v4.7c0,1.4,1.1,2.5,2.5,2.5H79V44l11.4-9.7L79,24.5z"/>
<path class="st1" d="M92.9,34.3L77.4,47.5v-6.8h-9.3c-2.9,0-5.3-2.4-5.3-5.3v-2.3c0-2.9,2.4-5.3,5.3-5.3h9.3V21L92.9,34.3z
	 M80.7,40.5l7.2-6.2l-7.2-6.2v3h-12c-1.4,0-2.6,1.2-2.6,2.6v1.3c0,1.4,1.2,2.6,2.6,2.6h12V40.5z"/>
<path class="st0" d="M57.1,28.2v-4.9h12.1c1.4,0,2.5-1.1,2.5-2.5v-4.7c0-1.4-1.1-2.5-2.5-2.5H57.1V8.7l-11.4,9.7L57.1,28.2z"/>
<path class="st1" d="M43.2,18.5L58.7,5.2V12H68c2.9,0,5.3,2.4,5.3,5.3v2.3c0,2.9-2.4,5.3-5.3,5.3h-9.3v6.8L43.2,18.5z M55.4,12.3
	l-7.2,6.2l7.2,6.2v-3h12c1.4,0,2.6-1.2,2.6-2.6v-1.3c0-1.4-1.2-2.6-2.6-2.6h-12V12.3z"/>
</svg>
