<?xml version="1.0" encoding="utf-8"?>
<!-- Generator: Adobe Illustrator 24.0.2, SVG Export Plug-In . SVG Version: 6.00 Build 0)  -->
<svg version="1.1" id="Capa_1" xmlns="http://www.w3.org/2000/svg" xmlns:xlink="http://www.w3.org/1999/xlink" x="0px" y="0px"
	 viewBox="0 0 61.3 60" style="enable-background:new 0 0 61.3 60;" xml:space="preserve">
<style type="text/css">
	.st0{fill:url(#SVGID_1_);}
	.st1{fill:#FFFFFF;}
</style>
<g>
	<g>
		<linearGradient id="SVGID_1_" gradientUnits="userSpaceOnUse" x1="33.6242" y1="58.8475" x2="27.4884" y2="1.6532">
			<stop  offset="0" style="stop-color:#00C7FF"/>
			<stop  offset="0.2807" style="stop-color:#00BEFF"/>
			<stop  offset="0.7459" style="stop-color:#00A4FF"/>
			<stop  offset="0.9944" style="stop-color:#0094FF"/>
		</linearGradient>
		<path class="st0" d="M30.5,59c-16,0-29.1-13-29.1-29.1c0-16,13-29.1,29.1-29.1s29.1,13,29.1,29.1C59.6,46,46.6,59,30.5,59z"/>
		<path d="M30.5,1.4c15.8,0,28.6,12.8,28.6,28.6S46.3,58.5,30.5,58.5S2,45.7,2,29.9S14.7,1.4,30.5,1.4 M30.5,0.4
			C14.2,0.4,1,13.6,1,29.9s13.3,29.6,29.6,29.6s29.6-13.3,29.6-29.6S46.8,0.4,30.5,0.4L30.5,0.4z"/>
	</g>
	<g>
		<path class="st1" d="M40,29.3c-1.7,0-3.3,0.7-4.4,1.8c-0.2,0.2-0.5,0.2-0.8,0.1l-3-1.8c-0.2-0.1-0.3-0.3-0.3-0.6l0-3.4
			c0-0.3,0.2-0.5,0.5-0.6c2.6-0.7,4.5-3,4.5-5.8c0-3.3-2.7-6-6-6c-3.4,0-6.1,2.7-6.1,6c0,2.8,1.9,5.2,4.5,5.8
			c0.3,0.1,0.5,0.3,0.5,0.6l0,3.5c0,0.2-0.1,0.5-0.3,0.6l-3,1.7c-0.2,0.1-0.6,0.1-0.8-0.1c-1.1-1.1-2.7-1.8-4.4-1.8
			c-3.3,0-6,2.8-6,6.1c0,3.3,2.7,6,6,6c3.3,0,6-2.7,6-6c0-0.6-0.1-1.1-0.2-1.6c-0.1-0.3,0-0.6,0.3-0.7l3-1.8c0.2-0.1,0.5-0.1,0.7,0
			l3,1.7c0.2,0.1,0.4,0.4,0.3,0.7c-0.2,0.5-0.2,1.1-0.2,1.7c0,3.3,2.7,6,6,6c3.3,0,6-2.7,6-6C46,32.1,43.3,29.3,40,29.3z"/>
		<path class="st1" d="M28.1,39c-1.3,2.5-4,4.2-7,4.2c-4.4,0-8-3.6-8-8c0-4.4,3.6-8,8-8c2,0,3.9,0.8,5.3,2l1.4-0.7l0.1-2.1
			c-1.9-1.5-4.3-2.4-6.9-2.4c-6.1,0-11.1,5-11.1,11.1s5,11.1,11.1,11.1c3.5,0,6.6-1.6,8.7-4.2C29.1,41.3,28.5,40.2,28.1,39z"/>
		<path class="st1" d="M30.5,7.9c-6.1,0-11.1,5-11.1,11.1c0,1.5,0.3,2.9,0.8,4.2c0.3,0,0.7,0,1,0c0.9,0,1.9,0.1,2.7,0.3
			c-0.9-1.3-1.4-2.8-1.4-4.5c0-4.4,3.6-8,8-8c4.4,0,8,3.6,8,8c0,3.6-2.3,6.6-5.6,7.6l0,1.9l1.5,0.9c4.2-1.6,7.2-5.6,7.2-10.4
			C41.6,12.9,36.6,7.9,30.5,7.9z"/>
		<path class="st1" d="M41.4,24.3c-0.6,1.1-1.3,2.2-2.2,3.1c0.2,0,0.5,0,0.7,0c4.4,0,8,3.6,8,8c0,4.4-3.6,8-8,8c-4.4,0-8-3.6-8-8
			c0-0.6,0.1-1.1,0.2-1.6L30.6,33L29,33.7c-0.1,0.5-0.1,1.1-0.1,1.6c0,6.1,5,11.1,11.1,11.1c6.1,0,11.1-5,11.1-11.1
			C51.1,29.7,46.9,25,41.4,24.3z"/>
	</g>
	<path class="st1" d="M30.5,2.6C15.4,2.6,3.2,14.8,3.2,29.9s12.3,27.4,27.4,27.4s27.4-12.3,27.4-27.4S45.6,2.6,30.5,2.6z M30.5,53.8
		c-13.2,0-23.9-10.7-23.9-23.9S17.4,6.1,30.5,6.1s23.9,10.7,23.9,23.9S43.7,53.8,30.5,53.8z"/>
	<path class="st1" d="M30.5,6.5C17.6,6.5,7.1,17,7.1,29.9s10.5,23.4,23.4,23.4s23.4-10.5,23.4-23.4S43.5,6.5,30.5,6.5z M30.5,52.8
		c-12.6,0-22.8-10.2-22.8-22.8S17.9,7.1,30.5,7.1s22.8,10.2,22.8,22.8S43.1,52.8,30.5,52.8z"/>
</g>
</svg>
