<?xml version="1.0" encoding="utf-8"?>
<!-- Generator: Adobe Illustrator 24.0.1, SVG Export Plug-In . SVG Version: 6.00 Build 0)  -->
<svg version="1.1" id="ic_empty_multisend" xmlns="http://www.w3.org/2000/svg" xmlns:xlink="http://www.w3.org/1999/xlink" x="0px"
	 y="0px" viewBox="0 0 100 100" style="enable-background:new 0 0 100 100;" xml:space="preserve">
<style type="text/css">
	.st0{fill:#FFFFFF;}
	.st1{fill:#2792F4;}
</style>
<g id="Group_9023">
	<circle id="Ellipse_618" class="st0" cx="50.4" cy="36.7" r="14.7"/>
	<circle id="Ellipse_620" class="st0" cx="50.4" cy="78.3" r="9.8"/>
	<circle id="Ellipse_622" class="st0" cx="86.5" cy="57.5" r="9.8"/>
	<circle id="Ellipse_623" class="st0" cx="14.3" cy="57.5" r="9.8"/>
</g>
<path class="st1" d="M97.5,56.8c-0.3-3.8-2.4-7-5.5-8.8c-1.3-0.8-2.8-1.2-4.3-1.4V35.5c0-0.7-0.5-1.2-1.2-1.2s-1.2,0.5-1.2,1.2v11.1
	c-3,0.3-5.8,1.9-7.6,4.4l-12.9-7.4c1.2-2.5,1.7-5.2,1.5-7.9c-0.8,0.1-1.6,0.1-2.4,0.2c0,0.3,0,0.6,0,0.9c0,7.4-6,13.5-13.5,13.5
	c-6.9,0-12.7-5.3-13.4-12c-0.8,0.1-1.6,0.1-2.4,0.1c0.2,1.8,0.7,3.6,1.5,5.3L23.2,51c-1.8-2.5-4.6-4.1-7.6-4.4v-1.3
	c0-0.7-0.5-1.2-1.2-1.2s-1.2,0.5-1.2,1.2v1.3C6.9,47.3,2.5,53,3.4,59.2c0.7,4.4,4,8.1,8.4,9.1s8.8-0.8,11.4-4.2L40.3,74
	c-2.5,5.7,0.2,12.4,6.1,14.7c4.2,1.6,9,0.5,12.1-2.7c3.1-3.3,3.8-8,2-12l17.1-9.9c3.9,5.3,11.8,6.1,16.7,1.2
	C96.6,63.1,97.8,59.9,97.5,56.8z M22.6,59.7c-0.6,2.2-2,4.1-4,5.2c-4.1,2.4-9.3,1-11.7-3.1s-1-9.3,3.1-11.7s9.3-1,11.7,3.1
	C22.9,55.2,23.2,57.5,22.6,59.7z M50.4,86.9c-4.7,0-8.6-3.8-8.6-8.6s3.8-8.6,8.6-8.6s8.6,3.8,8.6,8.6S55.2,86.9,50.4,86.9z
	 M59.3,71.8c-1.8-2.5-4.6-4.1-7.6-4.4v-2.5c0-0.7-0.5-1.2-1.2-1.2s-1.2,0.5-1.2,1.2v2.5c-3.1,0.3-5.8,1.9-7.6,4.4l-17.1-9.9
	c0.2-0.5,0.4-1,0.6-1.6c0.7-2.4,0.5-5-0.6-7.3l12.8-7.4c2.7,4,7.1,6.5,11.9,6.9v5c0,0.7,0.5,1.2,1.2,1.2s1.2-0.5,1.2-1.2v-5
	c4.8-0.4,9.2-2.9,11.9-6.9L76.4,53c-1,2.3-1.2,4.9-0.6,7.3c0.1,0.5,0.3,1.1,0.6,1.6L59.3,71.8z M93.9,61.8
	c-2.4,4.1-7.6,5.5-11.7,3.1s-5.5-7.6-3.1-11.7s7.6-5.5,11.7-3.1C94.8,52.5,96.2,57.7,93.9,61.8z"/>
<g>
	<circle class="st1" cx="50.4" cy="36.7" r="19.7"/>
	<g>
		<path class="st0" d="M57,36.2c-1.2,0-2.3,0.5-3,1.3c-0.1,0.1-0.4,0.1-0.5,0.1l-2.1-1.2c-0.1-0.1-0.2-0.2-0.2-0.4v-2.4
			c0-0.2,0.1-0.4,0.4-0.4c1.8-0.5,3.2-2.1,3.2-4c0-2.3-1.8-4.2-4.2-4.2c-2.3,0-4.2,1.8-4.2,4.2c0,2,1.3,3.6,3.2,4
			c0.2,0.1,0.4,0.2,0.4,0.4V36c0,0.1-0.1,0.4-0.2,0.4l-2,1.2c-0.1,0.1-0.4,0.1-0.5-0.1c-0.8-0.8-1.8-1.3-3-1.3
			c-2.3,0-4.2,1.9-4.2,4.2s1.8,4.2,4.2,4.2c2.3,0,4.2-1.8,4.2-4.2c0-0.4-0.1-0.8-0.1-1.1c-0.1-0.2,0-0.4,0.2-0.5l2.1-1.2
			c0.1-0.1,0.4-0.1,0.5,0l2,1.2c0.1,0.1,0.3,0.3,0.2,0.5c-0.1,0.4-0.1,0.8-0.1,1.1c0,2.3,1.9,4.2,4.2,4.2s4.2-1.8,4.2-4.2
			C61.1,38.2,59.3,36.3,57,36.2z"/>
		<path class="st0" d="M49.1,42.3c-0.8,2.1-2.8,3.6-5.1,3.6c-3,0-5.5-2.5-5.5-5.5s2.5-5.5,5.5-5.5c1.4,0,2.7,0.6,3.7,1.4l1-0.5
			l0.1-1.4c-1.3-1.1-3-1.6-4.7-1.6c-4.2,0-7.7,3.4-7.7,7.7s3.4,7.7,7.7,7.7c2.6,0,4.9-1.3,6.3-3.2C49.6,44.1,49.3,43.2,49.1,42.3z"
			/>
		<path class="st0" d="M50.4,21.4c-4.2,0-7.7,3.4-7.7,7.7c0,1.1,0.3,2.2,0.7,3.2c0.1,0,0.4,0,0.5,0c0.8,0,1.5,0.1,2.3,0.4
			c-0.8-0.9-1.3-2.2-1.3-3.5c0-3,2.5-5.5,5.5-5.5s5.5,2.5,5.5,5.5c0,2.5-1.6,4.5-3.9,5.2v1.3l1.1,0.6c2.9-1.1,4.9-3.9,4.9-7.2
			C58.1,24.9,54.6,21.4,50.4,21.4z"/>
		<path class="st0" d="M57.7,32.8c-0.4,0.8-1,1.6-1.6,2.3C56.4,35,56.7,35,57,35c3,0,5.5,2.5,5.5,5.5S60,45.9,57,45.9
			s-5.5-2.5-5.5-5.5c0-0.4,0.1-0.8,0.1-1.1l-1.1-0.5l-1.1,0.5c-0.1,0.4-0.1,0.7-0.1,1.1c0,4.2,3.4,7.7,7.7,7.7s7.7-3.4,7.7-7.7
			C64.6,36.4,61.5,33.1,57.7,32.8z"/>
	</g>
	<path class="st0" d="M50.4,17.8c-10.4,0-18.9,8.4-18.9,18.9S40,55.5,50.4,55.5S69.3,47,69.3,36.6S60.8,17.8,50.4,17.8z M50.4,53.2
		c-9.1,0-16.5-7.4-16.5-16.5s7.4-16.5,16.5-16.5s16.5,7.4,16.5,16.5S59.5,53.2,50.4,53.2z"/>
	<path class="st0" d="M50.4,20.5c-8.9,0-16.2,7.2-16.2,16.2s7.2,16.2,16.2,16.2s16.2-7.2,16.2-16.2S59.4,20.5,50.4,20.5z M50.4,52.4
		c-8.7,0-15.8-7-15.8-15.8s7-15.8,15.8-15.8s15.8,7,15.8,15.8S59.1,52.4,50.4,52.4z"/>
</g>
</svg>
