<?xml version="1.0" encoding="utf-8"?>
<!-- Generator: Adobe Illustrator 24.0.2, SVG Export Plug-In . SVG Version: 6.00 Build 0)  -->
<svg version="1.1" id="ic_empty_Dark_masternode" xmlns="http://www.w3.org/2000/svg" xmlns:xlink="http://www.w3.org/1999/xlink"
	 x="0px" y="0px" viewBox="0 0 100 100" style="enable-background:new 0 0 100 100;" xml:space="preserve">
<style type="text/css">
	.st0{fill:#413D4A;}
</style>
<g>
	<path class="st0" d="M86.8,31.4c-1.8-4.1-4.4-7.8-7.4-11.1c-7.5-8-18.2-13-30-13c-12.2,0-23.2,5.4-30.7,13.9
		c-3,3.4-5.5,7.4-7.2,11.7c-1.9,4.8-3,10-3,15.4c0,20.6,15.2,37.6,35,40.5c2,0.3,4,0.4,6,0.4c2.6,0,5.2-0.3,7.7-0.7
		c18.9-3.6,33.3-20.3,33.3-40.2C90.5,42.2,89.2,36.5,86.8,31.4z M80.4,25c1.5,0,2.6,1.2,2.6,2.6c0,1.4-1.2,2.6-2.6,2.6
		s-2.6-1.2-2.6-2.6C77.8,26.2,79,25,80.4,25z M17.5,25.8c1.5,0,2.6,1.2,2.6,2.6c0,1.4-1.2,2.6-2.6,2.6s-2.6-1.2-2.6-2.6
		C14.9,27,16.1,25.8,17.5,25.8z M50.3,88.4c-1.4,0-2.6-1.2-2.6-2.6c0-1.5,1.2-2.6,2.6-2.6c1.5,0,2.6,1.2,2.6,2.6
		C52.9,87.3,51.7,88.4,50.3,88.4z M56.3,81.5c-2.2,0.5-4.5,0.7-6.8,0.7c-1.8,0-3.6-0.2-5.4-0.4c-16.2-2.6-28.6-16.6-28.6-33.5
		c0-4.4,0.8-8.5,2.3-12.4c1.5-3.8,3.7-7.4,6.4-10.4c6.2-6.9,15.2-11.2,25.2-11.2c9.5,0,18.1,3.9,24.3,10.2c3,3,5.4,6.6,7,10.5
		c1.7,4.1,2.7,8.5,2.7,13.2C83.5,64.6,71.8,78.3,56.3,81.5z"/>
</g>
<path class="st0" d="M80.4,20.2c-0.3,0-0.7,0-1,0.1c-2.5,0.3-4.7,1.9-5.7,4.2c-0.5,1-0.7,2-0.7,3.2c0,4.1,3.3,7.4,7.4,7.4
	c0.1,0,0.2,0,0.4,0c2.6-0.1,4.8-1.5,6-3.7c0.6-1.1,1-2.4,1-3.7C87.8,23.5,84.5,20.2,80.4,20.2z M80.4,30.2c-1.5,0-2.6-1.2-2.6-2.6
	c0-1.5,1.2-2.6,2.6-2.6s2.6,1.2,2.6,2.6C83,29.1,81.9,30.2,80.4,30.2z"/>
<path class="st0" d="M56.3,81.5c-1.3-1.9-3.5-3.1-6-3.1c-2.6,0-4.9,1.3-6.2,3.4c-0.8,1.2-1.2,2.5-1.2,4c0,1,0.2,2,0.6,2.9
	c1.1,2.6,3.7,4.5,6.8,4.5c3.2,0,5.9-2,6.9-4.8c0.3-0.8,0.5-1.7,0.5-2.7C57.7,84.2,57.2,82.7,56.3,81.5z M52.9,85.8
	c0,1.4-1.2,2.6-2.6,2.6c-1.4,0-2.6-1.2-2.6-2.6c0-1.5,1.2-2.6,2.6-2.6C51.7,83.2,52.9,84.4,52.9,85.8z"/>
<path class="st0" d="M24.3,25.5c-1-2.2-3-3.9-5.5-4.3c-0.4-0.1-0.8-0.1-1.3-0.1c-4.1,0-7.4,3.3-7.4,7.4c0,1.6,0.5,3.1,1.4,4.4
	c1.3,1.8,3.5,3,6,3c0.1,0,0.2,0,0.4,0c3.9-0.2,7-3.4,7-7.4C24.9,27.4,24.7,26.4,24.3,25.5z M17.5,31.1c-1.5,0-2.6-1.2-2.6-2.6
	c0-1.5,1.2-2.6,2.6-2.6s2.6,1.2,2.6,2.6C20.1,29.9,19,31.1,17.5,31.1z"/>
<g>
	<path class="st0" d="M59.3,46.9c-1.8,0-3.4,0.7-4.5,1.9c-0.2,0.2-0.5,0.3-0.8,0.1L50.9,47c-0.2-0.1-0.3-0.3-0.3-0.6l0-3.5
		c0-0.3,0.2-0.5,0.5-0.6c2.7-0.7,4.7-3.1,4.7-6c0-3.4-2.8-6.2-6.2-6.2c-3.5,0-6.3,2.8-6.3,6.2c0,2.9,2,5.4,4.7,6
		c0.3,0.1,0.5,0.3,0.5,0.6l0,3.6c0,0.2-0.1,0.5-0.3,0.6L45,48.8c-0.3,0.1-0.6,0.1-0.8-0.1c-1.1-1.2-2.7-1.9-4.5-1.9
		c-3.4,0-6.2,2.8-6.2,6.3c0,3.4,2.8,6.2,6.2,6.2c3.4,0,6.2-2.8,6.2-6.2c0-0.6-0.1-1.2-0.2-1.7c-0.1-0.3,0-0.6,0.3-0.7l3.1-1.8
		c0.2-0.1,0.5-0.1,0.7,0l3.1,1.8c0.3,0.1,0.4,0.4,0.3,0.7c-0.2,0.5-0.2,1.1-0.2,1.7c0,3.4,2.8,6.2,6.2,6.2c3.4,0,6.2-2.8,6.2-6.2
		C65.5,49.7,62.7,46.9,59.3,46.9z"/>
	<path class="st0" d="M47.2,56.5c-1.3,2.8-4.2,4.8-7.5,4.8c-4.5,0-8.2-3.7-8.2-8.2c0-4.5,3.7-8.2,8.2-8.2c2.1,0,4,0.8,5.5,2.1
		l1.5-0.8l0.1-2.1c-1.9-1.5-4.4-2.4-7.1-2.4c-6.3,0-11.5,5.1-11.5,11.5s5.1,11.5,11.5,11.5c3.7,0,7-1.8,9.1-4.5
		C48.1,59,47.6,57.8,47.2,56.5z"/>
	<path class="st0" d="M49.5,24.8c-6.3,0-11.5,5.1-11.5,11.5c0,1.6,0.3,3.2,0.9,4.6c0.3,0,0.6,0,0.9,0c1.1,0,2.1,0.1,3,0.4
		c-1-1.4-1.6-3.1-1.6-4.9c0-4.5,3.7-8.2,8.2-8.2c4.5,0,8.2,3.7,8.2,8.2c0,3.7-2.4,6.8-5.7,7.8l0,2l1.6,0.9c4.3-1.6,7.4-5.8,7.4-10.7
		C60.9,29.9,55.8,24.8,49.5,24.8z"/>
	<path class="st0" d="M60.7,41.7c-0.6,1.2-1.3,2.3-2.2,3.2c0.2,0,0.5,0,0.7,0c4.5,0,8.2,3.7,8.2,8.2c0,4.5-3.7,8.2-8.2,8.2
		c-4.5,0-8.2-3.7-8.2-8.2c0-0.6,0.1-1.1,0.2-1.7l-1.6-0.8l-1.7,0.8c-0.1,0.5-0.1,1.1-0.1,1.7c0,6.3,5.1,11.5,11.5,11.5
		c6.3,0,11.5-5.1,11.5-11.5C70.7,47.3,66.3,42.5,60.7,41.7z"/>
</g>
<path class="st0" d="M49.5,19.3c-15.6,0-28.3,12.7-28.3,28.3s12.7,28.3,28.3,28.3s28.3-12.7,28.3-28.3S65.1,19.3,49.5,19.3z
	 M49.5,72.2c-13.6,0-24.6-11-24.6-24.6s11-24.6,24.6-24.6s24.6,11,24.6,24.6S63.1,72.2,49.5,72.2z"/>
<path class="st0" d="M49.5,23.4c-13.4,0-24.2,10.8-24.2,24.2s10.8,24.2,24.2,24.2s24.2-10.8,24.2-24.2S62.8,23.4,49.5,23.4z
	 M49.5,71.1c-13,0-23.6-10.6-23.6-23.6s10.6-23.6,23.6-23.6s23.6,10.6,23.6,23.6S62.5,71.1,49.5,71.1z"/>
</svg>
