<?xml version="1.0" encoding="utf-8"?>
<!-- Generator: Adobe Illustrator 24.0.1, SVG Export Plug-In . SVG Version: 6.00 Build 0)  -->
<svg version="1.1" id="Capa_1" xmlns="http://www.w3.org/2000/svg" xmlns:xlink="http://www.w3.org/1999/xlink" x="0px" y="0px"
	 viewBox="0 0 100 100" style="enable-background:new 0 0 100 100;" xml:space="preserve">
<style type="text/css">
	.st0{fill:#A5A5A5;}
	.st1{fill:#FFFFFF;}
</style>
<g>
	<circle class="st0" cx="50.3" cy="50.5" r="37.8"/>
	<g>
		<path class="st1" d="M62.9,49.6c-2.3,0-4.3,0.9-5.8,2.4c-0.3,0.3-0.7,0.3-1,0.1l-4-2.3c-0.3-0.2-0.4-0.4-0.4-0.8l0-4.5
			c0-0.4,0.2-0.7,0.6-0.8c3.4-0.9,6-4,6-7.7c0-4.4-3.5-7.9-7.9-8c-4.4,0-8,3.5-8,8c0,3.7,2.6,6.9,6,7.7c0.4,0.1,0.6,0.4,0.6,0.8
			l0,4.6c0,0.3-0.2,0.6-0.4,0.8l-4,2.3c-0.3,0.2-0.7,0.1-1-0.1c-1.5-1.5-3.5-2.4-5.8-2.4c-4.4,0-7.9,3.6-7.9,8
			c0,4.4,3.6,7.9,7.9,7.9c4.4,0,8-3.6,8-8c0-0.7-0.1-1.5-0.3-2.2c-0.1-0.4,0.1-0.7,0.4-0.9l4-2.3c0.3-0.2,0.6-0.2,0.9,0l3.9,2.3
			c0.3,0.2,0.5,0.6,0.4,0.9c-0.2,0.7-0.3,1.4-0.3,2.2c0,4.4,3.6,8,8,8c4.4,0,7.9-3.5,8-7.9C70.8,53.3,67.2,49.7,62.9,49.6z"/>
		<path class="st1" d="M47.7,61.3c-1.5,4-5.3,6.8-9.8,6.8c-5.8,0-10.5-4.7-10.5-10.5c0-5.8,4.7-10.5,10.5-10.5c2.7,0,5.1,1,7,2.7
			l1.9-1l0.2-2.8c-2.5-2-5.6-3.1-9.1-3.1c-8.1,0-14.7,6.6-14.7,14.7s6.6,14.7,14.7,14.7c4.9,0,9.3-2.4,11.9-6.1
			C48.8,64.7,48.1,63.1,47.7,61.3z"/>
		<path class="st1" d="M50.3,21.4c-8.1,0-14.7,6.6-14.7,14.7c0,2.2,0.5,4.2,1.3,6.1c0.3,0,0.6,0,0.9,0c1.5,0,2.9,0.2,4.3,0.6
			c-1.5-1.8-2.4-4.1-2.4-6.7c0-5.8,4.7-10.5,10.5-10.5c5.8,0,10.5,4.7,10.5,10.5c0,4.7-3.1,8.7-7.3,10l0,2.5l2,1.2
			C61,47.6,65,42.3,65,36C65,27.9,58.4,21.4,50.3,21.4z"/>
		<path class="st1" d="M64.2,43c-0.8,1.6-1.9,3-3.2,4.3c0.6-0.1,1.2-0.1,1.8-0.1c5.8,0,10.5,4.7,10.5,10.5c0,5.8-4.7,10.5-10.5,10.5
			c-5.8,0-10.5-4.7-10.5-10.5c0-0.7,0.1-1.5,0.2-2.1l-2.1-1l-2.2,1c-0.1,0.7-0.2,1.4-0.2,2.1c0,8.1,6.6,14.7,14.7,14.7
			c8.1,0,14.7-6.6,14.7-14.7C77.4,50,71.6,43.7,64.2,43z"/>
	</g>
	<path class="st1" d="M50.3,14.3c-20,0-36.2,16.2-36.2,36.2s16.2,36.2,36.2,36.2s36.2-16.2,36.2-36.2S70.3,14.3,50.3,14.3z M50.3,82
		c-17.4,0-31.5-14.1-31.5-31.5S32.9,19,50.3,19s31.5,14.1,31.5,31.5S67.7,82,50.3,82z"/>
	<path class="st1" d="M50.3,19.6c-17.1,0-30.9,13.9-30.9,30.9s13.9,30.9,30.9,30.9s30.9-13.9,30.9-30.9S67.4,19.6,50.3,19.6z
		 M50.3,80.7c-16.7,0-30.2-13.5-30.2-30.2s13.5-30.2,30.2-30.2s30.2,13.5,30.2,30.2S67,80.7,50.3,80.7z"/>
</g>
</svg>
