<?xml version="1.0" encoding="utf-8"?>
<!-- Generator: Adobe Illustrator 24.0.2, SVG Export Plug-In . SVG Version: 6.00 Build 0)  -->
<svg version="1.1" id="ic_empty_Dark_masternode" xmlns="http://www.w3.org/2000/svg" xmlns:xlink="http://www.w3.org/1999/xlink"
	 x="0px" y="0px" viewBox="0 0 100 100" style="enable-background:new 0 0 100 100;" xml:space="preserve">
<style type="text/css">
	.st0{fill:#878686;}
	.st1{fill:#515151;}
	.st2{fill:#CCCCCC;}
	.st3{fill:#FFFFFF;}
</style>
<path class="st0" d="M41.8,49.9v34.4L10.9,67.9V33.6"/>
<path class="st1" d="M41.8,48.2v36l30.9-17.1v-36"/>
<path class="st2" d="M10.9,30.4l30.9-17.1l30.9,17.1L41.8,47.5L10.9,30.4z"/>
<path class="st3" d="M51.4,55.8c-0.7,0-1.3-0.3-1.8-0.7c-0.1-0.1-0.2-0.2-0.3-0.4c-0.1-0.1-0.2-0.3-0.2-0.4
	c-0.1-0.2-0.1-0.3-0.1-0.5c0-0.2-0.1-0.3-0.1-0.5c0-0.2,0-0.3,0.1-0.5c0-0.2,0.1-0.3,0.1-0.5c0.1-0.2,0.1-0.3,0.2-0.4
	c0.1-0.1,0.2-0.3,0.3-0.4c0.5-0.5,1.1-0.7,1.8-0.7s1.3,0.3,1.8,0.7c0.1,0.1,0.2,0.2,0.3,0.4c0.1,0.1,0.2,0.3,0.2,0.4
	c0.1,0.2,0.1,0.3,0.1,0.5c0,0.2,0.1,0.3,0.1,0.5c0,0.2,0,0.3-0.1,0.5c0,0.2-0.1,0.3-0.1,0.5c-0.1,0.2-0.1,0.3-0.2,0.4
	c-0.1,0.1-0.2,0.3-0.3,0.4C52.7,55.5,52,55.8,51.4,55.8z"/>
<path class="st3" d="M73.9,28.2L43,11.1c-0.8-0.4-1.7-0.4-2.4,0L9.7,28.2c-0.8,0.4-1.3,1.5-1.3,3v36c0,0.9,0.5,1.8,1.3,2.2
	c0,0,30.9,17.1,30.9,17.1c1.2,0.8,2.4,0,2.4,0c0,0,30.9-17.1,30.9-17.1c0.8-0.4,1.3-1.3,1.3-2.2v-36C75.2,29.3,74.7,28.6,73.9,28.2z
	 M41.8,16.2l25.7,14.2L41.8,44.6L16.1,30.4L41.8,16.2z M13.4,34.7L39.3,49v31L13.4,65.7V34.7z M53.9,74.7V62.9
	c0-1.4-1.1-2.5-2.5-2.5s-2.5,1.1-2.5,2.5v14.5L44.3,80V49l25.8-14.3v31L53.9,74.7z"/>
<g>
	<path class="st3" d="M81.6,54.2l12.8,22.2c0.5,0.8,0.7,1.8,0.7,2.8c0,3.1-2.5,5.6-5.6,5.6H76.8l-4.4-16.7l4.4-16.7
		C78.8,51.4,80.6,52.5,81.6,54.2z"/>
	<path class="st3" d="M72,54.2L59.1,76.4c-0.5,0.8-0.7,1.8-0.7,2.8c0,3.1,2.5,5.6,5.6,5.6h12.8V51.4C74.7,51.4,72.9,52.5,72,54.2z"
		/>
	<path class="st1" d="M92.5,77.5L79.7,55.3c-0.6-1-1.6-1.6-2.8-1.7l11,28.9h1.8c1.8,0,3.3-1.5,3.3-3.3C93,78.6,92.8,78.1,92.5,77.5z
		"/>
	<path class="st0" d="M90.4,77.5c0.3,0.5,0.4,1.1,0.4,1.7c0,1.8-1.3,3.3-2.9,3.3H63.9c-1.8,0-3.3-1.5-3.3-3.3c0-0.6,0.2-1.2,0.4-1.7
		l12.8-22.2c0.6-1,1.7-1.7,2.9-1.7c0,0,0.1,0,0.1,0c1,0,1.9,0.7,2.4,1.7L90.4,77.5z"/>
	<path class="st2" d="M76.8,75.1v3.7c1,0,1.9-0.8,1.9-1.9C78.6,76,77.8,75.1,76.8,75.1z"/>
	<path class="st3" d="M76.8,75.1c0.2,0,0.4,0.8,0.4,1.9c0,1-0.2,1.9-0.4,1.9c-1,0-1.9-0.8-1.9-1.9C74.9,76,75.8,75.1,76.8,75.1z"/>
	<path class="st2" d="M76.8,59.2v13.7c1,0,1.9-0.8,1.9-1.9v-10C78.6,60.1,77.8,59.2,76.8,59.2z"/>
	<path class="st3" d="M76.8,59.2c0.2,0,0.4,0.8,0.4,1.9v10c0,1-0.2,1.9-0.4,1.9c-1,0-1.9-0.8-1.9-1.9v-10
		C74.9,60.1,75.8,59.2,76.8,59.2z"/>
</g>
</svg>
