<?xml version="1.0" encoding="utf-8"?>
<!-- Generator: Adobe Illustrator 24.0.1, SVG Export Plug-In . SVG Version: 6.00 Build 0)  -->
<svg version="1.1" id="Capa_1" xmlns="http://www.w3.org/2000/svg" xmlns:xlink="http://www.w3.org/1999/xlink" x="0px" y="0px"
	 viewBox="0 0 100 100" style="enable-background:new 0 0 100 100;" xml:space="preserve">
<style type="text/css">
	.st0{fill:#FFFFFF;}
	.st1{fill:#413D4A;}
</style>
<g id="Group_9023">
	<circle id="Ellipse_618" class="st0" cx="49.9" cy="49.8" r="12"/>
	<circle id="Ellipse_619" class="st0" cx="49.9" cy="15.8" r="8"/>
	<circle id="Ellipse_620" class="st0" cx="49.9" cy="83.8" r="8"/>
	<circle id="Ellipse_621" class="st0" cx="20.5" cy="32.8" r="8"/>
	<circle id="Ellipse_622" class="st0" cx="79.4" cy="66.8" r="8"/>
	<circle id="Ellipse_623" class="st0" cx="20.5" cy="66.8" r="8"/>
	<circle id="Ellipse_624" class="st0" cx="79.4" cy="32.8" r="8"/>
</g>
<path id="Path_18980" class="st1" d="M83.9,59c-1.1-0.6-2.3-1-3.5-1.1v-9.1c0-0.6-0.4-1-1-1l0,0c-0.6,0-1,0.4-1,1v9.1
	c-2.5,0.3-4.7,1.6-6.2,3.6l-10.5-6.1c1.7-3.5,1.7-7.7,0-11.2l10.5-6.1c1.5,2,3.7,3.3,6.2,3.6v1.1c0,0.6,0.4,1,1,1l0,0
	c0.6,0,1-0.4,1-1v-1.1c5.1-0.6,8.7-5.2,7.9-10.3c-0.5-3.6-3.3-6.6-6.9-7.4s-7.2,0.6-9.3,3.4l-14-8.1c2-4.7-0.2-10.1-5-12
	c-3.4-1.3-7.4-0.4-9.9,2.2c-2.5,2.7-3.1,6.6-1.7,9.8l-14,8.1c-3-4.1-8.9-4.9-12.9-1.7c-2.8,2.3-4.1,6.2-3,9.6
	c1.1,3.5,4.1,5.9,7.6,6.3v9.1c0,0.6,0.4,1,1,1l0,0c0.6,0,1-0.4,1-1v-9.1c2.5-0.3,4.7-1.6,6.2-3.6l10.5,6.1c-1.7,3.5-1.7,7.7,0,11.2
	l-10.5,6.1c-1.5-2-3.7-3.3-6.2-3.6v-1.1c0-0.6-0.4-1-1-1l0,0c-0.6,0-1,0.4-1,1v1.1c-5.1,0.6-8.7,5.2-7.9,10.3
	c0.5,3.6,3.3,6.6,6.9,7.4s7.2-0.6,9.3-3.4l14,8.1c-2,4.7,0.2,10.1,5,12c3.4,1.3,7.4,0.4,9.9-2.2c2.5-2.7,3.1-6.6,1.7-9.8l14-8.1
	c3.2,4.4,9.6,5,13.6,1c1.8-1.8,2.8-4.4,2.6-7C88.1,63.1,86.4,60.5,83.9,59z M49.9,60.8c-6.1,0-11-4.9-11-11s4.9-11,11-11
	s11,4.9,11,11l0,0C60.9,55.9,56,60.8,49.9,60.8z M75.9,26.8c3.3-1.9,7.6-0.8,9.6,2.6c1.9,3.3,0.8,7.6-2.6,9.6
	c-3.3,1.9-7.6,0.8-9.6-2.6c-0.9-1.6-1.2-3.5-0.7-5.3C73.1,29.2,74.3,27.7,75.9,26.8z M49.9,8.8c3.9,0,7,3.1,7,7s-3.1,7-7,7
	s-7-3.1-7-7C42.9,12,46.1,8.8,49.9,8.8z M26.6,36.3c-1.9,3.3-6.2,4.5-9.6,2.6c-1.6-0.9-2.8-2.5-3.3-4.2c-0.5-1.8-0.2-3.7,0.7-5.3
	c1.9-3.3,6.2-4.5,9.6-2.6C27.3,28.7,28.5,33,26.6,36.3z M28.7,36.4c0.8-1.9,1-4,0.5-5.9c-0.1-0.4-0.3-0.9-0.5-1.3l14-8.1
	c1.5,2,3.7,3.3,6.2,3.6v2.1c0,0.6,0.4,1,1,1l0,0c0.6,0,1-0.4,1-1v-2.1c2.5-0.3,4.7-1.6,6.2-3.6l14,8.1c-0.2,0.4-0.3,0.8-0.5,1.3
	c-0.5,2-0.4,4.1,0.4,5.9l-10.5,6.1c-2.2-3.2-5.8-5.3-9.7-5.6v-4.1c0-0.6-0.4-1-1-1l0,0c-0.6,0-1,0.4-1,1v4.1
	c-3.9,0.3-7.5,2.4-9.7,5.6L28.7,36.4z M24,72.9c-3.3,1.9-7.6,0.8-9.6-2.6c-1.9-3.3-0.8-7.6,2.6-9.6c3.3-1.9,7.6-0.8,9.6,2.6
	c0.9,1.6,1.2,3.5,0.7,5.3C26.8,70.4,25.6,72,24,72.9z M49.9,90.8c-3.9,0-7-3.1-7-7s3.1-7,7-7s7,3.1,7,7
	C56.9,87.7,53.8,90.8,49.9,90.8z M57.2,78.5c-1.5-2-3.7-3.3-6.2-3.6v-2.1c0-0.6-0.4-1-1-1l0,0c-0.6,0-1,0.4-1,1v2.1
	c-2.5,0.3-4.7,1.6-6.2,3.6l-14-8.1c0.2-0.4,0.3-0.8,0.5-1.3c0.5-2,0.4-4.1-0.4-5.9l10.5-6.1c2.2,3.2,5.8,5.3,9.7,5.6v4.1
	c0,0.6,0.4,1,1,1l0,0c0.6,0,1-0.4,1-1v-4.1c3.9-0.3,7.5-2.4,9.7-5.6l10.5,6.1c-0.8,1.9-1,4-0.5,5.9c0.1,0.4,0.3,0.9,0.5,1.3
	L57.2,78.5z M85.4,70.3c-1.9,3.3-6.2,4.5-9.6,2.6c-3.3-1.9-4.5-6.2-2.6-9.6c2-3.3,6.2-4.5,9.6-2.5C86.2,62.8,87.3,67,85.4,70.3z"/>
<circle class="st1" cx="49.9" cy="49.8" r="16.1"/>
<g>
	<path class="st0" d="M55.3,49.4c-1,0-1.8,0.4-2.5,1c-0.1,0.1-0.3,0.1-0.4,0.1l-1.7-1c-0.1-0.1-0.2-0.2-0.2-0.3v-2
		c0-0.2,0.1-0.3,0.3-0.3c1.5-0.4,2.6-1.7,2.6-3.3c0-1.8-1.5-3.4-3.4-3.4s-3.4,1.5-3.4,3.4c0,1.6,1.1,2.9,2.6,3.3
		c0.2,0.1,0.3,0.2,0.3,0.3v2c0,0.1-0.1,0.3-0.2,0.3l-1.7,1c-0.1,0.1-0.3,0.1-0.4-0.1c-0.6-0.6-1.5-1-2.5-1c-1.8,0-3.4,1.6-3.4,3.4
		s1.5,3.4,3.4,3.4s3.4-1.5,3.4-3.4c0-0.3-0.1-0.6-0.1-0.9c-0.1-0.2,0-0.3,0.2-0.4l1.7-1c0.1-0.1,0.3-0.1,0.4,0l1.7,1
		c0.1,0.1,0.2,0.2,0.2,0.4c-0.1,0.3-0.1,0.6-0.1,0.9c0,1.8,1.6,3.4,3.4,3.4c1.9,0,3.4-1.5,3.4-3.4C58.7,51,57.2,49.5,55.3,49.4z"/>
	<path class="st0" d="M48.8,54.4c-0.6,1.7-2.3,2.9-4.2,2.9c-2.5,0-4.5-2-4.5-4.5s2-4.5,4.5-4.5c1.1,0,2.2,0.5,3,1.1l0.8-0.4l0.1-1.1
		c-1.1-0.9-2.4-1.3-3.8-1.3c-3.4,0-6.3,2.8-6.3,6.3c0,3.4,2.8,6.3,6.3,6.3c2.1,0,4-1,5.1-2.6C49.3,55.9,49,55.2,48.8,54.4z"/>
	<path class="st0" d="M49.9,37.4c-3.4,0-6.3,2.8-6.3,6.3c0,0.9,0.2,1.8,0.6,2.6c0.1,0,0.3,0,0.4,0c0.6,0,1.3,0.1,1.8,0.3
		c-0.6-0.7-1-1.8-1-2.9c0-2.5,2-4.5,4.5-4.5s4.5,2,4.5,4.5c0,2-1.3,3.7-3.2,4.2V49l0.9,0.5c2.4-0.9,4-3.2,4-5.9
		C56.2,40.2,53.4,37.4,49.9,37.4z"/>
	<path class="st0" d="M55.9,46.6c-0.3,0.7-0.8,1.3-1.3,1.8c0.2-0.1,0.5-0.1,0.7-0.1c2.5,0,4.5,2,4.5,4.5s-2,4.5-4.5,4.5
		s-4.5-2-4.5-4.5c0-0.3,0.1-0.6,0.1-0.9L50,51.5L49.1,52C49,52.3,49,52.6,49,52.9c0,3.4,2.8,6.3,6.3,6.3c3.4,0,6.3-2.8,6.3-6.3
		C61.5,49.6,59,46.9,55.9,46.6z"/>
</g>
<path class="st0" d="M49.9,34.4c-8.5,0-15.4,6.9-15.4,15.4s6.9,15.4,15.4,15.4s15.4-6.9,15.4-15.4S58.4,34.4,49.9,34.4z M49.9,63.3
	c-7.4,0-13.4-6-13.4-13.4s6-13.4,13.4-13.4s13.4,6,13.4,13.4S57.3,63.3,49.9,63.3z"/>
<path class="st0" d="M49.9,36.6c-7.3,0-13.2,5.9-13.2,13.2S42.6,63,49.9,63s13.2-5.9,13.2-13.2S57.2,36.6,49.9,36.6z M49.9,62.7
	C42.8,62.7,37,57,37,49.8S42.8,37,49.9,37s12.9,5.7,12.9,12.9S57.1,62.7,49.9,62.7z"/>
</svg>
