<?xml version="1.0" encoding="utf-8"?>
<!-- Generator: Adobe Illustrator 24.0.1, SVG Export Plug-In . SVG Version: 6.00 Build 0)  -->
<svg version="1.1" id="Group_9058" xmlns="http://www.w3.org/2000/svg" xmlns:xlink="http://www.w3.org/1999/xlink" x="0px" y="0px"
	 viewBox="0 0 100 100" style="enable-background:new 0 0 100 100;" xml:space="preserve">
<style type="text/css">
	.st0{fill:#1A3249;}
	.st1{fill:#FFFFFF;}
</style>
<g id="Group_9055">
	<path id="Rectangle_4710" class="st0" d="M22.8,9.3H28v84h-6.2c-2.6,0-4.8-2.1-4.8-4.8V15C17,11.8,19.6,9.3,22.8,9.3z"/>
	<path id="Rectangle_4711" class="st0" d="M80,18.3h5v12h-5V18.3z"/>
	<path id="Rectangle_4712" class="st0" d="M80,39.3h5v12h-5V39.3z"/>
	<path id="Rectangle_4713" class="st0" d="M80,60.3h5v12h-5V60.3z"/>
</g>
<g id="Group_9056">
	<path id="Rectangle_4714" class="st1" d="M64,8.3h2c0.6,0,1,0.4,1,1v0c0,0.6-0.4,1-1,1h-2c-0.6,0-1-0.4-1-1v0
		C63,8.7,63.5,8.3,64,8.3z"/>
	<path id="Rectangle_4715" class="st1" d="M28,77.3L28,77.3c0.6,0,1,0.4,1,1v2c0,0.6-0.4,1-1,1h0c-0.6,0-1-0.4-1-1v-2
		C27,77.7,27.5,77.3,28,77.3z"/>
	<path id="Path_19003" class="st1" d="M86,27.1v-5.6c0-2.3-1.9-4.2-4.2-4.2H81v-5c0-2.2-1.8-4-4-4h-5c-0.6,0-1,0.4-1,1v0
		c0,0.6,0.4,1,1,1h4.2c1.5,0,2.8,1.2,2.8,2.8v75.5c0,2-1.7,3.7-3.7,3.7H29v-6c0-0.6-0.4-1-1-1h0c-0.6,0-1,0.4-1,1v6h-4.7
		c-2.4,0-4.3-1.9-4.3-4.3V14.5c0-2.4,1.9-4.3,4.3-4.3H27v62c0,0.6,0.4,1,1,1h0c0.6,0,1-0.4,1-1v-62h29c0.6,0,1-0.4,1-1v0
		c0-0.6-0.4-1-1-1H21.6c-3.1,0-5.5,2.5-5.5,5.5v74.9c0,3.1,2.5,5.5,5.5,5.5h54.4c2.8,0,5.1-2.3,5.1-5.1V73.3h0.8
		c2.3,0,4.2-1.9,4.2-4.2v-5.6c0-2.3-1.9-4.2-4.2-4.2H81v-7h0.8c2.3,0,4.2-1.9,4.2-4.2v-5.6c0-2.3-1.9-4.2-4.2-4.2H81v-7h0.8
		C84.1,31.3,86,29.4,86,27.1z M81,19.3h0.1c1.6,0,2.9,1.3,2.9,2.9v4.2c0,1.6-1.3,2.9-2.9,2.9H81V19.3z M84,64.2v4.2
		c0,1.6-1.3,2.9-2.9,2.9H81v-10h0.1C82.7,61.3,84,62.6,84,64.2z M84,43.2v4.2c0,1.6-1.3,2.9-2.9,2.9H81v-10h0.1
		C82.7,40.3,84,41.6,84,43.2z"/>
</g>
<circle class="st0" cx="54.5" cy="51" r="21"/>
<g>
	<path class="st1" d="M61.5,50.5c-1.3,0-2.4,0.5-3.2,1.3c-0.1,0.1-0.4,0.2-0.6,0.1l-2.2-1.3c-0.2-0.1-0.2-0.2-0.2-0.4l0-2.5
		c0-0.2,0.1-0.4,0.3-0.4c1.9-0.5,3.3-2.2,3.3-4.3c0-2.4-2-4.4-4.4-4.4c-2.5,0-4.5,2-4.5,4.4c0,2.1,1.4,3.8,3.3,4.3
		c0.2,0.1,0.3,0.2,0.3,0.4l0,2.5c0,0.2-0.1,0.3-0.2,0.4L51.3,52c-0.2,0.1-0.4,0.1-0.6-0.1c-0.8-0.8-2-1.3-3.2-1.3
		c-2.4,0-4.4,2-4.4,4.5c0,2.4,2,4.4,4.4,4.4c2.4,0,4.4-2,4.4-4.4c0-0.4-0.1-0.8-0.2-1.2c-0.1-0.2,0-0.4,0.2-0.5l2.2-1.3
		c0.2-0.1,0.3-0.1,0.5,0l2.2,1.3c0.2,0.1,0.3,0.3,0.2,0.5C57.1,54.1,57,54.6,57,55c0,2.4,2,4.4,4.4,4.4c2.4,0,4.4-2,4.4-4.4
		C65.9,52.6,63.9,50.6,61.5,50.5z"/>
	<path class="st1" d="M53.1,57c-0.8,2.2-3,3.8-5.5,3.8c-3.2,0-5.8-2.6-5.8-5.8c0-3.2,2.6-5.8,5.8-5.8c1.5,0,2.9,0.6,3.9,1.5l1.1-0.5
		l0.1-1.5c-1.4-1.1-3.1-1.7-5-1.7c-4.5,0-8.2,3.7-8.2,8.2s3.7,8.2,8.2,8.2c2.7,0,5.2-1.3,6.6-3.4C53.7,58.9,53.3,58,53.1,57z"/>
	<path class="st1" d="M54.5,34.8c-4.5,0-8.2,3.7-8.2,8.2c0,1.2,0.3,2.4,0.7,3.4c0.2,0,0.3,0,0.5,0c0.8,0,1.6,0.1,2.4,0.3
		c-0.8-1-1.3-2.3-1.3-3.7c0-3.2,2.6-5.8,5.8-5.8c3.2,0,5.8,2.6,5.8,5.8c0,2.6-1.7,4.8-4.1,5.6l0,1.4l1.1,0.7
		c3.1-1.2,5.3-4.1,5.3-7.6C62.7,38.5,59,34.8,54.5,34.8z"/>
	<path class="st1" d="M62.2,46.9c-0.4,0.9-1,1.7-1.8,2.4c0.3-0.1,0.6-0.1,1-0.1c3.2,0,5.8,2.6,5.8,5.8c0,3.2-2.6,5.8-5.8,5.8
		c-3.2,0-5.8-2.6-5.8-5.8c0-0.4,0-0.8,0.1-1.2l-1.1-0.5l-1.2,0.6c-0.1,0.4-0.1,0.8-0.1,1.2c0,4.5,3.7,8.2,8.2,8.2
		c4.5,0,8.2-3.7,8.2-8.2C69.6,50.7,66.4,47.2,62.2,46.9z"/>
</g>
<path class="st1" d="M54.5,30.9c-11.1,0-20.1,9-20.1,20.1s9,20.1,20.1,20.1s20.1-9,20.1-20.1S65.6,30.9,54.5,30.9z M54.5,68.6
	C44.8,68.6,37,60.7,37,51s7.8-17.5,17.5-17.5S72,41.3,72,51S64.2,68.6,54.5,68.6z"/>
<path class="st1" d="M54.5,33.8c-9.5,0-17.2,7.7-17.2,17.2S45,68.2,54.5,68.2S71.7,60.5,71.7,51S64,33.8,54.5,33.8z M54.5,67.8
	c-9.3,0-16.8-7.5-16.8-16.8s7.5-16.8,16.8-16.8S71.3,41.7,71.3,51S63.8,67.8,54.5,67.8z"/>
</svg>
