<?xml version="1.0" encoding="utf-8"?>
<!-- Generator: Adobe Illustrator 24.0.1, SVG Export Plug-In . SVG Version: 6.00 Build 0)  -->
<svg version="1.1" id="ic_empty_error" xmlns="http://www.w3.org/2000/svg" xmlns:xlink="http://www.w3.org/1999/xlink" x="0px"
	 y="0px" viewBox="0 0 100 100" style="enable-background:new 0 0 100 100;" xml:space="preserve">
<style type="text/css">
	.st0{fill:#2792F4;}
	.st1{fill:#FFFFFF;}
</style>
<circle class="st0" cx="49.3" cy="49.5" r="41.2"/>
<path class="st1" d="M49.3,10.1c-21.8,0-39.4,17.6-39.4,39.4s17.6,39.4,39.4,39.4s39.4-17.6,39.4-39.4S71.1,10.1,49.3,10.1z
	 M49.3,84.1c-19,0-34.4-15.4-34.4-34.4s15.4-34.4,34.4-34.4s34.4,15.4,34.4,34.4S68.3,84.1,49.3,84.1z"/>
<path class="st1" d="M49.3,15.7c-18.7,0-33.8,15.1-33.8,33.8s15.1,33.8,33.8,33.8s33.8-15.1,33.8-33.8S68,15.7,49.3,15.7z
	 M49.3,82.5c-18.2,0-32.9-14.7-32.9-32.9s14.7-32.9,32.9-32.9s32.9,14.7,32.9,32.9S67.5,82.5,49.3,82.5z"/>
<g>
	<path class="st1" d="M54.1,55.9h-9.6l-2.9-18.6V24H57v13.2L54.1,55.9z M56.4,67.6c0,4.4-3,7.4-7.4,7.4c-4.3,0-7.3-3-7.3-7.4
		c0-4.3,3-7.3,7.3-7.3C53.3,60.3,56.4,63.3,56.4,67.6z"/>
</g>
</svg>
