<?xml version="1.0" encoding="utf-8"?>
<!-- Generator: Adobe Illustrator 24.0.2, SVG Export Plug-In . SVG Version: 6.00 Build 0)  -->
<svg version="1.1" id="Capa_1" xmlns="http://www.w3.org/2000/svg" xmlns:xlink="http://www.w3.org/1999/xlink" x="0px" y="0px"
	 viewBox="0 0 100 100" style="enable-background:new 0 0 100 100;" xml:space="preserve">
<style type="text/css">
	.st0{fill:#6B6B6B;}
	.st1{fill:#494949;}
	.st2{fill:#CCCCCC;}
	.st3{fill:#999999;}
	.st4{fill:#FFFFFF;}
</style>
<g>
	<path class="st0" d="M36.6,59.7v32.6l-28-15.5V44.2"/>
	<path class="st1" d="M36.6,59.7v32.6l28-15.5V44.2"/>
	<path class="st2" d="M8.7,43.5l28-15.5l28,15.5L36.6,59L8.7,43.5z"/>
	<path d="M45.3,66.5c-0.6,0-1.2-0.2-1.6-0.7c-0.1-0.1-0.2-0.2-0.3-0.3c-0.1-0.1-0.2-0.3-0.2-0.4c-0.1-0.1-0.1-0.3-0.1-0.4
		c0-0.1,0-0.3,0-0.4c0-0.2,0-0.3,0-0.4c0-0.1,0.1-0.3,0.1-0.4c0.1-0.1,0.1-0.3,0.2-0.4c0.1-0.1,0.2-0.2,0.3-0.3
		c0.4-0.4,1-0.7,1.6-0.7c0.6,0,1.2,0.2,1.6,0.7c0.1,0.1,0.2,0.2,0.3,0.3c0.1,0.1,0.2,0.3,0.2,0.4c0.1,0.1,0.1,0.3,0.1,0.4
		c0,0.1,0,0.3,0,0.4c0,0.1,0,0.3,0,0.4c0,0.1-0.1,0.3-0.1,0.4c-0.1,0.1-0.1,0.3-0.2,0.4c-0.1,0.1-0.2,0.2-0.3,0.3
		C46.5,66.3,45.9,66.5,45.3,66.5z"/>
	<path d="M65.7,41.5l-28-15.5c-0.7-0.4-1.5-0.4-2.2,0l-28,15.5c-0.7,0.4-1.2,1.4-1.2,2.7v32.6c0,0.8,0.5,1.6,1.2,2
		c0,0,28,15.5,28,15.5c1.1,0.7,2.1,0,2.1,0c0,0,28-15.5,28-15.5c0.7-0.4,1.2-1.2,1.2-2V44.2C66.9,42.5,66.4,41.9,65.7,41.5z
		 M36.6,30.7l23.2,12.9L36.6,56.4L13.4,43.5L36.6,30.7z M11,47.4l23.4,12.9v28.1L11,75.5V47.4z M47.6,83.6V73c0-1.3-1-2.3-2.3-2.3
		S43,71.7,43,73v13.1l-4.1,2.3V60.4l23.4-12.9v28.1L47.6,83.6z"/>
	<path class="st0" d="M77.9,22.9v4.9H65.7c-1.4,0-2.5,1.1-2.5,2.5v4.8c0,1.4,1.1,2.5,2.5,2.5h12.2v4.9l11.5-9.8L77.9,22.9z"/>
	<path d="M91.9,32.7L76.3,46.1v-6.8h-9.4c-3,0-5.4-2.4-5.4-5.4v-2.3c0-3,2.4-5.4,5.4-5.4h9.4v-6.8L91.9,32.7z M79.6,39l7.3-6.3
		l-7.3-6.3v3H67.4c-1.4,0-2.6,1.2-2.6,2.6v1.3c0,1.4,1.2,2.6,2.6,2.6h12.1V39z"/>
	<path class="st0" d="M55.8,26.6v-4.9H68c1.4,0,2.5-1.1,2.5-2.5v-4.8c0-1.4-1.1-2.5-2.5-2.5H55.8V6.9l-11.5,9.8L55.8,26.6z"/>
	<path d="M41.8,16.8L57.4,3.4v6.8h9.4c3,0,5.4,2.4,5.4,5.4v2.3c0,3-2.4,5.4-5.4,5.4h-9.4v6.8L41.8,16.8z M54.1,10.5l-7.3,6.3
		l7.3,6.3v-3h12.1c1.4,0,2.6-1.2,2.6-2.6v-1.3c0-1.4-1.2-2.6-2.6-2.6H54.1V10.5z"/>
	<path class="st0" d="M89,85.3l-15.5,8.5L58,85.3v-17l15.5-8.5L89,68.3V85.3z"/>
	<path class="st3" d="M58,68.3v17l15.5,8.5l0,0v-17L58,68.3L58,68.3z"/>
	<path class="st4" d="M83.5,81.3c-0.4,0.2-0.8,0.6-1.1,1.1c0,0.1-0.1,0.1-0.2,0.1l-0.8-0.1c-0.1,0-0.1-0.1-0.1-0.1l-0.1-1
		c0-0.1,0-0.2,0.1-0.2c0.6-0.5,1.1-1.5,1-2.3c-0.1-1-0.8-1.4-1.6-1c-0.8,0.4-1.5,1.6-1.4,2.5c0,0.8,0.6,1.3,1.2,1.1
		c0.1,0,0.1,0,0.1,0.1l0.1,1c0,0.1,0,0.1-0.1,0.2l-0.7,0.9c-0.1,0.1-0.1,0.1-0.2,0.1c-0.3-0.2-0.7-0.2-1.1,0
		c-0.8,0.4-1.4,1.6-1.4,2.5c0.1,1,0.8,1.4,1.6,1c0.8-0.4,1.5-1.6,1.4-2.5c0-0.2,0-0.3-0.1-0.4c0-0.1,0-0.2,0.1-0.2l0.7-0.9
		c0-0.1,0.1-0.1,0.2-0.1l0.8,0.1c0.1,0,0.1,0.1,0.1,0.2c0,0.2,0,0.3,0,0.5c0.1,1,0.8,1.4,1.6,1c0.8-0.4,1.4-1.5,1.4-2.5
		C85,81.4,84.3,80.9,83.5,81.3z"/>
	<path class="st4" d="M80.7,85.7c-0.3,0.9-0.9,1.7-1.7,2.1c-1.1,0.6-2,0-2.1-1.3c-0.1-1.3,0.7-2.8,1.8-3.3c0.5-0.3,1-0.3,1.3-0.1
		l0.3-0.4l0-0.6c-0.5-0.2-1.1-0.1-1.7,0.2c-1.5,0.8-2.7,2.9-2.6,4.6c0.1,1.8,1.4,2.6,2.9,1.8c0.9-0.4,1.6-1.3,2.1-2.3
		C81,86.2,80.9,86,80.7,85.7z"/>
	<path class="st4" d="M80.8,76.3c-1.5,0.8-2.7,2.9-2.6,4.6c0,0.4,0.1,0.8,0.3,1.1c0.1-0.1,0.2-0.1,0.2-0.1c0.2-0.1,0.5-0.2,0.7-0.2
		C79.2,81.4,79,81,79,80.5c-0.1-1.3,0.7-2.8,1.8-3.3c1.1-0.6,2,0,2.1,1.3c0.1,1-0.5,2.2-1.2,2.9l0,0.6l0.4,0.1c1-1,1.7-2.6,1.6-3.9
		C83.6,76.3,82.3,75.5,80.8,76.3z"/>
	<path class="st4" d="M83.8,79.7c-0.1,0.4-0.3,0.8-0.5,1.2c0.1,0,0.1-0.1,0.2-0.1c1.1-0.6,2,0,2.1,1.3c0.1,1.3-0.7,2.8-1.8,3.3
		c-1.1,0.6-2,0-2.1-1.3c0-0.2,0-0.3,0-0.5l-0.4,0L80.9,84c0,0.2,0,0.3,0,0.5c0.1,1.8,1.4,2.6,2.9,1.8c1.5-0.8,2.7-2.9,2.6-4.6
		C86.3,80,85.1,79.2,83.8,79.7z"/>
	<path class="st4" d="M63,80.8c0.4,0.2,0.8,0.6,1.1,1.1c0,0.1,0.1,0.1,0.2,0.1l0.8-0.1c0.1,0,0.1-0.1,0.1-0.1l0.1-1
		c0-0.1,0-0.2-0.1-0.2c-0.6-0.5-1.1-1.5-1-2.3c0.1-1,0.8-1.4,1.6-1c0.8,0.4,1.5,1.6,1.4,2.5c0,0.8-0.6,1.3-1.2,1.1
		c-0.1,0-0.1,0-0.1,0.1l-0.1,1c0,0.1,0,0.1,0.1,0.2l0.7,0.9c0.1,0.1,0.1,0.1,0.2,0.1c0.3-0.2,0.7-0.2,1.1,0c0.8,0.4,1.4,1.6,1.4,2.5
		c-0.1,1-0.8,1.4-1.6,1c-0.8-0.4-1.5-1.6-1.4-2.5c0-0.2,0-0.3,0.1-0.4c0-0.1,0-0.2-0.1-0.2l-0.7-0.9c0-0.1-0.1-0.1-0.2-0.1l-0.8,0.1
		c-0.1,0-0.1,0.1-0.1,0.2c0,0.2,0,0.3,0,0.5c-0.1,1-0.8,1.4-1.6,1c-0.8-0.4-1.4-1.5-1.4-2.5C61.4,80.9,62.1,80.4,63,80.8z"/>
	<path class="st4" d="M65.7,85.2c0.3,0.9,0.9,1.7,1.7,2.1c1.1,0.6,2,0,2.1-1.3c0.1-1.3-0.7-2.8-1.8-3.3c-0.5-0.3-1-0.3-1.3-0.1
		L66,82.2l0-0.6c0.5-0.2,1.1-0.1,1.7,0.2c1.5,0.8,2.7,2.9,2.6,4.6c-0.1,1.8-1.4,2.6-2.9,1.8c-0.9-0.4-1.6-1.3-2.1-2.3
		C65.5,85.7,65.6,85.5,65.7,85.2z"/>
	<path class="st4" d="M65.7,75.8c1.5,0.8,2.7,2.9,2.6,4.6c0,0.4-0.1,0.8-0.3,1.1c-0.1-0.1-0.2-0.1-0.2-0.1c-0.2-0.1-0.5-0.2-0.7-0.2
		c0.2-0.3,0.4-0.6,0.4-1.1c0.1-1.3-0.7-2.8-1.8-3.3c-1.1-0.6-2,0-2.1,1.3c-0.1,1,0.5,2.2,1.2,2.9l0,0.6l-0.4,0.1
		c-1-1-1.7-2.6-1.6-3.9C62.9,75.8,64.2,75,65.7,75.8z"/>
	<path class="st4" d="M62.7,79.2c0.1,0.4,0.3,0.8,0.5,1.2c-0.1,0-0.1-0.1-0.2-0.1c-1.1-0.6-2,0-2.1,1.3c-0.1,1.3,0.7,2.8,1.8,3.3
		c1.1,0.6,2,0,2.1-1.3c0-0.2,0-0.3,0-0.5l0.4,0l0.4,0.4c0,0.2,0,0.3,0,0.5c-0.1,1.8-1.4,2.6-2.9,1.8c-1.5-0.8-2.7-2.9-2.6-4.6
		C60.2,79.5,61.3,78.7,62.7,79.2z"/>
	<path class="st1" d="M58,68.3L58,68.3l15.5,8.5L89,68.3v0l-15.5-8.5L58,68.3z"/>
	<path class="st2" d="M89,68.3l5.1,5.1l-15.5,8.5l-5.1-5.1L89,68.3z"/>
	<path class="st2" d="M58,68.3l-5.1,5.1l15.5,8.5l5.1-5.1L58,68.3z"/>
	<path class="st2" d="M89,68.3l5.1-5.1l-15.5-8.5l-5.1,5.1L89,68.3z"/>
	<path class="st2" d="M58,68.3l-5.1-5.1l15.5-8.5l5.1,5.1L58,68.3z"/>
	<path d="M90.1,68.3l4.5-4.5c0.2-0.2,0.3-0.4,0.2-0.7c0-0.3-0.2-0.5-0.4-0.6l-5.4-3c-0.4-0.2-0.9-0.1-1.1,0.3
		c-0.2,0.4-0.1,0.9,0.3,1.1l4.5,2.4l-3.9,3.9l-14-7.7l3.9-3.9l3.9,2.2c0.4,0.2,0.9,0.1,1.1-0.3c0.2-0.4,0.1-0.9-0.3-1.1L79,53.9
		c-0.3-0.2-0.7-0.1-1,0.1l-4.5,4.5L69,54.1c-0.3-0.3-0.7-0.3-1-0.1l-15.5,8.5c-0.2,0.1-0.4,0.4-0.4,0.6c0,0.3,0.1,0.5,0.2,0.7
		l4.5,4.5l-4.5,4.5c-0.2,0.2-0.3,0.4-0.2,0.7c0,0.3,0.2,0.5,0.4,0.6l4.7,2.6v8.6c0,0.3,0.2,0.6,0.4,0.7l15.5,8.5
		c0.1,0.1,0.3,0.1,0.4,0.1s0.3,0,0.4-0.1L89.4,86c0.3-0.1,0.4-0.4,0.4-0.7v-8.6l4.7-2.6c0.2-0.1,0.4-0.4,0.4-0.6
		c0-0.3-0.1-0.5-0.2-0.7L90.1,68.3z M73.5,75.8l-13.7-7.5l13.7-7.5l13.7,7.5L73.5,75.8z M68.2,55.7l3.9,3.9l-14,7.7l-3.9-3.9
		L68.2,55.7z M58.1,69.3l14,7.7l-3.9,3.9l-14-7.7L58.1,69.3z M88.1,84.8l-13.8,7.6v-8.6c0-0.5-0.4-0.8-0.8-0.8
		c-0.5,0-0.8,0.4-0.8,0.8v8.6l-13.8-7.6v-7.2l9.1,5c0.1,0.1,0.3,0.1,0.4,0.1c0.2,0,0.4-0.1,0.6-0.2l4.5-4.5l4.5,4.5
		c0.2,0.2,0.4,0.2,0.6,0.2c0.1,0,0.3,0,0.4-0.1l9.1-5V84.8z M78.7,80.8L74.9,77l14-7.7l3.9,3.9L78.7,80.8z"/>
	<path d="M85.9,59.5c0.2,0,0.4-0.1,0.6-0.2c0.2-0.2,0.2-0.4,0.2-0.6c0-0.2-0.1-0.4-0.2-0.6c-0.2-0.2-0.4-0.2-0.6-0.2
		c-0.2,0-0.4,0.1-0.6,0.2c-0.2,0.2-0.2,0.4-0.2,0.6c0,0.2,0.1,0.4,0.2,0.6C85.5,59.4,85.7,59.5,85.9,59.5z"/>
	<path d="M73.5,80.2c-0.2,0-0.4,0.1-0.6,0.2c-0.2,0.2-0.2,0.4-0.2,0.6c0,0.2,0.1,0.4,0.2,0.6c0.2,0.2,0.4,0.2,0.6,0.2
		c0.2,0,0.4-0.1,0.6-0.2c0.2-0.2,0.2-0.4,0.2-0.6c0-0.2-0.1-0.4-0.2-0.6C73.9,80.3,73.7,80.2,73.5,80.2z"/>
</g>
</svg>
