<?xml version="1.0" encoding="utf-8"?>
<!-- Generator: Adobe Illustrator 24.0.2, SVG Export Plug-In . SVG Version: 6.00 Build 0)  -->
<svg version="1.1" id="ic_empty_transactions" xmlns="http://www.w3.org/2000/svg" xmlns:xlink="http://www.w3.org/1999/xlink"
	 x="0px" y="0px" viewBox="0 0 100 100" style="enable-background:new 0 0 100 100;" xml:space="preserve">
<style type="text/css">
	.st0{fill:#C49A6C;}
	.st1{fill:#A97C50;}
	.st2{fill:#8B5E3C;}
	.st3{fill:#FF9811;}
	.st4{fill:#FF0000;}
	.st5{fill:#0080FF;}
	.st6{fill:#068FFF;}
	.st7{fill:#06DAF7;}
	.st8{fill:#FFFFFF;}
	.st9{fill:#284CB2;}
	.st10{fill:#A6F9FF;}
</style>
<path class="st0" d="M63.4,69.8c0,15-13.8,16.9-28.8,16.9s-28.8-2-28.8-16.9c0-12.6,10.4-27.5,22-32.1h15.2
	C54.3,42.6,63.4,57.5,63.4,69.8z"/>
<path class="st1" d="M50.7,27.9c0.8-1,0.9-2.4,0.4-3.6c-0.6-1.2-1.7-1.9-3-1.9H23.6c-1.3,0-2.5,0.8-3.1,2C19.9,25.6,20.1,27,21,28
	l6.8,9.6h15.2L50.7,27.9z"/>
<path class="st1" d="M36.9,86.7c-0.8,0-1.5,0-2.3,0c-15,0-28.8-2-28.8-16.9c0-12.6,10.4-27.5,22-32.1h5.1c-11.6,4.6-22,19.6-22,32.1
	C11,83.8,23.1,86.4,36.9,86.7z"/>
<path class="st2" d="M32.9,37.6h-5.1L21,28c-0.9-1-1.1-2.4-0.6-3.6c0.5-1.2,1.8-2,3.1-2h5.1c-1.3,0-2.5,0.8-3.1,2
	C25,25.6,25.2,27,26.1,28L32.9,37.6z"/>
<path class="st3" d="M49.9,63c0,8.4-6.8,15.2-15.2,15.2S19.4,71.4,19.4,63s6.8-15.2,15.2-15.2S49.9,54.6,49.9,63z"/>
<path class="st4" d="M64.1,6.7l3.6,3.6l-8.9,8.9c-1,1-1,2.7,0,3.7l3.5,3.5c1,1,2.7,1,3.7,0l8.9-8.9l3.6,3.6l1.2-15.6L64.1,6.7z"/>
<path d="M34.6,46.1c-9.3,0-16.9,7.6-16.9,16.9s7.6,16.9,16.9,16.9S51.6,72.4,51.6,63C51.5,53.7,44,46.1,34.6,46.1z M34.6,76.5
	c-7.5,0-13.5-6.1-13.5-13.5s6.1-13.5,13.5-13.5S48.2,55.5,48.2,63C48.2,70.5,42.1,76.5,34.6,76.5z"/>
<path d="M45.7,37l6.3-8.1c1.2-1.5,1.4-3.6,0.6-5.3c-0.9-1.7-2.6-2.8-4.6-2.8H23.6c-2,0-3.8,1.2-4.6,3c-0.8,1.8-0.5,4,0.8,5.5
	l5.3,7.9C13.7,42.8,4.2,57.5,4.2,69.8c0,18.6,20.6,18.6,30.5,18.6s30.5,0,30.5-18.6C65.1,57.3,56.4,42.9,45.7,37z M22,25.1
	c0.3-0.6,0.9-1,1.5-1H48c0.6,0,1.2,0.4,1.5,0.9c0.3,0.6,0.2,1.3-0.2,1.8l-7.1,9.1H28.6l-6.3-9C21.8,26.4,21.7,25.7,22,25.1L22,25.1z
	 M34.6,85C18.4,85,7.6,82.4,7.6,69.8c0-11.5,9.8-26,20.6-30.5h14.5c10.1,4.7,19,18.8,19,30.5C61.7,82.4,50.9,85,34.6,85z"/>
<path d="M81.5,3.7l-1.6,21.2l-5-5L68,26.7c-2.2,2.2-5.7,2.2-7.9,0L58.4,25c-2.2-2.2-2.2-5.7,0-7.9l6.8-6.8l-5-5L81.5,3.7z M77,17.3
	l0.8-9.9l-9.9,0.8l2.2,2.2l-8.9,8.9c-1.1,1.1-1.1,2.8,0,3.8l1,1c1.1,1.1,2.8,1.1,3.8,0l8.9-8.9L77,17.3z"/>
<path class="st5" d="M86.1,44.8H81V32.1c0-1.4-1.2-2.6-2.6-2.6h-4.9c-1.4,0-2.6,1.2-2.6,2.6v12.6h-5.1L76,56.6L86.1,44.8z"/>
<path d="M76,59.2L62.1,43.1h7.1v-9.7c0-3.1,2.5-5.6,5.6-5.6h2.4c3.1,0,5.6,2.5,5.6,5.6v9.7h7.1L76,59.2z M69.5,46.4L76,54l6.5-7.6
	h-3.1V33.9c0-1.5-1.2-2.7-2.7-2.7h-1.3c-1.5,0-2.7,1.2-2.7,2.7v12.5H69.5z"/>
<g>
	<path d="M39.6,63.4c-0.9,0-1.7,0.4-2.3,0.9c-0.1,0.1-0.3,0.1-0.4,0.1l-1.6-0.9c-0.1-0.1-0.2-0.2-0.2-0.3l0-1.8
		c0-0.1,0.1-0.3,0.2-0.3c1.4-0.3,2.4-1.6,2.4-3.1c0-1.7-1.4-3.1-3.1-3.2c-1.8,0-3.2,1.4-3.2,3.2c0,1.5,1,2.7,2.4,3.1
		c0.1,0,0.2,0.2,0.2,0.3l0,1.8c0,0.1-0.1,0.2-0.2,0.3l-1.6,0.9c-0.1,0.1-0.3,0.1-0.4-0.1c-0.6-0.6-1.4-1-2.3-0.9
		c-1.7,0-3.1,1.4-3.1,3.2c0,1.7,1.4,3.1,3.1,3.1c1.7,0,3.2-1.4,3.2-3.2c0-0.3,0-0.6-0.1-0.9c0-0.1,0-0.3,0.1-0.4l1.6-0.9
		c0.1-0.1,0.2-0.1,0.4,0l1.6,0.9c0.1,0.1,0.2,0.2,0.1,0.4c-0.1,0.3-0.1,0.6-0.1,0.9c0,1.7,1.4,3.2,3.2,3.2c1.7,0,3.1-1.4,3.2-3.1
		C42.8,64.8,41.4,63.4,39.6,63.4z"/>
	<path d="M33.4,68.5c-0.7,1.3-2.1,2.2-3.7,2.2c-2.3,0-4.2-1.9-4.2-4.2c0-2.3,1.9-4.2,4.2-4.2c1.1,0,2,0.4,2.8,1.1l0.8-0.4l0.1-1.1
		c-1-0.8-2.2-1.2-3.6-1.2c-3.2,0-5.8,2.6-5.8,5.8s2.6,5.8,5.8,5.8c1.8,0,3.5-0.9,4.5-2.2C33.9,69.7,33.6,69.1,33.4,68.5z"/>
	<path d="M34.6,52.2c-3.2,0-5.8,2.6-5.8,5.8c0,0.8,0.2,1.5,0.4,2.2c0.2,0,0.3,0,0.5,0c0.5,0,1,0.1,1.4,0.2c-0.5-0.7-0.7-1.5-0.7-2.3
		c0-2.3,1.9-4.2,4.2-4.2c2.3,0,4.2,1.9,4.2,4.2c0,1.9-1.2,3.4-2.9,4l0,1l0.8,0.5c2.2-0.8,3.7-3,3.7-5.4
		C40.5,54.8,37.9,52.2,34.6,52.2z"/>
	<path d="M40.3,60.8c-0.3,0.6-0.7,1.1-1.1,1.6c0.1,0,0.2,0,0.4,0c2.3,0,4.2,1.9,4.2,4.2c0,2.3-1.9,4.2-4.2,4.2
		c-2.3,0-4.2-1.9-4.2-4.2c0-0.3,0-0.6,0.1-0.8l-0.8-0.4l-0.9,0.4c0,0.3-0.1,0.6-0.1,0.8c0,3.2,2.6,5.8,5.8,5.8
		c3.2,0,5.8-2.6,5.8-5.8C45.4,63.6,43.2,61.1,40.3,60.8z"/>
</g>
<g>
	<path class="st6" d="M89.5,89.1l-14.7,8.1l-14.7-8.1V72.9l14.7-8.1l14.7,8.1V89.1z"/>
	<path class="st7" d="M60.1,72.9v16.1l14.7,8.1l0,0V81L60.1,72.9L60.1,72.9z"/>
	<g>
		<path class="st8" d="M84.3,85.3c-0.4,0.2-0.8,0.6-1,1c0,0.1-0.1,0.1-0.2,0.1l-0.7-0.1c-0.1,0-0.1-0.1-0.1-0.1l-0.1-0.9
			c0-0.1,0-0.2,0.1-0.2c0.6-0.5,1-1.4,1-2.2c-0.1-0.9-0.7-1.3-1.5-0.9c-0.8,0.4-1.4,1.5-1.3,2.4c0,0.8,0.5,1.2,1.2,1.1
			c0.1,0,0.1,0,0.1,0.1l0.1,1c0,0.1,0,0.1-0.1,0.2l-0.7,0.8c-0.1,0.1-0.1,0.1-0.2,0.1c-0.3-0.2-0.7-0.2-1.1,0
			C79,88,78.5,89.1,78.5,90c0.1,0.9,0.7,1.3,1.5,0.9c0.8-0.4,1.4-1.5,1.3-2.4c0-0.2,0-0.3-0.1-0.4c0-0.1,0-0.2,0.1-0.2L82,87
			c0-0.1,0.1-0.1,0.2-0.1l0.7,0.1c0.1,0,0.1,0.1,0.1,0.2c0,0.2,0,0.3,0,0.5c0.1,0.9,0.7,1.3,1.5,0.9c0.8-0.4,1.4-1.5,1.3-2.4
			C85.7,85.4,85.1,84.9,84.3,85.3z"/>
		<path class="st8" d="M81.6,89.4c-0.3,0.9-0.9,1.7-1.6,2c-1,0.5-1.9,0-2-1.2c-0.1-1.2,0.7-2.6,1.7-3.2c0.5-0.2,0.9-0.3,1.3-0.1
			l0.3-0.4l0-0.6c-0.5-0.2-1-0.1-1.7,0.2c-1.4,0.7-2.5,2.7-2.4,4.4s1.4,2.5,2.8,1.7c0.8-0.4,1.5-1.3,2-2.2
			C81.9,90,81.8,89.7,81.6,89.4z"/>
		<path class="st8" d="M81.7,80.5c-1.4,0.7-2.5,2.7-2.4,4.4c0,0.4,0.1,0.8,0.3,1.1c0.1,0,0.2-0.1,0.2-0.1c0.2-0.1,0.4-0.2,0.6-0.2
			C80.2,85.4,80,85,80,84.6c-0.1-1.2,0.7-2.6,1.7-3.2c1-0.5,1.9,0,2,1.2c0.1,1-0.4,2.1-1.2,2.8l0,0.5L83,86c1-0.9,1.6-2.4,1.5-3.7
			C84.4,80.6,83.1,79.8,81.7,80.5z"/>
		<path class="st8" d="M84.5,83.8c-0.1,0.4-0.3,0.8-0.5,1.1c0.1,0,0.1-0.1,0.2-0.1c1-0.5,1.9,0,2,1.2c0.1,1.2-0.7,2.6-1.7,3.2
			c-1,0.5-1.9,0-2-1.2c0-0.2,0-0.3,0-0.5l-0.4,0l-0.4,0.4c0,0.2,0,0.3,0,0.5c0.1,1.7,1.4,2.5,2.8,1.7c1.4-0.7,2.5-2.7,2.4-4.4
			C86.9,84.1,85.8,83.3,84.5,83.8z"/>
	</g>
	<g>
		<path class="st8" d="M64.8,84.8c0.4,0.2,0.8,0.6,1,1c0,0.1,0.1,0.1,0.2,0.1l0.7-0.1c0.1,0,0.1-0.1,0.1-0.1l0.1-0.9
			c0-0.1,0-0.2-0.1-0.2c-0.6-0.5-1-1.4-1-2.2c0.1-0.9,0.7-1.3,1.5-0.9c0.8,0.4,1.4,1.5,1.3,2.4c0,0.8-0.5,1.2-1.2,1.1
			c-0.1,0-0.1,0-0.1,0.1l-0.1,1c0,0.1,0,0.1,0.1,0.2L68,87c0.1,0.1,0.1,0.1,0.2,0.1c0.3-0.2,0.7-0.2,1.1,0c0.8,0.4,1.4,1.5,1.3,2.4
			c-0.1,0.9-0.7,1.3-1.5,0.9c-0.8-0.4-1.4-1.5-1.3-2.4c0-0.2,0-0.3,0.1-0.4c0-0.1,0-0.2-0.1-0.2L67,86.6c0-0.1-0.1-0.1-0.2-0.1
			l-0.7,0.1c-0.1,0-0.1,0.1-0.1,0.2c0,0.2,0,0.3,0,0.5c-0.1,0.9-0.7,1.3-1.5,0.9c-0.8-0.4-1.4-1.5-1.3-2.4
			C63.3,84.9,64,84.4,64.8,84.8z"/>
		<path class="st8" d="M67.4,89c0.3,0.9,0.9,1.7,1.6,2c1,0.5,1.9,0,2-1.2s-0.7-2.6-1.7-3.2c-0.5-0.2-0.9-0.3-1.3-0.1l-0.3-0.4l0-0.6
			c0.5-0.2,1-0.1,1.7,0.2c1.4,0.7,2.5,2.7,2.4,4.4s-1.4,2.5-2.8,1.7c-0.8-0.4-1.5-1.3-2-2.2C67.1,89.5,67.3,89.2,67.4,89z"/>
		<path class="st8" d="M67.4,80.1c1.4,0.7,2.5,2.7,2.4,4.4c0,0.4-0.1,0.8-0.3,1.1c-0.1,0-0.2-0.1-0.2-0.1c-0.2-0.1-0.4-0.2-0.6-0.2
			c0.2-0.2,0.4-0.6,0.4-1.1c0.1-1.2-0.7-2.6-1.7-3.2c-1-0.5-1.9,0-2,1.2c-0.1,1,0.4,2.1,1.2,2.8l0,0.5l-0.4,0.1
			c-1-0.9-1.6-2.4-1.5-3.7C64.7,80.1,65.9,79.3,67.4,80.1z"/>
		<path class="st8" d="M64.5,83.3c0.1,0.4,0.3,0.8,0.5,1.1c-0.1,0-0.1-0.1-0.2-0.1c-1-0.5-1.9,0-2,1.2c-0.1,1.2,0.7,2.6,1.7,3.2
			c1,0.5,1.9,0,2-1.2c0-0.2,0-0.3,0-0.5l0.4,0l0.4,0.4c0,0.2,0,0.3,0,0.5c-0.1,1.7-1.4,2.5-2.8,1.7c-1.4-0.7-2.5-2.7-2.4-4.4
			C62.2,83.6,63.2,82.8,64.5,83.3z"/>
	</g>
	<path class="st9" d="M60.1,72.9L60.1,72.9L74.8,81l14.7-8.1v0l-14.7-8.1L60.1,72.9z"/>
	<g>
		<path class="st10" d="M89.5,72.9l4.9,4.9l-14.7,8.1L74.8,81L89.5,72.9z"/>
		<path class="st10" d="M60.1,72.9l-4.9,4.9l14.7,8.1l4.9-4.9L60.1,72.9z"/>
		<path class="st10" d="M89.5,72.9l4.9-4.9L79.6,60l-4.9,4.9L89.5,72.9z"/>
		<path class="st10" d="M60.1,72.9l-4.9-4.9L69.9,60l4.9,4.9L60.1,72.9z"/>
	</g>
	<path d="M90.6,72.9l4.3-4.3c0.2-0.2,0.3-0.4,0.2-0.7c0-0.2-0.2-0.5-0.4-0.6l-5.2-2.8c-0.4-0.2-0.9-0.1-1.1,0.3
		c-0.2,0.4-0.1,0.9,0.3,1.1l4.2,2.3l-3.7,3.7l-13.2-7.3l3.7-3.7l3.7,2c0.4,0.2,0.9,0.1,1.1-0.3c0.2-0.4,0.1-0.9-0.3-1.1L80,59.3
		c-0.3-0.2-0.7-0.1-0.9,0.1l-4.3,4.3l-4.3-4.3c-0.2-0.2-0.6-0.3-0.9-0.1l-14.7,8.1c-0.2,0.1-0.4,0.3-0.4,0.6c0,0.2,0,0.5,0.2,0.7
		l4.3,4.3l-4.3,4.3c-0.2,0.2-0.3,0.4-0.2,0.7c0,0.2,0.2,0.5,0.4,0.6l4.4,2.4v8.2c0,0.3,0.2,0.6,0.4,0.7l14.7,8.1
		c0.1,0.1,0.3,0.1,0.4,0.1c0.1,0,0.3,0,0.4-0.1l14.7-8.1c0.3-0.1,0.4-0.4,0.4-0.7v-8.2l4.4-2.4c0.2-0.1,0.4-0.3,0.4-0.6
		c0-0.2,0-0.5-0.2-0.7L90.6,72.9z M74.8,80.1l-13-7.2l13-7.2l13,7.2L74.8,80.1z M69.8,61l3.7,3.7l-13.2,7.3l-3.7-3.7L69.8,61z
		 M60.2,73.9l13.2,7.3l-3.7,3.7l-13.2-7.3L60.2,73.9z M88.7,88.6l-13.1,7.2v-8.1c0-0.4-0.4-0.8-0.8-0.8c-0.4,0-0.8,0.4-0.8,0.8v8.1
		l-13.1-7.2v-6.8l8.7,4.8c0.1,0.1,0.3,0.1,0.4,0.1c0.2,0,0.4-0.1,0.6-0.2l4.3-4.3l4.3,4.3c0.2,0.2,0.4,0.2,0.6,0.2
		c0.1,0,0.3,0,0.4-0.1l8.7-4.8V88.6z M79.7,84.9l-3.7-3.7l13.2-7.3l3.7,3.7L79.7,84.9z"/>
	<path d="M86.6,64.6c0.2,0,0.4-0.1,0.6-0.2c0.1-0.1,0.2-0.4,0.2-0.6c0-0.2-0.1-0.4-0.2-0.6C87,63.1,86.8,63,86.6,63
		c-0.2,0-0.4,0.1-0.6,0.2c-0.1,0.1-0.2,0.4-0.2,0.6c0,0.2,0.1,0.4,0.2,0.6C86.2,64.5,86.4,64.6,86.6,64.6z"/>
	<path d="M74.8,84.2c-0.2,0-0.4,0.1-0.6,0.2C74,84.6,74,84.8,74,85c0,0.2,0.1,0.4,0.2,0.6c0.1,0.1,0.4,0.2,0.6,0.2
		c0.2,0,0.4-0.1,0.6-0.2c0.1-0.1,0.2-0.4,0.2-0.6c0-0.2-0.1-0.4-0.2-0.6C75.2,84.3,75,84.2,74.8,84.2z"/>
</g>
</svg>
