<?xml version="1.0" encoding="utf-8"?>
<!-- Generator: Adobe Illustrator 24.0.2, SVG Export Plug-In . SVG Version: 6.00 Build 0)  -->
<svg version="1.1" id="ic_empty_Dark_transactions" xmlns="http://www.w3.org/2000/svg" xmlns:xlink="http://www.w3.org/1999/xlink"
	 x="0px" y="0px" viewBox="0 0 100 100" style="enable-background:new 0 0 100 100;" xml:space="preserve">
<style type="text/css">
	.st0{fill:#068FFF;}
	.st1{fill:#06DAF7;}
	.st2{fill:#FFFFFF;}
	.st3{fill:#284CB2;}
	.st4{fill:#A6F9FF;}
</style>
<path class="st0" d="M80.7,74.2L50.1,91L19.4,74.2V40.5l30.7-16.8l30.7,16.8V74.2z"/>
<path class="st1" d="M19.4,40.5v33.7L50.1,91l0,0V57.3L19.4,40.5L19.4,40.5z"/>
<g>
	<path class="st2" d="M70.5,65.9c-0.8,0.4-1.6,1.2-2.1,2.1c-0.1,0.2-0.2,0.3-0.4,0.2l-1.5-0.3c-0.1,0-0.2-0.1-0.2-0.2l-0.1-2
		c0-0.2,0.1-0.4,0.2-0.5c1.3-1,2.1-2.9,2-4.5c-0.1-1.9-1.5-2.8-3.1-2c-1.6,0.8-2.9,3.1-2.8,5c0.1,1.6,1.1,2.5,2.4,2.2
		c0.1,0,0.2,0.1,0.3,0.2l0.1,2c0,0.1,0,0.3-0.1,0.4l-1.4,1.8c-0.1,0.1-0.3,0.2-0.4,0.1c-0.6-0.4-1.4-0.4-2.2,0.1
		c-1.6,0.9-2.8,3.1-2.7,5c0.1,1.9,1.5,2.8,3.2,2c1.6-0.8,2.9-3.1,2.8-5c0-0.3-0.1-0.6-0.2-0.9c0-0.1,0-0.3,0.1-0.5l1.4-1.8
		c0.1-0.1,0.2-0.2,0.3-0.2l1.5,0.3c0.1,0,0.2,0.2,0.2,0.3c-0.1,0.3-0.1,0.7-0.1,1c0.1,1.9,1.5,2.8,3.2,2c1.6-0.8,2.9-3.1,2.8-5
		C73.6,66,72.2,65.1,70.5,65.9z"/>
	<path class="st2" d="M65,74.6c-0.6,1.8-1.8,3.4-3.3,4.2c-2.2,1.1-4-0.1-4.2-2.6c-0.2-2.5,1.5-5.5,3.6-6.6c1-0.5,1.9-0.5,2.7-0.2
		l0.7-0.8l0-1.2c-1-0.4-2.2-0.3-3.5,0.4c-3,1.5-5.3,5.7-5.1,9.2s2.8,5.2,5.8,3.6c1.7-0.9,3.2-2.6,4.1-4.6
		C65.6,75.6,65.2,75.1,65,74.6z"/>
	<path class="st2" d="M65.1,56c-3,1.5-5.3,5.7-5.1,9.2c0.1,0.9,0.2,1.6,0.5,2.2c0.2-0.1,0.3-0.2,0.5-0.3c0.5-0.2,0.9-0.4,1.4-0.5
		c-0.5-0.5-0.8-1.3-0.8-2.2c-0.2-2.5,1.5-5.5,3.6-6.6c2.2-1.1,4,0.1,4.2,2.6c0.1,2.1-0.9,4.4-2.5,5.8l0.1,1.1l0.8,0.1
		c2-2,3.3-5.1,3.2-7.8C70.7,56,68.1,54.4,65.1,56z"/>
	<path class="st2" d="M71,62.7c-0.2,0.8-0.6,1.6-1,2.3c0.1-0.1,0.2-0.1,0.3-0.2c2.2-1.1,4,0.1,4.2,2.6c0.2,2.5-1.5,5.5-3.6,6.6
		c-2.2,1.1-4-0.1-4.2-2.6c0-0.3,0-0.6,0-1l-0.8,0l-0.8,0.8c0,0.3,0,0.6,0,1c0.2,3.5,2.8,5.2,5.8,3.6c3-1.5,5.3-5.7,5.1-9.2
		C76,63.4,73.7,61.7,71,62.7z"/>
</g>
<g>
	<path class="st2" d="M29.8,64.9c0.8,0.4,1.6,1.2,2.1,2.1c0.1,0.2,0.2,0.3,0.4,0.2l1.5-0.3c0.1,0,0.2-0.1,0.2-0.2l0.1-2
		c0-0.2-0.1-0.4-0.2-0.5c-1.3-1-2.1-2.9-2-4.5c0.1-1.9,1.5-2.8,3.1-2c1.6,0.8,2.9,3.1,2.8,5c-0.1,1.6-1.1,2.5-2.4,2.2
		c-0.1,0-0.2,0.1-0.3,0.2l-0.1,2c0,0.1,0,0.3,0.1,0.4l1.4,1.8c0.1,0.1,0.3,0.2,0.4,0.1c0.6-0.4,1.4-0.4,2.2,0.1
		c1.6,0.9,2.8,3.1,2.7,5c-0.1,1.9-1.5,2.8-3.2,2c-1.6-0.8-2.9-3.1-2.8-5c0-0.3,0.1-0.6,0.2-0.9c0-0.1,0-0.3-0.1-0.5l-1.4-1.8
		c-0.1-0.1-0.2-0.2-0.3-0.2l-1.5,0.3c-0.1,0-0.2,0.2-0.2,0.3c0.1,0.3,0.1,0.7,0.1,1c-0.1,1.9-1.5,2.8-3.2,2c-1.6-0.8-2.9-3.1-2.8-5
		C26.8,65,28.2,64.1,29.8,64.9z"/>
	<path class="st2" d="M35.3,73.6c0.6,1.8,1.8,3.4,3.3,4.2c2.2,1.1,4-0.1,4.2-2.6c0.2-2.5-1.5-5.5-3.6-6.6c-1-0.5-1.9-0.5-2.7-0.2
		l-0.7-0.8l0-1.2c1-0.4,2.2-0.3,3.5,0.4c3,1.5,5.3,5.7,5.1,9.2s-2.8,5.2-5.8,3.6c-1.7-0.9-3.2-2.6-4.1-4.6
		C34.8,74.6,35.1,74.1,35.3,73.6z"/>
	<path class="st2" d="M35.2,55c3,1.5,5.3,5.7,5.1,9.2c-0.1,0.9-0.2,1.6-0.5,2.2c-0.2-0.1-0.3-0.2-0.5-0.3c-0.5-0.2-0.9-0.4-1.4-0.5
		c0.5-0.5,0.8-1.3,0.8-2.2c0.2-2.5-1.5-5.5-3.6-6.6c-2.2-1.1-4,0.1-4.2,2.6c-0.1,2.1,0.9,4.4,2.5,5.8l-0.1,1.1l-0.8,0.1
		c-2-2-3.3-5.1-3.2-7.8C29.6,55,32.2,53.4,35.2,55z"/>
	<path class="st2" d="M29.3,61.7c0.2,0.8,0.6,1.6,1,2.3c-0.1-0.1-0.2-0.1-0.3-0.2c-2.2-1.1-4,0.1-4.2,2.6c-0.2,2.5,1.5,5.5,3.6,6.6
		c2.2,1.1,4-0.1,4.2-2.6c0-0.3,0-0.6,0-1l0.8,0l0.8,0.8c0,0.3,0,0.6,0,1c-0.2,3.5-2.8,5.2-5.8,3.6c-3-1.5-5.3-5.7-5.1-9.2
		C24.4,62.4,26.6,60.7,29.3,61.7z"/>
</g>
<path class="st3" d="M19.4,40.5L19.4,40.5l30.7,16.8l30.7-16.8v0L50.1,23.7L19.4,40.5z"/>
<g>
	<path class="st4" d="M80.7,40.5l10.1,10.1L60.2,67.5L50.1,57.3L80.7,40.5z"/>
	<path class="st4" d="M19.4,40.5L9.3,50.6L40,67.5l10.1-10.1L19.4,40.5z"/>
	<path class="st4" d="M80.7,40.5l10.1-10.1L60.2,13.5L50.1,23.7L80.7,40.5z"/>
	<path class="st4" d="M19.4,40.5L9.3,30.4L40,13.5l10.1,10.1L19.4,40.5z"/>
</g>
<path class="st2" d="M83.1,40.5l9-9c0.4-0.4,0.5-0.9,0.5-1.4c-0.1-0.5-0.4-1-0.8-1.2L80.9,23c-0.8-0.4-1.8-0.1-2.3,0.7
	c-0.4,0.8-0.1,1.8,0.7,2.3l8.8,4.8l-7.7,7.7L52.8,23.3l7.7-7.7l7.8,4.3c0.8,0.4,1.8,0.1,2.3-0.7c0.4-0.8,0.1-1.8-0.7-2.3L61,12.1
	c-0.6-0.4-1.4-0.2-2,0.3l-9,9l-9-9c-0.5-0.5-1.3-0.6-2-0.3L8.5,28.9c-0.5,0.3-0.8,0.7-0.8,1.2c-0.1,0.5,0.1,1,0.5,1.4l9,9l-9,9
	c-0.4,0.4-0.5,0.9-0.5,1.4c0.1,0.5,0.4,1,0.8,1.2l9.3,5.1v17c0,0.6,0.3,1.2,0.9,1.5l30.7,16.8c0.2,0.1,0.5,0.2,0.8,0.2
	c0.3,0,0.5-0.1,0.8-0.2l30.7-16.8c0.5-0.3,0.9-0.8,0.9-1.5v-17l9.3-5.1c0.5-0.3,0.8-0.7,0.8-1.2c0.1-0.5-0.1-1-0.5-1.4L83.1,40.5z
	 M50.1,55.4L22.9,40.5l27.2-14.9l27.2,14.9L50.1,55.4z M39.7,15.6l7.7,7.7L19.7,38.4L12,30.8L39.7,15.6z M19.7,42.5l27.6,15.2
	l-7.7,7.7L12,50.2L19.7,42.5z M79.1,73.2l-27.4,15v-17c0-0.9-0.7-1.7-1.7-1.7c-0.9,0-1.7,0.7-1.7,1.7v17l-27.4-15V59l18.1,9.9
	c0.3,0.1,0.5,0.2,0.8,0.2c0.4,0,0.9-0.2,1.2-0.5l9-9l9,9c0.3,0.3,0.7,0.5,1.2,0.5c0.3,0,0.5-0.1,0.8-0.2L79.1,59V73.2z M60.5,65.4
	l-7.7-7.7l27.6-15.2l7.7,7.7L60.5,65.4z"/>
<path class="st2" d="M74.8,23.2c0.4,0,0.9-0.2,1.2-0.5c0.3-0.3,0.5-0.7,0.5-1.2c0-0.4-0.2-0.9-0.5-1.2c-0.3-0.3-0.7-0.5-1.2-0.5
	c-0.4,0-0.9,0.2-1.2,0.5c-0.3,0.3-0.5,0.7-0.5,1.2c0,0.4,0.2,0.9,0.5,1.2C73.9,23,74.3,23.2,74.8,23.2z"/>
<path class="st2" d="M50.1,64.1c-0.4,0-0.9,0.2-1.2,0.5c-0.3,0.3-0.5,0.7-0.5,1.2c0,0.4,0.2,0.9,0.5,1.2c0.3,0.3,0.7,0.5,1.2,0.5
	s0.9-0.2,1.2-0.5c0.3-0.3,0.5-0.7,0.5-1.2c0-0.4-0.2-0.9-0.5-1.2C50.9,64.3,50.5,64.1,50.1,64.1z"/>
</svg>
