<?xml version="1.0" encoding="utf-8"?>
<!-- Generator: Adobe Illustrator 24.0.2, SVG Export Plug-In . SVG Version: 6.00 Build 0)  -->
<svg version="1.1" id="ic_staking_on" xmlns="http://www.w3.org/2000/svg" xmlns:xlink="http://www.w3.org/1999/xlink" x="0px"
	 y="0px" viewBox="0 0 100 100" style="enable-background:new 0 0 100 100;" xml:space="preserve">
<style type="text/css">
	.st0{fill:#36AAEA;}
	.st1{fill:#0087E2;}
	.st2{fill:#84CEEF;}
	.st3{fill:#068FFF;}
	.st4{fill:#06DAF7;}
	.st5{fill:#FFFFFF;}
	.st6{fill:#284CB2;}
	.st7{fill:#A6F9FF;}
</style>
<g>
	<path class="st0" d="M36.5,61v32.6l-28-15.5V45.5"/>
	<path class="st1" d="M36.5,61v32.6l28-15.5V45.5"/>
	<path class="st2" d="M8.5,44.8l28-15.5l28,15.5l-28,15.5L8.5,44.8z"/>
	<path d="M45.1,67.8c-0.6,0-1.2-0.2-1.6-0.7c-0.1-0.1-0.2-0.2-0.3-0.3c-0.1-0.1-0.2-0.3-0.2-0.4c-0.1-0.1-0.1-0.3-0.1-0.4
		c0-0.1,0-0.3,0-0.4c0-0.2,0-0.3,0-0.4c0-0.1,0.1-0.3,0.1-0.4c0.1-0.1,0.1-0.3,0.2-0.4c0.1-0.1,0.2-0.2,0.3-0.3
		c0.4-0.4,1-0.7,1.6-0.7c0.6,0,1.2,0.2,1.6,0.7c0.1,0.1,0.2,0.2,0.3,0.3c0.1,0.1,0.2,0.3,0.2,0.4c0.1,0.1,0.1,0.3,0.1,0.4
		c0,0.1,0,0.3,0,0.4c0,0.1,0,0.3,0,0.4c0,0.1-0.1,0.3-0.1,0.4c-0.1,0.1-0.1,0.3-0.2,0.4c-0.1,0.1-0.2,0.2-0.3,0.3
		C46.3,67.6,45.7,67.8,45.1,67.8z"/>
	<path d="M65.5,42.9l-28-15.5c-0.7-0.4-1.5-0.4-2.2,0l-28,15.5c-0.7,0.4-1.2,1.4-1.2,2.7v32.6c0,0.8,0.5,1.6,1.2,2
		c0,0,28,15.5,28,15.5c1.1,0.7,2.1,0,2.1,0c0,0,28-15.5,28-15.5c0.7-0.4,1.2-1.2,1.2-2V45.5C66.7,43.8,66.3,43.3,65.5,42.9z
		 M36.5,32l23.2,12.9L36.5,57.7L13.2,44.8L36.5,32z M10.8,48.7l23.4,12.9v28.1L10.8,76.8V48.7z M47.4,84.9V74.3c0-1.3-1-2.3-2.3-2.3
		s-2.3,1-2.3,2.3v13.1l-4.1,2.3V61.7l23.4-12.9v28.1L47.4,84.9z"/>
	<path class="st1" d="M77.8,24.2v4.9H65.5c-1.4,0-2.5,1.1-2.5,2.5v4.8c0,1.4,1.1,2.5,2.5,2.5h12.2v4.9L89.2,34L77.8,24.2z"/>
	<path d="M91.7,34L76.1,47.4v-6.8h-9.4c-3,0-5.4-2.4-5.4-5.4v-2.3c0-3,2.4-5.4,5.4-5.4h9.4v-6.8L91.7,34z M79.4,40.3l7.3-6.3
		l-7.3-6.3v3H67.3c-1.4,0-2.6,1.2-2.6,2.6v1.3c0,1.4,1.2,2.6,2.6,2.6h12.1V40.3z"/>
	<path class="st1" d="M55.6,27.9V23h12.2c1.4,0,2.5-1.1,2.5-2.5v-4.8c0-1.4-1.1-2.5-2.5-2.5H55.6V8.2l-11.5,9.8L55.6,27.9z"/>
	<path d="M41.6,18.1L57.2,4.7v6.8h9.4c3,0,5.4,2.4,5.4,5.4v2.3c0,3-2.4,5.4-5.4,5.4h-9.4v6.8L41.6,18.1z M54,11.8l-7.3,6.3l7.3,6.3
		v-3h12.1c1.4,0,2.6-1.2,2.6-2.6v-1.3c0-1.4-1.2-2.6-2.6-2.6H54V11.8z"/>
</g>
<g>
	<path class="st3" d="M88.8,86.6l-15.5,8.5l-15.5-8.5v-17l15.5-8.5l15.5,8.5V86.6z"/>
	<path class="st4" d="M57.8,69.6v17l15.5,8.5l0,0v-17L57.8,69.6L57.8,69.6z"/>
	<g>
		<path class="st5" d="M83.4,82.6c-0.4,0.2-0.8,0.6-1.1,1.1c0,0.1-0.1,0.1-0.2,0.1l-0.8-0.1c-0.1,0-0.1-0.1-0.1-0.1l-0.1-1
			c0-0.1,0-0.2,0.1-0.2c0.6-0.5,1.1-1.5,1-2.3c-0.1-1-0.8-1.4-1.6-1c-0.8,0.4-1.5,1.6-1.4,2.5c0,0.8,0.6,1.3,1.2,1.1
			c0.1,0,0.1,0,0.1,0.1l0.1,1c0,0.1,0,0.1-0.1,0.2L80,85c-0.1,0.1-0.1,0.1-0.2,0.1c-0.3-0.2-0.7-0.2-1.1,0c-0.8,0.4-1.4,1.6-1.4,2.5
			c0.1,1,0.8,1.4,1.6,1c0.8-0.4,1.5-1.6,1.4-2.5c0-0.2,0-0.3-0.1-0.4c0-0.1,0-0.2,0.1-0.2l0.7-0.9c0-0.1,0.1-0.1,0.2-0.1l0.8,0.1
			c0.1,0,0.1,0.1,0.1,0.2c0,0.2,0,0.3,0,0.5c0.1,1,0.8,1.4,1.6,1c0.8-0.4,1.4-1.5,1.4-2.5C84.9,82.7,84.2,82.2,83.4,82.6z"/>
		<path class="st5" d="M80.6,87c-0.3,0.9-0.9,1.7-1.7,2.1c-1.1,0.6-2,0-2.1-1.3s0.7-2.8,1.8-3.3c0.5-0.3,1-0.3,1.3-0.1l0.3-0.4
			l0-0.6c-0.5-0.2-1.1-0.1-1.7,0.2c-1.5,0.8-2.7,2.9-2.6,4.6c0.1,1.8,1.4,2.6,2.9,1.8c0.9-0.4,1.6-1.3,2.1-2.3
			C80.8,87.5,80.7,87.3,80.6,87z"/>
		<path class="st5" d="M80.6,77.6c-1.5,0.8-2.7,2.9-2.6,4.6c0,0.4,0.1,0.8,0.3,1.1c0.1-0.1,0.2-0.1,0.2-0.1c0.2-0.1,0.5-0.2,0.7-0.2
			c-0.2-0.3-0.4-0.6-0.4-1.1c-0.1-1.3,0.7-2.8,1.8-3.3c1.1-0.6,2,0,2.1,1.3c0.1,1-0.5,2.2-1.2,2.9l0,0.6l0.4,0.1
			c1-1,1.7-2.6,1.6-3.9C83.5,77.6,82.1,76.8,80.6,77.6z"/>
		<path class="st5" d="M83.6,81c-0.1,0.4-0.3,0.8-0.5,1.2c0.1,0,0.1-0.1,0.2-0.1c1.1-0.6,2,0,2.1,1.3c0.1,1.3-0.7,2.8-1.8,3.3
			c-1.1,0.6-2,0-2.1-1.3c0-0.2,0-0.3,0-0.5l-0.4,0l-0.4,0.4c0,0.2,0,0.3,0,0.5c0.1,1.8,1.4,2.6,2.9,1.8c1.5-0.8,2.7-2.9,2.6-4.6
			C86.1,81.4,85,80.5,83.6,81z"/>
	</g>
	<g>
		<path class="st5" d="M62.8,82.1c0.4,0.2,0.8,0.6,1.1,1.1c0,0.1,0.1,0.1,0.2,0.1l0.8-0.1c0.1,0,0.1-0.1,0.1-0.1l0.1-1
			c0-0.1,0-0.2-0.1-0.2c-0.6-0.5-1.1-1.5-1-2.3c0.1-1,0.8-1.4,1.6-1c0.8,0.4,1.5,1.6,1.4,2.5c0,0.8-0.6,1.3-1.2,1.1
			c-0.1,0-0.1,0-0.1,0.1l-0.1,1c0,0.1,0,0.1,0.1,0.2l0.7,0.9c0.1,0.1,0.1,0.1,0.2,0.1c0.3-0.2,0.7-0.2,1.1,0
			c0.8,0.4,1.4,1.6,1.4,2.5c-0.1,1-0.8,1.4-1.6,1c-0.8-0.4-1.5-1.6-1.4-2.5c0-0.2,0-0.3,0.1-0.4c0-0.1,0-0.2-0.1-0.2l-0.7-0.9
			c0-0.1-0.1-0.1-0.2-0.1L64.3,84c-0.1,0-0.1,0.1-0.1,0.2c0,0.2,0,0.3,0,0.5c-0.1,1-0.8,1.4-1.6,1c-0.8-0.4-1.4-1.5-1.4-2.5
			C61.3,82.2,62,81.7,62.8,82.1z"/>
		<path class="st5" d="M65.6,86.5c0.3,0.9,0.9,1.7,1.7,2.1c1.1,0.6,2,0,2.1-1.3c0.1-1.3-0.7-2.8-1.8-3.3c-0.5-0.3-1-0.3-1.3-0.1
			l-0.3-0.4l0-0.6c0.5-0.2,1.1-0.1,1.7,0.2c1.5,0.8,2.7,2.9,2.6,4.6c-0.1,1.8-1.4,2.6-2.9,1.8c-0.9-0.4-1.6-1.3-2.1-2.3
			C65.3,87,65.5,86.8,65.6,86.5z"/>
		<path class="st5" d="M65.5,77.1c1.5,0.8,2.7,2.9,2.6,4.6c0,0.4-0.1,0.8-0.3,1.1c-0.1-0.1-0.2-0.1-0.2-0.1
			c-0.2-0.1-0.5-0.2-0.7-0.2c0.2-0.3,0.4-0.6,0.4-1.1c0.1-1.3-0.7-2.8-1.8-3.3c-1.1-0.6-2,0-2.1,1.3c-0.1,1,0.5,2.2,1.2,2.9l0,0.6
			l-0.4,0.1c-1-1-1.7-2.6-1.6-3.9C62.7,77.1,64,76.3,65.5,77.1z"/>
		<path class="st5" d="M62.5,80.5c0.1,0.4,0.3,0.8,0.5,1.2c-0.1,0-0.1-0.1-0.2-0.1c-1.1-0.6-2,0-2.1,1.3c-0.1,1.3,0.7,2.8,1.8,3.3
			c1.1,0.6,2,0,2.1-1.3c0-0.2,0-0.3,0-0.5l0.4,0l0.4,0.4c0,0.2,0,0.3,0,0.5c-0.1,1.8-1.4,2.6-2.9,1.8c-1.5-0.8-2.7-2.9-2.6-4.6
			C60.1,80.9,61.2,80,62.5,80.5z"/>
	</g>
	<path class="st6" d="M57.8,69.6L57.8,69.6l15.5,8.5l15.5-8.5v0l-15.5-8.5L57.8,69.6z"/>
	<g>
		<path class="st7" d="M88.8,69.6l5.1,5.1l-15.5,8.5l-5.1-5.1L88.8,69.6z"/>
		<path class="st7" d="M57.8,69.6l-5.1,5.1l15.5,8.5l5.1-5.1L57.8,69.6z"/>
		<path class="st7" d="M88.8,69.6l5.1-5.1L78.4,56l-5.1,5.1L88.8,69.6z"/>
		<path class="st7" d="M57.8,69.6l-5.1-5.1L68.2,56l5.1,5.1L57.8,69.6z"/>
	</g>
	<path d="M90,69.6l4.5-4.5c0.2-0.2,0.3-0.4,0.2-0.7c0-0.3-0.2-0.5-0.4-0.6l-5.4-3c-0.4-0.2-0.9-0.1-1.1,0.3
		c-0.2,0.4-0.1,0.9,0.3,1.1l4.5,2.4l-3.9,3.9l-14-7.7l3.9-3.9l3.9,2.2c0.4,0.2,0.9,0.1,1.1-0.3c0.2-0.4,0.1-0.9-0.3-1.1l-4.5-2.5
		c-0.3-0.2-0.7-0.1-1,0.1l-4.5,4.5l-4.5-4.5c-0.3-0.3-0.7-0.3-1-0.1l-15.5,8.5c-0.2,0.1-0.4,0.4-0.4,0.6c0,0.3,0.1,0.5,0.2,0.7
		l4.5,4.5l-4.5,4.5c-0.2,0.2-0.3,0.4-0.2,0.7c0,0.3,0.2,0.5,0.4,0.6L57,78v8.6c0,0.3,0.2,0.6,0.4,0.7l15.5,8.5
		c0.1,0.1,0.3,0.1,0.4,0.1s0.3,0,0.4-0.1l15.5-8.5c0.3-0.1,0.4-0.4,0.4-0.7V78l4.7-2.6c0.2-0.1,0.4-0.4,0.4-0.6
		c0-0.3-0.1-0.5-0.2-0.7L90,69.6z M73.3,77.1l-13.7-7.5L73.3,62l13.7,7.5L73.3,77.1z M68.1,57l3.9,3.9l-14,7.7l-3.9-3.9L68.1,57z
		 M58,70.6l14,7.7l-3.9,3.9l-14-7.7L58,70.6z M88,86.1l-13.8,7.6v-8.6c0-0.5-0.4-0.8-0.8-0.8s-0.8,0.4-0.8,0.8v8.6l-13.8-7.6v-7.2
		l9.1,5c0.1,0.1,0.3,0.1,0.4,0.1c0.2,0,0.4-0.1,0.6-0.2l4.5-4.5l4.5,4.5c0.2,0.2,0.4,0.2,0.6,0.2c0.1,0,0.3,0,0.4-0.1l9.1-5V86.1z
		 M78.6,82.2l-3.9-3.9l14-7.7l3.9,3.9L78.6,82.2z"/>
	<path d="M85.8,60.8c0.2,0,0.4-0.1,0.6-0.2c0.2-0.2,0.2-0.4,0.2-0.6c0-0.2-0.1-0.4-0.2-0.6c-0.2-0.2-0.4-0.2-0.6-0.2
		c-0.2,0-0.4,0.1-0.6,0.2c-0.2,0.2-0.2,0.4-0.2,0.6c0,0.2,0.1,0.4,0.2,0.6C85.3,60.7,85.5,60.8,85.8,60.8z"/>
	<path d="M73.3,81.5c-0.2,0-0.4,0.1-0.6,0.2c-0.2,0.2-0.2,0.4-0.2,0.6c0,0.2,0.1,0.4,0.2,0.6c0.2,0.2,0.4,0.2,0.6,0.2
		c0.2,0,0.4-0.1,0.6-0.2c0.2-0.2,0.2-0.4,0.2-0.6c0-0.2-0.1-0.4-0.2-0.6C73.8,81.6,73.5,81.5,73.3,81.5z"/>
</g>
</svg>
