<?xml version="1.0" encoding="utf-8"?>
<!-- Generator: Adobe Illustrator 24.0.1, SVG Export Plug-In . SVG Version: 6.00 Build 0)  -->
<svg version="1.1" id="ic_empty_masternode" xmlns="http://www.w3.org/2000/svg" xmlns:xlink="http://www.w3.org/1999/xlink"
	 x="0px" y="0px" viewBox="0 0 100 100" style="enable-background:new 0 0 100 100;" xml:space="preserve">
<style type="text/css">
	.st0{fill:#E5E5E5;}
	.st1{fill:#2792F4;}
	.st2{fill:#FFFFFF;}
</style>
<circle id="Ellipse_615" class="st0" cx="49.9" cy="15" r="8.4"/>
<circle id="Ellipse_616" class="st0" cx="83.5" cy="78" r="8.4"/>
<circle id="Ellipse_617" class="st0" cx="16.3" cy="78" r="8.4"/>
<path id="Path_18979" class="st1" d="M85.3,68.8c2.3-5,3.5-10.5,3.4-16C88.6,35,76.6,19.6,59.3,15.2c0-0.1,0-0.1,0-0.2
	c0-5.2-4.2-9.4-9.4-9.4s-9.4,4.2-9.4,9.4c0,0.1,0,0.1,0,0.2c-20.8,5.2-33.4,26.2-28.3,47c0.6,2.3,1.3,4.5,2.3,6.6
	c-5.1,1-8.5,5.9-7.5,11s5.9,8.5,11,7.5c2.9-0.5,5.3-2.4,6.6-5c14.5,12.5,35.9,12.5,50.5,0c2.4,4.6,8,6.5,12.6,4.1s6.5-8,4.1-12.6
	C90.6,71.2,88.1,69.3,85.3,68.8z M49.9,7.6c4.1,0,7.4,3.3,7.4,7.4s-3.3,7.4-7.4,7.4s-7.4-3.3-7.4-7.4S45.8,7.6,49.9,7.6z M16.3,85.4
	c-4.1,0-7.4-3.3-7.4-7.4s3.3-7.4,7.4-7.4s7.4,3.3,7.4,7.4C23.7,82.1,20.4,85.4,16.3,85.4z M49.9,89.6c-9,0-17.8-3.3-24.5-9.3
	c1.3-5-1.8-10.1-6.8-11.4c-0.6-0.2-1.3-0.3-2-0.3c-8.7-18.3-1-40.3,17.4-49c2.1-1,4.4-1.8,6.7-2.4c1.2,5,6.2,8.2,11.3,7
	c3.5-0.8,6.2-3.5,7-7C75.3,21.4,86.6,36,86.7,52.8c0,5.5-1.2,10.9-3.6,15.8c-5.2,0.2-9.2,4.5-9,9.7c0,0.7,0.1,1.3,0.3,2
	C67.7,86.3,59,89.6,49.9,89.6z M83.5,85.4c-4.1,0-7.4-3.3-7.4-7.4s3.3-7.4,7.4-7.4s7.4,3.3,7.4,7.4S87.6,85.4,83.5,85.4z"/>
<g>
	<circle class="st1" cx="50" cy="53.6" r="27.6"/>
	<g>
		<path class="st2" d="M59.1,52.9c-1.7,0-3.2,0.7-4.2,1.8c-0.2,0.2-0.5,0.2-0.7,0.1l-3-1.7C51.1,53,51,52.8,51,52.5v-3.4
			c0-0.3,0.2-0.5,0.5-0.6c2.6-0.7,4.4-3,4.4-5.6c0-3.2-2.6-5.8-5.8-5.8c-3.3,0-5.9,2.6-5.9,5.8c0,2.8,1.9,5,4.4,5.6
			c0.3,0.1,0.5,0.3,0.5,0.6v3.4c0,0.2-0.1,0.5-0.3,0.6l-2.9,1.7c-0.2,0.1-0.5,0.1-0.7-0.1c-1.1-1.1-2.6-1.8-4.2-1.8
			c-3.2,0-5.8,2.7-5.8,5.8c0,3.2,2.6,5.8,5.8,5.8c3.3,0,5.8-2.6,5.8-5.8c0-0.6-0.1-1.1-0.2-1.6c-0.1-0.3,0-0.6,0.3-0.7l3-1.7
			c0.2-0.1,0.5-0.1,0.7,0l2.9,1.7c0.2,0.1,0.4,0.4,0.3,0.7c-0.1,0.5-0.2,1.1-0.2,1.6c0,3.2,2.7,5.8,5.8,5.8c3.3,0,5.8-2.6,5.8-5.8
			C65,55.7,62.4,53,59.1,52.9z"/>
		<path class="st2" d="M48.1,61.5c-1.1,3-3.9,5-7.2,5c-4.2,0-7.7-3.5-7.7-7.7s3.5-7.7,7.7-7.7c2,0,3.7,0.8,5.1,2l1.4-0.7l0.1-2
			c-1.9-1.5-4.1-2.3-6.6-2.3c-5.9,0-10.8,4.8-10.8,10.8S35,69.7,40.9,69.7c3.7,0,6.8-1.8,8.8-4.5C48.9,64,48.4,62.8,48.1,61.5z"/>
		<path class="st2" d="M50,32.2c-5.9,0-10.8,4.8-10.8,10.8c0,1.6,0.4,3.1,1,4.4c0.2,0,0.5,0,0.7,0c1.1,0,2.2,0.2,3.2,0.5
			c-1.1-1.3-1.8-3.1-1.8-4.9c0-4.2,3.5-7.7,7.7-7.7s7.7,3.5,7.7,7.7c0,3.5-2.3,6.3-5.4,7.3v1.9l1.5,0.9c4-1.6,6.9-5.4,6.9-10.1
			C60.7,37,55.9,32.2,50,32.2z"/>
		<path class="st2" d="M60.1,48.1c-0.6,1.2-1.4,2.3-2.3,3.2c0.4-0.1,0.9-0.1,1.3-0.1c4.2,0,7.7,3.5,7.7,7.7s-3.5,7.7-7.7,7.7
			s-7.7-3.5-7.7-7.7c0-0.5,0.1-1.1,0.2-1.6l-1.5-0.7l-1.6,0.7c-0.1,0.5-0.1,1-0.1,1.6c0,5.9,4.8,10.8,10.8,10.8S70,64.8,70,58.8
			C69.8,53.2,65.6,48.6,60.1,48.1z"/>
	</g>
	<path class="st2" d="M50,27.1c-14.6,0-26.4,11.8-26.4,26.4S35.4,79.9,50,79.9s26.4-11.8,26.4-26.4S64.6,27.1,50,27.1z M50,76.7
		c-12.7,0-23.1-10.4-23.1-23.1S37.2,30.5,50,30.5s23.1,10.4,23.1,23.1S62.7,76.7,50,76.7z"/>
	<path class="st2" d="M50,30.9c-12.5,0-22.7,10.2-22.7,22.7S37.4,76.3,50,76.3s22.7-10.2,22.7-22.7S62.5,30.9,50,30.9z M50,75.7
		c-12.2,0-22.1-9.9-22.1-22.1S37.7,31.5,50,31.5s22.1,9.9,22.1,22.1S62.2,75.7,50,75.7z"/>
</g>
</svg>
