<?xml version="1.0" encoding="utf-8"?>
<!-- Generator: Adobe Illustrator 24.0.2, SVG Export Plug-In . SVG Version: 6.00 Build 0)  -->
<svg version="1.1" id="Capa_1" xmlns="http://www.w3.org/2000/svg" xmlns:xlink="http://www.w3.org/1999/xlink" x="0px" y="0px"
	 viewBox="0 0 100 100" style="enable-background:new 0 0 100 100;" xml:space="preserve">
<style type="text/css">
	.st0{fill:#7F7F7F;}
	.st1{fill:#565656;}
	.st2{fill:#B7B7B7;}
	.st3{fill:#FFFFFF;}
</style>
<path class="st0" d="M49.7,61.4l-10.5-5.7V45.1l10.5,5.7V61.4z"/>
<path class="st1" d="M49.7,61.4l10.5-5.7V45.1l-10.5,5.7V61.4z"/>
<path class="st2" d="M39.2,45.1l10.5-6l10.5,6l-10.5,5.7L39.2,45.1z"/>
<path class="st0" d="M16.8,42.1L6.2,36.3V25.8l10.5,5.7V42.1z"/>
<path class="st1" d="M16.8,42.1l10.5-5.7V25.8l-10.5,5.7L16.8,42.1z"/>
<path class="st2" d="M6.2,25.8l10.5-6l10.5,6l-10.5,5.7L6.2,25.8z"/>
<path class="st0" d="M16.8,80.3L6.2,74.5V64l10.5,5.7V80.3z"/>
<path class="st1" d="M16.8,80.3l10.5-5.7V64l-10.5,5.7L16.8,80.3z"/>
<path class="st2" d="M6.2,64l10.5-6l10.5,6l-10.5,5.7L6.2,64z"/>
<path class="st0" d="M82.6,42.1l-10.5-5.7V25.8l10.5,5.7V42.1z"/>
<path class="st1" d="M82.6,42.1l10.5-5.7V25.8l-10.5,5.7V42.1z"/>
<path class="st2" d="M72.1,25.8l10.5-6l10.5,6l-10.5,5.7L72.1,25.8z"/>
<path class="st0" d="M82.6,80.3l-10.5-5.7V64l10.5,5.7V80.3z"/>
<path class="st1" d="M82.6,80.3l10.5-5.7V64l-10.5,5.7V80.3z"/>
<path class="st2" d="M72.1,64l10.5-6l10.5,6l-10.5,5.7L72.1,64z"/>
<path class="st0" d="M49.7,28l-10.5-5.8V11.8l10.5,5.8V28z"/>
<path class="st1" d="M49.7,28l10.5-5.8V11.8l-10.5,5.8V28z"/>
<path class="st2" d="M39.2,11.8l10.5-6l10.5,6l-10.5,5.8L39.2,11.8z"/>
<path class="st0" d="M49.7,95.2l-10.5-5.8V78.9l10.5,5.8V95.2z"/>
<path class="st1" d="M49.7,95.2l10.5-5.8V78.9l-10.5,5.8V95.2z"/>
<path class="st2" d="M39.2,78.9l10.5-6l10.5,6l-10.5,5.8L39.2,78.9z"/>
<path class="st3" d="M93.8,37.4c0.4-0.2,0.7-0.6,0.7-1.1V25.8c0-0.7-0.6-1.3-1.3-1.3c-0.2,0-0.4,0.1-0.6,0.1l-9.9,5.4L75,25.9
	l-0.3-0.2l8.6-4.9c0.6-0.3,0.8-1.1,0.5-1.7c-0.3-0.6-1.1-0.8-1.7-0.5l-10.5,6c-0.4,0.2-0.6,0.6-0.6,1.1v2.6l-9.4-5.9
	c0-0.1,0-0.1,0-0.2V11.8c0-0.5-0.2-0.9-0.6-1.1l-10.5-6c-0.4-0.2-0.9-0.2-1.3,0l-10.5,6c-0.4,0.2-0.6,0.6-0.6,1.1v10.5
	c0,0.1,0,0.1,0,0.2l-9.4,5.9v-2.6c0-0.5-0.2-0.9-0.6-1.1l-10.5-6c-0.4-0.2-0.9-0.2-1.3,0l-10.5,6C5.2,24.9,5,25.3,5,25.8v10.5
	c0,0.5,0.3,0.9,0.7,1.1l9.9,5.4v14.4l-9.9,5.7C5.2,63.1,5,63.6,5,64v3.9c0,0.7,0.6,1.3,1.3,1.3c0.7,0,1.3-0.6,1.3-1.3v-1.8l8,4.4
	v7.7l-8.7-4.7c-0.6-0.3-1.4-0.1-1.7,0.5c-0.3,0.6-0.1,1.4,0.5,1.7c0,0,0,0,0,0l10.5,5.7c0.4,0.2,0.8,0.2,1.2,0l8.9-4.9l11.6,7.7v5.2
	c0,0.5,0.3,0.9,0.7,1.1l10.5,5.7c0.4,0.2,0.8,0.2,1.2,0l10.5-5.8c0.4-0.2,0.7-0.6,0.7-1.1v-5.2l11.6-7.7l8.9,4.9
	c0.4,0.2,0.8,0.2,1.2,0l10.5-5.7c0.4-0.2,0.7-0.6,0.7-1.1V64c0-0.4-0.2-0.9-0.6-1.1l-9.9-5.7V42.8L93.8,37.4z M57.3,79.1l-7.6,4.2
	l-7.6-4.2l-0.3-0.2l8-4.6l8,4.6L57.3,79.1z M8.8,64l8-4.6l8,4.6l-0.3,0.2l-7.6,4.2l-7.6-4.2L8.8,64z M26,35.6l-8,4.4v-7.7l8-4.4
	V35.6z M27.2,62.5L18,57.2V42.8l8.4-4.6l11.5,7.5V55L27.2,62.5z M40.4,21.5v-7.7l8,4.4v7.7L40.4,21.5z M59,21.5l-8,4.4v-7.7l8-4.4
	V21.5z M49.7,40.5l8,4.6l-0.3,0.2l-7.6,4.2l-7.6-4.2L41.7,45L49.7,40.5z M40.4,47.2l8,4.4v7.7l-8-4.4V47.2z M51,51.6l8-4.4v7.7
	l-8,4.4V51.6z M61.5,45.8L73,38.3l8.4,4.6v14.4l-9.2,5.3L61.5,55V45.8z M81.4,32.3v7.7l-8-4.4v-7.7L81.4,32.3z M73.4,73.8v-7.7
	l8,4.4v7.7L73.4,73.8z M90.3,64.2l-7.6,4.2L75,64.2L74.7,64l8-4.6l8,4.6L90.3,64.2z M83.9,39.9v-7.7l8-4.4v7.7L83.9,39.9z
	 M70.9,36.6l-10.7,7L51,38.3v-9.5l8.5-4.6l11.4,7.2v5C70.8,36.4,70.8,36.5,70.9,36.6L70.9,36.6z M49.7,7.2l8,4.6L50,15.9l-0.3,0.2
	l-0.3-0.2l-7.6-4.2L49.7,7.2z M40,24.2l8.5,4.6v9.5l-9.2,5.3l-10.7-7c0-0.1,0-0.2,0-0.3v-5L40,24.2z M16.8,21.2l8,4.6l-0.3,0.2
	l-7.6,4.2l-7.6-4.2l-0.3-0.2L16.8,21.2z M7.5,27.9l8,4.4v7.7l-8-4.4L7.5,27.9z M18,70.5l8-4.4v7.7l-8,4.4V70.5z M28.5,74.9
	c0-0.1,0.1-0.3,0.1-0.4v-9.9l10.7-7.5l9.2,5v10.1l-9.9,5.7c-0.4,0.2-0.6,0.6-0.6,1.1v2.3L28.5,74.9z M40.4,83.6v-2.5l8,4.4v7.7
	l-8-4.4V83.6z M51,93.1v-7.7l8-4.4v7.7L51,93.1z M61.5,78.9c0-0.5-0.2-0.9-0.6-1.1L51,72.2V62.1l9.2-5l10.7,7.5v9.9
	c0,0.1,0,0.3,0.1,0.4l-9.4,6.3L61.5,78.9z M83.9,78.2v-7.7l8-4.4v7.7L83.9,78.2z"/>
<path class="st3" d="M86.5,23.4l1.4,0.8c0.6,0.3,1.4,0.1,1.7-0.5c0.3-0.6,0.1-1.4-0.5-1.7l-1.4-0.8c-0.6-0.3-1.4-0.1-1.7,0.5
	C85.7,22.3,85.9,23.1,86.5,23.4z"/>
</svg>
