<?xml version="1.0" encoding="utf-8"?>
<!-- Generator: Adobe Illustrator 24.0.2, SVG Export Plug-In . SVG Version: 6.00 Build 0)  -->
<svg version="1.1" id="ic_empty_zpiv" xmlns="http://www.w3.org/2000/svg" xmlns:xlink="http://www.w3.org/1999/xlink" x="0px"
	 y="0px" viewBox="0 0 100 100" style="enable-background:new 0 0 100 100;" xml:space="preserve">
<style type="text/css">
	.st0{fill:#CB985C;}
	.st1{fill:#C59459;}
	.st2{fill:#B38045;}
	.st3{fill:#C18E52;}
	.st4{fill:#B28045;}
	.st5{fill:#FDCB9F;}
	.st6{fill:#E8B289;}
	.st7{fill:#E8B28A;}
	.st8{fill:#E7B289;}
	.st9{fill:#666666;}
	.st10{fill:#696867;}
	.st11{fill:#A3753F;}
	.st12{fill:#A2753F;}
	.st13{fill:#B27F45;}
	.st14{fill:#AD7B43;}
	.st15{fill:#9F733F;}
	.st16{fill:#90DAF5;}
	.st17{fill:#5A5B5B;}
	.st18{fill:#F5C59C;}
	.st19{fill:#FCCA9F;}
	.st20{fill:#5F5F5F;}
	.st21{fill:#91D8F2;}
	.st22{fill:#E4E4E4;}
	.st23{fill:#CACACA;}
	.st24{fill:#91DAF5;}
	.st25{fill:#72D0EB;}
	.st26{fill:#068FFF;}
	.st27{fill:#06DAF7;}
	.st28{fill:#FFFFFF;}
	.st29{fill:#284CB2;}
	.st30{fill:#A6F9FF;}
</style>
<g>
	<g>
		<path class="st0" d="M49.1,6c0.8,0,1.7,0,2.5,0c0.3,0.2,0.6,0,0.8,0.1c1.3,0.1,2.4,0.6,3,1.8c-0.1,0.3-0.3,0.5-0.5,0.7
			c-1.8,1.8-3.6,3.6-5.4,5.4c-0.3,0.3-0.5,0.6-0.9,0.6c-3.7,0-7.4,0.1-11.1,0c-0.3-0.1-0.5-0.2-0.3-0.5c0.1-0.1,0.1-0.2,0.2-0.3
			c1.8-1.8,3.7-3.6,5.4-5.5c0.6-0.4,1-0.9,1.5-1.4c0.2,0,0.3,0,0.4,0.1c1.5,1.4,1.5,1.4,3-0.1C48.2,6.6,48.5,6.1,49.1,6z"/>
		<path class="st0" d="M32.1,14.4c0.1-1.4-0.2-2.8,0.2-4.2c0.5-2,1.8-3.3,3.7-4c0.2-0.1,0.4-0.1,0.6-0.3c2,0,4,0,6,0
			c0.1,0.3-0.1,0.4-0.3,0.6c-0.6,0.5-1.2,1.1-1.7,1.7c-1.9,1.9-3.8,3.8-5.6,5.6c-0.3,0.3-0.5,0.6-0.9,0.7
			C33.3,14.7,32.7,14.7,32.1,14.4C32.1,14.5,32.1,14.5,32.1,14.4z"/>
		<path class="st1" d="M40.3,8.1c0.6-0.9,1.5-1.4,2.2-2.2c0.3,0,0.6,0,0.8,0c0.5,0.2,1,0.3,1,1c-0.2,0.7-0.8,1-1.3,1.5
			c-0.6-0.1-1.1-0.1-1.7-0.1C40.9,8.4,40.6,8.4,40.3,8.1z"/>
		<path class="st2" d="M55.4,8c-0.7-1-1.8-1.6-3-1.8c-0.1,0-0.1-0.1-0.1-0.1c0,0,0-0.1,0.1-0.1c1.1,0,2.2,0,3.3,0
			c0.4,0.2,0.9,0,1.2,0.4c-0.2,0.7-0.9,1-1.3,1.6C55.6,8,55.5,8,55.4,8z"/>
		<path class="st3" d="M52.4,6c0,0.1,0,0.1,0,0.2c-0.3,0-0.6,0.1-0.8-0.2C51.9,6,52.2,6,52.4,6z"/>
		<path class="st0" d="M23.9,62.6c1.4-0.3,2.8,0,4.2-0.1c0.3,0,0.6,0.2,0.7-0.2c0.1-0.2-0.1-0.5-0.3-0.7c-1.3-1.7-2.5-3.3-3.8-5
			c-0.1-0.1-0.1-0.1,0-0.2c0.8-1.1,1.9-1.9,2.8-2.9c1.3-1.4,2.7-2.7,4.1-4.1c0.2-0.2,0.4-0.3,0.3-0.6c0.3-0.3,0.7-0.2,1-0.3
			c0.6-0.1,1.2-0.3,1.9-0.3c0.1,0,0.2,0,0.2,0.1c0.9,0.9,1.8,1.8,2.7,2.7c0.1,0.1,0.1,0.2,0.2,0.4c0.1,1.2,0.1,2.4,0,3.6
			c0,0.1,0,0.3-0.1,0.4c-0.1,0.3-0.3,0.5-0.6,0.7c-4.1,4.1-8.2,8.2-12.4,12.3c-0.3,0.3-0.5,0.6-1,0.5c-0.5-0.7-0.2-1.2,0.3-1.8
			c1.2-1.2,2.3-2.3,3.5-3.5c0.3-0.3,0.6-0.6,0.9-1c0.1,0-0.1-0.1,0,0c0,0,0,0.1,0,0.1c-1.1,0.3-2.3,0.1-3.4,0.1
			C24.7,62.8,24.3,62.9,23.9,62.6z"/>
		<path class="st4" d="M23.9,62.6c1.6,0,3.2,0,4.8,0c0.1,0.5-0.2,0.7-0.5,0.9c-1.3,1.3-2.6,2.6-3.9,3.9c-0.5,0.5-0.6,0.9-0.3,1.5
			c0.1,0.1,0.1,0.1,0,0.2c-0.2,0.3-0.5,0.6-0.7,0.8c-3,3-5.9,6-8.9,8.9c-0.6,0.6-0.9,1.2-0.8,2c0.1,0.7,0,1.4,0.1,2.1c0,2,0,4,0,5.9
			c0,0.4,0.1,0.8-0.3,1.1c-0.2-0.5-0.1-1.1-0.1-1.6c0-1.8,0-3.6,0-5.4c-0.4-1-0.4-2.1,0-3.1c0-0.3,0-0.7,0-1
			c0.1-2.2-0.1-4.5,0.2-6.7C14.1,67.1,18.9,62.7,23.9,62.6z"/>
		<path class="st5" d="M33.1,45.2c-0.5-1.6-1-3.2-1-4.9c0-0.4-0.3-0.4-0.6-0.4c-0.7,0-1.4,0-2.1,0c-0.3,0-0.6,0.1-0.9-0.2
			c0.6-0.5,1.3-0.2,2-0.3c1.2,0,1.2,0,1.2-1.3c0-1.2,0-2.4,0-3.6c0-0.1,0-0.2,0-0.3c0.9-1.3,2.1-2.2,3.2-3.3c0.1-0.1,0.4-0.3,0.6,0
			c0.5,2.7,1.8,3,4.1,3c0.7,0,1.3,0.1,2-0.1c1.2-0.3,1.9-1.1,2.1-2.3c0.2-0.5,0-1.1,0.2-1.6c0.1-0.2,0.3-0.3,0.6-0.3c1,0,2,0,3,0
			c0.2,0,0.4,0,0.5,0.2c0.1,0.2-0.1,0.4-0.2,0.6c-0.2,0.2-0.4,0.4-0.6,0.7c-4.3,4.3-8.6,8.6-12.9,12.9c-0.4,0.4-0.8,0.8-1.1,1.2
			C33.1,45.4,33,45.4,33.1,45.2z"/>
		<path class="st0" d="M27.1,24.4c-1.1,0-2.1,0-3.2,0c-1.8-0.1-2.9-1-3.1-2.4c-0.3-1.7,0.8-3,2.7-3.3c1.9-0.1,3.9,0,5.8,0
			c0.2,0,0.4,0.1,0.3,0.3c-0.1,0.3-0.4,0.5-0.6,0.7c-1.4,1.4-2.8,2.8-4.3,4.3c1,0.1,2,0,2.9,0c1.1,0,2.3,0,3.4,0c0.3,0,0.7,0,1,0.3
			c0,0.1,0,0.1,0,0.2C30.4,24.4,28.8,24.4,27.1,24.4z"/>
		<path class="st6" d="M26.5,36.8c0-1.8,0-3.6,0-5.5c0.2-1.8,1.2-2.7,3-2.7c0.4,0,0.9,0,1.3,0c0.7,1.1,1.8,1,2.9,1
			c0.6,0,1.3-0.1,1.9,0.2c0.1,0.1,0.1,0.2,0,0.3c-0.7,0.4-1.4,0.1-2.1,0.2c-0.6-0.1-1.2-0.1-1.1,0.8c0,0.1,0,0.2-0.1,0.2
			c-1.5,1.7-3.1,3.2-4.7,4.8C27.2,36.4,27,36.8,26.5,36.8z"/>
		<path class="st0" d="M24.8,56.5c-0.5-0.6-1-1.2-1.3-1.8c0.1-0.3,0.3-0.5,0.5-0.7c1.2-1.2,2.4-2.4,3.7-3.7c0.3-0.3,0.5-0.5,0.8-0.6
			c0.1-0.1,0.2-0.1,0.3-0.2c1-0.4,2-0.8,3.1-0.5c0.5,0.1,0.1,0.3,0,0.4c-0.7,0.7-1.5,1.5-2.2,2.2C28.1,53.3,26.4,54.9,24.8,56.5z"/>
		<path class="st0" d="M28.4,49.7c-1.6,1.7-3.2,3.4-5,5c0,0-0.1,0-0.1,0c-0.5-0.7-1-1.3-1.4-2c-0.6-0.8-0.3-1.6,0.6-1.8
			C24.4,50.4,26.4,50.1,28.4,49.7z"/>
		<path class="st5" d="M32.1,27.2c0-0.5,0-1,0-1.5c0.4-0.6,0.8-1.2,1.6-1.5c1.7-0.1,3.3-0.1,5,0c0.3,0.1,0.3,0.4,0.1,0.6
			c-0.9,0.9-1.6,2-2.8,2.6c-1.1,0.1-2.1,0-3.2,0C32.5,27.4,32.3,27.4,32.1,27.2z"/>
		<path class="st7" d="M27.4,39.3c0,0,0-0.1,0-0.1c-0.1-0.3,0.1-0.5,0.3-0.6c1.2-1.3,2.5-2.5,3.7-3.7c0.2-0.2,0.3-0.4,0.6-0.3
			c0,1.5,0,3.1,0,4.6c0,0.5-0.2,0.7-0.7,0.7c-0.9,0-1.9,0-2.8,0C28.1,39.8,27.8,39.5,27.4,39.3z"/>
		<path class="st8" d="M32.1,27.2c1.4,0,2.7,0,4.1,0c1-0.5,2.1-0.2,3.2-0.2c3.9,0,7.8,0,11.7,0c1,0,2.1,0,3.1,0c0.5,0,1.1,0,1.6,0
			c0.7,0,0.9-0.3,0.8-0.9c0-0.5-0.1-1,0.1-1.5c0-0.1,0.1-0.2,0.2-0.2c0.6-0.3,1.3-0.2,2-0.1c0.7,0.4,1.3,0.9,1.6,1.6
			c0.1,0.5,0.2,1.1-0.2,1.6c-1,0.4-2,0.1-3,0.2c-1.2,0-2.3,0-3.5,0c-1.1,0-2.1,0-3.2,0c-3.9,0-7.8,0-11.7,0c-1.1,0-2.1,0-3.2,0
			c-0.9,0-1.9,0-2.8,0c-0.3,0-0.7,0-1-0.3C32.1,27.3,32.1,27.2,32.1,27.2z"/>
		<path class="st9" d="M32.1,27.3c1.3,0,2.5,0,3.8,0.1c-0.5,1.1-1.4,1.8-2.3,2.4c-0.4,0-0.7,0-1.1,0c-0.9,0.1-1.5-0.3-1.8-1.2
			C30.9,27.9,31.2,27.4,32.1,27.3z"/>
		<path class="st10" d="M33.4,24.4c-0.4,0.5-0.8,0.9-1.3,1.3c0-0.4,0-0.9,0-1.3c0,0,0,0,0,0C32.5,24,33,24,33.4,24.4z"/>
		<path class="st6" d="M60.4,39.9c-0.2,3-0.9,5.7-2.7,8.1c-0.1,0.1-0.1,0.2-0.1,0.3c-0.2,0.9-1,1.4-1.6,2c-0.7,0.6-1.1,1.3-1,2.3
			c0,0.2,0,0.3-0.1,0.5c0,0.2-0.1,0.3-0.2,0.4c-2.8,2.9-5.7,5.7-8.5,8.6c-0.6,0.6-1.2,1.3-2,1.9c-0.1,0-0.2,0-0.2,0
			c-1.5-0.8-2.8-1.8-4.1-2.7c-0.8-0.5-1.5-1-2.3-1.5c-0.1-0.4,0-0.7,0-1.1c0-0.1,0-0.2,0.1-0.2c0.3-0.6,0.9-1.1,1.3-1.5
			c1.2-1.2,2.4-2.4,3.5-3.6c0.2-0.1,0.4,0,0.6,0c2.3,0.5,4.5-0.3,6.4-1.4c4.7-2.8,7.1-7,7.2-12.5c0-0.1,0-0.2,0.1-0.2
			c1-1.3,2.3-2.3,3.4-3.5c0.1-0.1,0.2,0,0.2,0c0.1,0.1,0.1,0.1,0.2,0.2c0.2,1.1,0.1,2.2,0.1,3.3C60.6,39.5,60.5,39.7,60.4,39.9z"/>
		<path class="st5" d="M65.7,30.3c0.1,0,0.1,0,0.2,0c0.3,2.4,0.2,4.7,0.1,7.1c0,1.3-1.3,2.5-2.7,2.5c-1,0-1.9,0-2.9,0
			c0-1.4,0-2.8,0-4.1c0,0,0-0.1,0-0.1c1.1-1.3,2.3-2.4,3.5-3.6C64.5,31.5,65.1,30.9,65.7,30.3z"/>
		<path class="st0" d="M59.4,48.7c0.1,0.1,0.1,0.1,0.2,0.2c-1.4,1.1-2.6,2.5-3.9,3.7c-0.3,0.2-0.5,0.6-0.8,0.6c0,0-0.1,0-0.1,0
			c-0.2-1.3,0.1-2.4,1.3-3.2c0.6-0.4,1-1,1.5-1.6C58.2,48.5,58.8,48.7,59.4,48.7z"/>
		<path class="st0" d="M61.7,49.2c0.1,0,0.2,0,0.3,0c2.4,0.5,4.8,1,7.1,1.5c0.7,0.1,1.5,0.2,1.7,1.1c0.1,0.2,0.1,0.4,0,0.6
			c-4.7,4.6-9.4,9.4-14.1,14c-0.3,0.3-0.5,0.8-1,0.6c-0.1-0.6,0.2-1.1,0.4-1.6c0.2-0.6,0.5-1.2,0.7-1.8c0.3-0.8,0.2-1.4-0.4-2
			c-0.6-0.6-1.3-1.2-1.8-1.9c0-0.1-0.1-0.2-0.1-0.3c0-0.9,0-1.9,0-2.8c0-0.1,0-0.2,0-0.3c0-0.1,0.1-0.2,0.2-0.3
			C57,53.8,59.3,51.5,61.7,49.2z"/>
		<path class="st4" d="M65.5,62.5c0.7,0,1.4,0,2.2,0c0,0.1,0,0.2,0,0.2c-0.3,0.2-0.6,0-0.9,0c1.9,0.3,3.6,1.2,5,2.5
			c0.1,0.1,0.3,0.3,0.3,0.5c0,0.3-0.2,0.5-0.4,0.7c-1.1,1.1-2.1,2.1-3.2,3.2c-0.2,0.2-0.4,0.4-0.7,0.3c-0.2-0.6,0.4-0.9,0.4-1.4
			c0-0.5-0.4-0.8-0.7-1.2c-1.2-1.3-2.5-2.4-3.6-3.7c-0.1-0.1-0.2-0.2-0.3-0.3c-0.1-0.2-0.3-0.4-0.2-0.6c0.1-0.3,0.4-0.2,0.6-0.2
			C64.5,62.5,65,62.6,65.5,62.5z"/>
		<path class="st0" d="M65.5,62.5c-0.4,0.3-0.9,0.1-1.3,0.1c-0.2,0-0.5-0.1-0.6,0.1c-0.1,0.2,0.2,0.4,0.3,0.5
			c0.1,0.1,0.2,0.2,0.2,0.3c-1.9,1.5-3.5,3.3-5.2,5c-1.4,1.4-2.9,2.8-4.3,4.3c-0.4,0.4-0.9,0.5-1.4,0c-0.1-0.4,0-0.6,0.3-0.9
			c0.3-0.1,0.5-0.4,0.8-0.6c2.6-2.6,5.3-5.3,7.9-7.9c0.4-0.4,0.7-1,1.2-1.4c0,0.1,0,0.3,0.2,0.3C64.3,62.4,64.9,62.5,65.5,62.5z"/>
		<path class="st11" d="M72,65.7c-1.5-1.7-3.5-2.5-5.6-3.1c0.2-0.2,0.4-0.1,0.6-0.1c0.2,0,0.4,0,0.7,0c0.4-0.1,0.8-0.1,1.2,0
			c1.7,0.1,3.2,0.8,4.7,1.5c0,0,0,0.1,0,0.1c-0.3,0.7-0.9,1.1-1.4,1.5C72.1,65.8,72,65.8,72,65.7z"/>
		<path class="st4" d="M66.2,18.7c0.9,0,1.9,0,2.8,0c1.6,0.2,2.3,1,2.7,2.7c-0.1,0.3,0.1,0.6-0.2,0.9c-0.1-0.1-0.2-0.3-0.5-0.1
			c-0.5,0.5-1.1,1.1-1.6,1.6c-0.3,0.2,0,0.3,0.1,0.4c-0.3,0.2-0.6,0.1-0.9,0.2c-0.7,0.3-1.5,0.2-2.3,0.1c-0.5-0.5,0.1-0.6,0.3-0.7
			c0.8-0.6,1.3-1.3,1.3-2.3c0-1-0.4-1.7-1.2-2.2C66.5,19.2,66.1,19.1,66.2,18.7z"/>
		<path class="st12" d="M76.9,90.7c-0.5,0-1,0-1.5,0c-0.2-0.2-0.3-0.5-0.3-0.8c0-3.1-0.1-6.1,0-9.2c0-0.2,0-0.3,0.1-0.4
			c0.8-0.9,1.7-1.7,2.6-2.6c0.4-0.4,0.7-0.9,0.6-1.5c0-0.7,0-1.5,0-2.2c0-0.5-0.1-1,0.3-1.4c0.2,0.4,0.1,0.8,0.2,1.2
			c0.4,1.1,0.3,2.1,0,3.2c0,3.9,0,7.8,0,11.7c0.2,0.2,0.2,0.4,0.2,0.6c0,0.3,0,0.6-0.2,0.9c-0.5-0.1-0.2-0.5-0.4-0.8
			C77.9,89.7,77.6,90.5,76.9,90.7z"/>
		<path class="st12" d="M78.8,72.5c0,0.5,0,1,0,1.5c-0.8,1.2-1.9,2-2.9,3c-0.2,0.2-0.4,0.3-0.6,0c-0.2-0.8-0.1-1.6-0.1-2.5
			c0.1-2.4-0.5-4.7-1.7-6.8c0-0.1,0-0.2,0-0.3c0.3-0.9,1-1.4,1.8-1.9c0.1,0,0.1,0,0.2,0c1.6,1.6,2.7,3.5,3.2,5.8
			C78.7,71.7,78.7,72.1,78.8,72.5z"/>
		<path class="st13" d="M73.6,67.6c1.6,2.4,2,5.2,1.8,8c0,0.5,0,1,0,1.6c0,0,0.1,0.1,0.1,0.1c0,0.1,0,0.1,0,0.1
			c-0.1,0.3-0.4,0.5-0.6,0.7c-2.8,2.8-5.5,5.5-8.3,8.3c-0.3,0.3-0.6,0.6-0.9,0.8c-0.3,0.2-0.5,0.5-0.7,0.8c-0.1,0.1-0.1,0.2-0.2,0.3
			c-0.8,0.8-1.7,1.6-2.4,2.5c-2.5,0-5.1,0-7.6,0c-0.2-0.4,0.1-0.6,0.2-0.9c2.1-3.4,4.3-6.8,6.4-10.2c0.5-0.5,0.6-1.2,1.2-1.7
			c0.3-0.1,0.5-0.4,0.8-0.6c3.1-3.1,6.2-6.2,9.3-9.3C72.9,67.8,73.1,67.3,73.6,67.6z"/>
		<path class="st0" d="M53.4,72.9c0.6,0.3,1,0.2,1.4-0.4c0.7-0.9,1.5-1.6,2.3-2.4c0.9-0.9,1.8-1.8,2.6-2.6c0.8-0.8,1.7-1.6,2.5-2.4
			c0.4-0.4,0.7-0.9,1.2-1.2c0.2-0.1,0.4-0.3,0.7-0.2c1.2,1.3,2.5,2.5,3.7,3.8c0.3,0.3,0.7,0.7,0.6,1.2c-0.4,0.1-0.8,0.2-1,0.7
			c-0.2,0.5-0.8,0.7-1.1,1.1c-1.8,1.8-3.5,3.6-5.3,5.3c-4,4-7.9,7.9-11.9,11.9c-1,1-1.8,2-2.5,3.1c-3,0-6,0-9,0
			c-0.5-0.4-0.8-0.8-0.9-1.5c0-0.3,0.2-0.4,0.4-0.6c1.8-1.8,3.6-3.6,5.4-5.4c0.1-0.1,0.3-0.3,0.5-0.3c0.1,0,0.2,0,0.2,0.1
			c0.9,2,1.6,4,2.5,6c0.1,0.3,0.2,0.6,0.4,1c0.3-0.2,0.3-0.5,0.4-0.8c2.1-5.1,4.1-10.3,6.2-15.4c0.1-0.3,0.2-0.7,0.5-1
			C53.3,72.8,53.3,72.8,53.4,72.9z"/>
		<path class="st13" d="M13.5,90c0-2.4,0-4.9,0-7.3c0.2-0.3,0.4-0.6,0.7-0.9c3.4-3.4,6.7-6.7,10.1-10.1c0.3-0.3,0.5-0.6,0.9-0.7
			c0.1,0,0.2,0,0.2,0c0.7,0.8,1.2,1.8,1.8,2.7c0.9,1.4,1.8,2.8,2.6,4.2C30,78,30,78.2,30,78.3c-2.7,2.7-5.4,5.4-8.1,8
			c-0.3,0.3-0.6,0.6-0.9,0.8c-0.3,0.2-0.6,0.4-0.7,0.8c-0.1,0.1-0.1,0.2-0.2,0.3c-0.8,0.8-1.7,1.6-2.4,2.5c-1,0-2.1,0-3.1,0
			C14,90.7,13.6,90.6,13.5,90z"/>
		<path class="st4" d="M32.6,90.7c-4.1,0-8.2,0-12.2,0c-0.1-0.3,0.1-0.4,0.3-0.5c0.8-0.6,1.4-1.3,2.1-2c2.7-2.7,5.5-5.4,8.2-8.2
			c0.1,0,0.2,0,0.2,0c1.2,1.6,2.2,3.4,3.3,5.2c0.4,0.6,0.9,1.3,1.2,2c0,0.1,0,0.2,0,0.2C34.8,88.6,33.5,89.5,32.6,90.7z"/>
		<path class="st13" d="M75.4,80.5c0,3.4,0,6.8,0,10.2c-3.4,0-6.8,0-10.3,0c-0.2-0.3,0.1-0.5,0.3-0.7c0.6-0.5,1.2-1.1,1.8-1.7
			c2.4-2.4,4.9-4.9,7.3-7.3C74.8,80.8,75,80.4,75.4,80.5z"/>
		<path class="st0" d="M46.6,90.7c0.1-1,0.8-1.6,1.4-2.2c6.1-6.2,12.3-12.4,18.5-18.5c0.4-0.4,0.8-0.6,1-1.2c0.1-0.4,0.6-0.5,1-0.2
			c-0.2,0.5-0.6,0.8-0.7,1.3c-0.1,0.5-0.4,0.8-0.7,1.1c-0.5,0.4-0.9,0.8-1.3,1.3c-4.7,4.7-9.4,9.4-14.1,14.1
			c-0.3,0.3-0.6,0.6-0.9,0.8c-0.3,0.2-0.6,0.4-0.7,0.8c-0.1,0.2-0.2,0.3-0.4,0.4c-0.7,0.8-1.6,1.4-2,2.3
			C47.3,90.7,47,90.7,46.6,90.7z"/>
		<path class="st0" d="M61.5,79.7c-1.6,2.7-3.3,5.3-4.9,8c-0.6,1-1.3,2-1.9,3.1c-1.5,0-3.1,0-4.6,0c0-0.5,0.3-0.7,0.6-0.9
			c0.6-0.5,1.1-1,1.6-1.5c2.8-2.7,5.5-5.5,8.3-8.3c0.2-0.2,0.4-0.7,0.9-0.5C61.6,79.5,61.6,79.6,61.5,79.7
			C61.6,79.6,61.5,79.6,61.5,79.7z"/>
		<path class="st4" d="M32.6,90.7c-0.1-0.1-0.1-0.2,0-0.4c1-1,2-2,3-3.1c0.7,0.5,1,1.2,1.2,2c-0.2,0.8-0.9,1.1-1.4,1.5
			C34.4,90.7,33.5,90.7,32.6,90.7z"/>
		<path class="st14" d="M67.3,88.4c-0.5,0.7-1.1,1.3-1.8,1.8c-0.2,0.1-0.4,0.2-0.4,0.5c-0.9,0-1.9,0-2.8,0c-0.1-0.2-0.1-0.3,0-0.4
			c0.8-0.7,1.5-1.5,2.3-2.2c0.6,0.1,1.2,0.1,1.8,0.1C66.8,88.2,67.1,88.2,67.3,88.4z"/>
		<path class="st14" d="M22.8,88.3c-0.7,0.9-1.6,1.7-2.5,2.5c-0.9,0-1.8,0-2.7,0c-0.1-0.4,0.2-0.6,0.5-0.9c0.6-0.6,1.2-1.2,1.8-1.7
			C20.9,88.3,21.9,88,22.8,88.3z"/>
		<path class="st1" d="M52.4,88.4c-0.6,0.9-1.7,1.4-2.3,2.3c-0.8,0-1.7,0-2.5,0c-0.2-0.3,0-0.5,0.2-0.7c0.6-0.6,1.2-1.2,1.8-1.7
			C50.5,88.4,51.5,88.2,52.4,88.4z"/>
		<path class="st15" d="M78.8,90.1c0,0.3-0.3,0.4-0.5,0.6c-0.4,0-0.9,0-1.3,0c0.5-0.6,1-1.3,1.8-2C78.8,89.3,78.8,89.7,78.8,90.1z"
			/>
		<path class="st4" d="M35.4,90.7c0.3-0.7,1-0.8,1.3-1.5c0.1-0.1,0.1-0.1,0.2,0c0.1,0.6,0.6,0.9,0.8,1.5
			C36.9,90.7,36.1,90.7,35.4,90.7z"/>
		<path class="st16" d="M60.4,17.9c0,0.3,0,0.5,0,0.8c-0.3,0.4-0.7,0.3-1,0.3c-3.9,0-7.8,0-11.7,0c-1.1,0-2.1,0-3.2,0
			c-3.9,0-7.8,0-11.7,0c-0.3-0.1-0.6,0-0.7-0.3c0,0,0-0.1,0-0.1c0.3-0.3,0.6-0.2,1-0.2c3.5,0,6.9,0,10.4,0c0.8,0,1.4-0.2,1.9-0.8
			c0.8-0.9,1.8-1.7,2.7-2.7c-3.8,0-7.5,0-11.3,0c-1,0-2.1,0-3.1,0c-0.6-0.1-1.2,0.2-1.7-0.3c0-0.1,0-0.1,0-0.2c0.7,0,1.3,0,2,0
			c1-0.4,2.1-0.4,3.1,0c3.9,0,7.8,0,11.8,0c1-0.5,2.1-0.2,3.1-0.2c1.5,0.1,3.1-0.1,4.6,0.1c0.1,0,0.2,0.1,0.3,0.2
			c0,0.1,0,0.2-0.1,0.3c-0.9,0.3-1.8,0.2-2.6,0.1c-1.7-0.2-2.9,0.3-3.9,1.7c-0.5,0.6-1.2,1.1-1.8,1.9c2.9,0,5.7,0,8.5,0
			c0.7,0,1.5,0,2.2,0c0.6,0,0.8-0.2,0.8-0.8c0-1-0.2-2,0.1-3c0.1-0.1,0.1-0.1,0.2-0.1c0,1,0,2.1,0,3.1
			C60.5,17.7,60.5,17.8,60.4,17.9z"/>
		<path class="st0" d="M37.2,14.4c-1,0-2.1,0-3.1,0c2-2.2,4.1-4.3,6.3-6.3c0.6,0,1.3,0,1.9,0c0.3,0,0.6,0,0.8,0.3
			C41.1,10.4,39.1,12.4,37.2,14.4z"/>
		<path class="st0" d="M52.1,14.4c-1,0-2.1,0-3.1,0c2.1-2.2,4.2-4.4,6.5-6.4c0.1,0,0.1,0,0.2,0c0.7,0.4,0.9,1.1,1.1,1.8
			c0,0.1,0,0.2-0.1,0.2C55.2,11.5,53.8,13.1,52.1,14.4z"/>
		<path class="st4" d="M56.6,10c0-0.1,0-0.1,0-0.2c0.5-0.9,1.3-1.5,2-2.2c0.1,0.1,0.2,0.1,0.3,0.2c1.2,1.5,1.6,3.2,1.5,5.1
			c0,0.5,0,1,0,1.6c-0.1,0-0.1,0-0.1,0c-1.1,0.3-2.2,0.4-3.3,0l0-0.1c-0.1-0.1-0.2-0.3-0.2-0.4C56.7,12.6,56.6,11.3,56.6,10z"/>
		<path class="st4" d="M58.6,7.6c-0.4,1-1.3,1.5-2,2.2c-0.2-0.7-0.7-1.2-1-1.8c0.2-0.7,0.8-1,1.3-1.5C57.6,6.7,58.1,7.1,58.6,7.6z"
			/>
		<path class="st5" d="M34,47.2c0-0.1,0-0.1,0-0.2c0.9-1,2-2,3-3c3.6-3.6,7.1-7.1,10.7-10.7c0.3-0.3,0.5-0.7,1.1-0.6
			c0.9,1.1,2.2,1.4,3.6,1.3c0.7,0,1.4,0.1,2.1-0.1c0.9-0.2,1.5-0.8,1.9-1.6c0.1-0.2,0.1-0.6,0.5-0.5c0.3,0.5,0.2,1.1,0.2,1.7
			c0,0.8,0,1.6,0,2.4c0,0.1,0,0.2,0,0.3c-0.1,0.4-0.4,0.6-0.7,0.8C51.4,42,46.3,47.1,41.2,52.1c-0.3,0.3-0.5,0.6-0.9,0.7
			c-1.1-0.2-2-0.8-2.6-1.6c-1.1-0.8-2-1.8-2.8-2.8C34.5,48.1,34.1,47.8,34,47.2z"/>
		<path class="st0" d="M25.4,71c-0.1,0-0.1,0-0.2,0c-0.5-0.6-1-1.2-1.2-2c0-0.1,0-0.1,0-0.2c0.2-0.2,0.5-0.4,0.7-0.6
			c4.1-4.1,8.1-8.1,12.2-12.2c0.2-0.2,0.5-0.4,0.7-0.6c0.5,1,0.3,2.1,0,3.1l0,0c-0.2,0.3-0.4,0.6-0.6,0.9
			c-3.8,3.8-7.7,7.6-11.5,11.5C25.5,71,25.5,71,25.4,71z"/>
		<path class="st6" d="M37.7,58.6c0-1,0-2.1,0-3.1c0-0.1,0-0.2,0-0.3c0.6-0.7,1.3-1.3,2-2c0.2-0.2,0.4-0.4,0.8-0.4
			c0.8,0.1,1.5,0.2,2.1,0.7c0,0.4-0.3,0.6-0.5,0.8C40.6,55.7,39,57.1,37.7,58.6z"/>
		<path class="st6" d="M40.3,52.8c-0.6,0.6-1.3,1.2-1.9,1.8c-0.2,0.2-0.4,0.5-0.7,0.5c0-1.3,0-2.6,0-4c0.9,0.5,1.6,1.2,2.6,1.5
			C40.4,52.7,40.4,52.7,40.3,52.8C40.4,52.8,40.4,52.8,40.3,52.8z"/>
		<path class="st4" d="M24.1,69.1c0.4,0.7,1,1.2,1.2,2c-0.2,0.2-0.5,0.4-0.7,0.6c-3.5,3.5-6.9,6.9-10.4,10.4
			c-0.2,0.2-0.5,0.4-0.7,0.6c-0.4-2.2,0.4-3.7,2.1-5.2c2.7-2.4,5.2-5.1,7.8-7.7C23.7,69.4,23.9,69.3,24.1,69.1z"/>
		<path class="st9" d="M39,27.4c3.9,0,7.8,0,11.8,0c0,0.6-0.5,0.9-0.9,1.2c-0.8,0.7-1.4,1.5-1.3,2.7c0,0.2,0.1,0.6-0.4,0.7
			c-0.4-0.5-0.3-1.1-0.2-1.6c0-0.3,0-0.4-0.3-0.4c-1.2,0-2.4-0.1-3.7,0.1c-0.1,0.6,0.1,1.3-0.2,1.8c-0.3-0.3-0.2-0.8-0.3-1.2
			c0-0.4-0.2-0.6-0.6-0.6c-0.1,0-0.2,0-0.2,0c-0.6,0-1.2-0.2-1.7,0.1c-0.5,0.3-0.2,1-0.3,1.5c-0.2,0.9-0.6,1.8-1.4,2.2
			c0.8,0,1.6-0.3,2.4,0.2c-1.5,0.3-3,0.4-4.5-0.1c-1.4-0.5-1.8-1.7-1.8-3c-0.3-0.3-0.2-0.7,0-1c0-0.1,0-0.1,0-0.2
			c0.5,0.1,0.3,0.3,0.3,0.5C36.9,29.4,37.7,28.2,39,27.4z"/>
		<path class="st5" d="M44.2,30c1.3-0.3,2.5-0.1,3.8-0.1c0.4,0,0.3,0.3,0.3,0.5c0.1,0.5-0.1,1.1,0.1,1.6c0.2,0.1,0.3,0.4,0.3,0.6
			c0,0.1,0,0.1-0.1,0.2c-0.2,0.2-0.5,0.4-0.7,0.7c-4.3,4.3-8.7,8.7-13,13c-0.2,0.2-0.4,0.6-0.8,0.6c-0.4-0.5-0.6-1.1-0.8-1.7
			c-0.1-0.5,0.3-0.7,0.5-1c4.5-4.5,9.1-9.1,13.6-13.6c0.2-0.2,0.5-0.4,0.7-0.5C48.1,30.2,48,30.1,48,30C46.7,30,45.4,30,44.2,30z"/>
		<path class="st7" d="M32.1,34.5c-1.6,1.5-3.2,3-4.6,4.7c-0.8-0.6-1-1.4-1-2.3c1.6-1.6,3.2-3.2,4.9-4.8c0.2-0.2,0.5-0.4,0.7-0.7
			c0.4,1,0.4,2,0,3C32.1,34.3,32.1,34.4,32.1,34.5z"/>
		<path class="st17" d="M41.9,34.1c-0.9,0-1.9,0-3,0c1.6-0.9,2-2.2,1.9-3.7c0-0.5,0.1-0.7,0.6-0.6c0.2,0,0.4,0,0.6,0
			c2.1,0,2.1,0,2.1,2C43.8,33.1,43.1,33.9,41.9,34.1z"/>
		<path class="st5" d="M32.1,34.3c0-1,0-2,0-3c0-0.1,0-0.1,0-0.2c0.3-0.5,0.6-0.9,1.2-1.2c0.8,0,1.5,0,2.3,0c0,0.3,0,0.7,0,1
			C34.4,32.1,33.2,33.2,32.1,34.3z"/>
		<path class="st0" d="M32.7,18.7c3.9,0,7.8,0,11.8,0c0.1,0.2-0.1,0.4-0.2,0.5c-1.7,1.7-3.4,3.5-5.2,5.2c-0.1,0-0.2,0-0.2,0
			c-1.8,0-3.6,0-5.5,0c-0.4,0-0.9,0-1.3,0c-0.4-0.3-1-0.1-1.4-0.2c-1.1,0-2.1,0-3.2,0c-0.1-0.3,0.1-0.5,0.3-0.6
			c1.5-1.5,2.9-2.9,4.4-4.4C32.3,19,32.5,18.9,32.7,18.7z"/>
		<path class="st0" d="M32.7,18.7c-1.5,1.6-3.1,3.1-4.6,4.7c-0.2,0.3-0.5,0.5-0.7,0.8c-1,0-2,0-3.2,0c1.9-1.9,3.6-3.7,5.3-5.4
			c0.8,0,1.7,0,2.5-0.1C32.3,18.7,32.5,18.7,32.7,18.7z"/>
		<path class="st9" d="M39,27.4c-1.1,1-2.2,2-3.3,3.1c-0.1-0.1,0.1-0.5-0.2-0.6c-0.7,0-1.3,0-2,0c0.8-0.8,1.5-1.6,2.3-2.4
			C36.9,27.4,38,27.4,39,27.4z"/>
		<path class="st18" d="M33.2,30c-0.3,0.5-0.7,0.8-1.2,1.2C32.1,30,32.1,30,33.2,30z"/>
		<path class="st5" d="M38.8,24.4c0.1,0,0.1,0,0.2,0c0.9-0.4,1.8-0.2,2.7-0.2c0.1,0,0.2,0.1,0.2,0.1c0.2,0.2,0.1,0.4,0,0.5
			c-0.8,0.8-1.5,1.8-2.5,2.4c-1.1,0-2.1,0-3.2,0C37.1,26.2,38,25.3,38.8,24.4z"/>
		<path class="st0" d="M66.2,18.7c0.4,0.4,0.9,0.5,1.3,0.9c1.2,1.3,0.9,3.3-0.6,4.3c-0.2,0.1-0.5,0.3-0.7,0.4
			c-0.2,0.3-0.6,0.3-0.9,0.3c-1.6,0-3.2,0-4.8,0c-0.5,0-1,0-1.4-0.2c-0.7,0-1.4,0-2.2,0c0,0,0-0.1,0-0.1c1.7-1.8,3.5-3.5,5.2-5.3
			c0.1-0.1,0.3-0.2,0.4-0.2C63.7,18.7,65,18.7,66.2,18.7z"/>
		<path class="st5" d="M39.4,27.2c0.9-0.9,1.8-1.9,2.6-2.8c0.2-0.3,0.5-0.3,0.8-0.3c3.6,0,7.1-0.1,10.7,0c0.4,0.1,0.5,0.4,0.2,0.7
			c-0.8,0.8-1.5,1.8-2.5,2.4C47.2,27.2,43.3,27.2,39.4,27.2z"/>
		<path class="st9" d="M48.6,32.8c0-0.1,0-0.1,0-0.2c0.1-0.1,0,0,0-0.1c1.6-1.9,3.3-3.6,5.2-5.2c1.2,0,2.3,0,3.5,0
			c0.6,0.2,0.9,0.6,1,1.2c0,0.7-0.3,1.1-0.9,1.4c-0.3,0.1-0.5,0.2-0.8,0.2c-0.7-0.1-1.4,0-2.1,0c-0.7,0-0.9,0.3-0.9,0.9
			c0,0.9-0.2,1.7-0.8,2.5c-0.2,0.3-0.4,0.5-0.7,0.5c0.8,0.1,1.7-0.2,2.5,0.2c-1.5,0.3-3,0.3-4.5-0.1C49.4,33.8,49,33.3,48.6,32.8z"
			/>
		<path class="st9" d="M53.9,27.4c-1.7,1.8-3.5,3.6-5.3,5.3c-0.2-0.2-0.2-0.4-0.2-0.6c-0.3-1.8,0.4-3,1.8-4.1
			c0.2-0.2,0.4-0.4,0.5-0.6C51.8,27.4,52.9,27.4,53.9,27.4z"/>
		<path class="st5" d="M51.1,27.2c0.9-0.9,1.8-1.9,2.6-2.8c0.1-0.1,0.1-0.1,0.3-0.2c1-0.1,2-0.3,2.9,0.2c0,0,0,0,0,0
			c0,0.1,0,0.1,0,0.2c-0.7,1-1.6,1.9-2.6,2.6C53.2,27.2,52.2,27.2,51.1,27.2z"/>
		<path class="st17" d="M60.4,27.3c0.6,0.1,1.1,0.4,1.2,1.1c0.3,1,0,1.4-1.1,1.7c-1,0-2.1,0.3-3-0.2c1-0.9,1-1.6,0-2.5
			C58.4,27.3,59.4,27.3,60.4,27.3z"/>
		<path class="st19" d="M54.3,27.2c0.8-1,1.7-1.8,2.6-2.6c0,0.7,0,1.4,0,2.1c0,0.4-0.1,0.5-0.5,0.5C55.7,27.2,55,27.2,54.3,27.2z"/>
		<path class="st20" d="M60.4,24.4c0,0.4,0,0.9,0,1.3c-0.5-0.4-0.9-0.8-1.3-1.3C59.5,24.4,59.9,24.4,60.4,24.4z"/>
		<path class="st16" d="M33.7,14.6c1.1,0,2.1,0,3.2,0c0.1,0.1,0,0.2,0,0.3c-1.2,1.3-2.3,2.6-3.8,3.7c-0.3,0-0.7,0-1,0
			c0-0.8,0-1.5,0-2.3C32.5,15.5,33,15,33.7,14.6z"/>
		<path class="st21" d="M33.7,14.6c-0.5,0.6-1,1.2-1.6,1.7c0-0.6,0-1.1,0-1.7C32.6,14.6,33.2,14.6,33.7,14.6z"/>
		<path class="st0" d="M25.4,71c0-0.3,0.2-0.4,0.4-0.6c3.9-3.9,7.7-7.7,11.6-11.6c0.1-0.1,0.2-0.1,0.3-0.2c0,0.4,0.1,0.8-0.1,1.2
			c0,0.6-0.6,0.9-0.9,1.3c-1.6,1.7-1.5,1.4-0.7,3.5c0.7,1.7,1.4,3.5,2.1,5.2c0.1,0.1,0.1,0.3,0.1,0.5c0,0.1,0,0.2-0.1,0.2
			c-0.4,0.2-0.7,0.5-1,0.8c-2.1,2.1-4.3,4.3-6.4,6.4c-0.2,0.2-0.4,0.7-0.9,0.4C28.3,75.7,26.9,73.4,25.4,71z"/>
		<path class="st5" d="M56.9,39.4c0,4.6-1.7,8.4-5.1,11.3c-2.1,1.8-4.6,3-7.5,3.1c-0.4,0-0.8-0.1-1.2-0.2c-0.3-0.1-0.2-0.3-0.1-0.6
			c0.1-0.2,0.3-0.4,0.5-0.5c4.2-4.2,8.4-8.4,12.6-12.6C56.2,39.7,56.4,39.3,56.9,39.4z"/>
		<path class="st5" d="M56.9,39.4c-0.2,0.1-0.3,0.3-0.5,0.4c-4.4,4.4-8.7,8.7-13.1,13.1c-0.2,0.2-0.6,0.3-0.3,0.7
			c-0.2-0.1-0.3-0.1-0.5-0.2c-0.7-0.2-1.4-0.4-2.1-0.7c0-0.1,0-0.1,0-0.2c0.2-0.2,0.5-0.4,0.7-0.7c5-5,10.1-10.1,15.1-15.1
			c0.2-0.2,0.4-0.4,0.7-0.6c0.4,1,0.4,2,0,3C56.9,39.3,56.9,39.4,56.9,39.4z"/>
		<path class="st22" d="M37.9,69.9c-0.9-2.2-1.8-4.5-2.7-6.7c-0.2-0.5,0-1,0.4-1.3c0.7-0.7,1.3-1.4,2-2.1c0.2,0,0.4,0,0.5,0.1
			c2,1.3,3.9,2.7,5.9,4c0.1,0.3-0.1,0.5-0.3,0.6c-1.7,1.7-3.4,3.4-5.1,5.1C38.4,69.8,38.2,70.1,37.9,69.9z"/>
		<path class="st6" d="M54.7,56.5c0,1,0,2.1,0,3.1c-0.5-0.1-0.3-0.4-0.4-0.7c0-0.6,0-1.3,0-1.9c-2.6,2.6-5.2,5.2-7.8,7.8
			c-0.2,0.2-0.4,0.3-0.6,0.4c-0.8-0.2-1.5-0.5-1.8-1.3c1.7-1.7,3.3-3.4,5-5.1c1.8-1.8,3.6-3.5,5.4-5.3c0.4,0.8,0.2,1.7,0.2,2.6
			C54.7,56.2,54.7,56.3,54.7,56.5z"/>
		<path class="st6" d="M57.4,29.8c1,0,2.1,0,3.1,0c0.2,0.9,0,1.9,0.1,2.8c-0.1,1,0.2,2.1-0.3,3.1c0,0,0,0,0,0c-0.1,0-0.1,0-0.2,0
			c-0.4-0.7-0.1-1.6-0.3-2.3c-0.8,0.7-1.5,1.5-2.2,2.2c-0.2,0.2-0.4,0.5-0.8,0.5c0-1.2,0-2.3,0-3.5c0-0.3,0.1-0.6-0.1-0.8
			c-0.4-0.6-0.4-1.2,0-1.8C56.9,29.8,57.2,29.9,57.4,29.8z"/>
		<path class="st22" d="M44.2,63.9c0.6,0.5,1.1,0.9,1.8,1.2c0.1,0.1,0.3,0,0.4,0.2c0,0.1,0,0.2-0.1,0.2c-0.7,0.6-1.5,1-2.3,1.6
			c-1.4,1.1-2.9,2.1-4.3,3.1c-0.5,0.4-1.1,0.6-1.7,0c-0.1-0.1-0.1-0.2-0.2-0.3c0.1,0,0.3-0.1,0.4-0.2c1.9-1.9,3.9-3.8,5.7-5.8
			C44,63.9,44.1,63.9,44.2,63.9z"/>
		<path class="st6" d="M56.9,36.1c1.1-1,2.1-2,3.3-3.2c0,1.1,0,2,0,2.8c-0.1,0.5-0.5,0.7-0.8,1c-0.8,0.8-1.7,1.6-2.5,2.5
			c0-1,0-2,0-3C56.9,36.2,56.9,36.2,56.9,36.1z"/>
		<path class="st0" d="M54.7,56.5c-0.4-1-0.1-2-0.2-3c0.1-0.1,0.1-0.2,0.2-0.3c0,0,0,0,0,0c0.4,1,0.4,2.1,0,3.1
			C54.7,56.4,54.7,56.4,54.7,56.5z"/>
		<path class="st0" d="M54.8,56.3c0-1,0-2.1,0-3.1c1.3-1.3,2.6-2.5,3.9-3.8c0.3-0.3,0.5-0.6,1-0.5c0.7,0,1.4,0.2,2.1,0.4
			c0,0.1,0,0.2-0.1,0.3C59.3,51.8,57.1,54.1,54.8,56.3z"/>
		<path class="st5" d="M60.4,35.8c0-1,0-2.1,0-3.1c1.1-1.4,2.4-2.7,3.8-3.8c0.8,0.2,1.3,0.7,1.5,1.5c-0.1,0.1-0.1,0.3-0.2,0.4
			C63.8,32.4,62.1,34.1,60.4,35.8z"/>
		<path class="st5" d="M64.2,28.8c-1.2,1.3-2.5,2.6-3.8,3.8c0.1-0.9-0.2-1.9,0.2-2.8c0.8-0.2,1.1-0.7,1-1.5c0.9,0.1,1.7,0.2,2.6,0.3
			C64.2,28.7,64.2,28.8,64.2,28.8z"/>
		<path class="st4" d="M69.5,24.2c-0.2,0-0.4,0-0.5,0c0.8-0.8,1.6-1.6,2.5-2.4c0.1,0.1-0.1,0.3,0,0.5C71.2,23.3,70.6,24,69.5,24.2z"
			/>
		<path class="st22" d="M46.3,65.4c0,0,0-0.1,0-0.1c0.1-0.4,0.4-0.5,0.7-0.7c2.2-1.5,4.5-3,6.7-4.5c0.3-0.2,0.6-0.5,1-0.3
			c0.6,0.6,1.3,1.3,1.9,1.9c0.6,0.6,0.7,1.2,0.4,1.9c-0.5,1.1-0.9,2.3-1.3,3.5c0,0.3,0,0.5-0.2,0.6c-0.9,0.7-1.6,1.8-2.6,2.4
			c-0.3,0-0.5-0.1-0.8-0.3c-1.8-1.3-3.6-2.5-5.4-3.9C46.6,65.8,46.4,65.7,46.3,65.4z"/>
		<path class="st0" d="M55.4,67.6c0.1-0.2,0.2-0.3,0.3-0.5c0.2-0.2,0.5-0.4,0.7-0.7c4.5-4.5,9-9,13.4-13.4c0.2-0.2,0.5-0.4,0.7-0.7
			c-1,1.6-2.2,3-3.2,4.5c-1.3,1.8-2.6,3.5-3.9,5.3c-0.1,0.5-0.4,0.9-0.8,1.3c-2.8,2.7-5.5,5.5-8.3,8.2c-0.2,0.2-0.3,0.6-0.7,0.4
			c-0.3-0.8,0.3-1.3,0.5-2C54.6,69.2,54.9,68.3,55.4,67.6z"/>
		<path class="st6" d="M54.8,59.8c-0.2,0.1-0.4,0.1-0.6,0.2c-2.6,1.7-5.2,3.5-7.9,5.3c-0.1-0.1-0.2-0.1-0.3-0.2
			c1.2-1.2,2.4-2.3,3.6-3.5c1.6-1.6,3.2-3.2,4.9-4.9c0.3,1-0.1,2,0.3,3C54.8,59.7,54.8,59.7,54.8,59.8z"/>
		<path class="st12" d="M75.3,65.6c-0.6,0.6-1.1,1.2-1.7,1.8c-0.8-0.3-1.2-0.9-1.5-1.7c0.4-0.6,0.9-1,1.5-1.5
			C74.2,64.6,74.8,65,75.3,65.6z"/>
		<path class="st13" d="M72.1,65.7c0.5,0.6,1,1.1,1.5,1.7c0,0.1,0,0.1,0,0.2c-0.4,0-0.6,0.3-0.8,0.5c-3.2,3.1-6.3,6.3-9.5,9.4
			c-0.2,0.2-0.3,0.5-0.7,0.4c-0.1-0.3,0-0.5,0.2-0.8c1.4-2.1,2.6-4.4,4.1-6.4c0.3-0.3,0.4-0.8,0.8-1c1.5-1.3,2.8-2.7,4.1-4.1
			C72,65.7,72.1,65.7,72.1,65.7z"/>
		<path class="st23" d="M54.4,70c-0.1,0.7-0.6,1.3-0.7,2c-0.2,0.2-0.3,0.5-0.3,0.8c0,0-0.1,0-0.1,0c-0.4,0.5-0.8,1-1.2,1.4
			c-2.7,2.7-5.4,5.4-8.1,8c-0.2,0.2-0.5,0.6-0.8,0.6c0,0-0.1,0-0.1,0c-0.5-0.6-0.7-1.4-1-2.1c0-0.1,0-0.2,0-0.2
			c0.1-0.3,0.3-0.4,0.5-0.6c3.1-3.1,6.2-6.2,9.3-9.3c0.3-0.3,0.5-0.6,1-0.6C53.4,70.2,53.9,70.1,54.4,70z"/>
		<path class="st0" d="M56.9,24.3c-1,0-2,0-3,0c-0.1-0.3,0.1-0.5,0.3-0.6c1.5-1.5,3-3,4.5-4.6c0.2-0.2,0.4-0.3,0.6-0.4
			c0.3,0,0.7-0.1,1-0.1c0.7,0,1.4,0.1,2.1,0.1C60.7,20.7,58.9,22.6,56.9,24.3z"/>
		<path class="st13" d="M67.3,88.4c-0.6,0-1.3,0-1.9,0c-0.3,0-0.6,0-0.8-0.3c0.1-0.1,0.1-0.1,0.2-0.2c0.2-0.3,0.5-0.5,0.7-0.8
			c2.1-2.1,4.2-4.2,6.3-6.3c1.2-1.2,2.4-2.3,3.6-3.5c0.4,0.9,0.4,1.9,0,2.8c0,0.1,0,0.2,0,0.3c-1.5,1.5-3,2.9-4.5,4.4
			C69.8,86,68.5,87.2,67.3,88.4z"/>
		<path class="st12" d="M75.4,80.1c0-0.9,0-1.9,0-2.8c0-0.1,0-0.1,0-0.2c1.1-1,2.2-2.1,3.3-3.1c0.4,2.2-0.3,3.9-2.2,5.2
			C76.2,79.5,76,80.1,75.4,80.1z"/>
		<path class="st0" d="M67,70.9c-0.8,1.6-1.8,3-2.7,4.5c-0.5,0.9-1.1,1.8-1.6,2.7c-0.4,0.6-0.8,1.1-1.2,1.7
			c-0.4-0.2-0.5,0.2-0.6,0.4c-2.6,2.6-5.2,5.2-7.8,7.8c-0.2,0.2-0.4,0.4-0.7,0.6c-1,0.2-1.9,0.4-2.8-0.2c0.1-0.2,0.2-0.3,0.3-0.3
			c0.2-0.3,0.5-0.5,0.7-0.8c0.2-0.2,0.5-0.4,0.7-0.7c5-5,9.9-9.9,14.9-14.9C66.5,71.3,66.8,71.1,67,70.9z"/>
		<path class="st14" d="M65.5,87.1c0,0.4-0.4,0.6-0.7,0.8C64.9,87.5,65.2,87.3,65.5,87.1z"/>
		<path class="st23" d="M43.1,83c0.4-0.5,0.9-1,1.4-1.4c2.7-2.7,5.4-5.4,8.1-8.1c0.2-0.2,0.5-0.4,0.7-0.6c-1.2,3.1-2.4,6.1-3.6,9.2
			c-1.1,2.8-2.2,5.6-3.5,8.6c-0.4-1.1-0.8-1.9-1.1-2.8C44.4,86.3,43.7,84.7,43.1,83z"/>
		<path class="st0" d="M42.2,80.8c0.3,0.7,0.6,1.4,0.8,2.1c-1.5,1.7-3.2,3.3-4.8,4.9c-0.4,0.5-0.9,0.9-1.3,1.4c-0.1,0-0.1,0-0.2,0
			c-0.4-0.7-0.8-1.3-1.2-2c0,0,0,0,0,0c0.1-0.3,0.3-0.5,0.5-0.7c1.8-1.8,3.5-3.5,5.3-5.3C41.6,81,41.8,80.7,42.2,80.8z"/>
		<path class="st4" d="M22.8,88.3c-0.7,0.3-1.5,0.1-2.3,0.2c-0.2,0-0.4-0.1-0.5-0.3c0.1-0.1,0.1-0.1,0.2-0.2
			c0.2-0.3,0.5-0.5,0.7-0.8c1.3-1.3,2.7-2.6,4-3.9c1.5-1.5,2.9-2.9,4.4-4.4c0.2-0.2,0.4-0.5,0.7-0.5c0.6,0.4,1,0.9,1,1.7
			c0,0.2-0.2,0.4-0.3,0.6c-2.5,2.5-5.1,5.1-7.6,7.6C22.9,88.2,22.9,88.2,22.8,88.3z"/>
		<path class="st0" d="M30.9,80c-0.2-0.6-0.6-1.1-1-1.7c-0.1-0.1-0.1-0.2-0.2-0.3c0.4,0,0.6-0.3,0.8-0.5c2.3-2.2,4.5-4.5,6.8-6.7
			c0.2-0.2,0.3-0.6,0.7-0.3c0.6,0.4,0.7,1.1,0.8,1.7c0,0.4-0.2,0.7-0.5,0.9c-2.2,2.2-4.4,4.4-6.5,6.5c-0.2,0.2-0.4,0.5-0.8,0.4
			C31,80,31,80,30.9,80z"/>
		<path class="st14" d="M20.8,87.1c0,0.4-0.4,0.6-0.7,0.8C20.2,87.5,20.5,87.3,20.8,87.1z"/>
		<path class="st0" d="M31.1,80c2.2-2.2,4.4-4.4,6.6-6.5c0.4-0.4,0.9-0.7,1-1.3c0.1,0,0.2,0,0.2,0c1.2,2.6,2.2,5.3,3.2,8
			c0.1,0.1,0,0.3,0,0.4c0,0.1,0,0.1,0,0.2c-1.8,1.8-3.6,3.6-5.4,5.3c-0.4,0.4-0.8,0.8-1.2,1.1C34.1,84.8,32.4,82.5,31.1,80z"/>
		<path class="st1" d="M50.6,87.1c0,0.4-0.4,0.6-0.7,0.8C50,87.5,50.3,87.3,50.6,87.1z"/>
		<path class="st0" d="M59.4,18.7c-1.6,1.6-3.2,3.2-4.7,4.8c-0.2,0.3-0.5,0.5-0.7,0.8c-0.1,0-0.1,0-0.2,0c-3.9,0-7.8,0-11.8,0
			c0,0,0,0,0,0c-0.1-0.2,0.1-0.3,0.2-0.4c1.6-1.5,3.1-3.1,4.7-4.7c0.2-0.2,0.5-0.4,0.7-0.5C51.5,18.7,55.5,18.7,59.4,18.7z"/>
		<path class="st16" d="M33.1,18.6c1.1-1.1,2.1-2.2,3.2-3.3c0.2-0.2,0.4-0.4,0.6-0.7c3.9,0,7.7,0,11.7,0c-0.4,0.7-1,1-1.4,1.6
			c-1.4,2-3.3,2.6-5.7,2.4C38.6,18.4,35.9,18.6,33.1,18.6z"/>
		<path class="st24" d="M56.9,18.6c-2.9,0-5.9,0-8.9,0c1.3-1.4,2.5-2.6,3.8-3.8c0.2-0.2,0.5-0.1,0.8-0.1c1.5,0,2.9,0,4.4,0
			c0.2,0.2,0.3,0.5,0.3,0.8C57.1,16.5,57.4,17.6,56.9,18.6z"/>
		<path class="st0" d="M47.6,18.7c-1.8,1.9-3.7,3.8-5.6,5.6c-1,0-2,0-3,0c1.6-1.6,3.2-3.2,4.7-4.8c0.2-0.3,0.5-0.5,0.7-0.8
			C45.5,18.7,46.6,18.7,47.6,18.7z"/>
		<path class="st25" d="M56.9,18.6c0-1.3,0-2.6,0-4c0,0,0-0.1,0-0.1c1.1,0,2.2,0,3.3,0c0,1.1,0,2.1,0,3.2c0,0.8-0.2,1-0.9,0.9
			C58.5,18.5,57.7,18.6,56.9,18.6z"/>
		<path class="st0" d="M56.6,10c0.6,1.4,0.2,3,0.3,4.4c-1.6,0-3.2,0-4.8,0C53.5,12.9,55,11.4,56.6,10z"/>
		<path class="st17" d="M56.8,30c0,0.6,0,1.2,0,1.8c-0.3,1.2-0.9,2.1-2.2,2.3c-0.9,0-1.9,0-3,0c1-0.6,1.7-1.3,1.8-2.4
			c0-0.4,0.1-0.7,0.1-1.1c-0.1-0.8,0.2-1,0.9-0.9C55.1,29.9,56,29.6,56.8,30z"/>
		<path class="st23" d="M38.8,72.2c0,0-0.1,0-0.1,0c-0.2-0.6-0.5-1.2-0.7-1.8c0-0.1,0-0.1,0-0.2c0.7,0.3,1.2,0.1,1.8-0.4
			c1.3-1,2.8-2,4.1-3c0.4,0.1,0.1,0.3,0,0.4c-0.3,0.4-0.7,0.7-1,1.1c-1.1,1.1-2.2,2.2-3.4,3.4C39.4,72,39.3,72.3,38.8,72.2z"/>
		<path class="st23" d="M38.8,72.2c1.8-1.6,3.4-3.4,5.2-5.1c0.1-0.1,0.1-0.1,0-0.2c0.7-0.5,1.5-1.1,2.3-1.5c2,1.4,3.9,2.8,5.9,4.2
			c0.2,0.2,0.5,0.3,0.8,0.5c0,0,0.1,0.1,0,0.1c0,0,0,0.1,0,0.1c-0.4,0-0.6,0.3-0.8,0.5C49,73.8,46,76.9,42.9,80
			c-0.2,0.2-0.4,0.4-0.7,0.6C41,77.8,39.8,75.1,38.8,72.2z"/>
		<path class="st22" d="M52.9,70.2c0-0.1,0-0.1,0-0.2c0.8-0.9,1.6-1.7,2.5-2.5c-0.2,0.9-0.6,1.7-1,2.5C54,70.5,53.5,70.4,52.9,70.2z
			"/>
	</g>
	<g>
		<path d="M38.8,27.6C38.8,27.6,38.8,27.6,38.8,27.6C38.8,27.6,38.8,27.6,38.8,27.6C38.8,27.6,38.8,27.6,38.8,27.6z"/>
		<path d="M34.9,32.3c0,0,0-0.1-0.1-0.1C34.9,32.2,34.9,32.3,34.9,32.3z"/>
		<path d="M28.2,23.5C28.2,23.5,28.2,23.5,28.2,23.5C28.2,23.5,28.2,23.5,28.2,23.5C28.2,23.5,28.2,23.5,28.2,23.5
			C28.2,23.5,28.2,23.5,28.2,23.5z"/>
		<path d="M39.9,23.5C39.9,23.5,39.9,23.5,39.9,23.5C39.9,23.5,39.9,23.5,39.9,23.5C39.9,23.5,39.9,23.5,39.9,23.5
			C39.9,23.5,39.9,23.5,39.9,23.5z"/>
		<path d="M64.2,32.1C64.2,32.1,64.2,32.1,64.2,32.1C64.2,32.2,64.2,32.2,64.2,32.1C64.2,32.2,64.2,32.1,64.2,32.1z"/>
		<path d="M48.4,18C48.3,18,48.3,18,48.4,18C48.3,18,48.4,18,48.4,18C48.4,18,48.4,18,48.4,18z"/>
		<path d="M37.8,13.8C37.8,13.8,37.8,13.8,37.8,13.8C37.7,13.8,37.7,13.8,37.8,13.8C37.7,13.9,37.7,13.9,37.8,13.8
			C37.8,13.9,37.8,13.8,37.8,13.8z"/>
		<path d="M79.5,71.9c-0.2-2.7-1.3-5.1-3-7.1c-0.7-0.6-1.2-1.3-2-1.8c-0.5-0.4-1-0.7-1.5-1c-2-1.1-4.1-1.4-6.3-1.5
			c-0.2,0-0.6,0.2-0.7-0.2c0.2-0.4,0.5-0.8,0.8-1.1c1.7-2.3,3.4-4.5,5.1-6.8c0.5-0.6,0.9-1.3,0.4-2.1c-0.4-0.7-1.1-0.7-1.7-0.8
			c-2.4-0.5-4.9-1-7.3-1.5c-0.9-0.2-1.8-0.3-2.6-0.5c-0.6-0.1-0.7-0.3-0.5-0.9c0.6-1.2,1-2.5,1.2-3.9c0.2-1.1,0.2-1.1,1.4-1.1
			c2.3-0.1,4-1.4,4.3-3.7c0.3-2.2,0.2-4.4,0-6.5c0-0.4-0.1-0.7-0.3-1c-0.5-1-1.1-1.8-2.1-2.3c-0.7-0.4-1.5-0.4-2.3-0.4
			c-0.4,0-0.7-0.1-0.7-0.5c0-0.5,0.3-0.6,0.7-0.6c0.2,0,0.4,0,0.6,0c1.3,0,2.6,0,3.9,0c1.4,0,2.8,0,4-0.9c0.3-0.2,0.6-0.5,0.9-0.8
			c0.8-1.2,1.1-2.4,0.7-3.8c-0.6-1.7-1.8-2.6-3.5-2.9c-2.1,0-4.1,0-6.2,0c-0.9,0-0.9,0-1-1c0-0.1,0-0.3,0-0.4c0-1.1,0-2.3,0-3.4
			C61.6,11,61,8.9,59.3,7.4c-1.1-1-2.4-1.5-3.8-1.6c-2.3,0-4.5,0-6.8,0c-0.7,0.3-1.2,0.8-1.7,1.4c-0.4,0.5-0.8,0.5-1.2,0
			c-0.5-0.5-0.9-1-1.5-1.4c-2.3,0-4.5,0-6.8,0c-0.7,0.2-1.5,0.1-2.2,0.5c-2.5,1.4-3.9,3.5-4,6.4c0,1.5,0,2.9,0,4.4c0,0.9-0.1,1-1,1
			c-2.1,0-4.1,0-6.2,0c-1.8,0.2-3.3,1.5-3.6,3.3c-0.4,1.9,0.5,3.6,2.3,4.6c0.9,0.4,1.8,0.5,2.7,0.5c1.1,0,2.2,0,3.2,0
			c0.7,0,1.3,0,2,0c0.3,0,0.6,0.1,0.6,0.5c0,0.4-0.2,0.6-0.6,0.6c-0.2,0-0.4,0-0.7,0c-2.3,0.1-4,1.6-4.2,4c0,1.8,0,3.7,0,5.5
			c0,1,0.2,1.9,0.8,2.7c1,1.2,2.3,1.7,3.8,1.7c0.7,0,1,0.3,1.1,0.9c0.1,1.1,0.5,2.1,0.8,3.1c0.1,0.3,0.3,0.6,0.4,0.9
			c0.3,0.7,0.3,0.8-0.4,0.9c-0.6,0.1-1.3,0.3-1.9,0.4c-2.8,0.6-5.6,1.1-8.4,1.7c-1.7,0.4-2.1,1.4-1.1,2.8c0.7,0.9,1.4,1.9,2.1,2.8
			c0.6,0.7,1,1.5,1.6,2.1c0.7,1.1,1.6,2.1,2.4,3.3c-2.9,0-5.5,0.4-7.9,1.9c-1.8,1.2-3.2,2.7-4.3,4.5c-0.8,1.6-1.5,3.2-1.5,5
			c0,5.9,0,11.8,0,17.8c0,0.7,0.5,0.9,1,1.1c2.8,0,5.6,0,8.4,0c1.2-0.5,1.3-1.5,0.2-2.5c-1-0.4-2-0.1-2.9-0.2c-0.4,0-0.7,0-1.1,0
			c-0.9-0.1-1.8,0.2-2.7-0.1c-0.3-0.3-0.2-0.6-0.2-0.9c0-4.3,0-8.6,0-12.9c0-0.2,0-0.5,0-0.7c0.1-0.3,0.1-0.5,0.1-0.8
			c0.2-4.4,3.6-8.2,7.9-8.8c0.8-0.1,1.5-0.4,2.4-0.1c-0.8,0.9-1.6,1.6-2.3,2.4c-1.3,1.4-1.4,1.6-0.3,3.2c0,0,0.1,0.1,0.1,0.1
			c0.4,0.7,0.9,1.5,1.4,2.2c1.4,2.3,2.9,4.6,4.3,6.9c0.5,0.8,1,1.5,1.4,2.3c1.5,2.4,3.1,4.8,4.6,7.4c-1.4,0-2.6,0-3.9,0
			c-1.4,0-2.9,0-4.3,0c-0.8,0-1.4,0.6-1.5,1.3c-0.1,0.7,0.2,1.1,1,1.4c17.2,0,34.4,0,51.6,0c0.5-0.2,1-0.4,1-1.1
			C79.5,83.7,79.6,77.8,79.5,71.9z M62.7,30.3c0.8-0.1,1.4,0.3,1.5,1.2c0.2,2,0.2,4,0,6c-0.2,1-1.8,1.7-2.7,1.3
			c-0.2-0.1-0.2-0.3-0.2-0.4c0-1.2,0-2.4,0-3.5c-0.1-1.1-0.1-2.1,0-3.2c0,0,0-0.1,0-0.1C61.3,30.2,61.3,30.2,62.7,30.3z M36.5,8.6
			c1.2-0.5,2.4-0.4,3.6-0.3c1.1,0,2.1-0.2,3.2,0.1c0.7,0.7,1.4,1.4,2.1,2.1c0.7,0.7,1.5,0.8,2.1,0c1.4-2,3.3-2.5,5.6-2.2
			c0.5,0.1,1,0,1.6,0c1,0,1.9,0.3,2.6,1c1.5,1.2,1.8,2.8,1.5,4.6c-0.2,0.2-0.5,0.1-0.7,0.1c-7.9,0-15.7,0-23.6,0
			c-0.2,0-0.4,0.1-0.5-0.1C33.7,11.2,34.6,9.4,36.5,8.6z M34.9,16.6c3.9-0.1,7.8-0.1,11.8,0c1-0.1,2-0.1,3,0c2.9,0,5.8,0,8.7,0
			c0.4,0,0.6,0.1,0.5,0.5c-0.1,0.3,0.1,0.7-0.1,1c-0.2,0.2-0.4,0.1-0.6,0.1c-3.1,0-6.3,0-9.4,0c0,0,0,0-0.1,0c-4.7,0-9.4,0-14,0
			c-0.2,0-0.4,0.1-0.6-0.1c0-0.2,0-0.3,0-0.5C33.9,16.4,33.7,16.5,34.9,16.6z M31.5,37.8c0,0.8-0.2,1.1-1,0.9
			c-0.3,0-0.6,0.1-0.9-0.1c-0.5-0.1-0.8-0.3-1-0.8c-0.3-1-0.1-2-0.1-3c0-0.9,0-1.9,0-2.8c0-1.2,0.5-1.7,1.7-1.7c0.4,0,0.8,0,1.1,0
			c0.3,0.2,0.2,0.5,0.2,0.7C31.5,33.3,31.4,35.6,31.5,37.8z M25,23.7c-0.2,0-0.5,0.1-0.7-0.1c-0.9-0.2-1.3-0.7-1.3-1.5
			c0-0.8,0.5-1.3,1.4-1.4c1.1,0,2.2,0,3.3,0c1-0.1,2.1-0.1,3.1,0c3.9-0.1,7.8-0.1,11.8,0c1-0.1,2.1-0.1,3.1,0
			c3.9-0.1,7.8-0.1,11.8,0c1-0.1,2.1-0.1,3.1,0c2.6,0,5.2,0,7.8,0c0.8,0,1.4,0.6,1.4,1.4c0,0.7-0.5,1.3-1.3,1.5
			c-0.3,0.2-0.6,0.1-0.9,0.1C53.5,23.7,39.2,23.7,25,23.7z M39.6,58.6c-0.2-0.1-0.2-0.3-0.2-0.4c0-1.6,0-3.2,0-4.9
			c0.9,0.4,1.8,0.7,2.7,1.1c3.2,0.8,6.3,0.8,9.4-0.3c0.2-0.1,0.4-0.1,0.5-0.2c1.5-0.6,1.5-0.6,1.3,1c0,1.1,0,2.2,0.1,3.2
			c0,0.3-0.2,0.5-0.4,0.7c-2.1,1.4-4.2,2.8-6.2,4.2c-0.7,0.5-0.9-0.3-1.4-0.5C43.4,61.2,41.5,59.9,39.6,58.6z M44.2,64.8
			c-0.8,0.5-1.5,1.2-2.4,1.5c-0.7,0.8-1.7,1.3-2.6,2c-0.8-1.9-1.5-3.8-2.3-5.7c-0.2-0.5,0.2-0.6,0.4-0.9c0.9-0.9,0.9-0.9,1.9-0.2
			c1.4,0.9,2.8,1.9,4.2,2.8C43.7,64.5,43.9,64.6,44.2,64.8z M54.1,61.1c0.3-0.2,0.4-0.2,0.7,0c1.2,1.1,1.2,1,0.6,2.5
			c-0.6,1.4-1.1,2.7-1.6,4.1c-0.1,0.4-0.3,0.5-0.6,0.2c-1.5-1.1-2.9-2.1-4.5-3.2C50.5,63.5,52.3,62.3,54.1,61.1z M52.1,51.1
			c-2.5,1.3-5.1,1.7-7.9,1.2c-1-0.1-1.9-0.4-2.8-0.8c-2.6-1.1-4.5-2.8-5.8-5.3c-0.5-0.8-0.9-1.7-1.1-2.7c-0.3-0.8-0.5-1.7-0.5-2.5
			c0-2.9,0-5.7,0-8.6c0-0.5,0-1,0-1.6c0-0.3,0-0.5,0.4-0.5c0.4,0,0.6,0.1,0.5,0.5c0,0.5,0,1,0,1.6c0.6,2.3,2,3.4,4.4,3.4
			c0.8,0,1.7,0,2.5,0c0.1,0,0.3-0.1,0.4-0.1c1.7-0.3,2.8-1.4,3.3-3.1c0-0.5,0.1-1.1,0-1.6c-0.1-0.6,0.1-0.8,0.8-0.9
			c0.8,0,1,0.2,0.8,0.9c0,0.9,0.1,1.8,0.6,2.6c0.9,1.4,2.3,2,4,2c0.8,0,1.7,0,2.5-0.1c2.2-0.2,3.6-1.8,3.6-4c0-0.2,0-0.5,0-0.7
			c-0.1-0.7,0.2-0.9,0.8-0.6c0.2,0.1,0.1,0.2,0.1,0.4c0,3.1,0,6.2,0,9.3c0,0.2-0.1,0.4-0.1,0.6C58.6,45.3,56.2,48.8,52.1,51.1z
			 M37.4,30.4c0.1-0.3,0.3-0.2,0.5-0.2c0.8,0,1.6,0,2.4,0c0.7,0,1.5,0,2.2,0c0.5,0,0.6,0.2,0.6,0.7c0,2-0.4,2.4-2.3,2.4
			c-0.5,0-1,0-1.6,0C37.7,33.2,36.8,31.8,37.4,30.4z M49.8,30.3c1.7-0.2,3.5,0,5.2-0.1c0.2,0,0.4,0,0.4,0.3c0.4,1.6-0.4,2.8-2.1,2.8
			c-0.7,0-1.3,0-2,0c-0.8,0-1.5-0.3-1.6-1.2c0,0,0,0,0,0C49.6,31.5,49.6,30.9,49.8,30.3z M58.8,27.7c-0.2,0.2-0.4,0.1-0.5,0.1
			c-6.3,0-12.7,0-19,0c-0.1,0-0.2,0-0.2,0c-1.5,0-3,0-4.4,0c-0.2,0-0.4,0.1-0.5-0.1c-0.2-1.5-0.2-1.5,1.3-1.5c0.6,0,1.2,0,1.8,0
			c1-0.1,2-0.1,3,0c4-0.1,7.9-0.1,11.9,0c1-0.1,2-0.1,3,0c1.1,0,2.3,0,3.4,0c0.4,0,0.5,0.1,0.5,0.5C58.8,27,59,27.4,58.8,27.7z
			 M39.2,88.2c-0.5,0-0.6-0.3-0.7-0.6c-0.5-0.6-0.9-1.3-1.3-2c-1.5-2.3-2.9-4.6-4.3-6.9c-0.5-0.7-1-1.4-1.4-2.2
			c-1.5-2.3-3-4.7-4.4-7.1c0,0-0.1,0-0.1,0c-1.1-1.6-1.1-1.6,0.3-2.9c1.1-1.1,2.1-2.1,3.2-3.2c0.5-0.5,0.8-1,0.6-1.7
			c-1.6-2.1-3.1-4.2-4.6-6.3c-0.6-0.6-1.1-1.3-1.5-2c-1.2-1.4-1.2-1.4,0.5-1.7c0.3-0.1,0.6-0.1,0.9-0.1c1.5-0.4,3-0.7,4.5-0.9
			c1.2-0.2,2.3-0.5,3.5-0.7c0.1,0,0.3-0.1,0.4-0.1c0.3,0,2.1,2,2.1,2.4c0,1.5,0,2.9,0,4.4c0,0,0,0.1,0,0.1c0.5,1.9-0.6,3.1-1.9,4.2
			c-0.6,0.5-1,1.1-0.8,1.9c1.1,2.6,2.2,5.3,3.2,7.9c0.4,0.8,0.7,1.6,1,2.5c1.2,2.7,2.3,5.5,3.3,8.3c0.4,0.7,0.7,1.5,1,2.3
			c0.6,1.5,1.2,3,1.9,4.6C42.7,88.2,41,88.2,39.2,88.2z M44.7,81.6c-0.4-0.8-0.7-1.6-1-2.4c-1.1-2.7-2.2-5.5-3.3-8.2
			c-0.1-0.3-0.1-0.5,0.2-0.7c1.8-1.3,3.6-2.6,5.4-3.9c0.3-0.2,0.4-0.2,0.7,0c1.8,1.3,3.7,2.7,5.6,4c0.3,0.1,0.2,0.3,0.1,0.5
			c-0.7,1.7-1.4,3.4-2.1,5.1c-1.3,3.3-2.6,6.6-3.9,10C45.8,84.5,45.2,83.1,44.7,81.6z M54.1,87.9c-0.3,0.6-0.9,0.2-1.3,0.3
			c-1,0-2,0-3,0c-0.5,0-1,0-1.5,0c0-0.5,0.3-1,0.5-1.4c2-5.1,4.1-10.2,6.1-15.3c0.1-0.2,0.2-0.4,0.3-0.7c0.7-1.8,1.4-3.6,2.2-5.4
			c0,0,0,0,0,0c0,0,0,0,0-0.1c0.3-0.9,0.6-1.8,1-2.6c0.3-0.7,0.2-1.3-0.4-1.8c-0.7-0.7-1.5-1.4-2.1-2.2c0-0.2-0.1-0.4-0.1-0.6
			c0,0,0-0.1,0-0.1c0,0,0-0.1,0-0.1c-0.1-1.2,0-2.4,0-3.6c0-0.3,0-0.7,0-1c0-0.5-0.1-1.1,0.1-1.6c0.6-0.6,1.2-1.2,1.7-1.8
			c0.4-0.5,0.7,0.1,1.1,0.1c0.7,0.1,1.5,0.2,2.2,0.5c1.3-0.1,2.5,0.4,3.7,0.6c1.4,0.2,2.7,0.5,4.3,0.8c-2.4,3.2-4.8,6.4-7.2,9.5
			c-0.5,1.1,0.5,1.6,1,2.3c1.3,1.2,2.5,2.5,3.8,3.7c0.2,0.2,0.2,0.4,0,0.6c-2,3.1-4,6.3-5.9,9.4c-1.7,2.9-3.5,5.7-5.3,8.5
			C54.9,86.6,54.5,87.2,54.1,87.9z M76.8,88.1C76.8,88.1,76.8,88.1,76.8,88.1c-3,0.2-6,0.1-9,0.1c-1.1,0-2.1,0-3.2,0
			c-2.6,0-5.2,0-7.9,0c2.4-3.8,4.7-7.4,7-11.1c1.8-3,3.6-5.9,5.5-8.8c0.4-0.8,0.2-1.4-0.4-2c-1-0.9-2-1.9-3-3
			c2.6-0.1,4.8,0.3,6.8,1.8c0.7,0.4,1.3,1,1.8,1.7c1.6,1.8,2.4,3.8,2.3,6.2c0,0,0,0,0,0c0,0,0,0,0,0c0,0,0,0,0,0
			c0.1,0.4,0.1,0.8,0.1,1.2c0.1,1.6,0,3.1,0,4.7c0,0.3,0,0.5,0,0.8c0,0,0,0,0,0c0,0,0,0.1,0,0.1c0,2.6,0,5.2,0,7.8
			C76.9,87.7,77,87.9,76.8,88.1z"/>
	</g>
</g>
<g>
	<path class="st26" d="M86.4,88.1l-16.9,9.3l-16.9-9.3V69.5l16.9-9.3l16.9,9.3V88.1z"/>
	<path class="st27" d="M52.5,69.5v18.6l16.9,9.3l0,0V78.8L52.5,69.5L52.5,69.5z"/>
	<g>
		<path class="st28" d="M80.5,83.8C80,84,79.6,84.5,79.3,85c-0.1,0.1-0.1,0.1-0.2,0.1L78.2,85c-0.1,0-0.1-0.1-0.1-0.1l-0.1-1.1
			c0-0.1,0-0.2,0.1-0.3c0.7-0.6,1.2-1.6,1.1-2.5c-0.1-1.1-0.8-1.5-1.7-1.1c-0.9,0.5-1.6,1.7-1.5,2.8c0.1,0.9,0.6,1.4,1.3,1.2
			c0.1,0,0.1,0,0.1,0.1l0.1,1.1c0,0.1,0,0.2-0.1,0.2l-0.8,1c-0.1,0.1-0.1,0.1-0.2,0.1c-0.3-0.2-0.8-0.2-1.2,0
			c-0.9,0.5-1.6,1.7-1.5,2.8c0.1,1.1,0.8,1.5,1.7,1.1c0.9-0.5,1.6-1.7,1.5-2.8c0-0.2,0-0.3-0.1-0.5c0-0.1,0-0.2,0.1-0.3l0.8-1
			c0.1-0.1,0.1-0.1,0.2-0.1l0.8,0.1c0.1,0,0.1,0.1,0.1,0.2c0,0.2,0,0.4,0,0.6c0.1,1.1,0.9,1.5,1.8,1.1c0.9-0.5,1.6-1.7,1.5-2.7
			C82.1,83.9,81.3,83.4,80.5,83.8z"/>
		<path class="st28" d="M77.4,88.6c-0.3,1-1,1.9-1.8,2.3c-1.2,0.6-2.2,0-2.3-1.4c-0.1-1.4,0.8-3,2-3.6c0.6-0.3,1.1-0.3,1.5-0.1
			l0.4-0.4l0-0.7c-0.5-0.2-1.2-0.2-1.9,0.2c-1.7,0.9-2.9,3.1-2.8,5.1s1.6,2.9,3.2,2c1-0.5,1.8-1.4,2.3-2.5
			C77.7,89.2,77.5,88.9,77.4,88.6z"/>
		<path class="st28" d="M77.5,78.3c-1.7,0.9-2.9,3.1-2.8,5.1c0,0.5,0.1,0.9,0.3,1.2c0.1-0.1,0.2-0.1,0.3-0.2
			c0.3-0.1,0.5-0.2,0.7-0.3c-0.3-0.3-0.4-0.7-0.5-1.2c-0.1-1.4,0.8-3,2-3.6c1.2-0.6,2.2,0,2.3,1.4c0.1,1.1-0.5,2.4-1.4,3.2l0,0.6
			l0.4,0.1c1.1-1.1,1.8-2.8,1.7-4.3C80.6,78.3,79.1,77.5,77.5,78.3z"/>
		<path class="st28" d="M80.7,82c-0.1,0.4-0.3,0.9-0.5,1.3c0.1,0,0.1-0.1,0.2-0.1c1.2-0.6,2.2,0,2.3,1.4c0.1,1.4-0.8,3-2,3.6
			c-1.2,0.6-2.2,0-2.3-1.4c0-0.2,0-0.4,0-0.5l-0.4,0l-0.4,0.5c0,0.2,0,0.4,0,0.5c0.1,2,1.6,2.9,3.2,2c1.7-0.9,2.9-3.1,2.8-5.1
			C83.5,82.4,82.2,81.5,80.7,82z"/>
	</g>
	<g>
		<path class="st28" d="M58,83.3c0.5,0.2,0.9,0.7,1.2,1.2c0.1,0.1,0.1,0.1,0.2,0.1l0.9-0.1c0.1,0,0.1-0.1,0.1-0.1l0.1-1.1
			c0-0.1,0-0.2-0.1-0.3c-0.7-0.6-1.2-1.6-1.1-2.5c0.1-1.1,0.8-1.5,1.7-1.1c0.9,0.5,1.6,1.7,1.5,2.8c-0.1,0.9-0.6,1.4-1.3,1.2
			c-0.1,0-0.1,0-0.1,0.1l-0.1,1.1c0,0.1,0,0.2,0.1,0.2l0.8,1c0.1,0.1,0.1,0.1,0.2,0.1c0.3-0.2,0.8-0.2,1.2,0
			c0.9,0.5,1.6,1.7,1.5,2.8c-0.1,1.1-0.8,1.5-1.7,1.1C62,89.3,61.3,88,61.4,87c0-0.2,0-0.3,0.1-0.5c0-0.1,0-0.2-0.1-0.3l-0.8-1
			c-0.1-0.1-0.1-0.1-0.2-0.1l-0.8,0.1c-0.1,0-0.1,0.1-0.1,0.2c0,0.2,0,0.4,0,0.6c-0.1,1.1-0.9,1.5-1.8,1.1c-0.9-0.5-1.6-1.7-1.5-2.7
			C56.3,83.3,57.1,82.8,58,83.3z"/>
		<path class="st28" d="M61,88c0.3,1,1,1.9,1.8,2.3c1.2,0.6,2.2,0,2.3-1.4c0.1-1.4-0.8-3-2-3.6c-0.6-0.3-1.1-0.3-1.5-0.1l-0.4-0.4
			l0-0.7c0.5-0.2,1.2-0.2,1.9,0.2c1.7,0.9,2.9,3.1,2.8,5.1s-1.6,2.9-3.2,2c-1-0.5-1.8-1.4-2.3-2.5C60.7,88.6,60.9,88.3,61,88z"/>
		<path class="st28" d="M61,77.8c1.7,0.9,2.9,3.1,2.8,5.1c0,0.5-0.1,0.9-0.3,1.2c-0.1-0.1-0.2-0.1-0.3-0.2c-0.3-0.1-0.5-0.2-0.7-0.3
			c0.3-0.3,0.4-0.7,0.5-1.2c0.1-1.4-0.8-3-2-3.6c-1.2-0.6-2.2,0-2.3,1.4c-0.1,1.1,0.5,2.4,1.4,3.2l0,0.6l-0.4,0.1
			c-1.1-1.1-1.8-2.8-1.7-4.3C57.8,77.8,59.3,76.9,61,77.8z"/>
		<path class="st28" d="M57.7,81.5c0.1,0.4,0.3,0.9,0.5,1.3c-0.1,0-0.1-0.1-0.2-0.1c-1.2-0.6-2.2,0-2.3,1.4s0.8,3,2,3.6
			c1.2,0.6,2.2,0,2.3-1.4c0-0.2,0-0.4,0-0.5l0.4,0l0.4,0.5c0,0.2,0,0.4,0,0.5c-0.1,2-1.6,2.9-3.2,2c-1.7-0.9-2.9-3.1-2.8-5.1
			C55,81.9,56.2,80.9,57.7,81.5z"/>
	</g>
	<path class="st29" d="M52.5,69.5L52.5,69.5l16.9,9.3l16.9-9.3v0l-16.9-9.3L52.5,69.5z"/>
	<g>
		<path class="st30" d="M86.4,69.5l5.6,5.6l-16.9,9.3l-5.6-5.6L86.4,69.5z"/>
		<path class="st30" d="M52.5,69.5l-5.6,5.6l16.9,9.3l5.6-5.6L52.5,69.5z"/>
		<path class="st30" d="M86.4,69.5l5.6-5.6l-16.9-9.3l-5.6,5.6L86.4,69.5z"/>
		<path class="st30" d="M52.5,69.5l-5.6-5.6l16.9-9.3l5.6,5.6L52.5,69.5z"/>
	</g>
	<path d="M87.7,69.5l4.9-4.9c0.2-0.2,0.3-0.5,0.3-0.8c0-0.3-0.2-0.5-0.5-0.7l-5.9-3.3c-0.4-0.2-1-0.1-1.2,0.4
		c-0.2,0.4-0.1,1,0.4,1.2l4.9,2.7l-4.2,4.2L71,60l4.2-4.2l4.3,2.4c0.4,0.2,1,0.1,1.2-0.4c0.2-0.4,0.1-1-0.4-1.2l-4.9-2.7
		c-0.4-0.2-0.8-0.1-1.1,0.2l-4.9,4.9L64.5,54c-0.3-0.3-0.7-0.4-1.1-0.2l-16.9,9.3c-0.3,0.1-0.4,0.4-0.5,0.7c0,0.3,0.1,0.6,0.3,0.8
		l4.9,4.9l-4.9,4.9C46.1,74.7,46,75,46,75.2c0,0.3,0.2,0.5,0.5,0.7l5.1,2.8v9.4c0,0.3,0.2,0.6,0.5,0.8L69,98.2
		c0.1,0.1,0.3,0.1,0.4,0.1s0.3,0,0.4-0.1l16.9-9.3c0.3-0.2,0.5-0.5,0.5-0.8v-9.4l5.1-2.8c0.3-0.1,0.4-0.4,0.5-0.7
		c0-0.3-0.1-0.6-0.3-0.8L87.7,69.5z M69.5,77.8l-15-8.3l15-8.3l15,8.3L69.5,77.8z M63.7,55.8L68,60l-15.3,8.4l-4.2-4.2L63.7,55.8z
		 M52.7,70.7L68,79l-4.2,4.2l-15.3-8.4L52.7,70.7z M85.5,87.6l-15.1,8.3v-9.4c0-0.5-0.4-0.9-0.9-0.9s-0.9,0.4-0.9,0.9v9.4l-15.1-8.3
		v-7.8l10,5.5c0.1,0.1,0.3,0.1,0.4,0.1c0.2,0,0.5-0.1,0.6-0.3l4.9-4.9l4.9,4.9c0.2,0.2,0.4,0.3,0.6,0.3c0.2,0,0.3,0,0.4-0.1l10-5.5
		V87.6z M75.2,83.3L71,79l15.3-8.4l4.2,4.2L75.2,83.3z"/>
	<path d="M83.1,60c0.2,0,0.5-0.1,0.6-0.3c0.2-0.2,0.3-0.4,0.3-0.6c0-0.2-0.1-0.5-0.3-0.6c-0.2-0.2-0.4-0.3-0.6-0.3
		c-0.2,0-0.5,0.1-0.6,0.3c-0.2,0.2-0.3,0.4-0.3,0.6c0,0.2,0.1,0.5,0.3,0.6C82.6,59.9,82.9,60,83.1,60z"/>
	<path d="M69.5,82.5c-0.2,0-0.5,0.1-0.6,0.3c-0.2,0.2-0.3,0.4-0.3,0.6c0,0.2,0.1,0.5,0.3,0.6c0.2,0.2,0.4,0.3,0.6,0.3
		c0.2,0,0.5-0.1,0.6-0.3c0.2-0.2,0.3-0.4,0.3-0.6c0-0.2-0.1-0.5-0.3-0.6C69.9,82.6,69.7,82.5,69.5,82.5z"/>
</g>
</svg>
