<?xml version="1.0" encoding="utf-8"?>
<!-- Generator: Adobe Illustrator 24.0.2, SVG Export Plug-In . SVG Version: 6.00 Build 0)  -->
<svg version="1.1" id="ic_empty_dark_error" xmlns="http://www.w3.org/2000/svg" xmlns:xlink="http://www.w3.org/1999/xlink"
	 x="0px" y="0px" viewBox="0 0 100 100" style="enable-background:new 0 0 100 100;" xml:space="preserve">
<style type="text/css">
	.st0{fill:#FFFFFF;}
	.st1{fill:#515151;}
	.st2{fill:#878686;}
	.st3{fill:#CCCCCC;}
</style>
<g>
	<path class="st0" d="M61.9,17.5l30.5,52.9c1.1,1.9,1.8,4.2,1.8,6.6c0,7.3-5.9,13.2-13.2,13.2H50.5L39.9,50.5l10.6-39.6
		C55.4,10.9,59.6,13.5,61.9,17.5z"/>
	<path class="st0" d="M39.1,17.5L8.6,70.3c-1.1,1.9-1.8,4.2-1.8,6.6c0,7.3,5.9,13.2,13.2,13.2h30.5V10.9
		C45.6,10.9,41.4,13.5,39.1,17.5z"/>
	<path class="st1" d="M87.9,73L57.4,20.1c-1.4-2.4-3.9-3.9-6.6-4l26.1,68.7H81c4.4,0,7.9-3.6,7.9-7.9C88.9,75.5,88.6,74.2,87.9,73z"
		/>
	<path class="st2" d="M82.7,73c0.6,1.2,0.9,2.6,0.9,3.9c0,4.4-3.1,7.9-6.8,7.9H20c-4.4,0-7.9-3.6-7.9-7.9c0-1.4,0.4-2.8,1.1-3.9
		l30.5-52.9c1.4-2.4,4-4,6.9-4c0.1,0,0.2,0,0.2,0c2.3,0.1,4.5,1.6,5.7,4L82.7,73z"/>
	<path class="st3" d="M50.5,67.3V76c2.4,0,4.4-2,4.4-4.4C54.9,69.2,52.9,67.3,50.5,67.3z"/>
	<path class="st0" d="M50.5,67.3c0.5,0,0.9,2,0.9,4.4c0,2.4-0.4,4.4-0.9,4.4c-2.4,0-4.4-2-4.4-4.4S48.1,67.3,50.5,67.3z"/>
	<path class="st3" d="M50.5,29.4V62c2.4,0,4.4-2,4.4-4.4V33.8C54.9,31.4,52.9,29.4,50.5,29.4z"/>
	<path class="st0" d="M50.5,29.4c0.5,0,0.9,2,0.9,4.4v23.7c0,2.4-0.4,4.4-0.9,4.4c-2.4,0-4.4-2-4.4-4.4V33.8
		C46.1,31.4,48.1,29.4,50.5,29.4z"/>
</g>
</svg>
