<?xml version="1.0" encoding="utf-8"?>
<!-- Generator: Adobe Illustrator 24.0.2, SVG Export Plug-In . SVG Version: 6.00 Build 0)  -->
<svg version="1.1" id="ic_empty_contacts" xmlns="http://www.w3.org/2000/svg" xmlns:xlink="http://www.w3.org/1999/xlink" x="0px"
	 y="0px" viewBox="0 0 100 100" style="enable-background:new 0 0 100 100;" xml:space="preserve">
<style type="text/css">
	.st0{fill:#FFFFFF;}
	.st1{fill:#2E80BC;}
	.st2{fill:#CCCCCC;}
	.st3{fill:#00BDFF;}
</style>
<g>
	<title>Address Book Send</title>
	<desc>Created with Sketch.</desc>
	<rect x="20.6" y="12.8" class="st0" width="58.6" height="77"/>
	<path class="st1" d="M79.2,15.6h5.2v47.7l0,0c2,0,4,1.6,4,4v6.8c0,2-1.6,4-4,4l0,0v9.2h-5.2V15.6z"/>
	<g>
		<path class="st2" d="M17,19.6h8c1.6,0,2.8,1.2,2.8,2.8l0,0c0,1.6-1.2,2.8-2.8,2.8h-8c-1.6-0.4-2.8-1.6-2.8-3.2l0,0
			C14.2,20.4,15.4,19.6,17,19.6z"/>
		<path class="st2" d="M17,34.1h8c1.6,0,2.8,1.2,2.8,2.8l0,0c0,1.6-1.2,2.8-2.8,2.8h-8c-1.6,0-2.8-1.2-2.8-2.8l0,0
			C14.2,35.3,15.4,34.1,17,34.1z"/>
		<path class="st2" d="M17,48.5h8c1.6,0,2.8,1.2,2.8,2.8l0,0c0,1.6-1.2,2.8-2.8,2.8h-8c-1.6,0-2.8-1.2-2.8-2.8l0,0
			C14.2,49.7,15.4,48.5,17,48.5z"/>
		<path class="st2" d="M17,63.3h8c1.6,0,2.8,1.2,2.8,2.8l0,0c0,1.6-1.2,2.8-2.8,2.8h-8c-1.6,0-2.8-1.2-2.8-2.8l0,0
			C14.2,64.5,15.4,63.3,17,63.3z"/>
		<path class="st2" d="M17,77.8h8c1.6,0,2.8,1.2,2.8,2.8l0,0c0,1.6-1.2,2.8-2.8,2.8h-8c-1.6,0-2.8-1.2-2.8-2.8l0,0
			C14.2,79,15.4,77.8,17,77.8z"/>
	</g>
	<g>
		<circle class="st1" cx="51.5" cy="32.9" r="5.2"/>
		<path class="st1" d="M51.5,38.1L51.5,38.1c4.4,0,8,3.6,8,8v8l0,0h-16l0,0v-8C43.5,41.7,47.1,38.1,51.5,38.1z"/>
	</g>
	<g>
		<path class="st3" d="M20.6,35.3c-0.4,0-1.2-0.4-1.2-1.2v-9.2c0-0.8,0.4-1.2,1.2-1.2c0.8,0,1.2,0.4,1.2,1.2v9.2
			C22.2,34.9,21.4,35.3,20.6,35.3z"/>
		<path class="st3" d="M20.6,50.1c-0.8,0-1.2-0.4-1.2-1.2v-9.2c0-0.8,0.4-1.2,1.2-1.2c0.8,0,1.2,0.4,1.2,1.2v9.2
			C22.2,49.3,21.4,50.1,20.6,50.1z"/>
		<path class="st3" d="M20.6,64.5c-0.8,0-1.2-0.4-1.2-1.2v-9.2c0-0.8,0.4-1.2,1.2-1.2c0.8,0,1.2,0.4,1.2,1.2v9.2
			C22.2,64.1,21.4,64.5,20.6,64.5z"/>
		<path class="st3" d="M20.6,79c-0.8,0-1.2-0.4-1.2-1.2v-9.2c0-0.8,0.4-1.2,1.2-1.2c0.8,0,1.2,0.4,1.2,1.2v9.2
			C22.2,78.6,21.4,79,20.6,79z"/>
		<path class="st3" d="M84.4,88.6h-5.2c-0.8,0-1.2-0.4-1.2-1.2c0-0.8,0.4-1.2,1.2-1.2h4v-8c0-0.8,0.4-1.2,1.2-1.2
			c1.6,0,2.8-1.2,2.8-2.8v-6.8c0-1.6-1.2-2.8-2.8-2.8c-0.8,0-1.2-0.4-1.2-1.2V31.2c0-0.8,0.4-1.2,1.2-1.2c0.8,0,1.2,0.4,1.2,1.2
			v30.9c2.4,0.8,4,2.8,4,5.2v6.8c0,2.4-1.6,4.4-4,5.2v8C86,87.8,85.2,88.6,84.4,88.6z"/>
		<path class="st3" d="M84.4,27.2c-0.8,0-1.2-0.4-1.2-1.2v-1.2c0-0.8,0.4-1.2,1.2-1.2c0.8,0,1.2,0.4,1.2,1.2V26
			C86,26.8,85.2,27.2,84.4,27.2z"/>
		<path class="st3" d="M84.4,20.8c-0.8,0-1.2-0.4-1.2-1.2v-2.8h-4c-0.8,0-1.2-0.4-1.2-1.2c0-0.8,0.4-1.2,1.2-1.2h5.2
			c0.8,0,1.2,0.4,1.2,1.2v4C86,20,85.2,20.8,84.4,20.8z"/>
		<path class="st3" d="M24.6,55.3h-6.4c-0.8,0-1.2-0.4-1.2-1.2s0.4-1.2,1.2-1.2H25c0.8,0,1.2-0.4,1.2-1.2c0-0.8-0.4-1.2-1.2-1.2h-8
			c-0.8,0-1.2,0.4-1.2,1.2c0,0.8-0.4,1.2-1.2,1.2s-1.2-0.4-1.2-1.2c0-2,1.6-4,4-4h8c2,0,4,1.6,4,4C29.4,54.1,27,55.3,24.6,55.3z"/>
		<path class="st3" d="M24.6,40.5h-6.4c-0.8,0-1.2-0.4-1.2-1.2s0.4-1.2,1.2-1.2H25c0.8,0,1.2-0.4,1.2-1.2c0-0.8-0.4-1.2-1.2-1.2h-8
			c-0.8,0-1.2,0.4-1.2,1.2c0,0.8-0.4,1.2-1.2,1.2S13,37.3,13,36.9c0-2,1.6-4,4-4h8c2,0,4,1.6,4,4C28.6,38.9,27,40.5,24.6,40.5z"/>
		<path class="st3" d="M24.6,26h-6.4c-0.8,0-1.2-0.4-1.2-1.2c0-0.8,0.4-1.2,1.2-1.2H25c0.8,0,1.2-0.4,1.2-1.2c0-0.8-0.8-1.6-1.6-1.6
			h-8c-0.4,0-1.2,0.4-1.2,1.2c0,0.8-0.4,1.2-1.2,1.2S13,22.8,13,22c0-2,1.6-4,4-4h8c2,0,4,1.6,4,4S27,26,24.6,26z"/>
		<path class="st3" d="M24.6,84.6h-6.4c-0.8,0-1.2-0.4-1.2-1.2c0-0.8,0.4-1.2,1.2-1.2H25c0.8,0,1.2-0.4,1.2-1.2
			c0-0.8-0.4-1.2-1.2-1.2h-8c-0.8,0-1.2,0.4-1.2,1.2s-0.4,1.2-1.2,1.2s-1.2-0.4-1.2-1.2c0-2,1.6-4,4-4h8c2,0,4,1.6,4,4
			C29.4,83.4,27,84.6,24.6,84.6z"/>
		<path class="st3" d="M24.6,69.8h-6.4c-0.8,0-1.2-0.4-1.2-1.2c0-0.8,0.4-1.2,1.2-1.2H25c0.8,0,1.2-0.4,1.2-1.2
			c0-0.8-0.4-1.2-1.2-1.2h-8c-0.8,0-1.2,0.4-1.2,1.2c0,0.8-0.4,1.2-1.2,1.2s-1.2-0.4-1.2-1.2c0-2,1.6-4,4-4h8c2,0,4,1.6,4,4
			C29.4,68.5,27,69.8,24.6,69.8z"/>
		<path class="st3" d="M79.2,91H20.6c-0.8,0-1.2-0.4-1.2-1.2V87c0-0.8,0.4-1.2,1.2-1.2c0.8,0,1.2,0.4,1.2,1.2v1.2h55.7V73.8
			c0-0.8,0.4-1.2,1.2-1.2c0.8,0,1.2,0.4,1.2,1.2v16C80.4,90.6,80,91,79.2,91z"/>
		<path class="st3" d="M79.2,69.8c-0.8,0-1.2-0.4-1.2-1.2V14H22.2v5.2c0,0.8-0.4,1.2-1.2,1.2c-0.8,0-1.6-0.4-1.6-0.8v-6.8
			c0-0.8,0.4-1.2,1.2-1.2h58.6c0.8,0,1.2,0.4,1.2,1.2v55.7C80.4,69.4,80,69.8,79.2,69.8z"/>
		<path class="st3" d="M51.5,39.3c-3.6,0-6.8-2.8-6.8-6.8s2.8-6.4,6.8-6.4c3.6,0,6.8,2.8,6.8,6.8C57.9,36.5,55.1,39.3,51.5,39.3z
			 M51.5,28.8c-2,0-4,1.6-4,4s1.6,4,4,4c2.4,0,4-1.6,4-4S53.5,28.8,51.5,28.8z"/>
		<path class="st3" d="M59.1,55.3c-0.8,0-1.2-0.4-1.2-1.2v-8c0-3.6-2.8-6.8-6.8-6.8c-3.6,0-6.8,2.8-6.8,6.8v6.8h9.2
			c0.8,0,1.2,0.4,1.2,1.2s-0.4,1.2-1.2,1.2H43.1c-0.8,0-1.2-0.4-1.2-1.2v-8c0-5.2,4-9.2,9.2-9.2s9.2,4,9.2,9.2v8
			C60.7,54.5,59.9,55.3,59.1,55.3z"/>
	</g>
	<path class="st0" d="M51.5,50.1c-0.8,0-1.2-0.4-1.2-1.2v-5.2c0-0.8,0.4-1.2,1.2-1.2c0.8,0,1.2,0.4,1.2,1.2v5.2
		C52.7,49.3,51.9,50.1,51.5,50.1z"/>
</g>
</svg>
