<?xml version="1.0" encoding="utf-8"?>
<!-- Generator: Adobe Illustrator 24.0.2, SVG Export Plug-In . SVG Version: 6.00 Build 0)  -->
<svg version="1.1" id="ic_empty_error" xmlns="http://www.w3.org/2000/svg" xmlns:xlink="http://www.w3.org/1999/xlink" x="0px"
	 y="0px" viewBox="0 0 100 100" style="enable-background:new 0 0 100 100;" xml:space="preserve">
<style type="text/css">
	.st0{fill:#068FFF;}
	.st1{fill:#06DAF7;}
	.st2{fill:#FFFFFF;}
	.st3{fill:#284CB2;}
	.st4{fill:#A6F9FF;}
	.st5{fill:#FFB751;}
	.st6{fill:#FFD764;}
	.st7{fill:#525A61;}
</style>
<path class="st0" d="M76.7,69.6L46.1,86.4L15.5,69.6V36l30.6-16.8L76.7,36V69.6z"/>
<path class="st1" d="M15.5,36.1v33.6l30.6,16.8l0,0V52.8L15.5,36.1L15.5,36.1z"/>
<g>
	<path class="st2" d="M66,61.9c-0.8,0.4-1.6,1.2-2.1,2.1c-0.1,0.2-0.2,0.3-0.4,0.2L62,64c-0.1,0-0.2-0.1-0.2-0.2l-0.1-2
		c0-0.2,0.1-0.4,0.2-0.5c1.3-1,2.1-2.9,2-4.5c-0.1-1.9-1.5-2.8-3.1-2c-1.6,0.8-2.9,3.1-2.8,5c0.1,1.6,1.1,2.5,2.4,2.2
		c0.1,0,0.2,0.1,0.3,0.2l0.1,2c0,0.1,0,0.3-0.1,0.4l-1.4,1.8c-0.1,0.1-0.3,0.2-0.4,0.1c-0.6-0.4-1.4-0.4-2.2,0.1
		c-1.6,0.8-2.8,3.1-2.7,5c0.1,1.9,1.5,2.8,3.1,1.9c1.6-0.8,2.9-3.1,2.8-5c0-0.3-0.1-0.6-0.2-0.9c0-0.1,0-0.3,0.1-0.5l1.4-1.8
		c0.1-0.1,0.2-0.2,0.3-0.2l1.5,0.3c0.1,0,0.2,0.2,0.2,0.3c-0.1,0.3-0.1,0.7-0.1,1c0.1,1.9,1.5,2.8,3.2,2c1.6-0.8,2.8-3.1,2.7-5
		C69,61.9,67.6,61,66,61.9z"/>
	<path class="st2" d="M60.5,70.4c-0.6,1.8-1.8,3.4-3.3,4.2c-2.2,1.1-4-0.1-4.2-2.6s1.5-5.5,3.6-6.6c1-0.5,1.9-0.5,2.7-0.2l0.7-0.8
		l0-1.2c-1-0.4-2.2-0.3-3.4,0.4c-3,1.5-5.3,5.7-5.1,9.2c0.2,3.5,2.8,5.2,5.8,3.6c1.7-0.9,3.2-2.6,4.1-4.6C61,71.5,60.7,71,60.5,70.4
		z"/>
	<path class="st2" d="M60.6,51.9c-3,1.5-5.3,5.6-5.1,9.2c0.1,0.9,0.2,1.6,0.5,2.2c0.2-0.1,0.3-0.2,0.5-0.3c0.5-0.2,0.9-0.4,1.3-0.5
		c-0.5-0.5-0.8-1.3-0.8-2.2c-0.2-2.5,1.5-5.5,3.6-6.6c2.2-1.1,4,0.1,4.2,2.6c0.1,2-0.9,4.4-2.5,5.8l0.1,1.1l0.8,0.1
		c2-2,3.3-5,3.1-7.8C66.2,52,63.6,50.4,60.6,51.9z"/>
	<path class="st2" d="M66.5,58.6c-0.2,0.8-0.6,1.6-1,2.3c0.1-0.1,0.2-0.1,0.3-0.2c2.2-1.1,4,0.1,4.2,2.6c0.2,2.5-1.5,5.5-3.6,6.6
		c-2.2,1.1-4-0.1-4.2-2.6c0-0.3,0-0.6,0-1l-0.8,0l-0.8,0.8c0,0.3,0,0.6,0,1c0.2,3.5,2.8,5.2,5.8,3.6c3-1.5,5.3-5.7,5.1-9.2
		C71.4,59.3,69.2,57.7,66.5,58.6z"/>
</g>
<g>
	<path class="st2" d="M25.4,60.9c0.8,0.4,1.6,1.2,2.1,2.1c0.1,0.2,0.2,0.3,0.4,0.2l1.5-0.3c0.1,0,0.2-0.1,0.2-0.2l0.1-2
		c0-0.2-0.1-0.4-0.2-0.5c-1.3-1-2.1-2.9-2-4.5c0.1-1.9,1.5-2.8,3.1-2c1.6,0.8,2.9,3.1,2.8,5c-0.1,1.6-1.1,2.5-2.4,2.2
		c-0.1,0-0.2,0.1-0.3,0.2l-0.1,2c0,0.1,0,0.3,0.1,0.4l1.4,1.8c0.1,0.1,0.3,0.2,0.4,0.1c0.6-0.4,1.4-0.4,2.2,0.1
		c1.6,0.8,2.8,3.1,2.7,5c-0.1,1.9-1.5,2.8-3.1,1.9c-1.6-0.8-2.9-3.1-2.8-5c0-0.3,0.1-0.6,0.2-0.9c0-0.1,0-0.3-0.1-0.5l-1.4-1.8
		c-0.1-0.1-0.2-0.2-0.3-0.2l-1.5,0.3c-0.1,0-0.2,0.2-0.2,0.3c0.1,0.3,0.1,0.7,0.1,1c-0.1,1.9-1.5,2.8-3.2,2c-1.6-0.8-2.8-3.1-2.7-5
		C22.3,60.9,23.7,60,25.4,60.9z"/>
	<path class="st2" d="M30.8,69.4c0.6,1.8,1.8,3.4,3.3,4.2c2.2,1.1,4-0.1,4.2-2.6c0.2-2.5-1.5-5.5-3.6-6.6c-1-0.5-1.9-0.5-2.7-0.2
		l-0.7-0.8l0-1.2c1-0.4,2.2-0.3,3.4,0.4c3,1.5,5.3,5.7,5.1,9.2C39.6,75.4,37,77,34,75.5c-1.7-0.9-3.2-2.6-4.1-4.6
		C30.3,70.5,30.6,70,30.8,69.4z"/>
	<path class="st2" d="M30.7,50.9c3,1.5,5.3,5.6,5.1,9.2c-0.1,0.9-0.2,1.6-0.5,2.2c-0.2-0.1-0.3-0.2-0.5-0.3
		c-0.5-0.2-0.9-0.4-1.3-0.5c0.5-0.5,0.8-1.3,0.8-2.2c0.2-2.5-1.5-5.5-3.6-6.6c-2.2-1.1-4,0.1-4.2,2.6c-0.1,2,0.9,4.4,2.5,5.8
		l-0.1,1.1l-0.8,0.1c-2-2-3.3-5-3.1-7.8C25.1,51,27.7,49.4,30.7,50.9z"/>
	<path class="st2" d="M24.8,57.6c0.2,0.8,0.6,1.6,1,2.3c-0.1-0.1-0.2-0.1-0.3-0.2c-2.2-1.1-4,0.1-4.2,2.6c-0.2,2.5,1.5,5.5,3.6,6.6
		c2.2,1.1,4-0.1,4.2-2.6c0-0.3,0-0.6,0-1l0.8,0l0.8,0.8c0,0.3,0,0.6,0,1c-0.2,3.5-2.8,5.2-5.8,3.6c-3-1.5-5.3-5.7-5.1-9.2
		C19.9,58.3,22.2,56.7,24.8,57.6z"/>
</g>
<path class="st3" d="M15.5,36L15.5,36l30.6,16.8L76.7,36v0L46.1,19.2L15.5,36z"/>
<g>
	<path class="st4" d="M76.7,36l10.1,10.1L56.2,62.9L46.1,52.8L76.7,36z"/>
	<path class="st4" d="M15.5,36L5.4,46.1L36,62.9l10.1-10.1L15.5,36z"/>
	<path class="st4" d="M76.7,36l10.1-10.1L56.2,9.2L46.1,19.2L76.7,36z"/>
	<path class="st4" d="M15.5,36L5.4,25.9L36,9.2l10.1,10.1L15.5,36z"/>
</g>
<path d="M79,36l8.9-8.9c0.4-0.4,0.5-0.9,0.5-1.4c-0.1-0.5-0.4-1-0.8-1.2l-10.7-5.9c-0.8-0.4-1.8-0.1-2.2,0.7
	c-0.4,0.8-0.1,1.8,0.7,2.2l8.8,4.8L76.4,34L48.9,18.9l7.7-7.7l7.7,4.3c0.8,0.4,1.8,0.1,2.2-0.7c0.4-0.8,0.1-1.8-0.7-2.2L57,7.7
	c-0.6-0.4-1.4-0.2-2,0.3l-8.9,8.9L37.2,8c-0.5-0.5-1.3-0.6-2-0.3L4.6,24.5c-0.5,0.3-0.8,0.7-0.8,1.2c-0.1,0.5,0.1,1,0.5,1.4l8.9,8.9
	L4.3,45c-0.4,0.4-0.5,0.9-0.5,1.4c0.1,0.5,0.4,1,0.8,1.2l9.2,5.1v17c0,0.6,0.3,1.2,0.9,1.5l30.6,16.8c0.2,0.1,0.5,0.2,0.8,0.2
	c0.3,0,0.5-0.1,0.8-0.2l30.6-16.8c0.5-0.3,0.9-0.8,0.9-1.5v-17l9.2-5.1c0.5-0.3,0.8-0.7,0.8-1.2c0.1-0.5-0.1-1-0.5-1.4L79,36z
	 M46.1,50.9L19,36l27.1-14.9L73.3,36L46.1,50.9z M35.7,11.2l7.7,7.7L15.8,34l-7.7-7.7L35.7,11.2z M15.8,38.1l27.6,15.1l-7.7,7.7
	L8.2,45.7L15.8,38.1z M75,68.6l-27.3,15V66.7c0-0.9-0.7-1.7-1.7-1.7c-0.9,0-1.7,0.7-1.7,1.7v16.9l-27.3-15V54.5l18,9.9
	c0.2,0.1,0.5,0.2,0.8,0.2c0.4,0,0.9-0.2,1.2-0.5l8.9-8.9l8.9,8.9c0.3,0.3,0.7,0.5,1.2,0.5c0.3,0,0.5-0.1,0.8-0.2l18-9.9V68.6z
	 M56.5,60.9l-7.7-7.7l27.6-15.1l7.7,7.7L56.5,60.9z"/>
<path d="M70.7,18.8c0.4,0,0.9-0.2,1.2-0.5c0.3-0.3,0.5-0.7,0.5-1.2c0-0.4-0.2-0.9-0.5-1.2c-0.3-0.3-0.7-0.5-1.2-0.5
	c-0.4,0-0.9,0.2-1.2,0.5c-0.3,0.3-0.5,0.7-0.5,1.2c0,0.4,0.2,0.9,0.5,1.2C69.9,18.6,70.3,18.8,70.7,18.8z"/>
<path d="M46.1,59.6c-0.4,0-0.9,0.2-1.2,0.5c-0.3,0.3-0.5,0.7-0.5,1.2c0,0.4,0.2,0.9,0.5,1.2c0.3,0.3,0.7,0.5,1.2,0.5
	c0.4,0,0.9-0.2,1.2-0.5c0.3-0.3,0.5-0.7,0.5-1.2c0-0.4-0.2-0.9-0.5-1.2C47,59.7,46.6,59.6,46.1,59.6z"/>
<g>
	<path d="M79.3,57.4l14.1,24.4c0.5,0.9,0.8,1.9,0.8,3c0,3.4-2.7,6.1-6.1,6.1H74.1l-4.9-18.3l4.9-18.3C76.3,54.3,78.3,55.6,79.3,57.4
		z"/>
	<path d="M68.8,57.4L54.7,81.7c-0.5,0.9-0.8,1.9-0.8,3c0,3.4,2.7,6.1,6.1,6.1h14.1V54.3C71.8,54.3,69.9,55.6,68.8,57.4z"/>
	<path class="st5" d="M91.3,83L77.2,58.6c-0.6-1.1-1.8-1.8-3.1-1.8l12,31.6h1.9c2,0,3.6-1.6,3.6-3.6C91.8,84.1,91.6,83.5,91.3,83z"
		/>
	<path class="st6" d="M88.9,83c0.3,0.6,0.4,1.2,0.4,1.8c0,2-1.4,3.6-3.1,3.6H60c-2,0-3.6-1.6-3.6-3.6c0-0.6,0.2-1.3,0.5-1.8
		l14.1-24.4c0.7-1.1,1.9-1.8,3.2-1.8c0,0,0.1,0,0.1,0c1.1,0,2.1,0.7,2.6,1.8L88.9,83z"/>
	<path d="M74.1,80.3v4.1c1.1,0,2-0.9,2-2C76.1,81.2,75.2,80.3,74.1,80.3z"/>
	<path class="st7" d="M74.1,80.3c0.2,0,0.4,0.9,0.4,2c0,1.1-0.2,2-0.4,2c-1.1,0-2-0.9-2-2S72.9,80.3,74.1,80.3z"/>
	<path d="M74.1,62.9v15c1.1,0,2-0.9,2-2V64.9C76.1,63.8,75.2,62.9,74.1,62.9z"/>
	<path class="st7" d="M74.1,62.9c0.2,0,0.4,0.9,0.4,2v10.9c0,1.1-0.2,2-0.4,2c-1.1,0-2-0.9-2-2V64.9C72,63.8,72.9,62.9,74.1,62.9z"
		/>
</g>
</svg>
