<?xml version="1.0" encoding="utf-8"?>
<!-- Generator: Adobe Illustrator 24.0.2, SVG Export Plug-In . SVG Version: 6.00 Build 0)  -->
<svg version="1.1" id="Capa_1" xmlns="http://www.w3.org/2000/svg" xmlns:xlink="http://www.w3.org/1999/xlink" x="0px" y="0px"
	 viewBox="0 0 24 24" style="enable-background:new 0 0 24 24;" xml:space="preserve">
<style type="text/css">
	.st0{fill:#767777;}
	.st1{fill:#FFFFFF;}
</style>
<g>
	<path class="st0" d="M8.9,15v8.3l-7.1-3.9v-8.3"/>
	<path class="st0" d="M8.9,15v8.3l7.1-3.9v-8.3"/>
	<path class="st0" d="M1.8,10.8l7.2-4l7.2,4l-7.2,4L1.8,10.8z"/>
	<path class="st1" d="M11.1,16.7c-0.2,0-0.3-0.1-0.4-0.2c0,0-0.1-0.1-0.1-0.1c0,0,0-0.1-0.1-0.1c0,0,0-0.1,0-0.1c0,0,0-0.1,0-0.1
		c0,0,0-0.1,0-0.1c0,0,0-0.1,0-0.1c0,0,0-0.1,0.1-0.1c0,0,0-0.1,0.1-0.1c0.1-0.1,0.3-0.2,0.4-0.2s0.3,0.1,0.4,0.2
		c0,0,0.1,0.1,0.1,0.1c0,0,0,0.1,0.1,0.1c0,0,0,0.1,0,0.1c0,0,0,0.1,0,0.1c0,0,0,0.1,0,0.1c0,0,0,0.1,0,0.1c0,0,0,0.1-0.1,0.1
		c0,0,0,0.1-0.1,0.1C11.4,16.6,11.3,16.7,11.1,16.7z"/>
	<path class="st1" d="M16.4,10.3l-7.2-4C9,6.2,8.8,6.2,8.6,6.3l-7.2,4c-0.2,0.1-0.3,0.4-0.3,0.7v8.3c0,0.2,0.1,0.4,0.3,0.5
		c0,0,7.2,4,7.2,4c0.3,0.2,0.5,0,0.5,0c0,0,7.2-4,7.2-4c0.2-0.1,0.3-0.3,0.3-0.5V11C16.7,10.5,16.5,10.4,16.4,10.3z M8.9,7.5l6,3.3
		l-6,3.3l-6-3.3L8.9,7.5z M2.3,11.8l6,3.3v7.2l-6-3.3V11.8z M11.7,21.1v-2.7c0-0.3-0.3-0.6-0.6-0.6s-0.6,0.3-0.6,0.6v3.4l-1.1,0.6
		v-7.2l6-3.3V19L11.7,21.1z"/>
	<path class="st0" d="M19.5,5.5v1.3h-3.1c-0.4,0-0.6,0.3-0.6,0.6v1.2c0,0.4,0.3,0.6,0.6,0.6h3.1v1.3L22.4,8L19.5,5.5z"/>
	<path class="st1" d="M23.1,8l-4,3.4V9.7h-2.4c-0.8,0-1.4-0.6-1.4-1.4V7.7c0-0.8,0.6-1.4,1.4-1.4h2.4V4.6L23.1,8z M19.9,9.6L21.8,8
		l-1.9-1.6v0.8h-3.1c-0.4,0-0.7,0.3-0.7,0.7v0.3c0,0.4,0.3,0.7,0.7,0.7h3.1V9.6z"/>
	<path class="st0" d="M13.8,6.5V5.2h3.1c0.4,0,0.6-0.3,0.6-0.6V3.3c0-0.4-0.3-0.6-0.6-0.6h-3.1V1.4l-2.9,2.5L13.8,6.5z"/>
	<path class="st1" d="M10.2,3.9l4-3.4v1.7h2.4c0.8,0,1.4,0.6,1.4,1.4v0.6c0,0.8-0.6,1.4-1.4,1.4h-2.4v1.7L10.2,3.9z M13.4,2.3
		l-1.9,1.6l1.9,1.6V4.8h3.1c0.4,0,0.7-0.3,0.7-0.7V3.8c0-0.4-0.3-0.7-0.7-0.7h-3.1V2.3z"/>
</g>
</svg>
