<?xml version="1.0" encoding="utf-8"?>
<!-- Generator: Adobe Illustrator 24.0.1, SVG Export Plug-In . SVG Version: 6.00 Build 0)  -->
<svg version="1.1" id="Capa_1" xmlns="http://www.w3.org/2000/svg" xmlns:xlink="http://www.w3.org/1999/xlink" x="0px" y="0px"
	 viewBox="0 0 24 24" style="enable-background:new 0 0 24 24;" xml:space="preserve">
<style type="text/css">
	.st0{fill:none;}
	.st1{fill:#FFFFFF;}
</style>
<g>
	<path id="Rectangle_4647_1_" class="st0" d="M0.1,0h24v24h-24V0z"/>
	<g>
		<path class="st1" d="M8.1,12c0,2.2,1.8,4,4,4s4-1.8,4-4s-1.8-4-4-4S8.1,9.8,8.1,12z M14.1,12c0,1.1-0.9,2-2,2s-2-0.9-2-2
			s0.9-2,2-2S14.1,10.9,14.1,12z"/>
		<path class="st1" d="M3.6,12.3L5,12.9C5,12.6,5,12.3,5,12c0-3.9,3.2-7.1,7.1-7.1c2.5,0,4.6,1.3,5.9,3.2l-0.1,0.1l-1-0.4l-0.7,1.9
			l4.2,1.7L22,7l-1.9-0.7l-0.4,0.9c-1.6-2.6-4.4-4.3-7.7-4.3C7.1,2.9,3,7,3,12c0,0.5,0,1,0.1,1.5L3.6,12.3z"/>
		<path class="st1" d="M20.6,12l-1.4-0.6c0,0.2,0,0.4,0,0.6c0,3.9-3.2,7.1-7.1,7.1c-2.4,0-4.4-1.1-5.7-2.9l1,0.4l0.7-1.9l-4.2-1.7
			l-1.7,4.2L4.1,18l0.4-1l0,0c1.6,2.5,4.4,4.1,7.6,4.1c5,0,9.1-4.1,9.1-9.1c0-0.4,0-0.8-0.1-1.1L20.6,12z"/>
	</g>
</g>
</svg>
