<?xml version="1.0" encoding="utf-8"?>
<!-- Generator: Adobe Illustrator 24.0.2, SVG Export Plug-In . SVG Version: 6.00 Build 0)  -->
<svg version="1.1" id="ic-transaction-staked" xmlns="http://www.w3.org/2000/svg" xmlns:xlink="http://www.w3.org/1999/xlink"
	 x="0px" y="0px" viewBox="0 0 24 24" style="enable-background:new 0 0 24 24;" xml:space="preserve">
<style type="text/css">
	.st0{fill:#A09F9F;}
</style>
<title>contract-icon-reward</title>
<g>
	<path class="st0" d="M17.1,3.7l5.5,5.6L20,12.2c0,0-0.4,1.4-0.5,1.8c-0.1,0.3-0.3,0.7-0.3,0.7s-0.1,0.7-0.1,0.7
		c0.1,0.1,0.4,1.1,0.4,1.1s-0.8,0.8-0.9,0.8s-0.9,0.2-0.9,0.2l-0.3,1.1l-1.2,0.6h-0.3l-0.6,1.3L14.4,21c0,0-0.9-0.2-1-0.2
		s-0.5-0.3-0.5-0.3L12,22c0,0-0.9,0.1-1,0.1s-1.2-0.7-1.2-0.8c0-0.1-0.1-0.6-0.1-0.6s-1,0.3-1,0.3s-1.1-0.7-1.1-0.8
		c0-0.1-0.3-1.2-0.3-1.2l-1.3-0.3l-0.5-1.3l-1.7-1l0.5-1.7L4,13.8l-0.2-1.4l-0.7-1.1L1.3,9.8l5.3-5.5L9,6.5l3-0.1l2.6-0.1L17.1,3.7z
		"/>
	<path d="M0.8,9.5C0.9,9.4,1,9.3,1.1,9.2c1.8-1.7,3.5-3.5,5.3-5.2c0.3-0.3,0.5-0.3,0.9,0c0.6,0.7,1.2,1.3,1.8,2
		C9.1,6,9.2,6.1,9.3,6.1c1.5,0,3.1,0,4.6,0c0.1,0,0.2-0.1,0.3-0.1c0.7-0.7,1.5-1.5,2.2-2.2c0.3-0.3,0.5-0.3,0.8,0
		c0.4,0.4,0.8,0.8,1.2,1.3c0.1,0.1,0.2,0.3,0.2,0.4c0,0.1-0.1,0.3-0.2,0.4c-0.2,0.1-0.3,0-0.5-0.1C17.6,5.3,17.3,5,17,4.7
		c-0.1-0.1-0.1-0.1-0.2-0.2c-0.2,0.2-0.3,0.4-0.5,0.5c-0.5,0.5-1.1,1.1-1.6,1.6c-0.2,0.2-0.3,0.2-0.6,0.2c-0.7,0-1.5,0-2.2,0
		c-0.5,0-1,0.2-1.3,0.6c-0.9,1.1-1.8,2.1-2.7,3.2c0,0-0.1,0.1-0.1,0.2c0.6,0.3,1.1,0.3,1.7,0.1c0.4-0.1,0.7-0.4,1-0.7
		c0.2-0.3,0.5-0.6,0.7-0.8c0.3-0.3,0.5-0.3,0.8-0.1c1.4,1.2,3.3,0.9,4.3-0.7c0.2-0.3,0.4-0.3,0.6-0.2c0.2,0.1,0.3,0.4,0.1,0.7
		c-0.4,0.6-0.8,1-1.6,1.5c1.2,1.2,2.4,2.3,3.6,3.5c0.2-0.3,0.4-0.6,0.4-1.1c0-0.3,0-0.6,0-0.9c0-0.2,0.1-0.4,0.2-0.5
		c0.7-0.7,1.3-1.3,2-2c0.1-0.1,0.1-0.1,0.2-0.2c-0.4-0.4-0.8-0.8-1.2-1.2c-0.1-0.1-0.2-0.3-0.2-0.4c0-0.1,0.1-0.3,0.2-0.3
		c0.1-0.1,0.3-0.1,0.4,0.1c0.5,0.5,1,1,1.5,1.5c0.2,0.2,0.1,0.4,0,0.6c-0.5,0.5-1,1.1-1.6,1.6c-0.2,0.2-0.5,0.5-0.7,0.7
		c0,0.1-0.1,0.1-0.1,0.2c0,0.9-0.2,1.8-0.8,2.5c0.5,0.6,0.7,1.3,0.3,2c-0.3,0.7-0.9,1-1.7,1c0,1.2-0.8,1.9-1.9,1.9
		c0,0.8-0.4,1.4-1.1,1.7c-0.8,0.3-1.4,0.1-2-0.5c-0.1,0.4-0.4,0.7-0.7,1c-1,1-2.6,0.7-3-0.7c0,0,0,0,0-0.1c-1.3,0.6-2.6-0.3-2.6-1.7
		c-1.3-0.2-1.8-0.7-1.8-1.9c-0.8,0-1.4-0.3-1.7-1c-0.3-0.7-0.2-1.4,0.3-2c-0.5-0.6-0.5-1.4-0.5-2.1c0-0.2,0-0.3-0.2-0.4
		c-0.7-0.7-1.3-1.3-2-2C1,10,0.9,9.9,0.8,9.8C0.8,9.7,0.8,9.6,0.8,9.5z M4.4,14c1-1.3,2.8-0.9,3.3,0.5C8.5,14,9.2,14,9.8,14.5
		c0.3,0.3,0.5,0.6,0.5,0.9c0.1,0.5,0,1-0.3,1.5c0.9,0.3,1.3,0.9,1.3,1.8c0.7,0,1.2,0.3,1.6,0.7c0.3,0.3,0.6,0.7,1,1
		c0.2,0.2,0.5,0.3,0.9,0.2c0.3-0.1,0.5-0.3,0.6-0.7c0.1-0.3,0-0.6-0.3-0.8c-0.4-0.4-0.8-0.8-1.2-1.2c-0.2-0.2-0.2-0.3-0.1-0.5
		c0.1-0.2,0.3-0.3,0.5-0.2c0.1,0,0.2,0.1,0.3,0.2c0.4,0.4,0.7,0.8,1.1,1.1c0.2,0.1,0.4,0.2,0.6,0.3c0.4,0.1,0.7-0.2,0.9-0.5
		c0.2-0.3,0.1-0.7-0.2-1c-0.4-0.4-0.8-0.8-1.1-1.2c-0.2-0.2-0.2-0.5-0.1-0.7c0.2-0.2,0.4-0.2,0.7,0.1c0.4,0.4,0.7,0.7,1.1,1.1
		c0.4,0.4,0.9,0.4,1.3,0c0.4-0.4,0.4-0.9,0-1.3c-1.4-1.5-2.9-2.9-4.3-4.3C14.5,11,14.4,11,14.3,11c-0.9,0.1-1.7-0.1-2.5-0.7
		c0,0-0.1,0-0.1-0.1c-0.2,0.3-0.4,0.5-0.6,0.7c-1,1.2-2.8,1.3-4.1,0.4c-0.3-0.3-0.4-0.5-0.1-0.8c1-1.2,1.9-2.3,2.9-3.5
		C9.9,7.1,9.9,7,10,6.9c-0.2,0-0.3,0-0.5,0C8.7,6.9,8.9,7,8.3,6.4c-0.5-0.5-1-1.1-1.5-1.6C5.1,6.4,3.5,8,1.8,9.7
		C1.9,9.7,2,9.8,2,9.8c0.6,0.6,1.2,1.2,1.8,1.8C4,11.9,4.1,12,4.1,12.3c0,0.3,0,0.5,0,0.8C4.1,13.4,4.2,13.7,4.4,14z M5.9,17.6
		c0,0.5,0.2,0.8,0.5,0.9c0.3,0.2,0.7,0.1,0.9-0.1c0.7-0.6,1.3-1.3,1.9-2c0.3-0.3,0.3-0.9-0.1-1.2c-0.3-0.3-0.9-0.3-1.2,0
		c-0.6,0.6-1.3,1.3-1.9,1.9C6.1,17.3,6,17.5,5.9,17.6z M6.8,15c0-0.5-0.2-0.8-0.5-0.9c-0.3-0.2-0.7-0.1-1,0.2c-0.3,0.3-0.7,0.6-1,1
		c-0.3,0.4-0.3,0.9,0,1.3c0.3,0.3,0.9,0.3,1.2,0c0.3-0.3,0.6-0.6,0.9-1C6.7,15.4,6.7,15.2,6.8,15z M7.8,19.5c0,0.5,0.2,0.8,0.5,0.9
		c0.3,0.2,0.7,0.1,1-0.2c0.3-0.3,0.7-0.7,1-1c0.3-0.3,0.3-0.9,0-1.2c-0.3-0.3-0.9-0.4-1.2,0c-0.3,0.3-0.7,0.7-1,1
		C7.9,19.2,7.8,19.4,7.8,19.5z M12.4,20.6c0-0.4-0.2-0.7-0.6-0.8c-0.3-0.1-0.7-0.1-1,0.2c-0.1,0.1-0.2,0.2-0.3,0.3
		c-0.4,0.5-0.2,1.3,0.4,1.5C11.6,21.9,12.4,21.2,12.4,20.6z"/>
	<path d="M19.6,7.1c-0.2,0-0.4-0.2-0.4-0.4c0-0.2,0.2-0.4,0.4-0.4c0.2,0,0.4,0.2,0.4,0.4C20,6.9,19.8,7.1,19.6,7.1z"/>
</g>
</svg>
