<?xml version="1.0" encoding="utf-8"?>
<!-- Generator: Adobe Illustrator 24.0.1, SVG Export Plug-In . SVG Version: 6.00 Build 0)  -->
<svg version="1.1" id="Capa_1" xmlns="http://www.w3.org/2000/svg" xmlns:xlink="http://www.w3.org/1999/xlink" x="0px" y="0px"
	 viewBox="0 0 24 24" style="enable-background:new 0 0 24 24;" xml:space="preserve">
<style type="text/css">
	.st0{opacity:0.7;}
	.st1{fill:#FFFFFF;}
	.st2{fill:none;}
</style>
<g id="ic-transaction-received_1_" class="st0">
	<g id="Group_8834_1_">
		<path class="st1" d="M18.7,11.7l-6.7,6.1l-6.7-6.1l1.4-1.5l4.3,4V9.7c0.3,0.1,0.6,0.1,1,0.1c0.3,0,0.7,0,1-0.1v4.6l4.3-4
			L18.7,11.7z"/>
		<path class="st1" d="M22.1,16v2.2c0,2.1-1.7,3.8-3.8,3.8H5.9c-2.1,0-3.8-1.7-3.8-3.8V16h2v1.8c0,1.2,1,2.2,2.2,2.2h11.5
			c1.2,0,2.2-1,2.2-2.2V16H22.1z"/>
	</g>
	<path class="st2" d="M20.1,16v1.8c0,1.2-1,2.2-2.2,2.2H6.3c-1.2,0-2.2-1-2.2-2.2V16h-2v2.2c0,2.1,1.7,3.8,3.8,3.8h12.4
		c2.1,0,3.8-1.7,3.8-3.8V16H20.1z M18.7,11.7l-1.4-1.5l-4.3,4V9.7c-0.3,0.1-0.7,0.1-1,0.1c-0.4,0-0.7,0-1-0.1v4.6l-4.3-4l-1.4,1.5
		l6.7,6.1L18.7,11.7z"/>
</g>
<circle class="st1" cx="12.1" cy="5.2" r="3.7"/>
</svg>
