<?xml version="1.0" encoding="utf-8"?>
<!-- Generator: Adobe Illustrator 24.0.2, SVG Export Plug-In . SVG Version: 6.00 Build 0)  -->
<svg version="1.1" id="Capa_1" xmlns="http://www.w3.org/2000/svg" xmlns:xlink="http://www.w3.org/1999/xlink" x="0px" y="0px"
	 viewBox="0 0 24 24" style="enable-background:new 0 0 24 24;" xml:space="preserve">
<style type="text/css">
	.st0{fill:#C3996C;}
	.st1{fill:#A87C50;}
	.st2{fill:#8A5E3C;}
	.st3{fill:#FF9711;}
	.st4{fill:#FF0000;}
	.st5{fill:#FFFFFF;}
</style>
<g>
	<path class="st0" d="M16.6,17.5c0,4-3.7,4.5-7.6,4.5s-7.6-0.5-7.6-4.5c0-3.3,2.8-7.3,5.8-8.5h4C14.2,10.3,16.6,14.2,16.6,17.5z"/>
	<path class="st1" d="M13.2,6.3c0.2-0.3,0.2-0.6,0.1-0.9s-0.5-0.5-0.8-0.5H6c-0.4,0-0.7,0.2-0.8,0.5C5,5.7,5.1,6.1,5.3,6.4l1.8,2.6
		h4L13.2,6.3z"/>
	<path class="st1" d="M9.6,22c-0.2,0-0.4,0-0.6,0c-4,0-7.6-0.5-7.6-4.5c0-3.3,2.8-7.3,5.8-8.5h1.3c-3.1,1.2-5.8,5.2-5.8,8.5
		C2.7,21.2,5.9,21.9,9.6,22z"/>
	<path class="st2" d="M8.5,8.9H7.2L5.3,6.4c-0.2-0.3-0.3-0.6-0.1-1C5.3,5.1,5.7,4.9,6,4.9h1.3C7,4.9,6.7,5.1,6.5,5.4
		c-0.1,0.3-0.1,0.7,0.1,1L8.5,8.9z"/>
	<path class="st3" d="M13,15.7c0,2.2-1.8,4-4,4s-4-1.8-4-4s1.8-4,4-4S13,13.5,13,15.7z"/>
	<path class="st4" d="M16.7,3.1l1,1l-2.4,2.4c-0.3,0.3-0.3,0.7,0,1l0.9,0.9c0.3,0.3,0.7,0.3,1,0L19.6,6l1,1l0.3-4.1L16.7,3.1z"/>
	<path d="M9,11.2c-2.5,0-4.5,2-4.5,4.5s2,4.5,4.5,4.5s4.5-2,4.5-4.5C13.5,13.2,11.4,11.2,9,11.2z M9,19.3c-2,0-3.6-1.6-3.6-3.6
		S7,12.1,9,12.1s3.6,1.6,3.6,3.6C12.6,17.7,11,19.3,9,19.3z"/>
	<path class="st5" d="M11.9,8.8l1.7-2.2c0.3-0.4,0.4-1,0.1-1.4c-0.2-0.5-0.7-0.8-1.2-0.8H6c-0.5,0-1,0.3-1.2,0.8
		C4.6,5.7,4.7,6.3,5,6.7l1.4,2.1c-3,1.5-5.6,5.4-5.6,8.7c0,4.9,5.5,4.9,8.1,4.9s8.1,0,8.1-4.9C17.1,14.2,14.7,10.3,11.9,8.8z
		 M5.6,5.6C5.7,5.4,5.8,5.3,6,5.3h6.5c0.2,0,0.3,0.1,0.4,0.3c0.1,0.2,0.1,0.3,0,0.5L11,8.5H7.4L5.7,6.1C5.6,6,5.5,5.8,5.6,5.6
		L5.6,5.6z M9,21.5c-4.3,0-7.2-0.7-7.2-4c0-3.1,2.6-6.9,5.5-8.1h3.9c2.7,1.2,5,5,5,8.1C16.2,20.8,13.3,21.5,9,21.5z"/>
	<path class="st5" d="M21.3,2.3l-0.4,5.6l-1.3-1.3l-1.8,1.8c-0.6,0.6-1.5,0.6-2.1,0L15.2,8c-0.6-0.6-0.6-1.5,0-2.1L17,4l-1.3-1.3
		L21.3,2.3z M20.2,5.9l0.2-2.6l-2.6,0.2L18.3,4L16,6.4c-0.3,0.3-0.3,0.7,0,1l0.3,0.3c0.3,0.3,0.7,0.3,1,0l2.4-2.4L20.2,5.9z"/>
	<g>
		<path d="M10.3,15.8c-0.2,0-0.5,0.1-0.6,0.3c0,0-0.1,0-0.1,0l-0.4-0.2c0,0,0,0,0-0.1l0-0.5c0,0,0-0.1,0.1-0.1
			c0.4-0.1,0.6-0.4,0.6-0.8c0-0.5-0.4-0.8-0.8-0.8c-0.5,0-0.8,0.4-0.8,0.8c0,0.4,0.3,0.7,0.6,0.8c0,0,0.1,0,0.1,0.1l0,0.5
			c0,0,0,0.1,0,0.1l-0.4,0.2c0,0-0.1,0-0.1,0c-0.2-0.2-0.4-0.3-0.6-0.3c-0.5,0-0.8,0.4-0.8,0.8c0,0.5,0.4,0.8,0.8,0.8
			c0.5,0,0.8-0.4,0.8-0.8c0-0.1,0-0.2,0-0.2c0,0,0-0.1,0-0.1l0.4-0.2c0,0,0.1,0,0.1,0l0.4,0.2c0,0,0.1,0.1,0,0.1c0,0.1,0,0.2,0,0.2
			c0,0.5,0.4,0.8,0.8,0.8c0.5,0,0.8-0.4,0.8-0.8C11.1,16.2,10.7,15.8,10.3,15.8z"/>
		<path d="M8.6,17.1c-0.2,0.4-0.6,0.6-1,0.6c-0.6,0-1.1-0.5-1.1-1.1c0-0.6,0.5-1.1,1.1-1.1c0.3,0,0.5,0.1,0.7,0.3l0.2-0.1l0-0.3
			c-0.3-0.2-0.6-0.3-1-0.3c-0.9,0-1.5,0.7-1.5,1.5c0,0.9,0.7,1.5,1.5,1.5c0.5,0,0.9-0.2,1.2-0.6C8.8,17.5,8.7,17.3,8.6,17.1z"/>
		<path d="M9,12.8c-0.9,0-1.5,0.7-1.5,1.5c0,0.2,0,0.4,0.1,0.6c0,0,0.1,0,0.1,0c0.1,0,0.3,0,0.4,0c-0.1-0.2-0.2-0.4-0.2-0.6
			c0-0.6,0.5-1.1,1.1-1.1c0.6,0,1.1,0.5,1.1,1.1c0,0.5-0.3,0.9-0.8,1.1l0,0.3l0.2,0.1c0.6-0.2,1-0.8,1-1.4
			C10.5,13.5,9.8,12.8,9,12.8z"/>
		<path d="M10.5,15.1c-0.1,0.2-0.2,0.3-0.3,0.4c0,0,0.1,0,0.1,0c0.6,0,1.1,0.5,1.1,1.1c0,0.6-0.5,1.1-1.1,1.1
			c-0.6,0-1.1-0.5-1.1-1.1c0-0.1,0-0.2,0-0.2L9,16.3l-0.2,0.1c0,0.1,0,0.1,0,0.2c0,0.9,0.7,1.5,1.5,1.5c0.9,0,1.5-0.7,1.5-1.5
			C11.8,15.8,11.2,15.2,10.5,15.1z"/>
	</g>
</g>
</svg>
