<?xml version="1.0" encoding="utf-8"?>
<!-- Generator: Adobe Illustrator 24.0.2, SVG Export Plug-In . SVG Version: 6.00 Build 0)  -->
<svg version="1.1" id="ic-transaction-staked" xmlns="http://www.w3.org/2000/svg" xmlns:xlink="http://www.w3.org/1999/xlink"
	 x="0px" y="0px" viewBox="0 0 24 24" style="enable-background:new 0 0 24 24;" xml:space="preserve">
<style type="text/css">
	.st0{fill:#36A9E9;}
	.st1{fill:#0086E1;}
	.st2{fill:#83CDEE;}
	.st3{fill:#FFFFFF;}
</style>
<g>
	<path class="st0" d="M9.8,14.7V23l-7.2-4v-8.3"/>
	<path class="st1" d="M9.8,14.7V23l7.2-4v-8.3"/>
	<path class="st2" d="M2.6,10.5l7.2-4l7.2,4l-7.2,4L2.6,10.5z"/>
	<path class="st3" d="M17.2,10L10,6C9.9,5.9,9.7,5.9,9.5,6l-7.2,4C2.1,10.1,2,10.4,2,10.7V19c0,0.2,0.1,0.4,0.3,0.5c0,0,7.2,4,7.2,4
		c0.3,0.2,0.5,0,0.5,0c0,0,7.2-4,7.2-4c0.2-0.1,0.3-0.3,0.3-0.5v-8.3C17.5,10.3,17.4,10.1,17.2,10z M9.8,7.2l6,3.3l-6,3.3l-6-3.3
		L9.8,7.2z M3.2,11.5l6,3.3V22l-6-3.3V11.5z M12.6,20.8v-2.7c0-0.3-0.3-0.6-0.6-0.6s-0.6,0.3-0.6,0.6v3.4L10.3,22v-7.2l6-3.3v7.2
		L12.6,20.8z"/>
	<path class="st3" d="M21.2,8.4l0-0.1c-0.1-1.8-1-2.9-1.7-3.9c-0.7-0.9-1.3-1.7-1.3-2.9c0-0.1-0.1-0.2-0.1-0.2c-0.1,0-0.2,0-0.3,0
		c-1.1,0.8-2,2.1-2.3,3.4c-0.2,0.9-0.3,1.9-0.3,2.5C14.2,7,14,5.5,14,5.5c0-0.1-0.1-0.1-0.1-0.2c-0.1,0-0.2,0-0.2,0
		c-0.1,0-1.3,0.7-1.4,3.2c0,0.1,0,0.2,0,0.3c0,2.5,2,4.5,4.5,4.5s4.5-2,4.5-4.5C21.2,8.6,21.2,8.5,21.2,8.4z"/>
	<path class="st1" d="M15.3,11.1C15.3,11.1,15.3,11.1,15.3,11.1c0-0.5,0.1-0.7,0.2-0.9c0.1,0.3,0.4,0.6,0.8,0.6
		c0.1,0,0.2-0.1,0.2-0.2c0-0.4,0-0.8,0.1-1.1c0.1-0.3,0.3-0.7,0.5-1c0.1,0.4,0.3,0.7,0.5,0.9c0.3,0.4,0.6,0.8,0.6,1.6
		c0,0,0,0.1,0,0.1c0,0.9-0.7,1.6-1.5,1.6C15.9,12.7,15.3,12,15.3,11.1z"/>
	<path class="st0" d="M18.3,12.4c0.3-0.4,0.4-0.8,0.4-1.3c0-0.1,0-0.1,0-0.2c-0.1-0.8-0.4-1.3-0.7-1.8c-0.3-0.4-0.5-0.7-0.5-1.2
		c0-0.1-0.1-0.2-0.1-0.2c-0.1,0-0.2,0-0.3,0c-0.5,0.4-0.9,1-1,1.5C16,9.6,16,10,16,10.2c-0.2-0.2-0.2-0.5-0.2-0.5
		c0-0.1-0.1-0.1-0.1-0.2c-0.1,0-0.2,0-0.2,0c-0.1,0-0.6,0.3-0.6,1.5c0,0,0,0.1,0,0.1c0,0.5,0.2,0.9,0.4,1.3c-1.4-0.6-2.4-2-2.4-3.7
		c0-0.1,0-0.1,0-0.2c0-1.5,0.5-2.2,0.8-2.6c0.2,0.8,0.8,1.8,1.9,1.8c0.1,0,0.2-0.1,0.2-0.2c0-0.8,0-1.8,0.2-2.7
		c0.3-1,0.9-2.1,1.8-2.8c0.1,1.1,0.7,1.8,1.3,2.7c0.7,1,1.5,2,1.6,3.6l0,0.1c0,0.1,0,0.2,0,0.3C20.7,10.4,19.7,11.8,18.3,12.4z"/>
	<path class="st2" d="M13.6,7.2c0.2,0.6,0.8,1.5,1.9,1.5c0.1,0,0.2-0.1,0.2-0.2c0-0.7,0-1.5,0.2-2.2c0.3-0.8,0.9-1.7,1.8-2.3
		c0.1,0.9,0.7,1.5,1.3,2.2c0.7,0.8,1.5,1.6,1.6,2.9c0-0.1,0-0.2,0-0.3c0-0.1,0-0.2,0-0.3l0-0.1c-0.1-1.6-0.9-2.6-1.6-3.6
		c-0.6-0.8-1.2-1.6-1.3-2.7c-0.8,0.7-1.5,1.8-1.8,2.8c-0.2,0.9-0.2,1.8-0.2,2.7c0,0.1-0.1,0.2-0.2,0.2c-1.1,0-1.7-1-1.9-1.8
		c-0.3,0.3-0.8,1.1-0.8,2.6c0,0.1,0,0.2,0,0.2c0,0.1,0,0.2,0,0.3C12.9,8,13.3,7.4,13.6,7.2z"/>
</g>
</svg>
