<?xml version="1.0" encoding="utf-8"?>
<!-- Generator: Adobe Illustrator 24.0.2, SVG Export Plug-In . SVG Version: 6.00 Build 0)  -->
<svg version="1.1" id="ic-transaction-staked" xmlns="http://www.w3.org/2000/svg" xmlns:xlink="http://www.w3.org/1999/xlink"
	 x="0px" y="0px" viewBox="0 0 24 24" style="enable-background:new 0 0 24 24;" xml:space="preserve">
<style type="text/css">
	.st0{fill:#36A9E9;}
	.st1{fill:#0086E1;}
	.st2{fill:#83CDEE;}
	.st3{fill:#FFFFFF;}
</style>
<g>
	<path class="st0" d="M8.8,14.7v8.3l-7.2-4v-8.3"/>
	<path class="st1" d="M8.8,14.7v8.3l7.2-4v-8.3"/>
	<path class="st2" d="M1.7,10.6l7.2-4l7.2,4l-7.2,4L1.7,10.6z"/>
	<path d="M11.1,16.4c-0.2,0-0.3-0.1-0.4-0.2c0,0-0.1-0.1-0.1-0.1c0,0,0-0.1-0.1-0.1c0,0,0-0.1,0-0.1c0,0,0-0.1,0-0.1
		c0,0,0-0.1,0-0.1c0,0,0-0.1,0-0.1c0,0,0-0.1,0.1-0.1c0,0,0-0.1,0.1-0.1c0.1-0.1,0.3-0.2,0.4-0.2c0.2,0,0.3,0.1,0.4,0.2
		c0,0,0.1,0.1,0.1,0.1c0,0,0,0.1,0.1,0.1c0,0,0,0.1,0,0.1c0,0,0,0.1,0,0.1c0,0,0,0.1,0,0.1c0,0,0,0.1,0,0.1c0,0,0,0.1-0.1,0.1
		c0,0,0,0.1-0.1,0.1C11.4,16.4,11.2,16.4,11.1,16.4z"/>
	<path class="st3" d="M16.3,10.1l-7.2-4C8.9,6,8.7,6,8.6,6.1l-7.2,4c-0.2,0.1-0.3,0.4-0.3,0.7v8.3c0,0.2,0.1,0.4,0.3,0.5
		c0,0,7.2,4,7.2,4c0.3,0.2,0.5,0,0.5,0c0,0,7.2-4,7.2-4c0.2-0.1,0.3-0.3,0.3-0.5v-8.3C16.6,10.3,16.5,10.2,16.3,10.1z M8.8,7.3
		l6,3.3l-6,3.3l-6-3.3L8.8,7.3z M2.3,11.6l6,3.3v7.2l-6-3.3V11.6z M11.6,20.8v-2.7c0-0.3-0.3-0.6-0.6-0.6c-0.3,0-0.6,0.3-0.6,0.6
		v3.4l-1.1,0.6v-7.2l6-3.3v7.2L11.6,20.8z"/>
	<path class="st1" d="M19.4,5.3v1.3h-3.1c-0.4,0-0.6,0.3-0.6,0.6v1.2c0,0.4,0.3,0.6,0.6,0.6h3.1v1.3l2.9-2.5L19.4,5.3z"/>
	<path class="st3" d="M23,7.8l-4,3.4V9.5h-2.4c-0.8,0-1.4-0.6-1.4-1.4V7.5c0-0.8,0.6-1.4,1.4-1.4H19V4.4L23,7.8z M19.8,9.4l1.9-1.6
		l-1.9-1.6v0.8h-3.1c-0.4,0-0.7,0.3-0.7,0.7V8c0,0.4,0.3,0.7,0.7,0.7h3.1V9.4z"/>
	<path class="st1" d="M13.7,6.2V5h3.1c0.4,0,0.6-0.3,0.6-0.6V3.1c0-0.4-0.3-0.6-0.6-0.6h-3.1V1.2l-2.9,2.5L13.7,6.2z"/>
	<path class="st3" d="M10.2,3.7l4-3.4V2h2.4c0.8,0,1.4,0.6,1.4,1.4V4c0,0.8-0.6,1.4-1.4,1.4h-2.4v1.7L10.2,3.7z M13.3,2.1l-1.9,1.6
		l1.9,1.6V4.5h3.1c0.4,0,0.7-0.3,0.7-0.7V3.5c0-0.4-0.3-0.7-0.7-0.7h-3.1V2.1z"/>
</g>
</svg>
