<?xml version="1.0" encoding="utf-8"?>
<!-- Generator: Adobe Illustrator 24.0.2, SVG Export Plug-In . SVG Version: 6.00 Build 0)  -->
<svg version="1.1" id="Capa_1" xmlns="http://www.w3.org/2000/svg" xmlns:xlink="http://www.w3.org/1999/xlink" x="0px" y="0px"
	 viewBox="0 0 24 24" style="enable-background:new 0 0 24 24;" xml:space="preserve">
<style type="text/css">
	.st0{fill:#C3996C;}
	.st1{fill:#A87C50;}
	.st2{fill:#8A5E3C;}
	.st3{fill:#FF9711;}
	.st4{fill:#FF0000;}
	.st5{fill:#FFFFFF;}
</style>
<g>
	<path class="st0" d="M18,17.6c0,4-3.7,4.5-7.6,4.5s-7.6-0.5-7.6-4.5c0-3.3,2.8-7.3,5.8-8.5h4C15.6,10.4,18,14.3,18,17.6z"/>
	<path class="st1" d="M14.6,6.4c0.2-0.3,0.2-0.6,0.1-0.9C14.5,5.2,14.2,5,13.9,5H7.4C7,5,6.7,5.2,6.6,5.5c-0.1,0.3-0.1,0.7,0.1,1
		L8.5,9h4L14.6,6.4z"/>
	<path class="st1" d="M10.9,22.1c-0.2,0-0.4,0-0.6,0c-4,0-7.6-0.5-7.6-4.5c0-3.3,2.8-7.3,5.8-8.5h1.3C6.8,10.3,4,14.3,4,17.6
		C4,21.3,7.3,22,10.9,22.1z"/>
	<path class="st2" d="M9.9,9H8.5L6.7,6.5c-0.2-0.3-0.3-0.6-0.1-1C6.7,5.2,7,5,7.4,5h1.3C8.4,5,8.1,5.2,7.9,5.5
		c-0.1,0.3-0.1,0.7,0.1,1L9.9,9z"/>
	<path class="st3" d="M14.4,15.8c0,2.2-1.8,4-4,4s-4-1.8-4-4s1.8-4,4-4S14.4,13.6,14.4,15.8z"/>
	<path class="st4" d="M18.1,3.2l1,1l-2.4,2.4c-0.3,0.3-0.3,0.7,0,1l0.9,0.9c0.3,0.3,0.7,0.3,1,0l2.4-2.4l1,1l0.3-4.1L18.1,3.2z"/>
	<path d="M10.3,11.3c-2.5,0-4.5,2-4.5,4.5s2,4.5,4.5,4.5s4.5-2,4.5-4.5C14.8,13.3,12.8,11.3,10.3,11.3z M10.3,19.4
		c-2,0-3.6-1.6-3.6-3.6s1.6-3.6,3.6-3.6s3.6,1.6,3.6,3.6C13.9,17.8,12.3,19.4,10.3,19.4z"/>
	<path class="st5" d="M13.3,8.9l1.7-2.2c0.3-0.4,0.4-1,0.1-1.4c-0.2-0.5-0.7-0.8-1.2-0.8H7.4c-0.5,0-1,0.3-1.2,0.8
		C5.9,5.8,6,6.4,6.4,6.8l1.4,2.1c-3,1.5-5.6,5.4-5.6,8.7c0,4.9,5.5,4.9,8.1,4.9s8.1,0,8.1-4.9C18.4,14.3,16.1,10.4,13.3,8.9z M7,5.7
		C7,5.5,7.2,5.4,7.4,5.4h6.5c0.2,0,0.3,0.1,0.4,0.3c0.1,0.2,0.1,0.3,0,0.5l-1.9,2.4H8.7L7,6.2C6.9,6.1,6.9,5.9,7,5.7L7,5.7z
		 M10.3,21.6c-4.3,0-7.2-0.7-7.2-4c0-3.1,2.6-6.9,5.5-8.1h3.9c2.7,1.2,5,5,5,8.1C17.5,21,14.6,21.6,10.3,21.6z"/>
	<path class="st5" d="M22.7,2.4L22.3,8l-1.3-1.3l-1.8,1.8c-0.6,0.6-1.5,0.6-2.1,0l-0.5-0.5C16,7.5,16,6.5,16.6,6l1.8-1.8l-1.3-1.3
		L22.7,2.4z M21.5,6l0.2-2.6l-2.6,0.2l0.6,0.6l-2.4,2.4c-0.3,0.3-0.3,0.7,0,1l0.3,0.3c0.3,0.3,0.7,0.3,1,0l2.4-2.4L21.5,6z"/>
	<g>
		<path d="M11.6,15.9c-0.2,0-0.5,0.1-0.6,0.3c0,0-0.1,0-0.1,0l-0.4-0.2c0,0,0,0,0-0.1l0-0.5c0,0,0-0.1,0.1-0.1
			c0.4-0.1,0.6-0.4,0.6-0.8c0-0.5-0.4-0.8-0.8-0.8c-0.5,0-0.8,0.4-0.8,0.8c0,0.4,0.3,0.7,0.6,0.8c0,0,0.1,0,0.1,0.1l0,0.5
			c0,0,0,0.1,0,0.1l-0.4,0.2c0,0-0.1,0-0.1,0C9.5,16,9.2,15.9,9,15.9c-0.5,0-0.8,0.4-0.8,0.8c0,0.5,0.4,0.8,0.8,0.8
			c0.5,0,0.8-0.4,0.8-0.8c0-0.1,0-0.2,0-0.2c0,0,0-0.1,0-0.1l0.4-0.2c0,0,0.1,0,0.1,0l0.4,0.2c0,0,0.1,0.1,0,0.1c0,0.1,0,0.2,0,0.2
			c0,0.5,0.4,0.8,0.8,0.8c0.5,0,0.8-0.4,0.8-0.8C12.5,16.3,12.1,15.9,11.6,15.9z"/>
		<path d="M10,17.2c-0.2,0.4-0.6,0.6-1,0.6c-0.6,0-1.1-0.5-1.1-1.1c0-0.6,0.5-1.1,1.1-1.1c0.3,0,0.5,0.1,0.7,0.3l0.2-0.1l0-0.3
			c-0.3-0.2-0.6-0.3-1-0.3c-0.9,0-1.5,0.7-1.5,1.5c0,0.9,0.7,1.5,1.5,1.5c0.5,0,0.9-0.2,1.2-0.6C10.1,17.6,10,17.4,10,17.2z"/>
		<path d="M10.3,12.9c-0.9,0-1.5,0.7-1.5,1.5c0,0.2,0,0.4,0.1,0.6c0,0,0.1,0,0.1,0c0.1,0,0.3,0,0.4,0c-0.1-0.2-0.2-0.4-0.2-0.6
			c0-0.6,0.5-1.1,1.1-1.1c0.6,0,1.1,0.5,1.1,1.1c0,0.5-0.3,0.9-0.8,1.1l0,0.3l0.2,0.1c0.6-0.2,1-0.8,1-1.4
			C11.9,13.6,11.2,12.9,10.3,12.9z"/>
		<path d="M11.8,15.2c-0.1,0.2-0.2,0.3-0.3,0.4c0,0,0.1,0,0.1,0c0.6,0,1.1,0.5,1.1,1.1c0,0.6-0.5,1.1-1.1,1.1
			c-0.6,0-1.1-0.5-1.1-1.1c0-0.1,0-0.2,0-0.2l-0.2-0.1l-0.2,0.1c0,0.1,0,0.1,0,0.2c0,0.9,0.7,1.5,1.5,1.5c0.9,0,1.5-0.7,1.5-1.5
			C13.2,15.9,12.6,15.3,11.8,15.2z"/>
	</g>
</g>
</svg>
