<?xml version="1.0" encoding="utf-8"?>
<!-- Generator: Adobe Illustrator 24.0.2, SVG Export Plug-In . SVG Version: 6.00 Build 0)  -->
<svg version="1.1" id="ic-transaction-staked" xmlns="http://www.w3.org/2000/svg" xmlns:xlink="http://www.w3.org/1999/xlink"
	 x="0px" y="0px" viewBox="0 0 24 24" style="enable-background:new 0 0 24 24;" xml:space="preserve">
<style type="text/css">
	.st0{fill:#36A9E9;}
	.st1{fill:#0086E1;}
	.st2{fill:#83CDEE;}
	.st3{fill:#FFFFFF;}
</style>
<g>
	<path class="st0" d="M10.4,14.2v8.3l-7.2-4v-8.3"/>
	<path class="st1" d="M10.4,14.2v8.3l7.2-4v-8.3"/>
	<path class="st2" d="M3.2,10l7.2-4l7.2,4l-7.2,4L3.2,10z"/>
	<path class="st3" d="M17.8,9.5l-7.2-4c-0.2-0.1-0.4-0.1-0.6,0L3,9.5c-0.2,0.1-0.3,0.4-0.3,0.7v8.3c0,0.2,0.1,0.4,0.3,0.5
		c0,0,7.2,4,7.2,4c0.3,0.2,0.5,0,0.5,0c0,0,7.2-4,7.2-4c0.2-0.1,0.3-0.3,0.3-0.5v-8.3C18.1,9.8,18,9.6,17.8,9.5z M10.4,6.8l6,3.3
		l-6,3.3l-6-3.3L10.4,6.8z M3.8,11l6,3.3v7.2l-6-3.3V11z M13.2,20.3v-2.7c0-0.3-0.3-0.6-0.6-0.6c-0.3,0-0.6,0.3-0.6,0.6V21L11,21.5
		v-7.2l6-3.3v7.2L13.2,20.3z"/>
	<path class="st3" d="M21.9,7.9l0-0.1c-0.1-1.8-1-2.9-1.7-3.9C19.5,3,18.9,2.2,18.9,1c0-0.1-0.1-0.2-0.1-0.2c-0.1,0-0.2,0-0.3,0
		c-1.1,0.8-2,2.1-2.3,3.4c-0.2,0.9-0.3,1.9-0.3,2.5c-1-0.2-1.2-1.7-1.2-1.8c0-0.1-0.1-0.1-0.1-0.2c-0.1,0-0.2,0-0.2,0
		c-0.1,0-1.3,0.7-1.4,3.2c0,0.1,0,0.2,0,0.3c0,2.5,2,4.5,4.5,4.5c2.5,0,4.5-2,4.5-4.5C21.9,8.1,21.9,8,21.9,7.9z"/>
	<path class="st1" d="M15.9,10.7C15.9,10.6,15.9,10.6,15.9,10.7c0-0.5,0.1-0.7,0.2-0.9c0.1,0.3,0.4,0.6,0.8,0.6
		c0.1,0,0.2-0.1,0.2-0.2c0-0.4,0-0.8,0.1-1.1c0.1-0.3,0.3-0.7,0.5-1C17.8,8.4,18,8.7,18.2,9c0.3,0.4,0.6,0.8,0.6,1.6
		c0,0,0,0.1,0,0.1c0,0.9-0.7,1.6-1.5,1.6S15.9,11.5,15.9,10.7z"/>
	<path class="st0" d="M19,11.9c0.3-0.4,0.4-0.8,0.4-1.3c0-0.1,0-0.1,0-0.2c-0.1-0.8-0.4-1.3-0.7-1.8c-0.3-0.4-0.5-0.7-0.5-1.2
		c0-0.1-0.1-0.2-0.1-0.2c-0.1,0-0.2,0-0.3,0c-0.5,0.4-0.9,1-1,1.5c-0.1,0.3-0.1,0.6-0.1,0.9c-0.2-0.2-0.2-0.5-0.2-0.5
		c0-0.1-0.1-0.1-0.1-0.2c-0.1,0-0.2,0-0.2,0c-0.1,0-0.6,0.3-0.6,1.5c0,0,0,0.1,0,0.1c0,0.5,0.2,0.9,0.4,1.3c-1.4-0.6-2.4-2-2.4-3.7
		c0-0.1,0-0.1,0-0.2c0-1.5,0.5-2.2,0.8-2.6c0.2,0.8,0.8,1.8,1.9,1.8c0.1,0,0.2-0.1,0.2-0.2c0-0.8,0-1.8,0.2-2.7
		c0.3-1,0.9-2.1,1.8-2.8c0.1,1.1,0.7,1.8,1.3,2.7c0.7,1,1.5,2,1.6,3.6l0,0.1c0,0.1,0,0.2,0,0.3C21.4,9.9,20.4,11.3,19,11.9z"/>
	<path class="st2" d="M14.2,6.7c0.2,0.6,0.8,1.5,1.9,1.5c0.1,0,0.2-0.1,0.2-0.2c0-0.7,0-1.5,0.2-2.2c0.3-0.8,0.9-1.7,1.8-2.3
		c0.1,0.9,0.7,1.5,1.3,2.2c0.7,0.8,1.5,1.6,1.6,2.9c0-0.1,0-0.2,0-0.3c0-0.1,0-0.2,0-0.3l0-0.1c-0.1-1.6-0.9-2.6-1.6-3.6
		c-0.6-0.8-1.2-1.6-1.3-2.7c-0.8,0.7-1.5,1.8-1.8,2.8c-0.2,0.9-0.2,1.8-0.2,2.7c0,0.1-0.1,0.2-0.2,0.2c-1.1,0-1.7-1-1.9-1.8
		c-0.3,0.3-0.8,1.1-0.8,2.6c0,0.1,0,0.2,0,0.2c0,0.1,0,0.2,0,0.3C13.5,7.5,13.9,7,14.2,6.7z"/>
</g>
</svg>
