<?xml version="1.0" encoding="utf-8"?>
<!-- Generator: Adobe Illustrator 24.0.1, SVG Export Plug-In . SVG Version: 6.00 Build 0)  -->
<svg version="1.1" id="ic-transaction-staked" xmlns="http://www.w3.org/2000/svg" xmlns:xlink="http://www.w3.org/1999/xlink"
	 x="0px" y="0px" viewBox="0 0 24 24" style="enable-background:new 0 0 24 24;" xml:space="preserve">
<style type="text/css">
	.st0{fill:#FFFFFF;}
</style>
<path class="st0" d="M12,0.9C6,0.9,1,5.8,1,11.9s4.9,11,11,11s11-4.9,11-11S18.1,0.9,12,0.9z M12,20.7c-4.9,0-8.8-3.9-8.8-8.8
	S7.2,3.1,12,3.1s8.8,3.9,8.8,8.8S16.9,20.7,12,20.7z"/>
<path class="st0" d="M12,3.6c-4.6,0-8.3,3.7-8.3,8.3s3.7,8.3,8.3,8.3s8.3-3.7,8.3-8.3S16.6,3.6,12,3.6z M12,19.2
	c-4,0-7.3-3.3-7.3-7.3S8,4.6,12,4.6s7.3,3.3,7.3,7.3S16,19.2,12,19.2z"/>
<path class="st0" d="M11.9,17.8c0,0-0.6,0.2-1.6-0.1s-1.9-1.5-1.6-3.2s1.6-2.3,1.9-3.8S10.3,8.5,10,8.2c0,0,0.7,0.4,1,1
	c0,0,0-0.7-0.3-1.1c0,0,1.3,0.5,2.8,2.9s1.6,3,1.6,4.1s-0.9,3-3.1,2.6c0,0,0.8-0.3,1.1-0.9c0.3-0.6,0.4-1.7-0.4-3.4
	c0,0,0,1.6-0.6,1.5c-0.6-0.1-0.7-1.5-0.2-2.7c0,0-1.6,1.5-1.4,3.6C10.7,17.5,11.9,17.8,11.9,17.8z"/>
</svg>
