<?xml version="1.0" encoding="utf-8"?>
<!-- Generator: Adobe Illustrator 24.0.1, SVG Export Plug-In . SVG Version: 6.00 Build 0)  -->
<svg version="1.1" id="ic_warnig_3" xmlns="http://www.w3.org/2000/svg" xmlns:xlink="http://www.w3.org/1999/xlink" x="0px"
	 y="0px" viewBox="0 0 24 24" style="enable-background:new 0 0 24 24;" xml:space="preserve">
<style type="text/css">
	.st0{fill:#F84444;}
</style>
<g>
	<path class="st0" d="M11.9,1.4C6.1,1.4,1.3,6.1,1.3,12s4.7,10.6,10.6,10.6S22.5,17.8,22.5,12S17.8,1.4,11.9,1.4z M11.9,20.4
		c-4.7,0-8.5-3.8-8.5-8.5s3.8-8.5,8.5-8.5s8.5,3.8,8.5,8.5S16.6,20.4,11.9,20.4z"/>
	<path class="st0" d="M11.9,4c-4.4,0-8,3.6-8,8s3.6,8,8,8s8-3.6,8-8S16.3,4,11.9,4z M11.9,19c-3.9,0-7-3.1-7-7s3.1-7,7-7s7,3.1,7,7
		S15.8,19,11.9,19z"/>
	<path class="st0" d="M11.9,13.8c-0.6,0-1.1,0.2-1.5,0.5c-0.4,0.4-0.6,0.8-0.6,1.3c0,0.5,0.2,1,0.6,1.3c0.4,0.4,0.9,0.6,1.5,0.6
		c0.6,0,1.1-0.2,1.5-0.6c0.4-0.4,0.6-0.8,0.6-1.3c0-0.5-0.2-1-0.6-1.3C13,14,12.5,13.8,11.9,13.8z"/>
	<polygon class="st0" points="10.5,13.2 13.4,13.2 14.1,6.4 9.8,6.4 	"/>
</g>
</svg>
