<?xml version="1.0" encoding="utf-8"?>
<!-- Generator: Adobe Illustrator 24.0.2, SVG Export Plug-In . SVG Version: 6.00 Build 0)  -->
<svg version="1.1" id="Capa_1" xmlns="http://www.w3.org/2000/svg" xmlns:xlink="http://www.w3.org/1999/xlink" x="0px" y="0px"
	 viewBox="0 0 24 24" style="enable-background:new 0 0 24 24;" xml:space="preserve">
<style type="text/css">
	.st0{fill:#757575;}
	.st1{fill:#686868;}
	.st2{fill:#FFFFFF;}
	.st3{fill:#ADAEAD;}
	.st4{fill:#58AE7A;}
</style>
<circle class="st0" cx="11.9" cy="11.5" r="10"/>
<path class="st1" d="M13.4,20.1c-5.5,0-10-4.5-10-10c0-2.4,0.8-4.6,2.3-6.3c-2.2,1.8-3.7,4.6-3.7,7.8c0,5.5,4.5,10,10,10
	c3.1,0,5.9-1.4,7.8-3.7C18,19.3,15.8,20.1,13.4,20.1L13.4,20.1z"/>
<path class="st2" d="M11.9,0.8C6.1,0.8,1.3,5.6,1.3,11.5s4.8,10.7,10.7,10.7s10.7-4.8,10.7-10.7S17.8,0.8,11.9,0.8L11.9,0.8z
	 M11.9,20.9c-5.1,0-9.3-4.2-9.3-9.3s4.2-9.3,9.3-9.3s9.3,4.2,9.3,9.3S17.1,20.9,11.9,20.9z"/>
<path class="st2" d="M7.9,7.5c1.5-1.5,3.5-2,5.5-1.5l-0.9,0.1C12,6.2,11.7,6.6,11.8,7c0.1,0.4,0.4,0.6,0.7,0.6c0,0,0.1,0,0.1,0
	l3.6-0.6c0.3,0,0.5-0.2,0.6-0.5s0-0.6-0.1-0.8L14.3,3C14,2.7,13.6,2.7,13.2,3s-0.3,0.8-0.1,1.1l0.4,0.4c-2.4-0.6-4.9,0.1-6.7,1.9
	c-2,2-2.7,5-1.6,7.7c0.1,0.3,0.4,0.5,0.7,0.5c0.1,0,0.2,0,0.3-0.1c0.4-0.1,0.6-0.6,0.4-1C5.8,11.5,6.3,9.1,7.9,7.5L7.9,7.5z"/>
<path class="st2" d="M17.7,8.5c-0.4,0.1-0.6,0.6-0.4,1c0.8,2.1,0.3,4.5-1.3,6.1c-1.5,1.5-3.5,2-5.5,1.5l0.9-0.1
	c0.4-0.1,0.7-0.5,0.6-0.9c-0.1-0.4-0.5-0.7-0.9-0.6L7.6,16c-0.3,0-0.5,0.2-0.6,0.5c-0.1,0.3,0,0.6,0.1,0.8L9.6,20
	c0.1,0.2,0.4,0.3,0.6,0.3c0.2,0,0.4-0.1,0.5-0.2c0.3-0.3,0.3-0.8,0.1-1.1l-0.4-0.4c0.5,0.1,1.1,0.2,1.6,0.2c1.9,0,3.7-0.7,5.1-2.1
	c2-2,2.7-5,1.6-7.7C18.5,8.5,18.1,8.3,17.7,8.5z"/>
<g>
	<path class="st3" d="M11.4,14.9c-0.6-0.1-1.1-0.4-1.6-0.8l-0.3-0.3h0.5c-0.4-0.4-0.7-1-0.8-1.6l0-0.1l0.7,0.1L9.8,12
		c-0.3-0.5-0.4-1.2-0.1-1.8l0.3,0.4v-0.3c0-0.5,0.2-1,0.5-1.3l0.1,0.5l0-0.1c0.3-0.6,0.7-1.1,1.2-1.4L12,8.1
		c0.4,0.3,0.7,0.7,0.8,1.3l0.3-0.4c0.3,0.4,0.4,0.8,0.4,1.2v0.1l0.2-0.1c0.1-0.1,0.2-0.3,0.2-0.4L14,10c0.3,0.5,0.4,1,0.3,1.5
		c0.2,0,0.3-0.1,0.5-0.2l0.1-0.1l-0.1,0.7c0,0.4-0.2,0.9-0.5,1.2h0.4l-0.4,0.7c-0.1,0.2-0.3,0.5-0.5,0.6l0,0
		c-0.3,0.3-0.7,0.4-1.1,0.5l-0.4,0C12,15,11.7,15,11.4,14.9z"/>
	<g>
		<path class="st4" d="M12.1,14.5h-0.4c-0.4,0-0.8,0-1.1-0.1l0.1-0.3c0.3,0.1,0.7,0.1,1.1,0.1h0.4l0.1,0c0.5-0.2,1-0.4,1.5-0.8
			l0.2,0.2c-0.5,0.4-1,0.6-1.6,0.8L12.1,14.5C12.2,14.5,12.1,14.5,12.1,14.5z"/>
		<path class="st4" d="M12.2,15l-0.4-0.9c-0.5-1.2-0.7-2.5-0.4-3.8l0.2-1.4l0.3,0l-0.2,1.4c-0.2,1.2-0.1,2.5,0.4,3.6l0.4,0.9
			L12.2,15z"/>
		<path class="st4" d="M11.6,13.4L11.6,13.4c-0.6,0-1.1-0.1-1.6-0.4l0.1-0.2c0.4,0.3,0.9,0.4,1.4,0.4h0l0.5-0.1
			c0.6-0.1,1.1-0.3,1.5-0.8l0.2-0.2l0.2,0.2l-0.2,0.2c-0.4,0.4-1,0.7-1.7,0.8L11.6,13.4C11.6,13.4,11.6,13.4,11.6,13.4z"/>
		<path class="st4" d="M12.1,12h-0.7c0,0,0,0,0,0l-0.5-0.1c-0.4-0.1-0.8-0.4-0.9-0.8l0.2-0.1c0.2,0.3,0.4,0.5,0.8,0.6l0.5,0.1h0.6
			c0.5,0,1-0.2,1.3-0.7l0.1-0.1l0.2,0.2l-0.1,0.1C13.3,11.7,12.7,12,12.1,12z"/>
		<path class="st4" d="M11.5,10.7C11.4,10.7,11.4,10.7,11.5,10.7l-0.3-0.1c-0.3-0.1-0.6-0.3-0.8-0.6l0.2-0.1
			c0.2,0.2,0.4,0.4,0.7,0.5l0.2,0.1l0.6-0.1c0.3-0.1,0.6-0.2,0.8-0.4l0.1,0.2c-0.3,0.2-0.6,0.3-0.9,0.4L11.5,10.7
			C11.5,10.7,11.5,10.7,11.5,10.7z"/>
	</g>
	<path class="st2" d="M9.2,12.1l0,0.1c0.1,0.5,0.3,1,0.6,1.5H9.6c-0.1,0-0.1,0-0.1,0.1c0,0.1,0,0.1,0,0.1l0.3,0.3
		c0.6,0.6,1.4,0.9,2.3,0.9c0.1,0,0.2,0,0.3,0l0.4,0c0.4,0,0.9-0.2,1.2-0.5c0.2-0.2,0.4-0.4,0.5-0.7l0.4-0.7c0,0,0-0.1,0-0.1
		c0,0-0.1-0.1-0.1-0.1h-0.2c0.2-0.3,0.3-0.7,0.4-1.1l0.1-0.7c0-0.1,0-0.1-0.1-0.1c-0.1,0-0.1,0-0.2,0l-0.1,0.1
		c-0.1,0.1-0.1,0.1-0.2,0.1c0-0.5-0.1-1-0.3-1.4L14,9.7c0-0.1-0.1-0.1-0.2-0.1c-0.1,0-0.1,0.1-0.1,0.1c0,0.1-0.1,0.2-0.1,0.3
		c0-0.4-0.2-0.8-0.4-1.2c0,0-0.1-0.1-0.1-0.1c0,0-0.1,0-0.1,0.1L12.9,9c-0.1-0.4-0.4-0.8-0.8-1l-0.1-0.1c0,0-0.1,0-0.1,0
		c-0.5,0.3-0.8,0.7-1.1,1.2l0-0.2c0,0,0-0.1-0.1-0.1c0,0-0.1,0-0.1,0c-0.3,0.3-0.5,0.8-0.6,1.3l0,0c0,0-0.1-0.1-0.1-0.1
		c0,0-0.1,0-0.1,0.1c-0.3,0.6-0.2,1.3,0.1,1.9l-0.4-0.1c0,0-0.1,0-0.1,0C9.2,12,9.2,12,9.2,12.1L9.2,12.1z M9.9,12.3
		c0.1,0,0.1,0,0.1-0.1c0,0,0-0.1,0-0.1L10,11.9c-0.3-0.4-0.3-1-0.2-1.4l0.1,0.2c0,0,0.1,0.1,0.2,0.1c0.1,0,0.1-0.1,0.1-0.1v-0.3
		c0-0.4,0.1-0.7,0.3-1l0.1,0.3c0,0.1,0.1,0.1,0.1,0.1c0.1,0,0.1,0,0.1-0.1l0-0.1c0.2-0.5,0.6-1,1.1-1.3l0.1,0
		c0.4,0.3,0.7,0.7,0.8,1.2c0,0.1,0.1,0.1,0.1,0.1c0.1,0,0.1,0,0.1-0.1l0.2-0.2c0.2,0.3,0.3,0.6,0.3,1v0.1c0,0,0,0.1,0.1,0.1
		c0,0,0.1,0,0.1,0l0.2-0.1c0.1-0.1,0.1-0.1,0.2-0.2c0.2,0.4,0.3,0.9,0.2,1.4c0,0,0,0.1,0,0.1c0,0,0.1,0,0.1,0c0.1,0,0.3,0,0.4-0.1
		l0,0.4c0,0.4-0.2,0.8-0.4,1.1c0,0,0,0.1,0,0.1c0,0,0.1,0.1,0.1,0.1h0.2l-0.3,0.5c-0.1,0.2-0.3,0.4-0.5,0.6c-0.3,0.2-0.7,0.4-1,0.4
		l-0.3,0l0,0l-0.2-0.4l0,0c0.6-0.2,1.1-0.4,1.6-0.8l-0.2-0.2c-0.4,0.3-0.9,0.6-1.5,0.8l-0.1,0L12.1,14c-0.1-0.2-0.2-0.4-0.2-0.6
		l0.3,0c0.6-0.1,1.2-0.4,1.7-0.8l0.2-0.2l-0.2-0.2l-0.2,0.2c-0.4,0.4-0.9,0.7-1.5,0.8l-0.3,0c-0.1-0.2-0.1-0.5-0.1-0.7
		c0-0.1,0-0.2,0-0.3h0.5c0.6,0,1.2-0.3,1.5-0.8l0.1-0.1L13.5,11l-0.1,0.1c-0.3,0.4-0.8,0.7-1.3,0.7h-0.6c0-0.4,0-0.7,0-1.1l0.5-0.1
		c0.3-0.1,0.6-0.2,0.9-0.4l-0.1-0.2c-0.3,0.2-0.5,0.3-0.8,0.4l-0.4,0.1c0,0,0,0,0,0L11.9,9l-0.3,0l-0.2,1.4c0,0,0,0,0,0.1l-0.1,0
		c-0.3-0.1-0.5-0.3-0.7-0.5L10.4,10c0.2,0.3,0.5,0.5,0.8,0.6l0.1,0.1c0,0.4-0.1,0.7,0,1.1L11,11.6c-0.3-0.1-0.6-0.3-0.8-0.6L10,11.2
		c0.2,0.4,0.5,0.7,0.9,0.8l0.4,0.1c0,0.1,0,0.3,0,0.4c0,0.2,0.1,0.5,0.1,0.7c-0.5,0-0.9-0.1-1.3-0.4L10,13c0.5,0.3,1,0.4,1.5,0.4
		c0.1,0.2,0.2,0.5,0.2,0.7l0,0.1h-0.1c-0.4,0-0.7,0-1.1-0.1l-0.1,0.3c0.4,0.1,0.7,0.1,1.1,0.1H12l0.2,0.4c-0.2,0-0.4,0-0.7-0.1
		c-0.6-0.1-1.1-0.4-1.5-0.8l-0.1-0.1h0.2c0.1,0,0.1,0,0.1-0.1c0-0.1,0-0.1,0-0.1c-0.4-0.4-0.7-0.9-0.7-1.5L9.9,12.3z"/>
</g>
</svg>
