<?xml version="1.0" encoding="utf-8"?>
<!-- Generator: Adobe Illustrator 24.0.2, SVG Export Plug-In . SVG Version: 6.00 Build 0)  -->
<svg version="1.1" id="Capa_1" xmlns="http://www.w3.org/2000/svg" xmlns:xlink="http://www.w3.org/1999/xlink" x="0px" y="0px"
	 viewBox="0 0 24 24" style="enable-background:new 0 0 24 24;" xml:space="preserve">
<style type="text/css">
	.st0{fill:#666666;}
	.st1{fill:#A2A2A2;}
	.st2{fill:#474747;}
	.st3{fill:#FFFFFF;}
</style>
<g>
	<path class="st0" d="M16.8,17.5c0,4-3.7,4.5-7.7,4.5s-7.7-0.5-7.7-4.5c0-3.4,2.8-7.4,5.9-8.6h4.1C14.3,10.2,16.8,14.2,16.8,17.5z"
		/>
	<path class="st0" d="M13.4,6.2c0.2-0.3,0.3-0.6,0.1-1C13.3,5,13,4.8,12.7,4.8H6.1C5.7,4.8,5.4,5,5.2,5.3C5.1,5.6,5.2,6,5.4,6.3
		l1.8,2.6h4.1L13.4,6.2z"/>
	<path class="st1" d="M9.7,22c-0.2,0-0.4,0-0.6,0c-4,0-7.7-0.5-7.7-4.5c0-3.4,2.8-7.4,5.9-8.6h1.4c-3.1,1.2-5.9,5.3-5.9,8.6
		C2.7,21.3,6,22,9.7,22z"/>
	<path class="st2" d="M8.6,8.9H7.2L5.4,6.3C5.2,6,5.1,5.6,5.3,5.3C5.4,5,5.7,4.8,6.1,4.8h1.4C7.1,4.8,6.8,5,6.6,5.3
		C6.5,5.6,6.5,6,6.8,6.3L8.6,8.9z"/>
	<path class="st2" d="M13.2,15.7c0,2.3-1.8,4.1-4.1,4.1S5,17.9,5,15.7s1.8-4.1,4.1-4.1S13.2,13.4,13.2,15.7z"/>
	<path class="st0" d="M21.5,6.8h-1.4V3.4c0-0.4-0.3-0.7-0.7-0.7h-1.3c-0.4,0-0.7,0.3-0.7,0.7v3.4h-1.4l2.7,3.2L21.5,6.8z"/>
	<path d="M9.1,11.1c-2.5,0-4.5,2-4.5,4.5s2,4.5,4.5,4.5s4.5-2,4.5-4.5C13.6,13.2,11.6,11.1,9.1,11.1z M9.1,19.3
		c-2,0-3.6-1.6-3.6-3.6S7,12,9.1,12s3.6,1.6,3.6,3.6C12.7,17.7,11.1,19.3,9.1,19.3z"/>
	<path class="st3" d="M12,8.7l1.7-2.2c0.3-0.4,0.4-1,0.1-1.4c-0.2-0.5-0.7-0.8-1.2-0.8H6.1c-0.5,0-1,0.3-1.2,0.8
		C4.6,5.6,4.7,6.2,5.1,6.6l1.4,2.1c-3.1,1.5-5.6,5.5-5.6,8.8c0,5,5.5,5,8.2,5s8.2,0,8.2-5C17.2,14.2,14.9,10.3,12,8.7z M5.7,5.5
		c0.1-0.2,0.2-0.3,0.4-0.3h6.6c0.2,0,0.3,0.1,0.4,0.3c0.1,0.2,0.1,0.3,0,0.5l-1.9,2.4H7.4L5.7,6C5.6,5.8,5.6,5.7,5.7,5.5L5.7,5.5z
		 M9.1,21.6c-4.4,0-7.3-0.7-7.3-4.1c0-3.1,2.6-7,5.5-8.2h3.9c2.7,1.3,5.1,5.1,5.1,8.2C16.3,20.9,13.4,21.6,9.1,21.6z"/>
	<path class="st3" d="M18.8,10.7l-3.7-4.3H17V3.7c0-0.8,0.7-1.5,1.5-1.5h0.6c0.8,0,1.5,0.7,1.5,1.5v2.6h1.9L18.8,10.7z M17.1,7.2
		l1.7,2l1.7-2h-0.8V3.9c0-0.4-0.3-0.7-0.7-0.7h-0.4c-0.4,0-0.7,0.3-0.7,0.7v3.4H17.1z"/>
	<g>
		<path d="M10.4,15.8c-0.2,0-0.5,0.1-0.6,0.3c0,0-0.1,0-0.1,0l-0.4-0.2c0,0,0,0,0-0.1l0-0.5c0,0,0-0.1,0.1-0.1
			c0.4-0.1,0.6-0.4,0.6-0.8c0-0.5-0.4-0.8-0.8-0.8c-0.5,0-0.9,0.4-0.9,0.8c0,0.4,0.3,0.7,0.6,0.8c0,0,0.1,0,0.1,0.1l0,0.5
			c0,0,0,0.1,0,0.1l-0.4,0.2c0,0-0.1,0-0.1,0c-0.2-0.2-0.4-0.3-0.6-0.3c-0.5,0-0.8,0.4-0.8,0.9c0,0.5,0.4,0.8,0.8,0.8
			c0.5,0,0.9-0.4,0.9-0.8c0-0.1,0-0.2,0-0.2c0,0,0-0.1,0-0.1L9,16.1c0,0,0.1,0,0.1,0l0.4,0.2c0,0,0.1,0.1,0,0.1c0,0.1,0,0.2,0,0.2
			c0,0.5,0.4,0.8,0.9,0.8c0.5,0,0.8-0.4,0.8-0.8C11.2,16.2,10.9,15.8,10.4,15.8z"/>
		<path d="M8.7,17.2c-0.2,0.4-0.6,0.6-1,0.6c-0.6,0-1.1-0.5-1.1-1.1c0-0.6,0.5-1.1,1.1-1.1c0.3,0,0.5,0.1,0.7,0.3l0.2-0.1l0-0.3
			c-0.3-0.2-0.6-0.3-1-0.3c-0.9,0-1.6,0.7-1.6,1.6c0,0.9,0.7,1.6,1.6,1.6c0.5,0,0.9-0.2,1.2-0.6C8.9,17.5,8.8,17.3,8.7,17.2z"/>
		<path d="M9.1,12.8c-0.9,0-1.6,0.7-1.6,1.6c0,0.2,0,0.4,0.1,0.6c0,0,0.1,0,0.1,0c0.1,0,0.3,0,0.4,0c-0.1-0.2-0.2-0.4-0.2-0.6
			c0-0.6,0.5-1.1,1.1-1.1c0.6,0,1.1,0.5,1.1,1.1c0,0.5-0.3,0.9-0.8,1.1l0,0.3l0.2,0.1c0.6-0.2,1-0.8,1-1.5
			C10.6,13.5,9.9,12.8,9.1,12.8z"/>
		<path d="M10.6,15.1c-0.1,0.2-0.2,0.3-0.3,0.4c0,0,0.1,0,0.1,0c0.6,0,1.1,0.5,1.1,1.1c0,0.6-0.5,1.1-1.1,1.1
			c-0.6,0-1.1-0.5-1.1-1.1c0-0.1,0-0.2,0-0.2l-0.2-0.1l-0.2,0.1c0,0.1,0,0.1,0,0.2c0,0.9,0.7,1.6,1.6,1.6c0.9,0,1.6-0.7,1.6-1.6
			C12,15.8,11.4,15.2,10.6,15.1z"/>
	</g>
</g>
</svg>
