<?xml version="1.0" encoding="utf-8"?>
<!-- Generator: Adobe Illustrator 24.0.2, SVG Export Plug-In . SVG Version: 6.00 Build 0)  -->
<svg version="1.1" id="ic-transaction-staked" xmlns="http://www.w3.org/2000/svg" xmlns:xlink="http://www.w3.org/1999/xlink"
	 x="0px" y="0px" viewBox="0 0 24 24" style="enable-background:new 0 0 24 24;" xml:space="preserve">
<style type="text/css">
	.st0{fill:#5B5B5B;}
	.st1{fill:#FFFFFF;}
	.st2{fill:#353535;}
	.st3{fill:#595959;}
</style>
<g>
	<path class="st0" d="M9.1,14.8v8.3l-7.2-4v-8.3"/>
	<path class="st0" d="M9.1,14.8v8.3l7.2-4v-8.3"/>
	<path class="st0" d="M1.9,10.6l7.2-4l7.2,4l-7.2,4L1.9,10.6z"/>
	<path class="st1" d="M11.3,16.5c-0.2,0-0.3-0.1-0.4-0.2l-0.1-0.1c0,0,0-0.1-0.1-0.1V16v-0.1v-0.1v-0.1c0,0,0-0.1,0.1-0.1
		c0,0,0-0.1,0.1-0.1c0.1-0.1,0.3-0.2,0.4-0.2s0.3,0.1,0.4,0.2l0.1,0.1c0,0,0,0.1,0.1,0.1v0.1v0.1V16v0.1c0,0,0,0.1-0.1,0.1
		c0,0,0,0.1-0.1,0.1C11.6,16.4,11.5,16.5,11.3,16.5z"/>
	<path class="st1" d="M16.5,10.1l-7.2-4C9.1,6,8.9,6,8.7,6.1l-7.2,4c-0.2,0.1-0.3,0.4-0.3,0.7v8.3c0,0.2,0.1,0.4,0.3,0.5l7.2,4
		c0.3,0.2,0.5,0,0.5,0l7.2-4c0.2-0.1,0.3-0.3,0.3-0.5v-8.3C16.9,10.4,16.7,10.2,16.5,10.1z M9.1,7.3l6,3.3l-6,3.3l-6-3.3L9.1,7.3z
		 M2.5,11.6l6,3.3v7.2l-6-3.3V11.6z M11.9,20.9v-2.7c0-0.3-0.3-0.6-0.6-0.6s-0.6,0.3-0.6,0.6v3.4l-1,0.5v-7.2l6-3.3v7.2L11.9,20.9z"
		/>
	<path class="st0" d="M19.7,5.3v1.3h-3.1c-0.4,0-0.6,0.3-0.6,0.6v1.2C16,8.8,16.3,9,16.6,9h3.1v1.3l2.9-2.5L19.7,5.3z"/>
	<path class="st1" d="M23.3,7.9l-4,3.4V9.5h-2.4c-0.8,0-1.4-0.6-1.4-1.4V7.6c0-0.8,0.6-1.4,1.4-1.4h2.4V4.4L23.3,7.9z M20.1,9.5
		L22,7.9l-1.9-1.6V7H17c-0.4,0-0.7,0.3-0.7,0.7V8c0,0.4,0.3,0.7,0.7,0.7h3.1V9.5z"/>
	<path class="st0" d="M14,6.3V5h3.1c0.4,0,0.6-0.3,0.6-0.6V3.2c0-0.4-0.3-0.6-0.6-0.6H14V1.3l-2.9,2.5L14,6.3z"/>
	<path class="st1" d="M10.4,3.8l4-3.4v1.7h2.4c0.8,0,1.4,0.6,1.4,1.4v0.6c0,0.8-0.6,1.4-1.4,1.4h-2.4v1.7L10.4,3.8z M13.6,2.2
		l-1.9,1.6l1.9,1.6V4.6h3.1c0.4,0,0.7-0.3,0.7-0.7V3.6c0-0.4-0.3-0.7-0.7-0.7h-3.1V2.2z"/>
	<circle class="st2" cx="17.5" cy="18" r="4.6"/>
	<ellipse class="st3" cx="17.2" cy="18" rx="4.3" ry="4.6"/>
	<path class="st1" d="M17.5,22.6h0.1c-2.3-0.1-4.2-2.1-4.2-4.6s1.9-4.5,4.2-4.6h-0.1c-2.5,0-4.6,2.1-4.6,4.6S15,22.6,17.5,22.6z"/>
	<circle class="st3" cx="17.5" cy="18" r="0.5"/>
	<g>
		<path class="st1" d="M17.5,22.7c-2.6,0-4.7-2.1-4.7-4.7s2.1-4.7,4.7-4.7s4.7,2.1,4.7,4.7S20.1,22.7,17.5,22.7z M17.5,13.6
			c-2.4,0-4.4,2-4.4,4.4s2,4.4,4.4,4.4s4.4-2,4.4-4.4C21.9,15.5,19.9,13.6,17.5,13.6z"/>
		<path class="st1" d="M17,18.1h-1.3c-0.1,0-0.2-0.1-0.2-0.2s0.1-0.2,0.2-0.2H17c0.1,0,0.2,0.1,0.2,0.2S17.1,18.1,17,18.1z"/>
		<path class="st1" d="M17.5,17.6h-0.1v-0.1v-1.7c0-0.1,0.1-0.2,0.2-0.2s0.2,0.1,0.2,0.2v1.7v0.1C17.6,17.6,17.5,17.6,17.5,17.6
			L17.5,17.6z"/>
		<path class="st1" d="M17.5,18.6c-0.3,0-0.6-0.3-0.6-0.6c0-0.3,0.3-0.6,0.6-0.6c0.3,0,0.6,0.3,0.6,0.6S17.8,18.6,17.5,18.6z
			 M17.5,17.6c-0.2,0-0.3,0.1-0.3,0.3c0,0.2,0.1,0.3,0.3,0.3c0.2,0,0.3-0.1,0.3-0.3C17.8,17.8,17.7,17.6,17.5,17.6L17.5,17.6z"/>
		<path class="st1" d="M17.5,14.8h-0.1v-0.1v-0.2c0-0.1,0.1-0.2,0.2-0.2s0.2,0.1,0.2,0.2v0.2v0.1C17.6,14.8,17.5,14.8,17.5,14.8z"/>
		<path class="st1" d="M17.5,21.6h-0.1v-0.1v-0.2c0-0.1,0.1-0.2,0.2-0.2s0.2,0.1,0.2,0.2v0.2v0.1C17.6,21.6,17.5,21.6,17.5,21.6
			L17.5,21.6z"/>
		<path class="st1" d="M21,18.1h-0.2c-0.1,0-0.2-0.1-0.2-0.2s0.1-0.2,0.2-0.2H21c0.1,0,0.2,0.1,0.2,0.2S21.1,18.1,21,18.1z"/>
		<path class="st1" d="M14.2,18.1H14c-0.1,0-0.2-0.1-0.2-0.2s0.1-0.2,0.2-0.2h0.2c0.1,0,0.2,0.1,0.2,0.2S14.3,18.1,14.2,18.1z"/>
		<path class="st1" d="M19.8,15.8c-0.1,0-0.1,0-0.1-0.1s0-0.1,0-0.2l0.1-0.1c0,0,0.1-0.1,0.2,0c0.1,0,0.1,0.1,0.1,0.1
			c0,0.1,0,0.1,0,0.2L20,15.8C19.9,15.8,19.9,15.8,19.8,15.8z"/>
		<path class="st1" d="M15,20.6c-0.1,0-0.1,0-0.1-0.1s0-0.1,0-0.2l0.1-0.1c0.1-0.1,0.2-0.1,0.2,0c0.1,0.1,0.1,0.2,0,0.2L15,20.6
			C15.1,20.6,15.1,20.6,15,20.6L15,20.6z"/>
		<path class="st1" d="M19.9,20.6h-0.1l-0.1-0.1c-0.1-0.1-0.1-0.2,0-0.2c0.1-0.1,0.2-0.1,0.2,0l0.1,0.1c0,0,0.1,0.1,0,0.2
			C20.1,20.5,20,20.6,19.9,20.6L19.9,20.6z"/>
		<path class="st1" d="M15.1,15.8H15l-0.1-0.1c-0.1-0.1-0.1-0.2,0-0.2c0.1-0.1,0.2-0.1,0.2,0l0.1,0.1C15.2,15.6,15.3,15.7,15.1,15.8
			C15.3,15.7,15.2,15.8,15.1,15.8L15.1,15.8z"/>
	</g>
</g>
</svg>
