<?xml version="1.0" encoding="utf-8"?>
<!-- Generator: Adobe Illustrator 24.0.1, SVG Export Plug-In . SVG Version: 6.00 Build 0)  -->
<svg version="1.1" id="ic-transaction-staked" xmlns="http://www.w3.org/2000/svg" xmlns:xlink="http://www.w3.org/1999/xlink"
	 x="0px" y="0px" viewBox="0 0 24 24" style="enable-background:new 0 0 24 24;" xml:space="preserve">
<style type="text/css">
	.st0{fill:#B6B6B6;}
</style>
<title>contract-icon-reward</title>
<g>
	<path class="st0" d="M15.8,9.2c0.1-0.1,0.5-0.6,0.5-0.8c-0.2,0-0.4,0-0.6,0h-1.3C14.8,8.7,15.3,9,15.8,9.2z"/>
	<path class="st0" d="M23.2,12c0-0.8-0.1-1.6-0.2-2.3l-1.4,0.1h-0.7L17.6,10c-0.1,0-0.1,0-0.2,0c-0.3,0-1.7-0.1-2.2-0.5
		c-0.4-0.2-1-0.6-1.3-0.8c-0.2-0.1-0.4-0.2-0.6-0.3c-0.5-0.1-1.2-0.4-1.7-0.3c-0.3,0.1-1.8,1.1-2,1.3s-0.4,0.9-0.5,1.2
		c0,0.3-0.5,1.1-0.5,1.1c1.4,0.7,2.2-1.6,2.4-1.7c0.2-0.1,0.5-0.2,0.9-0.2c0.6,0,1.1,0.2,1.6,0.6l4.6,3.9h0.4c0.3,0,1.3,0,2.3-0.1
		c-1,3.8-4.5,6.6-8.7,6.6c-3.4,0-6.4-1.9-7.9-4.7l0,0L3,15.5l-1,0.6c1.7,3.9,5.6,6.6,10.1,6.6c5.3,0,9.8-3.8,10.8-8.8l0,0
		C23.1,13.5,23.2,12.7,23.2,12z"/>
	<path class="st0" d="M10.5,17.8c0.3,0.2,0.6,0.1,0.8-0.2l1.6-2.7c0.2-0.3,0.1-0.6-0.2-0.8s-0.6-0.1-0.8,0.2L10.3,17
		C10.2,17.3,10.3,17.6,10.5,17.8z"/>
	<path class="st0" d="M9.1,17.3c0.3,0.1,0.6,0.1,0.7-0.2l1.4-2.5c0.1-0.3,0.1-0.6-0.2-0.7c-0.3-0.1-0.6-0.1-0.7,0.2l-1.4,2.5
		C8.8,16.8,8.9,17.1,9.1,17.3z"/>
	<path class="st0" d="M7.9,16.6c0.3,0.1,0.6,0.1,0.7-0.2l1-1.8c0.1-0.3,0.1-0.6-0.2-0.7c-0.2-0.2-0.5-0.1-0.7,0.2l-1,1.8
		C7.5,16.1,7.6,16.4,7.9,16.6z"/>
	<path class="st0" d="M7.9,13.8c-0.2-0.1-0.5-0.1-0.7,0.2l-0.7,1.3c-0.1,0.2-0.1,0.5,0.2,0.7c0.2,0.1,0.5,0.1,0.7-0.2l0.7-1.3
		C8.2,14.2,8.1,13.9,7.9,13.8z"/>
	<path class="st0" d="M6.4,14.6l0.7-1c0,0,0.4-0.4,1-0.2c0.1,0.1,0.4,0.4,0.4,0.4s0.3-0.5,0.9-0.4c0.4,0,0.7,0.4,0.7,0.4
		s0.3-0.4,0.9-0.4c0.5,0,0.7,0.5,0.7,0.5s0.4-0.5,1.2-0.2c0.6,0.3,0.5,1.1,0.5,1.1l-1.3,2.3l1,0.7c0,0,0.3,0.3,0.6,0
		c0.3-0.2,0-0.6,0-0.6l-0.8-0.7c0-0.1,0.2-0.3,0.2-0.3l1.3,1.1c0,0,0.3,0.2,0.7-0.1c0.3-0.2,0-0.5,0-0.5l-1.3-1.2l0.2-0.3l1.9,1.6
		c0,0,0.3,0.2,0.7-0.1c0.4-0.3,0-0.7,0-0.7l-1.8-1.7L15,14l2.3,2.1c0,0,0.5,0.3,0.8-0.1c0.3-0.4-0.1-0.7-0.1-0.7l-4.6-4.1
		c-0.2-0.2-0.4-0.3-0.7-0.4c0,0-0.5-0.3-0.9-0.3c-0.5,0-0.7,0.2-0.7,0.2s-0.5,0.9-0.9,1.3c-0.4,0.3-1.1,0.6-1.8,0.3L8,12
		c0,0,0.3-0.3,0.4-1.2c0.3-0.9,0.4-1.3,0.8-1.6c0.3-0.4,0.7-0.8,1.3-0.9c0,0-1.1-0.3-2.3,0.4C7.1,9.5,7,9.6,5.8,9.6
		c-0.5,0-1.4,0-2.3,0C4.5,5.8,8,3,12.2,3c3.7,0,6.8,2.2,8.2,5.4c0.4,0.1,1,0.3,1.2,0.4l0,0l0.9-0.6C20.9,4,16.9,1,12.2,1
		C6.9,1,2.5,4.7,1.5,9.6l0,0c-0.3,0.8-0.3,1.6-0.3,2.4c0,0.9,0.1,1.8,0.3,2.7h2.1L6.4,14.6z"/>
</g>
</svg>
