<?xml version="1.0" encoding="utf-8"?>
<!-- Generator: Adobe Illustrator 24.0.2, SVG Export Plug-In . SVG Version: 6.00 Build 0)  -->
<svg version="1.1" id="Capa_1" xmlns="http://www.w3.org/2000/svg" xmlns:xlink="http://www.w3.org/1999/xlink" x="0px" y="0px"
	 viewBox="0 0 24 24" style="enable-background:new 0 0 24 24;" xml:space="preserve">
<style type="text/css">
	.st0{fill:#C3996C;}
	.st1{fill:#A87C50;}
	.st2{fill:#8A5E3C;}
	.st3{fill:#FF9711;}
	.st4{fill:#0080FF;}
	.st5{fill:#FFFFFF;}
</style>
<g>
	<path class="st0" d="M18.2,16.7c0,4-3.7,4.5-7.6,4.5s-7.6-0.5-7.6-4.5c0-3.3,2.8-7.3,5.8-8.5h4C15.8,9.4,18.2,13.4,18.2,16.7z"/>
	<path class="st1" d="M14.8,5.5c0.2-0.3,0.2-0.6,0.1-0.9c-0.2-0.3-0.5-0.5-0.8-0.5H7.6c-0.4,0-0.7,0.2-0.8,0.5
		c-0.1,0.3-0.1,0.7,0.1,1l1.8,2.6h4L14.8,5.5z"/>
	<path class="st1" d="M11.1,21.2c-0.2,0-0.4,0-0.6,0c-4,0-7.6-0.5-7.6-4.5c0-3.3,2.8-7.3,5.8-8.5h1.3C7,9.4,4.2,13.3,4.2,16.7
		C4.2,20.4,7.5,21.1,11.1,21.2z"/>
	<path class="st2" d="M10.1,8.1H8.7L6.9,5.6c-0.2-0.3-0.3-0.6-0.1-1c0.1-0.3,0.5-0.5,0.8-0.5h1.3c-0.4,0-0.7,0.2-0.8,0.5
		C8,4.9,8,5.3,8.3,5.6L10.1,8.1z"/>
	<path class="st3" d="M14.6,14.9c0,2.2-1.8,4-4,4s-4-1.8-4-4s1.8-4,4-4S14.6,12.6,14.6,14.9z"/>
	<path class="st4" d="M21.9,6.1h-1.3V2.8c0-0.4-0.3-0.7-0.7-0.7h-1.3c-0.4,0-0.7,0.3-0.7,0.7v3.4h-1.3l2.7,3.1L21.9,6.1z"/>
	<path d="M10.5,10.4c-2.5,0-4.5,2-4.5,4.5s2,4.5,4.5,4.5s4.5-2,4.5-4.5C15,12.4,13,10.4,10.5,10.4z M10.5,18.5c-2,0-3.6-1.6-3.6-3.6
		s1.6-3.6,3.6-3.6s3.6,1.6,3.6,3.6C14.1,16.9,12.5,18.5,10.5,18.5z"/>
	<path class="st5" d="M13.5,8l1.7-2.2c0.3-0.4,0.4-1,0.1-1.4c-0.2-0.5-0.7-0.8-1.2-0.8H7.6c-0.5,0-1,0.3-1.2,0.8
		C6.1,4.9,6.2,5.5,6.6,5.9L8,8c-3,1.5-5.6,5.4-5.6,8.7c0,4.9,5.5,4.9,8.1,4.9s8.1,0,8.1-4.9C18.6,13.4,16.3,9.5,13.5,8z M7.2,4.8
		c0.1-0.2,0.2-0.3,0.4-0.3h6.5c0.2,0,0.3,0.1,0.4,0.3c0.1,0.2,0.1,0.3,0,0.5l-1.9,2.4H8.9L7.3,5.3C7.1,5.2,7.1,5,7.2,4.8L7.2,4.8z
		 M10.5,20.7c-4.3,0-7.2-0.7-7.2-4c0-3.1,2.6-6.9,5.5-8.1h3.9c2.7,1.2,5,5,5,8.1C17.7,20,14.9,20.7,10.5,20.7z"/>
	<path class="st5" d="M19.2,10l-3.7-4.3h1.9V3.1c0-0.8,0.7-1.5,1.5-1.5h0.6c0.8,0,1.5,0.7,1.5,1.5v2.6h1.9L19.2,10z M17.5,6.6l1.7,2
		l1.7-2h-0.8V3.2c0-0.4-0.3-0.7-0.7-0.7h-0.4c-0.4,0-0.7,0.3-0.7,0.7v3.3H17.5z"/>
	<g>
		<path d="M11.9,15c-0.2,0-0.5,0.1-0.6,0.3c0,0-0.1,0-0.1,0L10.7,15c0,0,0,0,0-0.1l0-0.5c0,0,0-0.1,0.1-0.1c0.4-0.1,0.6-0.4,0.6-0.8
			c0-0.5-0.4-0.8-0.8-0.8c-0.5,0-0.8,0.4-0.8,0.8c0,0.4,0.3,0.7,0.6,0.8c0,0,0.1,0,0.1,0.1l0,0.5c0,0,0,0.1,0,0.1l-0.4,0.2
			c0,0-0.1,0-0.1,0C9.7,15.1,9.5,15,9.2,15c-0.5,0-0.8,0.4-0.8,0.8c0,0.5,0.4,0.8,0.8,0.8c0.5,0,0.8-0.4,0.8-0.8c0-0.1,0-0.2,0-0.2
			c0,0,0-0.1,0-0.1l0.4-0.2c0,0,0.1,0,0.1,0l0.4,0.2c0,0,0.1,0.1,0,0.1c0,0.1,0,0.2,0,0.2c0,0.5,0.4,0.8,0.8,0.8
			c0.5,0,0.8-0.4,0.8-0.8C12.7,15.4,12.3,15,11.9,15z"/>
		<path d="M10.2,16.3c-0.2,0.4-0.6,0.6-1,0.6c-0.6,0-1.1-0.5-1.1-1.1c0-0.6,0.5-1.1,1.1-1.1c0.3,0,0.5,0.1,0.7,0.3l0.2-0.1l0-0.3
			c-0.3-0.2-0.6-0.3-1-0.3c-0.9,0-1.5,0.7-1.5,1.5c0,0.9,0.7,1.5,1.5,1.5c0.5,0,0.9-0.2,1.2-0.6C10.3,16.7,10.3,16.5,10.2,16.3z"/>
		<path d="M10.5,12C9.7,12,9,12.7,9,13.5c0,0.2,0,0.4,0.1,0.6c0,0,0.1,0,0.1,0c0.1,0,0.3,0,0.4,0c-0.1-0.2-0.2-0.4-0.2-0.6
			c0-0.6,0.5-1.1,1.1-1.1c0.6,0,1.1,0.5,1.1,1.1c0,0.5-0.3,0.9-0.8,1.1l0,0.3l0.2,0.1c0.6-0.2,1-0.8,1-1.4
			C12.1,12.7,11.4,12,10.5,12z"/>
		<path d="M12.1,14.3c-0.1,0.2-0.2,0.3-0.3,0.4c0,0,0.1,0,0.1,0c0.6,0,1.1,0.5,1.1,1.1c0,0.6-0.5,1.1-1.1,1.1
			c-0.6,0-1.1-0.5-1.1-1.1c0-0.1,0-0.2,0-0.2l-0.2-0.1l-0.2,0.1c0,0.1,0,0.1,0,0.2c0,0.9,0.7,1.5,1.5,1.5c0.9,0,1.5-0.7,1.5-1.5
			C13.4,15,12.8,14.4,12.1,14.3z"/>
	</g>
</g>
</svg>
