<?xml version="1.0" encoding="utf-8"?>
<!-- Generator: Adobe Illustrator 24.0.2, SVG Export Plug-In . SVG Version: 6.00 Build 0)  -->
<svg version="1.1" id="ic_warnig_3" xmlns="http://www.w3.org/2000/svg" xmlns:xlink="http://www.w3.org/1999/xlink" x="0px"
	 y="0px" viewBox="0 0 24 24" style="enable-background:new 0 0 24 24;" xml:space="preserve">
<style type="text/css">
	.st0{fill:#FFB651;}
	.st1{fill:#FFD664;}
	.st2{fill:#525A61;}
</style>
<g>
	<path d="M14.9,3.1l7.9,13.7c0.3,0.5,0.5,1.1,0.5,1.7c0,1.9-1.5,3.4-3.4,3.4h-7.9L9.2,11.6l2.7-10.2C13.2,1.3,14.3,2,14.9,3.1z"/>
	<path d="M9,3.1L1.1,16.7c-0.3,0.5-0.5,1.1-0.5,1.7c0,1.9,1.5,3.4,3.4,3.4h7.9V1.3C10.6,1.3,9.5,2,9,3.1z"/>
	<path class="st0" d="M21.6,17.4L13.7,3.7c-0.4-0.6-1-1-1.7-1l6.7,17.8h1.1c1.1,0,2-0.9,2-2C21.8,18.1,21.8,17.7,21.6,17.4z"/>
	<path class="st1" d="M20.2,17.4c0.2,0.3,0.2,0.7,0.2,1c0,1.1-0.8,2-1.8,2H4c-1.1,0-2-0.9-2-2c0-0.4,0.1-0.7,0.3-1l7.9-13.7
		c0.4-0.6,1-1,1.8-1c0,0,0,0,0.1,0c0.6,0,1.2,0.4,1.5,1L20.2,17.4z"/>
	<path d="M11.9,15.9v2.3c0.6,0,1.1-0.5,1.1-1.1C13,16.4,12.5,15.9,11.9,15.9z"/>
	<path class="st2" d="M11.9,15.9c0.1,0,0.2,0.5,0.2,1.1s-0.1,1.1-0.2,1.1c-0.6,0-1.1-0.5-1.1-1.1S11.3,15.9,11.9,15.9z"/>
	<path d="M11.9,6.1v8.4c0.6,0,1.1-0.5,1.1-1.1V7.3C13,6.7,12.5,6.1,11.9,6.1z"/>
	<path class="st2" d="M11.9,6.1c0.1,0,0.2,0.5,0.2,1.1v6.1c0,0.6-0.1,1.1-0.2,1.1c-0.6,0-1.1-0.5-1.1-1.1V7.3
		C10.8,6.7,11.3,6.1,11.9,6.1z"/>
</g>
</svg>
